<svg width="459" height="999" viewBox="0 0 459 999" fill="none" xmlns="http://www.w3.org/2000/svg">
<g opacity="0.32" filter="url(#filter0_f_728_1413)">
<path d="M377.37 856.562C366.924 873.61 292.266 897.921 210.617 910.862C128.968 923.803 71.247 920.474 81.6931 903.426C92.1392 886.378 166.797 862.067 248.446 849.126C330.095 836.185 387.816 839.514 377.37 856.562Z" fill="url(#paint0_linear_728_1413)" fill-opacity="0.48"/>
</g>
<g opacity="0.16" filter="url(#filter1_f_728_1413)">
<path d="M374.979 858.938C361.693 873.603 322.45 882.964 287.328 879.845C252.205 876.727 234.503 862.31 247.789 847.645C261.075 832.98 300.318 823.619 335.44 826.738C370.563 829.856 388.265 844.273 374.979 858.938Z" fill="black"/>
</g>
<path fill-rule="evenodd" clip-rule="evenodd" d="M380.048 26.5H244.048V856.444L244.058 856.443C244.402 867.133 261.088 876.16 288.007 878.55C323.13 881.669 362.373 872.308 375.659 857.643C378.894 854.072 380.291 850.516 380.048 847.134V26.5Z" fill="#FAF8F6"/>
<path fill-rule="evenodd" clip-rule="evenodd" d="M380.048 26.5H244.048V856.444L244.058 856.443C244.402 867.133 261.088 876.16 288.007 878.55C323.13 881.669 362.373 872.308 375.659 857.643C378.894 854.072 380.291 850.516 380.048 847.134V26.5Z" fill="url(#paint1_linear_728_1413)" fill-opacity="0.4"/>
<path fill-rule="evenodd" clip-rule="evenodd" d="M380.048 26.5H244.048V856.444L244.058 856.443C244.402 867.133 261.088 876.16 288.007 878.55C323.13 881.669 362.373 872.308 375.659 857.643C378.894 854.072 380.291 850.516 380.048 847.134V26.5Z" fill="url(#paint2_linear_728_1413)" fill-opacity="0.16"/>
<defs>
<filter id="filter0_f_728_1413" x="0.47168" y="761.238" width="458.119" height="237.513" filterUnits="userSpaceOnUse" color-interpolation-filters="sRGB">
<feFlood flood-opacity="0" result="BackgroundImageFix"/>
<feBlend mode="normal" in="SourceGraphic" in2="BackgroundImageFix" result="shape"/>
<feGaussianBlur stdDeviation="40" result="effect1_foregroundBlur_728_1413"/>
</filter>
<filter id="filter1_f_728_1413" x="227.373" y="810.138" width="168.022" height="86.3062" filterUnits="userSpaceOnUse" color-interpolation-filters="sRGB">
<feFlood flood-opacity="0" result="BackgroundImageFix"/>
<feBlend mode="normal" in="SourceGraphic" in2="BackgroundImageFix" result="shape"/>
<feGaussianBlur stdDeviation="8" result="effect1_foregroundBlur_728_1413"/>
</filter>
<linearGradient id="paint0_linear_728_1413" x1="471.407" y1="952.722" x2="478.139" y2="906.353" gradientUnits="userSpaceOnUse">
<stop stop-opacity="0"/>
<stop offset="1"/>
</linearGradient>
<linearGradient id="paint1_linear_728_1413" x1="349.636" y1="59.8308" x2="243.961" y2="59.8308" gradientUnits="userSpaceOnUse">
<stop stop-color="white" stop-opacity="0.96"/>
<stop offset="0.53125" stop-color="white" stop-opacity="0.4"/>
<stop offset="1" stop-color="white" stop-opacity="0.24"/>
</linearGradient>
<linearGradient id="paint2_linear_728_1413" x1="350.877" y1="436.723" x2="224.626" y2="433.389" gradientUnits="userSpaceOnUse">
<stop stop-opacity="0"/>
<stop offset="1"/>
</linearGradient>
</defs>
</svg>
