<svg width="484" height="421" viewBox="0 0 484 421" fill="none" xmlns="http://www.w3.org/2000/svg">
<path d="M0 32C0 14.3269 14.3269 0 32 0H451.5C469.173 0 483.5 14.3269 483.5 32V389C483.5 406.673 469.173 421 451.5 421H32C14.3269 421 0 406.673 0 389V32Z" fill="#E2E2E2"/>
<path d="M167.252 208V189.982H122.9V180.154L160.196 119.8H179.726V179.02H192.326V189.982H179.726V208H167.252ZM136.634 179.02H167.882V128.116H167.378L136.634 179.02ZM231.838 209.512C225.37 209.512 219.91 208.294 215.458 205.858C211.006 203.422 207.436 200.188 204.748 196.156C202.06 192.124 200.086 187.588 198.826 182.548C197.65 177.508 197.062 172.384 197.062 167.176C197.062 157.432 198.406 148.906 201.094 141.598C203.866 134.29 207.814 128.578 212.938 124.462C218.146 120.346 224.362 118.288 231.586 118.288C237.298 118.288 242.17 119.422 246.202 121.69C250.318 123.958 253.51 126.94 255.778 130.636C258.13 134.332 259.558 138.448 260.062 142.984H248.344C247.588 138.532 245.698 135.088 242.674 132.652C239.734 130.216 235.954 128.998 231.334 128.998C227.302 128.998 223.648 130.3 220.372 132.904C217.096 135.424 214.45 139.288 212.434 144.496C210.502 149.704 209.41 156.34 209.158 164.404C209.158 164.488 209.158 164.572 209.158 164.656C209.158 164.74 209.158 164.866 209.158 165.034C210.502 162.514 212.35 160.246 214.702 158.23C217.138 156.13 219.952 154.492 223.144 153.316C226.336 152.056 229.864 151.426 233.728 151.426C238.684 151.426 243.346 152.602 247.714 154.954C252.082 157.222 255.61 160.498 258.298 164.782C261.07 169.066 262.456 174.064 262.456 179.776C262.456 184.9 261.196 189.73 258.676 194.266C256.24 198.802 252.712 202.498 248.092 205.354C243.472 208.126 238.054 209.512 231.838 209.512ZM230.956 198.55C234.652 198.55 237.928 197.752 240.784 196.156C243.64 194.56 245.866 192.418 247.462 189.73C249.142 186.958 249.982 183.808 249.982 180.28C249.982 176.668 249.142 173.518 247.462 170.83C245.866 168.058 243.598 165.916 240.658 164.404C237.802 162.892 234.568 162.136 230.956 162.136C227.344 162.136 224.068 162.976 221.128 164.656C218.272 166.336 216.004 168.562 214.324 171.334C212.644 174.022 211.804 177.046 211.804 180.406C211.804 183.85 212.644 186.958 214.324 189.73C216.004 192.418 218.272 194.56 221.128 196.156C224.068 197.752 227.344 198.55 230.956 198.55ZM280.15 208L330.928 119.8H343.402L292.624 208H280.15ZM337.48 209.512C333.532 209.512 330.004 208.63 326.896 206.866C323.788 205.102 321.31 202.624 319.462 199.432C317.614 196.156 316.69 192.334 316.69 187.966C316.69 183.43 317.614 179.566 319.462 176.374C321.31 173.182 323.788 170.704 326.896 168.94C330.004 167.176 333.49 166.294 337.354 166.294C341.386 166.294 344.914 167.176 347.938 168.94C351.046 170.704 353.482 173.182 355.246 176.374C357.094 179.566 358.018 183.43 358.018 187.966C358.018 192.334 357.094 196.156 355.246 199.432C353.482 202.624 351.046 205.102 347.938 206.866C344.83 208.63 341.344 209.512 337.48 209.512ZM337.228 200.188C339.16 200.188 340.882 199.726 342.394 198.802C343.99 197.878 345.25 196.534 346.174 194.77C347.182 192.922 347.686 190.612 347.686 187.84C347.686 185.068 347.224 182.8 346.3 181.036C345.376 179.188 344.116 177.802 342.52 176.878C341.008 175.954 339.286 175.492 337.354 175.492C335.59 175.492 333.91 175.954 332.314 176.878C330.718 177.802 329.416 179.188 328.408 181.036C327.484 182.8 327.022 185.068 327.022 187.84C327.022 190.612 327.484 192.922 328.408 194.77C329.416 196.534 330.676 197.878 332.188 198.802C333.784 199.726 335.464 200.188 337.228 200.188ZM286.954 161.632C283.006 161.632 279.478 160.75 276.37 158.986C273.262 157.222 270.784 154.744 268.936 151.552C267.088 148.276 266.164 144.412 266.164 139.96C266.164 135.508 267.088 131.686 268.936 128.494C270.784 125.302 273.262 122.824 276.37 121.06C279.562 119.296 283.09 118.414 286.954 118.414C290.902 118.414 294.388 119.296 297.412 121.06C300.52 122.824 302.998 125.302 304.846 128.494C306.694 131.686 307.618 135.508 307.618 139.96C307.618 144.412 306.694 148.276 304.846 151.552C302.998 154.744 300.52 157.222 297.412 158.986C294.304 160.75 290.818 161.632 286.954 161.632ZM286.828 152.308C288.76 152.308 290.482 151.846 291.994 150.922C293.59 149.998 294.85 148.654 295.774 146.89C296.698 145.042 297.16 142.732 297.16 139.96C297.16 137.188 296.698 134.878 295.774 133.03C294.85 131.182 293.59 129.796 291.994 128.872C290.482 127.948 288.802 127.486 286.954 127.486C285.106 127.486 283.384 127.948 281.788 128.872C280.192 129.796 278.89 131.182 277.882 133.03C276.958 134.878 276.496 137.188 276.496 139.96C276.496 142.648 276.958 144.916 277.882 146.764C278.89 148.612 280.192 149.998 281.788 150.922C283.384 151.846 285.064 152.308 286.828 152.308Z" fill="#306032"/>
<path d="M99.7193 303V269.4H106.487L116.855 293.832H117.047L127.367 269.4H134.135V303H129.335V276.792H129.143L119.927 298.2H113.927L104.711 276.792H104.519V303H99.7193ZM148.374 303.576C146.134 303.576 144.102 303.064 142.278 302.04C140.486 300.984 139.062 299.528 138.006 297.672C136.95 295.784 136.422 293.592 136.422 291.096C136.422 288.6 136.95 286.424 138.006 284.568C139.094 282.68 140.534 281.224 142.326 280.2C144.15 279.144 146.198 278.616 148.47 278.616C150.742 278.616 152.774 279.144 154.566 280.2C156.39 281.224 157.814 282.68 158.838 284.568C159.894 286.424 160.422 288.6 160.422 291.096C160.422 293.592 159.894 295.784 158.838 297.672C157.782 299.528 156.342 300.984 154.518 302.04C152.694 303.064 150.646 303.576 148.374 303.576ZM148.374 299.736C149.654 299.736 150.822 299.416 151.878 298.776C152.966 298.136 153.846 297.192 154.518 295.944C155.19 294.664 155.526 293.048 155.526 291.096C155.526 289.144 155.19 287.528 154.518 286.248C153.878 284.968 153.014 284.024 151.926 283.416C150.87 282.776 149.718 282.456 148.47 282.456C147.222 282.456 146.054 282.776 144.966 283.416C143.878 284.024 142.998 284.968 142.326 286.248C141.654 287.528 141.318 289.144 141.318 291.096C141.318 293.048 141.654 294.664 142.326 295.944C142.998 297.192 143.862 298.136 144.918 298.776C146.006 299.416 147.158 299.736 148.374 299.736ZM176.493 303.576C175.181 303.576 173.949 303.384 172.797 303C171.645 302.616 170.605 302.056 169.677 301.32C168.781 300.584 167.981 299.656 167.277 298.536H167.085L166.749 303H162.717V269.4H167.517V282.84C168.285 281.752 169.373 280.776 170.781 279.912C172.189 279.048 173.949 278.616 176.061 278.616C178.525 278.616 180.621 279.16 182.349 280.248C184.077 281.336 185.389 282.824 186.285 284.712C187.213 286.6 187.677 288.728 187.677 291.096C187.677 293.464 187.213 295.592 186.285 297.48C185.389 299.368 184.093 300.856 182.397 301.944C180.733 303.032 178.765 303.576 176.493 303.576ZM175.197 299.496C176.765 299.496 178.109 299.144 179.229 298.44C180.381 297.736 181.261 296.76 181.869 295.512C182.509 294.232 182.829 292.76 182.829 291.096C182.829 289.4 182.509 287.928 181.869 286.68C181.261 285.432 180.381 284.456 179.229 283.752C178.109 283.048 176.765 282.696 175.197 282.696C173.661 282.696 172.317 283.048 171.165 283.752C170.013 284.456 169.117 285.432 168.477 286.68C167.869 287.928 167.565 289.4 167.565 291.096C167.565 292.76 167.869 294.232 168.477 295.512C169.117 296.76 170.013 297.736 171.165 298.44C172.317 299.144 173.661 299.496 175.197 299.496ZM190.174 303V279.192H194.974V303H190.174ZM192.574 274.968C191.646 274.968 190.878 274.68 190.27 274.104C189.662 273.528 189.358 272.792 189.358 271.896C189.358 271.032 189.662 270.312 190.27 269.736C190.878 269.128 191.646 268.824 192.574 268.824C193.47 268.824 194.222 269.128 194.83 269.736C195.438 270.312 195.742 271.032 195.742 271.896C195.742 272.76 195.438 273.496 194.83 274.104C194.222 274.68 193.47 274.968 192.574 274.968ZM198.761 303V269.4H203.561V303H198.761ZM217.838 303.576C215.502 303.576 213.438 303.064 211.646 302.04C209.854 300.984 208.446 299.528 207.422 297.672C206.398 295.816 205.886 293.64 205.886 291.144C205.886 288.648 206.382 286.472 207.374 284.616C208.398 282.728 209.806 281.256 211.598 280.2C213.422 279.144 215.518 278.616 217.886 278.616C220.254 278.616 222.286 279.144 223.982 280.2C225.678 281.224 226.99 282.584 227.918 284.28C228.878 285.976 229.358 287.864 229.358 289.944C229.358 290.264 229.358 290.616 229.358 291C229.358 291.384 229.326 291.784 229.262 292.2H209.39V288.84H224.558C224.462 286.792 223.79 285.208 222.542 284.088C221.294 282.936 219.726 282.36 217.838 282.36C216.558 282.36 215.358 282.648 214.238 283.224C213.15 283.8 212.27 284.664 211.598 285.816C210.926 286.968 210.59 288.424 210.59 290.184V291.528C210.59 293.288 210.926 294.776 211.598 295.992C212.27 297.176 213.15 298.072 214.238 298.68C215.358 299.288 216.542 299.592 217.79 299.592C219.326 299.592 220.59 299.256 221.582 298.584C222.606 297.88 223.358 296.936 223.838 295.752H228.686C228.238 297.256 227.518 298.6 226.526 299.784C225.534 300.936 224.302 301.864 222.83 302.568C221.39 303.24 219.726 303.576 217.838 303.576ZM248.048 303V273.336H238.064V269.4H262.784V273.336H252.8V303H248.048ZM261.328 303V279.192H265.504L265.936 284.376H266.128C266.896 282.68 267.664 281.432 268.432 280.632C269.232 279.8 270.144 279.256 271.168 279C272.224 278.744 273.472 278.616 274.912 278.616V283.656H273.664C272.416 283.656 271.312 283.816 270.352 284.136C269.424 284.424 268.64 284.872 268 285.48C267.392 286.088 266.928 286.872 266.608 287.832C266.288 288.76 266.128 289.864 266.128 291.144V303H261.328ZM283.99 303.576C282.102 303.576 280.518 303.256 279.238 302.616C277.99 301.944 277.062 301.048 276.454 299.928C275.846 298.808 275.542 297.592 275.542 296.28C275.542 294.712 275.942 293.368 276.742 292.248C277.574 291.128 278.758 290.264 280.294 289.656C281.862 289.048 283.734 288.744 285.91 288.744H292.198C292.198 287.304 291.974 286.12 291.526 285.192C291.11 284.232 290.486 283.528 289.654 283.08C288.822 282.6 287.814 282.36 286.63 282.36C285.158 282.36 283.878 282.728 282.79 283.464C281.734 284.168 281.094 285.288 280.87 286.824H276.07C276.262 285.064 276.822 283.592 277.75 282.408C278.71 281.192 279.958 280.264 281.494 279.624C283.03 278.952 284.742 278.616 286.63 278.616C288.902 278.616 290.806 279.016 292.342 279.816C293.91 280.616 295.078 281.752 295.846 283.224C296.614 284.664 296.998 286.376 296.998 288.36V303H293.014L292.534 299.016H292.342C291.894 299.784 291.366 300.456 290.758 301.032C290.15 301.576 289.494 302.04 288.79 302.424C288.118 302.808 287.366 303.096 286.534 303.288C285.734 303.48 284.886 303.576 283.99 303.576ZM285.142 299.688C286.262 299.688 287.238 299.48 288.07 299.064C288.934 298.648 289.654 298.088 290.23 297.384C290.838 296.648 291.286 295.832 291.574 294.936C291.894 294.04 292.07 293.112 292.102 292.152H286.39C284.982 292.152 283.846 292.312 282.982 292.632C282.15 292.952 281.542 293.4 281.158 293.976C280.774 294.552 280.582 295.224 280.582 295.992C280.582 296.728 280.758 297.384 281.11 297.96C281.494 298.504 282.022 298.936 282.694 299.256C283.398 299.544 284.214 299.688 285.142 299.688ZM309.993 303.576C307.721 303.576 305.737 303.032 304.041 301.944C302.377 300.856 301.081 299.368 300.153 297.48C299.257 295.592 298.809 293.464 298.809 291.096C298.809 288.728 299.257 286.6 300.153 284.712C301.081 282.824 302.409 281.336 304.137 280.248C305.897 279.16 307.993 278.616 310.425 278.616C312.537 278.616 314.297 279.048 315.705 279.912C317.113 280.776 318.201 281.752 318.969 282.84V269.4H323.769V303H319.737L319.401 298.536H319.209C318.537 299.656 317.737 300.584 316.809 301.32C315.881 302.056 314.841 302.616 313.689 303C312.569 303.384 311.337 303.576 309.993 303.576ZM311.289 299.496C312.825 299.496 314.169 299.144 315.321 298.44C316.473 297.736 317.353 296.76 317.961 295.512C318.601 294.232 318.921 292.76 318.921 291.096C318.921 289.4 318.601 287.928 317.961 286.68C317.353 285.432 316.473 284.456 315.321 283.752C314.169 283.048 312.809 282.696 311.241 282.696C309.705 282.696 308.361 283.048 307.209 283.752C306.089 284.456 305.209 285.448 304.569 286.728C303.961 287.976 303.657 289.432 303.657 291.096C303.657 292.76 303.961 294.232 304.569 295.512C305.209 296.76 306.089 297.736 307.209 298.44C308.361 299.144 309.721 299.496 311.289 299.496ZM338.017 303.576C335.681 303.576 333.617 303.064 331.825 302.04C330.033 300.984 328.625 299.528 327.601 297.672C326.577 295.816 326.065 293.64 326.065 291.144C326.065 288.648 326.561 286.472 327.553 284.616C328.577 282.728 329.985 281.256 331.777 280.2C333.601 279.144 335.697 278.616 338.065 278.616C340.433 278.616 342.465 279.144 344.161 280.2C345.857 281.224 347.169 282.584 348.097 284.28C349.057 285.976 349.537 287.864 349.537 289.944C349.537 290.264 349.537 290.616 349.537 291C349.537 291.384 349.505 291.784 349.441 292.2H329.569V288.84H344.737C344.641 286.792 343.969 285.208 342.721 284.088C341.473 282.936 339.905 282.36 338.017 282.36C336.737 282.36 335.537 282.648 334.417 283.224C333.329 283.8 332.449 284.664 331.777 285.816C331.105 286.968 330.769 288.424 330.769 290.184V291.528C330.769 293.288 331.105 294.776 331.777 295.992C332.449 297.176 333.329 298.072 334.417 298.68C335.537 299.288 336.721 299.592 337.969 299.592C339.505 299.592 340.769 299.256 341.761 298.584C342.785 297.88 343.537 296.936 344.017 295.752H348.865C348.417 297.256 347.697 298.6 346.705 299.784C345.713 300.936 344.481 301.864 343.009 302.568C341.569 303.24 339.905 303.576 338.017 303.576ZM351.37 303V279.192H355.546L355.978 284.376H356.17C356.938 282.68 357.706 281.432 358.474 280.632C359.274 279.8 360.186 279.256 361.21 279C362.266 278.744 363.514 278.616 364.954 278.616V283.656H363.706C362.458 283.656 361.354 283.816 360.394 284.136C359.466 284.424 358.682 284.872 358.042 285.48C357.434 286.088 356.97 286.872 356.65 287.832C356.33 288.76 356.17 289.864 356.17 291.144V303H351.37ZM375.52 303.576C373.568 303.576 371.824 303.24 370.288 302.568C368.752 301.896 367.504 300.968 366.544 299.784C365.616 298.568 365.056 297.144 364.864 295.512H369.712C369.904 296.248 370.208 296.952 370.624 297.624C371.072 298.296 371.696 298.856 372.496 299.304C373.328 299.72 374.336 299.928 375.52 299.928C376.576 299.928 377.44 299.784 378.112 299.496C378.816 299.176 379.328 298.76 379.648 298.248C380 297.736 380.176 297.176 380.176 296.568C380.176 295.832 379.936 295.24 379.456 294.792C379.008 294.312 378.352 293.912 377.488 293.592C376.656 293.24 375.648 292.904 374.464 292.584C373.472 292.296 372.464 291.992 371.44 291.672C370.416 291.32 369.488 290.904 368.656 290.424C367.824 289.944 367.152 289.32 366.64 288.552C366.128 287.752 365.872 286.776 365.872 285.624C365.872 284.312 366.224 283.128 366.928 282.072C367.664 281.016 368.704 280.184 370.048 279.576C371.392 278.936 372.992 278.616 374.848 278.616C377.472 278.616 379.6 279.256 381.232 280.536C382.896 281.784 383.872 283.592 384.16 285.96H379.504C379.376 284.776 378.896 283.864 378.064 283.224C377.264 282.584 376.176 282.264 374.8 282.264C373.456 282.264 372.416 282.552 371.68 283.128C370.976 283.704 370.624 284.424 370.624 285.288C370.624 285.864 370.816 286.344 371.2 286.728C371.584 287.112 372.176 287.448 372.976 287.736C373.808 287.992 374.832 288.312 376.048 288.696C377.584 289.144 379.024 289.64 380.368 290.184C381.744 290.728 382.848 291.448 383.68 292.344C384.544 293.208 384.976 294.408 384.976 295.944C385.008 297.416 384.624 298.728 383.824 299.88C383.056 301.032 381.968 301.944 380.56 302.616C379.152 303.256 377.472 303.576 375.52 303.576Z" fill="#306032"/>
</svg>
