<svg width="484" height="421" viewBox="0 0 484 421" fill="none" xmlns="http://www.w3.org/2000/svg">
<path d="M0 32C0 14.3269 14.3269 0 32 0H451.5C469.173 0 483.5 14.3269 483.5 32V389C483.5 406.673 469.173 421 451.5 421H32C14.3269 421 0 406.673 0 389V32Z" fill="#E2E2E2"/>
<path d="M156.526 209.512C150.31 209.512 144.934 208.378 140.398 206.11C135.862 203.842 132.292 200.776 129.688 196.912C127.084 193.048 125.488 188.68 124.9 183.808H137.248C138.088 188.26 140.23 191.872 143.674 194.644C147.118 197.416 151.444 198.802 156.652 198.802C160.432 198.802 163.708 197.878 166.48 196.03C169.336 194.182 171.52 191.704 173.032 188.596C174.544 185.404 175.3 181.918 175.3 178.138C175.3 174.022 174.502 170.452 172.906 167.428C171.394 164.404 169.252 162.052 166.48 160.372C163.708 158.692 160.516 157.852 156.904 157.852C152.452 157.852 148.63 158.902 145.438 161.002C142.246 163.018 139.936 165.664 138.508 168.94H126.412L133.972 119.8H181.096V130.762H143.548L138.76 155.332C140.86 152.98 143.59 151.09 146.95 149.662C150.31 148.15 154.216 147.394 158.668 147.394C163.12 147.394 167.11 148.192 170.638 149.788C174.166 151.384 177.19 153.568 179.71 156.34C182.23 159.112 184.162 162.346 185.506 166.042C186.85 169.738 187.522 173.728 187.522 178.012C187.522 182.38 186.808 186.496 185.38 190.36C183.952 194.14 181.894 197.5 179.206 200.44C176.518 203.296 173.242 205.522 169.378 207.118C165.598 208.714 161.314 209.512 156.526 209.512ZM235.386 208V189.982H191.034V180.154L228.33 119.8H247.86V179.02H260.46V189.982H247.86V208H235.386ZM204.768 179.02H236.016V128.116H235.512L204.768 179.02ZM278.705 208L329.483 119.8H341.957L291.179 208H278.705ZM336.035 209.512C332.087 209.512 328.559 208.63 325.451 206.866C322.343 205.102 319.865 202.624 318.017 199.432C316.169 196.156 315.245 192.334 315.245 187.966C315.245 183.43 316.169 179.566 318.017 176.374C319.865 173.182 322.343 170.704 325.451 168.94C328.559 167.176 332.045 166.294 335.909 166.294C339.941 166.294 343.469 167.176 346.493 168.94C349.601 170.704 352.037 173.182 353.801 176.374C355.649 179.566 356.573 183.43 356.573 187.966C356.573 192.334 355.649 196.156 353.801 199.432C352.037 202.624 349.601 205.102 346.493 206.866C343.385 208.63 339.899 209.512 336.035 209.512ZM335.783 200.188C337.715 200.188 339.437 199.726 340.949 198.802C342.545 197.878 343.805 196.534 344.729 194.77C345.737 192.922 346.241 190.612 346.241 187.84C346.241 185.068 345.779 182.8 344.855 181.036C343.931 179.188 342.671 177.802 341.075 176.878C339.563 175.954 337.841 175.492 335.909 175.492C334.145 175.492 332.465 175.954 330.869 176.878C329.273 177.802 327.971 179.188 326.963 181.036C326.039 182.8 325.577 185.068 325.577 187.84C325.577 190.612 326.039 192.922 326.963 194.77C327.971 196.534 329.231 197.878 330.743 198.802C332.339 199.726 334.019 200.188 335.783 200.188ZM285.509 161.632C281.561 161.632 278.033 160.75 274.925 158.986C271.817 157.222 269.339 154.744 267.491 151.552C265.643 148.276 264.719 144.412 264.719 139.96C264.719 135.508 265.643 131.686 267.491 128.494C269.339 125.302 271.817 122.824 274.925 121.06C278.117 119.296 281.645 118.414 285.509 118.414C289.457 118.414 292.943 119.296 295.967 121.06C299.075 122.824 301.553 125.302 303.401 128.494C305.249 131.686 306.173 135.508 306.173 139.96C306.173 144.412 305.249 148.276 303.401 151.552C301.553 154.744 299.075 157.222 295.967 158.986C292.859 160.75 289.373 161.632 285.509 161.632ZM285.383 152.308C287.315 152.308 289.037 151.846 290.549 150.922C292.145 149.998 293.405 148.654 294.329 146.89C295.253 145.042 295.715 142.732 295.715 139.96C295.715 137.188 295.253 134.878 294.329 133.03C293.405 131.182 292.145 129.796 290.549 128.872C289.037 127.948 287.357 127.486 285.509 127.486C283.661 127.486 281.939 127.948 280.343 128.872C278.747 129.796 277.445 131.182 276.437 133.03C275.513 134.878 275.051 137.188 275.051 139.96C275.051 142.648 275.513 144.916 276.437 146.764C277.445 148.612 278.747 149.998 280.343 150.922C281.939 151.846 283.619 152.308 285.383 152.308Z" fill="#306032"/>
<path d="M78.286 303.576C75.822 303.576 73.662 303.144 71.806 302.28C69.982 301.384 68.558 300.136 67.534 298.536C66.51 296.936 65.982 295.064 65.95 292.92H70.99C71.022 294.136 71.294 295.256 71.806 296.28C72.35 297.272 73.166 298.072 74.254 298.68C75.342 299.256 76.686 299.544 78.286 299.544C79.598 299.544 80.75 299.352 81.742 298.968C82.734 298.584 83.502 298.024 84.046 297.288C84.622 296.52 84.91 295.56 84.91 294.408C84.91 293.256 84.638 292.296 84.094 291.528C83.582 290.76 82.862 290.12 81.934 289.608C81.006 289.096 79.982 288.648 78.862 288.264C77.742 287.88 76.59 287.48 75.406 287.064C72.558 286.072 70.43 284.856 69.022 283.416C67.646 281.944 66.958 280.088 66.958 277.848C66.958 276.088 67.406 274.536 68.302 273.192C69.198 271.816 70.462 270.744 72.094 269.976C73.726 269.208 75.63 268.824 77.806 268.824C79.982 268.824 81.886 269.224 83.518 270.024C85.15 270.824 86.43 271.928 87.358 273.336C88.286 274.744 88.75 276.392 88.75 278.28H83.71C83.678 277.192 83.422 276.248 82.942 275.448C82.462 274.616 81.774 273.96 80.878 273.48C79.982 273 78.862 272.76 77.518 272.76C76.462 272.76 75.502 272.92 74.638 273.24C73.774 273.56 73.086 274.072 72.574 274.776C72.094 275.448 71.854 276.344 71.854 277.464C71.854 278.392 72.046 279.176 72.43 279.816C72.846 280.456 73.438 281.016 74.206 281.496C75.006 281.944 75.966 282.392 77.086 282.84C78.206 283.256 79.486 283.736 80.926 284.28C82.59 284.856 84.078 285.544 85.39 286.344C86.734 287.112 87.79 288.104 88.558 289.32C89.358 290.504 89.758 292.04 89.758 293.928C89.758 295.592 89.326 297.16 88.462 298.632C87.598 300.104 86.318 301.304 84.622 302.232C82.926 303.128 80.814 303.576 78.286 303.576ZM101.705 303C100.201 303 98.8731 302.76 97.7211 302.28C96.6011 301.8 95.7371 301 95.1291 299.88C94.5531 298.76 94.2651 297.24 94.2651 295.32V282.792H90.1371V279.192H94.2651L94.7931 273.24H99.0651V279.192H105.833V282.792H99.0651V295.368C99.0651 296.872 99.3371 297.88 99.8811 298.392C100.457 298.904 101.449 299.16 102.857 299.16H105.545V303H101.705ZM106.933 303V279.192H111.109L111.541 284.376H111.733C112.501 282.68 113.269 281.432 114.037 280.632C114.837 279.8 115.749 279.256 116.773 279C117.829 278.744 119.077 278.616 120.517 278.616V283.656H119.269C118.021 283.656 116.917 283.816 115.957 284.136C115.029 284.424 114.245 284.872 113.605 285.48C112.997 286.088 112.533 286.872 112.213 287.832C111.893 288.76 111.733 289.864 111.733 291.144V303H106.933ZM129.595 303.576C127.707 303.576 126.123 303.256 124.843 302.616C123.595 301.944 122.667 301.048 122.059 299.928C121.451 298.808 121.147 297.592 121.147 296.28C121.147 294.712 121.547 293.368 122.347 292.248C123.179 291.128 124.363 290.264 125.899 289.656C127.467 289.048 129.339 288.744 131.515 288.744H137.803C137.803 287.304 137.579 286.12 137.131 285.192C136.715 284.232 136.091 283.528 135.259 283.08C134.427 282.6 133.419 282.36 132.235 282.36C130.763 282.36 129.483 282.728 128.395 283.464C127.339 284.168 126.699 285.288 126.475 286.824H121.675C121.867 285.064 122.427 283.592 123.355 282.408C124.315 281.192 125.563 280.264 127.099 279.624C128.635 278.952 130.347 278.616 132.235 278.616C134.507 278.616 136.411 279.016 137.947 279.816C139.515 280.616 140.683 281.752 141.451 283.224C142.219 284.664 142.603 286.376 142.603 288.36V303H138.619L138.139 299.016H137.947C137.499 299.784 136.971 300.456 136.363 301.032C135.755 301.576 135.099 302.04 134.395 302.424C133.723 302.808 132.971 303.096 132.139 303.288C131.339 303.48 130.491 303.576 129.595 303.576ZM130.747 299.688C131.867 299.688 132.843 299.48 133.675 299.064C134.539 298.648 135.259 298.088 135.835 297.384C136.443 296.648 136.891 295.832 137.179 294.936C137.499 294.04 137.675 293.112 137.707 292.152H131.995C130.587 292.152 129.451 292.312 128.587 292.632C127.755 292.952 127.147 293.4 126.763 293.976C126.379 294.552 126.187 295.224 126.187 295.992C126.187 296.728 126.363 297.384 126.715 297.96C127.099 298.504 127.627 298.936 128.299 299.256C129.003 299.544 129.819 299.688 130.747 299.688ZM154.506 303C153.002 303 151.674 302.76 150.522 302.28C149.402 301.8 148.538 301 147.93 299.88C147.354 298.76 147.066 297.24 147.066 295.32V282.792H142.938V279.192H147.066L147.594 273.24H151.866V279.192H158.634V282.792H151.866V295.368C151.866 296.872 152.138 297.88 152.682 298.392C153.258 298.904 154.25 299.16 155.658 299.16H158.346V303H154.506ZM170.31 303.576C167.974 303.576 165.91 303.064 164.118 302.04C162.326 300.984 160.918 299.528 159.894 297.672C158.87 295.816 158.358 293.64 158.358 291.144C158.358 288.648 158.854 286.472 159.846 284.616C160.87 282.728 162.278 281.256 164.07 280.2C165.894 279.144 167.99 278.616 170.358 278.616C172.726 278.616 174.758 279.144 176.454 280.2C178.15 281.224 179.462 282.584 180.39 284.28C181.35 285.976 181.83 287.864 181.83 289.944C181.83 290.264 181.83 290.616 181.83 291C181.83 291.384 181.798 291.784 181.734 292.2H161.862V288.84H177.03C176.934 286.792 176.262 285.208 175.014 284.088C173.766 282.936 172.198 282.36 170.31 282.36C169.03 282.36 167.83 282.648 166.71 283.224C165.622 283.8 164.742 284.664 164.07 285.816C163.398 286.968 163.062 288.424 163.062 290.184V291.528C163.062 293.288 163.398 294.776 164.07 295.992C164.742 297.176 165.622 298.072 166.71 298.68C167.83 299.288 169.014 299.592 170.262 299.592C171.798 299.592 173.062 299.256 174.054 298.584C175.078 297.88 175.83 296.936 176.31 295.752H181.158C180.71 297.256 179.99 298.6 178.998 299.784C178.006 300.936 176.774 301.864 175.302 302.568C173.862 303.24 172.198 303.576 170.31 303.576ZM194.325 313.176C192.149 313.176 190.213 312.888 188.517 312.312C186.853 311.768 185.557 310.952 184.629 309.864C183.701 308.808 183.237 307.528 183.237 306.024C183.237 305.192 183.429 304.36 183.813 303.528C184.197 302.728 184.821 301.96 185.685 301.224C186.549 300.488 187.717 299.816 189.189 299.208L191.781 301.32C190.213 301.96 189.141 302.648 188.565 303.384C188.021 304.12 187.749 304.936 187.749 305.832C187.749 306.632 188.005 307.304 188.517 307.848C189.029 308.424 189.765 308.856 190.725 309.144C191.717 309.464 192.917 309.624 194.325 309.624C195.733 309.624 196.885 309.448 197.781 309.096C198.677 308.744 199.333 308.264 199.749 307.656C200.197 307.048 200.421 306.36 200.421 305.592C200.421 304.6 200.037 303.832 199.269 303.288C198.533 302.744 197.109 302.408 194.997 302.28C193.173 302.152 191.637 301.976 190.389 301.752C189.141 301.496 188.069 301.224 187.173 300.936C186.309 300.616 185.573 300.264 184.965 299.88C184.389 299.464 183.893 299.048 183.477 298.632V297.528L188.277 292.68L191.061 293.928L186.933 298.776L187.701 296.76C188.021 296.952 188.341 297.128 188.661 297.288C189.013 297.448 189.477 297.608 190.053 297.768C190.629 297.928 191.397 298.088 192.357 298.248C193.317 298.408 194.533 298.552 196.005 298.68C198.149 298.84 199.877 299.192 201.189 299.736C202.501 300.28 203.461 301.032 204.069 301.992C204.677 302.92 204.981 304.072 204.981 305.448C204.981 306.664 204.597 307.864 203.829 309.048C203.093 310.232 201.941 311.208 200.373 311.976C198.805 312.776 196.789 313.176 194.325 313.176ZM194.325 295.656C192.309 295.656 190.581 295.272 189.141 294.504C187.733 293.736 186.645 292.712 185.877 291.432C185.141 290.152 184.773 288.712 184.773 287.112C184.773 285.544 185.141 284.12 185.877 282.84C186.645 281.56 187.733 280.536 189.141 279.768C190.581 279 192.309 278.616 194.325 278.616C196.341 278.616 198.053 279 199.461 279.768C200.901 280.536 201.989 281.56 202.725 282.84C203.461 284.12 203.829 285.544 203.829 287.112C203.829 288.712 203.461 290.152 202.725 291.432C201.989 292.712 200.901 293.736 199.461 294.504C198.053 295.272 196.341 295.656 194.325 295.656ZM194.325 292.056C195.861 292.056 197.093 291.64 198.021 290.808C198.981 289.976 199.461 288.76 199.461 287.16C199.461 285.496 198.981 284.264 198.021 283.464C197.093 282.632 195.861 282.216 194.325 282.216C192.757 282.216 191.493 282.632 190.533 283.464C189.605 284.264 189.141 285.496 189.141 287.16C189.141 288.76 189.605 289.976 190.533 290.808C191.493 291.64 192.757 292.056 194.325 292.056ZM198.165 282.552L197.013 279.192H206.949V281.784L198.165 282.552ZM209.86 303V279.192H214.66V303H209.86ZM212.26 274.968C211.332 274.968 210.564 274.68 209.956 274.104C209.348 273.528 209.044 272.792 209.044 271.896C209.044 271.032 209.348 270.312 209.956 269.736C210.564 269.128 211.332 268.824 212.26 268.824C213.156 268.824 213.908 269.128 214.516 269.736C215.124 270.312 215.428 271.032 215.428 271.896C215.428 272.76 215.124 273.496 214.516 274.104C213.908 274.68 213.156 274.968 212.26 274.968ZM229.63 303.576C227.102 303.576 224.926 303.048 223.102 301.992C221.31 300.936 219.918 299.48 218.926 297.624C217.966 295.736 217.486 293.56 217.486 291.096C217.486 288.632 217.998 286.472 219.022 284.616C220.078 282.728 221.518 281.256 223.342 280.2C225.198 279.144 227.294 278.616 229.63 278.616C232.542 278.616 234.99 279.384 236.974 280.92C238.958 282.424 240.206 284.456 240.718 287.016H235.726C235.438 285.544 234.718 284.424 233.566 283.656C232.446 282.856 231.118 282.456 229.582 282.456C228.302 282.456 227.118 282.776 226.03 283.416C224.942 284.056 224.062 285.016 223.39 286.296C222.718 287.576 222.382 289.176 222.382 291.096C222.382 292.472 222.558 293.688 222.91 294.744C223.294 295.768 223.806 296.648 224.446 297.384C225.086 298.088 225.838 298.632 226.702 299.016C227.598 299.368 228.558 299.544 229.582 299.544C230.606 299.544 231.534 299.384 232.366 299.064C233.23 298.712 233.95 298.2 234.526 297.528C235.134 296.856 235.534 296.072 235.726 295.176H240.718C240.206 297.704 238.958 299.736 236.974 301.272C234.99 302.808 232.542 303.576 229.63 303.576ZM251.584 303V269.4H263.104C265.76 269.4 267.952 269.848 269.68 270.744C271.408 271.608 272.688 272.792 273.52 274.296C274.352 275.8 274.768 277.496 274.768 279.384C274.768 281.208 274.352 282.872 273.52 284.376C272.72 285.88 271.456 287.096 269.728 288.024C268.032 288.92 265.824 289.368 263.104 289.368H256.384V303H251.584ZM256.384 285.384H262.912C265.408 285.384 267.184 284.84 268.24 283.752C269.328 282.664 269.872 281.208 269.872 279.384C269.872 277.464 269.328 275.992 268.24 274.968C267.184 273.912 265.408 273.384 262.912 273.384H256.384V285.384ZM276.825 303V269.4H281.625V303H276.825ZM292.638 303.576C290.75 303.576 289.166 303.256 287.886 302.616C286.638 301.944 285.71 301.048 285.102 299.928C284.494 298.808 284.19 297.592 284.19 296.28C284.19 294.712 284.59 293.368 285.39 292.248C286.222 291.128 287.406 290.264 288.942 289.656C290.51 289.048 292.382 288.744 294.558 288.744H300.846C300.846 287.304 300.622 286.12 300.174 285.192C299.758 284.232 299.134 283.528 298.302 283.08C297.47 282.6 296.462 282.36 295.278 282.36C293.806 282.36 292.526 282.728 291.438 283.464C290.382 284.168 289.742 285.288 289.518 286.824H284.718C284.91 285.064 285.47 283.592 286.398 282.408C287.358 281.192 288.606 280.264 290.142 279.624C291.678 278.952 293.39 278.616 295.278 278.616C297.55 278.616 299.454 279.016 300.99 279.816C302.558 280.616 303.726 281.752 304.494 283.224C305.262 284.664 305.646 286.376 305.646 288.36V303H301.662L301.182 299.016H300.99C300.542 299.784 300.014 300.456 299.406 301.032C298.798 301.576 298.142 302.04 297.438 302.424C296.766 302.808 296.014 303.096 295.182 303.288C294.382 303.48 293.534 303.576 292.638 303.576ZM293.79 299.688C294.91 299.688 295.886 299.48 296.718 299.064C297.582 298.648 298.302 298.088 298.878 297.384C299.486 296.648 299.934 295.832 300.222 294.936C300.542 294.04 300.718 293.112 300.75 292.152H295.038C293.63 292.152 292.494 292.312 291.63 292.632C290.798 292.952 290.19 293.4 289.806 293.976C289.422 294.552 289.23 295.224 289.23 295.992C289.23 296.728 289.406 297.384 289.758 297.96C290.142 298.504 290.67 298.936 291.342 299.256C292.046 299.544 292.862 299.688 293.79 299.688ZM308.176 303V279.192H312.352L312.784 282.984H312.976C313.776 281.64 314.848 280.584 316.192 279.816C317.536 279.016 319.168 278.616 321.088 278.616C322.944 278.616 324.56 279.016 325.936 279.816C327.312 280.584 328.368 281.752 329.104 283.32C329.872 284.888 330.256 286.872 330.256 289.272V303H325.456V289.752C325.456 287.448 324.96 285.704 323.968 284.52C323.008 283.304 321.568 282.696 319.648 282.696C318.368 282.696 317.216 283.016 316.192 283.656C315.2 284.264 314.416 285.16 313.84 286.344C313.264 287.528 312.976 288.968 312.976 290.664V303H308.176ZM332.808 303V279.192H336.984L337.416 282.984H337.608C338.408 281.64 339.48 280.584 340.824 279.816C342.168 279.016 343.8 278.616 345.72 278.616C347.576 278.616 349.192 279.016 350.568 279.816C351.944 280.584 353 281.752 353.736 283.32C354.504 284.888 354.888 286.872 354.888 289.272V303H350.088V289.752C350.088 287.448 349.592 285.704 348.6 284.52C347.64 283.304 346.2 282.696 344.28 282.696C343 282.696 341.848 283.016 340.824 283.656C339.832 284.264 339.048 285.16 338.472 286.344C337.896 287.528 337.608 288.968 337.608 290.664V303H332.808ZM368.671 303.576C366.335 303.576 364.271 303.064 362.479 302.04C360.687 300.984 359.279 299.528 358.255 297.672C357.231 295.816 356.719 293.64 356.719 291.144C356.719 288.648 357.215 286.472 358.207 284.616C359.231 282.728 360.639 281.256 362.431 280.2C364.255 279.144 366.351 278.616 368.719 278.616C371.087 278.616 373.119 279.144 374.815 280.2C376.511 281.224 377.823 282.584 378.751 284.28C379.711 285.976 380.191 287.864 380.191 289.944C380.191 290.264 380.191 290.616 380.191 291C380.191 291.384 380.159 291.784 380.095 292.2H360.223V288.84H375.391C375.295 286.792 374.623 285.208 373.375 284.088C372.127 282.936 370.559 282.36 368.671 282.36C367.391 282.36 366.191 282.648 365.071 283.224C363.983 283.8 363.103 284.664 362.431 285.816C361.759 286.968 361.423 288.424 361.423 290.184V291.528C361.423 293.288 361.759 294.776 362.431 295.992C363.103 297.176 363.983 298.072 365.071 298.68C366.191 299.288 367.375 299.592 368.623 299.592C370.159 299.592 371.423 299.256 372.415 298.584C373.439 297.88 374.191 296.936 374.671 295.752H379.519C379.071 297.256 378.351 298.6 377.359 299.784C376.367 300.936 375.135 301.864 373.663 302.568C372.223 303.24 370.559 303.576 368.671 303.576ZM382.024 303V279.192H386.2L386.632 284.376H386.824C387.592 282.68 388.36 281.432 389.128 280.632C389.928 279.8 390.84 279.256 391.864 279C392.92 278.744 394.168 278.616 395.608 278.616V283.656H394.36C393.112 283.656 392.008 283.816 391.048 284.136C390.12 284.424 389.336 284.872 388.696 285.48C388.088 286.088 387.624 286.872 387.304 287.832C386.984 288.76 386.824 289.864 386.824 291.144V303H382.024ZM406.174 303.576C404.222 303.576 402.478 303.24 400.942 302.568C399.406 301.896 398.158 300.968 397.198 299.784C396.27 298.568 395.71 297.144 395.518 295.512H400.366C400.558 296.248 400.862 296.952 401.278 297.624C401.726 298.296 402.35 298.856 403.15 299.304C403.982 299.72 404.99 299.928 406.174 299.928C407.23 299.928 408.094 299.784 408.766 299.496C409.47 299.176 409.982 298.76 410.302 298.248C410.654 297.736 410.83 297.176 410.83 296.568C410.83 295.832 410.59 295.24 410.11 294.792C409.662 294.312 409.006 293.912 408.142 293.592C407.31 293.24 406.302 292.904 405.118 292.584C404.126 292.296 403.118 291.992 402.094 291.672C401.07 291.32 400.142 290.904 399.31 290.424C398.478 289.944 397.806 289.32 397.294 288.552C396.782 287.752 396.526 286.776 396.526 285.624C396.526 284.312 396.878 283.128 397.582 282.072C398.318 281.016 399.358 280.184 400.702 279.576C402.046 278.936 403.646 278.616 405.502 278.616C408.126 278.616 410.254 279.256 411.886 280.536C413.55 281.784 414.526 283.592 414.814 285.96H410.158C410.03 284.776 409.55 283.864 408.718 283.224C407.918 282.584 406.83 282.264 405.454 282.264C404.11 282.264 403.07 282.552 402.334 283.128C401.63 283.704 401.278 284.424 401.278 285.288C401.278 285.864 401.47 286.344 401.854 286.728C402.238 287.112 402.83 287.448 403.63 287.736C404.462 287.992 405.486 288.312 406.702 288.696C408.238 289.144 409.678 289.64 411.022 290.184C412.398 290.728 413.502 291.448 414.334 292.344C415.198 293.208 415.63 294.408 415.63 295.944C415.662 297.416 415.278 298.728 414.478 299.88C413.71 301.032 412.622 301.944 411.214 302.616C409.806 303.256 408.126 303.576 406.174 303.576Z" fill="#306032"/>
</svg>
