<svg width="188" height="279" viewBox="0 0 188 279" fill="none" xmlns="http://www.w3.org/2000/svg">
<rect width="188" height="279" rx="22" fill="#E2E2E2"/>
<path d="M47.958 100.828C44.738 100.828 41.84 100.253 39.264 99.103C36.734 97.907 34.71 96.251 33.192 94.135C31.674 92.019 30.915 89.558 30.915 86.752C30.915 84.774 31.283 82.957 32.019 81.301C32.801 79.599 33.859 78.127 35.193 76.885C36.573 75.643 38.16 74.746 39.954 74.194C37.516 73.228 35.607 71.802 34.227 69.916C32.847 68.03 32.157 65.96 32.157 63.706C32.157 61.36 32.778 59.221 34.02 57.289C35.262 55.357 37.056 53.816 39.402 52.666C41.748 51.47 44.6 50.872 47.958 50.872C51.316 50.872 54.168 51.47 56.514 52.666C58.906 53.816 60.7 55.357 61.896 57.289C63.138 59.221 63.759 61.36 63.759 63.706C63.759 65.96 63.069 68.053 61.689 69.985C60.309 71.871 58.4 73.274 55.962 74.194C57.802 74.746 59.389 75.643 60.723 76.885C62.057 78.127 63.092 79.599 63.828 81.301C64.61 82.957 65.001 84.774 65.001 86.752C65.001 89.558 64.242 92.019 62.724 94.135C61.252 96.251 59.228 97.907 56.652 99.103C54.076 100.253 51.178 100.828 47.958 100.828ZM47.958 94.894C51.408 94.894 53.961 94.112 55.617 92.548C57.319 90.938 58.17 88.845 58.17 86.269C58.17 83.371 57.25 81.163 55.41 79.645C53.57 78.127 51.086 77.368 47.958 77.368C44.83 77.368 42.346 78.127 40.506 79.645C38.666 81.163 37.746 83.371 37.746 86.269C37.746 88.845 38.597 90.938 40.299 92.548C42.001 94.112 44.554 94.894 47.958 94.894ZM47.958 71.917C50.718 71.917 52.88 71.204 54.444 69.778C56.054 68.352 56.859 66.535 56.859 64.327C56.859 61.797 56.054 59.888 54.444 58.6C52.88 57.312 50.741 56.668 48.027 56.668C45.267 56.668 43.082 57.312 41.472 58.6C39.908 59.888 39.126 61.797 39.126 64.327C39.126 66.535 39.908 68.352 41.472 69.778C43.036 71.204 45.198 71.917 47.958 71.917ZM85.3873 100.828C82.1673 100.828 79.2693 100.253 76.6933 99.103C74.1633 97.907 72.1393 96.251 70.6213 94.135C69.1033 92.019 68.3443 89.558 68.3443 86.752C68.3443 84.774 68.7123 82.957 69.4483 81.301C70.2303 79.599 71.2883 78.127 72.6223 76.885C74.0023 75.643 75.5893 74.746 77.3833 74.194C74.9453 73.228 73.0363 71.802 71.6563 69.916C70.2763 68.03 69.5863 65.96 69.5863 63.706C69.5863 61.36 70.2073 59.221 71.4493 57.289C72.6913 55.357 74.4853 53.816 76.8313 52.666C79.1773 51.47 82.0293 50.872 85.3873 50.872C88.7453 50.872 91.5973 51.47 93.9433 52.666C96.3353 53.816 98.1293 55.357 99.3253 57.289C100.567 59.221 101.188 61.36 101.188 63.706C101.188 65.96 100.498 68.053 99.1183 69.985C97.7383 71.871 95.8293 73.274 93.3913 74.194C95.2313 74.746 96.8183 75.643 98.1523 76.885C99.4863 78.127 100.521 79.599 101.257 81.301C102.039 82.957 102.43 84.774 102.43 86.752C102.43 89.558 101.671 92.019 100.153 94.135C98.6813 96.251 96.6573 97.907 94.0813 99.103C91.5053 100.253 88.6073 100.828 85.3873 100.828ZM85.3873 94.894C88.8373 94.894 91.3903 94.112 93.0463 92.548C94.7483 90.938 95.5993 88.845 95.5993 86.269C95.5993 83.371 94.6793 81.163 92.8393 79.645C90.9993 78.127 88.5153 77.368 85.3873 77.368C82.2593 77.368 79.7753 78.127 77.9353 79.645C76.0953 81.163 75.1753 83.371 75.1753 86.269C75.1753 88.845 76.0263 90.938 77.7283 92.548C79.4303 94.112 81.9833 94.894 85.3873 94.894ZM85.3873 71.917C88.1473 71.917 90.3093 71.204 91.8733 69.778C93.4833 68.352 94.2883 66.535 94.2883 64.327C94.2883 61.797 93.4833 59.888 91.8733 58.6C90.3093 57.312 88.1703 56.668 85.4563 56.668C82.6963 56.668 80.5113 57.312 78.9013 58.6C77.3373 59.888 76.5553 61.797 76.5553 64.327C76.5553 66.535 77.3373 68.352 78.9013 69.778C80.4653 71.204 82.6273 71.917 85.3873 71.917ZM113.778 100L141.585 51.7H148.416L120.609 100H113.778ZM145.173 100.828C143.011 100.828 141.079 100.345 139.377 99.379C137.675 98.413 136.318 97.056 135.306 95.308C134.294 93.514 133.788 91.421 133.788 89.029C133.788 86.545 134.294 84.429 135.306 82.681C136.318 80.933 137.675 79.576 139.377 78.61C141.079 77.644 142.988 77.161 145.104 77.161C147.312 77.161 149.244 77.644 150.9 78.61C152.602 79.576 153.936 80.933 154.902 82.681C155.914 84.429 156.42 86.545 156.42 89.029C156.42 91.421 155.914 93.514 154.902 95.308C153.936 97.056 152.602 98.413 150.9 99.379C149.198 100.345 147.289 100.828 145.173 100.828ZM145.035 95.722C146.093 95.722 147.036 95.469 147.864 94.963C148.738 94.457 149.428 93.721 149.934 92.755C150.486 91.743 150.762 90.478 150.762 88.96C150.762 87.442 150.509 86.2 150.003 85.234C149.497 84.222 148.807 83.463 147.933 82.957C147.105 82.451 146.162 82.198 145.104 82.198C144.138 82.198 143.218 82.451 142.344 82.957C141.47 83.463 140.757 84.222 140.205 85.234C139.699 86.2 139.446 87.442 139.446 88.96C139.446 90.478 139.699 91.743 140.205 92.755C140.757 93.721 141.447 94.457 142.275 94.963C143.149 95.469 144.069 95.722 145.035 95.722ZM117.504 74.608C115.342 74.608 113.41 74.125 111.708 73.159C110.006 72.193 108.649 70.836 107.637 69.088C106.625 67.294 106.119 65.178 106.119 62.74C106.119 60.302 106.625 58.209 107.637 56.461C108.649 54.713 110.006 53.356 111.708 52.39C113.456 51.424 115.388 50.941 117.504 50.941C119.666 50.941 121.575 51.424 123.231 52.39C124.933 53.356 126.29 54.713 127.302 56.461C128.314 58.209 128.82 60.302 128.82 62.74C128.82 65.178 128.314 67.294 127.302 69.088C126.29 70.836 124.933 72.193 123.231 73.159C121.529 74.125 119.62 74.608 117.504 74.608ZM117.435 69.502C118.493 69.502 119.436 69.249 120.264 68.743C121.138 68.237 121.828 67.501 122.334 66.535C122.84 65.523 123.093 64.258 123.093 62.74C123.093 61.222 122.84 59.957 122.334 58.945C121.828 57.933 121.138 57.174 120.264 56.668C119.436 56.162 118.516 55.909 117.504 55.909C116.492 55.909 115.549 56.162 114.675 56.668C113.801 57.174 113.088 57.933 112.536 58.945C112.03 59.957 111.777 61.222 111.777 62.74C111.777 64.212 112.03 65.454 112.536 66.466C113.088 67.478 113.801 68.237 114.675 68.743C115.549 69.249 116.469 69.502 117.435 69.502Z" fill="#306032"/>
<path d="M21.904 156L26.08 146.448H20.448V144.8H28.048V146.176L23.904 156H21.904ZM36.6124 156.192C35.8444 156.192 35.151 156.016 34.5324 155.664C33.9244 155.301 33.4444 154.805 33.0924 154.176C32.751 153.536 32.5804 152.805 32.5804 151.984C32.5804 151.141 32.7564 150.405 33.1084 149.776C33.4604 149.136 33.9404 148.64 34.5484 148.288C35.167 147.925 35.8604 147.744 36.6284 147.744C37.3964 147.744 38.0844 147.925 38.6924 148.288C39.311 148.64 39.791 149.131 40.1324 149.76C40.4844 150.389 40.6604 151.125 40.6604 151.968C40.6604 152.811 40.4844 153.547 40.1324 154.176C39.7804 154.805 39.295 155.301 38.6764 155.664C38.0684 156.016 37.3804 156.192 36.6124 156.192ZM36.6124 154.544C36.9964 154.544 37.343 154.448 37.6524 154.256C37.9724 154.064 38.2284 153.776 38.4204 153.392C38.6124 153.008 38.7084 152.533 38.7084 151.968C38.7084 151.403 38.6124 150.933 38.4204 150.56C38.239 150.176 37.9884 149.888 37.6684 149.696C37.359 149.504 37.0124 149.408 36.6284 149.408C36.255 149.408 35.9084 149.504 35.5884 149.696C35.2684 149.888 35.0124 150.176 34.8204 150.56C34.6284 150.933 34.5324 151.403 34.5324 151.968C34.5324 152.533 34.6284 153.008 34.8204 153.392C35.0124 153.776 35.263 154.064 35.5724 154.256C35.8924 154.448 36.239 154.544 36.6124 154.544ZM45.8999 156.192C44.6519 156.192 43.7025 155.867 43.0519 155.216C42.4119 154.565 42.0919 153.632 42.0919 152.416V147.936H43.9959V152.272C43.9959 152.805 44.0652 153.253 44.2039 153.616C44.3425 153.968 44.5505 154.235 44.8279 154.416C45.1052 154.597 45.4625 154.688 45.8999 154.688C46.3372 154.688 46.6945 154.597 46.9719 154.416C47.2492 154.235 47.4519 153.968 47.5799 153.616C47.7185 153.253 47.7879 152.805 47.7879 152.272V147.936H49.7079V152.416C49.7079 153.632 49.3825 154.565 48.7319 155.216C48.0919 155.867 47.1479 156.192 45.8999 156.192ZM54.9024 156C54.3584 156 53.8837 155.915 53.4784 155.744C53.0837 155.573 52.7744 155.291 52.5504 154.896C52.3264 154.501 52.2144 153.968 52.2144 153.296V149.552H50.8384V147.936H52.2144L52.4384 145.808H54.1344V147.936H56.3264V149.552H54.1344V153.296C54.1344 153.701 54.2197 153.984 54.3904 154.144C54.5717 154.293 54.8704 154.368 55.2864 154.368H56.2784V156H54.9024ZM65.095 156.192C64.327 156.192 63.6337 156.016 63.015 155.664C62.407 155.301 61.927 154.805 61.575 154.176C61.2337 153.536 61.063 152.805 61.063 151.984C61.063 151.141 61.239 150.405 61.591 149.776C61.943 149.136 62.423 148.64 63.031 148.288C63.6497 147.925 64.343 147.744 65.111 147.744C65.879 147.744 66.567 147.925 67.175 148.288C67.7937 148.64 68.2737 149.131 68.615 149.76C68.967 150.389 69.143 151.125 69.143 151.968C69.143 152.811 68.967 153.547 68.615 154.176C68.263 154.805 67.7777 155.301 67.159 155.664C66.551 156.016 65.863 156.192 65.095 156.192ZM65.095 154.544C65.479 154.544 65.8257 154.448 66.135 154.256C66.455 154.064 66.711 153.776 66.903 153.392C67.095 153.008 67.191 152.533 67.191 151.968C67.191 151.403 67.095 150.933 66.903 150.56C66.7217 150.176 66.471 149.888 66.151 149.696C65.8417 149.504 65.495 149.408 65.111 149.408C64.7377 149.408 64.391 149.504 64.071 149.696C63.751 149.888 63.495 150.176 63.303 150.56C63.111 150.933 63.015 151.403 63.015 151.968C63.015 152.533 63.111 153.008 63.303 153.392C63.495 153.776 63.7457 154.064 64.055 154.256C64.375 154.448 64.7217 154.544 65.095 154.544ZM71.0705 156V147.056C71.0705 146.437 71.1718 145.941 71.3745 145.568C71.5878 145.184 71.8918 144.907 72.2865 144.736C72.6812 144.565 73.1505 144.48 73.6945 144.48H74.6545V146.112H73.9825C73.6305 146.112 73.3745 146.187 73.2145 146.336C73.0652 146.475 72.9905 146.72 72.9905 147.072V156H71.0705ZM69.9185 149.552V147.936H74.8145V149.552H69.9185ZM83.6056 156.192C82.8483 156.192 82.1656 156.059 81.5576 155.792C80.9496 155.515 80.4643 155.131 80.1016 154.64C79.7496 154.139 79.5736 153.552 79.5736 152.88C79.5736 152.432 79.6536 152.016 79.8136 151.632C79.9736 151.248 80.203 150.917 80.5016 150.64C80.8003 150.352 81.147 150.139 81.5416 150C81.019 149.765 80.603 149.44 80.2936 149.024C79.995 148.597 79.8456 148.123 79.8456 147.6C79.8456 147.056 79.9896 146.56 80.2776 146.112C80.5656 145.664 80.987 145.301 81.5416 145.024C82.107 144.747 82.795 144.608 83.6056 144.608C84.4163 144.608 85.099 144.747 85.6536 145.024C86.2083 145.301 86.6296 145.664 86.9176 146.112C87.2056 146.56 87.3496 147.056 87.3496 147.6C87.3496 148.112 87.195 148.587 86.8856 149.024C86.587 149.451 86.1763 149.776 85.6536 150C86.059 150.139 86.4056 150.352 86.6936 150.64C86.9923 150.928 87.2216 151.264 87.3816 151.648C87.5523 152.021 87.6376 152.432 87.6376 152.88C87.6376 153.552 87.4563 154.139 87.0936 154.64C86.731 155.131 86.2456 155.515 85.6376 155.792C85.0403 156.059 84.363 156.192 83.6056 156.192ZM83.6056 154.576C84.3096 154.576 84.8376 154.405 85.1896 154.064C85.5523 153.712 85.7336 153.269 85.7336 152.736C85.7336 152.139 85.5416 151.68 85.1576 151.36C84.7843 151.029 84.267 150.864 83.6056 150.864C82.9443 150.864 82.4163 151.029 82.0216 151.36C81.6376 151.68 81.4456 152.139 81.4456 152.736C81.4456 153.269 81.627 153.712 81.9896 154.064C82.363 154.405 82.9016 154.576 83.6056 154.576ZM83.6056 149.408C84.1816 149.408 84.6296 149.259 84.9496 148.96C85.2803 148.651 85.4456 148.267 85.4456 147.808C85.4456 147.285 85.2803 146.885 84.9496 146.608C84.6296 146.32 84.1816 146.176 83.6056 146.176C83.0296 146.176 82.5763 146.32 82.2456 146.608C81.9256 146.885 81.7656 147.285 81.7656 147.808C81.7656 148.277 81.9256 148.661 82.2456 148.96C82.5763 149.259 83.0296 149.408 83.6056 149.408ZM21.152 175V166.936H23.072V175H21.152ZM22.112 165.656C21.76 165.656 21.4667 165.549 21.232 165.336C21.008 165.112 20.896 164.84 20.896 164.52C20.896 164.189 21.008 163.923 21.232 163.72C21.4667 163.507 21.76 163.4 22.112 163.4C22.464 163.4 22.752 163.507 22.976 163.72C23.2107 163.923 23.328 164.189 23.328 164.52C23.328 164.84 23.2107 165.112 22.976 165.336C22.752 165.549 22.464 165.656 22.112 165.656ZM24.9388 175V166.936H26.6348L26.7788 168.28C27.0241 167.811 27.3761 167.437 27.8348 167.16C28.2934 166.883 28.8374 166.744 29.4668 166.744C30.1174 166.744 30.6721 166.883 31.1308 167.16C31.5894 167.427 31.9414 167.821 32.1868 168.344C32.4428 168.867 32.5708 169.517 32.5708 170.296V175H30.6508V170.472C30.6508 169.8 30.5014 169.283 30.2028 168.92C29.9041 168.557 29.4614 168.376 28.8748 168.376C28.4908 168.376 28.1441 168.467 27.8348 168.648C27.5361 168.829 27.2961 169.096 27.1148 169.448C26.9441 169.789 26.8588 170.205 26.8588 170.696V175H24.9388ZM37.747 175C37.203 175 36.7283 174.915 36.323 174.744C35.9283 174.573 35.619 174.291 35.395 173.896C35.171 173.501 35.059 172.968 35.059 172.296V168.552H33.683V166.936H35.059L35.283 164.808H36.979V166.936H39.171V168.552H36.979V172.296C36.979 172.701 37.0643 172.984 37.235 173.144C37.4163 173.293 37.715 173.368 38.131 173.368H39.123V175H37.747ZM44.1983 175.192C43.3983 175.192 42.6943 175.021 42.0863 174.68C41.4783 174.328 41.0036 173.837 40.6623 173.208C40.3209 172.579 40.1503 171.853 40.1503 171.032C40.1503 170.179 40.3156 169.432 40.6463 168.792C40.9876 168.152 41.4623 167.651 42.0703 167.288C42.6889 166.925 43.4036 166.744 44.2143 166.744C45.0036 166.744 45.6916 166.92 46.2783 167.272C46.8649 167.624 47.3183 168.099 47.6383 168.696C47.9583 169.283 48.1183 169.944 48.1183 170.68C48.1183 170.787 48.1183 170.904 48.1183 171.032C48.1183 171.16 48.1076 171.293 48.0863 171.432H41.5263V170.2H46.1823C46.1609 169.613 45.9636 169.155 45.5903 168.824C45.2169 168.483 44.7529 168.312 44.1983 168.312C43.8036 168.312 43.4409 168.403 43.1103 168.584C42.7796 168.765 42.5183 169.037 42.3263 169.4C42.1343 169.752 42.0383 170.2 42.0383 170.744V171.208C42.0383 171.709 42.1289 172.141 42.3103 172.504C42.5023 172.867 42.7583 173.144 43.0783 173.336C43.4089 173.517 43.7769 173.608 44.1823 173.608C44.6303 173.608 44.9983 173.512 45.2863 173.32C45.5849 173.128 45.8036 172.872 45.9423 172.552H47.8943C47.7449 173.053 47.4996 173.507 47.1583 173.912C46.8169 174.307 46.3956 174.621 45.8943 174.856C45.3929 175.08 44.8276 175.192 44.1983 175.192ZM49.539 175V166.936H51.251L51.427 168.44C51.619 168.088 51.859 167.789 52.147 167.544C52.435 167.288 52.771 167.091 53.155 166.952C53.5497 166.813 53.9817 166.744 54.451 166.744V168.776H53.779C53.459 168.776 53.155 168.819 52.867 168.904C52.579 168.979 52.3283 169.107 52.115 169.288C51.9123 169.459 51.7523 169.699 51.635 170.008C51.5177 170.307 51.459 170.685 51.459 171.144V175H49.539ZM57.7544 175L54.7784 166.936H56.7944L58.9224 173.176L61.0504 166.936H63.0344L60.0584 175H57.7544ZM64.1338 175V166.936H66.0538V175H64.1338ZM65.0938 165.656C64.7418 165.656 64.4484 165.549 64.2138 165.336C63.9898 165.112 63.8778 164.84 63.8778 164.52C63.8778 164.189 63.9898 163.923 64.2138 163.72C64.4484 163.507 64.7418 163.4 65.0938 163.4C65.4458 163.4 65.7338 163.507 65.9578 163.72C66.1924 163.923 66.3098 164.189 66.3098 164.52C66.3098 164.84 66.1924 165.112 65.9578 165.336C65.7338 165.549 65.4458 165.656 65.0938 165.656ZM71.6965 175.192C70.8965 175.192 70.1925 175.021 69.5845 174.68C68.9765 174.328 68.5018 173.837 68.1605 173.208C67.8192 172.579 67.6485 171.853 67.6485 171.032C67.6485 170.179 67.8138 169.432 68.1445 168.792C68.4858 168.152 68.9605 167.651 69.5685 167.288C70.1872 166.925 70.9018 166.744 71.7125 166.744C72.5018 166.744 73.1898 166.92 73.7765 167.272C74.3632 167.624 74.8165 168.099 75.1365 168.696C75.4565 169.283 75.6165 169.944 75.6165 170.68C75.6165 170.787 75.6165 170.904 75.6165 171.032C75.6165 171.16 75.6058 171.293 75.5845 171.432H69.0245V170.2H73.6805C73.6592 169.613 73.4618 169.155 73.0885 168.824C72.7152 168.483 72.2512 168.312 71.6965 168.312C71.3018 168.312 70.9392 168.403 70.6085 168.584C70.2778 168.765 70.0165 169.037 69.8245 169.4C69.6325 169.752 69.5365 170.2 69.5365 170.744V171.208C69.5365 171.709 69.6272 172.141 69.8085 172.504C70.0005 172.867 70.2565 173.144 70.5765 173.336C70.9072 173.517 71.2752 173.608 71.6805 173.608C72.1285 173.608 72.4965 173.512 72.7845 173.32C73.0832 173.128 73.3018 172.872 73.4405 172.552H75.3925C75.2432 173.053 74.9978 173.507 74.6565 173.912C74.3152 174.307 73.8938 174.621 73.3925 174.856C72.8912 175.08 72.3258 175.192 71.6965 175.192ZM78.3247 175L75.9567 166.936H77.8607L79.5087 173.56L79.1567 173.544L80.9967 166.936H83.1407L84.9967 173.544H84.6447L86.2927 166.936H88.1967L85.8287 175H83.8447L81.8767 168.168H82.2767L80.3087 175H78.3247ZM92.7113 175.192C91.9113 175.192 91.2073 175.021 90.5993 174.68C89.9913 174.328 89.5166 173.837 89.1753 173.208C88.8339 172.579 88.6633 171.853 88.6633 171.032C88.6633 170.179 88.8286 169.432 89.1593 168.792C89.5006 168.152 89.9753 167.651 90.5833 167.288C91.2019 166.925 91.9166 166.744 92.7273 166.744C93.5166 166.744 94.2046 166.92 94.7913 167.272C95.3779 167.624 95.8313 168.099 96.1513 168.696C96.4713 169.283 96.6313 169.944 96.6313 170.68C96.6313 170.787 96.6313 170.904 96.6313 171.032C96.6313 171.16 96.6206 171.293 96.5993 171.432H90.0393V170.2H94.6953C94.6739 169.613 94.4766 169.155 94.1033 168.824C93.7299 168.483 93.2659 168.312 92.7113 168.312C92.3166 168.312 91.9539 168.403 91.6233 168.584C91.2926 168.765 91.0313 169.037 90.8393 169.4C90.6473 169.752 90.5513 170.2 90.5513 170.744V171.208C90.5513 171.709 90.6419 172.141 90.8233 172.504C91.0153 172.867 91.2713 173.144 91.5913 173.336C91.9219 173.517 92.2899 173.608 92.6953 173.608C93.1433 173.608 93.5113 173.512 93.7993 173.32C94.0979 173.128 94.3166 172.872 94.4553 172.552H96.4073C96.2579 173.053 96.0126 173.507 95.6713 173.912C95.3299 174.307 94.9086 174.621 94.4073 174.856C93.9059 175.08 93.3406 175.192 92.7113 175.192ZM101.828 175.192C101.028 175.192 100.324 175.021 99.716 174.68C99.108 174.328 98.6333 173.837 98.292 173.208C97.9507 172.579 97.78 171.853 97.78 171.032C97.78 170.179 97.9453 169.432 98.276 168.792C98.6173 168.152 99.092 167.651 99.7 167.288C100.319 166.925 101.033 166.744 101.844 166.744C102.633 166.744 103.321 166.92 103.908 167.272C104.495 167.624 104.948 168.099 105.268 168.696C105.588 169.283 105.748 169.944 105.748 170.68C105.748 170.787 105.748 170.904 105.748 171.032C105.748 171.16 105.737 171.293 105.716 171.432H99.156V170.2H103.812C103.791 169.613 103.593 169.155 103.22 168.824C102.847 168.483 102.383 168.312 101.828 168.312C101.433 168.312 101.071 168.403 100.74 168.584C100.409 168.765 100.148 169.037 99.956 169.4C99.764 169.752 99.668 170.2 99.668 170.744V171.208C99.668 171.709 99.7587 172.141 99.94 172.504C100.132 172.867 100.388 173.144 100.708 173.336C101.039 173.517 101.407 173.608 101.812 173.608C102.26 173.608 102.628 173.512 102.916 173.32C103.215 173.128 103.433 172.872 103.572 172.552H105.524C105.375 173.053 105.129 173.507 104.788 173.912C104.447 174.307 104.025 174.621 103.524 174.856C103.023 175.08 102.457 175.192 101.828 175.192ZM110.385 175.192C109.67 175.192 109.046 175.08 108.513 174.856C107.99 174.621 107.574 174.301 107.265 173.896C106.966 173.48 106.79 173.005 106.737 172.472H108.657C108.71 172.696 108.806 172.904 108.945 173.096C109.083 173.277 109.27 173.421 109.505 173.528C109.75 173.635 110.038 173.688 110.369 173.688C110.689 173.688 110.95 173.645 111.153 173.56C111.355 173.464 111.505 173.341 111.601 173.192C111.697 173.043 111.745 172.883 111.745 172.712C111.745 172.456 111.675 172.259 111.537 172.12C111.398 171.981 111.195 171.875 110.929 171.8C110.673 171.715 110.363 171.635 110.001 171.56C109.617 171.485 109.243 171.395 108.881 171.288C108.529 171.171 108.209 171.027 107.921 170.856C107.643 170.685 107.419 170.467 107.249 170.2C107.089 169.933 107.009 169.608 107.009 169.224C107.009 168.755 107.131 168.333 107.377 167.96C107.633 167.587 107.995 167.293 108.465 167.08C108.945 166.856 109.515 166.744 110.177 166.744C111.115 166.744 111.862 166.963 112.417 167.4C112.982 167.827 113.313 168.429 113.409 169.208H111.585C111.531 168.909 111.382 168.68 111.137 168.52C110.891 168.349 110.566 168.264 110.161 168.264C109.745 168.264 109.425 168.344 109.201 168.504C108.987 168.653 108.881 168.856 108.881 169.112C108.881 169.272 108.945 169.421 109.073 169.56C109.211 169.688 109.409 169.8 109.665 169.896C109.921 169.981 110.235 170.067 110.609 170.152C111.206 170.269 111.734 170.408 112.193 170.568C112.651 170.728 113.014 170.963 113.281 171.272C113.547 171.581 113.681 172.019 113.681 172.584C113.691 173.096 113.558 173.549 113.281 173.944C113.014 174.339 112.635 174.648 112.145 174.872C111.654 175.085 111.067 175.192 110.385 175.192ZM21.072 197.52V185.936H22.784L22.992 187.104C23.1627 186.869 23.3653 186.651 23.6 186.448C23.8453 186.235 24.1387 186.064 24.48 185.936C24.832 185.808 25.232 185.744 25.68 185.744C26.4373 185.744 27.104 185.931 27.68 186.304C28.2667 186.677 28.7253 187.184 29.056 187.824C29.3867 188.453 29.552 189.173 29.552 189.984C29.552 190.795 29.3813 191.52 29.04 192.16C28.7093 192.789 28.2507 193.285 27.664 193.648C27.088 194.011 26.4267 194.192 25.68 194.192C25.072 194.192 24.5387 194.08 24.08 193.856C23.632 193.621 23.2693 193.291 22.992 192.864V197.52H21.072ZM25.28 192.528C25.728 192.528 26.128 192.421 26.48 192.208C26.832 191.995 27.104 191.696 27.296 191.312C27.4987 190.928 27.6 190.485 27.6 189.984C27.6 189.472 27.4987 189.024 27.296 188.64C27.104 188.256 26.832 187.957 26.48 187.744C26.128 187.531 25.728 187.424 25.28 187.424C24.8213 187.424 24.416 187.531 24.064 187.744C23.7227 187.957 23.4507 188.256 23.248 188.64C23.056 189.024 22.96 189.467 22.96 189.968C22.96 190.48 23.056 190.928 23.248 191.312C23.4507 191.685 23.7227 191.984 24.064 192.208C24.416 192.421 24.8213 192.528 25.28 192.528ZM31.0637 194V185.936H32.7757L32.9517 187.44C33.1437 187.088 33.3837 186.789 33.6717 186.544C33.9597 186.288 34.2957 186.091 34.6797 185.952C35.0744 185.813 35.5064 185.744 35.9757 185.744V187.776H35.3038C34.9838 187.776 34.6797 187.819 34.3917 187.904C34.1037 187.979 33.8531 188.107 33.6398 188.288C33.4371 188.459 33.2771 188.699 33.1597 189.008C33.0424 189.307 32.9837 189.685 32.9837 190.144V194H31.0637ZM40.6752 194.192C39.8752 194.192 39.1712 194.021 38.5632 193.68C37.9552 193.328 37.4806 192.837 37.1392 192.208C36.7979 191.579 36.6272 190.853 36.6272 190.032C36.6272 189.179 36.7926 188.432 37.1232 187.792C37.4646 187.152 37.9392 186.651 38.5472 186.288C39.1659 185.925 39.8806 185.744 40.6912 185.744C41.4806 185.744 42.1686 185.92 42.7552 186.272C43.3419 186.624 43.7952 187.099 44.1152 187.696C44.4352 188.283 44.5953 188.944 44.5953 189.68C44.5953 189.787 44.5953 189.904 44.5953 190.032C44.5953 190.16 44.5846 190.293 44.5632 190.432H38.0032V189.2H42.6592C42.6379 188.613 42.4406 188.155 42.0672 187.824C41.6939 187.483 41.2299 187.312 40.6752 187.312C40.2806 187.312 39.9179 187.403 39.5872 187.584C39.2566 187.765 38.9952 188.037 38.8032 188.4C38.6112 188.752 38.5152 189.2 38.5152 189.744V190.208C38.5152 190.709 38.6059 191.141 38.7872 191.504C38.9792 191.867 39.2352 192.144 39.5552 192.336C39.8859 192.517 40.2539 192.608 40.6592 192.608C41.1072 192.608 41.4752 192.512 41.7632 192.32C42.0619 192.128 42.2806 191.872 42.4193 191.552H44.3713C44.2219 192.053 43.9766 192.507 43.6353 192.912C43.2939 193.307 42.8726 193.621 42.3712 193.856C41.8699 194.08 41.3046 194.192 40.6752 194.192ZM46.416 194V185.056C46.416 184.437 46.5173 183.941 46.72 183.568C46.9333 183.184 47.2373 182.907 47.632 182.736C48.0267 182.565 48.496 182.48 49.04 182.48H50V184.112H49.328C48.976 184.112 48.72 184.187 48.56 184.336C48.4107 184.475 48.336 184.72 48.336 185.072V194H46.416ZM45.264 187.552V185.936H50.16V187.552H45.264ZM54.9244 194.192C54.1244 194.192 53.4204 194.021 52.8124 193.68C52.2044 193.328 51.7297 192.837 51.3884 192.208C51.047 191.579 50.8764 190.853 50.8764 190.032C50.8764 189.179 51.0417 188.432 51.3724 187.792C51.7137 187.152 52.1884 186.651 52.7964 186.288C53.415 185.925 54.1297 185.744 54.9404 185.744C55.7297 185.744 56.4177 185.92 57.0044 186.272C57.591 186.624 58.0444 187.099 58.3644 187.696C58.6844 188.283 58.8444 188.944 58.8444 189.68C58.8444 189.787 58.8444 189.904 58.8444 190.032C58.8444 190.16 58.8337 190.293 58.8124 190.432H52.2524V189.2H56.9084C56.887 188.613 56.6897 188.155 56.3164 187.824C55.943 187.483 55.479 187.312 54.9244 187.312C54.5297 187.312 54.167 187.403 53.8364 187.584C53.5057 187.765 53.2444 188.037 53.0524 188.4C52.8604 188.752 52.7644 189.2 52.7644 189.744V190.208C52.7644 190.709 52.855 191.141 53.0364 191.504C53.2284 191.867 53.4844 192.144 53.8044 192.336C54.135 192.517 54.503 192.608 54.9084 192.608C55.3564 192.608 55.7244 192.512 56.0124 192.32C56.311 192.128 56.5297 191.872 56.6684 191.552H58.6204C58.471 192.053 58.2257 192.507 57.8844 192.912C57.543 193.307 57.1217 193.621 56.6204 193.856C56.119 194.08 55.5537 194.192 54.9244 194.192ZM60.2651 194V185.936H61.9771L62.1531 187.44C62.3451 187.088 62.5851 186.789 62.8731 186.544C63.1611 186.288 63.4971 186.091 63.8811 185.952C64.2758 185.813 64.7078 185.744 65.1771 185.744V187.776H64.5051C64.1851 187.776 63.8811 187.819 63.5931 187.904C63.3051 187.979 63.0545 188.107 62.8411 188.288C62.6385 188.459 62.4785 188.699 62.3611 189.008C62.2438 189.307 62.1851 189.685 62.1851 190.144V194H60.2651ZM66.2725 194V185.936H67.9845L68.1605 187.44C68.3525 187.088 68.5925 186.789 68.8805 186.544C69.1685 186.288 69.5045 186.091 69.8885 185.952C70.2832 185.813 70.7152 185.744 71.1845 185.744V187.776H70.5125C70.1925 187.776 69.8885 187.819 69.6005 187.904C69.3125 187.979 69.0618 188.107 68.8485 188.288C68.6458 188.459 68.4858 188.699 68.3685 189.008C68.2512 189.307 68.1925 189.685 68.1925 190.144V194H66.2725ZM75.884 194.192C75.084 194.192 74.38 194.021 73.772 193.68C73.164 193.328 72.6893 192.837 72.348 192.208C72.0067 191.579 71.836 190.853 71.836 190.032C71.836 189.179 72.0013 188.432 72.332 187.792C72.6733 187.152 73.148 186.651 73.756 186.288C74.3747 185.925 75.0893 185.744 75.9 185.744C76.6893 185.744 77.3773 185.92 77.964 186.272C78.5507 186.624 79.004 187.099 79.324 187.696C79.644 188.283 79.804 188.944 79.804 189.68C79.804 189.787 79.804 189.904 79.804 190.032C79.804 190.16 79.7933 190.293 79.772 190.432H73.212V189.2H77.868C77.8467 188.613 77.6493 188.155 77.276 187.824C76.9027 187.483 76.4387 187.312 75.884 187.312C75.4893 187.312 75.1267 187.403 74.796 187.584C74.4653 187.765 74.204 188.037 74.012 188.4C73.82 188.752 73.724 189.2 73.724 189.744V190.208C73.724 190.709 73.8147 191.141 73.996 191.504C74.188 191.867 74.444 192.144 74.764 192.336C75.0947 192.517 75.4627 192.608 75.868 192.608C76.316 192.608 76.684 192.512 76.972 192.32C77.2707 192.128 77.4893 191.872 77.628 191.552H79.58C79.4307 192.053 79.1853 192.507 78.844 192.912C78.5027 193.307 78.0813 193.621 77.58 193.856C77.0787 194.08 76.5133 194.192 75.884 194.192ZM84.8087 194.192C84.0621 194.192 83.3954 194.011 82.8087 193.648C82.2221 193.285 81.7634 192.784 81.4327 192.144C81.1127 191.504 80.9527 190.779 80.9527 189.968C80.9527 189.157 81.1181 188.437 81.4487 187.808C81.7794 187.168 82.2381 186.667 82.8247 186.304C83.4221 185.931 84.0941 185.744 84.8407 185.744C85.4487 185.744 85.9767 185.861 86.4247 186.096C86.8834 186.32 87.2461 186.64 87.5127 187.056V182.48H89.4327V194H87.7047L87.5127 192.832C87.3421 193.067 87.1341 193.291 86.8887 193.504C86.6434 193.707 86.3501 193.872 86.0087 194C85.6674 194.128 85.2674 194.192 84.8087 194.192ZM85.2087 192.528C85.6674 192.528 86.0727 192.421 86.4247 192.208C86.7767 191.984 87.0487 191.68 87.2407 191.296C87.4327 190.912 87.5287 190.469 87.5287 189.968C87.5287 189.467 87.4327 189.024 87.2407 188.64C87.0487 188.256 86.7767 187.957 86.4247 187.744C86.0727 187.531 85.6674 187.424 85.2087 187.424C84.7714 187.424 84.3767 187.531 84.0247 187.744C83.6727 187.957 83.3954 188.256 83.1927 188.64C83.0007 189.024 82.9047 189.467 82.9047 189.968C82.9047 190.469 83.0007 190.912 83.1927 191.296C83.3954 191.68 83.6727 191.984 84.0247 192.208C84.3767 192.421 84.7714 192.528 85.2087 192.528ZM98.2748 194C97.7308 194 97.2561 193.915 96.8508 193.744C96.4561 193.573 96.1468 193.291 95.9228 192.896C95.6988 192.501 95.5868 191.968 95.5868 191.296V187.552H94.2108V185.936H95.5868L95.8108 183.808H97.5068V185.936H99.6988V187.552H97.5068V191.296C97.5068 191.701 97.5921 191.984 97.7628 192.144C97.9441 192.293 98.2428 192.368 98.6588 192.368H99.6508V194H98.2748ZM101.153 194V182.48H103.073V187.184C103.34 186.747 103.702 186.4 104.161 186.144C104.62 185.877 105.137 185.744 105.713 185.744C106.374 185.744 106.934 185.883 107.393 186.16C107.852 186.427 108.198 186.827 108.433 187.36C108.678 187.883 108.801 188.539 108.801 189.328V194H106.897V189.504C106.897 188.811 106.748 188.283 106.449 187.92C106.161 187.557 105.718 187.376 105.121 187.376C104.737 187.376 104.39 187.472 104.081 187.664C103.772 187.845 103.526 188.112 103.345 188.464C103.164 188.805 103.073 189.227 103.073 189.728V194H101.153ZM110.569 194V185.936H112.489V194H110.569ZM111.529 184.656C111.177 184.656 110.883 184.549 110.649 184.336C110.425 184.112 110.313 183.84 110.313 183.52C110.313 183.189 110.425 182.923 110.649 182.72C110.883 182.507 111.177 182.4 111.529 182.4C111.881 182.4 112.169 182.507 112.393 182.72C112.627 182.923 112.745 183.189 112.745 183.52C112.745 183.84 112.627 184.112 112.393 184.336C112.169 184.549 111.881 184.656 111.529 184.656ZM117.571 194.192C116.857 194.192 116.233 194.08 115.699 193.856C115.177 193.621 114.761 193.301 114.451 192.896C114.153 192.48 113.977 192.005 113.923 191.472H115.843C115.897 191.696 115.993 191.904 116.131 192.096C116.27 192.277 116.457 192.421 116.691 192.528C116.937 192.635 117.225 192.688 117.555 192.688C117.875 192.688 118.137 192.645 118.339 192.56C118.542 192.464 118.691 192.341 118.787 192.192C118.883 192.043 118.931 191.883 118.931 191.712C118.931 191.456 118.862 191.259 118.723 191.12C118.585 190.981 118.382 190.875 118.115 190.8C117.859 190.715 117.55 190.635 117.187 190.56C116.803 190.485 116.43 190.395 116.067 190.288C115.715 190.171 115.395 190.027 115.107 189.856C114.83 189.685 114.606 189.467 114.435 189.2C114.275 188.933 114.195 188.608 114.195 188.224C114.195 187.755 114.318 187.333 114.563 186.96C114.819 186.587 115.182 186.293 115.651 186.08C116.131 185.856 116.702 185.744 117.363 185.744C118.302 185.744 119.049 185.963 119.603 186.4C120.169 186.827 120.499 187.429 120.595 188.208H118.771C118.718 187.909 118.569 187.68 118.323 187.52C118.078 187.349 117.753 187.264 117.347 187.264C116.931 187.264 116.611 187.344 116.387 187.504C116.174 187.653 116.067 187.856 116.067 188.112C116.067 188.272 116.131 188.421 116.259 188.56C116.398 188.688 116.595 188.8 116.851 188.896C117.107 188.981 117.422 189.067 117.795 189.152C118.393 189.269 118.921 189.408 119.379 189.568C119.838 189.728 120.201 189.963 120.467 190.272C120.734 190.581 120.867 191.019 120.867 191.584C120.878 192.096 120.745 192.549 120.467 192.944C120.201 193.339 119.822 193.648 119.331 193.872C118.841 194.085 118.254 194.192 117.571 194.192ZM23.76 213.192C23.0987 213.192 22.5493 213.08 22.112 212.856C21.6747 212.632 21.3493 212.333 21.136 211.96C20.9227 211.587 20.816 211.181 20.816 210.744C20.816 210.232 20.944 209.789 21.2 209.416C21.4667 209.043 21.856 208.755 22.368 208.552C22.88 208.339 23.5093 208.232 24.256 208.232H26.288C26.288 207.805 26.2293 207.453 26.112 207.176C25.9947 206.888 25.8133 206.675 25.568 206.536C25.3227 206.397 25.008 206.328 24.624 206.328C24.1867 206.328 23.8133 206.429 23.504 206.632C23.1947 206.824 23.0027 207.123 22.928 207.528H21.04C21.104 206.952 21.296 206.461 21.616 206.056C21.936 205.64 22.3573 205.32 22.88 205.096C23.4133 204.861 23.9947 204.744 24.624 204.744C25.3813 204.744 26.0267 204.877 26.56 205.144C27.0933 205.4 27.4987 205.773 27.776 206.264C28.064 206.744 28.208 207.325 28.208 208.008V213H26.576L26.384 211.704C26.2773 211.917 26.1387 212.115 25.968 212.296C25.808 212.477 25.6213 212.637 25.408 212.776C25.1947 212.904 24.9493 213.005 24.672 213.08C24.4053 213.155 24.1013 213.192 23.76 213.192ZM24.192 211.672C24.5013 211.672 24.7733 211.619 25.008 211.512C25.2533 211.395 25.4613 211.235 25.632 211.032C25.8133 210.819 25.952 210.584 26.048 210.328C26.144 210.072 26.208 209.8 26.24 209.512V209.48H24.464C24.0907 209.48 23.7813 209.528 23.536 209.624C23.2907 209.709 23.1147 209.837 23.008 210.008C22.9013 210.179 22.848 210.376 22.848 210.6C22.848 210.824 22.9013 211.016 23.008 211.176C23.1147 211.336 23.2693 211.459 23.472 211.544C23.6747 211.629 23.9147 211.672 24.192 211.672ZM29.9075 216.52V204.936H31.6195L31.8275 206.104C31.9982 205.869 32.2008 205.651 32.4355 205.448C32.6808 205.235 32.9742 205.064 33.3155 204.936C33.6675 204.808 34.0675 204.744 34.5155 204.744C35.2728 204.744 35.9395 204.931 36.5155 205.304C37.1022 205.677 37.5608 206.184 37.8915 206.824C38.2222 207.453 38.3875 208.173 38.3875 208.984C38.3875 209.795 38.2168 210.52 37.8755 211.16C37.5448 211.789 37.0862 212.285 36.4995 212.648C35.9235 213.011 35.2622 213.192 34.5155 213.192C33.9075 213.192 33.3742 213.08 32.9155 212.856C32.4675 212.621 32.1048 212.291 31.8275 211.864V216.52H29.9075ZM34.1155 211.528C34.5635 211.528 34.9635 211.421 35.3155 211.208C35.6675 210.995 35.9395 210.696 36.1315 210.312C36.3342 209.928 36.4355 209.485 36.4355 208.984C36.4355 208.472 36.3342 208.024 36.1315 207.64C35.9395 207.256 35.6675 206.957 35.3155 206.744C34.9635 206.531 34.5635 206.424 34.1155 206.424C33.6568 206.424 33.2515 206.531 32.8995 206.744C32.5582 206.957 32.2862 207.256 32.0835 207.64C31.8915 208.024 31.7955 208.467 31.7955 208.968C31.7955 209.48 31.8915 209.928 32.0835 210.312C32.2862 210.685 32.5582 210.984 32.8995 211.208C33.2515 211.421 33.6568 211.528 34.1155 211.528ZM39.8992 216.52V204.936H41.6112L41.8192 206.104C41.9899 205.869 42.1926 205.651 42.4272 205.448C42.6726 205.235 42.9659 205.064 43.3072 204.936C43.6592 204.808 44.0592 204.744 44.5072 204.744C45.2646 204.744 45.9312 204.931 46.5072 205.304C47.0939 205.677 47.5526 206.184 47.8833 206.824C48.2139 207.453 48.3792 208.173 48.3792 208.984C48.3792 209.795 48.2086 210.52 47.8672 211.16C47.5366 211.789 47.0779 212.285 46.4913 212.648C45.9152 213.011 45.2539 213.192 44.5072 213.192C43.8992 213.192 43.3659 213.08 42.9072 212.856C42.4592 212.621 42.0966 212.291 41.8192 211.864V216.52H39.8992ZM44.1072 211.528C44.5552 211.528 44.9552 211.421 45.3073 211.208C45.6592 210.995 45.9312 210.696 46.1233 210.312C46.3259 209.928 46.4272 209.485 46.4272 208.984C46.4272 208.472 46.3259 208.024 46.1233 207.64C45.9312 207.256 45.6592 206.957 45.3073 206.744C44.9552 206.531 44.5552 206.424 44.1072 206.424C43.6486 206.424 43.2432 206.531 42.8912 206.744C42.5499 206.957 42.2779 207.256 42.0752 207.64C41.8832 208.024 41.7872 208.467 41.7872 208.968C41.7872 209.48 41.8832 209.928 42.0752 210.312C42.2779 210.685 42.5499 210.984 42.8912 211.208C43.2432 211.421 43.6486 211.528 44.1072 211.528ZM49.891 213V204.936H51.603L51.779 206.44C51.971 206.088 52.211 205.789 52.499 205.544C52.787 205.288 53.123 205.091 53.507 204.952C53.9017 204.813 54.3337 204.744 54.803 204.744V206.776H54.131C53.811 206.776 53.507 206.819 53.219 206.904C52.931 206.979 52.6803 207.107 52.467 207.288C52.2643 207.459 52.1043 207.699 51.987 208.008C51.8697 208.307 51.811 208.685 51.811 209.144V213H49.891ZM59.4865 213.192C58.7185 213.192 58.0252 213.016 57.4065 212.664C56.7985 212.301 56.3185 211.805 55.9665 211.176C55.6252 210.536 55.4545 209.805 55.4545 208.984C55.4545 208.141 55.6305 207.405 55.9825 206.776C56.3345 206.136 56.8145 205.64 57.4225 205.288C58.0412 204.925 58.7345 204.744 59.5025 204.744C60.2705 204.744 60.9585 204.925 61.5665 205.288C62.1852 205.64 62.6652 206.131 63.0065 206.76C63.3585 207.389 63.5345 208.125 63.5345 208.968C63.5345 209.811 63.3585 210.547 63.0065 211.176C62.6545 211.805 62.1692 212.301 61.5505 212.664C60.9425 213.016 60.2545 213.192 59.4865 213.192ZM59.4865 211.544C59.8705 211.544 60.2172 211.448 60.5265 211.256C60.8465 211.064 61.1025 210.776 61.2945 210.392C61.4865 210.008 61.5825 209.533 61.5825 208.968C61.5825 208.403 61.4865 207.933 61.2945 207.56C61.1132 207.176 60.8625 206.888 60.5425 206.696C60.2332 206.504 59.8865 206.408 59.5025 206.408C59.1292 206.408 58.7825 206.504 58.4625 206.696C58.1425 206.888 57.8865 207.176 57.6945 207.56C57.5025 207.933 57.4065 208.403 57.4065 208.968C57.4065 209.533 57.5025 210.008 57.6945 210.392C57.8865 210.776 58.1372 211.064 58.4465 211.256C58.7665 211.448 59.1132 211.544 59.4865 211.544ZM67.75 213.192C67.0887 213.192 66.5393 213.08 66.102 212.856C65.6647 212.632 65.3393 212.333 65.126 211.96C64.9127 211.587 64.806 211.181 64.806 210.744C64.806 210.232 64.934 209.789 65.19 209.416C65.4567 209.043 65.846 208.755 66.358 208.552C66.87 208.339 67.4993 208.232 68.246 208.232H70.278C70.278 207.805 70.2193 207.453 70.102 207.176C69.9847 206.888 69.8033 206.675 69.558 206.536C69.3127 206.397 68.998 206.328 68.614 206.328C68.1767 206.328 67.8033 206.429 67.494 206.632C67.1847 206.824 66.9927 207.123 66.918 207.528H65.03C65.094 206.952 65.286 206.461 65.606 206.056C65.926 205.64 66.3473 205.32 66.87 205.096C67.4033 204.861 67.9847 204.744 68.614 204.744C69.3713 204.744 70.0167 204.877 70.55 205.144C71.0833 205.4 71.4887 205.773 71.766 206.264C72.054 206.744 72.198 207.325 72.198 208.008V213H70.566L70.374 211.704C70.2673 211.917 70.1287 212.115 69.958 212.296C69.798 212.477 69.6113 212.637 69.398 212.776C69.1847 212.904 68.9393 213.005 68.662 213.08C68.3953 213.155 68.0913 213.192 67.75 213.192ZM68.182 211.672C68.4913 211.672 68.7633 211.619 68.998 211.512C69.2433 211.395 69.4513 211.235 69.622 211.032C69.8033 210.819 69.942 210.584 70.038 210.328C70.134 210.072 70.198 209.8 70.23 209.512V209.48H68.454C68.0807 209.48 67.7713 209.528 67.526 209.624C67.2807 209.709 67.1047 209.837 66.998 210.008C66.8913 210.179 66.838 210.376 66.838 210.6C66.838 210.824 66.8913 211.016 66.998 211.176C67.1047 211.336 67.2593 211.459 67.462 211.544C67.6647 211.629 67.9047 211.672 68.182 211.672ZM77.7215 213.192C76.9322 213.192 76.2228 213.016 75.5935 212.664C74.9748 212.301 74.4895 211.805 74.1375 211.176C73.7962 210.536 73.6255 209.811 73.6255 209C73.6255 208.157 73.7962 207.421 74.1375 206.792C74.4895 206.152 74.9748 205.651 75.5935 205.288C76.2228 204.925 76.9375 204.744 77.7375 204.744C78.7402 204.744 79.5828 205.011 80.2655 205.544C80.9482 206.067 81.3855 206.787 81.5775 207.704H79.5615C79.4548 207.299 79.2308 206.979 78.8895 206.744C78.5588 206.509 78.1642 206.392 77.7055 206.392C77.3108 206.392 76.9482 206.493 76.6175 206.696C76.2975 206.899 76.0415 207.192 75.8495 207.576C75.6682 207.96 75.5775 208.424 75.5775 208.968C75.5775 209.384 75.6308 209.752 75.7375 210.072C75.8442 210.392 75.9935 210.664 76.1855 210.888C76.3882 211.101 76.6175 211.267 76.8735 211.384C77.1295 211.501 77.4068 211.56 77.7055 211.56C78.0148 211.56 78.2922 211.512 78.5375 211.416C78.7935 211.309 79.0068 211.155 79.1775 210.952C79.3588 210.749 79.4868 210.509 79.5615 210.232H81.5775C81.3855 211.128 80.9482 211.848 80.2655 212.392C79.5828 212.925 78.7348 213.192 77.7215 213.192ZM83.0767 213V201.48H84.9967V206.184C85.2634 205.747 85.6261 205.4 86.0847 205.144C86.5434 204.877 87.0607 204.744 87.6367 204.744C88.2981 204.744 88.8581 204.883 89.3167 205.16C89.7754 205.427 90.1221 205.827 90.3567 206.36C90.6021 206.883 90.7247 207.539 90.7247 208.328V213H88.8207V208.504C88.8207 207.811 88.6714 207.283 88.3727 206.92C88.0847 206.557 87.6421 206.376 87.0447 206.376C86.6607 206.376 86.3141 206.472 86.0047 206.664C85.6954 206.845 85.4501 207.112 85.2687 207.464C85.0874 207.805 84.9967 208.227 84.9967 208.728V213H83.0767ZM91.6122 214.968L92.5242 211.064H94.3962L92.8762 214.968H91.6122ZM23.76 232.192C23.0987 232.192 22.5493 232.08 22.112 231.856C21.6747 231.632 21.3493 231.333 21.136 230.96C20.9227 230.587 20.816 230.181 20.816 229.744C20.816 229.232 20.944 228.789 21.2 228.416C21.4667 228.043 21.856 227.755 22.368 227.552C22.88 227.339 23.5093 227.232 24.256 227.232H26.288C26.288 226.805 26.2293 226.453 26.112 226.176C25.9947 225.888 25.8133 225.675 25.568 225.536C25.3227 225.397 25.008 225.328 24.624 225.328C24.1867 225.328 23.8133 225.429 23.504 225.632C23.1947 225.824 23.0027 226.123 22.928 226.528H21.04C21.104 225.952 21.296 225.461 21.616 225.056C21.936 224.64 22.3573 224.32 22.88 224.096C23.4133 223.861 23.9947 223.744 24.624 223.744C25.3813 223.744 26.0267 223.877 26.56 224.144C27.0933 224.4 27.4987 224.773 27.776 225.264C28.064 225.744 28.208 226.325 28.208 227.008V232H26.576L26.384 230.704C26.2773 230.917 26.1387 231.115 25.968 231.296C25.808 231.477 25.6213 231.637 25.408 231.776C25.1947 231.904 24.9493 232.005 24.672 232.08C24.4053 232.155 24.1013 232.192 23.76 232.192ZM24.192 230.672C24.5013 230.672 24.7733 230.619 25.008 230.512C25.2533 230.395 25.4613 230.235 25.632 230.032C25.8133 229.819 25.952 229.584 26.048 229.328C26.144 229.072 26.208 228.8 26.24 228.512V228.48H24.464C24.0907 228.48 23.7813 228.528 23.536 228.624C23.2907 228.709 23.1147 228.837 23.008 229.008C22.9013 229.179 22.848 229.376 22.848 229.6C22.848 229.824 22.9013 230.016 23.008 230.176C23.1147 230.336 23.2693 230.459 23.472 230.544C23.6747 230.629 23.9147 230.672 24.192 230.672ZM33.7315 232.192C32.9422 232.192 32.2328 232.016 31.6035 231.664C30.9848 231.301 30.4995 230.805 30.1475 230.176C29.8062 229.536 29.6355 228.811 29.6355 228C29.6355 227.157 29.8062 226.421 30.1475 225.792C30.4995 225.152 30.9848 224.651 31.6035 224.288C32.2328 223.925 32.9475 223.744 33.7475 223.744C34.7502 223.744 35.5928 224.011 36.2755 224.544C36.9582 225.067 37.3955 225.787 37.5875 226.704H35.5715C35.4648 226.299 35.2408 225.979 34.8995 225.744C34.5688 225.509 34.1742 225.392 33.7155 225.392C33.3208 225.392 32.9582 225.493 32.6275 225.696C32.3075 225.899 32.0515 226.192 31.8595 226.576C31.6782 226.96 31.5875 227.424 31.5875 227.968C31.5875 228.384 31.6408 228.752 31.7475 229.072C31.8542 229.392 32.0035 229.664 32.1955 229.888C32.3982 230.101 32.6275 230.267 32.8835 230.384C33.1395 230.501 33.4168 230.56 33.7155 230.56C34.0248 230.56 34.3022 230.512 34.5475 230.416C34.8035 230.309 35.0168 230.155 35.1875 229.952C35.3688 229.749 35.4968 229.509 35.5715 229.232H37.5875C37.3955 230.128 36.9582 230.848 36.2755 231.392C35.5928 231.925 34.7448 232.192 33.7315 232.192ZM42.9107 232.192C42.1214 232.192 41.4121 232.016 40.7827 231.664C40.1641 231.301 39.6787 230.805 39.3267 230.176C38.9854 229.536 38.8147 228.811 38.8147 228C38.8147 227.157 38.9854 226.421 39.3267 225.792C39.6787 225.152 40.1641 224.651 40.7827 224.288C41.4121 223.925 42.1267 223.744 42.9267 223.744C43.9294 223.744 44.7721 224.011 45.4548 224.544C46.1374 225.067 46.5748 225.787 46.7668 226.704H44.7508C44.6441 226.299 44.4201 225.979 44.0787 225.744C43.7481 225.509 43.3534 225.392 42.8947 225.392C42.5001 225.392 42.1374 225.493 41.8067 225.696C41.4867 225.899 41.2307 226.192 41.0387 226.576C40.8574 226.96 40.7667 227.424 40.7667 227.968C40.7667 228.384 40.8201 228.752 40.9267 229.072C41.0334 229.392 41.1827 229.664 41.3747 229.888C41.5774 230.101 41.8067 230.267 42.0627 230.384C42.3187 230.501 42.5961 230.56 42.8947 230.56C43.2041 230.56 43.4814 230.512 43.7267 230.416C43.9827 230.309 44.1961 230.155 44.3667 229.952C44.5481 229.749 44.6761 229.509 44.7508 229.232H46.7668C46.5748 230.128 46.1374 230.848 45.4548 231.392C44.7721 231.925 43.9241 232.192 42.9107 232.192ZM52.026 232.192C51.258 232.192 50.5647 232.016 49.946 231.664C49.338 231.301 48.858 230.805 48.506 230.176C48.1647 229.536 47.994 228.805 47.994 227.984C47.994 227.141 48.17 226.405 48.522 225.776C48.874 225.136 49.354 224.64 49.962 224.288C50.5807 223.925 51.274 223.744 52.042 223.744C52.81 223.744 53.498 223.925 54.106 224.288C54.7247 224.64 55.2047 225.131 55.546 225.76C55.898 226.389 56.074 227.125 56.074 227.968C56.074 228.811 55.898 229.547 55.546 230.176C55.194 230.805 54.7087 231.301 54.09 231.664C53.482 232.016 52.794 232.192 52.026 232.192ZM52.026 230.544C52.41 230.544 52.7567 230.448 53.066 230.256C53.386 230.064 53.642 229.776 53.834 229.392C54.026 229.008 54.122 228.533 54.122 227.968C54.122 227.403 54.026 226.933 53.834 226.56C53.6527 226.176 53.402 225.888 53.082 225.696C52.7727 225.504 52.426 225.408 52.042 225.408C51.6687 225.408 51.322 225.504 51.002 225.696C50.682 225.888 50.426 226.176 50.234 226.56C50.042 226.933 49.946 227.403 49.946 227.968C49.946 228.533 50.042 229.008 50.234 229.392C50.426 229.776 50.6767 230.064 50.986 230.256C51.306 230.448 51.6527 230.544 52.026 230.544ZM61.3135 232.192C60.0655 232.192 59.1162 231.867 58.4655 231.216C57.8255 230.565 57.5055 229.632 57.5055 228.416V223.936H59.4095V228.272C59.4095 228.805 59.4788 229.253 59.6175 229.616C59.7562 229.968 59.9642 230.235 60.2415 230.416C60.5188 230.597 60.8762 230.688 61.3135 230.688C61.7508 230.688 62.1082 230.597 62.3855 230.416C62.6628 230.235 62.8655 229.968 62.9935 229.616C63.1322 229.253 63.2015 228.805 63.2015 228.272V223.936H65.1215V228.416C65.1215 229.632 64.7962 230.565 64.1455 231.216C63.5055 231.867 62.5615 232.192 61.3135 232.192ZM66.812 232V223.936H68.508L68.652 225.28C68.8973 224.811 69.2493 224.437 69.708 224.16C70.1667 223.883 70.7107 223.744 71.34 223.744C71.9907 223.744 72.5453 223.883 73.004 224.16C73.4627 224.427 73.8147 224.821 74.06 225.344C74.316 225.867 74.444 226.517 74.444 227.296V232H72.524V227.472C72.524 226.8 72.3747 226.283 72.076 225.92C71.7773 225.557 71.3347 225.376 70.748 225.376C70.364 225.376 70.0173 225.467 69.708 225.648C69.4093 225.829 69.1693 226.096 68.988 226.448C68.8173 226.789 68.732 227.205 68.732 227.696V232H66.812ZM79.6203 232C79.0763 232 78.6016 231.915 78.1963 231.744C77.8016 231.573 77.4923 231.291 77.2683 230.896C77.0443 230.501 76.9323 229.968 76.9323 229.296V225.552H75.5563V223.936H76.9323L77.1563 221.808H78.8523V223.936H81.0443V225.552H78.8523V229.296C78.8523 229.701 78.9376 229.984 79.1083 230.144C79.2896 230.293 79.5883 230.368 80.0043 230.368H80.9963V232H79.6203ZM82.5786 232V223.936H84.4986V232H82.5786ZM83.5386 222.656C83.1866 222.656 82.8933 222.549 82.6586 222.336C82.4346 222.112 82.3226 221.84 82.3226 221.52C82.3226 221.189 82.4346 220.923 82.6586 220.72C82.8933 220.507 83.1866 220.4 83.5386 220.4C83.8906 220.4 84.1786 220.507 84.4026 220.72C84.6373 220.923 84.7546 221.189 84.7546 221.52C84.7546 221.84 84.6373 222.112 84.4026 222.336C84.1786 222.549 83.8906 222.656 83.5386 222.656ZM86.3654 232V223.936H88.0614L88.2054 225.28C88.4507 224.811 88.8027 224.437 89.2614 224.16C89.72 223.883 90.264 223.744 90.8934 223.744C91.544 223.744 92.0987 223.883 92.5574 224.16C93.016 224.427 93.368 224.821 93.6134 225.344C93.8694 225.867 93.9974 226.517 93.9974 227.296V232H92.0774V227.472C92.0774 226.8 91.928 226.283 91.6294 225.92C91.3307 225.557 90.888 225.376 90.3014 225.376C89.9174 225.376 89.5707 225.467 89.2614 225.648C88.9627 225.829 88.7227 226.096 88.5414 226.448C88.3707 226.789 88.2854 227.205 88.2854 227.696V232H86.3654ZM99.0616 235.712C98.3043 235.712 97.6376 235.616 97.0616 235.424C96.4963 235.243 96.0536 234.96 95.7336 234.576C95.4243 234.203 95.2696 233.733 95.2696 233.168C95.2696 232.837 95.3496 232.512 95.5096 232.192C95.6803 231.883 95.931 231.595 96.2616 231.328C96.603 231.051 97.035 230.811 97.5576 230.608L98.4056 231.536C97.8936 231.717 97.5363 231.936 97.3336 232.192C97.131 232.448 97.0296 232.709 97.0296 232.976C97.0296 233.253 97.115 233.483 97.2856 233.664C97.467 233.856 97.707 234 98.0056 234.096C98.315 234.192 98.6616 234.24 99.0456 234.24C99.419 234.24 99.7443 234.187 100.022 234.08C100.299 233.984 100.512 233.845 100.662 233.664C100.822 233.483 100.902 233.264 100.902 233.008C100.902 232.688 100.79 232.427 100.566 232.224C100.342 232.032 99.899 231.915 99.2376 231.872C98.6723 231.829 98.1763 231.771 97.7496 231.696C97.323 231.611 96.955 231.515 96.6456 231.408C96.347 231.301 96.091 231.184 95.8776 231.056C95.6643 230.917 95.4883 230.779 95.3496 230.64V230.272L97.0296 228.512L98.4536 228.976L96.5656 230.816L97.0616 229.888C97.1683 229.963 97.275 230.032 97.3816 230.096C97.499 230.16 97.643 230.219 97.8136 230.272C97.995 230.315 98.2296 230.357 98.5176 230.4C98.8056 230.443 99.179 230.485 99.6376 230.528C100.352 230.581 100.934 230.709 101.382 230.912C101.83 231.115 102.16 231.387 102.374 231.728C102.587 232.069 102.694 232.48 102.694 232.96C102.694 233.429 102.56 233.872 102.294 234.288C102.038 234.704 101.643 235.045 101.11 235.312C100.576 235.579 99.8936 235.712 99.0616 235.712ZM99.0616 229.584C98.3896 229.584 97.8083 229.456 97.3176 229.2C96.8376 228.933 96.4696 228.581 96.2136 228.144C95.9576 227.696 95.8296 227.205 95.8296 226.672C95.8296 226.128 95.9576 225.637 96.2136 225.2C96.4696 224.763 96.8376 224.411 97.3176 224.144C97.8083 223.877 98.3896 223.744 99.0616 223.744C99.7336 223.744 100.31 223.877 100.79 224.144C101.27 224.411 101.638 224.763 101.894 225.2C102.15 225.637 102.278 226.128 102.278 226.672C102.278 227.205 102.15 227.696 101.894 228.144C101.638 228.581 101.27 228.933 100.79 229.2C100.31 229.456 99.7336 229.584 99.0616 229.584ZM99.0616 228.096C99.5203 228.096 99.8883 227.973 100.166 227.728C100.443 227.483 100.582 227.131 100.582 226.672C100.582 226.213 100.443 225.867 100.166 225.632C99.8883 225.387 99.5203 225.264 99.0616 225.264C98.603 225.264 98.2296 225.387 97.9416 225.632C97.6536 225.867 97.5096 226.213 97.5096 226.672C97.5096 227.131 97.6536 227.483 97.9416 227.728C98.2296 227.973 98.603 228.096 99.0616 228.096ZM100.39 225.344L100.022 223.936H103.334V225.136L100.39 225.344ZM108.631 232V223.056C108.631 222.437 108.733 221.941 108.935 221.568C109.149 221.184 109.453 220.907 109.847 220.736C110.242 220.565 110.711 220.48 111.255 220.48H112.215V222.112H111.543C111.191 222.112 110.935 222.187 110.775 222.336C110.626 222.475 110.551 222.72 110.551 223.072V232H108.631ZM107.479 225.552V223.936H112.375V225.552H107.479ZM117.124 232.192C116.356 232.192 115.662 232.016 115.044 231.664C114.436 231.301 113.956 230.805 113.604 230.176C113.262 229.536 113.092 228.805 113.092 227.984C113.092 227.141 113.268 226.405 113.62 225.776C113.972 225.136 114.452 224.64 115.06 224.288C115.678 223.925 116.372 223.744 117.14 223.744C117.908 223.744 118.596 223.925 119.204 224.288C119.822 224.64 120.302 225.131 120.644 225.76C120.996 226.389 121.172 227.125 121.172 227.968C121.172 228.811 120.996 229.547 120.644 230.176C120.292 230.805 119.806 231.301 119.188 231.664C118.58 232.016 117.892 232.192 117.124 232.192ZM117.124 230.544C117.508 230.544 117.854 230.448 118.164 230.256C118.484 230.064 118.74 229.776 118.932 229.392C119.124 229.008 119.22 228.533 119.22 227.968C119.22 227.403 119.124 226.933 118.932 226.56C118.75 226.176 118.5 225.888 118.18 225.696C117.87 225.504 117.524 225.408 117.14 225.408C116.766 225.408 116.42 225.504 116.1 225.696C115.78 225.888 115.524 226.176 115.332 226.56C115.14 226.933 115.044 227.403 115.044 227.968C115.044 228.533 115.14 229.008 115.332 229.392C115.524 229.776 115.774 230.064 116.084 230.256C116.404 230.448 116.75 230.544 117.124 230.544ZM122.699 232V223.936H124.411L124.587 225.44C124.779 225.088 125.019 224.789 125.307 224.544C125.595 224.288 125.931 224.091 126.315 223.952C126.71 223.813 127.142 223.744 127.611 223.744V225.776H126.939C126.619 225.776 126.315 225.819 126.027 225.904C125.739 225.979 125.488 226.107 125.275 226.288C125.072 226.459 124.912 226.699 124.795 227.008C124.678 227.307 124.619 227.685 124.619 228.144V232H122.699ZM136.197 232.192C135.439 232.192 134.757 232.059 134.149 231.792C133.541 231.515 133.055 231.131 132.693 230.64C132.341 230.139 132.165 229.552 132.165 228.88C132.165 228.432 132.245 228.016 132.405 227.632C132.565 227.248 132.794 226.917 133.093 226.64C133.391 226.352 133.738 226.139 134.133 226C133.61 225.765 133.194 225.44 132.885 225.024C132.586 224.597 132.437 224.123 132.437 223.6C132.437 223.056 132.581 222.56 132.869 222.112C133.157 221.664 133.578 221.301 134.133 221.024C134.698 220.747 135.386 220.608 136.197 220.608C137.007 220.608 137.69 220.747 138.245 221.024C138.799 221.301 139.221 221.664 139.509 222.112C139.797 222.56 139.941 223.056 139.941 223.6C139.941 224.112 139.786 224.587 139.477 225.024C139.178 225.451 138.767 225.776 138.245 226C138.65 226.139 138.997 226.352 139.285 226.64C139.583 226.928 139.813 227.264 139.973 227.648C140.143 228.021 140.229 228.432 140.229 228.88C140.229 229.552 140.047 230.139 139.685 230.64C139.322 231.131 138.837 231.515 138.229 231.792C137.631 232.059 136.954 232.192 136.197 232.192ZM136.197 230.576C136.901 230.576 137.429 230.405 137.781 230.064C138.143 229.712 138.325 229.269 138.325 228.736C138.325 228.139 138.133 227.68 137.749 227.36C137.375 227.029 136.858 226.864 136.197 226.864C135.535 226.864 135.007 227.029 134.613 227.36C134.229 227.68 134.037 228.139 134.037 228.736C134.037 229.269 134.218 229.712 134.581 230.064C134.954 230.405 135.493 230.576 136.197 230.576ZM136.197 225.408C136.773 225.408 137.221 225.259 137.541 224.96C137.871 224.651 138.037 224.267 138.037 223.808C138.037 223.285 137.871 222.885 137.541 222.608C137.221 222.32 136.773 222.176 136.197 222.176C135.621 222.176 135.167 222.32 134.837 222.608C134.517 222.885 134.357 223.285 134.357 223.808C134.357 224.277 134.517 224.661 134.837 224.96C135.167 225.259 135.621 225.408 136.197 225.408ZM145.845 232.192C145.087 232.192 144.405 232.059 143.797 231.792C143.189 231.515 142.703 231.131 142.341 230.64C141.989 230.139 141.813 229.552 141.813 228.88C141.813 228.432 141.893 228.016 142.053 227.632C142.213 227.248 142.442 226.917 142.741 226.64C143.039 226.352 143.386 226.139 143.781 226C143.258 225.765 142.842 225.44 142.533 225.024C142.234 224.597 142.085 224.123 142.085 223.6C142.085 223.056 142.229 222.56 142.517 222.112C142.805 221.664 143.226 221.301 143.781 221.024C144.346 220.747 145.034 220.608 145.845 220.608C146.655 220.608 147.338 220.747 147.893 221.024C148.447 221.301 148.869 221.664 149.157 222.112C149.445 222.56 149.589 223.056 149.589 223.6C149.589 224.112 149.434 224.587 149.125 225.024C148.826 225.451 148.415 225.776 147.893 226C148.298 226.139 148.645 226.352 148.933 226.64C149.231 226.928 149.461 227.264 149.621 227.648C149.791 228.021 149.877 228.432 149.877 228.88C149.877 229.552 149.695 230.139 149.333 230.64C148.97 231.131 148.485 231.515 147.877 231.792C147.279 232.059 146.602 232.192 145.845 232.192ZM145.845 230.576C146.549 230.576 147.077 230.405 147.429 230.064C147.791 229.712 147.973 229.269 147.973 228.736C147.973 228.139 147.781 227.68 147.397 227.36C147.023 227.029 146.506 226.864 145.845 226.864C145.183 226.864 144.655 227.029 144.261 227.36C143.877 227.68 143.685 228.139 143.685 228.736C143.685 229.269 143.866 229.712 144.229 230.064C144.602 230.405 145.141 230.576 145.845 230.576ZM145.845 225.408C146.421 225.408 146.869 225.259 147.189 224.96C147.519 224.651 147.685 224.267 147.685 223.808C147.685 223.285 147.519 222.885 147.189 222.608C146.869 222.32 146.421 222.176 145.845 222.176C145.269 222.176 144.815 222.32 144.485 222.608C144.165 222.885 144.005 223.285 144.005 223.808C144.005 224.277 144.165 224.661 144.485 224.96C144.815 225.259 145.269 225.408 145.845 225.408ZM153.269 232L159.621 220.8H161.509L155.157 232H153.269ZM160.997 232.192C160.495 232.192 160.037 232.08 159.621 231.856C159.215 231.621 158.89 231.296 158.645 230.88C158.399 230.453 158.277 229.952 158.277 229.376C158.277 228.789 158.399 228.288 158.645 227.872C158.89 227.456 159.215 227.136 159.621 226.912C160.037 226.677 160.495 226.56 160.997 226.56C161.519 226.56 161.978 226.677 162.373 226.912C162.778 227.136 163.098 227.456 163.333 227.872C163.578 228.288 163.701 228.789 163.701 229.376C163.701 229.952 163.578 230.453 163.333 230.88C163.098 231.296 162.778 231.621 162.373 231.856C161.967 232.08 161.509 232.192 160.997 232.192ZM160.981 230.848C161.205 230.848 161.407 230.795 161.589 230.688C161.77 230.571 161.914 230.405 162.021 230.192C162.127 229.968 162.181 229.696 162.181 229.376C162.181 229.045 162.127 228.773 162.021 228.56C161.914 228.347 161.77 228.187 161.589 228.08C161.418 227.963 161.221 227.904 160.997 227.904C160.783 227.904 160.586 227.963 160.405 228.08C160.223 228.187 160.079 228.347 159.973 228.56C159.866 228.773 159.813 229.045 159.813 229.376C159.813 229.696 159.866 229.968 159.973 230.192C160.079 230.405 160.218 230.571 160.389 230.688C160.57 230.795 160.767 230.848 160.981 230.848ZM153.877 226.24C153.365 226.24 152.901 226.128 152.485 225.904C152.079 225.68 151.754 225.355 151.509 224.928C151.274 224.501 151.157 224 151.157 223.424C151.157 222.848 151.274 222.352 151.509 221.936C151.754 221.509 152.085 221.184 152.501 220.96C152.917 220.736 153.375 220.624 153.877 220.624C154.389 220.624 154.847 220.736 155.253 220.96C155.658 221.184 155.978 221.509 156.213 221.936C156.458 222.352 156.581 222.848 156.581 223.424C156.581 224 156.458 224.501 156.213 224.928C155.978 225.355 155.658 225.68 155.253 225.904C154.847 226.128 154.389 226.24 153.877 226.24ZM153.861 224.896C154.085 224.896 154.287 224.843 154.469 224.736C154.65 224.619 154.789 224.453 154.885 224.24C154.991 224.016 155.045 223.744 155.045 223.424C155.045 223.104 154.991 222.832 154.885 222.608C154.789 222.384 154.65 222.219 154.469 222.112C154.287 221.995 154.09 221.936 153.877 221.936C153.663 221.936 153.461 221.995 153.269 222.112C153.087 222.219 152.943 222.384 152.837 222.608C152.73 222.832 152.677 223.104 152.677 223.424C152.677 223.744 152.73 224.016 152.837 224.24C152.943 224.453 153.087 224.619 153.269 224.736C153.45 224.843 153.647 224.896 153.861 224.896ZM165.927 232.08C165.565 232.08 165.271 231.968 165.047 231.744C164.823 231.52 164.711 231.253 164.711 230.944C164.711 230.613 164.823 230.336 165.047 230.112C165.271 229.888 165.565 229.776 165.927 229.776C166.279 229.776 166.567 229.888 166.791 230.112C167.015 230.336 167.127 230.613 167.127 230.944C167.127 231.253 167.015 231.52 166.791 231.744C166.567 231.968 166.279 232.08 165.927 232.08Z" fill="#306032"/>
</svg>
