<svg width="755" height="678" viewBox="0 0 755 678" fill="none" xmlns="http://www.w3.org/2000/svg">
<g filter="url(#filter0_d_1938_6601)">
<path d="M69.6602 200.587L68.8304 200.587C68.3721 200.587 68.0006 200.958 68.0006 201.416L68.0006 251.136C68.0006 251.594 68.3721 251.965 68.8304 251.965L69.6602 251.965L69.6602 200.587Z" fill="#213744"/>
<path d="M300.341 263.014L301.171 263.014C301.629 263.014 302 262.643 302 262.185L302 231.248C302 230.791 301.629 230.42 301.171 230.42L300.341 230.42L300.341 263.014Z" fill="#213744"/>
<path d="M300.341 221.581L301.171 221.581C301.629 221.581 302 221.21 302 220.752L302 189.815C302 189.357 301.629 188.986 301.171 188.986L300.341 188.986L300.341 221.581Z" fill="#213744"/>
<path d="M300.341 174.623L301.171 174.623C301.629 174.623 302 174.252 302 173.794L302 159.983C302 159.525 301.629 159.154 301.171 159.154L300.341 159.154L300.341 174.623Z" fill="#213744"/>
<path d="M300.341 118.273C300.341 104.905 300.341 98.2216 298.581 92.8126C295.024 81.8805 286.442 73.3096 275.495 69.7575C270.078 68 263.386 68 250 68L120 68C106.615 68 99.9223 68 94.506 69.7575C83.5591 73.3095 74.9767 81.8805 71.4199 92.8126C69.66 98.2216 69.66 104.905 69.66 118.273L69.6599 491.727C69.6599 505.095 69.6599 511.778 71.4198 517.187C74.9767 528.12 83.5591 536.69 94.5059 540.242C99.9223 542 106.615 542 120 542L250 542C263.386 542 270.078 542 275.495 540.242C286.442 536.69 295.024 528.12 298.581 517.187C300.341 511.778 300.341 505.095 300.341 491.727L300.341 118.273Z" fill="#404040"/>
<path fill-rule="evenodd" clip-rule="evenodd" d="M119.779 69.1049L250.221 69.1049C263.444 69.1049 269.924 69.1118 275.152 70.8084C285.762 74.2511 294.081 82.5583 297.528 93.154C299.227 98.3757 299.234 104.847 299.234 118.052L299.234 491.948C299.234 505.153 299.227 511.624 297.528 516.846C294.081 527.442 285.762 535.749 275.152 539.192C269.924 540.888 263.444 540.895 250.221 540.895L119.779 540.895C106.556 540.895 100.076 540.888 94.8473 539.192C84.2373 535.749 75.9189 527.442 72.4715 516.846C70.7726 511.624 70.7658 505.153 70.7658 491.948L70.7658 118.052C70.7658 104.847 70.7727 98.3757 72.4716 93.154C75.919 82.5583 84.2373 74.2511 94.8473 70.8084C100.076 69.1117 106.556 69.1049 119.779 69.1049ZM298.054 92.9833C299.787 98.3092 299.787 104.89 299.787 118.052L299.787 491.948C299.787 505.11 299.787 511.691 298.054 517.017C294.552 527.781 286.102 536.22 275.323 539.717C269.99 541.448 263.401 541.448 250.221 541.448L119.779 541.448C106.599 541.448 100.009 541.448 94.6763 539.717C83.8979 536.22 75.4475 527.781 71.9454 517.017C70.2126 511.691 70.2126 505.11 70.2126 491.948L70.2126 118.052C70.2126 104.89 70.2126 98.3092 71.9455 92.9833C75.4476 82.2194 83.898 73.7804 94.6764 70.2829C100.009 68.5525 106.599 68.5525 119.779 68.5525L250.221 68.5525C263.401 68.5525 269.99 68.5525 275.323 70.283C286.102 73.7804 294.552 82.2194 298.054 92.9833Z" fill="#EFEFEF"/>
<path d="M297.574 117.168C297.574 104.829 297.574 98.6591 295.95 93.6661C292.666 83.575 284.744 75.6633 274.639 72.3845C269.64 70.7622 263.462 70.7622 251.106 70.7622L118.893 70.7622C106.538 70.7622 100.36 70.7622 95.36 72.3845C85.2553 75.6633 77.333 83.5749 74.0498 93.6661C72.4253 98.6591 72.4253 104.829 72.4253 117.168L72.4252 492.832C72.4252 505.171 72.4252 511.341 74.0498 516.334C77.333 526.425 85.2553 534.337 95.36 537.615C100.36 539.238 106.538 539.238 118.893 539.238L251.106 539.238C263.462 539.238 269.64 539.238 274.639 537.615C284.744 534.337 292.666 526.425 295.95 516.334C297.574 511.341 297.574 505.171 297.574 492.832L297.574 117.168Z" fill="#121515"/>
<path d="M118.894 68L115.574 68L115.574 70.7622L118.894 70.7622L118.894 68Z" fill="#36454C"/>
<path d="M72.4258 115.51L69.6598 115.51L69.6598 118.825L72.4258 118.825L72.4258 115.51Z" fill="#36454C"/>
<path d="M300.341 115.51L297.575 115.51L297.575 118.825L300.341 118.825L300.341 115.51Z" fill="#36454C"/>
<path d="M300.341 491.175L297.575 491.175L297.575 494.489L300.341 494.489L300.341 491.175Z" fill="#36454C"/>
<path d="M72.4258 491.175L69.6598 491.175L69.6598 494.489L72.4258 494.489L72.4258 491.175Z" fill="#36454C"/>
<path d="M254.426 539.238L251.107 539.238L251.107 542L254.426 542L254.426 539.238Z" fill="#36454C"/>
<path fill-rule="evenodd" clip-rule="evenodd" d="M163.702 88.4406C161.563 88.4406 159.83 86.7092 159.83 84.5734C159.83 82.4377 161.563 80.7063 163.702 80.7063C165.841 80.7063 167.574 82.4377 167.574 84.5734C167.574 86.7092 165.841 88.4406 163.702 88.4406Z" fill="#262C2D"/>
<path fill-rule="evenodd" clip-rule="evenodd" d="M163.702 86.9904C162.365 86.9904 161.282 85.9083 161.282 84.5735C161.282 83.2386 162.365 82.1565 163.702 82.1565C165.039 82.1565 166.122 83.2386 166.122 84.5735C166.122 85.9083 165.039 86.9904 163.702 86.9904Z" fill="#121515"/>
<path opacity="0.4" fill-rule="evenodd" clip-rule="evenodd" d="M163.702 84.0901C163.434 84.0901 163.217 83.8737 163.217 83.6067C163.217 83.3397 163.434 83.1233 163.702 83.1233C163.969 83.1233 164.186 83.3397 164.186 83.6067C164.186 83.8737 163.969 84.0901 163.702 84.0901Z" fill="#636F73"/>
<path fill-rule="evenodd" clip-rule="evenodd" d="M196.894 84.5734C196.894 83.658 196.152 82.916 195.236 82.916L174.764 82.916C173.848 82.916 173.106 83.658 173.106 84.5734V84.5734C173.106 85.4887 173.848 86.2307 174.764 86.2307L195.236 86.2307C196.152 86.2307 196.894 85.4887 196.894 84.5734V84.5734Z" fill="#262C2D"/>
</g>
<g filter="url(#filter1_d_1938_6601)">
<path d="M386.66 201.689L385.83 201.689C385.372 201.689 385 202.056 385 202.509L385 251.705C385 252.158 385.372 252.525 385.83 252.525L386.66 252.525L386.66 201.689Z" fill="#213744"/>
<path d="M617.34 263.457L618.17 263.457C618.628 263.457 619 263.09 619 262.637L619 232.026C619 231.574 618.628 231.206 618.17 231.206L617.34 231.206L617.34 263.457Z" fill="#213744"/>
<path d="M617.34 222.46L618.17 222.46C618.628 222.46 619 222.093 619 221.641L619 191.03C619 190.577 618.628 190.21 618.17 190.21L617.34 190.21L617.34 222.46Z" fill="#213744"/>
<path d="M617.34 175.998L618.17 175.998C618.628 175.998 619 175.63 619 175.178L619 161.512C619 161.059 618.628 160.692 618.17 160.692L617.34 160.692L617.34 175.998Z" fill="#213744"/>
<path d="M617.34 120.242C617.34 107.016 617.34 100.403 615.58 95.0508C612.024 84.2341 603.441 75.7536 592.494 72.239C587.078 70.5 580.385 70.5 567 70.5L437 70.5C423.615 70.5 416.922 70.5 411.505 72.239C400.559 75.7535 391.976 84.234 388.419 95.0508C386.659 100.403 386.659 107.016 386.659 120.242L386.659 489.758C386.659 502.984 386.659 509.597 388.419 514.949C391.976 525.766 400.559 534.246 411.505 537.761C416.922 539.5 423.614 539.5 437 539.5L567 539.5C580.385 539.5 587.078 539.5 592.494 537.761C603.441 534.246 612.024 525.766 615.58 514.949C617.34 509.597 617.34 502.984 617.34 489.758L617.34 120.242Z" fill="#404040"/>
<path fill-rule="evenodd" clip-rule="evenodd" d="M436.779 71.5932L567.221 71.5932C580.444 71.5932 586.924 71.6 592.152 73.2787C602.762 76.6852 611.081 84.9047 614.528 95.3887C616.227 100.555 616.234 106.958 616.234 120.024L616.234 489.976C616.234 503.042 616.227 509.445 614.528 514.611C611.081 525.095 602.762 533.315 592.152 536.721C586.924 538.4 580.444 538.407 567.221 538.407L436.779 538.407C423.556 538.407 417.076 538.4 411.847 536.721C401.237 533.315 392.919 525.095 389.472 514.611C387.773 509.445 387.766 503.042 387.766 489.976L387.766 120.024C387.766 106.958 387.773 100.555 389.472 95.3887C392.919 84.9047 401.237 76.6851 411.847 73.2787C417.076 71.6 423.556 71.5932 436.779 71.5932ZM615.054 95.2198C616.787 100.489 616.787 107.001 616.787 120.024L616.787 489.976C616.787 502.999 616.787 509.511 615.054 514.78C611.552 525.431 603.102 533.781 592.323 537.241C586.99 538.953 580.401 538.953 567.221 538.953L436.779 538.953C423.599 538.953 417.009 538.953 411.676 537.241C400.898 533.781 392.448 525.431 388.945 514.78C387.213 509.511 387.213 502.999 387.213 489.976L387.213 120.024C387.213 107.001 387.213 100.489 388.945 95.2197C392.448 84.5694 400.898 76.2193 411.676 72.7588C417.009 71.0466 423.599 71.0466 436.779 71.0466L567.221 71.0466C580.401 71.0466 586.99 71.0466 592.323 72.7589C603.102 76.2194 611.552 84.5694 615.054 95.2198Z" fill="#EFEFEF"/>
<path d="M614.575 119.149C614.575 106.94 614.575 100.836 612.95 95.8955C609.667 85.9108 601.745 78.0826 591.64 74.8384C586.64 73.2332 580.462 73.2332 568.107 73.2332L435.894 73.2331C423.538 73.2331 417.36 73.2331 412.361 74.8383C402.256 78.0826 394.334 85.9107 391.05 95.8954C389.426 100.836 389.426 106.94 389.426 119.149L389.426 490.851C389.426 503.06 389.426 509.164 391.05 514.105C394.333 524.089 402.256 531.918 412.36 535.162C417.36 536.767 423.538 536.767 435.894 536.767L568.107 536.767C580.462 536.767 586.64 536.767 591.64 535.162C601.745 531.918 609.667 524.089 612.95 514.105C614.575 509.164 614.575 503.06 614.575 490.851L614.575 119.149Z" fill="#121515"/>
<path d="M435.894 70.5L432.574 70.5L432.574 73.2331L435.894 73.2331L435.894 70.5Z" fill="#36454C"/>
<path d="M389.425 117.509L386.659 117.509L386.659 120.789L389.425 120.789L389.425 117.509Z" fill="#36454C"/>
<path d="M617.34 117.509L614.574 117.509L614.574 120.789L617.34 120.789L617.34 117.509Z" fill="#36454C"/>
<path d="M617.34 489.211L614.574 489.211L614.574 492.491L617.34 492.491L617.34 489.211Z" fill="#36454C"/>
<path d="M389.425 489.211L386.659 489.211L386.659 492.491L389.425 492.491L389.425 489.211Z" fill="#36454C"/>
<path d="M571.425 536.767L568.106 536.767L568.106 539.5L571.425 539.5L571.425 536.767Z" fill="#36454C"/>
<path fill-rule="evenodd" clip-rule="evenodd" d="M480.702 90.7249C478.563 90.7249 476.83 89.0118 476.83 86.8986C476.83 84.7854 478.563 83.0723 480.702 83.0723C482.841 83.0723 484.574 84.7854 484.574 86.8986C484.574 89.0118 482.841 90.7249 480.702 90.7249Z" fill="#262C2D"/>
<path fill-rule="evenodd" clip-rule="evenodd" d="M480.702 89.29C479.365 89.29 478.282 88.2193 478.282 86.8985C478.282 85.5778 479.365 84.5071 480.702 84.5071C482.039 84.5071 483.122 85.5778 483.122 86.8985C483.122 88.2193 482.039 89.29 480.702 89.29Z" fill="#121515"/>
<path opacity="0.4" fill-rule="evenodd" clip-rule="evenodd" d="M480.702 86.4202C480.435 86.4202 480.218 86.2061 480.218 85.9419C480.218 85.6778 480.435 85.4636 480.702 85.4636C480.969 85.4636 481.186 85.6778 481.186 85.9419C481.186 86.2061 480.969 86.4202 480.702 86.4202Z" fill="#636F73"/>
<path fill-rule="evenodd" clip-rule="evenodd" d="M513.894 86.8986C513.894 85.993 513.159 85.2588 512.254 85.2588L491.746 85.2588C490.841 85.2588 490.106 85.993 490.106 86.8986V86.8986C490.106 87.8043 490.841 88.5385 491.746 88.5385L512.254 88.5385C513.159 88.5385 513.894 87.8043 513.894 86.8986V86.8986Z" fill="#262C2D"/>
</g>
<defs>
<filter id="filter0_d_1938_6601" x="0.183163" y="0.183163" width="437.451" height="677.451" filterUnits="userSpaceOnUse" color-interpolation-filters="sRGB">
<feFlood flood-opacity="0" result="BackgroundImageFix"/>
<feColorMatrix in="SourceAlpha" type="matrix" values="0 0 0 0 0 0 0 0 0 0 0 0 0 0 0 0 0 0 127 0" result="hardAlpha"/>
<feOffset dx="33.9084" dy="33.9084"/>
<feGaussianBlur stdDeviation="50.8626"/>
<feComposite in2="hardAlpha" operator="out"/>
<feColorMatrix type="matrix" values="0 0 0 0 0.0875 0 0 0 0 0.0667187 0 0 0 0 0.0667187 0 0 0 0.2 0"/>
<feBlend mode="normal" in2="BackgroundImageFix" result="effect1_dropShadow_1938_6601"/>
<feBlend mode="normal" in="SourceGraphic" in2="effect1_dropShadow_1938_6601" result="shape"/>
</filter>
<filter id="filter1_d_1938_6601" x="317.183" y="2.68316" width="437.451" height="672.451" filterUnits="userSpaceOnUse" color-interpolation-filters="sRGB">
<feFlood flood-opacity="0" result="BackgroundImageFix"/>
<feColorMatrix in="SourceAlpha" type="matrix" values="0 0 0 0 0 0 0 0 0 0 0 0 0 0 0 0 0 0 127 0" result="hardAlpha"/>
<feOffset dx="33.9084" dy="33.9084"/>
<feGaussianBlur stdDeviation="50.8626"/>
<feComposite in2="hardAlpha" operator="out"/>
<feColorMatrix type="matrix" values="0 0 0 0 0.0875 0 0 0 0 0.0667187 0 0 0 0 0.0667187 0 0 0 0.2 0"/>
<feBlend mode="normal" in2="BackgroundImageFix" result="effect1_dropShadow_1938_6601"/>
<feBlend mode="normal" in="SourceGraphic" in2="effect1_dropShadow_1938_6601" result="shape"/>
</filter>
</defs>
</svg>
