<svg width="39" height="50" viewBox="0 0 39 50" fill="none" xmlns="http://www.w3.org/2000/svg">
<path d="M13.317 26.3372C13.2414 25.5739 12.9039 24.8564 12.3567 24.3092C11.8096 23.7621 11.0921 23.4246 10.3287 23.3489L9.99997 23.3327C9.11592 23.3327 8.26833 23.6841 7.64321 24.3092C7.01809 24.9343 6.66665 25.7819 6.66665 26.666V33.3326H13.3333V26.666L13.317 26.3372ZM26.6666 46.6659V19.9993C26.6666 18.1584 28.159 16.666 29.9999 16.666C31.8409 16.666 33.3332 18.1584 33.3332 19.9993V46.6659C33.3332 48.5069 31.8409 49.9993 29.9999 49.9993C28.159 49.9993 26.6666 48.5069 26.6666 46.6659ZM19.9999 46.6659C19.9999 48.5069 18.5076 49.9993 16.6666 49.9993C14.8257 49.9993 13.3333 48.5069 13.3333 46.6659V39.9993H6.66665V46.6659C6.66665 48.5069 5.17427 49.9993 3.33332 49.9993C1.49238 49.9993 0 48.5069 0 46.6659V26.666C0 24.0138 1.05432 21.4711 2.92968 19.5957C4.80504 17.7203 7.34781 16.666 9.99997 16.666L10.9896 16.7148C13.2783 16.9424 15.4296 17.955 17.0703 19.5957C18.9456 21.4711 19.9999 24.0138 19.9999 26.666V46.6659Z" fill="#00A19B"/>
<path d="M27.5 5L29.5 1.5L31.5 5L35.5 7.5L32 9L29.5 13.5L27 9.5L23.5 7.5L27.5 5Z" fill="#E66900"/>
<path d="M27.8436 13.7146C28.342 15.1729 30.357 15.2171 30.9478 13.8471L30.9978 13.7137L31.6703 11.7471C31.8244 11.296 32.0735 10.8833 32.4006 10.5367C32.7278 10.1901 33.1255 9.91773 33.567 9.73791L33.7478 9.67041L35.7144 8.99875C37.1728 8.50041 37.2169 6.48542 35.8478 5.89459L35.7144 5.84459L33.7478 5.17209C33.2966 5.01807 32.8837 4.76907 32.537 4.44188C32.1902 4.11468 31.9177 3.71692 31.7378 3.27543L31.6703 3.09543L30.9986 1.12793C30.5003 -0.330395 28.4853 -0.374562 27.8953 0.994601L27.8436 1.12793L27.172 3.0946C27.018 3.54578 26.7689 3.95867 26.4418 4.30541C26.1146 4.65215 25.7168 4.92468 25.2753 5.10459L25.0953 5.17209L23.1286 5.84375C21.6695 6.34209 21.6253 8.35708 22.9953 8.94708L23.1286 8.99875L25.0953 9.67041C25.5463 9.82453 25.9591 10.0736 26.3057 10.4008C26.6522 10.728 26.9246 11.1257 27.1045 11.5671L27.172 11.7471L27.8436 13.7146ZM29.4211 13.1762L28.7495 11.2096C28.5148 10.5218 28.133 9.89349 27.6307 9.36833C27.1285 8.84317 26.5178 8.43381 25.8411 8.16875L25.6328 8.09291L23.6661 7.42125L25.6328 6.74959C26.3206 6.51491 26.9489 6.13314 27.474 5.63087C27.9992 5.12859 28.4086 4.51788 28.6736 3.84126L28.7495 3.63293L29.4211 1.66627L30.0928 3.63293C30.3275 4.32068 30.7092 4.94901 31.2115 5.47417C31.7138 5.99933 32.3245 6.40869 33.0011 6.67375L33.2095 6.74875L35.1761 7.42125L33.2095 8.09291C32.5217 8.32759 31.8934 8.70936 31.3682 9.21163C30.8431 9.71391 30.4337 10.3246 30.1686 11.0012L30.0936 11.2096L29.4211 13.1762ZM36.0878 16.5879C36.2437 16.5879 36.3965 16.5442 36.5287 16.4617C36.661 16.3792 36.7675 16.2612 36.8361 16.1212L36.8761 16.0237L37.1678 15.1687L38.0236 14.8771C38.1798 14.824 38.3168 14.7257 38.4171 14.5947C38.5175 14.4637 38.5766 14.3059 38.5872 14.1412C38.5977 13.9765 38.5591 13.8125 38.4763 13.6697C38.3935 13.527 38.2701 13.4121 38.1219 13.3396L38.0236 13.2996L37.1686 13.0079L36.8769 12.1521C36.8238 11.9959 36.7254 11.859 36.5944 11.7587C36.4633 11.6585 36.3055 11.5994 36.1408 11.589C35.9761 11.5785 35.8121 11.6172 35.6694 11.7001C35.5268 11.783 35.4119 11.9063 35.3394 12.0546L35.2994 12.1521L35.0078 13.0071L34.1519 13.2987C33.9957 13.3518 33.8588 13.4501 33.7584 13.5811C33.6581 13.7121 33.5989 13.8699 33.5884 14.0346C33.5779 14.1993 33.6164 14.3633 33.6993 14.5061C33.7821 14.6488 33.9054 14.7637 34.0536 14.8362L34.1519 14.8762L35.0069 15.1679L35.2986 16.0237C35.3548 16.1884 35.4611 16.3313 35.6026 16.4325C35.7442 16.5336 35.9138 16.588 36.0878 16.5879Z" fill="#00A19B"/>
</svg>
