<svg width="320" height="1071" viewBox="0 0 320 1071" fill="none" xmlns="http://www.w3.org/2000/svg">
<g clip-path="url(#clip0_1242_8477)">
<path fill-rule="evenodd" clip-rule="evenodd" d="M366.226 773.517C346.58 786.57 340.819 817.818 316.555 820.17C293.888 822.366 279.295 798.155 263.328 783.49C248.694 770.048 228.998 757.259 227.601 738.466C226.214 719.805 251.164 708.098 256.38 689.994C261.795 671.203 244.98 648.413 258.006 632.95C270.728 617.846 296.735 614.104 317.426 617.523C336.767 620.72 344.189 643.583 362.427 650.207C381.839 657.257 411.867 640.459 423.596 656.082C435.247 671.602 408.371 690.314 406.551 708.983C404.999 724.905 422.609 741.562 413.907 755.489C405.274 769.306 380.387 764.109 366.226 773.517Z" fill="#DFF5ED"/>
<path fill-rule="evenodd" clip-rule="evenodd" d="M226.265 231.196C212.221 240.527 208.102 262.865 190.757 264.546C174.554 266.116 164.121 248.808 152.708 238.325C142.246 228.716 128.166 219.574 127.168 206.14C126.177 192.8 144.012 184.431 147.741 171.489C151.612 158.056 139.591 141.765 148.903 130.711C157.998 119.914 176.589 117.239 191.38 119.683C205.206 121.968 210.512 138.312 223.549 143.047C237.425 148.087 258.892 136.079 267.276 147.247C275.605 158.341 256.392 171.718 255.091 185.064C253.982 196.446 266.571 208.353 260.35 218.309C254.178 228.185 236.388 224.471 226.265 231.196Z" fill="#DFF5ED"/>
<path fill-rule="evenodd" clip-rule="evenodd" d="M54.8895 637.119C24.384 642.746 -4.33279 635.088 -34.3519 627.625C-68.6427 619.101 -113.688 620.465 -128.835 591.446C-143.986 562.419 -109.798 533.438 -99.5477 502.72C-88.0944 468.397 -98.8361 424.217 -66.2029 403.749C-31.7802 382.159 18.9315 386.311 54.7887 405.92C86.9604 423.514 82.0553 465.138 100.306 494.806C121.444 529.168 180.241 552.505 168.191 590.263C156.247 627.691 97.2082 629.313 54.8895 637.119Z" fill="#F4EC9A"/>
<path fill-rule="evenodd" clip-rule="evenodd" d="M71.2759 445.37C51.2728 449.059 32.4426 444.038 12.7585 439.144C-9.72674 433.555 -39.2641 434.449 -49.1963 415.421C-59.1312 396.387 -36.7132 377.384 -29.9919 357.242C-22.4817 334.735 -29.5252 305.765 -8.127 292.344C14.4447 278.187 47.6975 280.91 71.2098 293.768C92.3055 305.304 89.0891 332.598 101.057 352.052C114.917 374.584 153.472 389.886 145.57 414.645C137.738 439.187 99.0252 440.251 71.2759 445.37Z" fill="#B3E5ED"/>
<path fill-rule="evenodd" clip-rule="evenodd" d="M188.825 908.37C168.822 912.059 149.991 907.038 130.307 902.144C107.822 896.555 78.2847 897.449 68.3525 878.421C58.4176 859.387 80.8356 840.384 87.5569 820.242C95.0671 797.735 88.0236 768.765 109.422 755.344C131.994 741.187 165.246 743.91 188.759 756.768C209.854 768.304 206.638 795.598 218.605 815.052C232.466 837.584 271.021 852.886 263.119 877.645C255.287 902.187 216.574 903.251 188.825 908.37Z" fill="#B3E5ED"/>
<path fill-rule="evenodd" clip-rule="evenodd" d="M253.443 320.079C240.801 309.075 226.859 301.595 215.872 288.731C201.475 271.874 182.262 250.661 182.13 236.581C181.998 222.504 205.308 231.628 215.29 226.566C224.523 221.884 225.387 207.42 238.325 208.081C252.111 208.785 270.156 218.116 287.062 230.232C304.328 242.606 324.963 258.769 333.805 276.509C342.904 294.764 332.301 303.66 330.149 316.679C328.865 324.45 323.59 328.745 323.728 337.482C323.951 351.636 342.839 380.028 331.194 382.969C320.166 385.755 299.532 360.566 283.543 347.632C272.95 339.063 263.849 329.135 253.443 320.079Z" fill="#E7D2D4"/>
<path fill-rule="evenodd" clip-rule="evenodd" d="M308.332 212.525C292.369 215.469 277.342 211.462 261.634 207.557C243.69 203.096 220.118 203.81 212.192 188.625C204.264 173.436 222.154 158.271 227.518 142.197C233.511 124.236 227.89 101.117 244.967 90.4071C262.979 79.1095 289.516 81.2822 308.279 91.5431C325.114 100.749 322.547 122.531 332.097 138.055C343.158 156.036 373.926 168.248 367.62 188.006C361.37 207.591 330.476 208.44 308.332 212.525Z" fill="#F4EC9A"/>
</g>
<defs>
<clipPath id="clip0_1242_8477">
<rect width="320" height="1071" fill="white"/>
</clipPath>
</defs>
</svg>
