<svg width="1282" height="1218" viewBox="0 0 1282 1218" fill="none" xmlns="http://www.w3.org/2000/svg">
<g clip-path="url(#clip0_1240_8347)">
<path fill-rule="evenodd" clip-rule="evenodd" d="M333.762 642.238C294.351 668.423 282.793 731.109 234.117 735.827C188.645 740.234 159.369 691.663 127.339 662.244C97.9812 635.279 58.4687 609.623 55.6669 571.922C52.8849 534.487 102.936 511 113.4 474.684C124.263 436.986 90.5305 391.268 116.662 360.246C142.185 329.946 194.356 322.44 235.865 329.3C274.664 335.712 289.554 381.578 326.14 394.866C365.082 409.009 425.323 375.31 448.851 406.652C472.224 437.786 418.308 475.324 414.658 512.777C411.545 544.718 446.872 578.134 429.414 606.073C412.095 633.789 362.17 623.364 333.762 642.238Z" fill="#DFF5ED"/>
<path fill-rule="evenodd" clip-rule="evenodd" d="M115.473 825.76C75.0052 833.225 36.9107 823.065 -2.91138 813.166C-48.4001 801.858 -108.156 803.668 -128.249 765.172C-148.348 726.666 -102.995 688.221 -89.3975 647.472C-74.2041 601.94 -88.4535 543.333 -45.1637 516.181C0.500039 487.541 67.7722 493.049 115.339 519.061C158.017 542.4 151.51 597.617 175.72 636.973C203.762 682.557 281.759 713.514 265.774 763.603C249.929 813.253 171.611 815.404 115.473 825.76Z" fill="#F4EC9A"/>
<path fill-rule="evenodd" clip-rule="evenodd" d="M1239.59 260.77C1283.37 302.43 1304.16 356.474 1326.75 412.348C1352.55 476.172 1406.26 545.637 1377.84 602.731C1349.41 659.841 1264.58 639.102 1204.42 658.095C1137.19 679.317 1079.82 746.817 1010.2 718.786C936.764 689.219 885.273 604.506 875.154 525.526C866.076 454.664 937.322 414.76 963.214 352.03C993.202 279.374 962.708 159.957 1036.03 135.744C1108.72 111.743 1178.84 202.977 1239.59 260.77Z" fill="#B3E5ED"/>
<path fill-rule="evenodd" clip-rule="evenodd" d="M1188.13 482.348C1164.58 464.031 1139.06 452.105 1118.26 430.318C1091.01 401.768 1054.78 365.948 1053.16 340.932C1051.54 315.923 1093.87 329.851 1111.12 319.872C1127.07 310.641 1127.19 284.846 1150.25 284.749C1174.82 284.646 1207.82 299.459 1239.06 319.335C1270.97 339.634 1309.24 366.336 1326.7 397.002C1344.66 428.557 1326.69 445.412 1324.15 468.766C1322.63 482.706 1313.67 490.859 1314.78 506.377C1316.56 531.515 1352.93 580.128 1332.52 586.501C1313.19 592.536 1274.03 549.788 1244.34 528.368C1224.67 514.178 1207.51 497.425 1188.13 482.348Z" fill="#E7D2D4"/>
<path fill-rule="evenodd" clip-rule="evenodd" d="M1513.71 587.703C1522.1 633.151 1510.69 675.934 1499.57 720.658C1486.87 771.745 1488.9 838.855 1445.67 861.422C1402.42 883.994 1359.25 833.059 1313.48 817.788C1262.35 800.725 1196.52 816.728 1166.03 768.11C1133.87 716.826 1140.05 641.275 1169.27 587.853C1195.48 539.923 1257.49 547.231 1301.69 520.04C1352.88 488.548 1387.65 400.951 1443.91 418.903C1499.67 436.698 1502.08 524.656 1513.71 587.703Z" fill="#F4EC9A"/>
<path fill-rule="evenodd" clip-rule="evenodd" d="M69.2106 523.691C42.6753 528.586 17.6959 521.924 -8.41627 515.433C-38.2442 508.018 -77.4273 509.205 -90.603 483.962C-103.782 458.713 -74.0434 433.504 -65.1271 406.784C-55.1645 376.928 -64.5081 338.497 -36.1221 320.693C-6.17935 301.913 37.9325 305.525 69.123 322.582C97.1076 337.885 92.8409 374.093 108.716 399.9C127.104 429.789 178.248 450.089 167.767 482.933C157.377 515.49 106.022 516.901 69.2106 523.691Z" fill="#B3E5ED"/>
<path fill-rule="evenodd" clip-rule="evenodd" d="M704.652 949.721C671.161 971.972 661.339 1025.24 619.974 1029.25C581.333 1033 556.454 991.721 529.235 966.721C504.287 943.807 470.71 922.004 468.329 889.966C465.964 858.154 508.497 838.195 517.39 807.333C526.621 775.298 497.955 736.448 520.161 710.086C541.851 684.337 586.186 677.958 621.459 683.787C654.431 689.236 667.084 728.213 698.175 739.505C731.268 751.523 782.46 722.887 802.454 749.52C822.316 775.978 776.499 807.878 773.397 839.705C770.751 866.848 800.772 895.245 785.937 918.987C771.219 942.541 728.793 933.681 704.652 949.721Z" fill="#DFF5ED"/>
<path fill-rule="evenodd" clip-rule="evenodd" d="M837.904 1092.48C805.219 1095.87 772.214 1081.4 737.805 1067.01C698.501 1050.58 649.037 1046.12 627.317 1004.44C605.59 962.746 638.308 928.037 644.315 887.602C651.027 842.42 631.55 780.689 664.021 757.367C698.273 732.765 754.94 745.54 797.886 777.301C836.418 805.797 838.191 861.85 863.448 904.852C892.701 954.659 961.6 994.719 954.822 1044.5C948.105 1093.84 883.247 1087.77 837.904 1092.48Z" fill="#F4EC9A"/>
</g>
<defs>
<clipPath id="clip0_1240_8347">
<rect width="1282" height="1218" fill="white"/>
</clipPath>
</defs>
</svg>
