<svg width="65" height="65" viewBox="0 0 65 65" fill="none" xmlns="http://www.w3.org/2000/svg">
<path d="M48.3667 0H16.6333C14.9276 0.000362762 13.2558 0.476643 11.806 1.37527C10.3562 2.27389 9.18587 3.55922 8.42667 5.08667C8.35924 5.23238 8.30242 5.38277 8.25667 5.53667L1.04667 31.69C0.353435 34.215 0.00141918 36.8215 0 39.44V55.8333C0 58.2645 0.965771 60.5961 2.68485 62.3151C4.40394 64.0342 6.73552 65 9.16667 65H55.8333C58.2645 65 60.5961 64.0342 62.3151 62.3151C64.0342 60.5961 65 58.2645 65 55.8333V39.44C64.9986 36.8215 64.6466 34.215 63.9533 31.69L56.7433 5.53667C56.6976 5.38277 56.6408 5.23238 56.5733 5.08667C55.8141 3.55922 54.6438 2.27389 53.194 1.37527C51.7442 0.476643 50.0724 0.000362762 48.3667 0ZM49.4 38.3333H59.9733C59.9911 38.7 60 39.0689 60 39.44V55.8333C60 56.9384 59.561 57.9982 58.7796 58.7796C57.9982 59.561 56.9384 60 55.8333 60H9.16667C8.0616 60 7.00179 59.561 6.22039 58.7796C5.43899 57.9982 5 56.9384 5 55.8333V39.44C5 39.0733 5.00889 38.7044 5.02667 38.3333H15.6C16.9933 38.3333 18.2933 39.03 19.0667 40.19L21.7733 44.25C22.6102 45.5058 23.7442 46.5356 25.0747 47.2479C26.4051 47.9603 27.8909 48.3331 29.4 48.3333H35.6C38.6667 48.3333 41.5267 46.8 43.2267 44.25L45.9333 40.19C46.3137 39.6191 46.8291 39.1508 47.4338 38.827C48.0386 38.5031 48.714 38.3335 49.4 38.3333ZM34.32 10.7867L42.6533 19.63C42.8785 19.869 43.0545 20.15 43.1711 20.457C43.2877 20.764 43.3427 21.091 43.333 21.4192C43.3232 21.7475 43.2489 22.0706 43.1143 22.3702C42.9796 22.6697 42.7873 22.9398 42.5483 23.165C42.3093 23.3902 42.0283 23.5662 41.7213 23.6828C41.4143 23.7994 41.0873 23.8544 40.7591 23.8446C40.4308 23.8349 40.1077 23.7606 39.8082 23.6259C39.5086 23.4913 39.2385 23.299 39.0133 23.06L35.0033 18.8L35.01 32.5C35.01 33.163 34.7466 33.7989 34.2778 34.2678C33.8089 34.7366 33.173 35 32.51 35C31.847 35 31.2111 34.7366 30.7422 34.2678C30.2734 33.7989 30.01 33.163 30.01 32.5L30.0033 18.8L25.9867 23.06C25.5318 23.5427 24.9039 23.8249 24.2409 23.8446C23.578 23.8643 22.9344 23.6198 22.4517 23.165C21.969 22.7102 21.6867 22.0822 21.667 21.4192C21.6474 20.7563 21.8918 20.1127 22.3467 19.63L30.68 10.7867C30.9137 10.5385 31.1958 10.3407 31.5088 10.2055C31.8217 10.0703 32.1591 10.0006 32.5 10.0006C32.8409 10.0006 33.1783 10.0703 33.4912 10.2055C33.8042 10.3407 34.0863 10.5385 34.32 10.7867Z" fill="white"/>
</svg>
