<svg width="55" height="41" viewBox="0 0 55 41" fill="none" xmlns="http://www.w3.org/2000/svg">
<circle cx="37.0861" cy="10.2931" r="8.29311" fill="#E66900"/>
<path d="M27.516 28.155L21.1367 37.086V38.3619H51.1195L51.7574 35.1723L45.3781 28.7929L38.3609 26.2412L27.516 28.155Z" fill="#E66900"/>
<path d="M44.668 10.5385C44.3216 15.3615 40.7552 19.0769 36.866 19.0769C32.9768 19.0769 29.4044 15.3627 29.064 10.5385C28.7093 5.52093 32.1812 2 36.866 2C41.5507 2 45.0226 5.61225 44.668 10.5385Z" stroke="#00A19B" stroke-width="3" stroke-linecap="round" stroke-linejoin="round"/>
<path d="M36.8654 26.1924C29.4587 26.1924 22.3362 29.894 20.5518 37.1029C20.3154 38.0567 20.9098 39.0001 21.8838 39.0001H51.8481C52.8221 39.0001 53.413 38.0567 53.1801 37.1029C51.3957 29.7785 44.2732 26.1924 36.8654 26.1924Z" stroke="#00A19B" stroke-width="3" stroke-miterlimit="10"/>
<path d="M21.9049 12.6663C21.6231 16.2524 18.6865 19.0767 15.521 19.0767C12.3556 19.0767 9.41419 16.2535 9.13716 12.6663C8.84928 8.93547 11.7076 6.26904 15.521 6.26904C19.3345 6.26904 22.1928 9.00393 21.9049 12.6663Z" stroke="#00A19B" stroke-width="3" stroke-linecap="round" stroke-linejoin="round"/>
<path d="M21.9231 26.0447C19.8565 25.1237 17.5803 24.7695 15.1679 24.7695C9.21425 24.7695 3.47809 27.6483 2.04119 33.2555C1.85228 33.9972 2.33086 34.7311 3.114 34.7311H15.9694" stroke="#00A19B" stroke-width="3" stroke-miterlimit="10" stroke-linecap="round"/>
</svg>
