<svg width="1279" height="389" viewBox="0 0 1279 389" fill="none" xmlns="http://www.w3.org/2000/svg">
<g clip-path="url(#clip0_838_1872)">
<rect width="1279" height="389" fill="#7CA9C5"/>
<path fill-rule="evenodd" clip-rule="evenodd" d="M8.48134 534.45C-10.6232 494.309 -10.6734 451.717 -11.4777 407.394C-12.3965 356.764 -30.9938 294.915 3.55859 263.184C38.1203 231.444 90.9186 268.02 137.243 270.816C189.004 273.939 246.177 242.683 286.614 280.264C329.269 319.907 342.331 391.646 328.487 448.555C316.066 499.616 256.626 508.265 222.327 544.533C182.602 586.54 172.106 676.587 115.368 673.912C59.1271 671.26 34.9841 590.135 8.48134 534.45Z" fill="#F4EC9A"/>
<path fill-rule="evenodd" clip-rule="evenodd" d="M8.48134 290.45C-10.6232 250.309 -10.6734 207.717 -11.4777 163.394C-12.3965 112.764 -30.9938 50.9148 3.55859 19.1835C38.1203 -12.5564 90.9186 24.0204 137.243 26.8157C189.004 29.9392 246.177 -1.31731 286.614 36.2642C329.269 75.9067 342.331 147.646 328.487 204.555C316.066 255.616 256.626 264.265 222.327 300.533C182.602 342.54 172.106 432.587 115.368 429.912C59.1271 427.26 34.9841 346.135 8.48134 290.45Z" fill="#B3E5ED"/>
<path fill-rule="evenodd" clip-rule="evenodd" d="M325.481 527.45C306.377 487.309 306.327 444.717 305.522 400.394C304.604 349.764 286.006 287.915 320.559 256.184C355.12 224.444 407.919 261.02 454.243 263.816C506.004 266.939 563.178 235.683 603.615 273.264C646.269 312.907 659.331 384.646 645.487 441.555C633.066 492.615 573.626 501.265 539.328 537.533C499.602 579.54 489.106 669.587 432.368 666.912C376.127 664.26 351.984 583.135 325.481 527.45Z" fill="#B3E5ED"/>
<path fill-rule="evenodd" clip-rule="evenodd" d="M325.481 51.4501C306.377 11.3093 306.327 -31.2833 305.522 -75.606C304.604 -126.236 286.006 -188.085 320.559 -219.816C355.12 -251.556 407.919 -214.98 454.243 -212.184C506.004 -209.061 563.178 -240.317 603.614 -202.736C646.269 -163.093 659.331 -91.3542 645.487 -34.4447C633.066 16.6155 573.626 25.2648 539.327 61.5331C499.602 103.54 489.106 193.587 432.368 190.912C376.127 188.26 351.984 107.135 325.481 51.4501Z" fill="#B3E5ED"/>
<path fill-rule="evenodd" clip-rule="evenodd" d="M787.481 129.45C768.377 89.3093 768.327 46.7167 767.522 2.394C766.604 -48.2358 748.006 -110.085 782.559 -141.816C817.12 -173.556 869.919 -136.98 916.243 -134.184C968.004 -131.061 1025.18 -162.317 1065.61 -124.736C1108.27 -85.0933 1121.33 -13.3542 1107.49 43.5553C1095.07 94.6155 1035.63 103.265 1001.33 139.533C961.602 181.54 951.106 271.587 894.368 268.912C838.127 266.26 813.984 185.135 787.481 129.45Z" fill="#B3E5ED"/>
<path fill-rule="evenodd" clip-rule="evenodd" d="M1029.48 453.45C1010.38 413.309 1010.33 370.717 1009.52 326.394C1008.6 275.764 990.006 213.915 1024.56 182.184C1059.12 150.444 1111.92 187.02 1158.24 189.816C1210 192.939 1267.18 161.683 1307.61 199.264C1350.27 238.907 1363.33 310.646 1349.49 367.555C1337.07 418.616 1277.63 427.265 1243.33 463.533C1203.6 505.54 1193.11 595.587 1136.37 592.912C1080.13 590.26 1055.98 509.135 1029.48 453.45Z" fill="#B3E5ED"/>
<path fill-rule="evenodd" clip-rule="evenodd" d="M11.3579 402.178C-6.51072 371.904 -52.5603 360.852 -54.1366 324.554C-55.609 290.644 -18.4179 270.844 4.67353 248.244C25.839 227.529 46.4349 199.229 74.5151 198.641C102.398 198.056 117.845 236.117 144.374 245.315C171.912 254.864 207.163 231.645 229.145 252.257C250.616 272.39 254.123 311.392 247.393 341.916C241.103 370.447 206.486 379.682 195.182 406.3C183.151 434.631 205.771 480.655 181.589 496.872C157.567 512.981 131.849 471.498 104.207 467.31C80.6336 463.738 54.4465 488.627 34.4088 474.57C14.5305 460.626 24.2378 423.999 11.3579 402.178Z" fill="#DFF5ED"/>
<path fill-rule="evenodd" clip-rule="evenodd" d="M793.825 465.27C767.456 442.022 720.248 445.781 707.503 411.758C695.596 379.973 724.822 349.624 739.775 320.982C753.481 294.729 764.295 261.44 790.811 252.18C817.141 242.985 843.62 274.387 871.694 274.913C900.836 275.46 927.157 242.461 954.444 255.249C981.096 267.738 996.515 303.735 999.574 334.841C1002.43 363.918 972.381 383.423 969.88 412.233C967.219 442.898 1002.99 479.649 985.018 502.56C967.17 525.32 929.864 493.847 902.285 498.429C878.765 502.336 861.578 534.114 838.171 526.958C814.95 519.859 812.832 482.027 793.825 465.27Z" fill="#DFF5ED"/>
<path fill-rule="evenodd" clip-rule="evenodd" d="M550.825 321.27C524.455 298.022 477.248 301.781 464.502 267.758C452.596 235.973 481.822 205.624 496.775 176.982C510.481 150.729 521.295 117.44 547.811 108.18C574.141 98.9851 600.62 130.387 628.694 130.913C657.836 131.46 684.157 98.4614 711.444 111.249C738.096 123.738 753.515 159.735 756.574 190.841C759.433 219.918 729.381 239.423 726.88 268.233C724.219 298.898 759.986 335.649 742.018 358.56C724.17 381.32 686.864 349.847 659.285 354.429C635.765 358.336 618.578 390.114 595.171 382.958C571.95 375.859 569.832 338.027 550.825 321.27Z" fill="#DFF5ED"/>
<path fill-rule="evenodd" clip-rule="evenodd" d="M447.825 303.27C421.455 280.022 374.248 283.781 361.502 249.758C349.596 217.973 378.822 187.624 393.775 158.982C407.481 132.729 418.295 99.4399 444.811 90.1799C471.141 80.9851 497.62 112.387 525.694 112.913C554.836 113.46 581.157 80.4614 608.444 93.2487C635.096 105.738 650.515 141.735 653.574 172.841C656.433 201.918 626.381 221.423 623.88 250.233C621.219 280.898 656.986 317.649 639.018 340.56C621.17 363.32 583.864 331.847 556.285 336.429C532.765 340.336 515.578 372.114 492.171 364.958C468.95 357.859 466.832 320.027 447.825 303.27Z" fill="#DFF5ED"/>
<path fill-rule="evenodd" clip-rule="evenodd" d="M1153.82 232.27C1127.46 209.022 1080.25 212.781 1067.5 178.758C1055.6 146.973 1084.82 116.624 1099.78 87.9818C1113.48 61.7285 1124.3 28.4399 1150.81 19.1799C1177.14 9.98509 1203.62 41.3868 1231.69 41.9133C1260.84 42.4598 1287.16 9.46138 1314.44 22.2487C1341.1 34.7385 1356.51 70.7346 1359.57 101.841C1362.43 130.918 1332.38 150.423 1329.88 179.233C1327.22 209.898 1362.99 246.649 1345.02 269.56C1327.17 292.32 1289.86 260.847 1262.29 265.429C1238.76 269.336 1221.58 301.114 1198.17 293.958C1174.95 286.859 1172.83 249.027 1153.82 232.27Z" fill="#DFF5ED"/>
<path fill-rule="evenodd" clip-rule="evenodd" d="M68.747 21.1733C83.3846 37.5268 100.284 49.5125 112.469 68.0145C128.435 92.2589 149.952 122.947 147.834 141.264C145.717 159.576 116.911 143.93 103.118 148.885C90.3597 153.468 86.8852 172.121 70.1809 169.158C52.3828 166.002 30.4529 150.944 10.4555 132.451C-9.96779 113.565 -34.1529 89.2093 -42.7577 64.7205C-51.6122 39.5212 -36.3883 29.686 -31.4754 13.1191C-28.5431 3.23067 -20.9909 -1.49261 -19.7492 -12.868C-17.7377 -31.2958 -37.6644 -71.2589 -22.0545 -73.1874C-7.27202 -75.0137 15.443 -38.9285 34.1166 -19.5229C46.4877 -6.66691 56.6994 7.71329 68.747 21.1733Z" fill="#E7D2D4"/>
<path fill-rule="evenodd" clip-rule="evenodd" d="M1202.58 25.3461C1187.67 41.4575 1177.33 59.41 1160.06 73.2817C1137.42 91.4587 1108.9 115.768 1090.46 115.383C1072.03 114.998 1084.9 84.8478 1078.67 71.5821C1072.9 59.3116 1054.01 57.6077 1055.38 40.6988C1056.85 22.6826 1069.78 -0.566995 1086.31 -22.2157C1103.19 -44.3255 1125.16 -70.6952 1148.73 -81.5662C1172.98 -92.7527 1184.21 -78.5217 1201.16 -75.1896C1211.28 -73.2007 1216.7 -66.1265 1228.14 -65.9608C1246.67 -65.6922 1284.59 -89.291 1287.97 -73.9318C1291.18 -59.3868 1257.4 -33.377 1239.83 -12.9602C1228.2 0.565774 1214.84 12.0853 1202.58 25.3461Z" fill="#E7D2D4"/>
<path fill-rule="evenodd" clip-rule="evenodd" d="M889.918 187.917C904.555 204.271 921.455 216.257 933.64 234.759C949.606 259.003 905.704 315.813 903.586 334.13C901.468 352.441 872.663 336.796 858.87 341.75C846.111 346.334 842.637 364.987 825.932 362.024C808.134 358.868 786.204 343.809 766.207 325.317C745.784 306.431 721.599 282.075 712.994 257.586C704.139 232.387 719.363 222.552 724.276 205.985C727.208 196.096 734.761 191.373 736.002 179.998C738.014 161.57 704.64 145.759 733.697 119.678C766.207 82.7587 823.966 66.853 842.64 86.2586C855.011 99.1146 877.87 174.457 889.918 187.917Z" fill="#E7D2D4"/>
<path fill-rule="evenodd" clip-rule="evenodd" d="M1328.92 248.917C1343.56 265.271 1360.45 277.257 1372.64 295.759C1388.61 320.003 1344.7 376.813 1342.59 395.13C1340.47 413.441 1311.66 397.796 1297.87 402.75C1285.11 407.334 1281.64 425.987 1264.93 423.024C1247.13 419.868 1225.2 404.809 1205.21 386.317C1184.78 367.431 1160.6 343.075 1151.99 318.586C1143.14 293.387 1158.36 283.552 1163.28 266.985C1166.21 257.096 1173.76 252.373 1175 240.998C1177.01 222.57 1143.64 206.759 1172.7 180.678C1205.21 143.759 1262.97 127.853 1281.64 147.259C1294.01 160.115 1316.87 235.457 1328.92 248.917Z" fill="#E7D2D4"/>
<path fill-rule="evenodd" clip-rule="evenodd" d="M200.3 198.059C191.652 196.576 185.64 186.518 176.832 186.996C159.91 187.915 142.863 211.222 128.503 201.958C116.429 194.168 125.232 171.258 128.645 155.908C131.34 143.79 144.23 136.45 145.805 124.139C148.75 101.123 130.648 76.8719 141.358 56.538C151.402 37.4699 176.362 24.6218 195.086 30.5773C214.807 36.85 213.092 71.2639 229.492 84.5714C244.942 97.1083 277.448 82.5922 283.891 102.638C290.453 123.053 262.798 139.157 253.363 158.841C247.284 171.526 249.234 189.546 238.4 197.553C227.448 205.648 213.031 200.242 200.3 198.059Z" fill="#7CA9C5"/>
<path fill-rule="evenodd" clip-rule="evenodd" d="M648.3 323.059C639.652 321.576 633.64 311.518 624.832 311.996C607.91 312.915 590.863 336.222 576.503 326.958C564.429 319.168 573.232 296.258 576.645 280.908C579.34 268.79 592.23 261.45 593.805 249.139C596.75 226.123 578.648 201.872 589.358 181.538C599.402 162.47 624.362 149.622 643.086 155.577C662.807 161.85 661.092 196.264 677.492 209.571C692.942 222.108 725.448 207.592 731.891 227.638C738.453 248.053 710.798 264.157 701.363 283.841C695.284 296.526 697.234 314.546 686.4 322.553C675.448 330.648 661.031 325.242 648.3 323.059Z" fill="#7CA9C5"/>
<path fill-rule="evenodd" clip-rule="evenodd" d="M646.969 423.968C636.649 402.284 636.622 379.275 636.187 355.332C635.691 327.981 625.644 294.57 644.31 277.429C662.98 260.283 691.502 280.042 716.527 281.552C744.488 283.239 775.374 266.354 797.218 286.656C820.26 308.071 827.316 346.825 819.838 377.567C813.128 405.15 781.018 409.823 762.49 429.415C741.03 452.107 735.36 500.751 704.71 499.306C674.328 497.873 661.286 454.05 646.969 423.968Z" fill="#F4EC9A"/>
<path fill-rule="evenodd" clip-rule="evenodd" d="M297.969 93.9682C287.649 72.2839 287.622 49.2752 287.187 25.3319C286.691 -2.01855 276.644 -35.4298 295.31 -52.5713C313.98 -69.7173 342.502 -49.9584 367.527 -48.4483C395.488 -46.761 426.374 -63.6459 448.218 -43.3442C471.26 -21.9292 478.316 16.8247 470.838 47.5674C464.128 75.1504 432.018 79.8228 413.49 99.415C392.03 122.107 386.36 170.751 355.71 169.306C325.328 167.873 312.286 124.05 297.969 93.9682Z" fill="#F4EC9A"/>
<path fill-rule="evenodd" clip-rule="evenodd" d="M1189.97 207.968C1179.65 186.284 1179.62 163.275 1179.19 139.332C1178.69 111.981 1168.64 78.5702 1187.31 61.4287C1205.98 44.2827 1234.5 64.0416 1259.53 65.5517C1287.49 67.239 1318.37 50.3541 1340.22 70.6558C1363.26 92.0708 1370.32 130.825 1362.84 161.567C1356.13 189.15 1324.02 193.823 1305.49 213.415C1284.03 236.107 1278.36 284.751 1247.71 283.306C1217.33 281.873 1204.29 238.05 1189.97 207.968Z" fill="#F4EC9A"/>
<path fill-rule="evenodd" clip-rule="evenodd" d="M781.037 11.0198C781.262 24.7277 767.557 36.87 770.84 50.2556C777.148 75.9751 817.869 95.4084 807.798 120.139C799.33 140.934 761.603 134.044 737.045 133.245C717.657 132.614 702.657 114.943 683.297 116.087C647.103 118.225 615.101 153.038 580.778 142.476C548.592 132.57 521.641 97.9593 525.368 67.4852C529.294 35.3879 582.635 28.0626 598.324 -0.970775C613.105 -28.3227 581.409 -74.0373 610.326 -89.7308C639.776 -105.713 672.506 -67.9067 705.462 -59.1153C726.699 -53.4502 753.806 -61.6591 769.236 -47.34C784.835 -32.8635 780.705 -9.16139 781.037 11.0198Z" fill="#81B1CF"/>
<path fill-rule="evenodd" clip-rule="evenodd" d="M1112.04 327.02C1112.26 340.728 1098.56 352.87 1101.84 366.256C1108.15 391.975 1148.87 411.408 1138.8 436.139C1130.33 456.934 1092.6 450.044 1068.05 449.245C1048.66 448.614 1033.66 430.943 1014.3 432.087C978.102 434.225 946.101 469.038 911.778 458.476C879.592 448.57 852.64 413.959 856.368 383.485C860.294 351.388 913.634 344.063 929.324 315.029C944.104 287.677 912.409 241.963 941.326 226.269C970.776 210.287 1003.51 248.093 1036.46 256.885C1057.7 262.55 1084.81 254.341 1100.24 268.66C1115.83 283.136 1111.7 306.839 1112.04 327.02Z" fill="#81B1CF"/>
</g>
<defs>
<clipPath id="clip0_838_1872">
<rect width="1279" height="389" fill="white"/>
</clipPath>
</defs>
</svg>
