<svg width="55" height="55" viewBox="0 0 55 55" fill="none" xmlns="http://www.w3.org/2000/svg">
<path d="M9 28C9 26.8954 9.89543 26 11 26H44C45.1046 26 46 26.8954 46 28V47H9V28Z" fill="#00A19B"/>
<rect x="9" y="38" width="8" height="8" rx="1" fill="white"/>
<rect x="23" y="38" width="8" height="8" rx="1" fill="white"/>
<path d="M43.5404 9.16683H38.957V6.87516C38.957 6.26737 38.7156 5.68448 38.2858 5.25471C37.856 4.82494 37.2732 4.5835 36.6654 4.5835C36.0576 4.5835 35.4747 4.82494 35.0449 5.25471C34.6151 5.68448 34.3737 6.26737 34.3737 6.87516V9.16683H20.6237V6.87516C20.6237 6.26737 20.3823 5.68448 19.9525 5.25471C19.5227 4.82494 18.9398 4.5835 18.332 4.5835C17.7242 4.5835 17.1413 4.82494 16.7116 5.25471C16.2818 5.68448 16.0404 6.26737 16.0404 6.87516V9.16683H11.457C9.63367 9.16683 7.88498 9.89116 6.59567 11.1805C5.30636 12.4698 4.58203 14.2185 4.58203 16.0418V43.5418C4.58203 45.3652 5.30636 47.1139 6.59567 48.4032C7.88498 49.6925 9.63367 50.4168 11.457 50.4168H43.5404C45.3637 50.4168 47.1124 49.6925 48.4017 48.4032C49.691 47.1139 50.4154 45.3652 50.4154 43.5418V16.0418C50.4154 14.2185 49.691 12.4698 48.4017 11.1805C47.1124 9.89116 45.3637 9.16683 43.5404 9.16683ZM45.832 43.5418C45.832 44.1496 45.5906 44.7325 45.1608 45.1623C44.731 45.5921 44.1481 45.8335 43.5404 45.8335H11.457C10.8492 45.8335 10.2663 45.5921 9.83658 45.1623C9.40681 44.7325 9.16536 44.1496 9.16536 43.5418V27.5002H45.832V43.5418ZM45.832 22.9168H9.16536V16.0418C9.16536 15.434 9.40681 14.8511 9.83658 14.4214C10.2663 13.9916 10.8492 13.7502 11.457 13.7502H16.0404V16.0418C16.0404 16.6496 16.2818 17.2325 16.7116 17.6623C17.1413 18.0921 17.7242 18.3335 18.332 18.3335C18.9398 18.3335 19.5227 18.0921 19.9525 17.6623C20.3823 17.2325 20.6237 16.6496 20.6237 16.0418V13.7502H34.3737V16.0418C34.3737 16.6496 34.6151 17.2325 35.0449 17.6623C35.4747 18.0921 36.0576 18.3335 36.6654 18.3335C37.2732 18.3335 37.856 18.0921 38.2858 17.6623C38.7156 17.2325 38.957 16.6496 38.957 16.0418V13.7502H43.5404C44.1481 13.7502 44.731 13.9916 45.1608 14.4214C45.5906 14.8511 45.832 15.434 45.832 16.0418V22.9168Z" fill="#00A19B"/>
<rect x="13" y="26" width="33" height="8" rx="1" fill="white"/>
<rect x="9" y="38" width="37" height="8" rx="1" fill="white"/>
<rect x="9" y="26" width="8" height="8" rx="1" fill="#E66900"/>
<rect x="30" y="38" width="8" height="8" rx="1" fill="#E66900"/>
<rect x="38" y="26" width="8" height="8" rx="1" fill="white"/>
<rect x="38" y="38" width="8" height="8" rx="1" fill="white"/>
</svg>
