<svg width="55" height="55" viewBox="0 0 55 55" fill="none" xmlns="http://www.w3.org/2000/svg">
<path fill-rule="evenodd" clip-rule="evenodd" d="M18.3679 44.7287C17.9504 44.7287 17.612 45.067 17.612 45.4844C17.612 45.902 17.9504 46.2403 18.3679 46.2403C18.7854 46.2403 19.1238 45.902 19.1238 45.4844C19.1238 45.067 18.7854 44.7287 18.3679 44.7287ZM15.3203 45.4844C15.3203 43.8014 16.6848 42.437 18.3679 42.437C20.0511 42.437 21.4155 43.8014 21.4155 45.4844C21.4155 47.1676 20.0511 48.532 18.3679 48.532C16.6848 48.532 15.3203 47.1676 15.3203 45.4844Z" fill="#00A19B"/>
<path fill-rule="evenodd" clip-rule="evenodd" d="M39.2859 44.7287C38.8683 44.7287 38.5299 45.067 38.5299 45.4844C38.5299 45.902 38.8683 46.2403 39.2859 46.2403C39.7033 46.2403 40.0419 45.902 40.0419 45.4844C40.0419 45.067 39.7033 44.7287 39.2859 44.7287ZM36.2383 45.4844C36.2383 43.8014 37.6027 42.437 39.2859 42.437C40.9689 42.437 42.3335 43.8014 42.3335 45.4844C42.3335 47.1676 40.9689 48.532 39.2859 48.532C37.6027 48.532 36.2383 47.1676 36.2383 45.4844Z" fill="#00A19B"/>
<path fill-rule="evenodd" clip-rule="evenodd" d="M2.00391 7.44808C2.00391 6.81526 2.51691 6.30225 3.14974 6.30225H10.7568C11.303 6.30225 11.7732 6.68768 11.8804 7.22321L13.5993 15.8111H44.9887C45.3302 15.8111 45.6539 15.9634 45.8716 16.2265C46.0893 16.4896 46.1784 16.8362 46.1142 17.1716L43.0714 33.1274L43.0697 33.1359C42.8434 34.2755 42.2238 35.299 41.3189 36.0272C40.4171 36.7533 39.2893 37.1401 38.132 37.1206H19.6674C18.5102 37.1401 17.3825 36.7533 16.4807 36.0272C15.5762 35.299 14.9565 34.276 14.73 33.1374C14.7299 33.1368 14.7298 33.1365 14.7297 33.1359L11.5486 17.2422C11.5386 17.2033 11.5306 17.1636 11.5248 17.1233L9.81763 8.59391H3.14974C2.51691 8.59391 2.00391 8.08089 2.00391 7.44808ZM14.0579 18.1028L16.9775 32.6896C17.099 33.3015 17.4318 33.8509 17.9177 34.2422C18.4036 34.6333 19.0115 34.8409 19.6352 34.8292C19.6425 34.8289 19.6498 34.8289 19.6571 34.8289H38.1423C38.1461 34.8289 38.1501 34.8289 38.1538 34.8289C38.1572 34.8289 38.1607 34.8289 38.1644 34.8292C38.788 34.8409 39.3959 34.6333 39.8817 34.2422C40.3667 33.8518 40.6993 33.3038 40.8213 32.6934C40.8216 32.6922 40.8219 32.6908 40.8222 32.6896L43.6037 18.1028H14.0579Z" fill="#00A19B"/>
<path d="M43.9992 17.0498H13.1992L17.6203 35.1998H42.0834L43.9992 17.0498Z" fill="#00A19B"/>
<path d="M43.6358 26.2392C49.3825 26.2392 54.0412 21.3914 54.0412 15.4114C54.0412 9.4313 49.3825 4.5835 43.6358 4.5835C37.8891 4.5835 33.2305 9.4313 33.2305 15.4114C33.2305 21.3914 37.8891 26.2392 43.6358 26.2392Z" fill="#E66900"/>
<path d="M40.1484 21.9079V20.4266H43.3293V9.78499H40.7729V8.63508C42.0609 8.42068 42.978 8.08935 43.7391 7.62158H45.1051V20.4266H47.9932V21.9079H40.1484Z" fill="white"/>
</svg>
