<svg width="348" height="284" viewBox="0 0 348 284" fill="none" xmlns="http://www.w3.org/2000/svg">
<path d="M7.97159 3.55788V12.2852H6.91477V4.66584H6.86364L4.73295 6.08061V5.00675L6.91477 3.55788H7.97159ZM13.3281 12.4045C12.6861 12.4045 12.1392 12.2298 11.6875 11.8803C11.2358 11.5281 10.8906 11.0181 10.652 10.3505C10.4134 9.68004 10.294 8.87038 10.294 7.92152C10.294 6.97834 10.4134 6.17294 10.652 5.50533C10.8935 4.83487 11.2401 4.32351 11.6918 3.97124C12.1463 3.61612 12.6918 3.43857 13.3281 3.43857C13.9645 3.43857 14.5085 3.61612 14.9602 3.97124C15.4148 4.32351 15.7614 4.83487 16 5.50533C16.2415 6.17294 16.3622 6.97834 16.3622 7.92152C16.3622 8.87038 16.2429 9.68004 16.0043 10.3505C15.7656 11.0181 15.4205 11.5281 14.9688 11.8803C14.517 12.2298 13.9702 12.4045 13.3281 12.4045ZM13.3281 11.467C13.9645 11.467 14.4588 11.1602 14.8111 10.5465C15.1634 9.93288 15.3395 9.05788 15.3395 7.92152C15.3395 7.16584 15.2585 6.52237 15.0966 5.99112C14.9375 5.45987 14.7074 5.05504 14.4062 4.77663C14.108 4.49822 13.7486 4.35902 13.3281 4.35902C12.6974 4.35902 12.2045 4.6701 11.8494 5.29226C11.4943 5.91158 11.3168 6.788 11.3168 7.92152C11.3168 8.6772 11.3963 9.31925 11.5554 9.84766C11.7145 10.3761 11.9432 10.7781 12.2415 11.0536C12.5426 11.3292 12.9048 11.467 13.3281 11.467ZM20.8281 12.4045C20.1861 12.4045 19.6392 12.2298 19.1875 11.8803C18.7358 11.5281 18.3906 11.0181 18.152 10.3505C17.9134 9.68004 17.794 8.87038 17.794 7.92152C17.794 6.97834 17.9134 6.17294 18.152 5.50533C18.3935 4.83487 18.7401 4.32351 19.1918 3.97124C19.6463 3.61612 20.1918 3.43857 20.8281 3.43857C21.4645 3.43857 22.0085 3.61612 22.4602 3.97124C22.9148 4.32351 23.2614 4.83487 23.5 5.50533C23.7415 6.17294 23.8622 6.97834 23.8622 7.92152C23.8622 8.87038 23.7429 9.68004 23.5043 10.3505C23.2656 11.0181 22.9205 11.5281 22.4688 11.8803C22.017 12.2298 21.4702 12.4045 20.8281 12.4045ZM20.8281 11.467C21.4645 11.467 21.9588 11.1602 22.3111 10.5465C22.6634 9.93288 22.8395 9.05788 22.8395 7.92152C22.8395 7.16584 22.7585 6.52237 22.5966 5.99112C22.4375 5.45987 22.2074 5.05504 21.9062 4.77663C21.608 4.49822 21.2486 4.35902 20.8281 4.35902C20.1974 4.35902 19.7045 4.6701 19.3494 5.29226C18.9943 5.91158 18.8168 6.788 18.8168 7.92152C18.8168 8.6772 18.8963 9.31925 19.0554 9.84766C19.2145 10.3761 19.4432 10.7781 19.7415 11.0536C20.0426 11.3292 20.4048 11.467 20.8281 11.467Z" fill="black" fill-opacity="0.7"/>
<path d="M13.6989 54.9494C13.1136 54.9494 12.5966 54.8457 12.1477 54.6383C11.7017 54.4281 11.3537 54.1397 11.1037 53.7733C10.8537 53.4039 10.7301 52.9835 10.733 52.5119C10.7301 52.1426 10.8026 51.8017 10.9503 51.4892C11.098 51.1738 11.2997 50.911 11.5554 50.7008C11.8139 50.4877 12.1023 50.3528 12.4205 50.296V50.2449C12.0028 50.1369 11.6705 49.9025 11.4233 49.5417C11.1761 49.1781 11.054 48.7647 11.0568 48.3017C11.054 47.8585 11.1662 47.4622 11.3935 47.1127C11.6207 46.7633 11.9332 46.4877 12.331 46.286C12.7315 46.0843 13.1875 45.9835 13.6989 45.9835C14.2045 45.9835 14.6563 46.0843 15.054 46.286C15.4517 46.4877 15.7642 46.7633 15.9915 47.1127C16.2216 47.4622 16.3381 47.8585 16.3409 48.3017C16.3381 48.7647 16.2116 49.1781 15.9616 49.5417C15.7145 49.9025 15.3864 50.1369 14.9773 50.2449V50.296C15.2926 50.3528 15.5767 50.4877 15.8295 50.7008C16.0824 50.911 16.2841 51.1738 16.4347 51.4892C16.5852 51.8017 16.6619 52.1426 16.6648 52.5119C16.6619 52.9835 16.5341 53.4039 16.2812 53.7733C16.0312 54.1397 15.6832 54.4281 15.2372 54.6383C14.794 54.8457 14.2813 54.9494 13.6989 54.9494ZM13.6989 54.0119C14.0938 54.0119 14.4347 53.948 14.7216 53.8201C15.0085 53.6923 15.2301 53.5119 15.3864 53.2789C15.5426 53.046 15.6222 52.7733 15.625 52.4608C15.6222 52.1312 15.5369 51.84 15.3693 51.5872C15.2017 51.3343 14.973 51.1355 14.6832 50.9906C14.3963 50.8457 14.0682 50.7733 13.6989 50.7733C13.3267 50.7733 12.9943 50.8457 12.7017 50.9906C12.4119 51.1355 12.1832 51.3343 12.0156 51.5872C11.8509 51.84 11.7699 52.1312 11.7727 52.4608C11.7699 52.7733 11.8452 53.046 11.9986 53.2789C12.1548 53.5119 12.3778 53.6923 12.6676 53.8201C12.9574 53.948 13.3011 54.0119 13.6989 54.0119ZM13.6989 49.8699C14.0114 49.8699 14.2884 49.8074 14.5298 49.6824C14.7741 49.5574 14.9659 49.3826 15.1051 49.1582C15.2443 48.9338 15.3153 48.671 15.3182 48.3699C15.3153 48.0744 15.2457 47.8173 15.1094 47.5985C14.973 47.377 14.7841 47.2065 14.5426 47.0872C14.3011 46.965 14.0199 46.9039 13.6989 46.9039C13.3722 46.9039 13.0866 46.965 12.8423 47.0872C12.598 47.2065 12.4091 47.377 12.2756 47.5985C12.142 47.8173 12.0767 48.0744 12.0795 48.3699C12.0767 48.671 12.1435 48.9338 12.2798 49.1582C12.419 49.3826 12.6108 49.5574 12.8551 49.6824C13.0994 49.8074 13.3807 49.8699 13.6989 49.8699ZM21.1445 54.9494C20.5025 54.9494 19.9556 54.7747 19.5039 54.4252C19.0522 54.073 18.707 53.563 18.4684 52.8954C18.2298 52.225 18.1104 51.4153 18.1104 50.4664C18.1104 49.5233 18.2298 48.7179 18.4684 48.0502C18.7099 47.3798 19.0565 46.8684 19.5082 46.5162C19.9627 46.161 20.5082 45.9835 21.1445 45.9835C21.7809 45.9835 22.3249 46.161 22.7766 46.5162C23.2312 46.8684 23.5778 47.3798 23.8164 48.0502C24.0579 48.7179 24.1786 49.5233 24.1786 50.4664C24.1786 51.4153 24.0593 52.225 23.8207 52.8954C23.582 53.563 23.2369 54.073 22.7852 54.4252C22.3335 54.7747 21.7866 54.9494 21.1445 54.9494ZM21.1445 54.0119C21.7809 54.0119 22.2752 53.7051 22.6275 53.0914C22.9798 52.4778 23.1559 51.6028 23.1559 50.4664C23.1559 49.7108 23.0749 49.0673 22.913 48.536C22.7539 48.0048 22.5238 47.6 22.2227 47.3216C21.9244 47.0431 21.565 46.9039 21.1445 46.9039C20.5138 46.9039 20.021 47.215 19.6658 47.8372C19.3107 48.4565 19.1332 49.3329 19.1332 50.4664C19.1332 51.2221 19.2127 51.8642 19.3718 52.3926C19.5309 52.921 19.7596 53.323 20.0579 53.5985C20.359 53.8741 20.7212 54.0119 21.1445 54.0119Z" fill="black" fill-opacity="0.7"/>
<path d="M13.8011 97.4943C13.4432 97.4886 13.0852 97.4205 12.7273 97.2898C12.3693 97.1591 12.0426 96.9389 11.7472 96.6293C11.4517 96.3168 11.2145 95.8949 11.0355 95.3636C10.8565 94.8295 10.767 94.1591 10.767 93.3523C10.767 92.5795 10.8395 91.8949 10.9844 91.2983C11.1293 90.6989 11.3395 90.1946 11.6151 89.7855C11.8906 89.3736 12.223 89.0611 12.6122 88.848C13.0043 88.6349 13.446 88.5284 13.9375 88.5284C14.4261 88.5284 14.8608 88.6264 15.2415 88.8224C15.625 89.0156 15.9375 89.2855 16.179 89.6321C16.4205 89.9787 16.5767 90.3778 16.6477 90.8295H15.608C15.5114 90.4375 15.3239 90.1122 15.0455 89.8537C14.767 89.5952 14.3977 89.4659 13.9375 89.4659C13.2614 89.4659 12.7287 89.7599 12.3395 90.348C11.9531 90.9361 11.7585 91.7614 11.7557 92.8239H11.8239C11.983 92.5824 12.1719 92.3764 12.3906 92.206C12.6122 92.0327 12.8565 91.8991 13.1236 91.8054C13.3906 91.7116 13.6733 91.6648 13.9716 91.6648C14.4716 91.6648 14.929 91.7898 15.3438 92.0398C15.7585 92.2869 16.0909 92.6293 16.3409 93.0668C16.5909 93.5014 16.7159 94 16.7159 94.5625C16.7159 95.1023 16.5952 95.5966 16.3537 96.0455C16.1122 96.4915 15.7727 96.8466 15.3352 97.1108C14.9006 97.3722 14.3892 97.5 13.8011 97.4943ZM13.8011 96.5568C14.1591 96.5568 14.4801 96.4673 14.7642 96.2884C15.0511 96.1094 15.277 95.8693 15.4418 95.5682C15.6094 95.267 15.6932 94.9318 15.6932 94.5625C15.6932 94.2017 15.6122 93.8736 15.4503 93.5781C15.2912 93.2798 15.071 93.0426 14.7898 92.8665C14.5114 92.6903 14.1932 92.6023 13.8352 92.6023C13.5653 92.6023 13.3139 92.6562 13.081 92.7642C12.848 92.8693 12.6435 93.0142 12.4673 93.1989C12.294 93.3835 12.1577 93.5952 12.0582 93.8338C11.9588 94.0696 11.9091 94.3182 11.9091 94.5795C11.9091 94.9261 11.9901 95.25 12.152 95.5511C12.3168 95.8523 12.5412 96.0952 12.8253 96.2798C13.1122 96.4645 13.4375 96.5568 13.8011 96.5568ZM21.2383 97.4943C20.5962 97.4943 20.0494 97.3196 19.5977 96.9702C19.146 96.6179 18.8008 96.108 18.5621 95.4403C18.3235 94.7699 18.2042 93.9602 18.2042 93.0114C18.2042 92.0682 18.3235 91.2628 18.5621 90.5952C18.8036 89.9247 19.1502 89.4134 19.6019 89.0611C20.0565 88.706 20.6019 88.5284 21.2383 88.5284C21.8746 88.5284 22.4187 88.706 22.8704 89.0611C23.3249 89.4134 23.6715 89.9247 23.9102 90.5952C24.1516 91.2628 24.2724 92.0682 24.2724 93.0114C24.2724 93.9602 24.1531 94.7699 23.9144 95.4403C23.6758 96.108 23.3306 96.6179 22.8789 96.9702C22.4272 97.3196 21.8803 97.4943 21.2383 97.4943ZM21.2383 96.5568C21.8746 96.5568 22.369 96.25 22.7212 95.6364C23.0735 95.0227 23.2496 94.1477 23.2496 93.0114C23.2496 92.2557 23.1687 91.6122 23.0067 91.081C22.8477 90.5497 22.6175 90.1449 22.3164 89.8665C22.0181 89.5881 21.6587 89.4489 21.2383 89.4489C20.6076 89.4489 20.1147 89.7599 19.7596 90.3821C19.4045 91.0014 19.2269 91.8778 19.2269 93.0114C19.2269 93.767 19.3065 94.4091 19.4656 94.9375C19.6246 95.4659 19.8533 95.8679 20.1516 96.1435C20.4528 96.419 20.815 96.5568 21.2383 96.5568Z" fill="black" fill-opacity="0.7"/>
<path d="M9.69886 138.13V137.261L13.5341 131.193H14.1648V132.539H13.7386L10.8409 137.124V137.193H16.0057V138.13H9.69886ZM13.8068 139.92V137.866V137.461V131.193H14.8125V139.92H13.8068ZM20.4492 140.039C19.8072 140.039 19.2603 139.865 18.8086 139.515C18.3569 139.163 18.0117 138.653 17.7731 137.985C17.5344 137.315 17.4151 136.505 17.4151 135.556C17.4151 134.613 17.5344 133.808 17.7731 133.14C18.0146 132.47 18.3612 131.958 18.8129 131.606C19.2674 131.251 19.8129 131.073 20.4492 131.073C21.0856 131.073 21.6296 131.251 22.0813 131.606C22.5359 131.958 22.8825 132.47 23.1211 133.14C23.3626 133.808 23.4833 134.613 23.4833 135.556C23.4833 136.505 23.364 137.315 23.1254 137.985C22.8867 138.653 22.5415 139.163 22.0898 139.515C21.6381 139.865 21.0913 140.039 20.4492 140.039ZM20.4492 139.102C21.0856 139.102 21.5799 138.795 21.9322 138.181C22.2844 137.568 22.4606 136.693 22.4606 135.556C22.4606 134.801 22.3796 134.157 22.2177 133.626C22.0586 133.095 21.8285 132.69 21.5273 132.411C21.229 132.133 20.8697 131.994 20.4492 131.994C19.8185 131.994 19.3256 132.305 18.9705 132.927C18.6154 133.546 18.4379 134.423 18.4379 135.556C18.4379 136.312 18.5174 136.954 18.6765 137.482C18.8356 138.011 19.0643 138.413 19.3626 138.688C19.6637 138.964 20.0259 139.102 20.4492 139.102Z" fill="black" fill-opacity="0.7"/>
<path d="M10.9034 182.465V181.698L13.7841 178.544C14.1222 178.175 14.4006 177.854 14.6193 177.581C14.8381 177.306 15 177.047 15.1051 176.806C15.2131 176.561 15.267 176.306 15.267 176.039C15.267 175.732 15.1932 175.466 15.0455 175.242C14.9006 175.017 14.7017 174.844 14.4489 174.722C14.196 174.6 13.9119 174.539 13.5966 174.539C13.2614 174.539 12.9688 174.608 12.7188 174.748C12.4716 174.884 12.2798 175.076 12.1435 175.323C12.0099 175.57 11.9432 175.86 11.9432 176.192H10.9375C10.9375 175.681 11.0554 175.232 11.2912 174.846C11.527 174.459 11.848 174.158 12.2543 173.942C12.6634 173.726 13.1222 173.618 13.6307 173.618C14.142 173.618 14.5952 173.726 14.9901 173.942C15.3849 174.158 15.6946 174.449 15.919 174.816C16.1435 175.182 16.2557 175.59 16.2557 176.039C16.2557 176.36 16.1974 176.674 16.081 176.98C15.9673 177.284 15.7685 177.624 15.4844 177.999C15.2031 178.371 14.8125 178.826 14.3125 179.363L12.3523 181.459V181.527H16.4091V182.465H10.9034ZM21.0156 182.584C20.3736 182.584 19.8267 182.409 19.375 182.06C18.9233 181.708 18.5781 181.198 18.3395 180.53C18.1009 179.86 17.9815 179.05 17.9815 178.101C17.9815 177.158 18.1009 176.353 18.3395 175.685C18.581 175.015 18.9276 174.503 19.3793 174.151C19.8338 173.796 20.3793 173.618 21.0156 173.618C21.652 173.618 22.196 173.796 22.6477 174.151C23.1023 174.503 23.4489 175.015 23.6875 175.685C23.929 176.353 24.0497 177.158 24.0497 178.101C24.0497 179.05 23.9304 179.86 23.6918 180.53C23.4531 181.198 23.108 181.708 22.6562 182.06C22.2045 182.409 21.6577 182.584 21.0156 182.584ZM21.0156 181.647C21.652 181.647 22.1463 181.34 22.4986 180.726C22.8509 180.113 23.027 179.238 23.027 178.101C23.027 177.346 22.946 176.702 22.7841 176.171C22.625 175.64 22.3949 175.235 22.0938 174.956C21.7955 174.678 21.4361 174.539 21.0156 174.539C20.3849 174.539 19.892 174.85 19.5369 175.472C19.1818 176.091 19.0043 176.968 19.0043 178.101C19.0043 178.857 19.0838 179.499 19.2429 180.027C19.402 180.556 19.6307 180.958 19.929 181.233C20.2301 181.509 20.5923 181.647 21.0156 181.647Z" fill="black" fill-opacity="0.7"/>
<path d="M20.75 225.129C20.108 225.129 19.5611 224.954 19.1094 224.604C18.6577 224.252 18.3125 223.742 18.0739 223.075C17.8352 222.404 17.7159 221.595 17.7159 220.646C17.7159 219.702 17.8352 218.897 18.0739 218.229C18.3153 217.559 18.6619 217.048 19.1136 216.695C19.5682 216.34 20.1136 216.163 20.75 216.163C21.3864 216.163 21.9304 216.34 22.3821 216.695C22.8366 217.048 23.1832 217.559 23.4219 218.229C23.6634 218.897 23.7841 219.702 23.7841 220.646C23.7841 221.595 23.6648 222.404 23.4261 223.075C23.1875 223.742 22.8423 224.252 22.3906 224.604C21.9389 224.954 21.392 225.129 20.75 225.129ZM20.75 224.191C21.3864 224.191 21.8807 223.884 22.233 223.271C22.5852 222.657 22.7614 221.782 22.7614 220.646C22.7614 219.89 22.6804 219.246 22.5185 218.715C22.3594 218.184 22.1293 217.779 21.8281 217.501C21.5298 217.222 21.1705 217.083 20.75 217.083C20.1193 217.083 19.6264 217.394 19.2713 218.016C18.9162 218.636 18.7386 219.512 18.7386 220.646C18.7386 221.401 18.8182 222.043 18.9773 222.572C19.1364 223.1 19.3651 223.502 19.6634 223.778C19.9645 224.053 20.3267 224.191 20.75 224.191Z" fill="black" fill-opacity="0.7"/>
<line x1="30" y1="5.78516" x2="347" y2="5.78516" stroke="#00001A" stroke-opacity="0.15" stroke-dasharray="2"/>
<line x1="30" y1="48.9854" x2="347" y2="48.9854" stroke="#00001A" stroke-opacity="0.15" stroke-dasharray="2"/>
<line x1="30" y1="92.1851" x2="347" y2="92.1851" stroke="#00001A" stroke-opacity="0.15" stroke-dasharray="2"/>
<line x1="30" y1="135.385" x2="347" y2="135.385" stroke="#00001A" stroke-opacity="0.15" stroke-dasharray="2"/>
<line x1="30" y1="178.585" x2="347" y2="178.585" stroke="#00001A" stroke-opacity="0.15" stroke-dasharray="2"/>
<line x1="30" y1="221.785" x2="347" y2="221.785" stroke="#00001A" stroke-opacity="0.3"/>
<line x1="29.5" y1="222.285" x2="29.5" y2="6.28516" stroke="#00001A" stroke-opacity="0.15" stroke-dasharray="2"/>
<line x1="82.334" y1="222.285" x2="82.334" y2="6.28516" stroke="#00001A" stroke-opacity="0.15" stroke-dasharray="2"/>
<line x1="135.166" y1="222.285" x2="135.166" y2="6.28516" stroke="#00001A" stroke-opacity="0.15" stroke-dasharray="2"/>
<line x1="188" y1="222.285" x2="188" y2="6.28516" stroke="#00001A" stroke-opacity="0.15" stroke-dasharray="2"/>
<line x1="240.833" y1="222.285" x2="240.833" y2="6.28516" stroke="#00001A" stroke-opacity="0.15" stroke-dasharray="2"/>
<line x1="293.667" y1="222.285" x2="293.667" y2="6.28516" stroke="#00001A" stroke-opacity="0.15" stroke-dasharray="2"/>
<line x1="346.5" y1="222.285" x2="346.5" y2="6.28516" stroke="#00001A" stroke-opacity="0.15" stroke-dasharray="2"/>
<g opacity="0.2">
<rect opacity="0.6" x="40" y="6.28516" width="27" height="215.362" fill="#009D97"/>
<rect x="40" y="6.28516" width="27" height="3" fill="#009D97"/>
</g>
<rect opacity="0.6" x="40" y="156.592" width="27" height="64.4173" fill="#009D97"/>
<rect x="40" y="156.592" width="27" height="3" fill="#009D97"/>
<path d="M49.3782 154.692C48.9094 154.692 48.4916 154.611 48.1246 154.45C47.7601 154.289 47.4701 154.066 47.2546 153.779C47.0415 153.49 46.9255 153.155 46.9066 152.774H47.8015C47.8204 153.008 47.9009 153.211 48.043 153.381C48.185 153.549 48.3709 153.68 48.6005 153.772C48.8301 153.864 49.0846 153.91 49.364 153.91C49.6765 153.91 49.9535 153.856 50.195 153.747C50.4364 153.638 50.6258 153.487 50.7631 153.293C50.9004 153.098 50.9691 152.874 50.9691 152.618C50.9691 152.35 50.9028 152.115 50.7702 151.911C50.6377 151.705 50.4435 151.544 50.1879 151.428C49.9322 151.312 49.6197 151.254 49.2504 151.254H48.668V150.473H49.2504C49.5392 150.473 49.7925 150.421 50.0103 150.317C50.2305 150.213 50.4021 150.066 50.5252 149.876C50.6507 149.687 50.7134 149.464 50.7134 149.209C50.7134 148.963 50.659 148.748 50.5501 148.566C50.4412 148.384 50.2873 148.242 50.0884 148.14C49.8919 148.038 49.6599 147.987 49.3924 147.987C49.1415 147.987 48.9047 148.033 48.6822 148.126C48.462 148.216 48.2821 148.347 48.1424 148.52C48.0027 148.69 47.927 148.896 47.9151 149.138H47.0629C47.0771 148.757 47.1919 148.423 47.4073 148.136C47.6228 147.847 47.9045 147.623 48.2525 147.462C48.6029 147.301 48.9876 147.22 49.4066 147.22C49.8564 147.22 50.2423 147.311 50.5643 147.494C50.8862 147.673 51.1336 147.911 51.3065 148.207C51.4793 148.503 51.5657 148.823 51.5657 149.166C51.5657 149.576 51.458 149.925 51.2425 150.214C51.0295 150.503 50.7395 150.703 50.3725 150.814V150.871C50.8318 150.946 51.1905 151.142 51.4485 151.457C51.7066 151.769 51.8356 152.156 51.8356 152.618C51.8356 153.013 51.7279 153.368 51.5124 153.683C51.2994 153.996 51.0082 154.242 50.6388 154.422C50.2695 154.602 49.8493 154.692 49.3782 154.692ZM55.6602 154.692C55.1251 154.692 54.6694 154.546 54.293 154.255C53.9165 153.961 53.6289 153.536 53.43 152.98C53.2312 152.421 53.1317 151.747 53.1317 150.956C53.1317 150.17 53.2312 149.499 53.43 148.942C53.6313 148.384 53.9201 147.958 54.2965 147.664C54.6753 147.368 55.1299 147.22 55.6602 147.22C56.1905 147.22 56.6438 147.368 57.0202 147.664C57.399 147.958 57.6879 148.384 57.8867 148.942C58.0879 149.499 58.1886 150.17 58.1886 150.956C58.1886 151.747 58.0891 152.421 57.8903 152.98C57.6914 153.536 57.4038 153.961 57.0273 154.255C56.6509 154.546 56.1952 154.692 55.6602 154.692ZM55.6602 153.91C56.1905 153.91 56.6024 153.655 56.896 153.143C57.1895 152.632 57.3363 151.903 57.3363 150.956C57.3363 150.326 57.2688 149.79 57.1339 149.347C57.0013 148.905 56.8095 148.567 56.5586 148.335C56.31 148.103 56.0105 147.987 55.6602 147.987C55.1346 147.987 54.7238 148.246 54.4279 148.765C54.132 149.281 53.984 150.011 53.984 150.956C53.984 151.586 54.0503 152.121 54.1829 152.561C54.3155 153.001 54.506 153.336 54.7546 153.566C55.0056 153.796 55.3074 153.91 55.6602 153.91Z" fill="black" fill-opacity="0.7"/>
<g opacity="0.2">
<rect opacity="0.6" x="68.7773" y="6.28516" width="27" height="215.362" fill="#FF928A"/>
<rect x="68.7773" y="6.28516" width="27" height="3" fill="#FF928A"/>
</g>
<rect opacity="0.6" x="68.7773" y="158.739" width="27" height="62.2701" fill="#FF928A"/>
<rect x="68.7773" y="158.739" width="27" height="3" fill="#FF928A"/>
<path d="M75.6982 156.739V156.1L78.0987 153.472C78.3804 153.164 78.6125 152.897 78.7947 152.67C78.977 152.44 79.112 152.225 79.1996 152.023C79.2895 151.82 79.3345 151.607 79.3345 151.384C79.3345 151.128 79.273 150.907 79.1499 150.72C79.0291 150.533 78.8634 150.389 78.6527 150.287C78.442 150.185 78.2053 150.134 77.9425 150.134C77.6631 150.134 77.4193 150.192 77.2109 150.308C77.005 150.422 76.8452 150.582 76.7315 150.788C76.6203 150.994 76.5646 151.235 76.5646 151.512H75.7266C75.7266 151.086 75.8248 150.712 76.0213 150.39C76.2178 150.068 76.4853 149.817 76.8239 149.637C77.1648 149.457 77.5471 149.367 77.9709 149.367C78.397 149.367 78.7746 149.457 79.1037 149.637C79.4328 149.817 79.6908 150.06 79.8778 150.365C80.0649 150.67 80.1584 151.01 80.1584 151.384C80.1584 151.652 80.1098 151.913 80.0128 152.169C79.9181 152.422 79.7524 152.705 79.5156 153.018C79.2812 153.328 78.9557 153.707 78.5391 154.154L76.9055 155.901V155.958H80.2862V156.739H75.6982ZM84.0682 149.367C84.3665 149.369 84.6648 149.426 84.9631 149.538C85.2614 149.649 85.5336 149.833 85.7798 150.092C86.026 150.347 86.2237 150.696 86.3729 151.139C86.522 151.582 86.5966 152.137 86.5966 152.805C86.5966 153.451 86.535 154.025 86.4119 154.527C86.2912 155.026 86.116 155.448 85.8864 155.791C85.6591 156.134 85.3821 156.395 85.0554 156.572C84.7311 156.75 84.3641 156.839 83.9545 156.839C83.5473 156.839 83.1839 156.758 82.8643 156.597C82.5471 156.434 82.2867 156.208 82.0831 155.919C81.8819 155.628 81.7528 155.29 81.696 154.907H82.5625C82.6406 155.241 82.7957 155.516 83.0277 155.734C83.2621 155.95 83.571 156.057 83.9545 156.057C84.5156 156.057 84.9583 155.812 85.2827 155.322C85.6094 154.832 85.7727 154.14 85.7727 153.245H85.7159C85.5833 153.444 85.4259 153.615 85.2436 153.76C85.0613 153.904 84.8589 154.016 84.6364 154.094C84.4138 154.172 84.1771 154.211 83.9261 154.211C83.5095 154.211 83.1271 154.108 82.7791 153.902C82.4335 153.694 82.1565 153.408 81.9482 153.046C81.7422 152.681 81.6392 152.265 81.6392 151.796C81.6392 151.351 81.7386 150.944 81.9375 150.574C82.1387 150.203 82.4205 149.907 82.7827 149.687C83.1473 149.467 83.5758 149.36 84.0682 149.367ZM84.0682 150.148C83.7699 150.148 83.5012 150.223 83.2621 150.372C83.0253 150.519 82.8371 150.718 82.6974 150.969C82.5601 151.217 82.4915 151.493 82.4915 151.796C82.4915 152.099 82.5578 152.375 82.6903 152.623C82.8253 152.87 83.0088 153.066 83.2408 153.213C83.4751 153.357 83.7415 153.43 84.0398 153.43C84.2647 153.43 84.4742 153.386 84.6683 153.298C84.8625 153.208 85.0317 153.086 85.1761 152.932C85.3229 152.776 85.4377 152.6 85.5206 152.403C85.6035 152.204 85.6449 151.997 85.6449 151.782C85.6449 151.498 85.5762 151.231 85.4389 150.983C85.304 150.734 85.117 150.533 84.8778 150.379C84.6411 150.225 84.3712 150.148 84.0682 150.148Z" fill="black" fill-opacity="0.7"/>
<g opacity="0.2">
<rect opacity="0.6" x="97.5547" y="6.28516" width="27" height="215.362" fill="#3CC3DF"/>
<rect x="97.5547" y="6.28516" width="27" height="3" fill="#3CC3DF"/>
</g>
<rect opacity="0.6" x="97.5547" y="126.531" width="27" height="94.4787" fill="#3CC3DF"/>
<rect x="97.5547" y="126.531" width="27" height="3" fill="#3CC3DF"/>
<path d="M104.305 123.039V122.315L107.501 117.258H108.027V118.38H107.672L105.257 122.201V122.258H109.561V123.039H104.305ZM107.728 124.531V122.819V122.482V117.258H108.566V124.531H107.728ZM110.721 123.039V122.315L113.917 117.258H114.443V118.38H114.088L111.673 122.201V122.258H115.977V123.039H110.721ZM114.144 124.531V122.819V122.482V117.258H114.982V124.531H114.144Z" fill="black" fill-opacity="0.7"/>
<g opacity="0.2">
<rect opacity="0.6" x="146.334" y="6.28516" width="27" height="215.362" fill="#009D97"/>
<rect x="146.334" y="6.28516" width="27" height="3" fill="#009D97"/>
</g>
<rect opacity="0.6" x="146.334" y="51.3774" width="27" height="169.632" fill="#009D97"/>
<rect x="146.334" y="51.3774" width="27" height="3" fill="#009D97"/>
<path d="M154.961 49.3774L158.213 42.9428V42.886H154.463V42.1047H159.123V42.9286L155.884 49.3774H154.961ZM162.664 42.0053C162.962 42.0076 163.26 42.0645 163.559 42.1757C163.857 42.287 164.129 42.4717 164.376 42.7297C164.622 42.9854 164.819 43.3346 164.969 43.7773C165.118 44.22 165.192 44.7752 165.192 45.4428C165.192 46.0891 165.131 46.6632 165.008 47.1651C164.887 47.6646 164.712 48.086 164.482 48.4293C164.255 48.7726 163.978 49.033 163.651 49.2105C163.327 49.3881 162.96 49.4769 162.55 49.4769C162.143 49.4769 161.78 49.3964 161.46 49.2354C161.143 49.072 160.882 48.846 160.679 48.5571C160.478 48.2659 160.349 47.9286 160.292 47.5451H161.158C161.236 47.8789 161.391 48.1547 161.623 48.3725C161.858 48.5879 162.167 48.6956 162.55 48.6956C163.111 48.6956 163.554 48.4506 163.878 47.9605C164.205 47.4705 164.368 46.778 164.368 45.8831H164.312C164.179 46.082 164.022 46.2536 163.839 46.398C163.657 46.5425 163.455 46.6537 163.232 46.7318C163.01 46.81 162.773 46.849 162.522 46.849C162.105 46.849 161.723 46.746 161.375 46.5401C161.029 46.3317 160.752 46.0465 160.544 45.6843C160.338 45.3197 160.235 44.903 160.235 44.4343C160.235 43.9892 160.334 43.582 160.533 43.2127C160.734 42.841 161.016 42.5451 161.378 42.3249C161.743 42.1047 162.171 41.9982 162.664 42.0053ZM162.664 42.7865C162.366 42.7865 162.097 42.8611 161.858 43.0103C161.621 43.157 161.433 43.3559 161.293 43.6068C161.156 43.8554 161.087 44.1312 161.087 44.4343C161.087 44.7373 161.153 45.0131 161.286 45.2617C161.421 45.5079 161.604 45.7044 161.836 45.8512C162.071 45.9956 162.337 46.0678 162.635 46.0678C162.86 46.0678 163.07 46.024 163.264 45.9364C163.458 45.8464 163.627 45.7245 163.772 45.5706C163.919 45.4144 164.033 45.238 164.116 45.0415C164.199 44.8426 164.241 44.6355 164.241 44.4201C164.241 44.136 164.172 43.8696 164.035 43.621C163.9 43.3725 163.713 43.1712 163.474 43.0174C163.237 42.8635 162.967 42.7865 162.664 42.7865Z" fill="black" fill-opacity="0.7"/>
<g opacity="0.2">
<rect opacity="0.6" x="175.111" y="6.28516" width="27" height="215.362" fill="#FF928A"/>
<rect x="175.111" y="6.28516" width="27" height="3" fill="#FF928A"/>
</g>
<rect opacity="0.6" x="175.111" y="109.353" width="27" height="111.657" fill="#FF928A"/>
<rect x="175.111" y="109.353" width="27" height="3" fill="#FF928A"/>
<path d="M184.305 107.452C183.888 107.452 183.513 107.37 183.179 107.204C182.845 107.038 182.578 106.811 182.377 106.522C182.175 106.233 182.065 105.904 182.046 105.535H182.899C182.932 105.864 183.081 106.136 183.346 106.352C183.614 106.565 183.933 106.671 184.305 106.671C184.603 106.671 184.868 106.601 185.1 106.462C185.335 106.322 185.518 106.13 185.651 105.886C185.786 105.64 185.853 105.362 185.853 105.052C185.853 104.735 185.783 104.452 185.644 104.203C185.506 103.952 185.317 103.755 185.075 103.61C184.834 103.466 184.558 103.392 184.248 103.39C184.026 103.388 183.797 103.422 183.563 103.493C183.328 103.562 183.135 103.65 182.984 103.759L182.16 103.66L182.6 100.08H186.379V100.862H183.339L183.083 103.006H183.126C183.275 102.888 183.462 102.79 183.687 102.712C183.912 102.634 184.146 102.595 184.39 102.595C184.835 102.595 185.232 102.701 185.58 102.914C185.93 103.125 186.205 103.414 186.404 103.781C186.605 104.148 186.705 104.567 186.705 105.038C186.705 105.502 186.601 105.916 186.393 106.281C186.187 106.643 185.903 106.929 185.541 107.14C185.178 107.348 184.767 107.452 184.305 107.452ZM188.116 107.353V106.714L190.517 104.086C190.798 103.778 191.03 103.511 191.213 103.283C191.395 103.054 191.53 102.838 191.618 102.637C191.708 102.434 191.752 102.22 191.752 101.998C191.752 101.742 191.691 101.521 191.568 101.334C191.447 101.147 191.281 101.002 191.071 100.901C190.86 100.799 190.623 100.748 190.36 100.748C190.081 100.748 189.837 100.806 189.629 100.922C189.423 101.036 189.263 101.195 189.15 101.401C189.038 101.607 188.983 101.849 188.983 102.126H188.145C188.145 101.7 188.243 101.326 188.439 101.004C188.636 100.682 188.903 100.431 189.242 100.251C189.583 100.071 189.965 99.9809 190.389 99.9809C190.815 99.9809 191.193 100.071 191.522 100.251C191.851 100.431 192.109 100.673 192.296 100.979C192.483 101.284 192.576 101.624 192.576 101.998C192.576 102.265 192.528 102.527 192.431 102.783C192.336 103.036 192.17 103.319 191.934 103.631C191.699 103.942 191.374 104.32 190.957 104.768L189.324 106.515V106.572H192.704V107.353H188.116Z" fill="black" fill-opacity="0.7"/>
<g opacity="0.2">
<rect opacity="0.6" x="203.889" y="6.28516" width="27" height="215.362" fill="#3CC3DF"/>
<rect x="203.889" y="6.28516" width="27" height="3" fill="#3CC3DF"/>
</g>
<rect opacity="0.6" x="203.889" y="111.5" width="27" height="109.509" fill="#3CC3DF"/>
<rect x="203.889" y="111.5" width="27" height="3" fill="#3CC3DF"/>
<path d="M214.039 109.599C213.623 109.599 213.247 109.517 212.914 109.351C212.58 109.185 212.312 108.958 212.111 108.669C211.91 108.38 211.8 108.051 211.781 107.682H212.633C212.666 108.011 212.815 108.283 213.08 108.499C213.348 108.712 213.668 108.818 214.039 108.818C214.338 108.818 214.603 108.748 214.835 108.609C215.069 108.469 215.253 108.277 215.385 108.033C215.52 107.787 215.588 107.509 215.588 107.199C215.588 106.882 215.518 106.599 215.378 106.35C215.241 106.099 215.051 105.902 214.81 105.757C214.568 105.613 214.293 105.539 213.982 105.537C213.76 105.535 213.531 105.569 213.297 105.64C213.063 105.709 212.87 105.797 212.718 105.906L211.894 105.807L212.335 102.227H216.113V103.009H213.073L212.818 105.153H212.86C213.009 105.035 213.196 104.937 213.421 104.859C213.646 104.781 213.881 104.741 214.124 104.741C214.57 104.741 214.966 104.848 215.314 105.061C215.664 105.272 215.939 105.561 216.138 105.928C216.339 106.295 216.44 106.714 216.44 107.185C216.44 107.649 216.336 108.063 216.127 108.428C215.921 108.79 215.637 109.076 215.275 109.287C214.913 109.495 214.501 109.599 214.039 109.599ZM220.407 102.227V109.5H219.527V103.151H219.484L217.708 104.33V103.435L219.527 102.227H220.407Z" fill="black" fill-opacity="0.7"/>
<g opacity="0.2">
<rect opacity="0.6" x="252.667" y="6.28516" width="27" height="215.362" fill="#009D97"/>
<rect x="252.667" y="6.28516" width="27" height="3" fill="#009D97"/>
</g>
<rect opacity="0.6" x="252.667" y="115.794" width="27" height="105.215" fill="#009D97"/>
<rect x="252.667" y="115.794" width="27" height="3" fill="#009D97"/>
<path d="M259.417 112.303V111.579L262.613 106.522H263.139V107.644H262.784L260.369 111.465V111.522H264.673V112.303H259.417ZM262.841 113.794V112.083V111.745V106.522H263.679V113.794H262.841ZM268.319 106.422C268.617 106.425 268.916 106.481 269.214 106.593C269.512 106.704 269.785 106.889 270.031 107.147C270.277 107.402 270.475 107.752 270.624 108.194C270.773 108.637 270.848 109.192 270.848 109.86C270.848 110.506 270.786 111.08 270.663 111.582C270.542 112.082 270.367 112.503 270.137 112.846C269.91 113.19 269.633 113.45 269.306 113.628C268.982 113.805 268.615 113.894 268.206 113.894C267.798 113.894 267.435 113.813 267.115 113.652C266.798 113.489 266.538 113.263 266.334 112.974C266.133 112.683 266.004 112.346 265.947 111.962H266.813C266.892 112.296 267.047 112.572 267.279 112.789C267.513 113.005 267.822 113.113 268.206 113.113C268.767 113.113 269.209 112.868 269.534 112.378C269.86 111.887 270.024 111.195 270.024 110.3H269.967C269.834 110.499 269.677 110.671 269.495 110.815C269.312 110.959 269.11 111.071 268.887 111.149C268.665 111.227 268.428 111.266 268.177 111.266C267.76 111.266 267.378 111.163 267.03 110.957C266.684 110.749 266.407 110.463 266.199 110.101C265.993 109.737 265.89 109.32 265.89 108.851C265.89 108.406 265.99 107.999 266.188 107.63C266.39 107.258 266.671 106.962 267.034 106.742C267.398 106.522 267.827 106.415 268.319 106.422ZM268.319 107.204C268.021 107.204 267.752 107.278 267.513 107.427C267.276 107.574 267.088 107.773 266.948 108.024C266.811 108.272 266.742 108.548 266.742 108.851C266.742 109.154 266.809 109.43 266.941 109.679C267.076 109.925 267.26 110.121 267.492 110.268C267.726 110.413 267.992 110.485 268.291 110.485C268.516 110.485 268.725 110.441 268.919 110.353C269.113 110.263 269.283 110.141 269.427 109.988C269.574 109.831 269.689 109.655 269.772 109.458C269.854 109.26 269.896 109.052 269.896 108.837C269.896 108.553 269.827 108.287 269.69 108.038C269.555 107.789 269.368 107.588 269.129 107.434C268.892 107.28 268.622 107.204 268.319 107.204Z" fill="black" fill-opacity="0.7"/>
<g opacity="0.2">
<rect opacity="0.6" x="281.444" y="6.28516" width="27" height="215.362" fill="#FF928A"/>
<rect x="281.444" y="6.28516" width="27" height="3" fill="#FF928A"/>
</g>
<rect opacity="0.6" x="281.444" y="152.298" width="27" height="68.7118" fill="#FF928A"/>
<rect x="281.444" y="152.298" width="27" height="3" fill="#FF928A"/>
<path d="M290.823 150.397C290.354 150.397 289.936 150.317 289.569 150.156C289.204 149.995 288.914 149.771 288.699 149.485C288.486 149.196 288.37 148.861 288.351 148.48H289.246C289.265 148.714 289.345 148.916 289.487 149.087C289.629 149.255 289.815 149.385 290.045 149.478C290.274 149.57 290.529 149.616 290.808 149.616C291.121 149.616 291.398 149.562 291.639 149.453C291.881 149.344 292.07 149.192 292.207 148.998C292.345 148.804 292.413 148.579 292.413 148.323C292.413 148.056 292.347 147.82 292.215 147.617C292.082 147.411 291.888 147.25 291.632 147.134C291.377 147.018 291.064 146.96 290.695 146.96H290.112V146.179H290.695C290.984 146.179 291.237 146.126 291.455 146.022C291.675 145.918 291.846 145.771 291.97 145.582C292.095 145.393 292.158 145.17 292.158 144.914C292.158 144.668 292.103 144.454 291.994 144.272C291.886 144.089 291.732 143.947 291.533 143.845C291.336 143.744 291.104 143.693 290.837 143.693C290.586 143.693 290.349 143.739 290.127 143.831C289.906 143.921 289.726 144.053 289.587 144.225C289.447 144.396 289.371 144.602 289.359 144.843H288.507C288.521 144.462 288.636 144.128 288.852 143.842C289.067 143.553 289.349 143.328 289.697 143.167C290.047 143.006 290.432 142.926 290.851 142.926C291.301 142.926 291.687 143.017 292.009 143.199C292.331 143.379 292.578 143.617 292.751 143.913C292.924 144.209 293.01 144.528 293.01 144.872C293.01 145.281 292.902 145.63 292.687 145.919C292.474 146.208 292.184 146.408 291.817 146.519V146.576C292.276 146.652 292.635 146.847 292.893 147.162C293.151 147.475 293.28 147.862 293.28 148.323C293.28 148.719 293.172 149.074 292.957 149.389C292.744 149.701 292.453 149.947 292.083 150.127C291.714 150.307 291.294 150.397 290.823 150.397ZM294.732 150.298V149.659L297.133 147.031C297.415 146.723 297.647 146.456 297.829 146.228C298.011 145.999 298.146 145.783 298.234 145.582C298.324 145.378 298.369 145.165 298.369 144.943C298.369 144.687 298.307 144.466 298.184 144.279C298.063 144.092 297.898 143.947 297.687 143.845C297.476 143.744 297.239 143.693 296.977 143.693C296.697 143.693 296.453 143.751 296.245 143.867C296.039 143.98 295.879 144.14 295.766 144.346C295.654 144.552 295.599 144.794 295.599 145.071H294.761C294.761 144.644 294.859 144.27 295.055 143.948C295.252 143.626 295.52 143.376 295.858 143.196C296.199 143.016 296.581 142.926 297.005 142.926C297.431 142.926 297.809 143.016 298.138 143.196C298.467 143.376 298.725 143.618 298.912 143.924C299.099 144.229 299.193 144.569 299.193 144.943C299.193 145.21 299.144 145.472 299.047 145.728C298.952 145.981 298.787 146.264 298.55 146.576C298.315 146.886 297.99 147.265 297.573 147.713L295.94 149.46V149.517H299.32V150.298H294.732Z" fill="black" fill-opacity="0.7"/>
<g opacity="0.2">
<rect opacity="0.6" x="310.223" y="6.28516" width="27" height="215.362" fill="#3CC3DF"/>
<rect x="310.223" y="6.28516" width="27" height="3" fill="#3CC3DF"/>
</g>
<rect opacity="0.6" x="310.223" y="126.531" width="27" height="94.4787" fill="#3CC3DF"/>
<rect x="310.223" y="126.531" width="27" height="3" fill="#3CC3DF"/>
<path d="M316.973 123.039V122.315L320.169 117.258H320.695V118.38H320.339L317.925 122.201V122.258H322.229V123.039H316.973ZM320.396 124.531V122.819V122.482V117.258H321.234V124.531H320.396ZM323.389 123.039V122.315L326.585 117.258H327.111V118.38H326.756L324.341 122.201V122.258H328.645V123.039H323.389ZM326.812 124.531V122.819V122.482V117.258H327.65V124.531H326.812Z" fill="black" fill-opacity="0.7"/>
<path d="M6.90263 275.039L6.23972 274.376L10.8681 269.748L11.531 270.41L9.59044 272.351L15.0986 277.859L14.3514 278.607L8.84316 273.098L6.90263 275.039ZM19.4618 273.689C19.0159 274.135 18.5327 274.421 18.0124 274.548C17.4922 274.67 16.9669 274.641 16.4365 274.46C15.9062 274.275 15.404 273.946 14.9299 273.472C14.4558 272.998 14.1244 272.494 13.9355 271.959C13.7467 271.421 13.7065 270.895 13.815 270.38C13.9235 269.862 14.1866 269.394 14.6045 268.976C14.8455 268.735 15.1238 268.537 15.4391 268.383C15.7545 268.228 16.099 268.145 16.4727 268.132C16.8443 268.118 17.235 268.202 17.6448 268.383C18.0546 268.563 18.4755 268.87 18.9074 269.302L19.2087 269.603L15.641 273.171L15.0263 272.556L17.8708 269.711C17.6097 269.45 17.3244 269.269 17.0151 269.169C16.7077 269.067 16.3994 269.052 16.09 269.124C15.7827 269.194 15.5004 269.358 15.2433 269.615C14.96 269.898 14.7853 270.214 14.719 270.561C14.6527 270.905 14.6758 271.243 14.7883 271.577C14.9008 271.91 15.0846 272.204 15.3397 272.459L15.7495 272.869C16.099 273.219 16.4556 273.455 16.8192 273.577C17.1828 273.696 17.5364 273.71 17.8799 273.62C18.2214 273.527 18.5357 273.337 18.823 273.05C19.0098 272.863 19.1525 272.668 19.2509 272.466C19.3493 272.259 19.4005 272.047 19.4046 271.83C19.4066 271.611 19.3574 271.391 19.2569 271.17L20.1368 270.676C20.2975 270.981 20.3809 271.307 20.3869 271.655C20.3909 272 20.3166 272.348 20.1639 272.698C20.0092 273.045 19.7752 273.376 19.4618 273.689ZM24.3403 268.81C23.9063 269.244 23.4303 269.516 22.912 269.624C22.3937 269.733 21.8704 269.691 21.3421 269.5C20.8138 269.31 20.3186 268.983 19.8566 268.521C19.3865 268.051 19.058 267.55 18.8712 267.018C18.6844 266.481 18.6452 265.956 18.7537 265.442C18.8622 264.923 19.1253 264.455 19.5432 264.037C19.8686 263.712 20.2222 263.479 20.6038 263.338C20.9855 263.198 21.3682 263.153 21.7519 263.203C22.1356 263.253 22.4921 263.403 22.8216 263.652L22.1105 264.363C21.8453 264.206 21.5379 264.14 21.1884 264.164C20.8389 264.184 20.5074 264.351 20.194 264.664C19.9168 264.941 19.7461 265.257 19.6818 265.61C19.6175 265.96 19.6577 266.324 19.8023 266.701C19.9469 267.075 20.194 267.436 20.5436 267.786C20.9011 268.144 21.2688 268.399 21.6464 268.551C22.0261 268.702 22.3927 268.747 22.7462 268.687C23.1018 268.625 23.4202 268.453 23.7014 268.172C23.8863 267.987 24.0219 267.787 24.1082 267.572C24.1946 267.357 24.2298 267.137 24.2137 266.912C24.1976 266.687 24.1273 266.468 24.0028 266.255L24.7139 265.544C24.9469 265.857 25.0936 266.203 25.1538 266.581C25.2141 266.954 25.1789 267.335 25.0484 267.723C24.9178 268.106 24.6818 268.469 24.3403 268.81ZM25.0303 262.359L27.8145 265.143L27.1034 265.854L20.9323 259.683L21.6434 258.972L23.9094 261.238L23.9696 261.178C23.839 260.83 23.8119 260.478 23.8883 260.12C23.9646 259.759 24.1846 259.396 24.5482 259.033C24.8636 258.717 25.203 258.504 25.5666 258.394C25.9282 258.281 26.3039 258.289 26.6936 258.418C27.0833 258.542 27.477 258.803 27.8748 259.201L30.8157 262.142L30.1046 262.853L27.2119 259.961C26.8443 259.593 26.4646 259.404 26.0729 259.394C25.6811 259.38 25.3175 259.541 24.9821 259.876C24.749 260.109 24.5893 260.367 24.503 260.651C24.4186 260.932 24.4176 261.22 24.5 261.515C24.5843 261.809 24.7611 262.09 25.0303 262.359ZM30.0436 257.346L32.8278 260.13L32.1167 260.841L27.4883 256.213L28.1754 255.526L28.8985 256.249L28.9588 256.189C28.8322 255.845 28.8081 255.492 28.8865 255.128C28.9628 254.762 29.1757 254.405 29.5253 254.055C29.8387 253.742 30.1771 253.532 30.5407 253.426C30.9023 253.317 31.278 253.327 31.6677 253.456C32.0554 253.582 32.4461 253.842 32.8398 254.236L35.7808 257.177L35.0696 257.888L32.1769 254.996C31.8133 254.632 31.4357 254.443 31.044 254.429C30.6502 254.413 30.2886 254.57 29.9592 254.899C29.7322 255.126 29.5785 255.378 29.4982 255.655C29.4198 255.931 29.4238 256.214 29.5102 256.505C29.5966 256.796 29.7744 257.077 30.0436 257.346ZM39.0569 254.094C38.6391 254.512 38.173 254.779 37.6588 254.895C37.1465 255.01 36.6232 254.977 36.0889 254.796C35.5565 254.613 35.0513 254.283 34.5732 253.805C34.0911 253.322 33.7576 252.814 33.5728 252.28C33.39 251.743 33.3559 251.219 33.4704 250.707C33.5869 250.193 33.8541 249.727 34.2719 249.309C34.6897 248.891 35.1548 248.625 35.667 248.51C36.1813 248.394 36.7056 248.428 37.2399 248.613C37.7763 248.796 38.2855 249.128 38.7676 249.61C39.2457 250.088 39.5752 250.594 39.756 251.129C39.9388 251.661 39.9719 252.184 39.8554 252.699C39.7409 253.211 39.4747 253.676 39.0569 254.094ZM38.4181 253.455C38.7355 253.138 38.9153 252.795 38.9575 252.427C38.9997 252.06 38.9374 251.694 38.7707 251.331C38.6039 250.967 38.3659 250.631 38.0565 250.321C37.7472 250.012 37.4097 249.773 37.0441 249.604C36.6785 249.435 36.3108 249.371 35.9412 249.411C35.5716 249.451 35.2281 249.63 34.9107 249.948C34.5933 250.265 34.4145 250.608 34.3743 250.978C34.3342 251.348 34.3984 251.715 34.5672 252.081C34.7359 252.447 34.975 252.784 35.2843 253.093C35.5937 253.403 35.9302 253.641 36.2938 253.808C36.6574 253.974 37.023 254.037 37.3906 253.994C37.7582 253.952 38.1007 253.772 38.4181 253.455ZM36.6832 243.932L42.8543 250.104L42.1432 250.815L35.9721 244.644L36.6832 243.932ZM46.1335 247.017C45.7157 247.435 45.2496 247.702 44.7354 247.819C44.2231 247.933 43.6998 247.9 43.1655 247.719C42.6331 247.536 42.1279 247.206 41.6498 246.728C41.1677 246.246 40.8342 245.738 40.6494 245.203C40.4666 244.667 40.4325 244.143 40.547 243.63C40.6635 243.116 40.9306 242.65 41.3485 242.232C41.7663 241.814 42.2314 241.548 42.7436 241.434C43.2579 241.317 43.7822 241.351 44.3165 241.536C44.8529 241.719 45.3621 242.051 45.8442 242.534C46.3223 243.012 46.6518 243.518 46.8326 244.052C47.0154 244.585 47.0485 245.108 46.932 245.622C46.8175 246.134 46.5513 246.599 46.1335 247.017ZM45.4947 246.378C45.8121 246.061 45.9919 245.719 46.0341 245.351C46.0763 244.983 46.014 244.618 45.8472 244.254C45.6805 243.89 45.4425 243.554 45.1331 243.245C44.8237 242.935 44.4863 242.696 44.1207 242.527C43.7551 242.359 43.3874 242.294 43.0178 242.335C42.6482 242.375 42.3047 242.554 41.9873 242.871C41.6699 243.188 41.4911 243.532 41.4509 243.902C41.4108 244.271 41.475 244.639 41.6438 245.004C41.8125 245.37 42.0516 245.707 42.3609 246.017C42.6703 246.326 43.0068 246.564 43.3704 246.731C43.734 246.898 44.0996 246.96 44.4672 246.918C44.8348 246.876 45.1773 246.696 45.4947 246.378ZM52.9201 243.702C52.5766 244.045 52.2371 244.297 51.9016 244.455C51.5681 244.616 51.2477 244.707 50.9404 244.729C50.637 244.752 50.3568 244.73 50.0997 244.666L50.2684 243.702C50.4171 243.722 50.5949 243.737 50.8018 243.747C51.0107 243.759 51.2407 243.72 51.4918 243.63C51.7469 243.539 52.0141 243.354 52.2933 243.075C52.667 242.701 52.8849 242.303 52.9472 241.879C53.0095 241.455 52.8478 241.05 52.4621 240.665L51.5219 239.724L51.4617 239.785C51.4938 239.921 51.5239 240.1 51.5521 240.321C51.5802 240.538 51.5531 240.784 51.4707 241.059C51.3883 241.33 51.1965 241.617 50.8952 241.918C50.5215 242.292 50.0977 242.539 49.6236 242.659C49.1515 242.778 48.6604 242.755 48.1501 242.59C47.6419 242.423 47.1467 242.099 46.6646 241.617C46.1905 241.143 45.8611 240.646 45.6762 240.128C45.4894 239.608 45.4482 239.103 45.5527 238.613C45.6552 238.12 45.9012 237.679 46.2909 237.29C46.5923 236.988 46.8815 236.8 47.1588 236.723C47.436 236.643 47.6851 236.619 47.906 236.651C48.127 236.679 48.3038 236.707 48.4364 236.735L48.5087 236.663L47.7735 235.928L48.4605 235.241L53.2214 240.002C53.6191 240.399 53.8522 240.813 53.9205 241.243C53.9928 241.673 53.9355 242.098 53.7487 242.518C53.5659 242.938 53.2897 243.332 52.9201 243.702ZM50.3528 241.183C50.638 240.898 50.8138 240.591 50.8801 240.264C50.9464 239.936 50.9082 239.599 50.7656 239.251C50.623 238.904 50.3809 238.559 50.0394 238.218C49.706 237.884 49.3614 237.64 49.0059 237.486C48.6503 237.331 48.3018 237.28 47.9603 237.332C47.6188 237.384 47.3034 237.555 47.0141 237.844C46.7128 238.145 46.538 238.473 46.4898 238.826C46.4436 239.178 46.4989 239.533 46.6555 239.89C46.8142 240.246 47.0503 240.58 47.3637 240.894C47.6851 241.215 48.0195 241.449 48.3671 241.596C48.7146 241.738 49.0581 241.78 49.3976 241.722C49.7371 241.66 50.0555 241.48 50.3528 241.183ZM56.5842 239.845C56.4636 239.965 56.3461 240.063 56.2316 240.137C56.1191 240.214 56.0358 240.261 55.9815 240.279L55.5356 239.471C55.7525 239.343 55.9213 239.206 56.0418 239.062C56.1623 238.917 56.2206 238.74 56.2166 238.531C56.2166 238.322 56.1422 238.057 55.9936 237.736L55.7646 237.242L49.4006 234.301L50.172 233.529L55.1378 235.94L55.186 235.892L52.7754 230.926L53.5468 230.154L56.8855 237.422C57.0362 237.75 57.1245 238.057 57.1507 238.344C57.1788 238.634 57.1446 238.903 57.0482 239.152C56.9538 239.399 56.7991 239.63 56.5842 239.845Z" fill="black" fill-opacity="0.7"/>
<path d="M47.5883 269.169L46.841 269.917C46.5819 269.746 46.3157 269.635 46.0425 269.582C45.7713 269.528 45.5021 269.524 45.2349 269.57C44.9678 269.612 44.7116 269.7 44.4666 269.832C44.2215 269.965 43.9965 270.134 43.7916 270.339C43.4179 270.712 43.1739 271.145 43.0594 271.637C42.9469 272.127 42.985 272.646 43.1739 273.192C43.3647 273.737 43.7273 274.276 44.2617 274.81C44.796 275.345 45.3354 275.707 45.8798 275.898C46.4262 276.087 46.9444 276.125 47.4346 276.013C47.9268 275.898 48.3597 275.654 48.7333 275.28C48.9382 275.075 49.1069 274.85 49.2395 274.605C49.3721 274.36 49.4605 274.105 49.5047 273.84C49.5489 273.571 49.5439 273.301 49.4896 273.029C49.4354 272.754 49.3239 272.488 49.1552 272.231L49.9024 271.484C50.1616 271.855 50.3414 272.24 50.4418 272.638C50.5423 273.035 50.5694 273.432 50.5232 273.828C50.475 274.222 50.3584 274.601 50.1736 274.967C49.9908 275.331 49.7437 275.668 49.4324 275.979C48.9061 276.506 48.3094 276.845 47.6425 276.998C46.9756 277.151 46.2876 277.107 45.5784 276.868C44.8693 276.629 44.1893 276.184 43.5385 275.533C42.8876 274.883 42.4427 274.203 42.2036 273.493C41.9646 272.784 41.9214 272.096 42.074 271.429C42.2267 270.762 42.5662 270.166 43.0925 269.64C43.4039 269.328 43.7414 269.081 44.105 268.898C44.4706 268.713 44.8512 268.598 45.247 268.552C45.6407 268.504 46.0365 268.53 46.4342 268.63C46.8299 268.729 47.2146 268.908 47.5883 269.169ZM54.4125 271.047C54.1192 271.341 53.7978 271.552 53.4483 271.68C53.0967 271.807 52.7452 271.835 52.3936 271.765C52.0401 271.692 51.7126 271.505 51.4113 271.204C51.1462 270.939 50.9834 270.672 50.9232 270.403C50.8609 270.131 50.8699 269.861 50.9503 269.592C51.0306 269.323 51.1532 269.06 51.3179 268.803C51.4826 268.541 51.6584 268.289 51.8452 268.046C52.0903 267.729 52.2912 267.474 52.4479 267.281C52.6046 267.084 52.7 266.922 52.7341 266.796C52.7703 266.667 52.7311 266.546 52.6166 266.431L52.5925 266.407C52.2952 266.11 51.9828 265.96 51.6554 265.958C51.33 265.954 51.0035 266.116 50.6761 266.443C50.3366 266.783 50.1448 267.123 50.1006 267.465C50.0564 267.806 50.0795 268.101 50.1699 268.348L49.2538 268.782C49.0931 268.38 49.0349 268 49.0791 267.643C49.1233 267.281 49.2338 266.949 49.4105 266.648C49.5873 266.343 49.7922 266.074 50.0252 265.841C50.1739 265.692 50.3627 265.539 50.5917 265.383C50.8207 265.222 51.0799 265.105 51.3691 265.033C51.6604 264.959 51.9758 264.971 52.3153 265.069C52.6548 265.168 53.0083 265.401 53.376 265.768L56.4253 268.818L55.7142 269.529L55.0875 268.902L55.0513 268.938C55.1035 269.087 55.1307 269.275 55.1327 269.502C55.1347 269.729 55.0824 269.976 54.976 270.243C54.8695 270.51 54.6817 270.778 54.4125 271.047ZM53.8822 270.3C54.1634 270.019 54.3452 269.727 54.4276 269.423C54.5119 269.118 54.516 268.829 54.4396 268.556C54.3653 268.28 54.2317 268.046 54.0389 267.853L53.388 267.203C53.394 267.269 53.3609 267.368 53.2886 267.501C53.2162 267.629 53.1248 267.771 53.0144 267.926C52.9039 268.076 52.7944 268.222 52.6859 268.363C52.5774 268.499 52.4901 268.611 52.4238 268.697C52.2631 268.906 52.1295 269.118 52.023 269.333C51.9165 269.544 51.8673 269.752 51.8754 269.957C51.8834 270.158 51.9778 270.348 52.1586 270.529C52.4057 270.776 52.6839 270.872 52.9933 270.815C53.3026 270.755 53.5989 270.583 53.8822 270.3ZM57.7233 267.52L53.095 262.891L53.782 262.204L54.4811 262.903L54.5293 262.855C54.3846 262.542 54.3515 262.203 54.4298 261.84C54.5082 261.476 54.686 261.156 54.9632 260.879C55.0154 260.826 55.0817 260.762 55.162 260.686C55.2424 260.609 55.3047 260.553 55.3489 260.517L56.072 261.24C56.0419 261.258 55.9776 261.304 55.8792 261.379C55.7808 261.449 55.6843 261.531 55.5899 261.626C55.3649 261.851 55.2113 262.099 55.1289 262.37C55.0465 262.637 55.0365 262.904 55.0988 263.172C55.161 263.435 55.2966 263.671 55.5056 263.88L58.4344 266.809L57.7233 267.52ZM63.3633 261.88L57.1922 255.709L59.3497 253.551C59.7796 253.121 60.2085 252.841 60.6364 252.71C61.0622 252.578 61.468 252.568 61.8537 252.68C62.2374 252.791 62.5799 252.997 62.8812 253.298C63.1464 253.563 63.3181 253.829 63.3965 254.096C63.4768 254.362 63.4909 254.621 63.4387 254.874C63.3884 255.125 63.2991 255.363 63.1705 255.588L63.2308 255.648C63.4316 255.472 63.6878 255.348 63.9991 255.278C64.3105 255.207 64.643 255.22 64.9965 255.317C65.3501 255.413 65.6896 255.624 66.015 255.95C66.3243 256.259 66.5323 256.608 66.6387 256.995C66.7452 257.383 66.7191 257.801 66.5604 258.249C66.4017 258.697 66.0793 259.164 65.5931 259.65L63.3633 261.88ZM63.4477 260.469L64.9302 258.987C65.4184 258.499 65.6705 258.058 65.6865 257.664C65.7026 257.266 65.5751 256.932 65.3039 256.661C65.0949 256.452 64.8489 256.312 64.5656 256.242C64.2804 256.17 63.9861 256.179 63.6827 256.269C63.3774 256.357 63.0901 256.536 62.821 256.805L61.3023 258.324L63.4477 260.469ZM60.6514 257.673L62.0375 256.287C62.2625 256.062 62.4212 255.815 62.5136 255.546C62.608 255.275 62.6281 255.005 62.5739 254.738C62.5216 254.469 62.387 254.226 62.1701 254.009C61.8989 253.738 61.5745 253.602 61.1968 253.602C60.8171 253.6 60.4224 253.804 60.0126 254.214L58.6024 255.624L60.6514 257.673ZM68.7857 256.457L64.1573 251.829L64.8443 251.142L65.5434 251.841L65.5916 251.793C65.447 251.479 65.4138 251.141 65.4922 250.777C65.5705 250.414 65.7483 250.093 66.0255 249.816C66.0778 249.764 66.1441 249.7 66.2244 249.623C66.3048 249.547 66.367 249.491 66.4112 249.455L67.1344 250.178C67.1043 250.196 67.04 250.242 66.9416 250.316C66.8431 250.387 66.7467 250.469 66.6523 250.563C66.4273 250.788 66.2736 251.037 66.1913 251.308C66.1089 251.575 66.0989 251.842 66.1611 252.109C66.2234 252.372 66.359 252.608 66.5679 252.817L69.4968 255.746L68.7857 256.457ZM73.4132 252.047C73.12 252.34 72.7985 252.551 72.449 252.68C72.0975 252.806 71.7459 252.834 71.3944 252.764C71.0408 252.692 70.7134 252.505 70.4121 252.203C70.1469 251.938 69.9842 251.671 69.9239 251.402C69.8616 251.131 69.8707 250.861 69.951 250.591C70.0314 250.322 70.1539 250.059 70.3186 249.802C70.4834 249.541 70.6591 249.289 70.846 249.046C71.091 248.728 71.2919 248.473 71.4486 248.28C71.6053 248.083 71.7007 247.922 71.7349 247.795C71.771 247.666 71.7319 247.545 71.6173 247.43L71.5932 247.406C71.2959 247.109 70.9836 246.959 70.6561 246.957C70.3307 246.953 70.0043 247.115 69.6768 247.443C69.3373 247.782 69.1455 248.122 69.1013 248.464C69.0571 248.805 69.0802 249.1 69.1706 249.347L68.2546 249.781C68.0939 249.379 68.0356 248.999 68.0798 248.642C68.124 248.28 68.2345 247.949 68.4113 247.647C68.588 247.342 68.7929 247.073 69.026 246.84C69.1746 246.691 69.3634 246.539 69.5925 246.382C69.8215 246.221 70.0806 246.105 70.3699 246.032C70.6611 245.958 70.9765 245.97 71.316 246.068C71.6555 246.167 72.0091 246.4 72.3767 246.768L75.4261 249.817L74.715 250.528L74.0882 249.901L74.052 249.937C74.1043 250.086 74.1314 250.274 74.1334 250.501C74.1354 250.728 74.0832 250.975 73.9767 251.242C73.8702 251.509 73.6824 251.778 73.4132 252.047ZM72.8829 251.299C73.1641 251.018 73.3459 250.726 73.4283 250.423C73.5127 250.117 73.5167 249.828 73.4404 249.555C73.366 249.28 73.2324 249.046 73.0396 248.853L72.3887 248.202C72.3948 248.268 72.3616 248.368 72.2893 248.5C72.217 248.629 72.1256 248.77 72.0151 248.925C71.9046 249.076 71.7951 249.221 71.6867 249.362C71.5782 249.499 71.4908 249.61 71.4245 249.696C71.2638 249.905 71.1302 250.117 71.0237 250.332C70.9173 250.543 70.8681 250.751 70.8761 250.956C70.8841 251.157 70.9785 251.348 71.1593 251.528C71.4064 251.776 71.6846 251.871 71.994 251.815C72.3034 251.754 72.5997 251.583 72.8829 251.299ZM74.6509 245.024L77.4352 247.808L76.724 248.519L72.0957 243.891L72.7827 243.204L73.5059 243.927L73.5662 243.867C73.4396 243.523 73.4155 243.169 73.4938 242.806C73.5702 242.44 73.7831 242.083 74.1327 241.733C74.446 241.42 74.7845 241.21 75.1481 241.103C75.5097 240.995 75.8854 241.005 76.2751 241.134C76.6628 241.26 77.0535 241.52 77.4472 241.914L80.3881 244.855L79.677 245.566L76.7843 242.673C76.4207 242.31 76.043 242.121 75.6513 242.107C75.2576 242.091 74.896 242.247 74.5666 242.577C74.3396 242.804 74.1859 243.056 74.1055 243.333C74.0272 243.608 74.0312 243.892 74.1176 244.183C74.204 244.474 74.3817 244.754 74.6509 245.024ZM83.5317 241.904C83.146 242.29 82.7081 242.533 82.2179 242.633C81.7258 242.732 81.2175 242.686 80.6932 242.495C80.1669 242.302 79.6587 241.96 79.1685 241.47C78.6824 240.984 78.3439 240.479 78.1531 239.955C77.9622 239.43 77.918 238.922 78.0205 238.43C78.1229 237.938 78.369 237.497 78.7587 237.107C79.0601 236.806 79.3483 236.618 79.6235 236.544C79.8987 236.465 80.1458 236.443 80.3648 236.477C80.5837 236.507 80.7595 236.537 80.8921 236.565L80.9524 236.504L78.6744 234.226L79.3855 233.515L85.5566 239.686L84.8696 240.373L84.1585 239.662L84.0741 239.747C84.1062 239.883 84.1384 240.064 84.1705 240.289C84.2006 240.512 84.1765 240.763 84.0982 241.042C84.0178 241.32 83.829 241.607 83.5317 241.904ZM82.9893 241.169C83.2746 240.884 83.4413 240.568 83.4895 240.223C83.5357 239.875 83.4775 239.518 83.3147 239.15C83.15 238.78 82.8929 238.421 82.5434 238.071C82.1978 237.726 81.8453 237.474 81.4857 237.315C81.1241 237.154 80.7726 237.1 80.4311 237.152C80.0876 237.203 79.7712 237.372 79.4819 237.662C79.1806 237.963 79.0068 238.291 78.9606 238.647C78.9144 238.998 78.9727 239.356 79.1354 239.72C79.2981 240.079 79.5422 240.422 79.8676 240.747C80.197 241.077 80.5466 241.326 80.9162 241.494C81.2858 241.659 81.6494 241.721 82.007 241.681C82.3646 241.637 82.692 241.466 82.9893 241.169ZM86.6444 231.415L86.1864 232.235C86.0397 232.168 85.877 232.124 85.6982 232.102C85.5194 232.076 85.3306 232.096 85.1317 232.162C84.9329 232.229 84.73 232.365 84.5231 232.572C84.2398 232.855 84.0691 233.157 84.0108 233.476C83.9525 233.792 84.0229 234.049 84.2217 234.248C84.3985 234.424 84.6024 234.5 84.8334 234.474C85.0644 234.447 85.3507 234.332 85.6922 234.127L86.5479 233.609C87.0622 233.295 87.5242 233.141 87.934 233.145C88.3418 233.147 88.7074 233.309 89.0309 233.633C89.296 233.898 89.4567 234.211 89.513 234.573C89.5712 234.933 89.525 235.308 89.3744 235.7C89.2237 236.092 88.9686 236.467 88.609 236.827C88.1369 237.299 87.6438 237.587 87.1295 237.692C86.6152 237.796 86.1201 237.693 85.644 237.381L86.1502 236.538C86.4636 236.722 86.7719 236.788 87.0753 236.733C87.3806 236.677 87.6789 236.503 87.9702 236.212C88.3017 235.881 88.4945 235.547 88.5487 235.212C88.603 234.872 88.5307 234.603 88.3318 234.404C88.1711 234.244 87.9802 234.165 87.7593 234.169C87.5363 234.171 87.2812 234.262 86.9939 234.44L86.0417 235.031C85.5174 235.354 85.0504 235.51 84.6406 235.498C84.2308 235.482 83.8662 235.314 83.5468 234.995C83.2856 234.734 83.1279 234.429 83.0737 234.082C83.0215 233.732 83.0656 233.373 83.2063 233.003C83.3489 232.631 83.5829 232.283 83.9084 231.957C84.3664 231.499 84.8264 231.24 85.2884 231.18C85.7525 231.118 86.2044 231.196 86.6444 231.415Z" fill="black" fill-opacity="0.7"/>
<path d="M135.4 262.812L134.617 263.595L130.711 255.158L131.483 254.387L139.92 258.292L139.136 259.075L132.098 255.725L132.049 255.773L135.4 262.812ZM133.279 260.112L136.437 256.954L137.1 257.617L133.942 260.775L133.279 260.112ZM140.834 257.377L136.206 252.749L136.917 252.038L141.546 256.666L140.834 257.377ZM135.796 251.616C135.658 251.755 135.491 251.827 135.296 251.833C135.103 251.837 134.941 251.773 134.808 251.64C134.675 251.508 134.611 251.345 134.615 251.152C134.621 250.957 134.693 250.79 134.832 250.652C134.971 250.513 135.136 250.442 135.329 250.438C135.524 250.432 135.688 250.495 135.82 250.628C135.953 250.76 136.016 250.924 136.01 251.119C136.006 251.312 135.935 251.477 135.796 251.616ZM142.848 255.364L138.22 250.735L138.907 250.048L139.606 250.747L139.654 250.699C139.509 250.386 139.476 250.047 139.555 249.684C139.633 249.32 139.811 249 140.088 248.723C140.14 248.67 140.206 248.606 140.287 248.53C140.367 248.453 140.429 248.397 140.474 248.361L141.197 249.084C141.167 249.102 141.102 249.148 141.004 249.223C140.905 249.293 140.809 249.375 140.715 249.47C140.49 249.695 140.336 249.943 140.254 250.214C140.171 250.481 140.161 250.748 140.223 251.016C140.286 251.279 140.421 251.515 140.63 251.724L143.559 254.653L142.848 255.364ZM140.545 245.324L146.716 251.495L146.005 252.207L139.834 246.036L140.545 245.324ZM148.019 250.193L143.39 245.565L144.102 244.854L148.73 249.482L148.019 250.193ZM142.981 244.432C142.842 244.57 142.675 244.643 142.48 244.649C142.288 244.653 142.125 244.588 141.992 244.456C141.86 244.323 141.795 244.161 141.799 243.968C141.805 243.773 141.878 243.606 142.016 243.467C142.155 243.329 142.321 243.258 142.514 243.254C142.708 243.248 142.872 243.311 143.005 243.443C143.137 243.576 143.201 243.74 143.195 243.935C143.191 244.127 143.119 244.293 142.981 244.432ZM147.959 244.684L150.743 247.468L150.032 248.179L145.404 243.551L146.091 242.864L146.814 243.587L146.874 243.527C146.748 243.183 146.724 242.83 146.802 242.466C146.878 242.101 147.091 241.743 147.441 241.394C147.754 241.08 148.093 240.87 148.456 240.764C148.818 240.655 149.194 240.665 149.583 240.794C149.971 240.921 150.362 241.181 150.756 241.574L153.696 244.515L152.985 245.226L150.093 242.334C149.729 241.97 149.351 241.781 148.96 241.767C148.566 241.751 148.204 241.908 147.875 242.237C147.648 242.464 147.494 242.716 147.414 242.994C147.335 243.269 147.34 243.552 147.426 243.843C147.512 244.135 147.69 244.415 147.959 244.684ZM157.033 241.372C156.587 241.818 156.104 242.104 155.583 242.231C155.063 242.353 154.538 242.324 154.008 242.143C153.477 241.958 152.975 241.629 152.501 241.155C152.027 240.681 151.695 240.177 151.507 239.642C151.318 239.104 151.278 238.577 151.386 238.063C151.495 237.545 151.758 237.077 152.176 236.659C152.417 236.418 152.695 236.22 153.01 236.065C153.326 235.911 153.67 235.827 154.044 235.815C154.415 235.801 154.806 235.885 155.216 236.065C155.626 236.246 156.047 236.553 156.478 236.984L156.78 237.286L153.212 240.853L152.597 240.239L155.442 237.394C155.181 237.133 154.895 236.952 154.586 236.852C154.279 236.749 153.97 236.734 153.661 236.807C153.354 236.877 153.071 237.041 152.814 237.298C152.531 237.581 152.356 237.896 152.29 238.244C152.224 238.588 152.247 238.926 152.359 239.259C152.472 239.593 152.656 239.887 152.911 240.142L153.321 240.552C153.67 240.902 154.027 241.138 154.39 241.26C154.754 241.379 155.107 241.393 155.451 241.302C155.792 241.21 156.107 241.02 156.394 240.733C156.581 240.546 156.723 240.351 156.822 240.148C156.92 239.941 156.972 239.73 156.976 239.513C156.978 239.294 156.928 239.074 156.828 238.853L157.708 238.359C157.869 238.664 157.952 238.99 157.958 239.338C157.962 239.683 157.888 240.031 157.735 240.38C157.58 240.728 157.346 241.058 157.033 241.372ZM159.621 231.407L159.163 232.227C159.017 232.16 158.854 232.116 158.675 232.094C158.496 232.068 158.307 232.088 158.109 232.154C157.91 232.221 157.707 232.357 157.5 232.564C157.217 232.847 157.046 233.149 156.988 233.468C156.929 233.783 157 234.041 157.199 234.239C157.375 234.416 157.579 234.492 157.81 234.465C158.041 234.439 158.328 234.324 158.669 234.119L159.525 233.601C160.039 233.287 160.501 233.133 160.911 233.137C161.319 233.139 161.684 233.301 162.008 233.625C162.273 233.89 162.434 234.203 162.49 234.565C162.548 234.924 162.502 235.3 162.351 235.692C162.201 236.084 161.945 236.459 161.586 236.819C161.114 237.291 160.621 237.579 160.106 237.684C159.592 237.788 159.097 237.685 158.621 237.373L159.127 236.529C159.44 236.714 159.749 236.78 160.052 236.725C160.357 236.669 160.656 236.495 160.947 236.204C161.279 235.873 161.471 235.539 161.526 235.204C161.58 234.864 161.508 234.595 161.309 234.396C161.148 234.235 160.957 234.157 160.736 234.161C160.513 234.163 160.258 234.253 159.971 234.432L159.019 235.023C158.494 235.346 158.027 235.502 157.617 235.49C157.208 235.474 156.843 235.306 156.524 234.987C156.262 234.726 156.105 234.421 156.051 234.074C155.998 233.724 156.043 233.365 156.183 232.995C156.326 232.623 156.56 232.275 156.885 231.949C157.343 231.491 157.803 231.232 158.265 231.172C158.729 231.11 159.181 231.188 159.621 231.407Z" fill="black" fill-opacity="0.7"/>
<path d="M189.209 261.631L183.038 255.46L186.762 251.736L187.425 252.399L184.448 255.376L186.533 257.461L189.318 254.677L189.981 255.34L187.196 258.124L189.294 260.221L192.319 257.196L192.982 257.859L189.209 261.631ZM192.111 253.161L194.895 255.945L194.184 256.657L189.556 252.028L190.243 251.341L190.966 252.064L191.026 252.004C190.9 251.661 190.876 251.307 190.954 250.943C191.03 250.578 191.243 250.22 191.593 249.871C191.906 249.557 192.245 249.347 192.608 249.241C192.97 249.133 193.345 249.143 193.735 249.271C194.123 249.398 194.514 249.658 194.907 250.052L197.848 252.992L197.137 253.704L194.244 250.811C193.881 250.447 193.503 250.258 193.111 250.244C192.718 250.228 192.356 250.385 192.027 250.714C191.8 250.941 191.646 251.194 191.566 251.471C191.487 251.746 191.491 252.029 191.578 252.321C191.664 252.612 191.842 252.892 192.111 253.161ZM201.185 249.849C200.739 250.295 200.256 250.581 199.735 250.708C199.215 250.83 198.69 250.801 198.159 250.62C197.629 250.435 197.127 250.106 196.653 249.632C196.179 249.158 195.847 248.654 195.658 248.119C195.47 247.581 195.429 247.055 195.538 246.54C195.646 246.022 195.909 245.554 196.327 245.136C196.568 244.895 196.847 244.697 197.162 244.543C197.477 244.388 197.822 244.305 198.195 244.293C198.567 244.278 198.958 244.362 199.368 244.543C199.777 244.723 200.198 245.03 200.63 245.462L200.932 245.763L197.364 249.331L196.749 248.716L199.594 245.871C199.332 245.61 199.047 245.429 198.738 245.329C198.431 245.227 198.122 245.212 197.813 245.284C197.505 245.354 197.223 245.518 196.966 245.775C196.683 246.058 196.508 246.374 196.442 246.721C196.375 247.065 196.399 247.403 196.511 247.737C196.624 248.07 196.807 248.364 197.063 248.62L197.472 249.029C197.822 249.379 198.178 249.615 198.542 249.737C198.906 249.856 199.259 249.87 199.603 249.78C199.944 249.687 200.259 249.497 200.546 249.21C200.733 249.023 200.875 248.828 200.974 248.626C201.072 248.419 201.123 248.207 201.127 247.99C201.129 247.771 201.08 247.551 200.98 247.33L201.86 246.836C202.02 247.141 202.104 247.467 202.11 247.815C202.114 248.16 202.039 248.508 201.887 248.858C201.732 249.205 201.498 249.536 201.185 249.849ZM204.086 246.754L199.458 242.126L200.145 241.439L200.844 242.138L200.892 242.09C200.748 241.776 200.715 241.438 200.793 241.074C200.871 240.711 201.049 240.39 201.326 240.113C201.378 240.061 201.445 239.997 201.525 239.92C201.605 239.844 201.668 239.788 201.712 239.752L202.435 240.475C202.405 240.493 202.341 240.539 202.242 240.613C202.144 240.684 202.047 240.766 201.953 240.86C201.728 241.085 201.574 241.334 201.492 241.605C201.41 241.872 201.4 242.139 201.462 242.406C201.524 242.669 201.66 242.905 201.869 243.114L204.797 246.043L204.086 246.754ZM210.803 243.702C210.459 244.045 210.12 244.297 209.784 244.455C209.451 244.616 209.131 244.707 208.823 244.729C208.52 244.752 208.24 244.73 207.982 244.666L208.151 243.702C208.3 243.722 208.478 243.737 208.685 243.747C208.893 243.759 209.123 243.72 209.375 243.63C209.63 243.539 209.897 243.354 210.176 243.075C210.55 242.702 210.768 242.303 210.83 241.879C210.892 241.455 210.731 241.05 210.345 240.665L209.405 239.724L209.344 239.785C209.377 239.921 209.407 240.1 209.435 240.321C209.463 240.538 209.436 240.784 209.354 241.059C209.271 241.33 209.079 241.617 208.778 241.918C208.404 242.292 207.98 242.539 207.506 242.659C207.034 242.778 206.543 242.755 206.033 242.59C205.525 242.423 205.03 242.099 204.547 241.617C204.073 241.143 203.744 240.646 203.559 240.128C203.372 239.608 203.331 239.103 203.436 238.613C203.538 238.12 203.784 237.679 204.174 237.29C204.475 236.988 204.764 236.8 205.042 236.723C205.319 236.643 205.568 236.619 205.789 236.651C206.01 236.679 206.187 236.707 206.319 236.735L206.391 236.663L205.656 235.928L206.343 235.241L211.104 240.002C211.502 240.399 211.735 240.813 211.803 241.243C211.876 241.673 211.818 242.098 211.632 242.518C211.449 242.938 211.172 243.332 210.803 243.702ZM208.236 241.183C208.521 240.898 208.697 240.591 208.763 240.264C208.829 239.936 208.791 239.599 208.648 239.251C208.506 238.904 208.264 238.559 207.922 238.218C207.589 237.884 207.244 237.64 206.889 237.486C206.533 237.331 206.185 237.28 205.843 237.332C205.502 237.384 205.186 237.555 204.897 237.844C204.596 238.145 204.421 238.473 204.373 238.826C204.326 239.178 204.382 239.533 204.538 239.89C204.697 240.246 204.933 240.58 205.246 240.894C205.568 241.215 205.902 241.449 206.25 241.596C206.597 241.738 206.941 241.78 207.28 241.722C207.62 241.66 207.938 241.48 208.236 241.183ZM214.467 239.845C214.346 239.965 214.229 240.063 214.114 240.137C214.002 240.214 213.919 240.261 213.864 240.279L213.418 239.471C213.635 239.343 213.804 239.206 213.925 239.062C214.045 238.917 214.103 238.74 214.099 238.531C214.099 238.322 214.025 238.057 213.876 237.736L213.647 237.242L207.283 234.301L208.055 233.529L213.021 235.94L213.069 235.892L210.658 230.926L211.43 230.154L214.768 237.422C214.919 237.75 215.007 238.057 215.033 238.344C215.062 238.634 215.027 238.903 214.931 239.152C214.837 239.399 214.682 239.63 214.467 239.845Z" fill="black" fill-opacity="0.7"/>
<path d="M217.412 275.039L216.749 274.376L221.378 269.748L222.041 270.41L220.1 272.351L225.608 277.859L224.861 278.607L219.353 273.098L217.412 275.039ZM229.972 273.689C229.526 274.135 229.042 274.421 228.522 274.548C228.002 274.67 227.477 274.641 226.946 274.46C226.416 274.275 225.914 273.946 225.44 273.472C224.966 272.998 224.634 272.494 224.445 271.959C224.256 271.421 224.216 270.895 224.325 270.38C224.433 269.862 224.696 269.394 225.114 268.976C225.355 268.735 225.634 268.537 225.949 268.383C226.264 268.228 226.609 268.145 226.982 268.132C227.354 268.118 227.745 268.202 228.155 268.383C228.564 268.563 228.985 268.87 229.417 269.302L229.718 269.603L226.151 273.171L225.536 272.556L228.381 269.711C228.119 269.45 227.834 269.269 227.525 269.169C227.217 269.067 226.909 269.052 226.6 269.124C226.292 269.194 226.01 269.358 225.753 269.615C225.47 269.898 225.295 270.214 225.229 270.561C225.162 270.905 225.186 271.243 225.298 271.577C225.411 271.91 225.594 272.204 225.849 272.459L226.259 272.869C226.609 273.219 226.965 273.455 227.329 273.577C227.693 273.696 228.046 273.71 228.39 273.62C228.731 273.527 229.046 273.337 229.333 273.05C229.52 272.863 229.662 272.668 229.761 272.466C229.859 272.259 229.91 272.047 229.914 271.83C229.916 271.611 229.867 271.391 229.767 271.17L230.647 270.676C230.807 270.981 230.891 271.307 230.897 271.655C230.901 272 230.826 272.348 230.674 272.698C230.519 273.045 230.285 273.376 229.972 273.689ZM234.85 268.81C234.416 269.244 233.94 269.516 233.422 269.624C232.903 269.733 232.38 269.691 231.852 269.5C231.324 269.31 230.828 268.983 230.366 268.521C229.896 268.051 229.568 267.55 229.381 267.018C229.194 266.481 229.155 265.956 229.263 265.442C229.372 264.923 229.635 264.455 230.053 264.037C230.378 263.712 230.732 263.479 231.114 263.338C231.495 263.198 231.878 263.153 232.262 263.203C232.645 263.253 233.002 263.403 233.331 263.652L232.62 264.363C232.355 264.206 232.048 264.14 231.698 264.164C231.349 264.184 231.017 264.351 230.704 264.664C230.427 264.941 230.256 265.257 230.192 265.61C230.127 265.96 230.167 266.324 230.312 266.701C230.457 267.075 230.704 267.436 231.053 267.786C231.411 268.144 231.779 268.399 232.156 268.551C232.536 268.702 232.902 268.747 233.256 268.687C233.612 268.625 233.93 268.453 234.211 268.172C234.396 267.987 234.532 267.787 234.618 267.572C234.704 267.357 234.74 267.137 234.723 266.912C234.707 266.687 234.637 266.468 234.513 266.255L235.224 265.544C235.457 265.857 235.603 266.203 235.664 266.581C235.724 266.954 235.689 267.335 235.558 267.723C235.428 268.106 235.192 268.469 234.85 268.81ZM235.54 262.359L238.324 265.143L237.613 265.854L231.442 259.683L232.153 258.972L234.419 261.238L234.479 261.178C234.349 260.83 234.322 260.478 234.398 260.12C234.474 259.759 234.694 259.396 235.058 259.033C235.373 258.717 235.713 258.504 236.076 258.394C236.438 258.281 236.814 258.289 237.203 258.418C237.593 258.542 237.987 258.803 238.385 259.201L241.325 262.142L240.614 262.853L237.722 259.961C237.354 259.593 236.974 259.404 236.583 259.394C236.191 259.38 235.827 259.541 235.492 259.876C235.259 260.109 235.099 260.367 235.013 260.651C234.928 260.932 234.927 261.22 235.01 261.515C235.094 261.809 235.271 262.09 235.54 262.359ZM240.553 257.346L243.338 260.13L242.626 260.841L237.998 256.213L238.685 255.526L239.408 256.249L239.469 256.189C239.342 255.845 239.318 255.492 239.396 255.128C239.473 254.762 239.686 254.405 240.035 254.055C240.348 253.742 240.687 253.532 241.051 253.426C241.412 253.317 241.788 253.327 242.177 253.456C242.565 253.582 242.956 253.842 243.35 254.236L246.291 257.177L245.579 257.888L242.687 254.996C242.323 254.632 241.945 254.443 241.554 254.429C241.16 254.413 240.798 254.57 240.469 254.899C240.242 255.126 240.088 255.378 240.008 255.655C239.93 255.931 239.934 256.214 240.02 256.505C240.106 256.796 240.284 257.077 240.553 257.346ZM249.567 254.094C249.149 254.512 248.683 254.779 248.169 254.895C247.656 255.01 247.133 254.977 246.599 254.796C246.066 254.613 245.561 254.283 245.083 253.805C244.601 253.322 244.267 252.814 244.083 252.28C243.9 251.743 243.866 251.219 243.98 250.707C244.097 250.193 244.364 249.727 244.782 249.309C245.199 248.891 245.665 248.625 246.177 248.51C246.691 248.394 247.215 248.428 247.75 248.613C248.286 248.796 248.795 249.128 249.277 249.61C249.756 250.088 250.085 250.594 250.266 251.129C250.449 251.661 250.482 252.184 250.365 252.699C250.251 253.211 249.985 253.676 249.567 254.094ZM248.928 253.455C249.245 253.138 249.425 252.795 249.467 252.427C249.509 252.06 249.447 251.694 249.28 251.331C249.114 250.967 248.876 250.631 248.566 250.321C248.257 250.012 247.919 249.773 247.554 249.604C247.188 249.435 246.821 249.371 246.451 249.411C246.081 249.451 245.738 249.63 245.42 249.948C245.103 250.265 244.924 250.608 244.884 250.978C244.844 251.348 244.908 251.715 245.077 252.081C245.246 252.447 245.485 252.784 245.794 253.093C246.103 253.403 246.44 253.641 246.804 253.808C247.167 253.974 247.533 254.037 247.9 253.994C248.268 253.952 248.61 253.772 248.928 253.455ZM247.193 243.932L253.364 250.104L252.653 250.815L246.482 244.644L247.193 243.932ZM256.643 247.017C256.225 247.435 255.759 247.702 255.245 247.819C254.733 247.933 254.21 247.9 253.675 247.719C253.143 247.536 252.638 247.206 252.16 246.728C251.677 246.246 251.344 245.738 251.159 245.203C250.976 244.667 250.942 244.143 251.057 243.63C251.173 243.116 251.44 242.65 251.858 242.232C252.276 241.814 252.741 241.548 253.253 241.434C253.768 241.317 254.292 241.351 254.826 241.536C255.363 241.719 255.872 242.051 256.354 242.534C256.832 243.012 257.162 243.518 257.342 244.052C257.525 244.585 257.558 245.108 257.442 245.622C257.327 246.134 257.061 246.599 256.643 247.017ZM256.004 246.378C256.322 246.061 256.502 245.719 256.544 245.351C256.586 244.983 256.524 244.618 256.357 244.254C256.19 243.89 255.952 243.554 255.643 243.245C255.334 242.935 254.996 242.696 254.63 242.527C254.265 242.359 253.897 242.294 253.528 242.335C253.158 242.375 252.814 242.554 252.497 242.871C252.18 243.188 252.001 243.532 251.961 243.902C251.921 244.271 251.985 244.639 252.154 245.004C252.322 245.37 252.561 245.707 252.871 246.017C253.18 246.326 253.517 246.564 253.88 246.731C254.244 246.898 254.609 246.96 254.977 246.918C255.345 246.876 255.687 246.696 256.004 246.378ZM263.43 243.702C263.086 244.045 262.747 244.297 262.411 244.455C262.078 244.616 261.757 244.707 261.45 244.729C261.147 244.752 260.867 244.73 260.609 244.666L260.778 243.702C260.927 243.722 261.105 243.737 261.312 243.747C261.52 243.759 261.75 243.72 262.002 243.63C262.257 243.539 262.524 243.354 262.803 243.075C263.177 242.701 263.395 242.303 263.457 241.879C263.519 241.455 263.358 241.05 262.972 240.665L262.032 239.724L261.971 239.785C262.004 239.921 262.034 240.1 262.062 240.321C262.09 240.538 262.063 240.784 261.98 241.059C261.898 241.33 261.706 241.617 261.405 241.918C261.031 242.292 260.607 242.539 260.133 242.659C259.661 242.778 259.17 242.755 258.66 242.59C258.152 242.423 257.656 242.099 257.174 241.617C256.7 241.143 256.371 240.646 256.186 240.128C255.999 239.608 255.958 239.103 256.062 238.613C256.165 238.12 256.411 237.679 256.801 237.29C257.102 236.988 257.391 236.8 257.669 236.723C257.946 236.643 258.195 236.619 258.416 236.651C258.637 236.679 258.814 236.707 258.946 236.735L259.018 236.663L258.283 235.928L258.97 235.241L263.731 240.002C264.129 240.399 264.362 240.813 264.43 241.243C264.503 241.673 264.445 242.098 264.258 242.518C264.076 242.938 263.799 243.332 263.43 243.702ZM260.863 241.183C261.148 240.898 261.324 240.591 261.39 240.264C261.456 239.936 261.418 239.599 261.275 239.251C261.133 238.904 260.891 238.559 260.549 238.218C260.216 237.884 259.871 237.64 259.516 237.486C259.16 237.331 258.812 237.28 258.47 237.332C258.129 237.384 257.813 237.555 257.524 237.844C257.223 238.145 257.048 238.473 257 238.826C256.953 239.178 257.009 239.533 257.165 239.89C257.324 240.246 257.56 240.58 257.873 240.894C258.195 241.215 258.529 241.449 258.877 241.596C259.224 241.738 259.568 241.78 259.907 241.722C260.247 241.66 260.565 241.48 260.863 241.183ZM267.094 239.845C266.973 239.965 266.856 240.063 266.741 240.137C266.629 240.214 266.546 240.261 266.491 240.279L266.045 239.471C266.262 239.343 266.431 239.206 266.552 239.062C266.672 238.917 266.73 238.74 266.726 238.531C266.726 238.322 266.652 238.057 266.503 237.736L266.274 237.242L259.91 234.301L260.682 233.529L265.648 235.94L265.696 235.892L263.285 230.926L264.057 230.154L267.395 237.422C267.546 237.75 267.634 238.057 267.66 238.344C267.689 238.634 267.654 238.903 267.558 239.152C267.464 239.399 267.309 239.63 267.094 239.845Z" fill="black" fill-opacity="0.7"/>
<path d="M302.727 269.162L301.98 269.909C301.721 269.738 301.454 269.627 301.181 269.574C300.91 269.52 300.641 269.516 300.374 269.562C300.106 269.605 299.85 269.692 299.605 269.825C299.36 269.957 299.135 270.126 298.93 270.331C298.557 270.704 298.313 271.137 298.198 271.63C298.086 272.12 298.124 272.638 298.313 273.184C298.503 273.729 298.866 274.268 299.4 274.802C299.935 275.337 300.474 275.699 301.018 275.89C301.565 276.079 302.083 276.117 302.573 276.005C303.065 275.89 303.498 275.646 303.872 275.273C304.077 275.068 304.246 274.843 304.378 274.598C304.511 274.352 304.599 274.097 304.643 273.832C304.688 273.563 304.683 273.293 304.628 273.022C304.574 272.746 304.463 272.48 304.294 272.223L305.041 271.476C305.3 271.847 305.48 272.232 305.58 272.63C305.681 273.028 305.708 273.424 305.662 273.82C305.614 274.214 305.497 274.594 305.312 274.959C305.13 275.323 304.882 275.66 304.571 275.972C304.045 276.498 303.448 276.837 302.781 276.99C302.114 277.143 301.426 277.1 300.717 276.86C300.008 276.621 299.328 276.176 298.677 275.526C298.026 274.875 297.581 274.195 297.342 273.486C297.103 272.777 297.06 272.089 297.213 271.422C297.365 270.755 297.705 270.158 298.231 269.632C298.543 269.32 298.88 269.073 299.244 268.89C299.609 268.706 299.99 268.59 300.386 268.544C300.779 268.496 301.175 268.522 301.573 268.622C301.969 268.721 302.353 268.901 302.727 269.162ZM309.551 271.04C309.258 271.333 308.936 271.544 308.587 271.672C308.235 271.799 307.884 271.827 307.532 271.757C307.179 271.684 306.851 271.498 306.55 271.196C306.285 270.931 306.122 270.664 306.062 270.395C306 270.124 306.009 269.853 306.089 269.584C306.169 269.315 306.292 269.052 306.457 268.795C306.621 268.534 306.797 268.282 306.984 268.038C307.229 267.721 307.43 267.466 307.587 267.273C307.743 267.076 307.839 266.915 307.873 266.788C307.909 266.659 307.87 266.538 307.755 266.423L307.731 266.399C307.434 266.102 307.122 265.952 306.794 265.95C306.469 265.946 306.142 266.108 305.815 266.435C305.475 266.775 305.283 267.115 305.239 267.457C305.195 267.798 305.218 268.093 305.309 268.34L304.393 268.774C304.232 268.372 304.174 267.992 304.218 267.635C304.262 267.273 304.372 266.942 304.549 266.64C304.726 266.335 304.931 266.066 305.164 265.833C305.313 265.684 305.501 265.531 305.73 265.375C305.959 265.214 306.219 265.098 306.508 265.025C306.799 264.951 307.114 264.963 307.454 265.061C307.793 265.16 308.147 265.393 308.515 265.76L311.564 268.81L310.853 269.521L310.226 268.894L310.19 268.93C310.242 269.079 310.269 269.267 310.271 269.494C310.273 269.721 310.221 269.968 310.115 270.235C310.008 270.502 309.82 270.77 309.551 271.04ZM309.021 270.292C309.302 270.011 309.484 269.719 309.566 269.416C309.651 269.11 309.655 268.821 309.578 268.548C309.504 268.273 309.37 268.038 309.178 267.846L308.527 267.195C308.533 267.261 308.5 267.36 308.427 267.493C308.355 267.622 308.264 267.763 308.153 267.918C308.043 268.069 307.933 268.214 307.825 268.355C307.716 268.491 307.629 268.603 307.562 268.689C307.402 268.898 307.268 269.11 307.162 269.325C307.055 269.536 307.006 269.744 307.014 269.949C307.022 270.15 307.116 270.341 307.297 270.521C307.544 270.768 307.823 270.864 308.132 270.808C308.441 270.747 308.738 270.576 309.021 270.292ZM312.862 267.512L308.234 262.884L308.921 262.197L309.62 262.896L309.668 262.847C309.523 262.534 309.49 262.196 309.569 261.832C309.647 261.468 309.825 261.148 310.102 260.871C310.154 260.819 310.22 260.754 310.301 260.678C310.381 260.602 310.443 260.545 310.488 260.509L311.211 261.232C311.181 261.25 311.116 261.297 311.018 261.371C310.919 261.441 310.823 261.524 310.729 261.618C310.504 261.843 310.35 262.091 310.268 262.362C310.185 262.629 310.175 262.897 310.237 263.164C310.3 263.427 310.435 263.663 310.644 263.872L313.573 266.801L312.862 267.512ZM318.502 261.872L312.331 255.701L314.488 253.543C314.918 253.113 315.347 252.833 315.775 252.703C316.201 252.57 316.607 252.56 316.992 252.672C317.376 252.783 317.719 252.989 318.02 253.29C318.285 253.555 318.457 253.822 318.535 254.089C318.616 254.354 318.63 254.613 318.577 254.866C318.527 255.117 318.438 255.355 318.309 255.58L318.369 255.641C318.57 255.464 318.826 255.34 319.138 255.27C319.449 255.2 319.782 255.213 320.135 255.309C320.489 255.405 320.828 255.616 321.154 255.942C321.463 256.251 321.671 256.6 321.777 256.987C321.884 257.375 321.858 257.793 321.699 258.241C321.54 258.689 321.218 259.156 320.732 259.642L318.502 261.872ZM318.586 260.462L320.069 258.979C320.557 258.491 320.809 258.05 320.825 257.656C320.841 257.259 320.714 256.924 320.443 256.653C320.234 256.444 319.988 256.304 319.704 256.234C319.419 256.162 319.125 256.171 318.821 256.261C318.516 256.35 318.229 256.528 317.96 256.798L316.441 258.316L318.586 260.462ZM315.79 257.665L317.176 256.279C317.401 256.054 317.56 255.807 317.652 255.538C317.747 255.267 317.767 254.998 317.713 254.731C317.66 254.461 317.526 254.218 317.309 254.001C317.038 253.73 316.713 253.595 316.335 253.595C315.956 253.593 315.561 253.796 315.151 254.206L313.741 255.616L315.79 257.665ZM323.924 256.45L319.296 251.821L319.983 251.134L320.682 251.833L320.73 251.785C320.586 251.472 320.553 251.133 320.631 250.77C320.709 250.406 320.887 250.086 321.164 249.808C321.216 249.756 321.283 249.692 321.363 249.616C321.443 249.539 321.506 249.483 321.55 249.447L322.273 250.17C322.243 250.188 322.179 250.234 322.08 250.309C321.982 250.379 321.885 250.461 321.791 250.556C321.566 250.781 321.412 251.029 321.33 251.3C321.248 251.567 321.238 251.834 321.3 252.101C321.362 252.365 321.498 252.601 321.707 252.81L324.635 255.738L323.924 256.45ZM328.552 252.039C328.259 252.332 327.937 252.543 327.588 252.672C327.236 252.798 326.885 252.826 326.533 252.756C326.179 252.684 325.852 252.497 325.551 252.196C325.286 251.93 325.123 251.663 325.063 251.394C325 251.123 325.009 250.853 325.09 250.584C325.17 250.314 325.293 250.051 325.457 249.794C325.622 249.533 325.798 249.281 325.985 249.038C326.23 248.72 326.431 248.465 326.587 248.272C326.744 248.076 326.839 247.914 326.874 247.787C326.91 247.659 326.871 247.537 326.756 247.423L326.732 247.399C326.435 247.101 326.122 246.952 325.795 246.95C325.469 246.946 325.143 247.107 324.815 247.435C324.476 247.774 324.284 248.115 324.24 248.456C324.196 248.798 324.219 249.092 324.309 249.339L323.393 249.773C323.233 249.371 323.174 248.992 323.218 248.634C323.263 248.272 323.373 247.941 323.55 247.64C323.727 247.334 323.932 247.065 324.165 246.832C324.313 246.683 324.502 246.531 324.731 246.374C324.96 246.213 325.219 246.097 325.509 246.024C325.8 245.95 326.115 245.962 326.455 246.061C326.794 246.159 327.148 246.392 327.515 246.76L330.565 249.809L329.854 250.52L329.227 249.893L329.191 249.93C329.243 250.078 329.27 250.266 329.272 250.493C329.274 250.72 329.222 250.967 329.115 251.234C329.009 251.502 328.821 251.77 328.552 252.039ZM328.022 251.292C328.303 251.01 328.485 250.718 328.567 250.415C328.651 250.109 328.655 249.82 328.579 249.547C328.505 249.272 328.371 249.038 328.178 248.845L327.527 248.194C327.533 248.26 327.5 248.36 327.428 248.492C327.356 248.621 327.264 248.763 327.154 248.917C327.043 249.068 326.934 249.214 326.825 249.354C326.717 249.491 326.629 249.602 326.563 249.689C326.402 249.898 326.269 250.109 326.162 250.324C326.056 250.535 326.007 250.743 326.015 250.948C326.023 251.149 326.117 251.34 326.298 251.521C326.545 251.768 326.823 251.863 327.133 251.807C327.442 251.747 327.738 251.575 328.022 251.292ZM329.79 245.016L332.574 247.8L331.863 248.511L327.234 243.883L327.921 243.196L328.645 243.919L328.705 243.859C328.578 243.515 328.554 243.162 328.633 242.798C328.709 242.432 328.922 242.075 329.271 241.725C329.585 241.412 329.923 241.202 330.287 241.096C330.648 240.987 331.024 240.997 331.414 241.126C331.801 241.252 332.192 241.512 332.586 241.906L335.527 244.847L334.816 245.558L331.923 242.665C331.559 242.302 331.182 242.113 330.79 242.099C330.396 242.083 330.035 242.24 329.705 242.569C329.478 242.796 329.325 243.048 329.244 243.325C329.166 243.601 329.17 243.884 329.256 244.175C329.343 244.466 329.52 244.747 329.79 245.016ZM338.67 241.896C338.285 242.282 337.847 242.525 337.357 242.626C336.864 242.724 336.356 242.678 335.832 242.487C335.306 242.294 334.797 241.953 334.307 241.462C333.821 240.976 333.483 240.471 333.292 239.947C333.101 239.422 333.057 238.914 333.159 238.422C333.262 237.93 333.508 237.489 333.897 237.099C334.199 236.798 334.487 236.61 334.762 236.536C335.037 236.457 335.284 236.435 335.503 236.47C335.722 236.5 335.898 236.529 336.031 236.557L336.091 236.497L333.813 234.219L334.524 233.508L340.695 239.679L340.008 240.366L339.297 239.655L339.213 239.739C339.245 239.875 339.277 240.056 339.309 240.281C339.339 240.504 339.315 240.755 339.237 241.035C339.157 241.312 338.968 241.599 338.67 241.896ZM338.128 241.161C338.413 240.876 338.58 240.56 338.628 240.215C338.674 239.867 338.616 239.51 338.453 239.142C338.289 238.773 338.032 238.413 337.682 238.064C337.337 237.718 336.984 237.466 336.624 237.307C336.263 237.146 335.911 237.092 335.57 237.144C335.226 237.195 334.91 237.364 334.621 237.654C334.319 237.955 334.145 238.283 334.099 238.639C334.053 238.991 334.111 239.348 334.274 239.712C334.437 240.071 334.681 240.414 335.006 240.739C335.336 241.069 335.685 241.318 336.055 241.487C336.425 241.651 336.788 241.714 337.146 241.673C337.503 241.629 337.831 241.458 338.128 241.161ZM341.783 231.407L341.325 232.227C341.178 232.161 341.016 232.116 340.837 232.094C340.658 232.068 340.469 232.088 340.27 232.155C340.072 232.221 339.869 232.357 339.662 232.564C339.378 232.848 339.208 233.149 339.149 233.468C339.091 233.784 339.162 234.041 339.36 234.24C339.537 234.416 339.741 234.492 339.972 234.466C340.203 234.44 340.489 234.324 340.831 234.119L341.687 233.601C342.201 233.288 342.663 233.133 343.073 233.137C343.481 233.139 343.846 233.302 344.17 233.625C344.435 233.89 344.595 234.204 344.652 234.565C344.71 234.925 344.664 235.3 344.513 235.692C344.362 236.084 344.107 236.459 343.748 236.819C343.276 237.291 342.782 237.579 342.268 237.684C341.754 237.788 341.259 237.685 340.783 237.373L341.289 236.53C341.602 236.715 341.911 236.78 342.214 236.726C342.519 236.669 342.818 236.496 343.109 236.204C343.44 235.873 343.633 235.539 343.687 235.204C343.742 234.864 343.669 234.595 343.47 234.396C343.31 234.236 343.119 234.157 342.898 234.161C342.675 234.163 342.42 234.254 342.133 234.433L341.18 235.023C340.656 235.347 340.189 235.502 339.779 235.49C339.369 235.474 339.005 235.306 338.685 234.987C338.424 234.726 338.267 234.422 338.212 234.074C338.16 233.724 338.204 233.365 338.345 232.995C338.488 232.624 338.722 232.275 339.047 231.95C339.505 231.492 339.965 231.233 340.427 231.172C340.891 231.11 341.343 231.188 341.783 231.407Z" fill="black" fill-opacity="0.7"/>
</svg>
