<svg width="439" height="251" viewBox="0 0 439 251" fill="none" xmlns="http://www.w3.org/2000/svg">
<path d="M7.97159 3.27273V12H6.91477V4.38068H6.86364L4.73295 5.79545V4.72159L6.91477 3.27273H7.97159ZM13.3281 12.1193C12.6861 12.1193 12.1392 11.9446 11.6875 11.5952C11.2358 11.2429 10.8906 10.733 10.652 10.0653C10.4134 9.39489 10.294 8.58523 10.294 7.63636C10.294 6.69318 10.4134 5.88778 10.652 5.22017C10.8935 4.54972 11.2401 4.03835 11.6918 3.68608C12.1463 3.33097 12.6918 3.15341 13.3281 3.15341C13.9645 3.15341 14.5085 3.33097 14.9602 3.68608C15.4148 4.03835 15.7614 4.54972 16 5.22017C16.2415 5.88778 16.3622 6.69318 16.3622 7.63636C16.3622 8.58523 16.2429 9.39489 16.0043 10.0653C15.7656 10.733 15.4205 11.2429 14.9688 11.5952C14.517 11.9446 13.9702 12.1193 13.3281 12.1193ZM13.3281 11.1818C13.9645 11.1818 14.4588 10.875 14.8111 10.2614C15.1634 9.64773 15.3395 8.77273 15.3395 7.63636C15.3395 6.88068 15.2585 6.23722 15.0966 5.70597C14.9375 5.17472 14.7074 4.76989 14.4062 4.49148C14.108 4.21307 13.7486 4.07386 13.3281 4.07386C12.6974 4.07386 12.2045 4.38494 11.8494 5.0071C11.4943 5.62642 11.3168 6.50284 11.3168 7.63636C11.3168 8.39205 11.3963 9.03409 11.5554 9.5625C11.7145 10.0909 11.9432 10.4929 12.2415 10.7685C12.5426 11.044 12.9048 11.1818 13.3281 11.1818ZM20.8281 12.1193C20.1861 12.1193 19.6392 11.9446 19.1875 11.5952C18.7358 11.2429 18.3906 10.733 18.152 10.0653C17.9134 9.39489 17.794 8.58523 17.794 7.63636C17.794 6.69318 17.9134 5.88778 18.152 5.22017C18.3935 4.54972 18.7401 4.03835 19.1918 3.68608C19.6463 3.33097 20.1918 3.15341 20.8281 3.15341C21.4645 3.15341 22.0085 3.33097 22.4602 3.68608C22.9148 4.03835 23.2614 4.54972 23.5 5.22017C23.7415 5.88778 23.8622 6.69318 23.8622 7.63636C23.8622 8.58523 23.7429 9.39489 23.5043 10.0653C23.2656 10.733 22.9205 11.2429 22.4688 11.5952C22.017 11.9446 21.4702 12.1193 20.8281 12.1193ZM20.8281 11.1818C21.4645 11.1818 21.9588 10.875 22.3111 10.2614C22.6634 9.64773 22.8395 8.77273 22.8395 7.63636C22.8395 6.88068 22.7585 6.23722 22.5966 5.70597C22.4375 5.17472 22.2074 4.76989 21.9062 4.49148C21.608 4.21307 21.2486 4.07386 20.8281 4.07386C20.1974 4.07386 19.7045 4.38494 19.3494 5.0071C18.9943 5.62642 18.8168 6.50284 18.8168 7.63636C18.8168 8.39205 18.8963 9.03409 19.0554 9.5625C19.2145 10.0909 19.4432 10.4929 19.7415 10.7685C20.0426 11.044 20.4048 11.1818 20.8281 11.1818ZM28.3281 12.1193C27.6861 12.1193 27.1392 11.9446 26.6875 11.5952C26.2358 11.2429 25.8906 10.733 25.652 10.0653C25.4134 9.39489 25.294 8.58523 25.294 7.63636C25.294 6.69318 25.4134 5.88778 25.652 5.22017C25.8935 4.54972 26.2401 4.03835 26.6918 3.68608C27.1463 3.33097 27.6918 3.15341 28.3281 3.15341C28.9645 3.15341 29.5085 3.33097 29.9602 3.68608C30.4148 4.03835 30.7614 4.54972 31 5.22017C31.2415 5.88778 31.3622 6.69318 31.3622 7.63636C31.3622 8.58523 31.2429 9.39489 31.0043 10.0653C30.7656 10.733 30.4205 11.2429 29.9688 11.5952C29.517 11.9446 28.9702 12.1193 28.3281 12.1193ZM28.3281 11.1818C28.9645 11.1818 29.4588 10.875 29.8111 10.2614C30.1634 9.64773 30.3395 8.77273 30.3395 7.63636C30.3395 6.88068 30.2585 6.23722 30.0966 5.70597C29.9375 5.17472 29.7074 4.76989 29.4062 4.49148C29.108 4.21307 28.7486 4.07386 28.3281 4.07386C27.6974 4.07386 27.2045 4.38494 26.8494 5.0071C26.4943 5.62642 26.3168 6.50284 26.3168 7.63636C26.3168 8.39205 26.3963 9.03409 26.5554 9.5625C26.7145 10.0909 26.9432 10.4929 27.2415 10.7685C27.5426 11.044 27.9048 11.1818 28.3281 11.1818ZM35.8281 12.1193C35.1861 12.1193 34.6392 11.9446 34.1875 11.5952C33.7358 11.2429 33.3906 10.733 33.152 10.0653C32.9134 9.39489 32.794 8.58523 32.794 7.63636C32.794 6.69318 32.9134 5.88778 33.152 5.22017C33.3935 4.54972 33.7401 4.03835 34.1918 3.68608C34.6463 3.33097 35.1918 3.15341 35.8281 3.15341C36.4645 3.15341 37.0085 3.33097 37.4602 3.68608C37.9148 4.03835 38.2614 4.54972 38.5 5.22017C38.7415 5.88778 38.8622 6.69318 38.8622 7.63636C38.8622 8.58523 38.7429 9.39489 38.5043 10.0653C38.2656 10.733 37.9205 11.2429 37.4688 11.5952C37.017 11.9446 36.4702 12.1193 35.8281 12.1193ZM35.8281 11.1818C36.4645 11.1818 36.9588 10.875 37.3111 10.2614C37.6634 9.64773 37.8395 8.77273 37.8395 7.63636C37.8395 6.88068 37.7585 6.23722 37.5966 5.70597C37.4375 5.17472 37.2074 4.76989 36.9062 4.49148C36.608 4.21307 36.2486 4.07386 35.8281 4.07386C35.1974 4.07386 34.7045 4.38494 34.3494 5.0071C33.9943 5.62642 33.8168 6.50284 33.8168 7.63636C33.8168 8.39205 33.8963 9.03409 34.0554 9.5625C34.2145 10.0909 34.4432 10.4929 34.7415 10.7685C35.0426 11.044 35.4048 11.1818 35.8281 11.1818Z" fill="black" fill-opacity="0.7"/>
<path d="M20.6989 54.6642C20.1136 54.6642 19.5966 54.5605 19.1477 54.3532C18.7017 54.1429 18.3537 53.8546 18.1037 53.4881C17.8537 53.1188 17.7301 52.6983 17.733 52.2267C17.7301 51.8574 17.8026 51.5165 17.9503 51.204C18.098 50.8887 18.2997 50.6259 18.5554 50.4157C18.8139 50.2026 19.1023 50.0676 19.4205 50.0108V49.9597C19.0028 49.8517 18.6705 49.6174 18.4233 49.2566C18.1761 48.8929 18.054 48.4796 18.0568 48.0165C18.054 47.5733 18.1662 47.177 18.3935 46.8276C18.6207 46.4782 18.9332 46.2026 19.331 46.0009C19.7315 45.7992 20.1875 45.6983 20.6989 45.6983C21.2045 45.6983 21.6563 45.7992 22.054 46.0009C22.4517 46.2026 22.7642 46.4782 22.9915 46.8276C23.2216 47.177 23.3381 47.5733 23.3409 48.0165C23.3381 48.4796 23.2116 48.8929 22.9616 49.2566C22.7145 49.6174 22.3864 49.8517 21.9773 49.9597V50.0108C22.2926 50.0676 22.5767 50.2026 22.8295 50.4157C23.0824 50.6259 23.2841 50.8887 23.4347 51.204C23.5852 51.5165 23.6619 51.8574 23.6648 52.2267C23.6619 52.6983 23.5341 53.1188 23.2812 53.4881C23.0312 53.8546 22.6832 54.1429 22.2372 54.3532C21.794 54.5605 21.2813 54.6642 20.6989 54.6642ZM20.6989 53.7267C21.0938 53.7267 21.4347 53.6628 21.7216 53.535C22.0085 53.4071 22.2301 53.2267 22.3864 52.9938C22.5426 52.7608 22.6222 52.4881 22.625 52.1756C22.6222 51.8461 22.5369 51.5549 22.3693 51.302C22.2017 51.0492 21.973 50.8503 21.6832 50.7054C21.3963 50.5605 21.0682 50.4881 20.6989 50.4881C20.3267 50.4881 19.9943 50.5605 19.7017 50.7054C19.4119 50.8503 19.1832 51.0492 19.0156 51.302C18.8509 51.5549 18.7699 51.8461 18.7727 52.1756C18.7699 52.4881 18.8452 52.7608 18.9986 52.9938C19.1548 53.2267 19.3778 53.4071 19.6676 53.535C19.9574 53.6628 20.3011 53.7267 20.6989 53.7267ZM20.6989 49.5847C21.0114 49.5847 21.2884 49.5222 21.5298 49.3972C21.7741 49.2722 21.9659 49.0975 22.1051 48.873C22.2443 48.6486 22.3153 48.3858 22.3182 48.0847C22.3153 47.7892 22.2457 47.5321 22.1094 47.3134C21.973 47.0918 21.7841 46.9213 21.5426 46.802C21.3011 46.6799 21.0199 46.6188 20.6989 46.6188C20.3722 46.6188 20.0866 46.6799 19.8423 46.802C19.598 46.9213 19.4091 47.0918 19.2756 47.3134C19.142 47.5321 19.0767 47.7892 19.0795 48.0847C19.0767 48.3858 19.1435 48.6486 19.2798 48.873C19.419 49.0975 19.6108 49.2722 19.8551 49.3972C20.0994 49.5222 20.3807 49.5847 20.6989 49.5847ZM28.1445 54.6642C27.5025 54.6642 26.9556 54.4895 26.5039 54.1401C26.0522 53.7878 25.707 53.2779 25.4684 52.6103C25.2298 51.9398 25.1104 51.1301 25.1104 50.1813C25.1104 49.2381 25.2298 48.4327 25.4684 47.7651C25.7099 47.0946 26.0565 46.5833 26.5082 46.231C26.9627 45.8759 27.5082 45.6983 28.1445 45.6983C28.7809 45.6983 29.3249 45.8759 29.7766 46.231C30.2312 46.5833 30.5778 47.0946 30.8164 47.7651C31.0579 48.4327 31.1786 49.2381 31.1786 50.1813C31.1786 51.1301 31.0593 51.9398 30.8207 52.6103C30.582 53.2779 30.2369 53.7878 29.7852 54.1401C29.3335 54.4895 28.7866 54.6642 28.1445 54.6642ZM28.1445 53.7267C28.7809 53.7267 29.2752 53.4199 29.6275 52.8063C29.9798 52.1926 30.1559 51.3176 30.1559 50.1813C30.1559 49.4256 30.0749 48.7821 29.913 48.2509C29.7539 47.7196 29.5238 47.3148 29.2227 47.0364C28.9244 46.758 28.565 46.6188 28.1445 46.6188C27.5138 46.6188 27.021 46.9299 26.6658 47.552C26.3107 48.1713 26.1332 49.0478 26.1332 50.1813C26.1332 50.937 26.2127 51.579 26.3718 52.1074C26.5309 52.6358 26.7596 53.0378 27.0579 53.3134C27.359 53.589 27.7212 53.7267 28.1445 53.7267ZM35.6445 54.6642C35.0025 54.6642 34.4556 54.4895 34.0039 54.1401C33.5522 53.7878 33.207 53.2779 32.9684 52.6103C32.7298 51.9398 32.6104 51.1301 32.6104 50.1813C32.6104 49.2381 32.7298 48.4327 32.9684 47.7651C33.2099 47.0946 33.5565 46.5833 34.0082 46.231C34.4627 45.8759 35.0082 45.6983 35.6445 45.6983C36.2809 45.6983 36.8249 45.8759 37.2766 46.231C37.7312 46.5833 38.0778 47.0946 38.3164 47.7651C38.5579 48.4327 38.6786 49.2381 38.6786 50.1813C38.6786 51.1301 38.5593 51.9398 38.3207 52.6103C38.082 53.2779 37.7369 53.7878 37.2852 54.1401C36.8335 54.4895 36.2866 54.6642 35.6445 54.6642ZM35.6445 53.7267C36.2809 53.7267 36.7752 53.4199 37.1275 52.8063C37.4798 52.1926 37.6559 51.3176 37.6559 50.1813C37.6559 49.4256 37.5749 48.7821 37.413 48.2509C37.2539 47.7196 37.0238 47.3148 36.7227 47.0364C36.4244 46.758 36.065 46.6188 35.6445 46.6188C35.0138 46.6188 34.521 46.9299 34.1658 47.552C33.8107 48.1713 33.6332 49.0478 33.6332 50.1813C33.6332 50.937 33.7127 51.579 33.8718 52.1074C34.0309 52.6358 34.2596 53.0378 34.5579 53.3134C34.859 53.589 35.2212 53.7267 35.6445 53.7267Z" fill="black" fill-opacity="0.7"/>
<path d="M20.8011 97.2092C20.4432 97.2035 20.0852 97.1353 19.7273 97.0046C19.3693 96.8739 19.0426 96.6538 18.7472 96.3441C18.4517 96.0316 18.2145 95.6097 18.0355 95.0785C17.8565 94.5444 17.767 93.8739 17.767 93.0671C17.767 92.2944 17.8395 91.6097 17.9844 91.0131C18.1293 90.4137 18.3395 89.9094 18.6151 89.5004C18.8906 89.0884 19.223 88.7759 19.6122 88.5629C20.0043 88.3498 20.446 88.2433 20.9375 88.2433C21.4261 88.2433 21.8608 88.3413 22.2415 88.5373C22.625 88.7305 22.9375 89.0004 23.179 89.3469C23.4205 89.6935 23.5767 90.0927 23.6477 90.5444H22.608C22.5114 90.1523 22.3239 89.8271 22.0455 89.5685C21.767 89.31 21.3977 89.1808 20.9375 89.1808C20.2614 89.1808 19.7287 89.4748 19.3395 90.0629C18.9531 90.6509 18.7585 91.4762 18.7557 92.5387H18.8239C18.983 92.2972 19.1719 92.0913 19.3906 91.9208C19.6122 91.7475 19.8565 91.614 20.1236 91.5202C20.3906 91.4265 20.6733 91.3796 20.9716 91.3796C21.4716 91.3796 21.929 91.5046 22.3438 91.7546C22.7585 92.0018 23.0909 92.3441 23.3409 92.7816C23.5909 93.2163 23.7159 93.7148 23.7159 94.2773C23.7159 94.8171 23.5952 95.3114 23.3537 95.7603C23.1122 96.2063 22.7727 96.5614 22.3352 96.8256C21.9006 97.087 21.3892 97.2148 20.8011 97.2092ZM20.8011 96.2717C21.1591 96.2717 21.4801 96.1822 21.7642 96.0032C22.0511 95.8242 22.277 95.5842 22.4418 95.283C22.6094 94.9819 22.6932 94.6467 22.6932 94.2773C22.6932 93.9165 22.6122 93.5884 22.4503 93.293C22.2912 92.9947 22.071 92.7575 21.7898 92.5813C21.5114 92.4052 21.1932 92.3171 20.8352 92.3171C20.5653 92.3171 20.3139 92.3711 20.081 92.479C19.848 92.5842 19.6435 92.729 19.4673 92.9137C19.294 93.0984 19.1577 93.31 19.0582 93.5487C18.9588 93.7844 18.9091 94.033 18.9091 94.2944C18.9091 94.641 18.9901 94.9648 19.152 95.266C19.3168 95.5671 19.5412 95.81 19.8253 95.9947C20.1122 96.1793 20.4375 96.2717 20.8011 96.2717ZM28.2383 97.2092C27.5962 97.2092 27.0494 97.0344 26.5977 96.685C26.146 96.3327 25.8008 95.8228 25.5621 95.1552C25.3235 94.4847 25.2042 93.6751 25.2042 92.7262C25.2042 91.783 25.3235 90.9776 25.5621 90.31C25.8036 89.6396 26.1502 89.1282 26.6019 88.7759C27.0565 88.4208 27.6019 88.2433 28.2383 88.2433C28.8746 88.2433 29.4187 88.4208 29.8704 88.7759C30.3249 89.1282 30.6715 89.6396 30.9102 90.31C31.1516 90.9776 31.2724 91.783 31.2724 92.7262C31.2724 93.6751 31.1531 94.4847 30.9144 95.1552C30.6758 95.8228 30.3306 96.3327 29.8789 96.685C29.4272 97.0344 28.8803 97.2092 28.2383 97.2092ZM28.2383 96.2717C28.8746 96.2717 29.369 95.9648 29.7212 95.3512C30.0735 94.7376 30.2496 93.8626 30.2496 92.7262C30.2496 91.9705 30.1687 91.3271 30.0067 90.7958C29.8477 90.2646 29.6175 89.8597 29.3164 89.5813C29.0181 89.3029 28.6587 89.1637 28.2383 89.1637C27.6076 89.1637 27.1147 89.4748 26.7596 90.0969C26.4045 90.7163 26.2269 91.5927 26.2269 92.7262C26.2269 93.4819 26.3065 94.1239 26.4656 94.6523C26.6246 95.1808 26.8533 95.5827 27.1516 95.8583C27.4528 96.1339 27.815 96.2717 28.2383 96.2717ZM35.7383 97.2092C35.0962 97.2092 34.5494 97.0344 34.0977 96.685C33.646 96.3327 33.3008 95.8228 33.0621 95.1552C32.8235 94.4847 32.7042 93.6751 32.7042 92.7262C32.7042 91.783 32.8235 90.9776 33.0621 90.31C33.3036 89.6396 33.6502 89.1282 34.1019 88.7759C34.5565 88.4208 35.1019 88.2433 35.7383 88.2433C36.3746 88.2433 36.9187 88.4208 37.3704 88.7759C37.8249 89.1282 38.1715 89.6396 38.4102 90.31C38.6516 90.9776 38.7724 91.783 38.7724 92.7262C38.7724 93.6751 38.6531 94.4847 38.4144 95.1552C38.1758 95.8228 37.8306 96.3327 37.3789 96.685C36.9272 97.0344 36.3803 97.2092 35.7383 97.2092ZM35.7383 96.2717C36.3746 96.2717 36.869 95.9648 37.2212 95.3512C37.5735 94.7376 37.7496 93.8626 37.7496 92.7262C37.7496 91.9705 37.6687 91.3271 37.5067 90.7958C37.3477 90.2646 37.1175 89.8597 36.8164 89.5813C36.5181 89.3029 36.1587 89.1637 35.7383 89.1637C35.1076 89.1637 34.6147 89.4748 34.2596 90.0969C33.9045 90.7163 33.7269 91.5927 33.7269 92.7262C33.7269 93.4819 33.8065 94.1239 33.9656 94.6523C34.1246 95.1808 34.3533 95.5827 34.6516 95.8583C34.9528 96.1339 35.315 96.2717 35.7383 96.2717Z" fill="black" fill-opacity="0.7"/>
<path d="M17.6989 137.845V136.976L21.5341 130.907H22.1648V132.254H21.7386L18.8409 136.839V136.907H24.0057V137.845H17.6989ZM21.8068 139.635V137.581V137.176V130.907H22.8125V139.635H21.8068ZM28.4492 139.754C27.8072 139.754 27.2603 139.579 26.8086 139.23C26.3569 138.878 26.0117 138.368 25.7731 137.7C25.5344 137.03 25.4151 136.22 25.4151 135.271C25.4151 134.328 25.5344 133.523 25.7731 132.855C26.0146 132.184 26.3612 131.673 26.8129 131.321C27.2674 130.966 27.8129 130.788 28.4492 130.788C29.0856 130.788 29.6296 130.966 30.0813 131.321C30.5359 131.673 30.8825 132.184 31.1211 132.855C31.3626 133.523 31.4833 134.328 31.4833 135.271C31.4833 136.22 31.364 137.03 31.1254 137.7C30.8867 138.368 30.5415 138.878 30.0898 139.23C29.6381 139.579 29.0913 139.754 28.4492 139.754ZM28.4492 138.817C29.0856 138.817 29.5799 138.51 29.9322 137.896C30.2844 137.282 30.4606 136.407 30.4606 135.271C30.4606 134.515 30.3796 133.872 30.2177 133.341C30.0586 132.809 29.8285 132.405 29.5273 132.126C29.229 131.848 28.8697 131.709 28.4492 131.709C27.8185 131.709 27.3256 132.02 26.9705 132.642C26.6154 133.261 26.4379 134.138 26.4379 135.271C26.4379 136.027 26.5174 136.669 26.6765 137.197C26.8356 137.726 27.0643 138.128 27.3626 138.403C27.6637 138.679 28.0259 138.817 28.4492 138.817ZM35.9492 139.754C35.3072 139.754 34.7603 139.579 34.3086 139.23C33.8569 138.878 33.5117 138.368 33.2731 137.7C33.0344 137.03 32.9151 136.22 32.9151 135.271C32.9151 134.328 33.0344 133.523 33.2731 132.855C33.5146 132.184 33.8612 131.673 34.3129 131.321C34.7674 130.966 35.3129 130.788 35.9492 130.788C36.5856 130.788 37.1296 130.966 37.5813 131.321C38.0359 131.673 38.3825 132.184 38.6211 132.855C38.8626 133.523 38.9833 134.328 38.9833 135.271C38.9833 136.22 38.864 137.03 38.6254 137.7C38.3867 138.368 38.0415 138.878 37.5898 139.23C37.1381 139.579 36.5913 139.754 35.9492 139.754ZM35.9492 138.817C36.5856 138.817 37.0799 138.51 37.4322 137.896C37.7844 137.282 37.9606 136.407 37.9606 135.271C37.9606 134.515 37.8796 133.872 37.7177 133.341C37.5586 132.809 37.3285 132.405 37.0273 132.126C36.729 131.848 36.3697 131.709 35.9492 131.709C35.3185 131.709 34.8256 132.02 34.4705 132.642C34.1154 133.261 33.9379 134.138 33.9379 135.271C33.9379 136.027 34.0174 136.669 34.1765 137.197C34.3356 137.726 34.5643 138.128 34.8626 138.403C35.1637 138.679 35.5259 138.817 35.9492 138.817Z" fill="black" fill-opacity="0.7"/>
<path d="M17.9034 182.18V181.413L20.7841 178.259C21.1222 177.89 21.4006 177.569 21.6193 177.296C21.8381 177.021 22 176.762 22.1051 176.521C22.2131 176.276 22.267 176.021 22.267 175.754C22.267 175.447 22.1932 175.181 22.0455 174.957C21.9006 174.732 21.7017 174.559 21.4489 174.437C21.196 174.315 20.9119 174.254 20.5966 174.254C20.2614 174.254 19.9688 174.323 19.7188 174.462C19.4716 174.599 19.2798 174.79 19.1435 175.038C19.0099 175.285 18.9432 175.575 18.9432 175.907H17.9375C17.9375 175.396 18.0554 174.947 18.2912 174.56C18.527 174.174 18.848 173.873 19.2543 173.657C19.6634 173.441 20.1222 173.333 20.6307 173.333C21.142 173.333 21.5952 173.441 21.9901 173.657C22.3849 173.873 22.6946 174.164 22.919 174.531C23.1435 174.897 23.2557 175.305 23.2557 175.754C23.2557 176.075 23.1974 176.388 23.081 176.695C22.9673 176.999 22.7685 177.339 22.4844 177.714C22.2031 178.086 21.8125 178.54 21.3125 179.077L19.3523 181.174V181.242H23.4091V182.18H17.9034ZM28.0156 182.299C27.3736 182.299 26.8267 182.124 26.375 181.775C25.9233 181.423 25.5781 180.913 25.3395 180.245C25.1009 179.575 24.9815 178.765 24.9815 177.816C24.9815 176.873 25.1009 176.067 25.3395 175.4C25.581 174.729 25.9276 174.218 26.3793 173.866C26.8338 173.511 27.3793 173.333 28.0156 173.333C28.652 173.333 29.196 173.511 29.6477 173.866C30.1023 174.218 30.4489 174.729 30.6875 175.4C30.929 176.067 31.0497 176.873 31.0497 177.816C31.0497 178.765 30.9304 179.575 30.6918 180.245C30.4531 180.913 30.108 181.423 29.6562 181.775C29.2045 182.124 28.6577 182.299 28.0156 182.299ZM28.0156 181.362C28.652 181.362 29.1463 181.055 29.4986 180.441C29.8509 179.827 30.027 178.952 30.027 177.816C30.027 177.06 29.946 176.417 29.7841 175.886C29.625 175.354 29.3949 174.95 29.0938 174.671C28.7955 174.393 28.4361 174.254 28.0156 174.254C27.3849 174.254 26.892 174.565 26.5369 175.187C26.1818 175.806 26.0043 176.683 26.0043 177.816C26.0043 178.572 26.0838 179.214 26.2429 179.742C26.402 180.271 26.6307 180.673 26.929 180.948C27.2301 181.224 27.5923 181.362 28.0156 181.362ZM35.5156 182.299C34.8736 182.299 34.3267 182.124 33.875 181.775C33.4233 181.423 33.0781 180.913 32.8395 180.245C32.6009 179.575 32.4815 178.765 32.4815 177.816C32.4815 176.873 32.6009 176.067 32.8395 175.4C33.081 174.729 33.4276 174.218 33.8793 173.866C34.3338 173.511 34.8793 173.333 35.5156 173.333C36.152 173.333 36.696 173.511 37.1477 173.866C37.6023 174.218 37.9489 174.729 38.1875 175.4C38.429 176.067 38.5497 176.873 38.5497 177.816C38.5497 178.765 38.4304 179.575 38.1918 180.245C37.9531 180.913 37.608 181.423 37.1562 181.775C36.7045 182.124 36.1577 182.299 35.5156 182.299ZM35.5156 181.362C36.152 181.362 36.6463 181.055 36.9986 180.441C37.3509 179.827 37.527 178.952 37.527 177.816C37.527 177.06 37.446 176.417 37.2841 175.886C37.125 175.354 36.8949 174.95 36.5938 174.671C36.2955 174.393 35.9361 174.254 35.5156 174.254C34.8849 174.254 34.392 174.565 34.0369 175.187C33.6818 175.806 33.5043 176.683 33.5043 177.816C33.5043 178.572 33.5838 179.214 33.7429 179.742C33.902 180.271 34.1307 180.673 34.429 180.948C34.7301 181.224 35.0923 181.362 35.5156 181.362Z" fill="black" fill-opacity="0.7"/>
<path d="M35.75 224.844C35.108 224.844 34.5611 224.669 34.1094 224.32C33.6577 223.968 33.3125 223.458 33.0739 222.79C32.8352 222.119 32.7159 221.31 32.7159 220.361C32.7159 219.418 32.8352 218.612 33.0739 217.945C33.3153 217.274 33.6619 216.763 34.1136 216.411C34.5682 216.056 35.1136 215.878 35.75 215.878C36.3864 215.878 36.9304 216.056 37.3821 216.411C37.8366 216.763 38.1832 217.274 38.4219 217.945C38.6634 218.612 38.7841 219.418 38.7841 220.361C38.7841 221.31 38.6648 222.119 38.4261 222.79C38.1875 223.458 37.8423 223.968 37.3906 224.32C36.9389 224.669 36.392 224.844 35.75 224.844ZM35.75 223.906C36.3864 223.906 36.8807 223.6 37.233 222.986C37.5852 222.372 37.7614 221.497 37.7614 220.361C37.7614 219.605 37.6804 218.962 37.5185 218.431C37.3594 217.899 37.1293 217.494 36.8281 217.216C36.5298 216.938 36.1705 216.798 35.75 216.798C35.1193 216.798 34.6264 217.11 34.2713 217.732C33.9162 218.351 33.7386 219.227 33.7386 220.361C33.7386 221.117 33.8182 221.759 33.9773 222.287C34.1364 222.816 34.3651 223.218 34.6634 223.493C34.9645 223.769 35.3267 223.906 35.75 223.906Z" fill="black" fill-opacity="0.7"/>
<line x1="45" y1="5.5" x2="347" y2="5.5" stroke="#00001A" stroke-opacity="0.15" stroke-dasharray="2"/>
<line x1="45" y1="48.7002" x2="347" y2="48.7002" stroke="#00001A" stroke-opacity="0.15" stroke-dasharray="2"/>
<line x1="45" y1="91.8999" x2="347" y2="91.8999" stroke="#00001A" stroke-opacity="0.15" stroke-dasharray="2"/>
<line x1="45" y1="135.1" x2="347" y2="135.1" stroke="#00001A" stroke-opacity="0.15" stroke-dasharray="2"/>
<line x1="45" y1="178.3" x2="347" y2="178.3" stroke="#00001A" stroke-opacity="0.15" stroke-dasharray="2"/>
<line x1="45" y1="221.5" x2="347" y2="221.5" stroke="#00001A" stroke-opacity="0.3"/>
<line x1="44.5" y1="222" x2="44.5" y2="6" stroke="#00001A" stroke-opacity="0.15" stroke-dasharray="2"/>
<line x1="94.8359" y1="222" x2="94.8359" y2="6" stroke="#00001A" stroke-opacity="0.15" stroke-dasharray="2"/>
<line x1="145.164" y1="222" x2="145.164" y2="6" stroke="#00001A" stroke-opacity="0.15" stroke-dasharray="2"/>
<line x1="195.5" y1="222" x2="195.5" y2="6" stroke="#00001A" stroke-opacity="0.15" stroke-dasharray="2"/>
<line x1="245.836" y1="222" x2="245.836" y2="6" stroke="#00001A" stroke-opacity="0.15" stroke-dasharray="2"/>
<line x1="296.168" y1="222" x2="296.168" y2="6" stroke="#00001A" stroke-opacity="0.15" stroke-dasharray="2"/>
<line x1="346.5" y1="222" x2="346.5" y2="6" stroke="#00001A" stroke-opacity="0.15" stroke-dasharray="2"/>
<g opacity="0.2">
<rect opacity="0.6" x="55" y="6" width="25" height="215.362" fill="#009D97"/>
<rect x="55" y="6" width="25" height="3" fill="#009D97"/>
</g>
<rect opacity="0.6" x="55" y="69" width="25" height="152" fill="#009D97"/>
<rect x="55" y="66" width="25" height="3" fill="#009D97"/>
<path d="M58.7074 62.5085V61.7841L61.9034 56.7273H62.429V57.8494H62.0739L59.6591 61.6705V61.7273H63.9631V62.5085H58.7074ZM62.1307 64V62.2884V61.951V56.7273H62.9688V64H62.1307ZM67.5666 64.0994C67.1499 64.0994 66.7747 64.0166 66.4409 63.8509C66.1071 63.6851 65.8395 63.4579 65.6383 63.169C65.4371 62.8802 65.327 62.5511 65.3081 62.1818H66.1603C66.1935 62.5109 66.3426 62.7831 66.6078 62.9986C66.8753 63.2116 67.1949 63.3182 67.5666 63.3182C67.8649 63.3182 68.13 63.2483 68.362 63.1087C68.5964 62.969 68.7799 62.7772 68.9125 62.5334C69.0474 62.2872 69.1149 62.009 69.1149 61.6989C69.1149 61.3816 69.045 61.0987 68.9054 60.8501C68.7681 60.5992 68.5787 60.4015 68.3372 60.2571C68.0957 60.1127 67.8199 60.0393 67.5098 60.0369C67.2872 60.0346 67.0588 60.0689 66.8244 60.1399C66.59 60.2086 66.3971 60.2973 66.2456 60.4062L65.4217 60.3068L65.862 56.7273H69.6404V57.5085H66.6007L66.345 59.6534H66.3876C66.5368 59.535 66.7238 59.4368 66.9487 59.3587C67.1736 59.2805 67.408 59.2415 67.6518 59.2415C68.0969 59.2415 68.4934 59.348 68.8414 59.5611C69.1918 59.7718 69.4664 60.0606 69.6653 60.4276C69.8665 60.7945 69.9672 61.2135 69.9672 61.6847C69.9672 62.1487 69.863 62.563 69.6547 62.9276C69.4487 63.2898 69.1646 63.5762 68.8024 63.7869C68.4402 63.9953 68.0282 64.0994 67.5666 64.0994ZM73.75 64.0994C73.215 64.0994 72.7592 63.9538 72.3828 63.6626C72.0064 63.3691 71.7188 62.9441 71.5199 62.3878C71.321 61.8291 71.2216 61.1544 71.2216 60.3636C71.2216 59.5777 71.321 58.9065 71.5199 58.3501C71.7211 57.7914 72.0099 57.3653 72.3864 57.0717C72.7652 56.7758 73.2197 56.6278 73.75 56.6278C74.2803 56.6278 74.7337 56.7758 75.1101 57.0717C75.4889 57.3653 75.7777 57.7914 75.9766 58.3501C76.1778 58.9065 76.2784 59.5777 76.2784 60.3636C76.2784 61.1544 76.179 61.8291 75.9801 62.3878C75.7812 62.9441 75.4936 63.3691 75.1172 63.6626C74.7408 63.9538 74.285 64.0994 73.75 64.0994ZM73.75 63.3182C74.2803 63.3182 74.6922 63.0625 74.9858 62.5511C75.2794 62.0398 75.4261 61.3106 75.4261 60.3636C75.4261 59.7339 75.3587 59.1977 75.2237 58.755C75.0911 58.3123 74.8994 57.9749 74.6484 57.7429C74.3999 57.5109 74.1004 57.3949 73.75 57.3949C73.2244 57.3949 72.8137 57.6541 72.5178 58.1726C72.2218 58.6887 72.0739 59.419 72.0739 60.3636C72.0739 60.9934 72.1402 61.5284 72.2727 61.9688C72.4053 62.4091 72.5959 62.7441 72.8445 62.9737C73.0954 63.2034 73.3973 63.3182 73.75 63.3182Z" fill="black"/>
<g opacity="0.2">
<rect opacity="0.6" x="82.1094" y="6" width="25" height="215.362" fill="#FF928A"/>
<rect x="82.1094" y="6" width="25" height="3" fill="#FF928A"/>
</g>
<rect opacity="0.6" x="82.3281" y="132" width="25" height="89.2701" fill="#FF928A"/>
<rect x="82.3281" y="132" width="25" height="3" fill="#FF928A"/>
<path d="M89.2152 128.509V127.784L92.4112 122.727H92.9368V123.849H92.5817L90.1669 127.67V127.727H94.4709V128.509H89.2152ZM92.6385 130V128.288V127.951V122.727H93.4766V130H92.6385ZM98.1738 130.099C97.6388 130.099 97.1831 129.954 96.8066 129.663C96.4302 129.369 96.1426 128.944 95.9437 128.388C95.7449 127.829 95.6454 127.154 95.6454 126.364C95.6454 125.578 95.7449 124.906 95.9437 124.35C96.1449 123.791 96.4338 123.365 96.8102 123.072C97.189 122.776 97.6435 122.628 98.1738 122.628C98.7041 122.628 99.1575 122.776 99.5339 123.072C99.9127 123.365 100.202 123.791 100.4 124.35C100.602 124.906 100.702 125.578 100.702 126.364C100.702 127.154 100.603 127.829 100.404 128.388C100.205 128.944 99.9174 129.369 99.541 129.663C99.1646 129.954 98.7089 130.099 98.1738 130.099ZM98.1738 129.318C98.7041 129.318 99.1161 129.062 99.4096 128.551C99.7032 128.04 99.85 127.311 99.85 126.364C99.85 125.734 99.7825 125.198 99.6475 124.755C99.515 124.312 99.3232 123.975 99.0723 123.743C98.8237 123.511 98.5242 123.395 98.1738 123.395C97.6483 123.395 97.2375 123.654 96.9416 124.173C96.6457 124.689 96.4977 125.419 96.4977 126.364C96.4977 126.993 96.564 127.528 96.6966 127.969C96.8291 128.409 97.0197 128.744 97.2683 128.974C97.5192 129.203 97.8211 129.318 98.1738 129.318Z" fill="black" fill-opacity="0.7"/>
<g opacity="0.2">
<rect opacity="0.6" x="109.219" y="6" width="25" height="215.362" fill="#3CC3DF"/>
<rect x="109.219" y="6" width="25" height="3" fill="#3CC3DF"/>
</g>
<rect opacity="0.6" x="109.219" y="126.246" width="25" height="94.4787" fill="#3CC3DF"/>
<rect x="109.219" y="126.246" width="25" height="3" fill="#3CC3DF"/>
<path d="M115.332 122.754V122.03L118.528 116.973H119.054V118.095H118.699L116.284 121.916V121.973H120.588V122.754H115.332ZM118.756 124.246V122.534V122.197V116.973H119.594V124.246H118.756ZM121.748 122.754V122.03L124.944 116.973H125.47V118.095H125.115L122.7 121.916V121.973H127.004V122.754H121.748ZM125.172 124.246V122.534V122.197V116.973H126.01V124.246H125.172Z" fill="black" fill-opacity="0.7"/>
<g opacity="0.2">
<rect opacity="0.6" x="156.336" y="6" width="25" height="215.362" fill="#009D97"/>
<rect x="156.336" y="6" width="25" height="3" fill="#009D97"/>
</g>
<rect opacity="0.6" x="156" y="92" width="25" height="128.632" fill="#009D97"/>
<rect x="156" y="92" width="25" height="3" fill="#009D97"/>
<path d="M163.552 90L166.805 83.5653V83.5085H163.055V82.7273H167.714V83.5511L164.476 90H163.552ZM171.256 82.6278C171.554 82.6302 171.852 82.687 172.151 82.7983C172.449 82.9096 172.721 83.0942 172.967 83.3523C173.214 83.608 173.411 83.9571 173.56 84.3999C173.71 84.8426 173.784 85.3977 173.784 86.0653C173.784 86.7116 173.723 87.2857 173.599 87.7876C173.479 88.2872 173.304 88.7086 173.074 89.0518C172.847 89.3951 172.57 89.6555 172.243 89.8331C171.919 90.0107 171.552 90.0994 171.142 90.0994C170.735 90.0994 170.371 90.0189 170.052 89.858C169.735 89.6946 169.474 89.4685 169.271 89.1797C169.069 88.8885 168.94 88.5511 168.884 88.1676H169.75C169.828 88.5014 169.983 88.7772 170.215 88.995C170.45 89.2105 170.759 89.3182 171.142 89.3182C171.703 89.3182 172.146 89.0732 172.47 88.5831C172.797 88.093 172.96 87.4006 172.96 86.5057H172.903C172.771 86.7045 172.613 86.8762 172.431 87.0206C172.249 87.165 172.046 87.2763 171.824 87.3544C171.601 87.4325 171.365 87.4716 171.114 87.4716C170.697 87.4716 170.315 87.3686 169.967 87.1626C169.621 86.9543 169.344 86.669 169.136 86.3068C168.93 85.9422 168.827 85.5256 168.827 85.0568C168.827 84.6117 168.926 84.2045 169.125 83.8352C169.326 83.4635 169.608 83.1676 169.97 82.9474C170.335 82.7273 170.763 82.6207 171.256 82.6278ZM171.256 83.4091C170.957 83.4091 170.689 83.4837 170.45 83.6328C170.213 83.7796 170.025 83.9785 169.885 84.2294C169.748 84.478 169.679 84.7538 169.679 85.0568C169.679 85.3598 169.745 85.6357 169.878 85.8842C170.013 86.1304 170.196 86.3269 170.428 86.4737C170.663 86.6181 170.929 86.6903 171.227 86.6903C171.452 86.6903 171.662 86.6465 171.856 86.5589C172.05 86.469 172.219 86.3471 172.364 86.1932C172.51 86.0369 172.625 85.8606 172.708 85.6641C172.791 85.4652 172.832 85.258 172.832 85.0426C172.832 84.7585 172.764 84.4922 172.626 84.2436C172.491 83.995 172.304 83.7938 172.065 83.6399C171.829 83.486 171.559 83.4091 171.256 83.4091Z" fill="black"/>
<g opacity="0.2">
<rect opacity="0.6" x="183.445" y="6" width="25" height="215.362" fill="#FF928A"/>
<rect x="183.445" y="6" width="25" height="3" fill="#FF928A"/>
</g>
<rect opacity="0.6" x="183.445" y="109.068" width="25" height="111.657" fill="#FF928A"/>
<rect x="183.445" y="109.068" width="25" height="3" fill="#FF928A"/>
<path d="M192.002 107.167C191.585 107.167 191.21 107.084 190.876 106.919C190.543 106.753 190.275 106.526 190.074 106.237C189.873 105.948 189.763 105.619 189.744 105.25H190.596C190.629 105.579 190.778 105.851 191.043 106.066C191.311 106.28 191.63 106.386 192.002 106.386C192.3 106.386 192.566 106.316 192.798 106.177C193.032 106.037 193.215 105.845 193.348 105.601C193.483 105.355 193.55 105.077 193.55 104.767C193.55 104.449 193.481 104.167 193.341 103.918C193.204 103.667 193.014 103.469 192.773 103.325C192.531 103.181 192.255 103.107 191.945 103.105C191.723 103.102 191.494 103.137 191.26 103.208C191.026 103.276 190.833 103.365 190.681 103.474L189.857 103.375L190.298 99.7951H194.076V100.576H191.036L190.781 102.721H190.823C190.972 102.603 191.159 102.505 191.384 102.427C191.609 102.348 191.844 102.309 192.087 102.309C192.532 102.309 192.929 102.416 193.277 102.629C193.627 102.84 193.902 103.128 194.101 103.495C194.302 103.862 194.403 104.281 194.403 104.753C194.403 105.217 194.299 105.631 194.09 105.995C193.884 106.358 193.6 106.644 193.238 106.855C192.876 107.063 192.464 107.167 192.002 107.167ZM195.813 107.068V106.429L198.214 103.801C198.496 103.493 198.728 103.226 198.91 102.998C199.092 102.769 199.227 102.553 199.315 102.352C199.405 102.148 199.45 101.935 199.45 101.713C199.45 101.457 199.388 101.236 199.265 101.049C199.144 100.862 198.979 100.717 198.768 100.615C198.557 100.514 198.32 100.463 198.058 100.463C197.778 100.463 197.535 100.521 197.326 100.637C197.12 100.75 196.96 100.91 196.847 101.116C196.735 101.322 196.68 101.564 196.68 101.841H195.842C195.842 101.414 195.94 101.04 196.137 100.718C196.333 100.396 196.601 100.146 196.939 99.9656C197.28 99.7857 197.662 99.6957 198.086 99.6957C198.512 99.6957 198.89 99.7857 199.219 99.9656C199.548 100.146 199.806 100.388 199.993 100.694C200.18 100.999 200.274 101.339 200.274 101.713C200.274 101.98 200.225 102.242 200.128 102.498C200.033 102.751 199.868 103.034 199.631 103.346C199.396 103.656 199.071 104.035 198.654 104.483L197.021 106.23V106.287H200.401V107.068H195.813Z" fill="black" fill-opacity="0.7"/>
<g opacity="0.2">
<rect opacity="0.6" x="210.555" y="6" width="25" height="215.362" fill="#3CC3DF"/>
<rect x="210.555" y="6" width="25" height="3" fill="#3CC3DF"/>
</g>
<rect opacity="0.6" x="210.555" y="111.215" width="25" height="109.509" fill="#3CC3DF"/>
<rect x="210.555" y="111.215" width="25" height="3" fill="#3CC3DF"/>
<path d="M219.885 109.314C219.468 109.314 219.093 109.231 218.759 109.066C218.425 108.9 218.158 108.673 217.957 108.384C217.755 108.095 217.645 107.766 217.626 107.397H218.479C218.512 107.726 218.661 107.998 218.926 108.213C219.194 108.426 219.513 108.533 219.885 108.533C220.183 108.533 220.448 108.463 220.68 108.324C220.915 108.184 221.098 107.992 221.231 107.748C221.366 107.502 221.433 107.224 221.433 106.914C221.433 106.596 221.363 106.314 221.224 106.065C221.086 105.814 220.897 105.616 220.656 105.472C220.414 105.328 220.138 105.254 219.828 105.252C219.606 105.249 219.377 105.284 219.143 105.355C218.908 105.423 218.715 105.512 218.564 105.621L217.74 105.522L218.18 101.942H221.959V102.723H218.919L218.663 104.868H218.706C218.855 104.75 219.042 104.652 219.267 104.574C219.492 104.495 219.726 104.456 219.97 104.456C220.415 104.456 220.812 104.563 221.16 104.776C221.51 104.987 221.785 105.275 221.984 105.642C222.185 106.009 222.286 106.428 222.286 106.9C222.286 107.364 222.181 107.778 221.973 108.142C221.767 108.505 221.483 108.791 221.121 109.002C220.759 109.21 220.347 109.314 219.885 109.314ZM226.253 101.942V109.215H225.372V102.865H225.33L223.554 104.044V103.15L225.372 101.942H226.253Z" fill="black" fill-opacity="0.7"/>
<g opacity="0.2">
<rect opacity="0.6" x="257.664" y="6" width="25" height="215.362" fill="#009D97"/>
<rect x="257.664" y="6" width="25" height="3" fill="#009D97"/>
</g>
<rect opacity="0.6" x="257.664" y="115.509" width="25" height="105.215" fill="#009D97"/>
<rect x="257.664" y="115.509" width="25" height="3" fill="#009D97"/>
<path d="M263.778 112.018V111.293L266.974 106.237H267.499V107.359H267.144L264.729 111.18V111.237H269.033V112.018H263.778ZM267.201 113.509V111.798V111.46V106.237H268.039V113.509H267.201ZM272.68 106.137C272.978 106.139 273.276 106.196 273.574 106.308C273.873 106.419 274.145 106.604 274.391 106.862C274.637 107.117 274.835 107.466 274.984 107.909C275.133 108.352 275.208 108.907 275.208 109.575C275.208 110.221 275.146 110.795 275.023 111.297C274.903 111.796 274.727 112.218 274.498 112.561C274.27 112.904 273.993 113.165 273.667 113.342C273.342 113.52 272.975 113.609 272.566 113.609C272.159 113.609 271.795 113.528 271.476 113.367C271.158 113.204 270.898 112.978 270.694 112.689C270.493 112.398 270.364 112.06 270.307 111.677H271.174C271.252 112.011 271.407 112.287 271.639 112.504C271.873 112.72 272.182 112.827 272.566 112.827C273.127 112.827 273.57 112.582 273.894 112.092C274.221 111.602 274.384 110.91 274.384 110.015H274.327C274.195 110.214 274.037 110.385 273.855 110.53C273.673 110.674 273.47 110.786 273.248 110.864C273.025 110.942 272.788 110.981 272.537 110.981C272.121 110.981 271.738 110.878 271.39 110.672C271.045 110.464 270.768 110.178 270.559 109.816C270.354 109.452 270.251 109.035 270.251 108.566C270.251 108.121 270.35 107.714 270.549 107.345C270.75 106.973 271.032 106.677 271.394 106.457C271.759 106.237 272.187 106.13 272.68 106.137ZM272.68 106.918C272.381 106.918 272.113 106.993 271.873 107.142C271.637 107.289 271.448 107.488 271.309 107.739C271.171 107.987 271.103 108.263 271.103 108.566C271.103 108.869 271.169 109.145 271.302 109.394C271.437 109.64 271.62 109.836 271.852 109.983C272.086 110.127 272.353 110.2 272.651 110.2C272.876 110.2 273.086 110.156 273.28 110.068C273.474 109.978 273.643 109.856 273.787 109.702C273.934 109.546 274.049 109.37 274.132 109.173C274.215 108.974 274.256 108.767 274.256 108.552C274.256 108.268 274.188 108.001 274.05 107.753C273.915 107.504 273.728 107.303 273.489 107.149C273.252 106.995 272.983 106.918 272.68 106.918Z" fill="black" fill-opacity="0.7"/>
<g opacity="0.2">
<rect opacity="0.6" x="284.773" y="6" width="25" height="215.362" fill="#FF928A"/>
<rect x="284.773" y="6" width="25" height="3" fill="#FF928A"/>
</g>
<rect opacity="0.6" x="284.773" y="152.013" width="25" height="68.7118" fill="#FF928A"/>
<rect x="284.773" y="152.013" width="25" height="3" fill="#FF928A"/>
<path d="M293.515 150.112C293.046 150.112 292.628 150.032 292.261 149.871C291.897 149.71 291.607 149.486 291.391 149.199C291.178 148.911 291.062 148.576 291.043 148.195H291.938C291.957 148.429 292.038 148.631 292.18 148.802C292.322 148.97 292.508 149.1 292.737 149.192C292.967 149.285 293.221 149.331 293.501 149.331C293.813 149.331 294.09 149.276 294.332 149.168C294.573 149.059 294.763 148.907 294.9 148.713C295.037 148.519 295.106 148.294 295.106 148.038C295.106 147.771 295.04 147.535 294.907 147.332C294.774 147.126 294.58 146.965 294.325 146.849C294.069 146.733 293.756 146.675 293.387 146.675H292.805V145.893H293.387C293.676 145.893 293.929 145.841 294.147 145.737C294.367 145.633 294.539 145.486 294.662 145.297C294.787 145.107 294.85 144.885 294.85 144.629C294.85 144.383 294.796 144.169 294.687 143.986C294.578 143.804 294.424 143.662 294.225 143.56C294.029 143.458 293.797 143.408 293.529 143.408C293.278 143.408 293.041 143.454 292.819 143.546C292.599 143.636 292.419 143.767 292.279 143.94C292.139 144.111 292.064 144.317 292.052 144.558H291.2C291.214 144.177 291.329 143.843 291.544 143.557C291.759 143.268 292.041 143.043 292.389 142.882C292.74 142.721 293.124 142.641 293.543 142.641C293.993 142.641 294.379 142.732 294.701 142.914C295.023 143.094 295.27 143.332 295.443 143.628C295.616 143.924 295.702 144.243 295.702 144.587C295.702 144.996 295.595 145.345 295.379 145.634C295.166 145.923 294.876 146.123 294.509 146.234V146.291C294.969 146.367 295.327 146.562 295.585 146.877C295.843 147.19 295.972 147.577 295.972 148.038C295.972 148.434 295.865 148.789 295.649 149.104C295.436 149.416 295.145 149.662 294.776 149.842C294.406 150.022 293.986 150.112 293.515 150.112ZM297.425 150.013V149.373L299.825 146.746C300.107 146.438 300.339 146.17 300.521 145.943C300.704 145.713 300.839 145.498 300.926 145.297C301.016 145.093 301.061 144.88 301.061 144.658C301.061 144.402 301 144.181 300.876 143.994C300.756 143.806 300.59 143.662 300.379 143.56C300.169 143.458 299.932 143.408 299.669 143.408C299.39 143.408 299.146 143.466 298.938 143.582C298.732 143.695 298.572 143.855 298.458 144.061C298.347 144.267 298.291 144.508 298.291 144.785H297.453C297.453 144.359 297.551 143.985 297.748 143.663C297.944 143.341 298.212 143.09 298.55 142.91C298.891 142.73 299.274 142.641 299.697 142.641C300.124 142.641 300.501 142.73 300.83 142.91C301.159 143.09 301.417 143.333 301.604 143.638C301.791 143.944 301.885 144.284 301.885 144.658C301.885 144.925 301.836 145.187 301.739 145.442C301.645 145.696 301.479 145.979 301.242 146.291C301.008 146.601 300.682 146.98 300.266 147.427L298.632 149.175V149.231H302.013V150.013H297.425Z" fill="black" fill-opacity="0.7"/>
<g opacity="0.2">
<rect opacity="0.6" x="311.887" y="6" width="25" height="215.362" fill="#3CC3DF"/>
<rect x="311.887" y="6" width="25" height="3" fill="#3CC3DF"/>
</g>
<rect opacity="0.6" x="311.887" y="126.246" width="25" height="94.4787" fill="#3CC3DF"/>
<rect x="311.887" y="126.246" width="25" height="3" fill="#3CC3DF"/>
<path d="M318 122.754V122.03L321.196 116.973H321.722V118.095H321.367L318.952 121.916V121.973H323.256V122.754H318ZM321.424 124.246V122.534V122.197V116.973H322.262V124.246H321.424ZM324.416 122.754V122.03L327.612 116.973H328.138V118.095H327.783L325.368 121.916V121.973H329.672V122.754H324.416ZM327.84 124.246V122.534V122.197V116.973H328.678V124.246H327.84Z" fill="black" fill-opacity="0.7"/>
<circle cx="377" cy="161.522" r="3.5" fill="#009D97" stroke="#1A1F26"/>
<path d="M389.903 166.022V165.255L392.784 162.102C393.122 161.732 393.401 161.411 393.619 161.138C393.838 160.863 394 160.604 394.105 160.363C394.213 160.119 394.267 159.863 394.267 159.596C394.267 159.289 394.193 159.023 394.045 158.799C393.901 158.575 393.702 158.401 393.449 158.279C393.196 158.157 392.912 158.096 392.597 158.096C392.261 158.096 391.969 158.165 391.719 158.305C391.472 158.441 391.28 158.633 391.143 158.88C391.01 159.127 390.943 159.417 390.943 159.749H389.938C389.938 159.238 390.055 158.789 390.291 158.403C390.527 158.016 390.848 157.715 391.254 157.499C391.663 157.283 392.122 157.175 392.631 157.175C393.142 157.175 393.595 157.283 393.99 157.499C394.385 157.715 394.695 158.006 394.919 158.373C395.143 158.739 395.256 159.147 395.256 159.596C395.256 159.917 395.197 160.231 395.081 160.538C394.967 160.842 394.768 161.181 394.484 161.556C394.203 161.928 393.812 162.383 393.312 162.92L391.352 165.016V165.084H395.409V166.022H389.903ZM400.016 166.141C399.374 166.141 398.827 165.967 398.375 165.617C397.923 165.265 397.578 164.755 397.339 164.087C397.101 163.417 396.982 162.607 396.982 161.658C396.982 160.715 397.101 159.91 397.339 159.242C397.581 158.572 397.928 158.06 398.379 157.708C398.834 157.353 399.379 157.175 400.016 157.175C400.652 157.175 401.196 157.353 401.648 157.708C402.102 158.06 402.449 158.572 402.688 159.242C402.929 159.91 403.05 160.715 403.05 161.658C403.05 162.607 402.93 163.417 402.692 164.087C402.453 164.755 402.108 165.265 401.656 165.617C401.205 165.967 400.658 166.141 400.016 166.141ZM400.016 165.204C400.652 165.204 401.146 164.897 401.499 164.283C401.851 163.67 402.027 162.795 402.027 161.658C402.027 160.903 401.946 160.259 401.784 159.728C401.625 159.197 401.395 158.792 401.094 158.513C400.795 158.235 400.436 158.096 400.016 158.096C399.385 158.096 398.892 158.407 398.537 159.029C398.182 159.648 398.004 160.525 398.004 161.658C398.004 162.414 398.084 163.056 398.243 163.584C398.402 164.113 398.631 164.515 398.929 164.79C399.23 165.066 399.592 165.204 400.016 165.204ZM404.669 166.022V165.255L407.55 162.102C407.888 161.732 408.166 161.411 408.385 161.138C408.604 160.863 408.766 160.604 408.871 160.363C408.979 160.119 409.033 159.863 409.033 159.596C409.033 159.289 408.959 159.023 408.811 158.799C408.666 158.575 408.467 158.401 408.214 158.279C407.962 158.157 407.678 158.096 407.362 158.096C407.027 158.096 406.734 158.165 406.484 158.305C406.237 158.441 406.045 158.633 405.909 158.88C405.776 159.127 405.709 159.417 405.709 159.749H404.703C404.703 159.238 404.821 158.789 405.057 158.403C405.293 158.016 405.614 157.715 406.02 157.499C406.429 157.283 406.888 157.175 407.396 157.175C407.908 157.175 408.361 157.283 408.756 157.499C409.151 157.715 409.46 158.006 409.685 158.373C409.909 158.739 410.021 159.147 410.021 159.596C410.021 159.917 409.963 160.231 409.847 160.538C409.733 160.842 409.534 161.181 409.25 161.556C408.969 161.928 408.578 162.383 408.078 162.92L406.118 165.016V165.084H410.175V166.022H404.669ZM414.781 166.141C414.139 166.141 413.592 165.967 413.141 165.617C412.689 165.265 412.344 164.755 412.105 164.087C411.866 163.417 411.747 162.607 411.747 161.658C411.747 160.715 411.866 159.91 412.105 159.242C412.347 158.572 412.693 158.06 413.145 157.708C413.599 157.353 414.145 157.175 414.781 157.175C415.418 157.175 415.962 157.353 416.413 157.708C416.868 158.06 417.214 158.572 417.453 159.242C417.695 159.91 417.815 160.715 417.815 161.658C417.815 162.607 417.696 163.417 417.457 164.087C417.219 164.755 416.874 165.265 416.422 165.617C415.97 165.967 415.423 166.141 414.781 166.141ZM414.781 165.204C415.418 165.204 415.912 164.897 416.264 164.283C416.616 163.67 416.793 162.795 416.793 161.658C416.793 160.903 416.712 160.259 416.55 159.728C416.391 159.197 416.161 158.792 415.859 158.513C415.561 158.235 415.202 158.096 414.781 158.096C414.151 158.096 413.658 158.407 413.303 159.029C412.947 159.648 412.77 160.525 412.77 161.658C412.77 162.414 412.849 163.056 413.009 163.584C413.168 164.113 413.396 164.515 413.695 164.79C413.996 165.066 414.358 165.204 414.781 165.204Z" fill="#3C4043"/>
<circle cx="377" cy="188.713" r="3.5" fill="#FF9F98" stroke="#1A1F26"/>
<path d="M389.903 193.212V192.445L392.784 189.292C393.122 188.923 393.401 188.602 393.619 188.329C393.838 188.053 394 187.795 394.105 187.553C394.213 187.309 394.267 187.053 394.267 186.786C394.267 186.479 394.193 186.214 394.045 185.989C393.901 185.765 393.702 185.592 393.449 185.47C393.196 185.347 392.912 185.286 392.597 185.286C392.261 185.286 391.969 185.356 391.719 185.495C391.472 185.631 391.28 185.823 391.143 186.07C391.01 186.318 390.943 186.607 390.943 186.94H389.938C389.938 186.428 390.055 185.979 390.291 185.593C390.527 185.207 390.848 184.906 391.254 184.69C391.663 184.474 392.122 184.366 392.631 184.366C393.142 184.366 393.595 184.474 393.99 184.69C394.385 184.906 394.695 185.197 394.919 185.563C395.143 185.93 395.256 186.337 395.256 186.786C395.256 187.107 395.197 187.421 395.081 187.728C394.967 188.032 394.768 188.371 394.484 188.746C394.203 189.119 393.812 189.573 393.312 190.11L391.352 192.207V192.275H395.409V193.212H389.903ZM400.016 193.332C399.374 193.332 398.827 193.157 398.375 192.808C397.923 192.455 397.578 191.945 397.339 191.278C397.101 190.607 396.982 189.798 396.982 188.849C396.982 187.906 397.101 187.1 397.339 186.433C397.581 185.762 397.928 185.251 398.379 184.898C398.834 184.543 399.379 184.366 400.016 184.366C400.652 184.366 401.196 184.543 401.648 184.898C402.102 185.251 402.449 185.762 402.688 186.433C402.929 187.1 403.05 187.906 403.05 188.849C403.05 189.798 402.93 190.607 402.692 191.278C402.453 191.945 402.108 192.455 401.656 192.808C401.205 193.157 400.658 193.332 400.016 193.332ZM400.016 192.394C400.652 192.394 401.146 192.087 401.499 191.474C401.851 190.86 402.027 189.985 402.027 188.849C402.027 188.093 401.946 187.45 401.784 186.918C401.625 186.387 401.395 185.982 401.094 185.704C400.795 185.425 400.436 185.286 400.016 185.286C399.385 185.286 398.892 185.597 398.537 186.22C398.182 186.839 398.004 187.715 398.004 188.849C398.004 189.604 398.084 190.246 398.243 190.775C398.402 191.303 398.631 191.705 398.929 191.981C399.23 192.256 399.592 192.394 400.016 192.394ZM404.669 193.212V192.445L407.55 189.292C407.888 188.923 408.166 188.602 408.385 188.329C408.604 188.053 408.766 187.795 408.871 187.553C408.979 187.309 409.033 187.053 409.033 186.786C409.033 186.479 408.959 186.214 408.811 185.989C408.666 185.765 408.467 185.592 408.214 185.47C407.962 185.347 407.678 185.286 407.362 185.286C407.027 185.286 406.734 185.356 406.484 185.495C406.237 185.631 406.045 185.823 405.909 186.07C405.776 186.318 405.709 186.607 405.709 186.94H404.703C404.703 186.428 404.821 185.979 405.057 185.593C405.293 185.207 405.614 184.906 406.02 184.69C406.429 184.474 406.888 184.366 407.396 184.366C407.908 184.366 408.361 184.474 408.756 184.69C409.151 184.906 409.46 185.197 409.685 185.563C409.909 185.93 410.021 186.337 410.021 186.786C410.021 187.107 409.963 187.421 409.847 187.728C409.733 188.032 409.534 188.371 409.25 188.746C408.969 189.119 408.578 189.573 408.078 190.11L406.118 192.207V192.275H410.175V193.212H404.669ZM411.935 193.212V192.445L414.815 189.292C415.153 188.923 415.432 188.602 415.651 188.329C415.869 188.053 416.031 187.795 416.136 187.553C416.244 187.309 416.298 187.053 416.298 186.786C416.298 186.479 416.224 186.214 416.077 185.989C415.932 185.765 415.733 185.592 415.48 185.47C415.227 185.347 414.943 185.286 414.628 185.286C414.293 185.286 414 185.356 413.75 185.495C413.503 185.631 413.311 185.823 413.175 186.07C413.041 186.318 412.974 186.607 412.974 186.94H411.969C411.969 186.428 412.087 185.979 412.322 185.593C412.558 185.207 412.879 184.906 413.286 184.69C413.695 184.474 414.153 184.366 414.662 184.366C415.173 184.366 415.626 184.474 416.021 184.69C416.416 184.906 416.726 185.197 416.95 185.563C417.175 185.93 417.287 186.337 417.287 186.786C417.287 187.107 417.229 187.421 417.112 187.728C416.999 188.032 416.8 188.371 416.516 188.746C416.234 189.119 415.844 189.573 415.344 190.11L413.384 192.207V192.275H417.44V193.212H411.935Z" fill="#3C4043"/>
<circle cx="377" cy="215.903" r="3.5" fill="#3CC3DF" stroke="#1A1F26"/>
<path d="M389.903 220.403V219.636L392.784 216.483C393.122 216.114 393.401 215.793 393.619 215.52C393.838 215.244 394 214.986 394.105 214.744C394.213 214.5 394.267 214.244 394.267 213.977C394.267 213.67 394.193 213.405 394.045 213.18C393.901 212.956 393.702 212.783 393.449 212.66C393.196 212.538 392.912 212.477 392.597 212.477C392.261 212.477 391.969 212.547 391.719 212.686C391.472 212.822 391.28 213.014 391.143 213.261C391.01 213.508 390.943 213.798 390.943 214.131H389.938C389.938 213.619 390.055 213.17 390.291 212.784C390.527 212.398 390.848 212.097 391.254 211.881C391.663 211.665 392.122 211.557 392.631 211.557C393.142 211.557 393.595 211.665 393.99 211.881C394.385 212.097 394.695 212.388 394.919 212.754C395.143 213.121 395.256 213.528 395.256 213.977C395.256 214.298 395.197 214.612 395.081 214.919C394.967 215.223 394.768 215.562 394.484 215.937C394.203 216.31 393.812 216.764 393.312 217.301L391.352 219.398V219.466H395.409V220.403H389.903ZM400.016 220.523C399.374 220.523 398.827 220.348 398.375 219.998C397.923 219.646 397.578 219.136 397.339 218.469C397.101 217.798 396.982 216.989 396.982 216.04C396.982 215.097 397.101 214.291 397.339 213.623C397.581 212.953 397.928 212.442 398.379 212.089C398.834 211.734 399.379 211.557 400.016 211.557C400.652 211.557 401.196 211.734 401.648 212.089C402.102 212.442 402.449 212.953 402.688 213.623C402.929 214.291 403.05 215.097 403.05 216.04C403.05 216.989 402.93 217.798 402.692 218.469C402.453 219.136 402.108 219.646 401.656 219.998C401.205 220.348 400.658 220.523 400.016 220.523ZM400.016 219.585C400.652 219.585 401.146 219.278 401.499 218.665C401.851 218.051 402.027 217.176 402.027 216.04C402.027 215.284 401.946 214.641 401.784 214.109C401.625 213.578 401.395 213.173 401.094 212.895C400.795 212.616 400.436 212.477 400.016 212.477C399.385 212.477 398.892 212.788 398.537 213.41C398.182 214.03 398.004 214.906 398.004 216.04C398.004 216.795 398.084 217.437 398.243 217.966C398.402 218.494 398.631 218.896 398.929 219.172C399.23 219.447 399.592 219.585 400.016 219.585ZM404.669 220.403V219.636L407.55 216.483C407.888 216.114 408.166 215.793 408.385 215.52C408.604 215.244 408.766 214.986 408.871 214.744C408.979 214.5 409.033 214.244 409.033 213.977C409.033 213.67 408.959 213.405 408.811 213.18C408.666 212.956 408.467 212.783 408.214 212.66C407.962 212.538 407.678 212.477 407.362 212.477C407.027 212.477 406.734 212.547 406.484 212.686C406.237 212.822 406.045 213.014 405.909 213.261C405.776 213.508 405.709 213.798 405.709 214.131H404.703C404.703 213.619 404.821 213.17 405.057 212.784C405.293 212.398 405.614 212.097 406.02 211.881C406.429 211.665 406.888 211.557 407.396 211.557C407.908 211.557 408.361 211.665 408.756 211.881C409.151 212.097 409.46 212.388 409.685 212.754C409.909 213.121 410.021 213.528 410.021 213.977C410.021 214.298 409.963 214.612 409.847 214.919C409.733 215.223 409.534 215.562 409.25 215.937C408.969 216.31 408.578 216.764 408.078 217.301L406.118 219.398V219.466H410.175V220.403H404.669ZM414.884 220.523C414.321 220.523 413.82 220.426 413.379 220.233C412.942 220.04 412.594 219.771 412.335 219.427C412.08 219.081 411.94 218.679 411.918 218.222H412.991C413.014 218.503 413.111 218.746 413.281 218.95C413.452 219.152 413.675 219.308 413.95 219.419C414.226 219.53 414.531 219.585 414.866 219.585C415.241 219.585 415.574 219.52 415.864 219.389C416.153 219.258 416.381 219.077 416.545 218.844C416.71 218.611 416.793 218.341 416.793 218.034C416.793 217.713 416.713 217.43 416.554 217.186C416.395 216.939 416.162 216.746 415.855 216.606C415.548 216.467 415.173 216.398 414.73 216.398H414.031V215.46H414.73C415.077 215.46 415.381 215.398 415.642 215.273C415.906 215.148 416.112 214.972 416.26 214.744C416.411 214.517 416.486 214.25 416.486 213.943C416.486 213.648 416.42 213.391 416.29 213.172C416.159 212.953 415.974 212.783 415.736 212.66C415.5 212.538 415.222 212.477 414.901 212.477C414.599 212.477 414.315 212.533 414.048 212.643C413.784 212.751 413.568 212.909 413.401 213.116C413.233 213.321 413.142 213.568 413.128 213.858H412.105C412.122 213.4 412.26 213 412.518 212.656C412.777 212.31 413.115 212.04 413.533 211.847C413.953 211.653 414.415 211.557 414.918 211.557C415.457 211.557 415.92 211.666 416.307 211.885C416.693 212.101 416.99 212.386 417.197 212.741C417.405 213.097 417.509 213.48 417.509 213.892C417.509 214.383 417.379 214.802 417.121 215.149C416.865 215.496 416.517 215.736 416.077 215.869V215.937C416.628 216.028 417.058 216.263 417.368 216.641C417.678 217.016 417.832 217.48 417.832 218.034C417.832 218.508 417.703 218.935 417.445 219.312C417.189 219.687 416.839 219.983 416.396 220.199C415.953 220.415 415.449 220.523 414.884 220.523Z" fill="#3C4043"/>
<path d="M361.313 115V113.858L364.343 110.888C364.632 110.595 364.874 110.335 365.067 110.108C365.26 109.881 365.405 109.661 365.502 109.447C365.598 109.234 365.646 109.007 365.646 108.766C365.646 108.49 365.584 108.254 365.459 108.058C365.334 107.859 365.162 107.706 364.943 107.598C364.725 107.49 364.476 107.436 364.198 107.436C363.911 107.436 363.659 107.496 363.443 107.615C363.227 107.732 363.06 107.898 362.941 108.114C362.824 108.33 362.766 108.587 362.766 108.885H361.262C361.262 108.331 361.388 107.849 361.641 107.44C361.894 107.031 362.242 106.714 362.685 106.49C363.131 106.266 363.642 106.153 364.219 106.153C364.804 106.153 365.318 106.263 365.762 106.482C366.205 106.7 366.548 107 366.793 107.381C367.04 107.761 367.164 108.196 367.164 108.685C367.164 109.011 367.101 109.332 366.976 109.648C366.851 109.963 366.631 110.312 366.316 110.696C366.003 111.08 365.564 111.544 364.999 112.089L363.494 113.619V113.679H367.296V115H361.313ZM371.992 115.166C371.29 115.166 370.688 114.989 370.185 114.634C369.685 114.276 369.3 113.76 369.03 113.087C368.763 112.411 368.629 111.597 368.629 110.645C368.632 109.693 368.767 108.884 369.034 108.216C369.304 107.545 369.689 107.034 370.189 106.682C370.692 106.33 371.293 106.153 371.992 106.153C372.691 106.153 373.291 106.33 373.794 106.682C374.297 107.034 374.682 107.545 374.949 108.216C375.219 108.886 375.354 109.696 375.354 110.645C375.354 111.599 375.219 112.415 374.949 113.091C374.682 113.764 374.297 114.278 373.794 114.634C373.294 114.989 372.693 115.166 371.992 115.166ZM371.992 113.832C372.537 113.832 372.968 113.564 373.283 113.027C373.601 112.487 373.76 111.693 373.76 110.645C373.76 109.952 373.688 109.369 373.543 108.898C373.398 108.426 373.193 108.071 372.929 107.832C372.665 107.591 372.352 107.47 371.992 107.47C371.449 107.47 371.02 107.74 370.705 108.28C370.389 108.817 370.23 109.605 370.227 110.645C370.225 111.341 370.294 111.926 370.436 112.401C370.581 112.875 370.786 113.233 371.05 113.474C371.314 113.713 371.628 113.832 371.992 113.832ZM376.77 115V113.858L379.8 110.888C380.089 110.595 380.331 110.335 380.524 110.108C380.717 109.881 380.862 109.661 380.959 109.447C381.055 109.234 381.104 109.007 381.104 108.766C381.104 108.49 381.041 108.254 380.916 108.058C380.791 107.859 380.619 107.706 380.4 107.598C380.182 107.49 379.933 107.436 379.655 107.436C379.368 107.436 379.116 107.496 378.9 107.615C378.684 107.732 378.517 107.898 378.398 108.114C378.281 108.33 378.223 108.587 378.223 108.885H376.719C376.719 108.331 376.845 107.849 377.098 107.44C377.351 107.031 377.699 106.714 378.142 106.49C378.588 106.266 379.099 106.153 379.676 106.153C380.261 106.153 380.775 106.263 381.219 106.482C381.662 106.7 382.006 107 382.25 107.381C382.497 107.761 382.621 108.196 382.621 108.685C382.621 109.011 382.558 109.332 382.433 109.648C382.308 109.963 382.088 110.312 381.773 110.696C381.46 111.08 381.021 111.544 380.456 112.089L378.952 113.619V113.679H382.753V115H376.77ZM387.449 115.166C386.747 115.166 386.145 114.989 385.642 114.634C385.142 114.276 384.757 113.76 384.487 113.087C384.22 112.411 384.086 111.597 384.086 110.645C384.089 109.693 384.224 108.884 384.491 108.216C384.761 107.545 385.146 107.034 385.646 106.682C386.149 106.33 386.75 106.153 387.449 106.153C388.148 106.153 388.748 106.33 389.251 106.682C389.754 107.034 390.139 107.545 390.406 108.216C390.676 108.886 390.811 109.696 390.811 110.645C390.811 111.599 390.676 112.415 390.406 113.091C390.139 113.764 389.754 114.278 389.251 114.634C388.751 114.989 388.15 115.166 387.449 115.166ZM387.449 113.832C387.994 113.832 388.425 113.564 388.74 113.027C389.058 112.487 389.217 111.693 389.217 110.645C389.217 109.952 389.145 109.369 389 108.898C388.855 108.426 388.65 108.071 388.386 107.832C388.122 107.591 387.809 107.47 387.449 107.47C386.906 107.47 386.477 107.74 386.162 108.28C385.846 108.817 385.687 109.605 385.684 110.645C385.682 111.341 385.751 111.926 385.893 112.401C386.038 112.875 386.243 113.233 386.507 113.474C386.771 113.713 387.085 113.832 387.449 113.832ZM396.211 110.001V111.271H392.282V110.001H396.211ZM397.512 115V113.858L400.542 110.888C400.831 110.595 401.073 110.335 401.266 110.108C401.459 109.881 401.604 109.661 401.701 109.447C401.797 109.234 401.846 109.007 401.846 108.766C401.846 108.49 401.783 108.254 401.658 108.058C401.533 107.859 401.361 107.706 401.143 107.598C400.924 107.49 400.675 107.436 400.397 107.436C400.11 107.436 399.858 107.496 399.643 107.615C399.427 107.732 399.259 107.898 399.14 108.114C399.023 108.33 398.965 108.587 398.965 108.885H397.461C397.461 108.331 397.587 107.849 397.84 107.44C398.093 107.031 398.441 106.714 398.884 106.49C399.33 106.266 399.841 106.153 400.418 106.153C401.003 106.153 401.518 106.263 401.961 106.482C402.404 106.7 402.748 107 402.992 107.381C403.239 107.761 403.363 108.196 403.363 108.685C403.363 109.011 403.3 109.332 403.175 109.648C403.05 109.963 402.83 110.312 402.515 110.696C402.202 111.08 401.763 111.544 401.198 112.089L399.694 113.619V113.679H403.495V115H397.512ZM408.191 115.166C407.489 115.166 406.887 114.989 406.384 114.634C405.884 114.276 405.499 113.76 405.229 113.087C404.962 112.411 404.829 111.597 404.829 110.645C404.831 109.693 404.966 108.884 405.233 108.216C405.503 107.545 405.888 107.034 406.388 106.682C406.891 106.33 407.492 106.153 408.191 106.153C408.89 106.153 409.491 106.33 409.993 106.682C410.496 107.034 410.881 107.545 411.148 108.216C411.418 108.886 411.553 109.696 411.553 110.645C411.553 111.599 411.418 112.415 411.148 113.091C410.881 113.764 410.496 114.278 409.993 114.634C409.493 114.989 408.893 115.166 408.191 115.166ZM408.191 113.832C408.736 113.832 409.167 113.564 409.482 113.027C409.8 112.487 409.959 111.693 409.959 110.645C409.959 109.952 409.887 109.369 409.742 108.898C409.597 108.426 409.393 108.071 409.128 107.832C408.864 107.591 408.552 107.47 408.191 107.47C407.648 107.47 407.219 107.74 406.904 108.28C406.589 108.817 406.43 109.605 406.427 110.645C406.424 111.341 406.493 111.926 406.635 112.401C406.78 112.875 406.985 113.233 407.249 113.474C407.513 113.713 407.827 113.832 408.191 113.832ZM412.969 115V113.858L415.999 110.888C416.289 110.595 416.53 110.335 416.723 110.108C416.916 109.881 417.061 109.661 417.158 109.447C417.254 109.234 417.303 109.007 417.303 108.766C417.303 108.49 417.24 108.254 417.115 108.058C416.99 107.859 416.818 107.706 416.6 107.598C416.381 107.49 416.132 107.436 415.854 107.436C415.567 107.436 415.316 107.496 415.1 107.615C414.884 107.732 414.716 107.898 414.597 108.114C414.48 108.33 414.422 108.587 414.422 108.885H412.918C412.918 108.331 413.044 107.849 413.297 107.44C413.55 107.031 413.898 106.714 414.341 106.49C414.787 106.266 415.298 106.153 415.875 106.153C416.46 106.153 416.975 106.263 417.418 106.482C417.861 106.7 418.205 107 418.449 107.381C418.696 107.761 418.82 108.196 418.82 108.685C418.82 109.011 418.757 109.332 418.632 109.648C418.507 109.963 418.287 110.312 417.972 110.696C417.659 111.08 417.22 111.544 416.655 112.089L415.151 113.619V113.679H418.952V115H412.969ZM423.554 115.119C422.941 115.119 422.395 115.014 421.918 114.804C421.443 114.594 421.068 114.301 420.793 113.926C420.517 113.551 420.371 113.118 420.354 112.626H421.956C421.97 112.862 422.048 113.068 422.191 113.244C422.333 113.418 422.521 113.553 422.757 113.649C422.993 113.746 423.257 113.794 423.55 113.794C423.862 113.794 424.139 113.74 424.381 113.632C424.622 113.521 424.811 113.368 424.948 113.172C425.084 112.976 425.151 112.75 425.148 112.494C425.151 112.23 425.083 111.997 424.943 111.795C424.804 111.594 424.602 111.436 424.338 111.322C424.077 111.209 423.762 111.152 423.392 111.152H422.621V109.933H423.392C423.696 109.933 423.962 109.881 424.189 109.776C424.419 109.67 424.6 109.523 424.73 109.332C424.861 109.139 424.925 108.916 424.922 108.663C424.925 108.416 424.869 108.202 424.756 108.02C424.645 107.835 424.487 107.692 424.283 107.589C424.081 107.487 423.844 107.436 423.571 107.436C423.304 107.436 423.057 107.484 422.83 107.581C422.602 107.678 422.419 107.815 422.28 107.994C422.141 108.17 422.067 108.381 422.058 108.625H420.537C420.548 108.136 420.689 107.707 420.959 107.338C421.232 106.966 421.595 106.676 422.05 106.469C422.504 106.259 423.014 106.153 423.58 106.153C424.162 106.153 424.668 106.263 425.097 106.482C425.529 106.697 425.862 106.989 426.098 107.355C426.334 107.722 426.452 108.126 426.452 108.57C426.455 109.061 426.31 109.473 426.017 109.805C425.727 110.138 425.347 110.355 424.875 110.457V110.526C425.489 110.611 425.959 110.838 426.286 111.207C426.615 111.574 426.779 112.03 426.776 112.575C426.776 113.064 426.637 113.501 426.358 113.888C426.083 114.271 425.702 114.572 425.216 114.791C424.733 115.01 424.179 115.119 423.554 115.119ZM374.476 122.056L376.012 122.368C375.556 123.008 375.008 123.6 374.368 124.144C373.728 124.68 372.944 125.16 372.016 125.584C371.96 125.472 371.876 125.348 371.764 125.212C371.652 125.076 371.536 124.944 371.416 124.816C371.296 124.688 371.18 124.588 371.068 124.516C371.916 124.196 372.62 123.82 373.18 123.388C373.748 122.948 374.18 122.504 374.476 122.056ZM374.8 122.872H378.388V123.94H373.828L374.8 122.872ZM377.956 122.872H378.232L378.484 122.8L379.456 123.388C379.056 124.052 378.556 124.644 377.956 125.164C377.356 125.676 376.68 126.124 375.928 126.508C375.184 126.892 374.392 127.22 373.552 127.492C372.72 127.756 371.872 127.972 371.008 128.14C370.944 127.956 370.848 127.74 370.72 127.492C370.592 127.236 370.464 127.028 370.336 126.868C371.136 126.748 371.924 126.576 372.7 126.352C373.484 126.128 374.216 125.86 374.896 125.548C375.584 125.228 376.192 124.86 376.72 124.444C377.248 124.028 377.66 123.572 377.956 123.076V122.872ZM374.236 123.676C374.7 124.196 375.304 124.648 376.048 125.032C376.8 125.416 377.652 125.736 378.604 125.992C379.564 126.24 380.58 126.416 381.652 126.52C381.548 126.632 381.436 126.772 381.316 126.94C381.204 127.1 381.096 127.268 380.992 127.444C380.888 127.612 380.804 127.764 380.74 127.9C379.636 127.748 378.6 127.516 377.632 127.204C376.672 126.884 375.8 126.48 375.016 125.992C374.232 125.496 373.556 124.908 372.988 124.228L374.236 123.676ZM372.604 127.312H379.516V131.056H378.028V128.5H374.02V131.08H372.604V127.312ZM373.312 129.52H378.748V130.708H373.312V129.52ZM375.22 119.812H376.708V121.516H375.22V119.812ZM370.828 120.784H381.172V123.448H379.696V122.092H372.244V123.448H370.828V120.784ZM383.656 120.22H386.356V121.552H383.656V120.22ZM383.656 122.944H386.404V124.276H383.656V122.944ZM388.348 124.42H392.548V125.728H388.348V124.42ZM383.644 125.74H386.356V127.096H383.644V125.74ZM383.092 120.22H384.388V124.6C384.388 125.08 384.376 125.604 384.352 126.172C384.336 126.74 384.296 127.316 384.232 127.9C384.168 128.484 384.072 129.052 383.944 129.604C383.816 130.156 383.652 130.652 383.452 131.092C383.372 131.02 383.26 130.94 383.116 130.852C382.972 130.764 382.824 130.68 382.672 130.6C382.528 130.528 382.4 130.472 382.288 130.432C382.48 130.024 382.628 129.576 382.732 129.088C382.836 128.592 382.916 128.084 382.972 127.564C383.028 127.044 383.06 126.532 383.068 126.028C383.084 125.516 383.092 125.04 383.092 124.6V120.22ZM385.552 120.22H386.884V129.508C386.884 129.836 386.852 130.104 386.788 130.312C386.724 130.52 386.596 130.684 386.404 130.804C386.212 130.924 385.98 131 385.708 131.032C385.436 131.064 385.104 131.08 384.712 131.08C384.704 130.952 384.68 130.8 384.64 130.624C384.6 130.456 384.552 130.288 384.496 130.12C384.448 129.952 384.392 129.808 384.328 129.688C384.552 129.696 384.76 129.7 384.952 129.7C385.152 129.7 385.288 129.7 385.36 129.7C385.432 129.7 385.48 129.684 385.504 129.652C385.536 129.62 385.552 129.564 385.552 129.484V120.22ZM391.72 120.232H393.1V122.56C393.1 122.88 393.056 123.132 392.968 123.316C392.888 123.492 392.724 123.628 392.476 123.724C392.236 123.812 391.94 123.868 391.588 123.892C391.244 123.908 390.844 123.916 390.388 123.916C390.364 123.724 390.308 123.516 390.22 123.292C390.14 123.068 390.056 122.872 389.968 122.704C390.168 122.712 390.372 122.72 390.58 122.728C390.788 122.736 390.972 122.74 391.132 122.74C391.3 122.732 391.412 122.728 391.468 122.728C391.564 122.72 391.628 122.704 391.66 122.68C391.7 122.656 391.72 122.608 391.72 122.536V120.232ZM392.152 124.42H392.392L392.62 124.372L393.472 124.648C393.296 125.688 393.032 126.62 392.68 127.444C392.336 128.26 391.908 128.968 391.396 129.568C390.884 130.168 390.3 130.664 389.644 131.056C389.556 130.896 389.428 130.708 389.26 130.492C389.1 130.284 388.952 130.12 388.816 130C389.376 129.704 389.884 129.292 390.34 128.764C390.796 128.236 391.176 127.62 391.48 126.916C391.792 126.212 392.016 125.46 392.152 124.66V124.42ZM390.076 125.296C390.284 125.976 390.564 126.62 390.916 127.228C391.276 127.828 391.696 128.368 392.176 128.848C392.664 129.32 393.212 129.696 393.82 129.976C393.668 130.096 393.504 130.268 393.328 130.492C393.152 130.716 393.016 130.912 392.92 131.08C392.272 130.736 391.696 130.292 391.192 129.748C390.696 129.196 390.26 128.572 389.884 127.876C389.516 127.172 389.204 126.412 388.948 125.596L390.076 125.296ZM387.556 120.232H392.068V121.564H388.912V131.08H387.556V120.232ZM398.86 124.348V126.436H400.972V124.348H398.86ZM397.504 123.088H402.424V127.684H397.504V123.088ZM394.852 120.208H405.16V131.068H403.588V121.684H396.352V131.068H394.852V120.208ZM395.704 129.076H404.476V130.42H395.704V129.076ZM412.792 124.444H416.452V125.584H412.792V124.444ZM412.072 120.316H416.488V121.576H413.38V131.068H412.072V120.316ZM415.768 120.316H417.1V122.584C417.1 122.888 417.06 123.136 416.98 123.328C416.9 123.512 416.74 123.652 416.5 123.748C416.268 123.844 415.988 123.904 415.66 123.928C415.332 123.944 414.948 123.952 414.508 123.952C414.476 123.76 414.42 123.548 414.34 123.316C414.268 123.084 414.188 122.884 414.1 122.716C414.3 122.724 414.496 122.732 414.688 122.74C414.888 122.74 415.064 122.74 415.216 122.74C415.368 122.732 415.472 122.728 415.528 122.728C415.616 122.72 415.676 122.708 415.708 122.692C415.748 122.668 415.768 122.624 415.768 122.56V120.316ZM414.304 125.296C414.504 125.96 414.768 126.592 415.096 127.192C415.424 127.792 415.816 128.332 416.272 128.812C416.728 129.284 417.236 129.664 417.796 129.952C417.644 130.08 417.476 130.256 417.292 130.48C417.108 130.704 416.964 130.908 416.86 131.092C416.268 130.732 415.74 130.276 415.276 129.724C414.812 129.164 414.408 128.532 414.064 127.828C413.728 127.116 413.444 126.36 413.212 125.56L414.304 125.296ZM416.044 124.444H416.284L416.524 124.396L417.388 124.708C417.244 125.612 417.024 126.468 416.728 127.276C416.432 128.084 416.06 128.812 415.612 129.46C415.172 130.1 414.648 130.648 414.04 131.104C413.936 130.936 413.792 130.76 413.608 130.576C413.424 130.392 413.252 130.24 413.092 130.12C413.644 129.736 414.12 129.264 414.52 128.704C414.928 128.136 415.256 127.512 415.504 126.832C415.76 126.152 415.94 125.448 416.044 124.72V124.444ZM406.792 120.868H411.412V122.068H406.792V120.868ZM406.72 127.636H411.544V128.848H406.72V127.636ZM406.36 122.884H411.856V124.096H406.36V122.884ZM406.612 125.5H411.676V126.712H406.612V125.5ZM408.508 119.836H409.84V123.34H408.508V119.836ZM408.508 126.004H409.84V131.044H408.508V126.004ZM410.128 123.916L411.328 124.216C411.208 124.488 411.096 124.752 410.992 125.008C410.888 125.264 410.788 125.484 410.692 125.668L409.66 125.392C409.716 125.248 409.772 125.092 409.828 124.924C409.892 124.748 409.952 124.572 410.008 124.396C410.064 124.22 410.104 124.06 410.128 123.916ZM407.128 124.216L408.196 123.94C408.308 124.164 408.408 124.416 408.496 124.696C408.592 124.968 408.652 125.2 408.676 125.392L407.56 125.704C407.536 125.504 407.48 125.268 407.392 124.996C407.312 124.716 407.224 124.456 407.128 124.216Z" fill="#5F6367"/>
<path d="M62.268 238.928H67.752V248.504H66.816V239.78H63.156V248.6H62.268V238.928ZM62.784 246.632H67.236V247.484H62.784V246.632ZM57.384 244.46C57.744 244.372 58.152 244.264 58.608 244.136C59.072 244.008 59.56 243.872 60.072 243.728C60.592 243.576 61.112 243.424 61.632 243.272L61.74 244.1C61.028 244.324 60.304 244.544 59.568 244.76C58.84 244.976 58.188 245.172 57.612 245.348L57.384 244.46ZM57.528 240.128H61.632V240.968H57.528V240.128ZM59.268 237.92H60.168V247.88C60.168 248.136 60.136 248.332 60.072 248.468C60.008 248.604 59.896 248.708 59.736 248.78C59.576 248.852 59.368 248.9 59.112 248.924C58.856 248.948 58.528 248.956 58.128 248.948C58.104 248.836 58.064 248.696 58.008 248.528C57.952 248.368 57.892 248.224 57.828 248.096C58.1 248.104 58.348 248.108 58.572 248.108C58.804 248.108 58.96 248.108 59.04 248.108C59.12 248.108 59.176 248.088 59.208 248.048C59.248 248.016 59.268 247.96 59.268 247.88V237.92ZM69.612 239.06H75.156V239.828H69.612V239.06ZM69.468 244.196H75.276V244.964H69.468V244.196ZM69.888 240.86H74.916V241.616H69.888V240.86ZM70.02 242.516H74.772V243.272H70.02V242.516ZM71.976 244.52H72.816V248.048C72.816 248.256 72.792 248.42 72.744 248.54C72.696 248.668 72.596 248.764 72.444 248.828C72.3 248.892 72.112 248.932 71.88 248.948C71.656 248.964 71.372 248.972 71.028 248.972C71.012 248.852 70.976 248.72 70.92 248.576C70.872 248.432 70.82 248.304 70.764 248.192C71.004 248.2 71.22 248.204 71.412 248.204C71.604 248.204 71.732 248.2 71.796 248.192C71.916 248.192 71.976 248.14 71.976 248.036V244.52ZM71.964 237.956H72.816V241.34H71.964V237.956ZM70.392 245.372L71.172 245.528C71.044 246.024 70.876 246.508 70.668 246.98C70.46 247.452 70.232 247.852 69.984 248.18C69.936 248.14 69.868 248.096 69.78 248.048C69.7 248 69.616 247.956 69.528 247.916C69.44 247.868 69.36 247.828 69.288 247.796C69.544 247.484 69.764 247.116 69.948 246.692C70.14 246.268 70.288 245.828 70.392 245.372ZM73.512 245.648L74.196 245.372C74.372 245.652 74.544 245.964 74.712 246.308C74.888 246.644 75.012 246.932 75.084 247.172L74.376 247.508C74.32 247.348 74.244 247.16 74.148 246.944C74.06 246.728 73.96 246.508 73.848 246.284C73.736 246.052 73.624 245.84 73.512 245.648ZM76.14 240.092H79.776V240.92H76.14V240.092ZM77.604 240.44H78.036V242.564C78.036 242.756 78.052 243.024 78.084 243.368C78.124 243.704 78.196 244.088 78.3 244.52C78.404 244.944 78.552 245.38 78.744 245.828C78.936 246.268 79.184 246.696 79.488 247.112C79.792 247.52 80.164 247.88 80.604 248.192C80.548 248.256 80.484 248.336 80.412 248.432C80.348 248.528 80.28 248.624 80.208 248.72C80.144 248.816 80.088 248.896 80.04 248.96C79.616 248.656 79.256 248.3 78.96 247.892C78.664 247.476 78.42 247.048 78.228 246.608C78.036 246.168 77.888 245.756 77.784 245.372C77.688 244.988 77.624 244.668 77.592 244.412C77.56 244.676 77.488 245 77.376 245.384C77.272 245.76 77.112 246.164 76.896 246.596C76.68 247.028 76.4 247.452 76.056 247.868C75.712 248.284 75.296 248.652 74.808 248.972C74.776 248.908 74.728 248.828 74.664 248.732C74.6 248.644 74.536 248.552 74.472 248.456C74.408 248.368 74.344 248.3 74.28 248.252C74.784 247.924 75.208 247.552 75.552 247.136C75.896 246.72 76.172 246.288 76.38 245.84C76.596 245.392 76.76 244.956 76.872 244.532C76.984 244.108 77.06 243.724 77.1 243.38C77.14 243.036 77.16 242.764 77.16 242.564V240.44H77.604ZM76.188 237.908L77.088 238.04C76.992 238.728 76.868 239.4 76.716 240.056C76.572 240.712 76.4 241.324 76.2 241.892C76 242.46 75.772 242.964 75.516 243.404C75.46 243.356 75.384 243.296 75.288 243.224C75.192 243.152 75.096 243.084 75 243.02C74.904 242.956 74.816 242.904 74.736 242.864C75 242.464 75.224 242 75.408 241.472C75.592 240.944 75.748 240.376 75.876 239.768C76.004 239.16 76.108 238.54 76.188 237.908ZM79.536 240.092H79.668L79.812 240.056L80.4 240.224C80.344 240.576 80.284 240.944 80.22 241.328C80.156 241.704 80.084 242.068 80.004 242.42C79.932 242.764 79.852 243.072 79.764 243.344L79.056 243.128C79.12 242.88 79.18 242.596 79.236 242.276C79.3 241.948 79.356 241.608 79.404 241.256C79.46 240.896 79.504 240.564 79.536 240.26V240.092ZM81.648 243.32H92.364V244.22H81.648V243.32ZM83.832 238.088L84.768 238.28C84.608 238.872 84.412 239.448 84.18 240.008C83.956 240.56 83.708 241.076 83.436 241.556C83.164 242.036 82.88 242.456 82.584 242.816C82.52 242.768 82.432 242.716 82.32 242.66C82.216 242.596 82.108 242.536 81.996 242.48C81.892 242.424 81.8 242.38 81.72 242.348C82.032 242.004 82.32 241.608 82.584 241.16C82.856 240.704 83.096 240.216 83.304 239.696C83.512 239.168 83.688 238.632 83.832 238.088ZM83.724 240.02H91.356V240.932H83.28L83.724 240.02ZM87.54 243.5C87.908 244.708 88.512 245.708 89.352 246.5C90.192 247.284 91.292 247.832 92.652 248.144C92.588 248.208 92.516 248.288 92.436 248.384C92.364 248.48 92.292 248.58 92.22 248.684C92.156 248.788 92.1 248.88 92.052 248.96C91.108 248.72 90.288 248.364 89.592 247.892C88.904 247.42 88.32 246.836 87.84 246.14C87.368 245.436 86.988 244.624 86.7 243.704L87.54 243.5ZM86.472 237.92H87.408V241.652C87.408 242.204 87.372 242.76 87.3 243.32C87.236 243.872 87.104 244.416 86.904 244.952C86.704 245.488 86.408 246 86.016 246.488C85.624 246.976 85.108 247.432 84.468 247.856C83.828 248.272 83.028 248.644 82.068 248.972C82.036 248.9 81.988 248.816 81.924 248.72C81.86 248.624 81.788 248.528 81.708 248.432C81.636 248.336 81.568 248.256 81.504 248.192C82.4 247.888 83.148 247.548 83.748 247.172C84.348 246.788 84.828 246.38 85.188 245.948C85.556 245.508 85.832 245.052 86.016 244.58C86.2 244.1 86.32 243.616 86.376 243.128C86.44 242.632 86.472 242.14 86.472 241.652V237.92ZM99.72 240.14H104.532V240.992H99.72V240.14ZM100.128 237.908L101.064 238.064C100.912 238.816 100.724 239.54 100.5 240.236C100.276 240.924 100.02 241.564 99.732 242.156C99.444 242.748 99.124 243.264 98.772 243.704C98.716 243.656 98.64 243.596 98.544 243.524C98.456 243.444 98.36 243.368 98.256 243.296C98.16 243.224 98.076 243.164 98.004 243.116C98.356 242.708 98.668 242.232 98.94 241.688C99.212 241.136 99.444 240.54 99.636 239.9C99.836 239.26 100 238.596 100.128 237.908ZM102.708 240.584L103.644 240.692C103.436 242.06 103.136 243.268 102.744 244.316C102.36 245.364 101.844 246.272 101.196 247.04C100.548 247.808 99.728 248.456 98.736 248.984C98.704 248.912 98.656 248.824 98.592 248.72C98.528 248.616 98.46 248.512 98.388 248.408C98.316 248.312 98.248 248.232 98.184 248.168C99.12 247.704 99.888 247.12 100.488 246.416C101.088 245.712 101.564 244.876 101.916 243.908C102.276 242.94 102.54 241.832 102.708 240.584ZM100.188 240.824C100.404 241.944 100.7 242.992 101.076 243.968C101.452 244.944 101.932 245.796 102.516 246.524C103.108 247.244 103.828 247.796 104.676 248.18C104.604 248.244 104.528 248.32 104.448 248.408C104.368 248.504 104.288 248.6 104.208 248.696C104.136 248.792 104.076 248.884 104.028 248.972C103.148 248.516 102.404 247.9 101.796 247.124C101.188 246.348 100.688 245.44 100.296 244.4C99.912 243.352 99.6 242.208 99.36 240.968L100.188 240.824ZM94.872 246.092L95.748 246.308C95.564 246.812 95.328 247.304 95.04 247.784C94.752 248.256 94.448 248.656 94.128 248.984C94.072 248.936 94 248.876 93.912 248.804C93.824 248.74 93.732 248.676 93.636 248.612C93.548 248.548 93.468 248.496 93.396 248.456C93.708 248.152 93.992 247.792 94.248 247.376C94.512 246.96 94.72 246.532 94.872 246.092ZM96.588 246.428L97.308 246.08C97.556 246.36 97.792 246.672 98.016 247.016C98.248 247.352 98.42 247.644 98.532 247.892L97.776 248.3C97.664 248.044 97.492 247.74 97.26 247.388C97.036 247.036 96.812 246.716 96.588 246.428ZM94.92 241.352V242.864H97.404V241.352H94.92ZM94.92 243.572V245.108H97.404V243.572H94.92ZM94.92 239.132V240.632H97.404V239.132H94.92ZM94.068 238.388H98.292V245.852H94.068V238.388Z" fill="#3C4043"/>
<path d="M174.74 242.792L175.688 243.068C175.256 244.18 174.676 245.12 173.948 245.888C173.22 246.656 172.36 247.292 171.368 247.796C170.384 248.292 169.28 248.696 168.056 249.008C168.024 248.928 167.972 248.832 167.9 248.72C167.836 248.616 167.764 248.512 167.684 248.408C167.612 248.304 167.544 248.216 167.48 248.144C168.688 247.896 169.768 247.548 170.72 247.1C171.68 246.644 172.496 246.068 173.168 245.372C173.848 244.668 174.372 243.808 174.74 242.792ZM170.816 240.728L171.74 241.076C171.452 241.46 171.12 241.836 170.744 242.204C170.376 242.572 169.984 242.92 169.568 243.248C169.16 243.568 168.764 243.848 168.38 244.088C168.332 244.024 168.264 243.948 168.176 243.86C168.088 243.764 167.996 243.672 167.9 243.584C167.804 243.496 167.72 243.424 167.648 243.368C168.04 243.16 168.432 242.916 168.824 242.636C169.216 242.356 169.584 242.056 169.928 241.736C170.28 241.408 170.576 241.072 170.816 240.728ZM171.308 242.864C171.868 244.28 172.752 245.432 173.96 246.32C175.176 247.2 176.712 247.796 178.568 248.108C178.504 248.172 178.432 248.256 178.352 248.36C178.28 248.464 178.208 248.568 178.136 248.672C178.072 248.784 178.016 248.88 177.968 248.96C176.696 248.712 175.576 248.336 174.608 247.832C173.64 247.32 172.812 246.672 172.124 245.888C171.444 245.104 170.888 244.184 170.456 243.128L171.308 242.864ZM167.732 239.48H178.268V240.368H167.732V239.48ZM172.52 237.908H173.432V240.044H172.52V237.908ZM174.416 241.232L175.148 240.692C175.532 240.94 175.928 241.22 176.336 241.532C176.744 241.844 177.128 242.16 177.488 242.48C177.856 242.792 178.156 243.08 178.388 243.344L177.596 243.98C177.388 243.708 177.108 243.412 176.756 243.092C176.404 242.764 176.02 242.44 175.604 242.12C175.196 241.792 174.8 241.496 174.416 241.232ZM182.12 241.124V242.324H188.048V241.124H182.12ZM182.12 239.228V240.404H188.048V239.228H182.12ZM181.232 238.472H188.948V243.08H181.232V238.472ZM181.904 244.1H189.092V244.916H181.904V244.1ZM188.864 244.1H189.776C189.776 244.1 189.772 244.124 189.764 244.172C189.764 244.22 189.76 244.276 189.752 244.34C189.752 244.404 189.748 244.46 189.74 244.508C189.668 245.404 189.588 246.132 189.5 246.692C189.42 247.252 189.332 247.684 189.236 247.988C189.14 248.284 189.032 248.496 188.912 248.624C188.8 248.744 188.676 248.828 188.54 248.876C188.412 248.924 188.26 248.952 188.084 248.96C187.932 248.976 187.72 248.98 187.448 248.972C187.184 248.972 186.9 248.964 186.596 248.948C186.588 248.836 186.564 248.704 186.524 248.552C186.484 248.4 186.428 248.268 186.356 248.156C186.652 248.188 186.924 248.208 187.172 248.216C187.428 248.224 187.608 248.228 187.712 248.228C187.824 248.228 187.912 248.22 187.976 248.204C188.04 248.188 188.1 248.148 188.156 248.084C188.252 247.996 188.34 247.816 188.42 247.544C188.5 247.264 188.576 246.86 188.648 246.332C188.728 245.796 188.8 245.1 188.864 244.244V244.1ZM182.804 242.696L183.68 242.972C183.392 243.444 183.056 243.896 182.672 244.328C182.288 244.76 181.884 245.16 181.46 245.528C181.036 245.896 180.608 246.216 180.176 246.488C180.128 246.432 180.06 246.364 179.972 246.284C179.884 246.196 179.796 246.112 179.708 246.032C179.62 245.952 179.54 245.892 179.468 245.852C180.124 245.476 180.752 245.012 181.352 244.46C181.952 243.908 182.436 243.32 182.804 242.696ZM184.112 244.352L184.964 244.604C184.676 245.172 184.328 245.708 183.92 246.212C183.512 246.716 183.076 247.18 182.612 247.604C182.148 248.028 181.668 248.4 181.172 248.72C181.132 248.664 181.068 248.592 180.98 248.504C180.892 248.424 180.804 248.344 180.716 248.264C180.628 248.184 180.552 248.12 180.488 248.072C181.232 247.648 181.924 247.112 182.564 246.464C183.204 245.808 183.72 245.104 184.112 244.352ZM186.596 244.412L187.46 244.616C187.14 245.52 186.724 246.356 186.212 247.124C185.708 247.884 185.148 248.516 184.532 249.02C184.484 248.972 184.416 248.912 184.328 248.84C184.24 248.768 184.148 248.696 184.052 248.624C183.964 248.56 183.888 248.504 183.824 248.456C184.432 247.992 184.976 247.408 185.456 246.704C185.936 246 186.316 245.236 186.596 244.412ZM194.78 239.48H202.412V240.308H194.78V239.48ZM197.96 237.92H198.872V239.876H197.96V237.92ZM197.96 243.668H198.776V248.444H197.96V243.668ZM195.86 243.596H196.676V244.868C196.676 245.204 196.656 245.548 196.616 245.9C196.584 246.252 196.504 246.608 196.376 246.968C196.256 247.32 196.076 247.664 195.836 248C195.596 248.336 195.272 248.648 194.864 248.936C194.824 248.88 194.768 248.812 194.696 248.732C194.624 248.66 194.544 248.588 194.456 248.516C194.376 248.444 194.3 248.388 194.228 248.348C194.724 248.004 195.084 247.632 195.308 247.232C195.54 246.832 195.688 246.428 195.752 246.02C195.824 245.604 195.86 245.212 195.86 244.844V243.596ZM197.432 239.924L198.356 240.212C198.212 240.508 198.052 240.812 197.876 241.124C197.708 241.428 197.54 241.72 197.372 242C197.204 242.28 197.044 242.532 196.892 242.756L196.16 242.492C196.312 242.26 196.464 241.996 196.616 241.7C196.776 241.396 196.928 241.088 197.072 240.776C197.216 240.464 197.336 240.18 197.432 239.924ZM199.532 241.1L200.216 240.716C200.504 240.956 200.796 241.224 201.092 241.52C201.388 241.816 201.656 242.112 201.896 242.408C202.144 242.704 202.336 242.976 202.472 243.224L201.74 243.656C201.604 243.416 201.416 243.148 201.176 242.852C200.936 242.548 200.672 242.244 200.384 241.94C200.104 241.628 199.82 241.348 199.532 241.1ZM194.924 242.276C195.444 242.26 196.052 242.24 196.748 242.216C197.444 242.192 198.18 242.168 198.956 242.144C199.74 242.112 200.524 242.08 201.308 242.048L201.284 242.816C200.532 242.856 199.78 242.896 199.028 242.936C198.276 242.976 197.56 243.012 196.88 243.044C196.2 243.076 195.584 243.104 195.032 243.128L194.924 242.276ZM192.092 238.676L192.584 238.028C192.848 238.132 193.116 238.256 193.388 238.4C193.66 238.544 193.916 238.696 194.156 238.856C194.404 239.016 194.604 239.164 194.756 239.3L194.24 240.044C194.088 239.892 193.892 239.736 193.652 239.576C193.412 239.408 193.156 239.244 192.884 239.084C192.612 238.924 192.348 238.788 192.092 238.676ZM191.456 241.928L191.948 241.256C192.204 241.352 192.472 241.472 192.752 241.616C193.032 241.752 193.296 241.892 193.544 242.036C193.792 242.18 193.996 242.32 194.156 242.456L193.64 243.212C193.488 243.076 193.288 242.932 193.04 242.78C192.792 242.62 192.528 242.468 192.248 242.324C191.976 242.172 191.712 242.04 191.456 241.928ZM191.804 248.216C192.012 247.904 192.24 247.532 192.488 247.1C192.736 246.668 192.988 246.212 193.244 245.732C193.5 245.244 193.736 244.772 193.952 244.316L194.636 244.88C194.436 245.304 194.22 245.748 193.988 246.212C193.756 246.668 193.52 247.12 193.28 247.568C193.04 248.008 192.808 248.416 192.584 248.792L191.804 248.216ZM200.096 243.596H200.936V247.568C200.936 247.808 200.96 247.948 201.008 247.988C201.024 248.004 201.048 248.016 201.08 248.024C201.12 248.04 201.16 248.048 201.2 248.048C201.24 248.048 201.292 248.048 201.356 248.048C201.428 248.048 201.488 248.048 201.536 248.048C201.584 248.048 201.632 248.044 201.68 248.036C201.736 248.028 201.776 248.012 201.8 247.988C201.848 247.956 201.888 247.848 201.92 247.664C201.936 247.568 201.944 247.416 201.944 247.208C201.952 246.992 201.96 246.74 201.968 246.452C202.04 246.524 202.136 246.592 202.256 246.656C202.376 246.712 202.492 246.76 202.604 246.8C202.596 247.064 202.58 247.332 202.556 247.604C202.54 247.876 202.516 248.068 202.484 248.18C202.428 248.396 202.32 248.552 202.16 248.648C202.096 248.688 202.008 248.72 201.896 248.744C201.784 248.768 201.68 248.78 201.584 248.78C201.512 248.78 201.408 248.78 201.272 248.78C201.144 248.78 201.048 248.78 200.984 248.78C200.872 248.78 200.756 248.76 200.636 248.72C200.516 248.688 200.412 248.636 200.324 248.564C200.236 248.484 200.176 248.372 200.144 248.228C200.112 248.092 200.096 247.844 200.096 247.484V243.596ZM210.728 243.572H211.616V248.384H210.728V243.572ZM208.1 243.248H214.292V244.04H208.1V243.248ZM207.572 247.844H214.556V248.636H207.572V247.844ZM208.376 245.492H214.028V246.272H208.376V245.492ZM209.384 239.204V241.412H213.008V239.204H209.384ZM208.544 238.424H213.884V242.192H208.544V238.424ZM205.544 238.916H206.432V248.936H205.544V238.916ZM203.588 241.304H207.932V242.144H203.588V241.304ZM205.592 241.628L206.156 241.868C206.036 242.292 205.888 242.732 205.712 243.188C205.536 243.636 205.344 244.084 205.136 244.532C204.936 244.972 204.72 245.388 204.488 245.78C204.264 246.164 204.036 246.492 203.804 246.764C203.756 246.644 203.684 246.504 203.588 246.344C203.5 246.184 203.416 246.048 203.336 245.936C203.56 245.696 203.78 245.408 203.996 245.072C204.212 244.736 204.42 244.372 204.62 243.98C204.828 243.588 205.016 243.192 205.184 242.792C205.352 242.384 205.488 241.996 205.592 241.628ZM207.332 238.088L207.956 238.784C207.588 238.928 207.168 239.064 206.696 239.192C206.224 239.32 205.736 239.432 205.232 239.528C204.736 239.616 204.252 239.692 203.78 239.756C203.764 239.66 203.728 239.548 203.672 239.42C203.616 239.284 203.564 239.168 203.516 239.072C203.964 238.992 204.424 238.904 204.896 238.808C205.376 238.712 205.828 238.604 206.252 238.484C206.676 238.356 207.036 238.224 207.332 238.088ZM206.384 242.84C206.464 242.912 206.58 243.028 206.732 243.188C206.892 243.34 207.064 243.508 207.248 243.692C207.432 243.868 207.596 244.036 207.74 244.196C207.892 244.356 208 244.472 208.064 244.544L207.524 245.252C207.452 245.132 207.348 244.98 207.212 244.796C207.084 244.612 206.94 244.416 206.78 244.208C206.62 244 206.468 243.808 206.324 243.632C206.18 243.456 206.06 243.316 205.964 243.212L206.384 242.84Z" fill="#3C4043"/>
<path d="M272.66 238.808H283.352V239.708H272.66V238.808ZM277.292 239.516H278.24V248.948H277.292V239.516ZM277.808 242.36L278.408 241.676C278.768 241.844 279.148 242.036 279.548 242.252C279.948 242.468 280.344 242.692 280.736 242.924C281.128 243.148 281.492 243.368 281.828 243.584C282.172 243.8 282.464 244 282.704 244.184L282.068 245C281.836 244.816 281.552 244.612 281.216 244.388C280.888 244.156 280.528 243.924 280.136 243.692C279.752 243.452 279.36 243.22 278.96 242.996C278.56 242.764 278.176 242.552 277.808 242.36ZM289.496 241.76H290.432V248.96H289.496V241.76ZM286.784 243.776V244.82H293.312V243.776H286.784ZM286.784 242.06V243.092H293.312V242.06H286.784ZM285.896 241.34H294.224V245.552H285.896V241.34ZM284.696 246.464H295.34V247.268H284.696V246.464ZM286.4 239V240.128H288.692V239H286.4ZM285.572 238.388H289.544V240.728H285.572V238.388ZM291.32 239V240.128H293.66V239H291.32ZM290.516 238.388H294.512V240.728H290.516V238.388ZM296.648 243.32H307.364V244.22H296.648V243.32ZM298.832 238.088L299.768 238.28C299.608 238.872 299.412 239.448 299.18 240.008C298.956 240.56 298.708 241.076 298.436 241.556C298.164 242.036 297.88 242.456 297.584 242.816C297.52 242.768 297.432 242.716 297.32 242.66C297.216 242.596 297.108 242.536 296.996 242.48C296.892 242.424 296.8 242.38 296.72 242.348C297.032 242.004 297.32 241.608 297.584 241.16C297.856 240.704 298.096 240.216 298.304 239.696C298.512 239.168 298.688 238.632 298.832 238.088ZM298.724 240.02H306.356V240.932H298.28L298.724 240.02ZM302.54 243.5C302.908 244.708 303.512 245.708 304.352 246.5C305.192 247.284 306.292 247.832 307.652 248.144C307.588 248.208 307.516 248.288 307.436 248.384C307.364 248.48 307.292 248.58 307.22 248.684C307.156 248.788 307.1 248.88 307.052 248.96C306.108 248.72 305.288 248.364 304.592 247.892C303.904 247.42 303.32 246.836 302.84 246.14C302.368 245.436 301.988 244.624 301.7 243.704L302.54 243.5ZM301.472 237.92H302.408V241.652C302.408 242.204 302.372 242.76 302.3 243.32C302.236 243.872 302.104 244.416 301.904 244.952C301.704 245.488 301.408 246 301.016 246.488C300.624 246.976 300.108 247.432 299.468 247.856C298.828 248.272 298.028 248.644 297.068 248.972C297.036 248.9 296.988 248.816 296.924 248.72C296.86 248.624 296.788 248.528 296.708 248.432C296.636 248.336 296.568 248.256 296.504 248.192C297.4 247.888 298.148 247.548 298.748 247.172C299.348 246.788 299.828 246.38 300.188 245.948C300.556 245.508 300.832 245.052 301.016 244.58C301.2 244.1 301.32 243.616 301.376 243.128C301.44 242.632 301.472 242.14 301.472 241.652V237.92ZM314.72 240.14H319.532V240.992H314.72V240.14ZM315.128 237.908L316.064 238.064C315.912 238.816 315.724 239.54 315.5 240.236C315.276 240.924 315.02 241.564 314.732 242.156C314.444 242.748 314.124 243.264 313.772 243.704C313.716 243.656 313.64 243.596 313.544 243.524C313.456 243.444 313.36 243.368 313.256 243.296C313.16 243.224 313.076 243.164 313.004 243.116C313.356 242.708 313.668 242.232 313.94 241.688C314.212 241.136 314.444 240.54 314.636 239.9C314.836 239.26 315 238.596 315.128 237.908ZM317.708 240.584L318.644 240.692C318.436 242.06 318.136 243.268 317.744 244.316C317.36 245.364 316.844 246.272 316.196 247.04C315.548 247.808 314.728 248.456 313.736 248.984C313.704 248.912 313.656 248.824 313.592 248.72C313.528 248.616 313.46 248.512 313.388 248.408C313.316 248.312 313.248 248.232 313.184 248.168C314.12 247.704 314.888 247.12 315.488 246.416C316.088 245.712 316.564 244.876 316.916 243.908C317.276 242.94 317.54 241.832 317.708 240.584ZM315.188 240.824C315.404 241.944 315.7 242.992 316.076 243.968C316.452 244.944 316.932 245.796 317.516 246.524C318.108 247.244 318.828 247.796 319.676 248.18C319.604 248.244 319.528 248.32 319.448 248.408C319.368 248.504 319.288 248.6 319.208 248.696C319.136 248.792 319.076 248.884 319.028 248.972C318.148 248.516 317.404 247.9 316.796 247.124C316.188 246.348 315.688 245.44 315.296 244.4C314.912 243.352 314.6 242.208 314.36 240.968L315.188 240.824ZM309.872 246.092L310.748 246.308C310.564 246.812 310.328 247.304 310.04 247.784C309.752 248.256 309.448 248.656 309.128 248.984C309.072 248.936 309 248.876 308.912 248.804C308.824 248.74 308.732 248.676 308.636 248.612C308.548 248.548 308.468 248.496 308.396 248.456C308.708 248.152 308.992 247.792 309.248 247.376C309.512 246.96 309.72 246.532 309.872 246.092ZM311.588 246.428L312.308 246.08C312.556 246.36 312.792 246.672 313.016 247.016C313.248 247.352 313.42 247.644 313.532 247.892L312.776 248.3C312.664 248.044 312.492 247.74 312.26 247.388C312.036 247.036 311.812 246.716 311.588 246.428ZM309.92 241.352V242.864H312.404V241.352H309.92ZM309.92 243.572V245.108H312.404V243.572H309.92ZM309.92 239.132V240.632H312.404V239.132H309.92ZM309.068 238.388H313.292V245.852H309.068V238.388Z" fill="#3C4043"/>
</svg>
