<svg width="1920" height="1080" viewBox="0 0 1920 1080" fill="none" xmlns="http://www.w3.org/2000/svg">
<g clip-path="url(#clip0_2246_3685)">
<rect width="1920" height="1080" fill="url(#paint0_linear_2246_3685)" style=""/>
<path d="M838.311 634.451L843.047 635.647C842.054 639.537 840.264 642.508 837.676 644.559C835.104 646.593 831.955 647.61 828.228 647.61C824.37 647.61 821.229 646.829 818.804 645.267C816.395 643.688 814.556 641.409 813.286 638.431C812.033 635.452 811.406 632.254 811.406 628.836C811.406 625.109 812.114 621.862 813.53 619.095C814.963 616.312 816.989 614.204 819.609 612.771C822.246 611.323 825.143 610.599 828.301 610.599C831.882 610.599 834.893 611.51 837.334 613.333C839.775 615.156 841.476 617.719 842.437 621.023L837.773 622.122C836.943 619.518 835.739 617.622 834.16 616.434C832.581 615.245 830.596 614.651 828.203 614.651C825.452 614.651 823.149 615.311 821.294 616.629C819.455 617.947 818.161 619.721 817.412 621.951C816.663 624.165 816.289 626.451 816.289 628.812C816.289 631.855 816.729 634.516 817.607 636.795C818.503 639.057 819.886 640.75 821.758 641.873C823.63 642.996 825.656 643.558 827.837 643.558C830.49 643.558 832.736 642.793 834.575 641.263C836.414 639.733 837.66 637.462 838.311 634.451ZM846.709 634.036C846.709 629.235 848.044 625.678 850.713 623.367C852.943 621.447 855.661 620.486 858.867 620.486C862.432 620.486 865.345 621.658 867.607 624.002C869.87 626.329 871.001 629.552 871.001 633.67C871.001 637.007 870.496 639.635 869.487 641.556C868.494 643.46 867.038 644.941 865.117 645.999C863.213 647.057 861.13 647.586 858.867 647.586C855.238 647.586 852.3 646.422 850.054 644.095C847.824 641.767 846.709 638.414 846.709 634.036ZM851.226 634.036C851.226 637.356 851.95 639.847 853.398 641.507C854.847 643.151 856.67 643.973 858.867 643.973C861.048 643.973 862.863 643.143 864.312 641.482C865.76 639.822 866.484 637.291 866.484 633.89C866.484 630.683 865.752 628.258 864.287 626.614C862.839 624.954 861.032 624.124 858.867 624.124C856.67 624.124 854.847 624.946 853.398 626.59C851.95 628.234 851.226 630.716 851.226 634.036ZM876.177 647V621.072H880.107V624.71C880.921 623.44 882.004 622.423 883.354 621.658C884.705 620.877 886.243 620.486 887.969 620.486C889.889 620.486 891.46 620.885 892.681 621.683C893.918 622.48 894.788 623.595 895.293 625.027C897.344 622 900.013 620.486 903.301 620.486C905.872 620.486 907.85 621.202 909.233 622.635C910.617 624.051 911.309 626.24 911.309 629.202V647H906.938V630.667C906.938 628.909 906.792 627.648 906.499 626.883C906.222 626.102 905.71 625.475 904.961 625.003C904.212 624.531 903.333 624.295 902.324 624.295C900.501 624.295 898.988 624.905 897.783 626.126C896.579 627.33 895.977 629.267 895.977 631.937V647H891.582V630.154C891.582 628.201 891.224 626.736 890.508 625.76C889.792 624.783 888.62 624.295 886.992 624.295C885.755 624.295 884.608 624.62 883.55 625.271C882.508 625.923 881.751 626.875 881.279 628.128C880.807 629.381 880.571 631.188 880.571 633.548V647H876.177ZM917.852 616.263V611.209H922.246V616.263H917.852ZM917.852 647V621.072H922.246V647H917.852ZM928.96 647V621.072H932.915V624.759C934.819 621.91 937.57 620.486 941.167 620.486C942.729 620.486 944.162 620.771 945.464 621.341C946.782 621.894 947.767 622.627 948.418 623.538C949.069 624.45 949.525 625.532 949.785 626.785C949.948 627.599 950.029 629.023 950.029 631.058V647H945.635V631.229C945.635 629.438 945.464 628.104 945.122 627.225C944.78 626.329 944.17 625.621 943.291 625.101C942.428 624.563 941.411 624.295 940.239 624.295C938.368 624.295 936.748 624.889 935.381 626.077C934.03 627.265 933.354 629.52 933.354 632.84V647H928.96ZM955.986 649.148L960.259 649.783C960.438 651.102 960.934 652.062 961.748 652.664C962.839 653.478 964.328 653.885 966.216 653.885C968.25 653.885 969.821 653.478 970.928 652.664C972.035 651.85 972.783 650.711 973.174 649.246C973.402 648.351 973.507 646.471 973.491 643.606C971.571 645.869 969.178 647 966.313 647C962.749 647 959.99 645.714 958.037 643.143C956.084 640.571 955.107 637.487 955.107 633.89C955.107 631.416 955.555 629.137 956.45 627.054C957.345 624.954 958.639 623.335 960.332 622.195C962.041 621.056 964.043 620.486 966.338 620.486C969.398 620.486 971.921 621.723 973.906 624.197V621.072H977.959V643.484C977.959 647.521 977.544 650.377 976.714 652.054C975.9 653.746 974.598 655.081 972.808 656.058C971.034 657.034 968.844 657.522 966.24 657.522C963.148 657.522 960.649 656.823 958.745 655.423C956.841 654.039 955.921 651.948 955.986 649.148ZM959.624 633.572C959.624 636.974 960.299 639.456 961.65 641.019C963.001 642.581 964.694 643.362 966.729 643.362C968.747 643.362 970.439 642.589 971.807 641.043C973.174 639.48 973.857 637.039 973.857 633.719C973.857 630.545 973.149 628.152 971.733 626.541C970.334 624.93 968.641 624.124 966.655 624.124C964.702 624.124 963.042 624.922 961.675 626.517C960.308 628.095 959.624 630.447 959.624 633.572ZM997.49 635.501L1001.96 635.11C1002.17 636.901 1002.66 638.374 1003.42 639.529C1004.2 640.669 1005.41 641.596 1007.04 642.312C1008.66 643.012 1010.49 643.362 1012.53 643.362C1014.34 643.362 1015.93 643.094 1017.31 642.557C1018.7 642.02 1019.72 641.287 1020.39 640.359C1021.07 639.415 1021.42 638.39 1021.42 637.283C1021.42 636.16 1021.09 635.184 1020.44 634.354C1019.79 633.507 1018.71 632.799 1017.22 632.229C1016.26 631.855 1014.13 631.277 1010.84 630.496C1007.56 629.699 1005.25 628.95 1003.94 628.25C1002.23 627.355 1000.95 626.248 1000.1 624.93C999.272 623.595 998.857 622.106 998.857 620.462C998.857 618.655 999.37 616.971 1000.4 615.408C1001.42 613.829 1002.92 612.633 1004.89 611.819C1006.86 611.006 1009.05 610.599 1011.46 610.599C1014.11 610.599 1016.44 611.03 1018.46 611.893C1020.5 612.739 1022.06 613.992 1023.15 615.652C1024.24 617.312 1024.83 619.192 1024.91 621.292L1020.37 621.634C1020.12 619.371 1019.29 617.662 1017.88 616.507C1016.48 615.351 1014.4 614.773 1011.65 614.773C1008.79 614.773 1006.69 615.302 1005.38 616.36C1004.07 617.402 1003.42 618.663 1003.42 620.145C1003.42 621.43 1003.89 622.488 1004.81 623.318C1005.73 624.148 1008.1 625.003 1011.94 625.882C1015.8 626.744 1018.45 627.501 1019.88 628.152C1021.96 629.113 1023.5 630.333 1024.49 631.814C1025.49 633.279 1025.98 634.972 1025.98 636.893C1025.98 638.797 1025.44 640.595 1024.35 642.288C1023.26 643.965 1021.68 645.275 1019.63 646.219C1017.6 647.146 1015.3 647.61 1012.75 647.61C1009.51 647.61 1006.79 647.138 1004.59 646.194C1002.41 645.25 1000.7 643.834 999.443 641.946C998.206 640.042 997.555 637.894 997.49 635.501ZM1030.25 634.036C1030.25 629.235 1031.59 625.678 1034.26 623.367C1036.49 621.447 1039.21 620.486 1042.41 620.486C1045.98 620.486 1048.89 621.658 1051.15 624.002C1053.41 626.329 1054.55 629.552 1054.55 633.67C1054.55 637.007 1054.04 639.635 1053.03 641.556C1052.04 643.46 1050.58 644.941 1048.66 645.999C1046.76 647.057 1044.67 647.586 1042.41 647.586C1038.78 647.586 1035.84 646.422 1033.6 644.095C1031.37 641.767 1030.25 638.414 1030.25 634.036ZM1034.77 634.036C1034.77 637.356 1035.49 639.847 1036.94 641.507C1038.39 643.151 1040.21 643.973 1042.41 643.973C1044.59 643.973 1046.41 643.143 1047.86 641.482C1049.31 639.822 1050.03 637.291 1050.03 633.89C1050.03 630.683 1049.3 628.258 1047.83 626.614C1046.38 624.954 1044.58 624.124 1042.41 624.124C1040.21 624.124 1038.39 624.946 1036.94 626.59C1035.49 628.234 1034.77 630.716 1034.77 634.036ZM1058.09 634.036C1058.09 629.235 1059.42 625.678 1062.09 623.367C1064.32 621.447 1067.04 620.486 1070.24 620.486C1073.81 620.486 1076.72 621.658 1078.98 624.002C1081.25 626.329 1082.38 629.552 1082.38 633.67C1082.38 637.007 1081.87 639.635 1080.86 641.556C1079.87 643.46 1078.41 644.941 1076.49 645.999C1074.59 647.057 1072.51 647.586 1070.24 647.586C1066.61 647.586 1063.68 646.422 1061.43 644.095C1059.2 641.767 1058.09 638.414 1058.09 634.036ZM1062.6 634.036C1062.6 637.356 1063.33 639.847 1064.78 641.507C1066.22 643.151 1068.05 643.973 1070.24 643.973C1072.43 643.973 1074.24 643.143 1075.69 641.482C1077.14 639.822 1077.86 637.291 1077.86 633.89C1077.86 630.683 1077.13 628.258 1075.66 626.614C1074.22 624.954 1072.41 624.124 1070.24 624.124C1068.05 624.124 1066.22 624.946 1064.78 626.59C1063.33 628.234 1062.6 630.716 1062.6 634.036ZM1087.55 647V621.072H1091.51V624.759C1093.41 621.91 1096.16 620.486 1099.76 620.486C1101.32 620.486 1102.76 620.771 1104.06 621.341C1105.38 621.894 1106.36 622.627 1107.01 623.538C1107.66 624.45 1108.12 625.532 1108.38 626.785C1108.54 627.599 1108.62 629.023 1108.62 631.058V647H1104.23V631.229C1104.23 629.438 1104.06 628.104 1103.72 627.225C1103.37 626.329 1102.76 625.621 1101.88 625.101C1101.02 624.563 1100 624.295 1098.83 624.295C1096.96 624.295 1095.34 624.889 1093.97 626.077C1092.62 627.265 1091.95 629.52 1091.95 632.84V647H1087.55ZM1116.63 647V641.995H1121.64V647H1116.63ZM1130.55 647V641.995H1135.55V647H1130.55ZM1144.46 647V641.995H1149.47V647H1144.46Z" fill="black" style="fill:black;fill-opacity:1;"/>
<path d="M995.364 400L959.071 436.293V444.723L1003.79 400H995.364ZM1013.05 401.587L960.658 453.975L1032.31 525.629L1084.7 473.243L1013.04 401.588L1013.05 401.587ZM1086.29 482.494L1041.56 527.217H1049.99L1086.29 490.924V482.494H1086.29ZM984.142 488.296L979.927 492.512L993.776 506.361L997.991 502.146L984.142 488.296ZM974.508 497.931L964.49 507.948H984.525L974.508 497.931ZM956.826 515.612L945.221 527.217H972.92L984.525 515.612H956.826ZM937.557 534.881L925.953 546.485H953.652L965.256 534.881H937.557ZM925.953 554.149L935.97 564.167L945.988 554.149H925.953ZM916.701 555.737L912.487 559.952L926.336 573.801L930.551 569.587L916.701 555.737ZM900.195 563.784L897 573.369L912.919 589.288L922.504 586.093V580.807L905.48 563.784H900.195Z" fill="black" style="fill:black;fill-opacity:1;"/>
<g clip-path="url(#clip1_2246_3685)">
<path d="M1333.69 862.522V815.853H1340.77V822.4C1342.23 820.115 1344.18 818.284 1346.61 816.907C1349.04 815.501 1351.81 814.798 1354.92 814.798C1358.38 814.798 1361.2 815.516 1363.4 816.951C1365.63 818.387 1367.19 820.394 1368.1 822.972C1371.79 817.522 1376.6 814.798 1382.52 814.798C1387.14 814.798 1390.7 816.087 1393.19 818.665C1395.68 821.214 1396.93 825.154 1396.93 830.486V862.522H1389.06V833.123C1389.06 829.959 1388.8 827.688 1388.27 826.312C1387.77 824.905 1386.85 823.777 1385.5 822.928C1384.16 822.078 1382.57 821.653 1380.76 821.653C1377.48 821.653 1374.75 822.752 1372.58 824.949C1370.42 827.117 1369.33 830.604 1369.33 835.408V862.522H1361.42V832.2C1361.42 828.685 1360.78 826.048 1359.49 824.29C1358.2 822.532 1356.09 821.653 1353.16 821.653C1350.93 821.653 1348.87 822.239 1346.96 823.411C1345.09 824.583 1343.73 826.297 1342.88 828.553C1342.03 830.809 1341.6 834.061 1341.6 838.309V862.522H1333.69Z" fill="black" style="fill:black;fill-opacity:1;"/>
<path d="M1303.63 862.522V815.853H1310.75V822.928C1312.57 819.617 1314.24 817.435 1315.76 816.38C1317.32 815.325 1319.01 814.798 1320.86 814.798C1323.53 814.798 1326.24 815.647 1328.99 817.347L1326.27 824.686C1324.33 823.543 1322.4 822.972 1320.46 822.972C1318.74 822.972 1317.18 823.499 1315.81 824.554C1314.43 825.579 1313.45 827.015 1312.86 828.86C1311.98 831.673 1311.54 834.749 1311.54 838.089V862.522H1303.63Z" fill="black" style="fill:black;fill-opacity:1;"/>
<path d="M1250.68 839.188C1250.68 830.545 1253.08 824.144 1257.89 819.983C1261.9 816.526 1266.79 814.798 1272.56 814.798C1278.98 814.798 1284.22 816.907 1288.3 821.126C1292.37 825.315 1294.41 831.116 1294.41 838.528C1294.41 844.534 1293.5 849.266 1291.68 852.723C1289.89 856.15 1287.27 858.816 1283.81 860.721C1280.39 862.625 1276.64 863.577 1272.56 863.577C1266.03 863.577 1260.74 861.482 1256.7 857.293C1252.69 853.104 1250.68 847.068 1250.68 839.188ZM1258.81 839.188C1258.81 845.164 1260.11 849.646 1262.72 852.635C1265.33 855.594 1268.61 857.073 1272.56 857.073C1276.49 857.073 1279.76 855.579 1282.36 852.591C1284.97 849.603 1286.28 845.047 1286.28 838.924C1286.28 833.152 1284.96 828.787 1282.32 825.828C1279.71 822.84 1276.46 821.346 1272.56 821.346C1268.61 821.346 1265.33 822.825 1262.72 825.784C1260.11 828.743 1258.81 833.211 1258.81 839.188Z" fill="black" style="fill:black;fill-opacity:1;"/>
<path d="M1230.46 862.522V822.005H1223.48V815.853H1230.46V810.887C1230.46 807.752 1230.74 805.423 1231.3 803.899C1232.06 801.849 1233.39 800.193 1235.3 798.934C1237.23 797.645 1239.93 797 1243.38 797C1245.61 797 1248.07 797.264 1250.77 797.791L1249.58 804.69C1247.94 804.397 1246.39 804.251 1244.92 804.251C1242.52 804.251 1240.82 804.764 1239.83 805.789C1238.83 806.814 1238.33 808.733 1238.33 811.546V815.853H1247.43V822.005H1238.33V862.522H1230.46Z" fill="black" style="fill:black;fill-opacity:1;"/>
<path d="M1220.8 855.447L1221.94 862.435C1219.71 862.903 1217.72 863.138 1215.96 863.138C1213.09 863.138 1210.87 862.684 1209.28 861.775C1207.7 860.867 1206.59 859.681 1205.94 858.216C1205.3 856.722 1204.98 853.602 1204.98 848.855V822.005H1199.18V815.853H1204.98V804.295L1212.84 799.549V815.853H1220.8V822.005H1212.84V849.295C1212.84 851.551 1212.97 853.001 1213.24 853.646C1213.53 854.29 1213.99 854.803 1214.6 855.184C1215.25 855.564 1216.15 855.755 1217.33 855.755C1218.2 855.755 1219.36 855.652 1220.8 855.447Z" fill="black" style="fill:black;fill-opacity:1;"/>
<path d="M1183.88 856.766C1180.95 859.256 1178.13 861.014 1175.4 862.039C1172.71 863.064 1169.81 863.577 1166.7 863.577C1161.57 863.577 1157.63 862.332 1154.88 859.842C1152.12 857.322 1150.75 854.114 1150.75 850.218C1150.75 847.933 1151.26 845.853 1152.29 843.978C1153.34 842.073 1154.7 840.55 1156.37 839.407C1158.07 838.265 1159.98 837.4 1162.09 836.814C1163.64 836.404 1165.98 836.009 1169.12 835.628C1175.5 834.866 1180.21 833.958 1183.22 832.903C1183.25 831.819 1183.27 831.131 1183.27 830.838C1183.27 827.615 1182.52 825.345 1181.03 824.026C1179 822.239 1176 821.346 1172.02 821.346C1168.3 821.346 1165.54 822.005 1163.76 823.323C1162 824.612 1160.69 826.912 1159.84 830.223L1152.11 829.168C1152.81 825.857 1153.97 823.191 1155.58 821.17C1157.19 819.119 1159.52 817.552 1162.57 816.468C1165.62 815.354 1169.15 814.798 1173.16 814.798C1177.14 814.798 1180.38 815.267 1182.87 816.204C1185.36 817.142 1187.19 818.328 1188.37 819.764C1189.54 821.17 1190.36 822.957 1190.83 825.125C1191.09 826.473 1191.22 828.904 1191.22 832.42V842.967C1191.22 850.32 1191.38 854.979 1191.71 856.941C1192.06 858.875 1192.73 860.735 1193.73 862.522H1185.46C1184.64 860.882 1184.12 858.963 1183.88 856.766ZM1183.22 839.1C1180.35 840.271 1176.05 841.268 1170.3 842.088C1167.05 842.557 1164.75 843.084 1163.4 843.67C1162.06 844.256 1161.02 845.12 1160.28 846.263C1159.55 847.376 1159.19 848.621 1159.19 849.998C1159.19 852.107 1159.98 853.865 1161.56 855.271C1163.17 856.678 1165.51 857.381 1168.59 857.381C1171.64 857.381 1174.35 856.722 1176.72 855.403C1179.09 854.056 1180.84 852.225 1181.95 849.91C1182.8 848.123 1183.22 845.486 1183.22 842V839.1Z" fill="black" style="fill:black;fill-opacity:1;"/>
<path d="M1133.21 862.522V798.099H1141.12V862.522H1133.21Z" fill="black" style="fill:black;fill-opacity:1;"/>
<path d="M1074.37 862.522V798.099H1098.67C1102.95 798.099 1106.22 798.304 1108.47 798.714C1111.64 799.241 1114.29 800.252 1116.43 801.746C1118.57 803.211 1120.28 805.276 1121.57 807.942C1122.89 810.608 1123.55 813.538 1123.55 816.731C1123.55 822.21 1121.8 826.854 1118.32 830.662C1114.83 834.441 1108.53 836.331 1099.42 836.331H1082.9V862.522H1074.37ZM1082.9 828.729H1099.55C1105.06 828.729 1108.97 827.703 1111.29 825.652C1113.6 823.602 1114.76 820.716 1114.76 816.995C1114.76 814.3 1114.07 812 1112.69 810.096C1111.34 808.162 1109.56 806.888 1107.33 806.272C1105.89 805.892 1103.24 805.701 1099.38 805.701H1082.9V828.729Z" fill="black" style="fill:black;fill-opacity:1;"/>
<path d="M1040.53 855.447L1041.68 862.435C1039.45 862.903 1037.46 863.138 1035.7 863.138C1032.83 863.138 1030.6 862.684 1029.02 861.775C1027.44 860.867 1026.32 859.681 1025.68 858.216C1025.04 856.722 1024.71 853.602 1024.71 848.855V822.005H1018.91V815.853H1024.71V804.295L1032.58 799.549V815.853H1040.53V822.005H1032.58V849.295C1032.58 851.551 1032.71 853.001 1032.97 853.646C1033.27 854.29 1033.72 854.803 1034.34 855.184C1034.98 855.564 1035.89 855.755 1037.06 855.755C1037.94 855.755 1039.1 855.652 1040.53 855.447Z" fill="black" style="fill:black;fill-opacity:1;"/>
<path d="M973.165 862.522V815.853H980.284V822.488C983.712 817.361 988.663 814.798 995.138 814.798C997.95 814.798 1000.53 815.311 1002.87 816.336C1005.25 817.332 1007.02 818.65 1008.19 820.291C1009.36 821.932 1010.18 823.88 1010.65 826.136C1010.94 827.601 1011.09 830.164 1011.09 833.826V862.522H1003.18V834.134C1003.18 830.911 1002.87 828.509 1002.26 826.927C1001.64 825.315 1000.54 824.041 998.961 823.104C997.408 822.137 995.577 821.653 993.468 821.653C990.099 821.653 987.184 822.723 984.723 824.861C982.291 827 981.075 831.058 981.075 837.034V862.522H973.165Z" fill="black" style="fill:black;fill-opacity:1;"/>
<path d="M955.016 847.493L963.189 848.504C961.9 853.279 959.513 856.985 956.026 859.622C952.54 862.259 948.087 863.577 942.667 863.577C935.841 863.577 930.421 861.482 926.407 857.293C922.423 853.074 920.431 847.171 920.431 839.583C920.431 831.731 922.452 825.638 926.495 821.302C930.538 816.966 935.782 814.798 942.228 814.798C948.468 814.798 953.565 816.922 957.521 821.17C961.476 825.418 963.453 831.395 963.453 839.1C963.453 839.568 963.438 840.271 963.409 841.209H928.604C928.897 846.336 930.348 850.262 932.955 852.986C935.562 855.711 938.814 857.073 942.711 857.073C945.611 857.073 948.087 856.312 950.138 854.788C952.188 853.265 953.814 850.833 955.016 847.493ZM929.044 834.705H955.104C954.752 830.779 953.756 827.835 952.115 825.872C949.596 822.825 946.329 821.302 942.315 821.302C938.683 821.302 935.621 822.518 933.131 824.949C930.67 827.381 929.308 830.633 929.044 834.705Z" fill="black" style="fill:black;fill-opacity:1;"/>
<path d="M848.097 862.522V815.853H855.172V822.4C856.637 820.115 858.585 818.284 861.017 816.907C863.448 815.501 866.217 814.798 869.322 814.798C872.779 814.798 875.606 815.516 877.804 816.951C880.03 818.387 881.598 820.394 882.506 822.972C886.197 817.522 891.002 814.798 896.92 814.798C901.549 814.798 905.108 816.087 907.599 818.665C910.089 821.214 911.334 825.154 911.334 830.486V862.522H903.468V833.123C903.468 829.959 903.204 827.688 902.677 826.312C902.179 824.905 901.256 823.777 899.908 822.928C898.561 822.078 896.979 821.653 895.162 821.653C891.881 821.653 889.156 822.752 886.988 824.949C884.82 827.117 883.736 830.604 883.736 835.408V862.522H875.826V832.2C875.826 828.685 875.182 826.048 873.893 824.29C872.604 822.532 870.494 821.653 867.564 821.653C865.338 821.653 863.272 822.239 861.368 823.411C859.493 824.583 858.131 826.297 857.281 828.553C856.432 830.809 856.007 834.061 856.007 838.309V862.522H848.097Z" fill="black" style="fill:black;fill-opacity:1;"/>
<path d="M802.745 880.496L801.866 873.069C803.595 873.538 805.104 873.772 806.393 873.772C808.15 873.772 809.557 873.479 810.611 872.894C811.666 872.308 812.53 871.487 813.204 870.433C813.702 869.642 814.508 867.679 815.621 864.544C815.768 864.104 816.002 863.46 816.324 862.61L798.614 815.853H807.14L816.852 842.879C818.111 846.307 819.239 849.91 820.235 853.689C821.144 850.057 822.228 846.512 823.487 843.055L833.463 815.853H841.373L823.619 863.313C821.715 868.44 820.235 871.971 819.181 873.904C817.774 876.512 816.163 878.416 814.347 879.617C812.53 880.848 810.362 881.463 807.843 881.463C806.319 881.463 804.62 881.141 802.745 880.496Z" fill="black" style="fill:black;fill-opacity:1;"/>
<path d="M783.453 856.766C780.523 859.256 777.696 861.014 774.972 862.039C772.276 863.064 769.376 863.577 766.271 863.577C761.144 863.577 757.203 862.332 754.449 859.842C751.695 857.322 750.318 854.114 750.318 850.218C750.318 847.933 750.831 845.853 751.856 843.978C752.911 842.073 754.273 840.55 755.943 839.407C757.643 838.265 759.547 837.4 761.656 836.814C763.209 836.404 765.553 836.009 768.688 835.628C775.074 834.866 779.776 833.958 782.794 832.903C782.823 831.819 782.838 831.131 782.838 830.838C782.838 827.615 782.091 825.345 780.597 824.026C778.575 822.239 775.572 821.346 771.588 821.346C767.867 821.346 765.113 822.005 763.326 823.323C761.568 824.612 760.265 826.912 759.415 830.223L751.681 829.168C752.384 825.857 753.541 823.191 755.152 821.17C756.764 819.119 759.093 817.552 762.14 816.468C765.187 815.354 768.717 814.798 772.73 814.798C776.715 814.798 779.952 815.267 782.442 816.204C784.933 817.142 786.764 818.328 787.936 819.764C789.107 821.17 789.928 822.957 790.396 825.125C790.66 826.473 790.792 828.904 790.792 832.42V842.967C790.792 850.32 790.953 854.979 791.275 856.941C791.627 858.875 792.301 860.735 793.297 862.522H785.035C784.215 860.882 783.688 858.963 783.453 856.766ZM782.794 839.1C779.923 840.271 775.616 841.268 769.874 842.088C766.622 842.557 764.322 843.084 762.975 843.67C761.627 844.256 760.587 845.12 759.854 846.263C759.122 847.376 758.756 848.621 758.756 849.998C758.756 852.107 759.547 853.865 761.129 855.271C762.74 856.678 765.084 857.381 768.16 857.381C771.207 857.381 773.917 856.722 776.29 855.403C778.663 854.056 780.406 852.225 781.52 849.91C782.369 848.123 782.794 845.486 782.794 842V839.1Z" fill="black" style="fill:black;fill-opacity:1;"/>
<path d="M693.98 862.522V798.099H718.282C722.56 798.099 725.826 798.304 728.082 798.714C731.246 799.241 733.897 800.252 736.036 801.746C738.175 803.211 739.889 805.276 741.178 807.942C742.496 810.608 743.155 813.538 743.155 816.731C743.155 822.21 741.412 826.854 737.926 830.662C734.439 834.441 728.141 836.331 719.029 836.331H702.506V862.522H693.98ZM702.506 828.729H719.161C724.669 828.729 728.58 827.703 730.895 825.652C733.209 823.602 734.366 820.716 734.366 816.995C734.366 814.3 733.678 812 732.301 810.096C730.953 808.162 729.166 806.888 726.939 806.272C725.504 805.892 722.853 805.701 718.985 805.701H702.506V828.729Z" fill="black" style="fill:black;fill-opacity:1;"/>
<path d="M617.647 862.522L634.698 838.265L618.922 815.853H628.81L635.973 826.795C637.32 828.875 638.404 830.618 639.225 832.024C640.514 830.091 641.7 828.377 642.784 826.883L650.65 815.853H660.099L643.971 837.825L661.329 862.522H651.617L642.037 848.021L639.488 844.109L627.228 862.522H617.647Z" fill="black" style="fill:black;fill-opacity:1;"/>
<path d="M603.277 856.766C600.348 859.256 597.521 861.014 594.796 862.039C592.101 863.064 589.2 863.577 586.095 863.577C580.968 863.577 577.027 862.332 574.273 859.842C571.52 857.322 570.143 854.114 570.143 850.218C570.143 847.933 570.655 845.853 571.681 843.978C572.735 842.073 574.098 840.55 575.768 839.407C577.467 838.265 579.371 837.4 581.48 836.814C583.033 836.404 585.377 836.009 588.512 835.628C594.898 834.866 599.601 833.958 602.618 832.903C602.647 831.819 602.662 831.131 602.662 830.838C602.662 827.615 601.915 825.345 600.421 824.026C598.399 822.239 595.396 821.346 591.412 821.346C587.691 821.346 584.938 822.005 583.15 823.323C581.393 824.612 580.089 826.912 579.239 830.223L571.505 829.168C572.208 825.857 573.365 823.191 574.977 821.17C576.588 819.119 578.917 817.552 581.964 816.468C585.011 815.354 588.541 814.798 592.555 814.798C596.539 814.798 599.776 815.267 602.267 816.204C604.757 817.142 606.588 818.328 607.76 819.764C608.932 821.17 609.752 822.957 610.221 825.125C610.484 826.473 610.616 828.904 610.616 832.42V842.967C610.616 850.32 610.777 854.979 611.1 856.941C611.451 858.875 612.125 860.735 613.121 862.522H604.859C604.039 860.882 603.512 858.963 603.277 856.766ZM602.618 839.1C599.747 840.271 595.44 841.268 589.698 842.088C586.446 842.557 584.146 843.084 582.799 843.67C581.451 844.256 580.411 845.12 579.679 846.263C578.946 847.376 578.58 848.621 578.58 849.998C578.58 852.107 579.371 853.865 580.953 855.271C582.564 856.678 584.908 857.381 587.984 857.381C591.031 857.381 593.741 856.722 596.114 855.403C598.487 854.056 600.23 852.225 601.344 849.91C602.193 848.123 602.618 845.486 602.618 842V839.1Z" fill="black" style="fill:black;fill-opacity:1;"/>
<path d="M545.226 862.522V805.701H524V798.099H575.064V805.701H553.751V862.522H545.226Z" fill="black" style="fill:black;fill-opacity:1;"/>
</g>
</g>
<defs>
<linearGradient id="paint0_linear_2246_3685" x1="0" y1="540" x2="1920" y2="540" gradientUnits="userSpaceOnUse">
<stop stop-color="#EBEBEB" style="stop-color:#EBEBEB;stop-color:color(display-p3 0.9216 0.9216 0.9216);stop-opacity:1;"/>
</linearGradient>
<clipPath id="clip0_2246_3685">
<rect width="1920" height="1080" fill="white" style="fill:white;fill-opacity:1;"/>
</clipPath>
<clipPath id="clip1_2246_3685">
<rect width="872.93" height="84.4629" fill="white" style="fill:white;fill-opacity:1;" transform="translate(524 797)"/>
</clipPath>
</defs>
</svg>
