<svg width="65" height="65" viewBox="0 0 65 65" fill="none" xmlns="http://www.w3.org/2000/svg">
<path d="M32.9546 0.00301957C14.6773 -0.243832 -0.243844 14.6766 0.00301972 32.953C0.246758 50.4811 14.5195 64.7532 32.0484 64.9969C50.3288 65.2469 65.2469 50.3264 64.9969 32.05C64.7563 14.5188 50.4835 0.246747 32.9546 0.00301957ZM47.3446 19.8824L34.4952 49.0234C33.7468 50.6592 31.2485 50.1171 31.2485 48.311V34.3748C31.2485 34.209 31.1826 34.0501 31.0654 33.9329C30.9482 33.8157 30.7892 33.7498 30.6235 33.7498H16.6898C14.8898 33.7498 14.3461 31.2704 15.9757 30.5205L45.1197 17.6576C45.4311 17.5138 45.7791 17.469 46.1167 17.5292C46.4544 17.5894 46.7655 17.7517 47.008 17.9942C47.2505 18.2367 47.4128 18.5478 47.473 18.8854C47.5332 19.223 47.4884 19.571 47.3446 19.8824Z" fill="white"/>
</svg>
