<svg width="65" height="65" viewBox="0 0 65 65" fill="none" xmlns="http://www.w3.org/2000/svg">
<path d="M12.1857 0C8.95389 0 5.85439 1.27615 3.56912 3.5477C1.28385 5.81925 0 8.90014 0 12.1126V48.7573C0.000184085 49.1632 0.121056 49.56 0.347428 49.8978C0.5738 50.2356 0.895574 50.4994 1.27232 50.6561C1.64906 50.8127 2.06396 50.8551 2.4649 50.778C2.86583 50.701 3.2349 50.5078 3.52574 50.2229L8.97684 44.8732L24.1603 30.015C25.2999 28.9005 26.8346 28.2759 28.4334 28.2759C30.0322 28.2759 31.5669 28.9005 32.7066 30.015L39.7824 36.9394L49.1573 27.6208C51.2105 25.5735 53.9615 24.3662 56.8668 24.2373V12.1126C56.8668 8.90014 55.583 5.81925 53.2977 3.5477C51.0124 1.27615 47.9129 0 44.6811 0H12.1857ZM44.6811 18.1689C44.6811 18.9642 44.5235 19.7518 44.2173 20.4866C43.9111 21.2213 43.4623 21.889 42.8965 22.4514C42.3307 23.0137 41.6591 23.4598 40.9198 23.7642C40.1806 24.0686 39.3883 24.2252 38.5882 24.2252C37.7881 24.2252 36.9958 24.0686 36.2566 23.7642C35.5173 23.4598 34.8457 23.0137 34.2799 22.4514C33.7141 21.889 33.2653 21.2213 32.9591 20.4866C32.6529 19.7518 32.4953 18.9642 32.4953 18.1689C32.4953 16.5627 33.1373 15.0222 34.2799 13.8865C35.4225 12.7507 36.9723 12.1126 38.5882 12.1126C40.2041 12.1126 41.7539 12.7507 42.8965 13.8865C44.0392 15.0222 44.6811 16.5627 44.6811 18.1689ZM40.6192 18.1689C40.6192 18.7043 40.4052 19.2178 40.0243 19.5964C39.6434 19.975 39.1268 20.1877 38.5882 20.1877C38.0496 20.1877 37.533 19.975 37.1521 19.5964C36.7712 19.2178 36.5572 18.7043 36.5572 18.1689C36.5572 17.6335 36.7712 17.12 37.1521 16.7414C37.533 16.3628 38.0496 16.1501 38.5882 16.1501C39.1268 16.1501 39.6434 16.3628 40.0243 16.7414C40.4052 17.12 40.6192 17.6335 40.6192 18.1689ZM29.5423 47.118L36.9066 39.7939L29.8591 32.8938C29.4791 32.5215 28.967 32.3127 28.4334 32.3127C27.8998 32.3127 27.3877 32.5215 27.0077 32.8938L9.85015 49.6859C8.95653 50.6388 9.81765 52.0559 11.0525 51.6158L12.3807 51.1435C15.2444 50.122 19.5459 48.9228 23.5388 50.5217C24.7005 50.986 25.6185 51.6522 26.3172 52.4274C26.9427 50.4288 28.0475 48.6038 29.5423 47.118ZM32.4141 49.9726L52.0331 30.4713C52.7389 29.7703 53.5766 29.2144 54.4984 28.8353C55.4203 28.4561 56.4082 28.2612 57.4059 28.2615C58.4035 28.2619 59.3913 28.4576 60.3129 28.8374C61.2345 29.2173 62.0717 29.7738 62.7769 30.4753C63.4821 31.1768 64.0414 32.0095 64.4228 32.9258C64.8042 33.8421 65.0004 34.8241 65 35.8158C64.9996 36.8075 64.8027 37.7893 64.4206 38.7054C64.0385 39.6214 63.4786 40.4536 62.7729 41.1546L43.1538 60.6518C42.0105 61.7879 40.5786 62.5945 39.0106 62.9855L34.051 64.217C29.4936 65.5413 22.698 65.1133 20.5899 63.4781C18.7661 62.065 18.6929 59.8968 19.3063 58.4554C19.4444 58.1324 19.2007 57.7166 18.8554 57.7691C16.8448 58.0517 15.1997 58.7784 13.5749 59.4931C11.2028 60.5428 8.87935 61.5643 5.54858 61.1525C2.66056 60.7972 1.05204 59.2993 0.166538 57.8215C-0.329016 56.9979 0.76364 56.2388 1.62883 56.6668C3.12361 57.4097 4.99616 58.0194 6.56812 57.6762C7.58766 57.4501 8.91184 56.8969 10.3985 56.2752C13.9933 54.7692 18.5345 52.8715 22.0278 54.2685C24.6112 55.3021 24.3959 58.2293 23.6688 59.6384C23.5266 59.9049 23.6363 60.2844 23.9328 60.3531C25.4184 60.6532 26.9351 60.7725 28.4497 60.7084C28.4673 60.518 28.4985 60.3291 28.5431 60.1431L30.0663 54.0949C30.4597 52.5363 31.2711 51.113 32.4141 49.9766" fill="white"/>
</svg>
