<svg width="65" height="66" viewBox="0 0 65 66" fill="none" xmlns="http://www.w3.org/2000/svg">
<path d="M4.53488 19.107C4.53488 11.2163 11.4793 4.53488 20.407 4.53488C27.0037 4.53488 32.5726 8.21721 34.9851 13.3326C35.2417 13.8766 35.7039 14.2964 36.27 14.4997C36.8361 14.7029 37.4598 14.673 38.0038 14.4164C38.5479 14.1598 38.9677 13.6976 39.171 13.1315C39.3742 12.5654 39.3443 11.9417 39.0877 11.3977C35.8921 4.62558 28.6816 0 20.407 0C9.29953 0 0 8.39861 0 19.107C0 23.0674 1.28791 26.7377 3.47372 29.773L1.32116 36.0977C0.232791 39.2993 3.79116 42.0686 6.62698 40.2395L12.2321 36.6177C13.2318 37.0268 14.2698 37.3604 15.346 37.6184C15.9286 37.7513 16.5401 37.6489 17.0475 37.3335C17.555 37.0181 17.9175 36.5151 18.0561 35.9338C18.1947 35.3526 18.0983 34.7402 17.7879 34.2296C17.4774 33.7191 16.978 33.3517 16.3981 33.2074C15.2324 32.9292 14.1002 32.5258 13.0212 32.0042L11.8723 31.4509L6.51512 34.9126L8.56488 28.8812L7.75767 27.9077C5.68636 25.4418 4.54586 22.3273 4.53488 19.107ZM33.1047 40.4209C32.107 37.4279 33.286 33.7395 36.5512 32.7116C38.2442 32.1977 40.3605 32.6209 41.5698 34.2233C42.7186 32.5605 44.8953 32.1977 46.5884 32.7116C49.8535 33.7093 51.0326 37.4279 50.0349 40.4209C48.493 45.1674 43.0814 47.6163 41.5698 47.6163C40.0581 47.6163 34.707 45.1977 33.1047 40.4209Z" fill="white"/>
<path d="M41.5698 18.1396C28.7905 18.1396 18.1395 27.7989 18.1395 40.0582C18.1395 52.3175 28.7905 61.9768 41.5698 61.9768C44.8562 61.9818 48.1109 61.3334 51.1444 60.0691L57.85 64.4014C60.8582 66.3454 64.6342 63.4038 63.4793 60.0117L60.9065 52.4414C63.5595 48.8573 64.9941 44.5174 65 40.0582C65 27.7989 54.3491 18.1396 41.5698 18.1396ZM22.6744 40.0582C22.6744 30.6135 30.9733 22.6745 41.5698 22.6745C52.1663 22.6745 60.4651 30.6135 60.4651 40.0582C60.4534 43.9048 59.0913 47.6252 56.6165 50.57L55.8093 51.5466L58.4849 59.4131L51.5012 54.8963L50.3523 55.4526C47.6125 56.7702 44.6099 57.4503 41.5698 57.4419C30.9733 57.4419 22.6744 49.5028 22.6744 40.0582ZM12.8488 12.8489C12.4479 12.8489 12.0635 13.0081 11.78 13.2916C11.4965 13.5751 11.3372 13.9596 11.3372 14.3605C11.3372 14.7614 11.4965 15.1459 11.78 15.4294C12.0635 15.7129 12.4479 15.8721 12.8488 15.8721H27.9651C28.366 15.8721 28.7505 15.7129 29.034 15.4294C29.3175 15.1459 29.4768 14.7614 29.4768 14.3605C29.4768 13.9596 29.3175 13.5751 29.034 13.2916C28.7505 13.0081 28.366 12.8489 27.9651 12.8489H12.8488ZM11.3372 26.4535C11.3372 26.0526 11.4965 25.6681 11.78 25.3846C12.0635 25.1012 12.4479 24.9419 12.8488 24.9419H15.8721C16.273 24.9419 16.6575 25.1012 16.941 25.3846C17.2245 25.6681 17.3837 26.0526 17.3837 26.4535C17.3837 26.8544 17.2245 27.2389 16.941 27.5224C16.6575 27.8059 16.273 27.9652 15.8721 27.9652H12.8488C12.4479 27.9652 12.0635 27.8059 11.78 27.5224C11.4965 27.2389 11.3372 26.8544 11.3372 26.4535ZM12.8488 18.8954C12.4479 18.8954 12.0635 19.0546 11.78 19.3381C11.4965 19.6216 11.3372 20.0061 11.3372 20.407C11.3372 20.8079 11.4965 21.1924 11.78 21.4759C12.0635 21.7594 12.4479 21.9186 12.8488 21.9186H21.9186C22.3195 21.9186 22.704 21.7594 22.9875 21.4759C23.271 21.1924 23.4302 20.8079 23.4302 20.407C23.4302 20.0061 23.271 19.6216 22.9875 19.3381C22.704 19.0546 22.3195 18.8954 21.9186 18.8954H12.8488Z" fill="white"/>
</svg>
