<svg width="65" height="63" viewBox="0 0 65 63" fill="none" xmlns="http://www.w3.org/2000/svg">
<path d="M26.3062 3.0981C30.1786 3.0981 33.8592 3.93458 37.1682 5.44026C35.5714 6.85748 34.5111 8.78193 34.1656 10.8898C30.1853 9.19944 25.7669 8.8373 21.5649 9.85705C17.3628 10.8768 13.6008 13.2242 10.8361 16.5514C8.07147 19.8787 6.45126 24.0087 6.21554 28.3297C5.97982 32.6507 7.14114 36.9328 9.52744 40.5415C11.9137 44.1502 15.3981 46.8936 19.4642 48.3651C23.5303 49.8367 27.9619 49.9582 32.1024 48.7115C36.2429 47.4649 39.872 44.9165 42.4521 41.444C45.0321 37.9714 46.4259 33.7594 46.4268 29.4319L46.4113 28.5985C48.0705 30.0856 50.2466 30.9686 52.5744 30.981C52.2666 36.3577 50.3114 41.509 46.9747 45.7341L58.2794 57.0483C58.8432 57.6326 59.1552 58.4152 59.1482 59.2275C59.1411 60.0398 58.8156 60.8169 58.2417 61.3913C57.6677 61.9657 56.8914 62.2915 56.0797 62.2986C55.2681 62.3056 54.4862 61.9934 53.9024 61.429L42.5977 50.1148C39.3025 52.7139 35.4341 54.4867 31.3151 55.2852C27.1962 56.0837 22.9462 55.8848 18.9196 54.7051C14.8931 53.5255 11.2068 51.3992 8.1683 48.5037C5.12977 45.6083 2.82713 42.0275 1.45246 38.0603C0.0777852 34.093 -0.32905 29.8543 0.265891 25.6977C0.860832 21.541 2.4403 17.5871 4.87252 14.1656C7.30474 10.7442 10.5192 7.95445 14.2477 6.02919C17.9762 4.10393 22.1107 3.09895 26.3062 3.0981ZM26.3062 12.3924C29.1757 12.3924 31.8812 13.1049 34.2554 14.3597C34.5943 15.9255 35.3319 17.377 36.3966 18.5734C37.4613 19.7698 38.8168 20.6704 40.3318 21.1879L41.409 21.5565C43.1266 24.8548 43.7187 28.6248 43.0951 32.2914C42.4715 35.958 40.6663 39.3196 37.9551 41.8633C35.244 44.407 31.7757 45.993 28.0797 46.3793C24.3836 46.7656 20.6628 45.9309 17.485 44.0027C14.3073 42.0745 11.8471 39.1586 10.4801 35.7001C9.11307 32.2416 8.9142 28.4305 9.91385 24.8482C10.9135 21.266 13.0568 18.1096 16.0165 15.8606C18.9763 13.6115 22.5901 12.3935 26.3062 12.3924ZM52.6178 0C53.1969 -1.29084e-06 53.7643 0.162582 54.2557 0.469272C54.7471 0.775963 55.1427 1.21446 55.3975 1.73493L55.5461 2.09741L55.9485 3.26849C56.3732 4.51449 57.0575 5.65598 57.9562 6.61735C58.8548 7.57873 59.9473 8.33806 61.1613 8.84506L61.7339 9.06193L62.904 9.46158C63.4835 9.65943 63.9913 10.0248 64.3632 10.5115C64.7352 10.9982 64.9546 11.5844 64.9937 12.1959C65.0328 12.8074 64.8898 13.4168 64.5829 13.947C64.2759 14.4771 63.8188 14.9043 63.2693 15.1745L62.904 15.3232L61.7339 15.7259C60.489 16.151 59.3485 16.8359 58.3879 17.7353C57.4273 18.6348 56.6686 19.7282 56.1621 20.9431L55.9454 21.5163L55.5461 22.6874C55.348 23.2671 54.9827 23.7751 54.4962 24.1471C54.0097 24.519 53.424 24.7383 52.813 24.7771C52.2021 24.8159 51.5933 24.6725 51.0638 24.365C50.5342 24.0576 50.1077 23.5999 49.838 23.0498L49.6894 22.6874L49.287 21.5163C48.8623 20.2703 48.178 19.1288 47.2793 18.1674C46.3806 17.206 45.2882 16.4467 44.0742 15.9397L43.5016 15.7228L42.3315 15.3232C41.752 15.1253 41.2442 14.7599 40.8723 14.2732C40.5003 13.7865 40.2809 13.2004 40.2418 12.5889C40.2027 11.9774 40.3457 11.368 40.6526 10.8378C40.9596 10.3076 41.4167 9.88045 41.9662 9.61029L42.3315 9.46158L43.5016 9.05883C44.7465 8.63377 45.887 7.94885 46.8476 7.04943C47.8082 6.15001 48.5669 5.05661 49.0734 3.84164L49.2901 3.26849L49.6894 2.09741C49.898 1.48581 50.2924 0.954786 50.8175 0.578692C51.3426 0.202597 51.9721 0.000257846 52.6178 0Z" fill="white"/>
</svg>
