<svg width="433" height="691" viewBox="0 0 433 691" fill="none" xmlns="http://www.w3.org/2000/svg">
<g clip-path="url(#clip0_3142_4268)">
<mask id="mask0_3142_4268" style="mask-type:luminance" maskUnits="userSpaceOnUse" x="-1" y="10" width="435" height="884">
<path d="M433.392 10H-1V893.172H433.392V10Z" fill="white"/>
</mask>
<g mask="url(#mask0_3142_4268)">
<path d="M430.312 257.04H431.853C432.705 257.04 433.394 257.734 433.394 258.584V351.225C433.394 352.078 432.705 352.769 431.853 352.769H430.312V257.04Z" fill="#213744"/>
<path d="M2.08083 373.356H0.540498C-0.31034 373.356 -1 372.664 -1 371.812V314.17C-1 313.317 -0.31034 312.625 0.540498 312.625H2.08083V373.356Z" fill="#213744"/>
<path d="M2.08083 296.155H0.540498C-0.31034 296.155 -1 295.464 -1 294.611V236.969C-1 236.116 -0.31034 235.425 0.540498 235.425H2.08083V296.155Z" fill="#213744"/>
<path d="M2.08083 208.662H0.540498C-0.31034 208.662 -1 207.972 -1 207.119V181.384C-1 180.533 -0.31034 179.841 0.540498 179.841H2.08083V208.662Z" fill="#213744"/>
<path d="M2.07812 103.67C2.07812 78.7631 2.07812 66.3098 5.34512 56.2315C11.9481 35.8626 27.8803 19.893 48.2018 13.2746C58.2566 10 70.6806 10 95.5298 10H336.858C361.708 10 374.131 10 384.187 13.2746C404.507 19.893 420.439 35.8626 427.042 56.2315C430.309 66.3098 430.309 78.7631 430.309 103.67V799.503C430.309 824.408 430.309 836.862 427.042 846.94C420.439 867.309 404.507 883.279 384.187 889.898C374.131 893.172 361.708 893.172 336.858 893.172H95.5298C70.6806 893.172 58.2566 893.172 48.2018 889.898C27.8803 883.279 11.9481 867.309 5.34512 846.94C2.07812 836.862 2.07812 824.408 2.07812 799.503V103.67Z" fill="#404040"/>
<path fill-rule="evenodd" clip-rule="evenodd" d="M337.268 12.0592H95.1193C70.5726 12.0592 58.5433 12.072 48.8367 15.2331C29.1407 21.6477 13.6986 37.1259 7.29895 56.8683C4.14516 66.5974 4.13241 78.6546 4.13241 103.259V799.914C4.13241 824.519 4.14516 836.576 7.29895 846.305C13.6986 866.047 29.1407 881.526 48.8367 887.94C58.5433 891.101 70.5726 891.113 95.1193 891.113H337.268C361.815 891.113 373.844 891.101 383.551 887.94C403.247 881.526 418.689 866.047 425.09 846.305C428.243 836.576 428.257 824.519 428.257 799.914V103.259C428.257 78.6546 428.243 66.5974 425.09 56.8683C418.689 37.1259 403.247 21.6477 383.551 15.2331C373.844 12.072 361.815 12.0592 337.268 12.0592ZM6.32233 56.5502C3.10547 66.4732 3.10547 78.7352 3.10547 103.259V799.914C3.10547 824.438 3.10547 836.699 6.32233 846.624C12.8235 866.678 28.5108 882.403 48.5196 888.92C58.4196 892.144 70.6528 892.144 95.1193 892.144H337.268C361.737 892.144 373.969 892.144 383.869 888.92C403.877 882.403 419.566 866.678 426.066 846.624C429.283 836.699 429.283 824.438 429.283 799.914V103.259C429.283 78.7352 429.283 66.4732 426.066 56.5502C419.566 36.4945 403.877 20.7705 383.869 14.2542C373.969 11.0298 361.737 11.0298 337.268 11.0298H95.1193C70.6528 11.0298 58.4196 11.0298 48.5196 14.2542C28.5108 20.7705 12.8235 36.4945 6.32233 56.5502Z" fill="#EFEFEF"/>
<path d="M7.21875 101.611C7.21875 78.6198 7.21875 67.1253 10.2345 57.8213C16.3294 39.0192 31.0362 24.2779 49.7944 18.1688C59.0758 15.146 70.5443 15.146 93.4811 15.146H338.918C361.854 15.146 373.323 15.146 382.605 18.1688C401.363 24.2779 416.07 39.0192 422.166 57.8213C425.181 67.1253 425.181 78.6198 425.181 101.611V801.561C425.181 824.551 425.181 836.045 422.166 845.349C416.07 864.152 401.363 878.892 382.605 885.001C373.323 888.025 361.854 888.025 338.918 888.025H93.4811C70.5443 888.025 59.0758 888.025 49.7944 885.001C31.0362 878.892 16.3294 864.152 10.2345 845.349C7.21875 836.045 7.21875 824.551 7.21875 801.561V101.611Z" fill="#121515"/>
<path d="M338.914 10H345.077V15.1467H338.914V10Z" fill="#36454C"/>
<path d="M425.176 98.5234H430.309V104.699H425.176V98.5234Z" fill="#36454C"/>
<path d="M2.07812 98.5234H7.21284V104.699H2.07812V98.5234Z" fill="#36454C"/>
</g>
<g clip-path="url(#clip1_3142_4268)">
<rect x="11.1328" y="18.6763" width="409.004" height="862.441" rx="60" fill="white"/>
<g clip-path="url(#clip2_3142_4268)">
<path d="M420.137 18.6763H11.1328V1363.53H420.137V18.6763Z" fill="#F4F8FA"/>
<path d="M55.7001 39.0747C58.2237 39.0747 60.4194 40.8695 60.4194 45.1313V45.1476C60.4194 49.1306 58.6251 51.4909 55.651 51.4909C53.4798 51.4909 51.8576 50.2043 51.4807 48.393L51.4643 48.3029H53.5453L53.57 48.3848C53.8812 49.2126 54.6105 49.7535 55.651 49.7535C57.5272 49.7535 58.322 47.9177 58.4122 45.6558C58.4122 45.5656 58.4203 45.4755 58.4203 45.3852H58.2564C57.8222 46.3196 56.7899 47.1473 55.1676 47.1473C52.898 47.1473 51.3086 45.4918 51.3086 43.2463V43.2298C51.3086 40.8286 53.1357 39.0747 55.7001 39.0747ZM55.692 45.5247C57.0274 45.5247 58.0516 44.5576 58.0516 43.2216V43.2053C58.0516 41.8531 57.0274 40.7957 55.7165 40.7957C54.4139 40.7957 53.3733 41.8366 53.3733 43.1561V43.1725C53.3733 44.5411 54.3483 45.5247 55.692 45.5247ZM63.8036 43.5331C63.058 43.5331 62.5008 42.9594 62.5008 42.2382C62.5008 41.5088 63.058 40.9433 63.8036 40.9433C64.5573 40.9433 65.1063 41.5088 65.1063 42.2382C65.1063 42.9594 64.5573 43.5331 63.8036 43.5331ZM63.8036 49.6142C63.058 49.6142 62.5008 49.0486 62.5008 48.3193C62.5008 47.5899 63.058 47.0243 63.8036 47.0243C64.5573 47.0243 65.1063 47.5899 65.1063 48.3193C65.1063 49.0486 64.5573 49.6142 63.8036 49.6142ZM72.9229 51.1959V48.9257H67.1385V47.1965C68.6706 44.5329 70.3502 41.812 71.9562 39.3698H74.9466V47.1801H76.5361V48.9257H74.9466V51.1959H72.9229ZM69.1049 47.2293H72.9557V41.058H72.8328C71.6201 42.9103 70.252 45.0984 69.1049 47.1064V47.2293ZM81.1 51.1959V41.4514H80.9607L78.0194 43.5331V41.5416L81.1082 39.3698H83.2138V51.1959H81.1Z" fill="black"/>
<path opacity="0.35" d="M367.702 39.1323H385.53C387.557 39.1323 389.201 40.7761 389.201 42.8039V48.0491C389.201 50.0768 387.557 51.7206 385.53 51.7206H367.702C365.675 51.7206 364.031 50.0768 364.031 48.0491V42.8039C364.031 40.7761 365.675 39.1323 367.702 39.1323Z" stroke="black"/>
<path opacity="0.4" d="M390.773 43.853V48.2802C391.664 47.9053 392.243 47.033 392.243 46.0667C392.243 45.1002 391.664 44.2279 390.773 43.853Z" fill="black"/>
<path d="M365.602 42.8041C365.602 41.6454 366.54 40.7061 367.699 40.7061H385.527C386.686 40.7061 387.625 41.6454 387.625 42.8041V48.0492C387.625 49.208 386.686 50.1473 385.527 50.1473H367.699C366.54 50.1473 365.602 49.208 365.602 48.0492V42.8041Z" fill="black"/>
<path d="M344.749 49.0127C346.238 47.7271 348.418 47.7272 349.908 49.0127C349.983 49.0819 350.026 49.1801 350.028 49.2832C350.03 49.3863 349.992 49.4855 349.919 49.5578L347.587 51.96C347.519 52.0306 347.426 52.0706 347.329 52.0707C347.231 52.0707 347.138 52.0306 347.07 51.96L344.737 49.5578C344.666 49.4855 344.626 49.3863 344.628 49.2832C344.63 49.1801 344.674 49.0818 344.749 49.0127ZM341.596 46.1382C344.805 43.0911 349.773 43.0911 352.981 46.1382C353.054 46.2096 353.095 46.3079 353.096 46.4107C353.097 46.5134 353.057 46.6124 352.987 46.6852L351.639 48.0754C351.5 48.2173 351.275 48.2208 351.133 48.0825C350.08 47.1086 348.709 46.5694 347.288 46.5694C345.868 46.57 344.498 47.1091 343.445 48.0825C343.303 48.2208 343.078 48.2173 342.94 48.0754L341.591 46.6852C341.521 46.6124 341.481 46.5134 341.482 46.4107C341.483 46.3079 341.524 46.2096 341.596 46.1382ZM338.448 43.2677C343.369 38.4531 351.131 38.4531 356.052 43.2677C356.122 43.3392 356.163 43.4371 356.164 43.5392C356.164 43.641 356.126 43.7393 356.055 43.8116L354.706 45.2018C354.567 45.3445 354.342 45.3462 354.2 45.2059C352.325 43.3861 349.837 42.3714 347.25 42.3713C344.663 42.3714 342.175 43.3861 340.3 45.2059C340.16 45.3463 339.933 45.3447 339.795 45.2018L338.445 43.8116C338.375 43.7393 338.336 43.6409 338.336 43.5392C338.337 43.4371 338.377 43.3391 338.448 43.2677Z" fill="black"/>
<path d="M321.555 42.8039C321.555 42.2245 322.025 41.7549 322.603 41.7549H323.652C324.231 41.7549 324.701 42.2245 324.701 42.8039V51.1961C324.701 51.7755 324.231 52.2452 323.652 52.2452H322.603C322.025 52.2452 321.555 51.7755 321.555 51.1961V42.8039Z" fill="black"/>
<path d="M326.801 40.7058C326.801 40.1264 327.271 39.6567 327.85 39.6567H328.898C329.477 39.6567 329.947 40.1264 329.947 40.7058V51.196C329.947 51.7754 329.477 52.2451 328.898 52.2451H327.85C327.271 52.2451 326.801 51.7754 326.801 51.196V40.7058Z" fill="black"/>
<path d="M316.312 46.4753C316.312 45.8959 316.782 45.4263 317.361 45.4263H318.41C318.989 45.4263 319.459 45.8959 319.459 46.4753V51.1959C319.459 51.7753 318.989 52.2449 318.41 52.2449H317.361C316.782 52.2449 316.312 51.7753 316.312 51.1959V46.4753Z" fill="black"/>
<path d="M311.07 49.0979C311.07 48.5185 311.54 48.0488 312.119 48.0488H313.168C313.747 48.0488 314.216 48.5185 314.216 49.0979V51.1959C314.216 51.7753 313.747 52.2449 313.168 52.2449H312.119C311.54 52.2449 311.07 51.7753 311.07 51.1959V49.0979Z" fill="black"/>
<path d="M175.554 85.6879H192.858V87.3244H175.554V85.6879ZM176.267 101.109H192.229V102.745H176.267V101.109ZM179.791 88.4993H188.495V89.947H179.791V88.4993ZM179.791 91.1639H188.495V92.6115H179.791V91.1639ZM174.505 93.8703H193.823V95.5068H174.505V93.8703ZM179.078 97.6468H189.292V99.2414H179.078V97.6468ZM178.616 83.8416H180.609V94.7725H178.616V83.8416ZM187.803 83.8626H189.817V94.7725H187.803V83.8626ZM183.105 96.0733H185.139V102.032H183.105V96.0733ZM179.812 94.3319L181.469 94.9403C180.168 97.1223 177.882 99.1155 175.596 100.165C175.302 99.7029 174.736 99.0106 174.316 98.6539C176.456 97.8147 178.679 96.1153 179.812 94.3319ZM188.621 94.3319C189.733 96.0313 191.893 97.6259 194.074 98.4021C193.634 98.7588 193.047 99.4721 192.753 99.9337C190.53 98.9686 188.306 96.9964 187.048 94.9194L188.621 94.3319ZM199.612 90.0309H210.623V91.8772H199.612V90.0309ZM197.032 94.4368H213.245V96.2411H197.032V94.4368ZM196.067 100.962H214.252V102.787H196.067V100.962ZM204.037 90.8911H206.156V101.843H204.037V90.8911ZM198.647 97.1223L200.262 96.4509C201.059 97.5629 201.919 99.1155 202.255 100.123L200.535 100.857C200.22 99.8708 199.423 98.2763 198.647 97.1223ZM209.826 96.4509L211.714 97.1643C210.917 98.4861 209.994 99.9337 209.26 100.878L207.771 100.248C208.463 99.2204 209.344 97.6259 209.826 96.4509ZM205.883 84.8277C207.855 87.0726 211.735 89.2966 215.154 90.3036C214.692 90.7233 214.084 91.5205 213.77 92.0241C210.351 90.8072 206.533 88.3105 204.247 85.646L205.883 84.8277ZM205.002 83.6318L206.869 84.4711C204.541 88.0378 200.702 90.6184 196.549 92.129C196.256 91.5625 195.71 90.7862 195.207 90.3036C199.171 89.0868 203.01 86.7579 205.002 83.6318ZM217.839 86.6321H234.492V98.7588H232.437V88.5413H219.81V98.8637H217.839V86.6321ZM219.118 91.1848H233.465V93.0311H219.118V91.1848ZM219.118 95.8005H233.486V97.7098H219.118V95.8005ZM225.012 83.8416H227.088V103.312H225.012V83.8416ZM245.231 85.583H256.327V87.0307H245.231V85.583ZM244.812 90.6184H256.746V92.066H244.812V90.6184ZM244.728 98.4231H256.809V99.8918H244.728V98.4231ZM245.756 88.0797H255.991V89.4644H245.756V88.0797ZM247.664 83.8626H249.405V91.2268H247.664V83.8626ZM252.111 83.8626H253.873V91.2268H252.111V83.8626ZM249.867 91.2688H251.608V98.8637H249.867V91.2688ZM253.852 93.0941H255.677V101.402C255.677 102.305 255.488 102.766 254.88 103.039C254.229 103.312 253.265 103.312 251.817 103.312C251.734 102.85 251.503 102.158 251.272 101.717C252.258 101.738 253.223 101.738 253.495 101.738C253.768 101.717 253.852 101.654 253.852 101.402V93.0941ZM245.966 93.0941H254.628V94.5417H247.748V103.354H245.966V93.0941ZM246.867 95.8005H254.607V97.1013H246.867V95.8005ZM239.296 98.3392L241.057 98.7378C240.533 100.479 239.61 102.221 238.645 103.354C238.31 103.081 237.576 102.577 237.156 102.346C238.1 101.339 238.897 99.8288 239.296 98.3392ZM241.854 98.9476L243.344 98.2972C244.036 99.3463 244.791 100.731 245.127 101.633L243.574 102.367C243.26 101.465 242.526 100.018 241.854 98.9476ZM239.988 90.1148V92.5066H242.672V90.1148H239.988ZM239.988 93.9962V96.409H242.672V93.9962H239.988ZM239.988 86.2544V88.6042H242.672V86.2544H239.988ZM238.268 84.6389H244.413V98.0245H238.268V84.6389Z" fill="#00A19B"/>
<mask id="mask1_3142_4268" style="mask-type:luminance" maskUnits="userSpaceOnUse" x="16" y="71" width="47" height="47">
<path d="M62.519 71.1274H16.375V117.285H62.519V71.1274Z" fill="white"/>
</mask>
<g mask="url(#mask1_3142_4268)">
<path d="M42.5931 87.9121L36.3008 94.2063L42.5931 100.5" stroke="#00A19B" stroke-width="2" stroke-linecap="round"/>
</g>
<mask id="mask2_3142_4268" style="mask-type:luminance" maskUnits="userSpaceOnUse" x="27" y="141" width="377" height="916">
<path d="M403.359 141.413H27.9141V1056.16H403.359V141.413Z" fill="white"/>
</mask>
<g mask="url(#mask2_3142_4268)">
<path d="M193.089 141.413H119.678C110.411 141.413 102.898 148.927 102.898 158.197C102.898 167.467 110.411 174.981 119.678 174.981H193.089C202.356 174.981 209.869 167.467 209.869 158.197C209.869 148.927 202.356 141.413 193.089 141.413Z" fill="#00A19B"/>
<path d="M209.867 158.197H314.74" stroke="#D9D9D9" stroke-width="4"/>
<path d="M137.025 159.836V160.835H144.425V159.836H137.025ZM137.025 161.554V162.582H144.425V161.554H137.025ZM137.025 158.118V159.116H144.425V158.118H137.025ZM135.954 157.383H145.526V163.317H135.954V157.383ZM142.047 164.007L142.781 163.39C144.381 163.875 146.099 164.521 147.142 164.991L146.158 165.622C145.218 165.152 143.632 164.521 142.047 164.007ZM138.42 163.405L139.419 163.875C138.229 164.58 136.365 165.255 134.897 165.652C134.72 165.446 134.339 165.02 134.089 164.829C135.601 164.506 137.363 163.992 138.42 163.405ZM140.109 153.154H146.158V154.02H140.109V153.154ZM140.344 152.125L141.327 152.346C140.931 153.55 140.226 154.74 139.463 155.489C139.287 155.327 138.875 155.063 138.626 154.931C139.389 154.226 140.006 153.183 140.344 152.125ZM142.091 153.697H143.104V154.196C143.104 155.312 142.634 156.634 138.494 157.28C138.391 157.016 138.097 156.634 137.906 156.429C141.724 155.929 142.091 154.916 142.091 154.167V153.697ZM142.957 154.563C143.706 155.518 145.38 156.135 147.42 156.311C147.2 156.531 146.921 156.928 146.789 157.207C144.675 156.899 142.986 156.061 142.179 154.754L142.957 154.563ZM134.339 153.036H137.877V153.903H134.339V153.036ZM134.016 155.327H138.244V156.223H134.016V155.327ZM145.791 153.154H145.982L146.143 153.109L146.892 153.359C146.525 154.108 146.055 154.96 145.644 155.489L144.778 155.18C145.115 154.696 145.526 153.947 145.791 153.315V153.154ZM151.047 152.17H152.075V165.666H151.047V152.17ZM148.683 157.089H154.483V158.132H148.683V157.089ZM148.786 153.315L149.593 153.109C150.019 154.138 150.357 155.474 150.46 156.37L149.579 156.575C149.52 155.709 149.168 154.343 148.786 153.315ZM153.528 153.051L154.497 153.3C154.116 154.402 153.66 155.782 153.264 156.605L152.545 156.385C152.882 155.503 153.323 154.049 153.528 153.051ZM159.225 152.17H160.267V165.666H159.225V152.17ZM154.453 161.51L162 160.159L162.176 161.172L154.629 162.538L154.453 161.51ZM155.554 153.961L156.127 153.212C156.979 153.712 157.992 154.461 158.476 155.004L157.889 155.856C157.419 155.283 156.406 154.49 155.554 153.961ZM154.806 157.662L155.319 156.884C156.2 157.339 157.287 158.029 157.815 158.558L157.258 159.425C156.744 158.896 155.687 158.147 154.806 157.662ZM149.946 158.984L150.753 159.248C150.445 160.893 149.814 162.979 149.05 164.021C148.933 163.654 148.683 163.126 148.478 162.802C149.08 161.936 149.711 160.306 149.946 158.984ZM152.75 158.999C153.029 159.439 154.086 161.451 154.321 161.936L153.514 162.773C153.264 161.965 152.456 160.086 152.133 159.439L152.75 158.999ZM166.757 157.941L167.535 157.662C167.961 158.573 168.401 159.762 168.533 160.482L167.711 160.82C167.564 160.071 167.183 158.867 166.757 157.941ZM165.347 161.716L166.14 161.554C166.316 162.523 166.478 163.757 166.522 164.594L165.685 164.8C165.656 163.948 165.509 162.685 165.347 161.716ZM163.806 161.613L164.687 161.76C164.525 163.037 164.246 164.418 163.953 165.329C163.762 165.226 163.336 165.079 163.116 165.02C163.453 164.124 163.674 162.802 163.806 161.613ZM163.468 157.662C163.409 157.457 163.263 156.972 163.145 156.708C163.38 156.649 163.63 156.34 163.938 155.9C164.246 155.459 165.245 153.77 165.817 152.17L166.757 152.581C166.008 154.211 165.054 155.929 164.114 157.104V157.119C164.114 157.119 163.468 157.442 163.468 157.662ZM163.468 157.648L163.453 156.869L163.938 156.561L166.449 156.355C166.405 156.62 166.361 156.987 166.361 157.192C164.085 157.442 163.703 157.53 163.468 157.648ZM163.571 160.967C163.512 160.761 163.351 160.276 163.248 160.012C163.542 159.953 163.865 159.571 164.29 159.013C164.76 158.47 166.228 156.355 167.168 154.343L168.034 154.857C166.948 156.884 165.568 158.955 164.217 160.423V160.453C164.217 160.453 163.571 160.761 163.571 160.967ZM163.571 160.967L163.527 160.203L164.041 159.865L167.917 159.322C167.887 159.571 167.887 159.939 167.902 160.144C164.305 160.702 163.85 160.82 163.571 160.967ZM166.918 161.422L167.667 161.158C167.931 161.907 168.24 162.861 168.372 163.478L167.579 163.786C167.476 163.14 167.183 162.171 166.918 161.422ZM168.871 153.212H169.884V157.148C169.884 159.527 169.737 163.184 168.754 165.652C168.578 165.49 168.108 165.24 167.873 165.152C168.812 162.773 168.871 159.425 168.871 157.148V153.212ZM171.866 159.527H172.556V165.475H171.866V159.527ZM173.584 159.527H174.274V165.402H173.584V159.527ZM169.429 154.872H175.875V158.103H169.429V157.222H174.891V155.753H169.429V154.872ZM170.002 159.102H175.698V160.041H170.853V165.681H170.002V159.102ZM175.302 159.102H176.198V164.653C176.198 165.064 176.124 165.27 175.875 165.431C175.61 165.564 175.287 165.564 174.773 165.564C174.759 165.343 174.641 165.005 174.538 164.785C174.832 164.8 175.096 164.8 175.199 164.785C175.273 164.785 175.302 164.756 175.302 164.653V159.102ZM170.457 161.701H175.625V162.612H170.457V161.701ZM174.994 152.184L175.845 152.933C174.098 153.477 171.441 153.829 169.165 154.02C169.135 153.8 168.989 153.433 168.871 153.212C171.059 153.007 173.614 152.625 174.994 152.184ZM189.602 156.913H190.63V165.666H189.602V156.913ZM186.123 153.462V154.945H189.602V153.462H186.123ZM185.08 152.625H190.689V155.782H185.08V152.625ZM184.229 156.634H191.482V157.545H184.229V156.634ZM185.653 158.822H190.116V159.66H185.653V158.822ZM185.653 160.952H190.116V161.789H185.653V160.952ZM185.154 156.869H186.181V163.419L185.154 163.522V156.869ZM178.077 153.756H184.155V154.74H178.077V153.756ZM177.93 162.127H184.331V163.111H177.93V162.127ZM180.646 152.17H181.645V156.179H180.646V152.17ZM180.734 156.238H181.542V160.511H181.645V165.696H180.646V160.511H180.734V156.238ZM179.325 158.764V160.115H183.025V158.764H179.325ZM179.325 156.649V157.971H183.025V156.649H179.325ZM178.473 155.826H183.891V160.937H178.473V155.826ZM183.95 163.067H191.438V164.066H183.95V163.067Z" fill="white"/>
<path d="M123.572 164.491V155.513H123.544L120.805 157.421V156.122L123.558 154.144H124.819V164.491H123.572Z" fill="white"/>
<path d="M236.087 171.834C243.616 171.834 249.72 165.729 249.72 158.197C249.72 150.665 243.616 144.56 236.087 144.56C228.557 144.56 222.453 150.665 222.453 158.197C222.453 165.729 228.557 171.834 236.087 171.834Z" fill="#D9D9D9"/>
<path d="M232.768 163.442V162.552L236.41 158.752C237.808 157.297 238.13 156.737 238.13 155.876V155.862C238.123 154.809 237.328 154.048 236.202 154.048C234.912 154.048 233.951 154.938 233.951 156.048V156.084H232.703V156.041C232.703 154.248 234.252 152.922 236.181 152.922C238.052 152.922 239.421 154.177 239.421 155.798V155.812C239.421 156.945 238.898 157.798 236.998 159.742L234.538 162.266V162.294H239.593V163.442H232.768Z" fill="#1C1C1C"/>
<path d="M275.938 171.834C283.468 171.834 289.572 165.729 289.572 158.197C289.572 150.665 283.468 144.56 275.938 144.56C268.409 144.56 262.305 150.665 262.305 158.197C262.305 165.729 268.409 171.834 275.938 171.834Z" fill="#D9D9D9"/>
<path d="M276.441 163.614C274.304 163.614 272.921 162.423 272.785 160.789L272.777 160.703H274.018L274.025 160.774C274.132 161.793 275.065 162.496 276.441 162.496C277.796 162.496 278.72 161.735 278.72 160.638V160.623C278.72 159.355 277.81 158.645 276.362 158.645H275.065V157.555H276.305C277.538 157.555 278.399 156.794 278.399 155.762V155.747C278.399 154.665 277.689 154.041 276.427 154.041C275.208 154.041 274.341 154.686 274.233 155.733L274.226 155.805H272.986L272.992 155.733C273.158 154.048 274.491 152.922 276.427 152.922C278.399 152.922 279.696 154.02 279.696 155.59V155.604C279.696 156.88 278.793 157.755 277.502 158.028V158.056C279.008 158.185 280.032 159.125 280.032 160.595V160.61C280.032 162.337 278.513 163.614 276.441 163.614Z" fill="#1C1C1C"/>
<path d="M314.743 171.834C322.272 171.834 328.376 165.729 328.376 158.197C328.376 150.665 322.272 144.56 314.743 144.56C307.213 144.56 301.109 150.665 301.109 158.197C301.109 165.729 307.213 171.834 314.743 171.834Z" fill="#D9D9D9"/>
<path d="M315.537 163.442V161.291H310.34V160.122L314.878 153.095H316.784V160.158H318.247V161.291H316.784V163.442H315.537ZM311.616 160.158H315.537V154.198H315.494L311.616 160.129V160.158Z" fill="#1C1C1C"/>
<mask id="mask3_3142_4268" style="mask-type:luminance" maskUnits="userSpaceOnUse" x="27" y="204" width="377" height="776">
<path d="M403.359 204.354H27.9141V979.586H403.359V204.354Z" fill="white"/>
</mask>
<g mask="url(#mask3_3142_4268)">
<g filter="url(#filter0_d_3142_4268)">
<path d="M386.579 204.354H44.6937C35.4266 204.354 27.9141 211.869 27.9141 221.139V516.965C27.9141 526.234 35.4266 533.749 44.6937 533.749H386.579C395.846 533.749 403.359 526.234 403.359 516.965V221.139C403.359 211.869 395.846 204.354 386.579 204.354Z" fill="white"/>
</g>
<path d="M62.1601 234.848L63.236 234.111C64.3498 235.055 65.6712 236.396 66.2941 237.265L65.1238 238.096C64.5574 237.189 63.2738 235.83 62.1601 234.848ZM49.9277 239.191H66.7472V240.55H49.9277V239.191ZM49.6445 244.742C51.8909 244.327 55.4398 243.571 58.7622 242.854L58.8754 244.138C55.7796 244.855 52.4383 245.63 50.0598 246.158L49.6445 244.742ZM53.9863 235.528H55.402V249.161C55.402 250.086 55.1755 250.501 54.5715 250.728C53.9674 250.955 52.9669 251.011 51.4001 250.992C51.3246 250.615 51.0792 249.973 50.8715 249.557C52.0797 249.614 53.1934 249.595 53.5332 249.576C53.873 249.576 53.9863 249.482 53.9863 249.142V235.528ZM57.5729 233.828L58.5734 235.018C56.3837 235.773 53.1745 236.358 50.4751 236.736C50.3996 236.415 50.2297 235.886 50.0409 235.565C52.7026 235.15 55.7607 234.508 57.5729 233.828ZM59.4606 233.771H60.933C60.8953 242.439 62.7452 249.614 65.0482 249.614C65.5579 249.614 65.7845 248.632 65.8977 246.196C66.1998 246.517 66.7094 246.838 67.1059 246.989C66.8416 250.124 66.3319 251.049 64.9161 251.049C61.2162 251.049 59.5361 242.76 59.4606 233.771ZM64.5763 241.419L65.8411 241.948C63.9911 245.403 60.8764 248.443 57.403 250.275C57.1765 249.916 56.7801 249.463 56.4214 249.142C59.7815 247.518 62.8963 244.61 64.5763 241.419ZM68.616 243.93H85.7942V245.12H68.616V243.93ZM69.0691 234.432H85.3223V235.679H69.0691V234.432ZM75.1664 241.948L76.5444 242.325C75.3174 244.289 73.5807 246.763 72.3726 248.311L71.0323 247.858C72.2404 246.328 73.996 243.798 75.1664 241.948ZM80.8295 244.346L82.1887 244.742C80.5275 248.896 76.5067 250.445 69.4277 250.973C69.3334 250.558 69.1068 250.048 68.8803 249.727C75.6194 249.368 79.3193 248.028 80.8295 244.346ZM72.0517 247.669L72.769 246.63C77.4316 247.461 82.2831 248.726 85.209 249.878L84.3595 251.03C81.4713 249.84 76.8464 248.556 72.0517 247.669ZM74.2225 234.904H75.5628V241.494H74.2225V234.904ZM78.6209 234.904H79.9612V241.494H78.6209V234.904ZM71.3343 238.454V241.022H83.1136V238.454H71.3343ZM70.0129 237.303H84.5294V242.193H70.0129V237.303ZM98.8383 235.603V237.567H102.085V235.603H98.8383ZM94.4399 235.603V237.567H97.6113V235.603H94.4399ZM90.1548 235.603V237.567H93.2318V235.603H90.1548ZM88.8334 234.489H103.463V238.7H88.8334V234.489ZM91.3629 243.137V244.534H100.915V243.137H91.3629ZM91.3629 245.498V246.933H100.915V245.498H91.3629ZM91.3629 240.777V242.193H100.915V240.777H91.3629ZM89.9472 239.776H102.387V247.933H89.9472V239.776ZM97.649 248.896L98.7628 248.141C100.896 248.764 103.237 249.614 104.671 250.256L103.18 251.011C101.934 250.407 99.801 249.576 97.649 248.896ZM93.2129 248.103L94.4965 248.689C92.9486 249.633 90.5323 250.52 88.6258 251.03C88.3992 250.747 87.8896 250.218 87.5686 249.973C89.5507 249.557 91.8349 248.859 93.2129 248.103Z" fill="#1C1C1C"/>
<path d="M62.9585 368.376H73.1144V369.452H62.9585V368.376ZM63.4304 370.623H72.7557V371.662H63.4304V370.623ZM62.7508 372.946H73.3031V374.041H62.7508V372.946ZM67.2436 366.828H68.6216V373.531H67.2436V366.828ZM70.868 375.174H72.2083V382.727C72.2083 383.406 72.0573 383.765 71.5665 383.973C71.0757 384.162 70.2828 384.181 69.1124 384.162C69.0558 383.822 68.867 383.331 68.6971 382.991C69.5466 383.029 70.3206 383.029 70.566 383.01C70.8114 383.01 70.868 382.934 70.868 382.727V375.174ZM64.563 377.666H71.5476V378.705H64.563V377.666ZM64.563 380.102H71.5476V381.122H64.563V380.102ZM63.8646 375.174H65.1671V378.667C65.1671 380.442 64.9217 382.821 63.6003 384.426C63.4115 384.162 62.883 383.671 62.6187 383.501C63.7325 382.066 63.8646 380.159 63.8646 378.648V375.174ZM64.6197 375.174H71.3399V376.288H64.6197V375.174ZM56.4648 372.417H61.9769V373.55H56.4648V372.417ZM57.2387 377.591H61.9391V383.104H57.2387V381.915H60.6932V378.761H57.2387V377.591ZM56.5592 377.591H57.7862V383.973H56.5592V377.591ZM56.4836 374.985H61.9958V376.137H56.4836V374.985ZM56.0117 370H62.5432V371.189H56.0117V370ZM58.2581 367.243L59.4474 366.865C59.8438 367.658 60.2591 368.697 60.4478 369.358L59.2019 369.811C59.0321 369.131 58.6168 368.055 58.2581 367.243ZM80.3821 374.89H91.3497V375.986H80.3821V374.89ZM79.5892 377.742H91.9537V378.837H79.5892V377.742ZM83.006 373.531H84.3274V378.346H83.006V373.531ZM87.2722 373.531H88.5936V378.346H87.2722V373.531ZM86.7814 379.63L87.7253 378.988C89.141 379.649 90.7267 380.536 91.6328 381.235L90.3869 381.896C89.5752 381.178 88.1594 380.291 86.7814 379.63ZM83.6289 379.007L84.8937 379.441C83.8932 380.385 82.3453 381.348 81.0616 381.934C80.7974 381.707 80.2877 381.273 79.9668 381.065C81.2882 380.555 82.7417 379.781 83.6289 379.007ZM80.7974 367.583H85.2901V370.793H80.7974V369.811H84.0631V368.546H80.7974V367.583ZM86.8192 367.602H91.4063V370.812H86.8192V369.83H90.1604V368.565H86.8192V367.602ZM86.2717 367.602H87.4421V371.454C87.4421 371.983 87.5176 372.152 87.9518 372.152C88.3293 372.152 90.1227 372.152 90.5002 372.152C90.8589 372.152 91.4252 372.134 91.7461 372.077C91.765 372.379 91.8027 372.813 91.8593 373.097C91.5762 373.153 91.0665 373.191 90.5568 373.191C90.1227 373.191 88.1972 373.191 87.8952 373.191C86.5926 373.191 86.2717 372.719 86.2717 371.435V367.602ZM80.2688 373.663L80.231 372.738L80.8162 372.341L85.46 371.605C85.4034 371.907 85.3467 372.379 85.3467 372.625C81.156 373.38 80.5897 373.493 80.2688 373.663ZM80.2688 373.663C80.1933 373.361 79.929 372.813 79.7591 372.53C79.9856 372.417 80.2499 372.171 80.2499 371.454V367.583H81.4014V372.606C81.4014 372.606 80.2688 373.248 80.2688 373.663ZM75.323 367.583L76.3612 366.941C77.2296 367.866 78.2867 369.075 78.8153 369.83L77.7015 370.604C77.2107 369.83 76.1536 368.508 75.323 367.583ZM74.9455 371.208H78.3811V372.398H74.9455V371.208ZM78.1923 379.857C79.3627 382.33 81.8545 382.67 85.6488 382.67C87.6498 382.67 90.4436 382.576 92.3879 382.406C92.1614 382.727 91.9915 383.388 91.916 383.784C90.1226 383.879 87.7253 383.935 85.6299 383.935C81.1749 383.935 78.6831 383.425 77.2485 380.291L78.1923 379.857ZM78.1734 375.91H78.5132L78.7586 375.872L79.476 376.137C78.8908 380.102 77.475 382.783 75.5495 384.256C75.3608 383.954 74.8888 383.482 74.6057 383.274C76.4367 381.971 77.7015 379.554 78.1734 376.156V375.91ZM75.2475 377.326V376.25L75.9271 375.91H78.551V377.062H76.3235C75.8893 377.062 75.3985 377.194 75.2475 377.326ZM75.2475 377.326C75.172 377.005 74.8888 376.344 74.7378 376.061C75.0021 375.986 75.2852 375.872 75.5684 375.495C76.0592 374.966 77.5505 372.322 78.0602 371.341V371.284L78.4566 371.114L79.4005 371.473C78.6642 372.757 77.2107 375.249 76.3046 376.439C76.3046 376.439 75.2475 376.949 75.2475 377.326ZM107.32 368.565V370.547H109.245V368.565H107.32ZM104.299 368.565V370.547H106.187V368.565H104.299ZM101.355 368.565V370.547H103.167V368.565H101.355ZM100.203 367.526H110.434V371.567H100.203V367.526ZM100.411 372.681H110.057V373.776H100.411V372.681ZM99.5801 375.117H110.661V376.231H99.5801V375.117ZM99.9765 378.025H110.265V379.139H99.9765V378.025ZM99.3347 380.499H110.925V381.613H99.3347V380.499ZM104.488 371.246H105.828V375.551H104.488V371.246ZM104.488 378.516H105.828V384.2H104.488V378.516ZM101.826 376.495L103.016 376.212C103.299 376.76 103.639 377.496 103.771 377.968L102.544 378.327C102.431 377.817 102.128 377.062 101.826 376.495ZM107.433 376.174L108.773 376.533C108.339 377.289 107.905 378.1 107.527 378.648L106.47 378.308C106.791 377.704 107.225 376.798 107.433 376.174ZM93.596 376.59C94.9929 376.193 97.0883 375.532 99.127 374.872L99.3158 376.156C97.447 376.816 95.4837 377.458 93.9547 377.968L93.596 376.59ZM93.8037 370.642H99.3158V371.964H93.8037V370.642ZM96.0878 366.847H97.4092V382.481C97.4092 383.237 97.2204 383.633 96.7485 383.86C96.3143 384.086 95.5781 384.124 94.3889 384.124C94.3322 383.765 94.1623 383.18 93.9736 382.783C94.8042 382.821 95.5215 382.821 95.748 382.802C95.9746 382.802 96.0878 382.727 96.0878 382.481V366.847ZM120.496 368.225H129.708V369.339H120.496V368.225ZM120.288 378.818H129.934V379.913H120.288V378.818ZM124.403 366.847H125.649V377.024H124.403V366.847ZM122.1 373.267V374.418H128.066V373.267H122.1ZM122.1 371.246V372.398H128.066V371.246H122.1ZM120.93 370.359H129.274V375.325H120.93V370.359ZM120.307 376.609C122.421 376.59 125.63 376.533 128.84 376.458L128.821 377.496C125.744 377.591 122.572 377.647 120.402 377.704L120.307 376.609ZM126.31 377.798H127.631V382.821C127.631 383.52 127.499 383.86 126.971 384.048C126.423 384.237 125.612 384.237 124.328 384.237C124.271 383.879 124.083 383.406 123.913 383.067C124.875 383.104 125.744 383.104 125.989 383.085C126.253 383.067 126.31 383.01 126.31 382.802V377.798ZM121.402 380.669L122.365 380.083C123.12 380.725 123.875 381.632 124.234 382.292L123.176 382.972C122.856 382.292 122.119 381.329 121.402 380.669ZM126.839 375.665L127.782 375.174C128.651 375.929 129.595 376.968 130.048 377.685L129.047 378.27C128.632 377.534 127.688 376.439 126.839 375.665ZM112.775 368.886H120.099V370.151H112.775V368.886ZM112.53 379.649H120.364V380.914H112.53V379.649ZM115.871 366.847H117.174V372.001H115.871V366.847ZM116.003 372.077H117.041V377.572H117.174V384.237H115.871V377.572H116.003V372.077ZM114.285 375.325V377.062H118.797V375.325H114.285ZM114.285 372.606V374.305H118.797V372.606H114.285ZM113.19 371.548H119.892V378.119H113.19V371.548ZM139.316 366.847H140.864V382.349H139.316V366.847ZM146.037 376.269H147.585V384.162H146.037V376.269ZM133.502 368.546H134.975V373.682H145.3V368.546H146.829V375.06H133.502V368.546ZM132.653 376.269H134.201V381.688H146.792V383.104H132.653V376.269ZM159.194 367.715H166.934V368.886H159.194V367.715ZM159.118 370.359H166.16V371.435H159.118V370.359ZM157.306 375.551H167.424V376.779H157.306V375.551ZM158.628 367.715H160.006V376.344H158.628V367.715ZM165.876 377.213L166.952 378.1C165.952 378.95 164.744 379.894 163.819 380.48L163.045 379.762C163.932 379.12 165.178 378.006 165.876 377.213ZM161.837 376.269C162.913 379.045 165.14 381.65 167.708 382.783C167.387 383.048 166.971 383.558 166.745 383.935C164.102 382.576 161.912 379.724 160.704 376.571L161.837 376.269ZM159.194 372.908H166.273V373.984H159.194V372.908ZM158.231 384.332L158.118 383.161L158.703 382.632L162.611 381.348C162.63 381.707 162.667 382.236 162.724 382.519C159.1 383.822 158.552 384.067 158.231 384.332ZM153.191 366.865H154.38V384.218H153.191V366.865ZM150.813 370.434H156.419V371.699H151.907V380.329H150.813V370.434ZM155.777 370.434H156.872V378.761C156.872 379.271 156.797 379.668 156.476 379.894C156.136 380.121 155.702 380.159 155.041 380.159C155.022 379.8 154.852 379.252 154.663 378.912C155.117 378.931 155.475 378.931 155.626 378.931C155.739 378.912 155.777 378.875 155.777 378.724V370.434ZM158.231 384.332C158.118 383.973 157.778 383.331 157.533 383.029C157.797 382.84 158.175 382.425 158.175 381.669V376.326H159.515V382.953C159.515 382.953 158.231 383.841 158.231 384.332ZM171.181 368.735V371.567H174.428V368.735H171.181ZM170.105 367.658H175.56V372.643H170.105V367.658ZM169.199 374.135H176.013V375.381H169.199V374.135ZM170.973 374.664H172.2C171.974 375.929 171.634 377.477 171.37 378.459H170.124C170.426 377.421 170.766 375.872 170.973 374.664ZM171.105 377.307H174.522V378.459H170.803L171.105 377.307ZM174.031 377.307H175.277C175.277 377.307 175.258 377.685 175.24 377.874C174.956 381.556 174.711 382.972 174.201 383.501C173.899 383.841 173.616 383.954 173.106 383.992C172.729 384.03 171.974 384.03 171.219 383.973C171.2 383.614 171.087 383.104 170.879 382.783C171.615 382.84 172.314 382.859 172.597 382.859C172.88 382.859 173.05 382.821 173.182 382.67C173.541 382.311 173.786 380.989 174.031 377.515V377.307ZM181.205 368.131H185.735V369.301H181.205V368.131ZM177.486 370.585H185.754V371.737H177.486V370.585ZM176.844 370.585H178.09V375.4C178.09 378.025 177.845 381.726 176.164 384.237C175.957 383.992 175.428 383.614 175.126 383.463C176.674 381.103 176.844 377.817 176.844 375.4V370.585ZM178.486 373.625L184.168 373.059L184.282 374.06L178.619 374.645L178.486 373.625ZM185.377 370.585H185.565L185.792 370.529L186.66 370.755C186.434 371.869 186.113 373.191 185.867 374.022L184.791 373.757C184.999 372.983 185.244 371.756 185.377 370.755V370.585ZM179.6 377.761H180.808C180.695 380.801 180.204 382.934 178.147 384.2C177.996 383.897 177.637 383.463 177.354 383.255C179.128 382.217 179.487 380.385 179.6 377.761ZM182.413 377.761H183.621V382.141C183.621 382.274 183.64 382.406 183.772 382.443C183.847 382.519 183.999 382.538 184.168 382.538C184.319 382.538 184.603 382.538 184.81 382.538C184.999 382.538 185.226 382.519 185.32 382.443C185.414 382.387 185.528 382.236 185.565 382.047C185.603 381.745 185.641 381.008 185.622 380.14C185.867 380.366 186.32 380.631 186.679 380.725C186.66 381.613 186.585 382.557 186.49 382.897C186.377 383.237 186.188 383.463 185.924 383.614C185.679 383.727 185.263 383.803 184.923 383.803C184.678 383.803 184.093 383.803 183.904 383.803C183.489 383.803 183.055 383.727 182.79 383.501C182.488 383.255 182.413 382.972 182.413 382.122V377.761ZM180.563 366.828H181.922V371.189H180.563V366.828ZM180.487 371.85H181.714V375.06C181.714 375.532 181.771 375.702 182.167 375.702C182.469 375.702 183.866 375.702 184.187 375.702C184.527 375.702 185.093 375.684 185.339 375.608C185.377 375.967 185.414 376.363 185.471 376.665C185.207 376.76 184.716 376.779 184.244 376.779C183.866 376.779 182.262 376.779 181.96 376.779C180.752 376.779 180.487 376.25 180.487 375.023V371.85Z" fill="#7C7C7C"/>
<path d="M209.344 374.297L215.636 380.591L221.928 374.297" stroke="#1C1C1C" stroke-width="2" stroke-linecap="round"/>
<path d="M48.8867 396.851H228.219" stroke="#ACACAC"/>
<path d="M62.9585 456.495H73.1144V457.571H62.9585V456.495ZM63.4304 458.742H72.7557V459.78H63.4304V458.742ZM62.7508 461.064H73.3031V462.159H62.7508V461.064ZM67.2436 454.946H68.6216V461.65H67.2436V454.946ZM70.868 463.292H72.2083V470.845C72.2083 471.525 72.0573 471.884 71.5665 472.092C71.0757 472.28 70.2828 472.299 69.1124 472.28C69.0558 471.941 68.867 471.45 68.6971 471.11C69.5466 471.147 70.3206 471.147 70.566 471.129C70.8114 471.129 70.868 471.053 70.868 470.845V463.292ZM64.563 465.785H71.5476V466.823H64.563V465.785ZM64.563 468.221H71.5476V469.24H64.563V468.221ZM63.8646 463.292H65.1671V466.786C65.1671 468.561 64.9217 470.94 63.6003 472.545C63.4115 472.28 62.883 471.789 62.6187 471.62C63.7325 470.184 63.8646 468.277 63.8646 466.767V463.292ZM64.6197 463.292H71.3399V464.406H64.6197V463.292ZM56.4648 460.536H61.9769V461.668H56.4648V460.536ZM57.2387 465.709H61.9391V471.223H57.2387V470.033H60.6932V466.88H57.2387V465.709ZM56.5592 465.709H57.7862V472.092H56.5592V465.709ZM56.4836 463.104H61.9958V464.255H56.4836V463.104ZM56.0117 458.119H62.5432V459.308H56.0117V458.119ZM58.2581 455.362L59.4474 454.984C59.8438 455.777 60.2591 456.816 60.4478 457.477L59.2019 457.93C59.0321 457.25 58.6168 456.174 58.2581 455.362ZM80.3821 463.009H91.3497V464.104H80.3821V463.009ZM79.5892 465.86H91.9537V466.956H79.5892V465.86ZM83.006 461.65H84.3274V466.465H83.006V461.65ZM87.2722 461.65H88.5936V466.465H87.2722V461.65ZM86.7814 467.749L87.7253 467.107C89.141 467.767 90.7267 468.655 91.6328 469.354L90.3869 470.014C89.5752 469.297 88.1594 468.41 86.7814 467.749ZM83.6289 467.125L84.8937 467.56C83.8932 468.504 82.3453 469.467 81.0616 470.052C80.7974 469.826 80.2877 469.391 79.9668 469.184C81.2882 468.674 82.7417 467.9 83.6289 467.125ZM80.7974 455.702H85.2901V458.912H80.7974V457.93H84.0631V456.665H80.7974V455.702ZM86.8192 455.72H91.4063V458.93H86.8192V457.949H90.1604V456.683H86.8192V455.72ZM86.2717 455.72H87.4421V459.573C87.4421 460.101 87.5176 460.271 87.9518 460.271C88.3293 460.271 90.1227 460.271 90.5002 460.271C90.8589 460.271 91.4252 460.252 91.7461 460.196C91.765 460.498 91.8027 460.932 91.8593 461.215C91.5762 461.272 91.0665 461.31 90.5568 461.31C90.1227 461.31 88.1972 461.31 87.8952 461.31C86.5926 461.31 86.2717 460.838 86.2717 459.554V455.72ZM80.2688 461.782L80.231 460.857L80.8162 460.46L85.46 459.724C85.4034 460.026 85.3467 460.498 85.3467 460.743C81.156 461.499 80.5897 461.612 80.2688 461.782ZM80.2688 461.782C80.1933 461.48 79.929 460.932 79.7591 460.649C79.9856 460.536 80.2499 460.29 80.2499 459.573V455.702H81.4014V460.724C81.4014 460.724 80.2688 461.366 80.2688 461.782ZM75.323 455.702L76.3612 455.06C77.2296 455.985 78.2867 457.193 78.8153 457.949L77.7015 458.723C77.2107 457.949 76.1536 456.627 75.323 455.702ZM74.9455 459.327H78.3811V460.517H74.9455V459.327ZM78.1923 467.975C79.3627 470.449 81.8545 470.789 85.6488 470.789C87.6498 470.789 90.4436 470.694 92.3879 470.524C92.1614 470.845 91.9915 471.506 91.916 471.903C90.1226 471.997 87.7253 472.054 85.6299 472.054C81.1749 472.054 78.6831 471.544 77.2485 468.409L78.1923 467.975ZM78.1734 464.029H78.5132L78.7586 463.991L79.476 464.255C78.8908 468.221 77.475 470.902 75.5495 472.375C75.3608 472.073 74.8888 471.601 74.6057 471.393C76.4367 470.09 77.7015 467.673 78.1734 464.274V464.029ZM75.2475 465.445V464.369L75.9271 464.029H78.551V465.181H76.3235C75.8893 465.181 75.3985 465.313 75.2475 465.445ZM75.2475 465.445C75.172 465.124 74.8888 464.463 74.7378 464.18C75.0021 464.104 75.2852 463.991 75.5684 463.613C76.0592 463.085 77.5505 460.441 78.0602 459.459V459.403L78.4566 459.233L79.4005 459.591C78.6642 460.875 77.2107 463.368 76.3046 464.557C76.3046 464.557 75.2475 465.067 75.2475 465.445ZM107.32 456.683V458.666H109.245V456.683H107.32ZM104.299 456.683V458.666H106.187V456.683H104.299ZM101.355 456.683V458.666H103.167V456.683H101.355ZM100.203 455.645H110.434V459.686H100.203V455.645ZM100.411 460.8H110.057V461.895H100.411V460.8ZM99.5801 463.236H110.661V464.35H99.5801V463.236ZM99.9765 466.144H110.265V467.258H99.9765V466.144ZM99.3347 468.617H110.925V469.731H99.3347V468.617ZM104.488 459.365H105.828V463.67H104.488V459.365ZM104.488 466.635H105.828V472.318H104.488V466.635ZM101.826 464.614L103.016 464.331C103.299 464.878 103.639 465.615 103.771 466.087L102.544 466.446C102.431 465.936 102.128 465.181 101.826 464.614ZM107.433 464.293L108.773 464.652C108.339 465.407 107.905 466.219 107.527 466.767L106.47 466.427C106.791 465.823 107.225 464.916 107.433 464.293ZM93.596 464.709C94.9929 464.312 97.0883 463.651 99.127 462.99L99.3158 464.274C97.447 464.935 95.4837 465.577 93.9547 466.087L93.596 464.709ZM93.8037 458.761H99.3158V460.082H93.8037V458.761ZM96.0878 454.965H97.4092V470.6C97.4092 471.355 97.2204 471.752 96.7485 471.978C96.3143 472.205 95.5781 472.243 94.3889 472.243C94.3322 471.884 94.1623 471.299 93.9736 470.902C94.8042 470.94 95.5215 470.94 95.748 470.921C95.9746 470.921 96.0878 470.845 96.0878 470.6V454.965ZM120.496 456.344H129.708V457.458H120.496V456.344ZM120.288 466.937H129.934V468.032H120.288V466.937ZM124.403 454.965H125.649V465.143H124.403V454.965ZM122.1 461.385V462.537H128.066V461.385H122.1ZM122.1 459.365V460.517H128.066V459.365H122.1ZM120.93 458.477H129.274V463.443H120.93V458.477ZM120.307 464.727C122.421 464.709 125.63 464.652 128.84 464.576L128.821 465.615C125.744 465.709 122.572 465.766 120.402 465.823L120.307 464.727ZM126.31 465.917H127.631V470.94C127.631 471.638 127.499 471.978 126.971 472.167C126.423 472.356 125.612 472.356 124.328 472.356C124.271 471.997 124.083 471.525 123.913 471.185C124.875 471.223 125.744 471.223 125.989 471.204C126.253 471.185 126.31 471.129 126.31 470.921V465.917ZM121.402 468.787L122.365 468.202C123.12 468.844 123.875 469.75 124.234 470.411L123.176 471.091C122.856 470.411 122.119 469.448 121.402 468.787ZM126.839 463.783L127.782 463.292C128.651 464.048 129.595 465.086 130.048 465.804L129.047 466.389C128.632 465.653 127.688 464.557 126.839 463.783ZM112.775 457.004H120.099V458.27H112.775V457.004ZM112.53 467.767H120.364V469.033H112.53V467.767ZM115.871 454.965H117.174V460.12H115.871V454.965ZM116.003 460.196H117.041V465.69H117.174V472.356H115.871V465.69H116.003V460.196ZM114.285 463.443V465.181H118.797V463.443H114.285ZM114.285 460.724V462.424H118.797V460.724H114.285ZM113.19 459.667H119.892V466.238H113.19V459.667ZM139.316 454.965H140.864V470.468H139.316V454.965ZM146.037 464.388H147.585V472.28H146.037V464.388ZM133.502 456.665H134.975V461.801H145.3V456.665H146.829V463.179H133.502V456.665ZM132.653 464.388H134.201V469.807H146.792V471.223H132.653V464.388ZM159.194 455.834H166.934V457.004H159.194V455.834ZM159.118 458.477H166.16V459.554H159.118V458.477ZM157.306 463.67H167.424V464.897H157.306V463.67ZM158.628 455.834H160.006V464.463H158.628V455.834ZM165.876 465.332L166.952 466.219C165.952 467.069 164.744 468.013 163.819 468.598L163.045 467.881C163.932 467.239 165.178 466.125 165.876 465.332ZM161.837 464.388C162.913 467.163 165.14 469.769 167.708 470.902C167.387 471.166 166.971 471.676 166.745 472.054C164.102 470.694 161.912 467.843 160.704 464.69L161.837 464.388ZM159.194 461.026H166.273V462.103H159.194V461.026ZM158.231 472.45L158.118 471.28L158.703 470.751L162.611 469.467C162.63 469.826 162.667 470.354 162.724 470.638C159.1 471.941 158.552 472.186 158.231 472.45ZM153.191 454.984H154.38V472.337H153.191V454.984ZM150.813 458.553H156.419V459.818H151.907V468.447H150.813V458.553ZM155.777 458.553H156.872V466.88C156.872 467.39 156.797 467.786 156.476 468.013C156.136 468.24 155.702 468.277 155.041 468.277C155.022 467.919 154.852 467.371 154.663 467.031C155.117 467.05 155.475 467.05 155.626 467.05C155.739 467.031 155.777 466.993 155.777 466.842V458.553ZM158.231 472.45C158.118 472.092 157.778 471.45 157.533 471.147C157.797 470.959 158.175 470.543 158.175 469.788V464.444H159.515V471.072C159.515 471.072 158.231 471.959 158.231 472.45ZM171.181 456.853V459.686H174.428V456.853H171.181ZM170.105 455.777H175.56V460.762H170.105V455.777ZM169.199 462.254H176.013V463.5H169.199V462.254ZM170.973 462.783H172.2C171.974 464.048 171.634 465.596 171.37 466.578H170.124C170.426 465.539 170.766 463.991 170.973 462.783ZM171.105 465.426H174.522V466.578H170.803L171.105 465.426ZM174.031 465.426H175.277C175.277 465.426 175.258 465.804 175.24 465.993C174.956 469.675 174.711 471.091 174.201 471.62C173.899 471.959 173.616 472.073 173.106 472.11C172.729 472.148 171.974 472.148 171.219 472.092C171.2 471.733 171.087 471.223 170.879 470.902C171.615 470.959 172.314 470.978 172.597 470.978C172.88 470.978 173.05 470.94 173.182 470.789C173.541 470.43 173.786 469.108 174.031 465.634V465.426ZM181.205 456.249H185.735V457.42H181.205V456.249ZM177.486 458.704H185.754V459.856H177.486V458.704ZM176.844 458.704H178.09V463.519C178.09 466.144 177.845 469.845 176.164 472.356C175.957 472.11 175.428 471.733 175.126 471.582C176.674 469.221 176.844 465.936 176.844 463.519V458.704ZM178.486 461.744L184.168 461.178L184.282 462.178L178.619 462.764L178.486 461.744ZM185.377 458.704H185.565L185.792 458.647L186.66 458.874C186.434 459.988 186.113 461.31 185.867 462.141L184.791 461.876C184.999 461.102 185.244 459.875 185.377 458.874V458.704ZM179.6 465.879H180.808C180.695 468.919 180.204 471.053 178.147 472.318C177.996 472.016 177.637 471.582 177.354 471.374C179.128 470.336 179.487 468.504 179.6 465.879ZM182.413 465.879H183.621V470.26C183.621 470.392 183.64 470.524 183.772 470.562C183.847 470.638 183.999 470.657 184.168 470.657C184.319 470.657 184.603 470.657 184.81 470.657C184.999 470.657 185.226 470.638 185.32 470.562C185.414 470.505 185.528 470.354 185.565 470.166C185.603 469.863 185.641 469.127 185.622 468.258C185.867 468.485 186.32 468.749 186.679 468.844C186.66 469.731 186.585 470.675 186.49 471.015C186.377 471.355 186.188 471.582 185.924 471.733C185.679 471.846 185.263 471.922 184.923 471.922C184.678 471.922 184.093 471.922 183.904 471.922C183.489 471.922 183.055 471.846 182.79 471.62C182.488 471.374 182.413 471.091 182.413 470.241V465.879ZM180.563 454.946H181.922V459.308H180.563V454.946ZM180.487 459.969H181.714V463.179C181.714 463.651 181.771 463.821 182.167 463.821C182.469 463.821 183.866 463.821 184.187 463.821C184.527 463.821 185.093 463.802 185.339 463.727C185.377 464.085 185.414 464.482 185.471 464.784C185.207 464.878 184.716 464.897 184.244 464.897C183.866 464.897 182.262 464.897 181.96 464.897C180.752 464.897 180.487 464.369 180.487 463.141V459.969Z" fill="#7C7C7C"/>
<path d="M365.605 462.415L371.898 468.709L378.19 462.415" stroke="#1C1C1C" stroke-width="2" stroke-linecap="round"/>
<path d="M48.8867 484.969H382.382" stroke="#ACACAC"/>
<mask id="mask4_3142_4268" style="mask-type:luminance" maskUnits="userSpaceOnUse" x="348" y="225" width="35" height="34">
<path d="M382.384 225.335H348.824V258.904H382.384V225.335Z" fill="white"/>
</mask>
<g mask="url(#mask4_3142_4268)">
<mask id="mask5_3142_4268" style="mask-type:luminance" maskUnits="userSpaceOnUse" x="348" y="225" width="35" height="34">
<path d="M382.384 225.335H348.824V258.904H382.384V225.335Z" fill="white"/>
</mask>
<g mask="url(#mask5_3142_4268)">
<path d="M365.603 252.085C363.633 252.085 361.706 251.501 360.068 250.406C358.43 249.311 357.153 247.754 356.399 245.933C355.645 244.113 355.448 242.108 355.832 240.176C356.216 238.242 357.165 236.466 358.558 235.072C359.952 233.679 361.727 232.73 363.66 232.346C365.592 231.961 367.596 232.158 369.416 232.912C371.236 233.666 372.792 234.944 373.887 236.583C374.982 238.221 375.566 240.148 375.566 242.119C375.566 244.763 374.517 247.297 372.649 249.167C370.78 251.035 368.246 252.085 365.603 252.085ZM365.603 233.203C363.841 233.203 362.116 233.726 360.651 234.706C359.185 235.686 358.042 237.078 357.368 238.707C356.693 240.336 356.516 242.129 356.86 243.859C357.204 245.589 358.054 247.178 359.301 248.424C360.546 249.671 362.135 250.521 363.865 250.865C365.594 251.209 367.386 251.032 369.015 250.357C370.644 249.683 372.036 248.539 373.015 247.073C373.994 245.607 374.518 243.883 374.518 242.119C374.518 239.755 373.578 237.487 371.906 235.815C370.235 234.143 367.967 233.203 365.603 233.203Z" fill="#00A19B"/>
<path d="M365.496 244.972C365.357 244.972 365.224 244.917 365.125 244.819C365.028 244.72 364.972 244.587 364.972 244.447V242.139C364.972 242.001 365.028 241.868 365.125 241.769C365.224 241.67 365.357 241.615 365.496 241.615C365.888 241.616 366.273 241.51 366.608 241.309C366.945 241.108 367.221 240.82 367.406 240.475C367.592 240.13 367.68 239.741 367.662 239.35C367.644 238.959 367.521 238.579 367.305 238.253C367.087 237.926 366.787 237.664 366.434 237.495C366.081 237.326 365.688 237.256 365.298 237.292C364.908 237.329 364.536 237.469 364.22 237.701C363.904 237.932 363.656 238.244 363.504 238.605C363.477 238.669 363.438 238.727 363.389 238.775C363.339 238.823 363.282 238.861 363.218 238.887C363.154 238.914 363.085 238.926 363.016 238.925C362.948 238.925 362.88 238.91 362.816 238.884C362.753 238.857 362.695 238.818 362.647 238.769C362.599 238.72 362.561 238.662 362.535 238.598C362.509 238.534 362.496 238.466 362.496 238.396C362.497 238.328 362.511 238.26 362.538 238.196C362.755 237.681 363.103 237.232 363.548 236.892C363.993 236.552 364.518 236.335 365.072 236.261C365.627 236.186 366.19 236.257 366.708 236.467C367.227 236.678 367.681 237.02 368.027 237.46C368.372 237.899 368.598 238.421 368.68 238.974C368.762 239.527 368.699 240.093 368.497 240.614C368.295 241.135 367.959 241.595 367.525 241.946C367.091 242.299 366.571 242.532 366.02 242.622V244.446C366.02 244.515 366.006 244.584 365.98 244.648C365.954 244.711 365.916 244.769 365.867 244.818C365.818 244.867 365.761 244.906 365.697 244.932C365.634 244.958 365.566 244.972 365.496 244.972Z" fill="#00A19B"/>
<path d="M364.844 246.739C364.844 246.589 364.889 246.442 364.972 246.316C365.056 246.191 365.174 246.094 365.313 246.037C365.451 245.979 365.604 245.964 365.751 245.994C365.899 246.023 366.034 246.095 366.14 246.201C366.246 246.307 366.318 246.443 366.348 246.59C366.377 246.737 366.362 246.89 366.305 247.029C366.247 247.168 366.149 247.286 366.025 247.37C365.9 247.453 365.753 247.498 365.603 247.498C365.402 247.498 365.209 247.417 365.066 247.276C364.923 247.133 364.844 246.94 364.844 246.739Z" fill="#00A19B"/>
</g>
</g>
<path d="M242.902 396.851H382.383" stroke="#ACACAC"/>
<path d="M253.826 366.278H263.982V367.354H253.826V366.278ZM254.298 368.525H263.623V369.563H254.298V368.525ZM253.618 370.847H264.17V371.943H253.618V370.847ZM258.111 364.73H259.489V371.433H258.111V364.73ZM261.735 373.076H263.075V380.629C263.075 381.308 262.924 381.667 262.434 381.875C261.943 382.064 261.15 382.083 259.98 382.064C259.923 381.724 259.734 381.233 259.564 380.893C260.414 380.931 261.188 380.931 261.433 380.912C261.679 380.912 261.735 380.836 261.735 380.629V373.076ZM255.43 375.568H262.415V376.607H255.43V375.568ZM255.43 378.004H262.415V379.024H255.43V378.004ZM254.732 373.076H256.034V376.569C256.034 378.344 255.789 380.723 254.467 382.328C254.279 382.064 253.75 381.573 253.486 381.403C254.6 379.968 254.732 378.061 254.732 376.55V373.076ZM255.487 373.076H262.207V374.19H255.487V373.076ZM247.332 370.319H252.844V371.452H247.332V370.319ZM248.106 375.493H252.806V381.006H248.106V379.817H251.56V376.663H248.106V375.493ZM247.426 375.493H248.653V381.875H247.426V375.493ZM247.351 372.887H252.863V374.039H247.351V372.887ZM246.879 367.902H253.41V369.091H246.879V367.902ZM249.125 365.145L250.315 364.767C250.711 365.56 251.126 366.599 251.315 367.26L250.069 367.713C249.899 367.033 249.484 365.957 249.125 365.145ZM275.459 369.318H280.537V370.413H275.459V369.318ZM274.194 374.492H277.214V375.549H274.194V374.492ZM274.137 377.268H277.177V378.325H274.137V377.268ZM279.083 372.169H280.084V378.967H279.083V372.169ZM276.856 371.81H277.951V380.647C277.951 381.214 277.837 381.554 277.46 381.743C277.063 381.931 276.497 381.95 275.61 381.95C275.553 381.648 275.383 381.176 275.232 380.874C275.874 380.893 276.459 380.874 276.629 380.874C276.799 380.874 276.856 380.817 276.856 380.647V371.81ZM281.33 371.489H282.406V380.553C282.406 381.176 282.273 381.516 281.839 381.705C281.386 381.894 280.688 381.894 279.555 381.894C279.499 381.592 279.348 381.138 279.197 380.836C280.065 380.855 280.801 380.855 281.046 380.836C281.254 380.817 281.33 380.761 281.33 380.534V371.489ZM277.743 364.616L278.894 365.032C277.762 367.316 275.78 369.337 273.647 370.602C273.439 370.281 273.061 369.866 272.741 369.601C274.76 368.544 276.705 366.637 277.743 364.616ZM278.404 365.353C279.668 367.241 281.311 368.468 283.198 369.469C282.878 369.733 282.519 370.149 282.33 370.508C280.329 369.299 278.706 367.864 277.347 365.73L278.404 365.353ZM274.156 371.81H277.177V372.868H274.156V371.81ZM273.59 371.81H274.685V375.814C274.685 377.702 274.515 380.27 273.401 382.083C273.212 381.875 272.741 381.497 272.476 381.365C273.477 379.722 273.59 377.513 273.59 375.814V371.81ZM265.907 366.75H272.797V367.977H265.907V366.75ZM265.718 377.683H272.835V378.91H265.718V377.683ZM268.757 364.748H270.003V369.998H268.757V364.748ZM268.871 369.941H269.89V375.417H270.041V382.083H268.739V375.417H268.871V369.941ZM267.398 373.302V375.134H271.306V373.302H267.398ZM267.398 370.489V372.283H271.306V370.489H267.398ZM266.303 369.412H272.438V376.21H266.303V369.412ZM288.088 365.881H293.43V367.316H288.088V365.881ZM292.713 365.881H294.166C294.166 369.261 294.581 376.437 302.038 380.855C301.717 381.101 301.151 381.705 300.886 382.045C293.335 377.475 292.713 369.431 292.713 365.881ZM292.184 369.582L293.789 369.884C292.429 375.644 289.938 379.628 285.766 382.083C285.501 381.78 284.86 381.195 284.482 380.931C288.673 378.74 291.032 374.926 292.184 369.582ZM303.303 374.737C304.85 374.341 307.097 373.718 309.287 373.094L309.475 374.378C307.474 375.002 305.36 375.625 303.718 376.097L303.303 374.737ZM303.529 368.544H309.853V369.884H303.529V368.544ZM306.115 364.748H307.493V380.308C307.493 381.101 307.323 381.497 306.814 381.705C306.323 381.931 305.53 381.969 304.228 381.969C304.171 381.61 303.982 381.025 303.812 380.647C304.699 380.685 305.511 380.666 305.757 380.666C306.021 380.666 306.115 380.572 306.115 380.308V364.748ZM311.967 365.428H316.913V366.75H311.967V365.428ZM309.777 373.076H318.48V374.416H309.777V373.076ZM317.989 373.076H318.253L318.517 373.019L319.442 373.434C317.762 378.4 313.591 381.006 308.985 382.139C308.852 381.762 308.532 381.157 308.267 380.855C312.571 379.949 316.573 377.513 317.989 373.302V373.076ZM311.514 374.057C313.043 377.494 316.328 379.93 320.764 380.836C320.443 381.138 320.065 381.743 319.858 382.139C315.308 381.063 312.043 378.4 310.287 374.492L311.514 374.057ZM311.608 365.428H312.949V367.543C312.949 369.242 312.42 371.282 310.079 372.604C309.91 372.339 309.419 371.792 309.154 371.565C311.269 370.413 311.608 368.846 311.608 367.505V365.428ZM316.252 365.428H317.593V369.79C317.593 370.338 317.649 370.526 317.951 370.526C318.215 370.526 319.159 370.526 319.424 370.526C319.688 370.526 320.122 370.489 320.367 370.432C320.386 370.791 320.424 371.32 320.481 371.641C320.235 371.735 319.839 371.754 319.442 371.754C319.14 371.754 318.102 371.754 317.857 371.754C316.535 371.754 316.252 371.206 316.252 369.771V365.428ZM326.333 374.605V375.889H335.847V374.605H326.333ZM326.333 376.814V378.136H335.847V376.814H326.333ZM326.333 372.396V373.68H335.847V372.396H326.333ZM324.955 371.452H337.262V379.08H324.955V371.452ZM332.789 379.968L333.732 379.175C335.79 379.798 337.999 380.629 339.339 381.233L338.074 382.045C336.866 381.441 334.827 380.629 332.789 379.968ZM328.126 379.194L329.41 379.798C327.881 380.704 325.483 381.573 323.595 382.083C323.369 381.818 322.878 381.271 322.557 381.025C324.502 380.61 326.767 379.949 328.126 379.194ZM330.297 366.014H338.074V367.128H330.297V366.014ZM330.599 364.692L331.864 364.975C331.354 366.523 330.448 368.053 329.466 369.016C329.24 368.808 328.711 368.468 328.39 368.298C329.372 367.392 330.165 366.051 330.599 364.692ZM332.845 366.712H334.148V367.354C334.148 368.789 333.544 370.489 328.22 371.32C328.088 370.98 327.711 370.489 327.465 370.224C332.373 369.582 332.845 368.279 332.845 367.316V366.712ZM333.959 367.826C334.922 369.054 337.074 369.847 339.698 370.073C339.414 370.357 339.056 370.866 338.886 371.225C336.168 370.829 333.997 369.752 332.959 368.072L333.959 367.826ZM322.878 365.862H327.427V366.977H322.878V365.862ZM322.463 368.808H327.899V369.96H322.463V368.808ZM337.602 366.014H337.848L338.055 365.957L339.018 366.278C338.546 367.241 337.942 368.336 337.413 369.016L336.3 368.619C336.734 367.996 337.262 367.033 337.602 366.221V366.014ZM344.983 370.394H354.743V371.716H344.983V370.394ZM342.567 374.284H357.197V375.587H342.567V374.284ZM341.717 380.251H358.046V381.554H341.717V380.251ZM349.061 370.98H350.571V380.912H349.061V370.98ZM344.171 376.493L345.323 376.021C346.059 377.06 346.852 378.514 347.154 379.439L345.908 379.968C345.625 379.042 344.889 377.57 344.171 376.493ZM354.252 376.002L355.592 376.531C354.894 377.74 354.044 379.099 353.346 379.987L352.27 379.515C352.93 378.589 353.78 377.079 354.252 376.002ZM350.42 365.541C352.213 367.656 355.743 369.79 358.782 370.734C358.443 371.055 358.008 371.603 357.782 371.98C354.762 370.866 351.25 368.525 349.231 366.127L350.42 365.541ZM349.853 364.56L351.156 365.164C349.117 368.279 345.663 370.696 341.963 372.037C341.755 371.641 341.359 371.093 341 370.753C344.568 369.601 348.041 367.373 349.853 364.56ZM360.481 366.561H368.447V369.752H367.315V367.732H361.557V369.752H360.481V366.561ZM361.614 376.267H367.522V382.007H366.258V377.419H362.841V382.045H361.614V376.267ZM362.105 380.289H367.069V381.441H362.105V380.289ZM363.181 368.355L364.313 368.563C363.709 370.243 362.728 371.886 361.085 373.132C360.934 372.811 360.595 372.358 360.33 372.169C361.803 371.131 362.747 369.658 363.181 368.355ZM363.294 369.677H366.692V370.772H362.841L363.294 369.677ZM366.371 369.677H366.616L366.843 369.62L367.579 370.13C366.277 373.548 363.464 375.757 360.651 376.928C360.519 376.588 360.16 376.002 359.915 375.757C362.671 374.775 365.314 372.736 366.371 369.922V369.677ZM363.351 365.164L364.483 364.748C364.823 365.428 365.238 366.353 365.427 366.939L364.238 367.449C364.068 366.844 363.672 365.881 363.351 365.164ZM369.052 365.636H377.32V366.863H369.052V365.636ZM370.901 372.755V374.511H375.356V372.755H370.901ZM370.901 375.606V377.419H375.356V375.606H370.901ZM370.901 369.903V371.641H375.356V369.903H370.901ZM369.618 368.733H376.716V378.552H369.618V368.733ZM372.563 366.24L373.903 366.486C373.62 367.543 373.299 368.676 373.053 369.45L371.977 369.167C372.185 368.355 372.449 367.109 372.563 366.24ZM371.657 378.854L372.619 379.741C371.506 380.647 369.92 381.61 368.674 382.215C368.542 381.913 368.259 381.441 368.032 381.157C369.221 380.591 370.807 379.628 371.657 378.854ZM373.563 379.703L374.318 378.797C375.375 379.439 376.772 380.459 377.471 381.157L376.659 382.177C375.979 381.459 374.62 380.383 373.563 379.703ZM362.18 372.811L362.992 371.943C364.748 372.943 367.202 374.454 368.485 375.36L367.636 376.38C366.428 375.455 363.992 373.888 362.18 372.811Z" fill="#7C7C7C"/>
<path d="M56.7857 283.382H62.3167V284.515H56.7857V283.382ZM56.8423 278.34H62.2411V279.473H56.8423V278.34ZM56.7857 285.912H62.3167V287.045H56.7857V285.912ZM55.8984 280.814H62.9396V281.984H55.8984V280.814ZM57.4086 288.461H62.3167V293.975H57.4086V292.785H61.0708V289.632H57.4086V288.461ZM56.7668 288.461H57.9938V294.843H56.7668V288.461ZM63.3549 278.944H72.8501V280.04H63.3549V278.944ZM63.8457 281.172H72.5669V282.211H63.8457V281.172ZM62.883 283.438H73.2654V284.534H62.883V283.438ZM67.3757 277.66H68.716V284.364H67.3757V277.66ZM64.2988 285.648H71.5664V286.724H65.639V295.013H64.2988V285.648ZM70.7736 285.648H72.1139V293.541C72.1139 294.239 71.9629 294.579 71.4909 294.787C70.9812 294.976 70.1884 294.976 69.018 294.976C68.9614 294.636 68.7726 294.145 68.6027 293.805C69.4522 293.843 70.2262 293.824 70.4716 293.824C70.717 293.805 70.7736 293.748 70.7736 293.522V285.648ZM64.9028 288.083H71.4532V289.103H64.9028V288.083ZM64.9028 290.463H71.4532V291.482H64.9028V290.463ZM78.5698 285.119V291.803H77.2296V286.441H74.9077V285.119H78.5698ZM78.5698 291.237C79.4571 292.653 81.1371 293.295 83.3835 293.389C85.5166 293.484 89.9527 293.427 92.2746 293.276C92.1047 293.578 91.8782 294.22 91.8216 294.617C89.6696 294.711 85.5544 294.749 83.4024 294.673C80.8917 294.579 79.1739 293.899 77.9847 292.408C77.1729 293.219 76.3235 294.031 75.4174 294.881L74.6812 293.541C75.4929 292.917 76.4934 292.068 77.3617 291.237H78.5698ZM75.0021 278.831L76.0969 278.114C77.2107 279.02 78.4755 280.323 79.004 281.267L77.8148 282.079C77.324 281.135 76.0969 279.775 75.0021 278.831ZM79.9668 285.648H91.4252V286.743H79.9668V285.648ZM79.3627 288.556H92.0103V289.67H79.3627V288.556ZM82.7606 284.288H84.1197V289.103H82.7606V284.288ZM87.2156 284.288H88.5558V289.103H87.2156V284.288ZM80.4387 280.625H83.761V279.398H79.7214V278.416H85.0069V281.626H80.4387V280.625ZM80.0423 280.625H81.2504V282.589C81.2504 282.947 81.3448 283.023 81.9489 283.023C82.2131 283.023 83.6478 283.023 84.0065 283.023C84.4595 283.023 84.5539 282.91 84.6105 282.079C84.837 282.268 85.309 282.419 85.6488 282.475C85.5166 283.703 85.158 284.024 84.1952 284.024C83.8932 284.024 82.0999 284.024 81.8167 284.024C80.4198 284.024 80.0423 283.74 80.0423 282.608V280.625ZM86.6681 280.625H89.9339V279.398H85.913V278.416H91.1609V281.626H86.6681V280.625ZM86.2528 280.625H87.461V282.589C87.461 282.947 87.5742 283.023 88.216 283.023C88.5181 283.023 90.066 283.023 90.4435 283.023C90.9155 283.023 91.0099 282.91 91.0665 282.022C91.3119 282.192 91.7838 282.343 92.1236 282.419C91.9915 283.703 91.6328 284.024 90.6134 284.024C90.3114 284.024 88.3859 284.024 88.0839 284.024C86.6492 284.024 86.2528 283.74 86.2528 282.589V280.625ZM86.8758 290.519L87.8951 289.896C89.2732 290.557 90.8211 291.482 91.7272 292.181L90.3303 292.804C89.5752 292.105 88.1783 291.199 86.8758 290.519ZM83.4213 289.858L84.6671 290.293C83.7044 291.218 82.1754 292.143 80.9106 292.747C80.703 292.502 80.1744 292.049 79.8724 291.86C81.156 291.35 82.5718 290.633 83.4213 289.858ZM107.395 279.454V281.456H109.321V279.454H107.395ZM104.375 279.454V281.456H106.263V279.454H104.375ZM101.449 279.454V281.456H103.242V279.454H101.449ZM100.279 278.435H110.51V282.475H100.279V278.435ZM100.486 283.646H110.132V284.722H100.486V283.646ZM99.5423 286.063H111.076V287.196H99.5423V286.063ZM99.7311 288.99H110.812V290.104H99.7311V288.99ZM100.109 291.463H110.397V292.559H100.109V291.463ZM104.564 282.211H105.923V286.516H104.564V282.211ZM104.564 289.481H105.923V295.183H104.564V289.481ZM101.902 287.366L103.072 287.102C103.374 287.63 103.714 288.367 103.827 288.858L102.6 289.179C102.487 288.707 102.204 287.932 101.902 287.366ZM107.546 286.913L108.868 287.272C108.49 287.97 108.075 288.688 107.754 289.179L106.678 288.877C106.98 288.31 107.357 287.46 107.546 286.913ZM93.445 287.46C94.9174 287.045 97.126 286.365 99.278 285.666L99.4668 286.969C97.5036 287.649 95.4271 288.329 93.8226 288.839L93.445 287.46ZM93.7093 281.475H99.4479V282.796H93.7093V281.475ZM96.0878 277.679H97.4092V293.389C97.4092 294.182 97.2204 294.56 96.7485 294.787C96.3143 295.013 95.5781 295.051 94.3889 295.051C94.3322 294.711 94.1623 294.126 93.9736 293.729C94.8042 293.748 95.5215 293.748 95.748 293.729C95.9745 293.729 96.0878 293.673 96.0878 293.389V277.679ZM120.817 278.416H122.157V280.342C122.157 282.003 121.685 284.08 119.59 285.459C119.401 285.176 118.91 284.628 118.627 284.439C120.515 283.25 120.817 281.626 120.817 280.323V278.416ZM121.515 278.416H126.348V279.737H121.515V278.416ZM125.706 278.416H127.065V282.966C127.065 283.382 127.122 283.438 127.462 283.438C127.613 283.438 128.292 283.438 128.5 283.438C128.84 283.438 128.915 283.174 128.953 281.21C129.236 281.456 129.783 281.645 130.161 281.758C130.048 284.061 129.708 284.666 128.651 284.666C128.387 284.666 127.48 284.666 127.235 284.666C126.046 284.666 125.706 284.307 125.706 282.966V278.416ZM119.684 285.836H127.745V287.139H119.684V285.836ZM127.329 285.836H127.613L127.877 285.78L128.783 286.176C127.235 291.199 123.252 293.88 118.74 295.07C118.608 294.692 118.268 294.088 118.004 293.786C122.214 292.842 126.008 290.33 127.329 286.082V285.836ZM121.591 287.064C122.988 290.482 125.97 292.88 130.199 293.767C129.897 294.069 129.481 294.655 129.274 295.032C124.913 293.975 121.912 291.369 120.326 287.46L121.591 287.064ZM112.416 287.8C114.002 287.385 116.4 286.648 118.74 285.931L118.91 287.158C116.796 287.914 114.587 288.688 112.888 289.273L112.416 287.8ZM112.662 281.399H118.929V282.721H112.662V281.399ZM115.418 277.679H116.796V293.371C116.796 294.164 116.607 294.56 116.116 294.768C115.626 294.994 114.871 295.032 113.606 295.013C113.549 294.673 113.341 294.088 113.172 293.729C114.021 293.748 114.814 293.748 115.059 293.729C115.305 293.729 115.418 293.654 115.418 293.371V277.679ZM132.502 279.058L133.125 278.095C134.427 278.435 136.183 279.077 137.089 279.549L136.466 280.644C135.579 280.153 133.823 279.473 132.502 279.058ZM131.558 283.042C132.917 282.721 134.918 282.154 136.881 281.607L137.032 282.721C135.314 283.268 133.54 283.854 132.105 284.288L131.558 283.042ZM139.656 279.058H147.245V280.134H138.826L139.656 279.058ZM146.867 279.058H147.094L147.339 279.001L148.283 279.284C147.754 280.266 147.056 281.324 146.376 281.984L145.244 281.588C145.848 281.003 146.49 280.058 146.867 279.265V279.058ZM141.997 279.435H143.299C142.903 282.117 141.695 283.589 137.844 284.364C137.712 284.061 137.41 283.589 137.164 283.344C140.657 282.759 141.676 281.588 141.997 279.435ZM143.243 279.775C143.62 281.38 144.545 282.929 148.736 283.533C148.472 283.816 148.151 284.326 148 284.685C143.526 283.91 142.582 281.871 142.091 279.888L143.243 279.775ZM139.958 277.66L141.242 277.868C140.6 279.246 139.637 280.644 138.165 281.777C137.919 281.512 137.429 281.21 137.089 281.059C138.505 280.096 139.467 278.793 139.958 277.66ZM135.465 287.536V288.82H144.98V287.536H135.465ZM135.465 289.745V291.067H144.98V289.745H135.465ZM135.465 285.327V286.611H144.98V285.327H135.465ZM134.087 284.382H146.395V292.011H134.087V284.382ZM141.695 292.974L142.846 292.256C144.923 292.899 147.207 293.729 148.566 294.371L146.999 295.089C145.81 294.466 143.753 293.654 141.695 292.974ZM137.259 292.219L138.542 292.804C137.013 293.71 134.616 294.579 132.728 295.108C132.502 294.825 132.011 294.277 131.69 294.031C133.634 293.616 135.9 292.955 137.259 292.219ZM150.548 280.927H167.443V282.287H150.548V280.927ZM156.721 285.402H164.272V286.762H156.721V285.402ZM163.762 285.402H165.216C165.216 285.402 165.197 285.874 165.159 286.082C164.782 291.52 164.404 293.616 163.668 294.371C163.234 294.825 162.762 294.957 162.044 295.013C161.384 295.051 160.138 295.013 158.854 294.957C158.835 294.541 158.628 293.956 158.363 293.559C159.723 293.692 161.063 293.692 161.554 293.692C161.969 293.692 162.233 293.673 162.441 293.484C163.045 292.936 163.422 290.821 163.743 285.648L163.762 285.402ZM156.4 281.682H157.967C157.684 286.686 157.136 292.351 151.379 295.108C151.171 294.749 150.718 294.239 150.359 293.956C155.872 291.463 156.193 286.195 156.4 281.682ZM158.193 277.623H159.647V281.512H158.193V277.623ZM181.828 278.604L182.771 277.793C183.753 278.453 184.942 279.435 185.528 280.096L184.527 280.984C183.961 280.304 182.809 279.284 181.828 278.604ZM169.482 281.191H186.302V282.57H169.482V281.191ZM170.124 285.402H178.468V286.781H170.124V285.402ZM173.522 286.139H174.937V292.88H173.522V286.139ZM169.558 293.068C171.804 292.634 175.504 291.879 178.996 291.124L179.109 292.389C175.881 293.144 172.427 293.937 169.992 294.485L169.558 293.068ZM179.09 277.755H180.601C180.544 286.516 182.243 293.597 184.565 293.597C185.093 293.597 185.32 292.559 185.433 290.028C185.754 290.349 186.302 290.67 186.698 290.803C186.453 294.107 185.905 295.07 184.452 295.07C180.695 295.07 179.166 286.894 179.09 277.755Z" fill="#7C7C7C"/>
<path d="M48.8867 308.733H382.382" stroke="#ACACAC"/>
<path d="M365.605 285.129L371.898 291.424L378.19 285.129" stroke="#1C1C1C" stroke-width="2" stroke-linecap="round"/>
<g filter="url(#filter1_d_3142_4268)">
<path d="M386.579 550.534H44.6937C35.4266 550.534 27.9141 558.048 27.9141 567.318V683.76C27.9141 693.03 35.4266 700.545 44.6937 700.545H386.579C395.846 700.545 403.359 693.03 403.359 683.76V567.318C403.359 558.048 395.846 550.534 386.579 550.534Z" fill="white"/>
</g>
<path d="M54.9307 577.483H66.6723V578.578H54.9307V577.483ZM57.0261 581.184H64.5392V581.921H57.0261V581.184ZM57.0261 582.751H64.5392V583.488H57.0261V582.751ZM56.271 579.56H65.2187V584.791H63.8973V580.391H57.5735V584.791H56.271V579.56ZM54.4021 584.319H66.9932V586.868H65.7095V585.225H55.648V586.868H54.4021V584.319ZM56.8373 585.791L57.7811 586.32C57.2903 587.057 56.573 587.925 55.7235 588.454L54.8363 587.717C55.648 587.283 56.3842 586.49 56.8373 585.791ZM57.9699 585.754H59.1403V586.943C59.1403 587.283 59.2536 587.359 59.8954 587.359C60.1974 587.359 61.8208 587.359 62.2361 587.359C62.6703 587.359 62.7647 587.245 62.8402 586.509C63.0667 586.641 63.5009 586.773 63.8029 586.83C63.6897 587.925 63.3688 588.208 62.406 588.208C62.0851 588.208 60.0842 588.208 59.7821 588.208C58.3475 588.208 57.9699 587.982 57.9699 586.943V585.754ZM59.3291 585.338L60.1597 584.772C60.877 585.168 61.7265 585.754 62.1418 586.245L61.2923 586.849C60.877 586.377 60.0653 585.735 59.3291 585.338ZM63.482 586.245L64.3881 585.735C65.1998 586.358 66.1437 587.264 66.5779 587.925L65.634 588.473C65.2187 587.831 64.2937 586.906 63.482 586.245ZM58.9515 587.812L60.2729 588.095C59.0459 589.436 57.3092 590.606 54.9685 591.57C54.7797 591.286 54.4021 590.871 54.1379 590.682C56.3465 589.908 58.0265 588.832 58.9515 587.812ZM63.8218 589.02H64.105L64.3693 588.964L65.2565 589.455C63.6519 591.834 60.0086 593.344 54.7231 594.043C54.5909 593.741 54.2889 593.288 54.0246 592.986C59.0648 592.438 62.5759 591.041 63.8218 589.247V589.02ZM57.8944 589.549C59.5556 591.475 63.1989 592.57 67.2197 592.91C66.9365 593.193 66.5968 593.722 66.4269 594.081C62.2928 593.609 58.6306 592.306 56.724 589.983L57.8944 589.549ZM58.2153 589.02H64.2182V589.927H57.3092L58.2153 589.02ZM59.9143 577.993L61.4622 578.163C61.179 578.881 60.9147 579.598 60.6882 580.108L59.4612 579.919C59.6311 579.315 59.8388 578.541 59.9143 577.993ZM53.2695 576.747L54.5909 577.106C53.5149 580.372 51.8349 583.696 49.966 585.905C49.8339 585.565 49.4563 584.81 49.2109 584.451C50.8721 582.563 52.3634 579.655 53.2695 576.747ZM51.7593 581.373L53.0619 580.07L53.0996 580.108V594.005H51.7593V581.373ZM69.2018 577.804H85.1907V578.975H69.2018V577.804ZM76.3751 576.671H77.8098V587.453H76.3751V576.671ZM71.8257 583.28V584.545H82.4724V583.28H71.8257ZM71.8257 581.146V582.393H82.4724V581.146H71.8257ZM70.4854 580.202H83.8693V585.508H70.4854V580.202ZM79.8674 586.15L80.8112 585.452C82.4535 586.112 84.3979 587.321 85.3606 588.246L84.3979 589.077C83.4351 588.114 81.5285 586.849 79.8674 586.15ZM69.1829 587C72.5997 587.019 78.1118 586.981 83.3219 586.906L83.2464 588.02C78.1495 588.133 72.7318 588.227 69.2395 588.246L69.1829 587ZM72.7318 589.304H74.1287V591.985C74.1287 592.476 74.3364 592.551 75.5256 592.551C76.0731 592.551 78.8858 592.551 79.6408 592.551C80.5847 592.551 80.7546 592.325 80.8301 590.663C81.151 590.852 81.6984 591.06 82.076 591.135C81.8872 593.269 81.453 593.76 79.7541 593.76C79.2633 593.76 75.9032 593.76 75.4501 593.76C73.2981 593.76 72.7318 593.401 72.7318 591.985V589.304ZM75.4312 589.096L76.3373 588.322C77.47 588.869 78.848 589.757 79.5276 590.399L78.5837 591.267C77.923 590.607 76.5639 589.681 75.4312 589.096ZM81.9816 589.681L83.1897 589.247C84.1147 590.342 85.0774 591.834 85.455 592.816L84.1713 593.288C83.7938 592.325 82.8877 590.814 81.9816 589.681ZM70.5232 589.228L71.7313 589.738C71.316 590.928 70.712 592.457 69.9569 593.439L68.7299 592.759C69.5038 591.853 70.1456 590.38 70.5232 589.228ZM87.6258 579.9H104.521V581.26H87.6258V579.9ZM93.7987 584.375H101.35V585.735H93.7987V584.375ZM100.84 584.375H102.293C102.293 584.375 102.274 584.847 102.237 585.055C101.859 590.493 101.482 592.589 100.745 593.344C100.311 593.798 99.8393 593.93 99.122 593.986C98.4613 594.024 97.2154 593.986 95.9318 593.93C95.9129 593.514 95.7053 592.929 95.441 592.533C96.8001 592.665 98.1404 592.665 98.6312 592.665C99.0465 592.665 99.3108 592.646 99.5184 592.457C100.122 591.909 100.5 589.795 100.821 584.621L100.84 584.375ZM93.4778 580.655H95.0446C94.7614 585.659 94.214 591.324 88.4564 594.081C88.2488 593.722 87.7957 593.212 87.4371 592.929C92.9492 590.437 93.2701 585.168 93.4778 580.655ZM95.2711 576.596H96.7246V580.486H95.2711V576.596ZM114.224 576.652H115.639V578.824H114.224V576.652ZM114.186 586.585H115.621V594.005H114.186V586.585ZM107.032 578.05H122.964V580.788H121.605V579.258H108.353V580.788H107.032V578.05ZM106.805 581.241H123.171V582.412H106.805V581.241ZM106.503 588.152H123.436V589.379H106.503V588.152ZM113.242 579.485L114.582 579.881C113.355 581.562 111.732 583.62 110.599 584.961L109.278 584.526C110.467 583.205 112.109 581.09 113.242 579.485ZM110.373 584.394L111.184 583.507C114.771 584.168 119.585 585.395 122.246 586.415L121.397 587.453C118.924 586.452 114.073 585.112 110.373 584.394ZM113.676 588.794L114.733 589.266C113.034 591.267 109.92 592.986 107.05 593.76C106.843 593.42 106.446 592.872 106.144 592.608C108.995 591.985 112.128 590.474 113.676 588.794ZM116.187 588.756C117.791 590.474 120.982 591.966 123.87 592.589C123.549 592.891 123.153 593.42 122.945 593.779C120.076 593.005 116.885 591.286 115.149 589.247L116.187 588.756ZM118.226 581.902H119.736C118.433 585.244 115.507 586.773 107.768 587.321C107.73 587 107.503 586.471 107.315 586.188C114.696 585.735 117.15 584.451 118.226 581.902Z" fill="#1C1C1C"/>
<path d="M62.9585 623.29H73.1144V624.366H62.9585V623.29ZM63.4304 625.537H72.7557V626.575H63.4304V625.537ZM62.7508 627.859H73.3031V628.954H62.7508V627.859ZM67.2436 621.741H68.6216V628.445H67.2436V621.741ZM70.868 630.087H72.2083V637.64C72.2083 638.32 72.0573 638.679 71.5665 638.887C71.0757 639.075 70.2828 639.094 69.1124 639.075C69.0558 638.735 68.867 638.245 68.6971 637.905C69.5466 637.942 70.3206 637.942 70.566 637.924C70.8114 637.924 70.868 637.848 70.868 637.64V630.087ZM64.563 632.58H71.5476V633.618H64.563V632.58ZM64.563 635.016H71.5476V636.035H64.563V635.016ZM63.8646 630.087H65.1671V633.581C65.1671 635.356 64.9217 637.735 63.6003 639.34C63.4115 639.075 62.883 638.584 62.6187 638.414C63.7325 636.979 63.8646 635.072 63.8646 633.562V630.087ZM64.6197 630.087H71.3399V631.201H64.6197V630.087ZM56.4648 627.33H61.9769V628.463H56.4648V627.33ZM57.2387 632.504H61.9391V638.018H57.2387V636.828H60.6932V633.675H57.2387V632.504ZM56.5592 632.504H57.7862V638.887H56.5592V632.504ZM56.4836 629.898H61.9958V631.05H56.4836V629.898ZM56.0117 624.914H62.5432V626.103H56.0117V624.914ZM58.2581 622.157L59.4474 621.779C59.8438 622.572 60.2591 623.611 60.4478 624.271L59.2019 624.725C59.0321 624.045 58.6168 622.969 58.2581 622.157ZM80.3821 629.804H91.3497V630.899H80.3821V629.804ZM79.5892 632.655H91.9537V633.751H79.5892V632.655ZM83.006 628.445H84.3274V633.26H83.006V628.445ZM87.2722 628.445H88.5936V633.26H87.2722V628.445ZM86.7814 634.544L87.7253 633.902C89.141 634.562 90.7267 635.45 91.6328 636.149L90.3869 636.809C89.5752 636.092 88.1594 635.204 86.7814 634.544ZM83.6289 633.92L84.8937 634.355C83.8932 635.299 82.3453 636.262 81.0616 636.847C80.7974 636.621 80.2877 636.186 79.9668 635.979C81.2882 635.469 82.7417 634.695 83.6289 633.92ZM80.7974 622.497H85.2901V625.707H80.7974V624.725H84.0631V623.46H80.7974V622.497ZM86.8192 622.515H91.4063V625.725H86.8192V624.744H90.1604V623.478H86.8192V622.515ZM86.2717 622.515H87.4421V626.367C87.4421 626.896 87.5176 627.066 87.9518 627.066C88.3293 627.066 90.1227 627.066 90.5002 627.066C90.8589 627.066 91.4252 627.047 91.7461 626.991C91.765 627.293 91.8027 627.727 91.8593 628.01C91.5762 628.067 91.0665 628.105 90.5568 628.105C90.1227 628.105 88.1972 628.105 87.8952 628.105C86.5926 628.105 86.2717 627.633 86.2717 626.349V622.515ZM80.2688 628.577L80.2311 627.651L80.8162 627.255L85.46 626.519C85.4034 626.821 85.3467 627.293 85.3467 627.538C81.156 628.293 80.5897 628.407 80.2688 628.577ZM80.2688 628.577C80.1933 628.275 79.929 627.727 79.7591 627.444C79.9856 627.33 80.2499 627.085 80.2499 626.367V622.497H81.4014V627.519C81.4014 627.519 80.2688 628.161 80.2688 628.577ZM75.323 622.497L76.3612 621.855C77.2296 622.78 78.2867 623.988 78.8153 624.744L77.7015 625.518C77.2107 624.744 76.1536 623.422 75.323 622.497ZM74.9455 626.122H78.3811V627.312H74.9455V626.122ZM78.1923 634.77C79.3627 637.244 81.8545 637.584 85.6488 637.584C87.6498 637.584 90.4436 637.489 92.3879 637.319C92.1614 637.64 91.9915 638.301 91.916 638.698C90.1227 638.792 87.7253 638.849 85.6299 638.849C81.1749 638.849 78.6831 638.339 77.2485 635.204L78.1923 634.77ZM78.1734 630.824H78.5132L78.7586 630.786L79.476 631.05C78.8908 635.016 77.475 637.697 75.5495 639.17C75.3608 638.868 74.8888 638.396 74.6057 638.188C76.4367 636.885 77.7015 634.468 78.1734 631.069V630.824ZM75.2475 632.24V631.164L75.9271 630.824H78.551V631.976H76.3235C75.8893 631.976 75.3985 632.108 75.2475 632.24ZM75.2475 632.24C75.172 631.919 74.8888 631.258 74.7378 630.975C75.0021 630.899 75.2852 630.786 75.5684 630.408C76.0592 629.88 77.5505 627.236 78.0602 626.254V626.198L78.4566 626.028L79.4005 626.386C78.6643 627.67 77.2107 630.163 76.3046 631.352C76.3046 631.352 75.2475 631.862 75.2475 632.24ZM107.32 623.478V625.461H109.245V623.478H107.32ZM104.299 623.478V625.461H106.187V623.478H104.299ZM101.355 623.478V625.461H103.167V623.478H101.355ZM100.203 622.44H110.434V626.481H100.203V622.44ZM100.411 627.595H110.057V628.69H100.411V627.595ZM99.5801 630.031H110.661V631.145H99.5801V630.031ZM99.9765 632.939H110.265V634.053H99.9765V632.939ZM99.3347 635.412H110.925V636.526H99.3347V635.412ZM104.488 626.16H105.828V630.465H104.488V626.16ZM104.488 633.429H105.828V639.113H104.488V633.429ZM101.826 631.409L103.016 631.126C103.299 631.673 103.639 632.41 103.771 632.882L102.544 633.241C102.431 632.731 102.128 631.976 101.826 631.409ZM107.433 631.088L108.773 631.447C108.339 632.202 107.905 633.014 107.527 633.562L106.47 633.222C106.791 632.618 107.225 631.711 107.433 631.088ZM93.596 631.503C94.9929 631.107 97.0883 630.446 99.127 629.785L99.3158 631.069C97.447 631.73 95.4838 632.372 93.9547 632.882L93.596 631.503ZM93.8037 625.556H99.3158V626.877H93.8037V625.556ZM96.0878 621.76H97.4092V637.395C97.4092 638.15 97.2204 638.547 96.7485 638.773C96.3143 639 95.5781 639.038 94.3889 639.038C94.3323 638.679 94.1624 638.094 93.9736 637.697C94.8042 637.735 95.5215 637.735 95.748 637.716C95.9746 637.716 96.0878 637.64 96.0878 637.395V621.76ZM120.496 623.139H129.708V624.253H120.496V623.139ZM120.288 633.732H129.934V634.827H120.288V633.732ZM124.403 621.76H125.649V631.938H124.403V621.76ZM122.1 628.18V629.332H128.066V628.18H122.1ZM122.1 626.16V627.312H128.066V626.16H122.1ZM120.93 625.272H129.274V630.238H120.93V625.272ZM120.307 631.522C122.421 631.503 125.63 631.447 128.84 631.371L128.821 632.41C125.744 632.504 122.572 632.561 120.402 632.618L120.307 631.522ZM126.31 632.712H127.631V637.735C127.631 638.433 127.499 638.773 126.971 638.962C126.423 639.151 125.612 639.151 124.328 639.151C124.271 638.792 124.083 638.32 123.913 637.98C124.875 638.018 125.744 638.018 125.989 637.999C126.253 637.98 126.31 637.924 126.31 637.716V632.712ZM121.402 635.582L122.365 634.997C123.12 635.639 123.875 636.545 124.234 637.206L123.176 637.886C122.856 637.206 122.119 636.243 121.402 635.582ZM126.839 630.578L127.782 630.087C128.651 630.843 129.595 631.881 130.048 632.599L129.047 633.184C128.632 632.448 127.688 631.352 126.839 630.578ZM112.775 623.799H120.1V625.065H112.775V623.799ZM112.53 634.562H120.364V635.828H112.53V634.562ZM115.871 621.76H117.174V626.915H115.871V621.76ZM116.003 626.991H117.041V632.485H117.174V639.151H115.871V632.485H116.003V626.991ZM114.285 630.238V631.976H118.797V630.238H114.285ZM114.285 627.519V629.219H118.797V627.519H114.285ZM113.19 626.462H119.892V633.033H113.19V626.462ZM136.692 622.591H148.491V623.686H136.692V622.591ZM138.826 626.292H146.339V627.028H138.826V626.292ZM138.826 627.859H146.339V628.596H138.826V627.859ZM138.071 624.668H147.018V629.898H145.697V625.499H139.373V629.898H138.071V624.668ZM136.202 629.426H148.793V631.976H147.509V630.333H137.448V631.976H136.202V629.426ZM138.788 630.899L139.694 631.39C139.222 632.127 138.542 632.995 137.693 633.505L136.862 632.825C137.636 632.391 138.354 631.598 138.788 630.899ZM139.769 630.899H140.94V632.051C140.94 632.391 141.053 632.448 141.695 632.448C141.997 632.448 143.62 632.448 144.036 632.448C144.47 632.448 144.564 632.353 144.64 631.617C144.866 631.749 145.3 631.881 145.602 631.938C145.489 633.033 145.168 633.316 144.206 633.316C143.885 633.316 141.884 633.316 141.582 633.316C140.147 633.316 139.769 633.09 139.769 632.051V630.899ZM141.336 630.748L142.129 630.238C142.771 630.578 143.564 631.145 143.979 631.541L143.167 632.127C142.771 631.711 141.997 631.126 141.336 630.748ZM145.149 631.352L145.961 630.843C146.754 631.485 147.698 632.391 148.151 633.033L147.32 633.581C146.886 632.957 145.961 632.013 145.149 631.352ZM140.732 632.92L142.016 633.184C140.845 634.6 139.146 635.941 136.843 637.017C136.655 636.734 136.277 636.356 136.013 636.167C138.184 635.28 139.807 634.034 140.732 632.92ZM145.621 634.128H145.905L146.169 634.071L147.056 634.562C145.433 636.942 141.789 638.471 136.466 639.151C136.334 638.849 136.032 638.396 135.768 638.094C140.845 637.546 144.357 636.149 145.621 634.355V634.128ZM138.297 633.958C140.128 636.3 144.149 637.603 148.698 638.018C148.453 638.301 148.132 638.792 147.962 639.132C143.318 638.603 139.298 637.112 137.221 634.355L138.297 633.958ZM140.015 634.128H146.018V635.072H139.071L140.015 634.128ZM141.714 623.101L143.262 623.271C142.979 623.988 142.714 624.706 142.488 625.216L141.261 625.027C141.431 624.423 141.638 623.648 141.714 623.101ZM135.012 621.855L136.334 622.213C135.314 625.461 133.748 628.803 131.973 631.013C131.841 630.673 131.464 629.917 131.218 629.559C132.785 627.651 134.163 624.762 135.012 621.855ZM133.616 626.481L134.918 625.178L134.956 625.216V639.113H133.616V626.481ZM151.001 622.912H166.99V624.083H151.001V622.912ZM158.175 621.779H159.609V632.561H158.175V621.779ZM153.625 628.388V629.653H164.272V628.388H153.625ZM153.625 626.254V627.5H164.272V626.254H153.625ZM152.285 625.31H165.669V630.616H152.285V625.31ZM161.667 631.258L162.611 630.559C164.253 631.22 166.197 632.429 167.16 633.354L166.197 634.185C165.235 633.222 163.328 631.957 161.667 631.258ZM150.982 632.108C154.399 632.127 159.911 632.089 165.121 632.013L165.046 633.127C159.949 633.241 154.531 633.335 151.039 633.354L150.982 632.108ZM154.531 634.411H155.928V637.093C155.928 637.584 156.136 637.659 157.325 637.659C157.873 637.659 160.685 637.659 161.44 637.659C162.384 637.659 162.554 637.433 162.63 635.771C162.951 635.96 163.498 636.167 163.876 636.243C163.687 638.377 163.253 638.868 161.554 638.868C161.063 638.868 157.703 638.868 157.25 638.868C155.098 638.868 154.531 638.509 154.531 637.093V634.411ZM157.231 634.204L158.137 633.429C159.269 633.977 160.648 634.865 161.327 635.507L160.383 636.375C159.723 635.714 158.363 634.789 157.231 634.204ZM163.781 634.789L164.989 634.355C165.914 635.45 166.877 636.942 167.255 637.924L165.971 638.396C165.593 637.433 164.687 635.922 163.781 634.789ZM152.323 634.336L153.531 634.846C153.116 636.035 152.511 637.565 151.756 638.547L150.529 637.867C151.303 636.961 151.945 635.488 152.323 634.336ZM169.727 625.027H186.094V626.386H169.727V625.027ZM175.617 629.426H183.168V630.805H175.617V629.426ZM182.79 629.426H184.263C184.263 629.426 184.244 629.898 184.206 630.106C183.829 635.45 183.451 637.508 182.696 638.263C182.262 638.735 181.809 638.868 181.073 638.924C180.393 638.962 179.166 638.943 177.882 638.868C177.863 638.433 177.656 637.848 177.373 637.47C178.751 637.584 180.072 637.603 180.582 637.603C180.997 637.603 181.242 637.565 181.469 637.395C182.054 636.847 182.451 634.751 182.79 629.672V629.426ZM174.9 625.839H176.448C176.202 630.767 175.674 636.356 170.35 639.17C170.124 638.811 169.671 638.32 169.312 638.037C174.371 635.507 174.692 630.295 174.9 625.839ZM176.75 622.157L178.109 621.628C178.637 622.515 179.204 623.686 179.487 624.441L178.052 625.065C177.807 624.29 177.222 623.082 176.75 622.157ZM195.985 631.692H197.42V639.113H195.985V631.692ZM188.831 623.157H204.763V625.895H203.404V624.366H190.152V625.895H188.831V623.157ZM188.51 626.537H205.046V627.689H188.51V626.537ZM188.302 633.26H205.235V634.487H188.302V633.26ZM200.705 625.216L202.083 625.556C200.535 630.219 196.665 631.768 189.001 632.24C188.888 631.825 188.699 631.352 188.491 631.031C195.816 630.729 199.364 629.332 200.705 625.216ZM190.889 629.54L192.059 628.671C196.873 629.37 201.8 630.484 204.82 631.485L203.423 632.429C200.686 631.409 195.985 630.333 190.889 629.54ZM195.457 622.062L196.854 621.703C197.269 622.27 197.76 623.044 198.005 623.535L196.533 623.969C196.306 623.46 195.834 622.648 195.457 622.062ZM190.889 629.54C192.342 628.256 194.23 626.198 195.287 624.555L196.665 624.989C195.532 626.613 193.701 628.463 192.455 629.54H190.889ZM193.041 634.883L194.456 635.355C193.286 636.621 191.361 637.81 189.699 638.547C189.435 638.282 188.888 637.81 188.548 637.584C190.247 636.961 192.04 635.979 193.041 634.883ZM198.893 635.582L199.855 634.676C201.573 635.45 203.763 636.696 204.877 637.603L203.838 638.641C202.781 637.716 200.629 636.413 198.893 635.582Z" fill="#7C7C7C"/>
<path d="M215.637 629.21L221.929 635.505L228.221 629.21" stroke="#1C1C1C" stroke-width="2" stroke-linecap="round"/>
<path d="M248.148 651.765H382.386" stroke="#ACACAC"/>
<path d="M48.8867 651.765H234.512" stroke="#ACACAC"/>
<path d="M250.801 626.414H256.332V627.547H250.801V626.414ZM250.858 621.372H256.257V622.505H250.858V621.372ZM250.801 628.944H256.332V630.077H250.801V628.944ZM249.914 623.846H256.955V625.016H249.914V623.846ZM251.424 631.493H256.332V637.007H251.424V635.817H255.086V632.664H251.424V631.493ZM250.782 631.493H252.009V637.875H250.782V631.493ZM257.371 621.976H266.866V623.072H257.371V621.976ZM257.861 624.205H266.583V625.243H257.861V624.205ZM256.899 626.47H267.281V627.566H256.899V626.47ZM261.391 620.692H262.732V627.396H261.391V620.692ZM258.314 628.68H265.582V629.756H259.655V638.045H258.314V628.68ZM264.789 628.68H266.129V636.573C266.129 637.271 265.978 637.611 265.507 637.819C264.997 638.008 264.204 638.008 263.034 638.008C262.977 637.668 262.788 637.177 262.618 636.837C263.468 636.875 264.242 636.856 264.487 636.856C264.733 636.837 264.789 636.78 264.789 636.554V628.68ZM258.918 631.115H265.469V632.135H258.918V631.115ZM258.918 633.495H265.469V634.514H258.918V633.495ZM278.551 625.526H283.78V626.697H278.551V625.526ZM277.342 630.681H280.438V631.701H277.342V630.681ZM277.342 633.268H280.438V634.344H277.342V633.268ZM282.024 628.566H283.062V635.213H282.024V628.566ZM281.175 622.09C280.231 623.751 278.475 625.696 276.569 626.924C276.418 626.565 276.097 626.074 275.87 625.772C277.758 624.62 279.589 622.562 280.476 620.768H281.76C282.93 622.694 284.837 624.582 286.611 625.526C286.328 625.866 286.045 626.376 285.837 626.773C284.1 625.658 282.232 623.789 281.175 622.09ZM276.701 628.151H280.231V629.227H277.739V638.008H276.701V628.151ZM279.91 628.151H280.948V636.856C280.948 637.366 280.854 637.668 280.552 637.875C280.212 638.045 279.759 638.064 279.079 638.064C279.041 637.781 278.89 637.328 278.777 637.045C279.211 637.045 279.589 637.045 279.721 637.045C279.853 637.045 279.91 636.988 279.91 636.837V628.151ZM284.554 627.849H285.724V636.686C285.724 637.309 285.592 637.63 285.177 637.838C284.723 638.008 284.044 638.008 282.93 638.008C282.892 637.724 282.722 637.252 282.571 636.95C283.364 636.969 284.063 636.969 284.27 636.95C284.478 636.931 284.554 636.875 284.554 636.667V627.849ZM269.037 622.732H276.229V623.997H269.037V622.732ZM268.81 633.514H276.172V634.779H268.81V633.514ZM271.925 620.692H273.19V625.885H271.925V620.692ZM272.076 625.961H273.039V631.455H273.19V638.102H271.925V631.455H272.076V625.961ZM270.377 629.208V630.927H274.737V629.208H270.377ZM270.377 626.489V628.189H274.737V626.489H270.377ZM269.32 625.413H275.813V631.984H269.32V625.413ZM291.236 621.844H296.578V623.279H291.236V621.844ZM295.861 621.844H297.314C297.314 625.224 297.73 632.4 305.186 636.818C304.865 637.064 304.299 637.668 304.035 638.008C296.484 633.438 295.861 625.394 295.861 621.844ZM295.332 625.545L296.937 625.847C295.578 631.606 293.086 635.591 288.914 638.045C288.65 637.743 288.008 637.158 287.631 636.894C291.821 634.703 294.181 630.889 295.332 625.545ZM311.869 621.542H323.61V622.637H311.869V621.542ZM313.964 625.243H321.477V625.979H313.964V625.243ZM313.964 626.81H321.477V627.547H313.964V626.81ZM313.209 623.619H322.157V628.85H320.835V624.45H314.512V628.85H313.209V623.619ZM311.34 628.378H323.931V630.927H322.648V629.284H312.586V630.927H311.34V628.378ZM313.775 629.85L314.719 630.379C314.228 631.116 313.511 631.984 312.662 632.513L311.774 631.776C312.586 631.342 313.322 630.549 313.775 629.85ZM314.908 629.813H316.078V631.002C316.078 631.342 316.192 631.418 316.833 631.418C317.135 631.418 318.759 631.418 319.174 631.418C319.608 631.418 319.703 631.304 319.778 630.568C320.005 630.7 320.439 630.832 320.741 630.889C320.628 631.984 320.307 632.267 319.344 632.267C319.023 632.267 317.022 632.267 316.72 632.267C315.285 632.267 314.908 632.041 314.908 631.002V629.813ZM316.267 629.397L317.098 628.831C317.815 629.227 318.664 629.813 319.08 630.304L318.23 630.908C317.815 630.436 317.003 629.794 316.267 629.397ZM320.42 630.304L321.326 629.794C322.138 630.417 323.082 631.323 323.516 631.984L322.572 632.532C322.157 631.89 321.232 630.964 320.42 630.304ZM315.89 631.871L317.211 632.154C315.984 633.495 314.247 634.665 311.906 635.628C311.718 635.345 311.34 634.93 311.076 634.741C313.285 633.967 314.965 632.89 315.89 631.871ZM320.76 633.079H321.043L321.307 633.023L322.194 633.514C320.59 635.893 316.947 637.403 311.661 638.102C311.529 637.8 311.227 637.347 310.963 637.045C316.003 636.497 319.514 635.1 320.76 633.306V633.079ZM314.832 633.608C316.494 635.534 320.137 636.629 324.158 636.969C323.875 637.252 323.535 637.781 323.365 638.14C319.231 637.668 315.569 636.365 313.662 634.042L314.832 633.608ZM315.153 633.079H321.156V633.986H314.247L315.153 633.079ZM316.852 622.052L318.4 622.222C318.117 622.939 317.853 623.657 317.626 624.167L316.399 623.978C316.569 623.374 316.777 622.6 316.852 622.052ZM310.208 620.806L311.529 621.164C310.453 624.431 308.773 627.754 306.904 629.964C306.772 629.624 306.394 628.868 306.149 628.51C307.81 626.621 309.301 623.714 310.208 620.806ZM308.697 625.432L310 624.129L310.038 624.167V638.064H308.697V625.432ZM326.14 621.863H342.129V623.034H326.14V621.863ZM333.313 620.73H334.748V631.512H333.313V620.73ZM328.764 627.339V628.604H339.41V627.339H328.764ZM328.764 625.205V626.452H339.41V625.205H328.764ZM327.423 624.261H340.807V629.567H327.423V624.261ZM336.805 630.209L337.749 629.511C339.392 630.171 341.336 631.38 342.299 632.305L341.336 633.136C340.373 632.173 338.467 630.908 336.805 630.209ZM326.121 631.059C329.538 631.078 335.05 631.04 340.26 630.964L340.184 632.079C335.088 632.192 329.67 632.286 326.178 632.305L326.121 631.059ZM329.67 633.363H331.067V636.044C331.067 636.535 331.274 636.61 332.464 636.61C333.011 636.61 335.824 636.61 336.579 636.61C337.523 636.61 337.693 636.384 337.768 634.722C338.089 634.911 338.636 635.119 339.014 635.194C338.825 637.328 338.391 637.819 336.692 637.819C336.201 637.819 332.841 637.819 332.388 637.819C330.236 637.819 329.67 637.46 329.67 636.044V633.363ZM332.369 633.155L333.275 632.381C334.408 632.928 335.786 633.816 336.466 634.458L335.522 635.326C334.861 634.665 333.502 633.74 332.369 633.155ZM338.92 633.74L340.128 633.306C341.053 634.401 342.015 635.893 342.393 636.875L341.109 637.347C340.732 636.384 339.826 634.873 338.92 633.74ZM327.461 633.287L328.669 633.797C328.254 634.986 327.65 636.516 326.895 637.498L325.668 636.818C326.442 635.912 327.084 634.439 327.461 633.287ZM349.68 627.188L361.383 625.715L361.591 627.056L349.887 628.529L349.68 627.188ZM357.061 621.769L358.099 621.089C359.231 621.995 360.572 623.279 361.214 624.148L360.119 624.903C359.515 624.053 358.174 622.713 357.061 621.769ZM349.472 620.9L350.812 621.334C349.396 624.639 347.15 627.887 344.79 630.001C344.639 629.662 344.224 628.944 343.96 628.623C346.15 626.791 348.226 623.884 349.472 620.9ZM347.339 625.923L348.773 624.507V624.526V638.045H347.339V625.923ZM353.908 620.976H355.343C355.607 629.454 356.91 636.119 359.76 636.384C360.289 636.422 360.609 635.307 360.798 633.098C361.081 633.381 361.704 633.74 361.969 633.853C361.572 637.139 360.798 638.102 359.817 638.064C355.569 637.762 354.323 630.625 353.908 620.976ZM363.366 621.599H370.293V622.902H363.366V621.599ZM365.31 627.49H369.595V635.647H365.31V634.401H368.33V628.736H365.31V627.49ZM365.65 622.222L367.009 622.43C366.424 626.395 365.461 630.115 363.743 632.588C363.611 632.286 363.177 631.606 362.912 631.304C364.404 629.152 365.197 625.772 365.65 622.222ZM364.687 627.49H365.933V637.215H364.687V627.49ZM371.804 624.469H379.449V625.621H371.804V624.469ZM371.804 627.377H379.449V628.547H371.804V627.377ZM371.105 630.341H379.392V631.588H371.105V630.341ZM375.013 622.146H376.296V630.87H375.013V622.146ZM372.672 633.098L373.654 632.947C373.88 634.08 374.012 635.496 373.993 636.422L372.955 636.591C372.993 635.647 372.88 634.212 372.672 633.098ZM374.673 632.947L375.598 632.702C375.994 633.608 376.353 634.816 376.504 635.591L375.522 635.874C375.409 635.1 375.05 633.872 374.673 632.947ZM376.579 632.532L377.335 632.211C377.882 632.89 378.429 633.835 378.675 634.42L377.825 634.816C377.599 634.193 377.07 633.249 376.579 632.532ZM370.841 632.513L371.917 632.777C371.728 634.42 371.369 636.176 370.463 637.215L369.463 636.648C370.293 635.704 370.671 634.061 370.841 632.513ZM371.105 621.504H379.921V622.751H372.408V630.964H371.105V621.504ZM378.977 630.341H380.279C380.279 630.341 380.279 630.738 380.261 630.927C380.053 635.364 379.845 636.988 379.354 637.536C379.052 637.894 378.731 638.027 378.222 638.064C377.788 638.102 376.976 638.102 376.145 638.064C376.126 637.687 375.994 637.177 375.787 636.818C376.598 636.894 377.353 636.912 377.637 636.912C377.939 636.912 378.09 636.875 378.241 636.705C378.58 636.327 378.807 634.779 378.977 630.568V630.341Z" fill="#7C7C7C"/>
</g>
</g>
</g>
<path fill-rule="evenodd" clip-rule="evenodd" d="M242.19 48.2563C246.08 48.2563 249.232 45.0998 249.232 41.2059C249.232 37.3125 246.08 34.1558 242.19 34.1558C238.302 34.1558 235.148 37.3125 235.148 41.2059C235.148 45.0998 238.302 48.2563 242.19 48.2563Z" fill="#262C2D"/>
<path fill-rule="evenodd" clip-rule="evenodd" d="M242.189 45.6136C244.621 45.6136 246.59 43.6407 246.59 41.2073C246.59 38.7736 244.621 36.8008 242.189 36.8008C239.758 36.8008 237.789 38.7736 237.789 41.2073C237.789 43.6407 239.758 45.6136 242.189 45.6136Z" fill="#121515"/>
<path opacity="0.4" fill-rule="evenodd" clip-rule="evenodd" d="M242.19 40.3249C242.675 40.3249 243.07 39.9305 243.07 39.4437C243.07 38.9569 242.675 38.5625 242.19 38.5625C241.703 38.5625 241.309 38.9569 241.309 39.4437C241.309 39.9305 241.703 40.3249 242.19 40.3249Z" fill="#636F73"/>
<path fill-rule="evenodd" clip-rule="evenodd" d="M181.828 41.2066C181.828 39.5378 183.181 38.1851 184.85 38.1851H222.066C223.737 38.1851 225.089 39.5378 225.089 41.2066C225.089 42.8752 223.737 44.2279 222.066 44.2279H184.85C183.181 44.2279 181.828 42.8752 181.828 41.2066Z" fill="#262C2D"/>
</g>
</g>
<defs>
<filter id="filter0_d_3142_4268" x="19.9141" y="196.354" width="391.445" height="345.395" filterUnits="userSpaceOnUse" color-interpolation-filters="sRGB">
<feFlood flood-opacity="0" result="BackgroundImageFix"/>
<feColorMatrix in="SourceAlpha" type="matrix" values="0 0 0 0 0 0 0 0 0 0 0 0 0 0 0 0 0 0 127 0" result="hardAlpha"/>
<feOffset/>
<feGaussianBlur stdDeviation="4"/>
<feComposite in2="hardAlpha" operator="out"/>
<feColorMatrix type="matrix" values="0 0 0 0 0.372549 0 0 0 0 0.780392 0 0 0 0 0.72549 0 0 0 0.2 0"/>
<feBlend mode="normal" in2="BackgroundImageFix" result="effect1_dropShadow_3142_4268"/>
<feBlend mode="normal" in="SourceGraphic" in2="effect1_dropShadow_3142_4268" result="shape"/>
</filter>
<filter id="filter1_d_3142_4268" x="19.9141" y="542.534" width="391.445" height="166.011" filterUnits="userSpaceOnUse" color-interpolation-filters="sRGB">
<feFlood flood-opacity="0" result="BackgroundImageFix"/>
<feColorMatrix in="SourceAlpha" type="matrix" values="0 0 0 0 0 0 0 0 0 0 0 0 0 0 0 0 0 0 127 0" result="hardAlpha"/>
<feOffset/>
<feGaussianBlur stdDeviation="4"/>
<feComposite in2="hardAlpha" operator="out"/>
<feColorMatrix type="matrix" values="0 0 0 0 0.372549 0 0 0 0 0.780392 0 0 0 0 0.72549 0 0 0 0.2 0"/>
<feBlend mode="normal" in2="BackgroundImageFix" result="effect1_dropShadow_3142_4268"/>
<feBlend mode="normal" in="SourceGraphic" in2="effect1_dropShadow_3142_4268" result="shape"/>
</filter>
<clipPath id="clip0_3142_4268">
<rect width="433" height="691" fill="white"/>
</clipPath>
<clipPath id="clip1_3142_4268">
<rect x="11.1328" y="18.6763" width="409.004" height="862.441" rx="60" fill="white"/>
</clipPath>
<clipPath id="clip2_3142_4268">
<rect width="409.004" height="1344.85" fill="white" transform="translate(11.1328 18.6763)"/>
</clipPath>
</defs>
</svg>
