<svg width="72" height="72" viewBox="0 0 72 72" fill="none" xmlns="http://www.w3.org/2000/svg">
<path fill-rule="evenodd" clip-rule="evenodd" d="M33.2935 8.58869C38.2724 7.86709 42.8879 11.684 46.548 15.1243C49.8334 18.2125 50.3781 22.9872 52.7115 26.8406C55.4512 31.365 64.3014 35.2643 61.4362 39.7108C57.8225 45.3189 51.7898 42.8486 47 47.5C42.8802 51.5007 44.2178 55.7073 40.478 60.063C37.0559 64.0487 30.4387 63.9056 25.2719 62.9041C19.885 61.8599 14.406 59.1251 11.5493 54.4555C8.78496 49.937 10.5518 44.2211 10.6047 38.9293C10.6493 34.4811 9.61112 29.769 11.8351 25.912C13.9985 22.1599 18.9307 21.3618 22.3048 18.6379C26.2476 15.4549 28.2722 9.31644 33.2935 8.58869Z" fill="#3CC3DF"/>
<path fill-rule="evenodd" clip-rule="evenodd" d="M40.5853 21.502C41.3653 21.502 41.9994 22.136 41.9994 22.9159V25.5018H44.5856C44.8653 25.5018 45.1388 25.5847 45.3714 25.74C45.604 25.8954 45.7853 26.1162 45.8923 26.3746C45.9994 26.633 46.0274 26.9174 45.9728 27.1917C45.9182 27.466 45.7835 27.718 45.5857 27.9157L42.6654 30.8356C42.239 31.261 41.6616 31.5004 41.0593 31.5016H38.1191L31.0585 38.5612C30.7741 38.8262 30.398 38.9704 30.0094 38.9636C29.6207 38.9567 29.2499 38.7993 28.9751 38.5245C28.7002 38.2497 28.5428 37.8789 28.536 37.4903C28.5291 37.1018 28.6734 36.7257 28.9383 36.4413L35.9989 29.3817V26.4418C35.9989 25.8398 36.2389 25.2618 36.665 24.8339L39.5852 21.914C39.7161 21.7821 39.8719 21.6775 40.0436 21.6065C40.2153 21.5354 40.3994 21.4992 40.5853 21.5M18.9975 37.5013C18.9973 35.8704 19.3598 34.2599 20.0587 32.7864C20.7577 31.3129 21.7756 30.0132 23.0387 28.9814C24.3019 27.9497 25.7787 27.2117 27.3622 26.8209C28.9457 26.43 30.5964 26.3962 32.1946 26.7218C32.5825 26.7958 32.9839 26.7139 33.3118 26.4938C33.6396 26.2738 33.8675 25.9334 33.946 25.5464C34.0244 25.1595 33.9471 24.7572 33.7308 24.4269C33.5145 24.0965 33.1767 23.8648 32.7906 23.7819C29.8417 23.1824 26.7781 23.5489 24.0539 24.827C21.3296 26.105 19.0897 28.2267 17.666 30.8775C16.2424 33.5284 15.7107 36.5673 16.15 39.5439C16.5892 42.5206 17.9758 45.2765 20.1045 47.4033C22.2331 49.5301 24.9904 50.9146 27.9677 51.3516C30.945 51.7885 33.984 51.2548 36.6341 49.8293C39.2842 48.4039 41.4045 46.1627 42.6807 43.4378C43.957 40.713 44.3212 37.6495 43.7195 34.7014C43.6402 34.3116 43.4093 33.9692 43.0775 33.7496C42.7457 33.53 42.3403 33.4512 41.9504 33.5305C41.5605 33.6098 41.218 33.8407 40.9984 34.1724C40.7788 34.5042 40.7 34.9095 40.7793 35.2994C40.9246 36.01 40.998 36.744 40.9993 37.5013C40.9993 40.4185 39.8403 43.2163 37.7772 45.2791C35.7141 47.3419 32.916 48.5008 29.9984 48.5008C27.0808 48.5008 24.2827 47.3419 22.2196 45.2791C20.1566 43.2163 18.9975 40.4185 18.9975 37.5013ZM29.7264 32.5095C30.1237 32.4883 30.4963 32.3101 30.7623 32.0142C31.0282 31.7183 31.1657 31.3289 31.1445 30.9316C31.1233 30.5343 30.9451 30.1617 30.6491 29.8958C30.3532 29.6299 29.9637 29.4924 29.5664 29.5137C28.0301 29.5964 26.5503 30.1203 25.3042 31.0226C24.0582 31.9249 23.0987 33.1673 22.5408 34.6009C21.9829 36.0345 21.8503 37.5985 22.1587 39.1056C22.4672 40.6127 23.2037 41.9989 24.28 43.0981C25.3563 44.1973 26.7268 44.9629 28.2272 45.3032C29.7275 45.6434 31.2942 45.544 32.7395 45.0166C34.1848 44.4893 35.4474 43.5565 36.376 42.33C37.3045 41.1035 37.8597 39.6352 37.9751 38.1013C38.0045 37.7045 37.8751 37.3123 37.6153 37.011C37.3556 36.7096 36.9867 36.5238 36.5899 36.4943C36.1931 36.4649 35.8009 36.5943 35.4995 36.854C35.1981 37.1137 35.0123 37.4825 34.9828 37.8793C34.9099 38.8375 34.5623 39.7544 33.9816 40.5202C33.401 41.2861 32.6119 41.8683 31.7088 42.1974C30.8058 42.5264 29.8271 42.5882 28.8898 42.3755C27.9525 42.1627 27.0964 41.6843 26.424 40.9977C25.7516 40.311 25.2913 39.4452 25.0983 38.5037C24.9053 37.5623 24.9877 36.5852 25.3358 35.6894C25.6838 34.7936 26.2826 34.017 27.0606 33.4527C27.8386 32.8884 28.7627 32.5603 29.7224 32.5075" fill="#4A4040"/>
</svg>
