<svg width="744" height="328" viewBox="0 0 744 328" fill="none" xmlns="http://www.w3.org/2000/svg">
<path d="M84.708 68H70.7453C69.7814 68 69 68.7823 69 69.7474V86.056C69 87.021 69.7814 87.8033 70.7453 87.8033H84.708C85.672 87.8033 86.4534 87.021 86.4534 86.056V69.7474C86.4534 68.7823 85.672 68 84.708 68Z" fill="#00A19B"/>
<path d="M74.5037 74.354H75.5602L77.672 77.9134H77.7616L79.8735 74.354H80.93L78.1782 78.8365V81.9789H77.2555V78.8365L74.5037 74.354Z" fill="white"/>
<path d="M16.708 288H2.74534C1.78141 288 1 288.782 1 289.747V306.056C1 307.021 1.78141 307.803 2.74534 307.803H16.708C17.672 307.803 18.4534 307.021 18.4534 306.056V289.747C18.4534 288.782 17.672 288 16.708 288Z" fill="#00A19B"/>
<path d="M6.50366 294.354H7.56018L9.67204 297.913H9.76163L11.8735 294.354H12.93L10.1782 298.837V301.979H9.25549V298.837L6.50366 294.354Z" fill="white"/>
<path d="M302.708 0H288.745C287.781 0 287 0.782316 287 1.74735V18.056C287 19.021 287.781 19.8033 288.745 19.8033H302.708C303.672 19.8033 304.453 19.021 304.453 18.056V1.74735C304.453 0.782316 303.672 0 302.708 0Z" fill="#00A19B"/>
<path d="M292.504 6.354H293.56L295.672 9.91337H295.762L297.873 6.354H298.93L296.178 10.8365V13.9789H295.255V10.8365L292.504 6.354Z" fill="white"/>
<path d="M511.708 113H497.745C496.781 113 496 113.782 496 114.747V131.056C496 132.021 496.781 132.803 497.745 132.803H511.708C512.672 132.803 513.453 132.021 513.453 131.056V114.747C513.453 113.782 512.672 113 511.708 113Z" fill="#00A19B"/>
<path d="M501.504 119.354H502.56L504.672 122.913H504.762L506.873 119.354H507.93L505.178 123.837V126.979H504.255V123.837L501.504 119.354Z" fill="white"/>
<path d="M673.708 243H659.745C658.781 243 658 243.782 658 244.747V261.056C658 262.021 658.781 262.803 659.745 262.803H673.708C674.672 262.803 675.453 262.021 675.453 261.056V244.747C675.453 243.782 674.672 243 673.708 243Z" fill="#00A19B"/>
<path d="M663.504 249.354H664.56L666.672 252.913H666.762L668.873 249.354H669.93L667.178 253.837V256.979H666.255V253.837L663.504 249.354Z" fill="white"/>
<path d="M16.8716 140H1.74534C0.781415 140 0 140.782 0 141.747V158.056C0 159.021 0.781415 159.803 1.74534 159.803H16.8716C17.8355 159.803 18.6169 159.021 18.6169 158.056V141.747C18.6169 140.782 17.8355 140 16.8716 140Z" fill="#C34F32"/>
<path d="M12.1976 146.354V153.979H11.3052L7.15476 147.992H7.0803V153.979H6.1582V146.354H7.05065L11.2156 152.356H11.2901V146.354H12.1976Z" fill="white"/>
<path d="M156.872 175H141.745C140.781 175 140 175.782 140 176.747V193.056C140 194.021 140.781 194.803 141.745 194.803H156.872C157.836 194.803 158.617 194.021 158.617 193.056V176.747C158.617 175.782 157.836 175 156.872 175Z" fill="#C34F32"/>
<path d="M152.198 181.354V188.979H151.305L147.155 182.992H147.08V188.979H146.158V181.354H147.051L151.216 187.356H151.29V181.354H152.198Z" fill="white"/>
<path d="M222.872 68H207.745C206.781 68 206 68.7823 206 69.7474V86.056C206 87.021 206.781 87.8033 207.745 87.8033H222.872C223.836 87.8033 224.617 87.021 224.617 86.056V69.7474C224.617 68.7823 223.836 68 222.872 68Z" fill="#C34F32"/>
<path d="M218.198 74.354V81.9788H217.305L213.155 75.9921H213.08V81.9788H212.158V74.354H213.051L217.216 80.3556H217.29V74.354H218.198Z" fill="white"/>
<path d="M741.872 308H726.745C725.781 308 725 308.782 725 309.747V326.056C725 327.021 725.781 327.803 726.745 327.803H741.872C742.836 327.803 743.617 327.021 743.617 326.056V309.747C743.617 308.782 742.836 308 741.872 308Z" fill="#C34F32"/>
<path d="M737.198 314.354V321.979H736.305L732.155 315.992H732.08V321.979H731.158V314.354H732.051L736.216 320.356H736.29V314.354H737.198Z" fill="white"/>
</svg>
