<svg width="36" height="36" viewBox="0 0 36 36" fill="none" xmlns="http://www.w3.org/2000/svg">
<circle cx="18" cy="18" r="18" fill="white"/>
<path d="M20.08 25.5723L19.8962 26.7741C19.882 26.8589 19.9103 26.9508 19.9739 27.0145L21.819 28.9726C21.9887 29.1494 22.2856 29.0504 22.3139 28.8101L22.5047 27.3679C22.5189 27.276 22.4835 27.1841 22.4128 27.1205L20.5678 25.4027C20.391 25.2472 20.1083 25.3391 20.08 25.5723Z" fill="#FCF3F0"/>
<path d="M17.6141 28.676C15.4226 28.4992 13.7896 26.5693 13.9664 24.3779L14.4965 17.959L22.4424 18.6094L20.8023 27.4813C20.5408 28.6123 19.8126 28.8527 17.6141 28.676Z" fill="#FCC9A7"/>
<path d="M14.2286 20.207C14.2286 20.207 15.9394 25.0707 19.4104 24.4698C22.5986 23.9184 22.4431 18.6094 22.4431 18.6094L14.2286 20.207Z" fill="#F4BE9A"/>
<path d="M18.8582 22.7024L18.1513 22.6247C14.6308 22.2429 12.0788 19.0759 12.4605 15.5554L12.8918 11.5401C13.2735 8.01961 16.4405 5.4676 19.961 5.84934L20.6679 5.9271C24.1884 6.30884 26.7404 9.47587 26.3587 12.9964L25.9274 17.0117C25.5457 20.5392 22.3787 23.0842 18.8582 22.7024Z" fill="#FCC9A7"/>
<path d="M18.8582 22.7024L18.1513 22.6247C14.6308 22.2429 12.0788 19.0759 12.4605 15.5554L12.8918 11.5401C13.2735 8.01961 16.4405 5.4676 19.961 5.84934L20.6679 5.9271C24.1884 6.30884 26.7404 9.47587 26.3587 12.9964L25.9274 17.0117C25.5457 20.5392 22.3787 23.0842 18.8582 22.7024Z" fill="#FCC9A7"/>
<path d="M12.6023 14.2829C13.0831 14.2334 15.0978 15.7604 15.6209 15.0958C16.342 14.1768 16.9994 12.5014 16.0663 10.7624C15.9107 10.4726 15.8683 10.1332 15.9673 9.81511C16.1511 9.2425 16.646 8.57799 18.0103 9.0587C20.1947 9.82925 25.1078 12.3035 26.5288 8.76178C28.3243 4.30109 14.2 5.54528 14.2 5.54528L10.9835 10.1968L12.362 16.8278L12.6023 14.2829Z" fill="#1C2226"/>
<path d="M14.5678 14.9547C14.4335 16.213 13.3024 17.1249 12.0441 16.9836C10.7858 16.8492 9.87386 15.7182 10.0152 14.4598C10.1496 13.2015 11.2806 12.2896 12.539 12.431C13.7973 12.5723 14.7022 13.6964 14.5678 14.9547Z" fill="#FCC9A7"/>
<path d="M21.0215 28.1246L20.7458 27.7429L20.8165 27.4106H16.8436L16.5325 28.4498L19.1764 30.7827L21.0215 28.1246Z" fill="#048581"/>
<path d="M14.2202 24.0032L17.981 26.5623C18.4052 26.8522 18.4617 27.4601 18.0941 27.8207L15.1392 30.7261C14.8069 31.0513 14.2626 31.0372 13.9516 30.6837L10.9754 27.3399C10.6856 27.0147 10.6997 26.5128 11.0107 26.2089L13.1881 24.081C13.4638 23.8195 13.895 23.7841 14.2202 24.0032Z" fill="#FCF3F0"/>
<path d="M25.0712 10.3379C27.7717 9.1149 27.2061 5.96201 26.5911 4.96525C26.5911 4.96525 26.4709 6.73964 25.2621 6.32962C25.2621 6.32962 25.4247 3.68572 21.883 3C21.883 3 23.1908 5.37527 18.5322 4.92284C12.8131 4.36437 12.4809 7.98382 12.799 12.4799L14.5522 11.2215L15.9095 8.08987H20.5398L25.0712 10.3379Z" fill="#1C2226"/>
</svg>
