<svg width="43" height="71" viewBox="0 0 43 71" fill="none" xmlns="http://www.w3.org/2000/svg">
<g clip-path="url(#clip0_1765_5560)">
<path d="M25.3469 56.7628L24.8847 59.7849C24.8492 59.9983 24.9203 60.2294 25.0803 60.3894L29.7201 65.3136C30.1467 65.758 30.8933 65.5091 30.9644 64.9047L31.4444 61.2782C31.48 61.0471 31.3911 60.816 31.2133 60.656L26.5736 56.3362C26.1291 55.9451 25.418 56.1762 25.3469 56.7628Z" fill="#FCF3F0"/>
<path d="M19.1464 64.5671C13.6356 64.1227 9.52907 59.2695 9.97349 53.7587L11.3068 37.6172L31.2881 39.2527L27.1638 61.5628C26.5061 64.4071 24.6751 65.0115 19.1464 64.5671Z" fill="#FCC9A7"/>
<path d="M10.633 43.2715C10.633 43.2715 14.9351 55.502 23.6635 53.991C31.681 52.6044 31.2899 39.2539 31.2899 39.2539L10.633 43.2715Z" fill="#F4BE9A"/>
<path d="M22.275 49.5457L20.4973 49.3502C11.6444 48.3902 5.2269 40.4261 6.18685 31.5732L7.27125 21.4759C8.2312 12.623 16.1953 6.20545 25.0482 7.1654L26.8259 7.36095C35.6788 8.32091 42.0963 16.285 41.1364 25.1379L40.052 35.2353C39.092 44.106 31.1279 50.5056 22.275 49.5457Z" fill="#FCC9A7"/>
<path d="M22.275 49.5457L20.4973 49.3502C11.6444 48.3902 5.2269 40.4261 6.18685 31.5732L7.27125 21.4759C8.2312 12.623 16.1953 6.20545 25.0482 7.1654L26.8259 7.36095C35.6788 8.32091 42.0963 16.285 41.1364 25.1379L40.052 35.2353C39.092 44.106 31.1279 50.5056 22.275 49.5457Z" fill="#FCC9A7"/>
<path d="M6.54359 28.3735C7.75242 28.2491 12.8189 32.0889 14.1344 30.4179C15.9476 28.1069 17.6009 23.8937 15.2543 19.5206C14.8632 18.7918 14.7565 17.9385 15.0054 17.1385C15.4676 15.6986 16.712 14.0275 20.143 15.2364C25.636 17.174 37.991 23.396 41.5642 14.4897C46.0796 3.27243 10.5612 6.4012 10.5612 6.4012L2.47265 18.0984L5.93918 34.7732L6.54359 28.3735Z" fill="#1C2226"/>
<path d="M11.4853 30.0634C11.1476 33.2277 8.30324 35.5209 5.13894 35.1654C1.97464 34.8276 -0.318581 31.9833 0.0369582 28.819C0.374721 25.6547 3.21905 23.3615 6.38335 23.717C9.54765 24.0726 11.8231 26.8991 11.4853 30.0634Z" fill="#FCC9A7"/>
<path d="M27.7148 63.1803L27.0215 62.2203L27.1993 61.3848H17.2086L16.4265 63.998L23.0751 69.8644L27.7148 63.1803Z" fill="#048581"/>
<path d="M10.6111 52.8169L20.0684 59.2522C21.135 59.981 21.2773 61.5098 20.3529 62.4165L12.9221 69.7228C12.0866 70.5405 10.7177 70.505 9.93555 69.6161L2.45144 61.2076C1.72258 60.3899 1.75814 59.1277 2.54033 58.3633L8.01564 53.0124C8.70894 52.3547 9.79332 52.2658 10.6111 52.8169Z" fill="#FCF3F0"/>
<path d="M37.8982 18.4525C44.689 15.3771 43.2669 7.44855 41.7203 4.942C41.7203 4.942 41.4181 9.40403 38.3782 8.37297C38.3782 8.37297 38.7871 1.72437 29.8808 0C29.8808 0 33.1695 5.97306 21.4545 4.83534C7.07296 3.43096 6.23744 12.5328 7.0374 23.8389L11.4461 20.6746L14.8593 12.7994H26.5032L37.8982 18.4525Z" fill="#1C2226"/>
</g>
<defs>
<clipPath id="clip0_1765_5560">
<rect width="43.0033" height="70.3105" fill="white"/>
</clipPath>
</defs>
</svg>
