<svg width="582" height="497" viewBox="0 0 582 497" fill="none" xmlns="http://www.w3.org/2000/svg">
<g clip-path="url(#clip0_738_1253)">
<g filter="url(#filter0_f_738_1253)">
<ellipse cx="289" cy="493.5" rx="183" ry="3.5" fill="black" fill-opacity="0.5"/>
</g>
<path d="M32 0.5H550C567.397 0.5 581.5 14.603 581.5 32V339.465H0.5V32C0.5 14.603 14.603 0.5 32 0.5Z" fill="#EDEEF0" stroke="url(#paint0_linear_738_1253)"/>
<path d="M0 339.965H582V366.36C582 384.033 567.673 398.36 550 398.36H32C14.3269 398.36 0 384.033 0 366.36V339.965Z" fill="#D4D5D7"/>
<path d="M290.855 4.8363C291.778 4.83654 292.524 5.5835 292.524 6.50427C292.524 7.42512 291.778 8.172 290.855 8.17224C289.933 8.17224 289.186 7.42527 289.186 6.50427C289.186 5.58335 289.933 4.8363 290.855 4.8363Z" fill="#55575E" stroke="#3B3B3B"/>
<mask id="mask0_738_1253" style="mask-type:alpha" maskUnits="userSpaceOnUse" x="290" y="5" width="2" height="3">
<ellipse cx="290.855" cy="6.50445" rx="0.72316" ry="0.722714" fill="#494C51"/>
</mask>
<g mask="url(#mask0_738_1253)">
<ellipse cx="290.855" cy="6.50445" rx="0.72316" ry="0.722714" fill="#494C51"/>
<rect x="290.132" y="5.78174" width="0.289276" height="1.44543" fill="#617189"/>
<rect x="291.289" y="5.78174" width="0.289246" height="1.44543" fill="#617189"/>
<ellipse cx="290.855" cy="6.50443" rx="0.433899" ry="0.433628" fill="#7B6A77"/>
<ellipse cx="290.999" cy="6.35989" rx="0.289276" ry="0.289086" fill="white" fill-opacity="0.2"/>
</g>
<rect x="221.866" y="398.36" width="138.268" height="84.1239" fill="url(#paint1_linear_738_1253)"/>
<path d="M221.866 483.062H360.135V486.555C360.135 487.659 359.239 488.555 358.135 488.555H223.866C222.762 488.555 221.866 487.659 221.866 486.555V483.062Z" fill="#D5D6D8"/>
<path d="M221.866 483.062H240.379V488.555H223.866C222.762 488.555 221.866 487.659 221.866 486.555V483.062Z" fill="url(#paint2_linear_738_1253)"/>
<path d="M360.135 483.062H341.622V488.555H358.135C359.239 488.555 360.135 487.659 360.135 486.555V483.062Z" fill="url(#paint3_linear_738_1253)"/>
<path d="M340.465 488.555H357.821C357.821 489.353 357.174 490 356.375 490H341.91C341.112 490 340.465 489.353 340.465 488.555Z" fill="url(#paint4_linear_738_1253)"/>
<path d="M340.465 488.555H357.821C357.821 489.353 357.174 490 356.375 490H341.91C341.112 490 340.465 489.353 340.465 488.555Z" fill="url(#paint5_linear_738_1253)"/>
<rect x="221.866" y="482.484" width="138.268" height="0.289093" fill="#707173"/>
<rect x="221.866" y="482.773" width="138.268" height="0.289093" fill="#C7C8CA"/>
<rect x="221.866" y="483.062" width="138.268" height="0.289093" fill="#EBECEE"/>
<path d="M224.181 488.555H241.537C241.537 489.353 240.889 490 240.091 490H225.626C224.828 490 224.181 489.353 224.181 488.555Z" fill="url(#paint6_linear_738_1253)"/>
<rect x="12.3066" y="12.8761" width="557.388" height="314.212" rx="15" fill="black" stroke="black" stroke-width="2"/>
</g>
<defs>
<filter id="filter0_f_738_1253" x="96" y="480" width="386" height="27" filterUnits="userSpaceOnUse" color-interpolation-filters="sRGB">
<feFlood flood-opacity="0" result="BackgroundImageFix"/>
<feBlend mode="normal" in="SourceGraphic" in2="BackgroundImageFix" result="shape"/>
<feGaussianBlur stdDeviation="5" result="effect1_foregroundBlur_738_1253"/>
</filter>
<linearGradient id="paint0_linear_738_1253" x1="291" y1="0" x2="291" y2="339.965" gradientUnits="userSpaceOnUse">
<stop stop-color="white"/>
<stop offset="1" stop-color="white" stop-opacity="0"/>
</linearGradient>
<linearGradient id="paint1_linear_738_1253" x1="291" y1="398.36" x2="291" y2="482.484" gradientUnits="userSpaceOnUse">
<stop stop-color="#A4A5A7"/>
<stop offset="0.504809" stop-color="#C8C9CB"/>
<stop offset="0.931918" stop-color="#D0D1D3"/>
<stop offset="0.957961" stop-color="#E8E9EB"/>
<stop offset="1" stop-color="#727375"/>
</linearGradient>
<linearGradient id="paint2_linear_738_1253" x1="221.866" y1="485.519" x2="237.631" y2="485.519" gradientUnits="userSpaceOnUse">
<stop stop-color="#97989A"/>
<stop offset="0.0366972" stop-color="#707173"/>
<stop offset="0.110092" stop-color="#B9BABC"/>
<stop offset="0.380734" stop-color="#E7E8EA"/>
<stop offset="0.572521" stop-color="#D0D1D3"/>
<stop offset="1" stop-color="#D1D2D4" stop-opacity="0"/>
</linearGradient>
<linearGradient id="paint3_linear_738_1253" x1="360.135" y1="485.519" x2="344.37" y2="485.519" gradientUnits="userSpaceOnUse">
<stop stop-color="#97989A"/>
<stop offset="0.0366972" stop-color="#707173"/>
<stop offset="0.110092" stop-color="#B9BABC"/>
<stop offset="0.380734" stop-color="#E7E8EA"/>
<stop offset="0.572521" stop-color="#D0D1D3"/>
<stop offset="1" stop-color="#D1D2D4" stop-opacity="0"/>
</linearGradient>
<linearGradient id="paint4_linear_738_1253" x1="349.143" y1="488.555" x2="349.143" y2="490" gradientUnits="userSpaceOnUse">
<stop stop-color="#B39867"/>
<stop offset="0.171456" stop-color="#D8BD86"/>
<stop offset="0.364176" stop-color="#F3DDA6"/>
<stop offset="1" stop-color="#EFD8A1"/>
</linearGradient>
<linearGradient id="paint5_linear_738_1253" x1="349.143" y1="488.555" x2="349.143" y2="490" gradientUnits="userSpaceOnUse">
<stop stop-color="#707173"/>
<stop offset="0.171456" stop-color="#A0A1A3"/>
<stop offset="0.364176" stop-color="#D5D6D8"/>
<stop offset="1" stop-color="#D5D6D8"/>
</linearGradient>
<linearGradient id="paint6_linear_738_1253" x1="232.859" y1="488.555" x2="232.859" y2="490" gradientUnits="userSpaceOnUse">
<stop stop-color="#707173"/>
<stop offset="0.171456" stop-color="#A0A1A3"/>
<stop offset="0.364176" stop-color="#D5D6D8"/>
<stop offset="1" stop-color="#D5D6D8"/>
</linearGradient>
<clipPath id="clip0_738_1253">
<rect width="582" height="497" fill="white"/>
</clipPath>
</defs>
</svg>
