<svg width="46" height="68" viewBox="0 0 46 68" fill="none" xmlns="http://www.w3.org/2000/svg">
<path d="M26.7628 57.2629C25.1054 57.2498 23.3402 56.5788 22.0331 55.9209C20.7395 55.2763 19.931 53.9475 19.9445 52.5265L20.214 26.4238L31.8967 26.4765L31.6273 52.2503C31.6138 55.2105 29.4308 57.2761 26.7628 57.2629Z" fill="#FCC9A7"/>
<path d="M31.7078 45.0142L26.8837 38.3438C26.8837 38.3438 23.9327 45.9614 31.6808 48.3033L31.7078 45.0142Z" fill="#F2C09E"/>
<path d="M42.2303 26.5283C42.1898 34.3039 35.7084 40.5664 27.7447 40.527C19.7811 40.4875 13.367 34.1592 13.4074 26.3836C13.4478 18.608 19.9293 12.3455 27.8929 12.385C35.8431 12.4244 42.2572 18.7528 42.2303 26.5283Z" fill="#FCC9A7"/>
<path d="M32.7327 45.0933C28.9598 45.0801 25.901 42.0673 25.9279 38.3834L25.9683 28.7528L42.2191 26.5293L42.1787 35.9626C42.1517 41.0279 37.934 45.1196 32.7327 45.0933Z" fill="#FCC9A7"/>
<path d="M41.7853 29.6729L44.9115 34.2119C45.3562 34.9486 44.7768 35.8564 43.847 35.8564L40.1953 36.5143L41.7853 29.6729Z" fill="#FCC9A7"/>
<path d="M25.9829 32.6064L32.114 32.3959C32.114 32.3959 32.6395 27.199 33.8388 25.9491C35.0381 24.6992 35.6444 19.1472 35.6444 19.1472C35.6444 19.1472 32.7473 22.6074 31.8984 26.186L44.74 25.8702C44.74 25.8702 46.6535 10.6611 27.2092 9.92436C7.75138 9.18759 8.29036 27.1595 12.1172 30.725C15.1626 33.5668 20.0944 40.5398 20.0944 40.5398C20.0944 40.5398 19.8653 32.8169 25.9829 32.6064Z" fill="#4C1827"/>
<path d="M30.4282 30.7646C30.509 32.9881 28.7303 34.8432 26.4666 34.9221C24.1893 35.0011 22.2894 33.2644 22.195 31.0541C22.1142 28.8306 23.8928 26.9755 26.1566 26.8834C28.4339 26.8045 30.3339 28.5412 30.4282 30.7646Z" fill="#FCC9A7"/>
<path d="M18.5431 7.97725C19.1629 12.9636 15.5382 17.4895 10.4447 18.1078C5.33771 18.713 0.702325 15.1739 0.0690037 10.1876C-0.550842 5.20122 3.07389 0.67534 8.18089 0.0701359C13.2879 -0.548225 17.9233 2.9909 18.5431 7.97725Z" fill="#4C1827"/>
<path d="M21.1625 48.5462L31.5013 54.8246C32.7149 55.4102 33.3365 57.1693 32.5103 58.2201L26.0405 65.3421C25.2936 66.2902 23.8681 66.4503 22.9261 65.6619L13.9271 58.2154C13.0509 57.4913 12.9027 56.2076 13.6021 55.3212L18.4982 49.1161C19.1211 48.3504 20.2332 48.105 21.1625 48.5462Z" fill="#F3C7BD"/>
</svg>
