<svg width="36" height="36" viewBox="0 0 36 36" fill="none" xmlns="http://www.w3.org/2000/svg">
<circle cx="18" cy="18" r="18" fill="white"/>
<path d="M18.2051 32.9376C17.3873 32.9309 16.5164 32.5918 15.8714 32.2594C15.2332 31.9336 14.8343 31.2621 14.8409 30.544L14.9739 17.353L20.7383 17.3796L20.6053 30.4044C20.5987 31.9004 19.5216 32.9442 18.2051 32.9376Z" fill="#FCC9A7"/>
<path d="M20.6446 26.7478L18.2644 23.377C18.2644 23.377 16.8083 27.2266 20.6313 28.41L20.6446 26.7478Z" fill="#F2C09E"/>
<path d="M25.8369 17.4062C25.8169 21.3356 22.6189 24.5004 18.6895 24.4804C14.7602 24.4605 11.5954 21.2625 11.6153 17.3331C11.6353 13.4037 14.8333 10.2389 18.7627 10.2589C22.6854 10.2788 25.8502 13.4769 25.8369 17.4062Z" fill="#FCC9A7"/>
<path d="M21.1506 26.7876C19.289 26.7809 17.7798 25.2584 17.7931 23.3967L17.813 18.5299L25.8313 17.4062L25.8114 22.1734C25.7981 24.7331 23.717 26.8009 21.1506 26.7876Z" fill="#FCC9A7"/>
<path d="M25.6175 18.9951L27.1601 21.2889C27.3795 21.6612 27.0936 22.12 26.6348 22.12L24.833 22.4524L25.6175 18.9951Z" fill="#FCC9A7"/>
<path d="M17.8203 20.4774L20.8454 20.371C20.8454 20.371 21.1047 17.7448 21.6964 17.1131C22.2882 16.4815 22.5874 13.6758 22.5874 13.6758C22.5874 13.6758 21.1579 15.4244 20.739 17.2328L27.0752 17.0732C27.0752 17.0732 28.0194 9.38736 18.4253 9.01503C8.82459 8.64271 9.09053 17.7248 10.9788 19.5266C12.4814 20.9627 14.9148 24.4866 14.9148 24.4866C14.9148 24.4866 14.8018 20.5838 17.8203 20.4774Z" fill="#4C1827"/>
<path d="M20.0138 19.5466C20.0537 20.6703 19.1761 21.6077 18.0591 21.6476C16.9355 21.6875 15.998 20.8099 15.9515 19.6929C15.9116 18.5693 16.7892 17.6318 17.9062 17.5853C19.0298 17.5454 19.9673 18.423 20.0138 19.5466Z" fill="#FCC9A7"/>
<path d="M14.1494 8.0313C14.4552 10.5512 12.6668 12.8383 10.1535 13.1508C7.63369 13.4566 5.34654 11.6681 5.03405 9.14829C4.72821 6.62844 6.5167 4.34128 9.03655 4.03544C11.5564 3.72295 13.8436 5.51145 14.1494 8.0313Z" fill="#4C1827"/>
</svg>
