<svg width="354" height="578" viewBox="0 0 354 578" fill="none" xmlns="http://www.w3.org/2000/svg">
<g clip-path="url(#clip0_3158_5725)">
<path d="M96.186 445.512C89.718 445.512 84.258 444.294 79.806 441.858C75.354 439.422 71.784 436.188 69.096 432.156C66.408 428.124 64.434 423.588 63.174 418.548C61.998 413.508 61.41 408.384 61.41 403.176C61.41 393.432 62.754 384.906 65.442 377.598C68.214 370.29 72.162 364.578 77.286 360.462C82.494 356.346 88.71 354.288 95.934 354.288C101.646 354.288 106.518 355.422 110.55 357.69C114.666 359.958 117.858 362.94 120.126 366.636C122.478 370.332 123.906 374.448 124.41 378.984H112.692C111.936 374.532 110.046 371.088 107.022 368.652C104.082 366.216 100.302 364.998 95.682 364.998C91.65 364.998 87.996 366.3 84.72 368.904C81.444 371.424 78.798 375.288 76.782 380.496C74.85 385.704 73.758 392.34 73.506 400.404C73.506 400.488 73.506 400.572 73.506 400.656C73.506 400.74 73.506 400.866 73.506 401.034C74.85 398.514 76.698 396.246 79.05 394.23C81.486 392.13 84.3 390.492 87.492 389.316C90.684 388.056 94.212 387.426 98.076 387.426C103.032 387.426 107.694 388.602 112.062 390.954C116.43 393.222 119.958 396.498 122.646 400.782C125.418 405.066 126.804 410.064 126.804 415.776C126.804 420.9 125.544 425.73 123.024 430.266C120.588 434.802 117.06 438.498 112.44 441.354C107.82 444.126 102.402 445.512 96.186 445.512ZM95.304 434.55C99 434.55 102.276 433.752 105.132 432.156C107.988 430.56 110.214 428.418 111.81 425.73C113.49 422.958 114.33 419.808 114.33 416.28C114.33 412.668 113.49 409.518 111.81 406.83C110.214 404.058 107.946 401.916 105.006 400.404C102.15 398.892 98.916 398.136 95.304 398.136C91.692 398.136 88.416 398.976 85.476 400.656C82.62 402.336 80.352 404.562 78.672 407.334C76.992 410.022 76.152 413.046 76.152 416.406C76.152 419.85 76.992 422.958 78.672 425.73C80.352 428.418 82.62 430.56 85.476 432.156C88.416 433.752 91.692 434.55 95.304 434.55ZM162.727 445.512C156.847 445.512 151.555 444.462 146.851 442.362C142.231 440.178 138.535 437.154 135.763 433.29C132.991 429.426 131.605 424.932 131.605 419.808C131.605 416.196 132.277 412.878 133.621 409.854C135.049 406.746 136.981 404.058 139.417 401.79C141.937 399.522 144.835 397.884 148.111 396.876C143.659 395.112 140.173 392.508 137.653 389.064C135.133 385.62 133.873 381.84 133.873 377.724C133.873 373.44 135.007 369.534 137.275 366.006C139.543 362.478 142.819 359.664 147.103 357.564C151.387 355.38 156.595 354.288 162.727 354.288C168.859 354.288 174.067 355.38 178.351 357.564C182.719 359.664 185.995 362.478 188.179 366.006C190.447 369.534 191.581 373.44 191.581 377.724C191.581 381.84 190.321 385.662 187.801 389.19C185.281 392.634 181.795 395.196 177.343 396.876C180.703 397.884 183.601 399.522 186.037 401.79C188.473 404.058 190.363 406.746 191.707 409.854C193.135 412.878 193.849 416.196 193.849 419.808C193.849 424.932 192.463 429.426 189.691 433.29C187.003 437.154 183.307 440.178 178.603 442.362C173.899 444.462 168.607 445.512 162.727 445.512ZM162.727 434.676C169.027 434.676 173.689 433.248 176.713 430.392C179.821 427.452 181.375 423.63 181.375 418.926C181.375 413.634 179.695 409.602 176.335 406.83C172.975 404.058 168.439 402.672 162.727 402.672C157.015 402.672 152.479 404.058 149.119 406.83C145.759 409.602 144.079 413.634 144.079 418.926C144.079 423.63 145.633 427.452 148.741 430.392C151.849 433.248 156.511 434.676 162.727 434.676ZM162.727 392.718C167.767 392.718 171.715 391.416 174.571 388.812C177.511 386.208 178.981 382.89 178.981 378.858C178.981 374.238 177.511 370.752 174.571 368.4C171.715 366.048 167.809 364.872 162.853 364.872C157.813 364.872 153.823 366.048 150.883 368.4C148.027 370.752 146.599 374.238 146.599 378.858C146.599 382.89 148.027 386.208 150.883 388.812C153.739 391.416 157.687 392.718 162.727 392.718ZM214.57 444L265.348 355.8H277.822L227.044 444H214.57ZM271.9 445.512C267.952 445.512 264.424 444.63 261.316 442.866C258.208 441.102 255.73 438.624 253.882 435.432C252.034 432.156 251.11 428.334 251.11 423.966C251.11 419.43 252.034 415.566 253.882 412.374C255.73 409.182 258.208 406.704 261.316 404.94C264.424 403.176 267.91 402.294 271.774 402.294C275.806 402.294 279.334 403.176 282.358 404.94C285.466 406.704 287.902 409.182 289.666 412.374C291.514 415.566 292.438 419.43 292.438 423.966C292.438 428.334 291.514 432.156 289.666 435.432C287.902 438.624 285.466 441.102 282.358 442.866C279.25 444.63 275.764 445.512 271.9 445.512ZM271.648 436.188C273.58 436.188 275.302 435.726 276.814 434.802C278.41 433.878 279.67 432.534 280.594 430.77C281.602 428.922 282.106 426.612 282.106 423.84C282.106 421.068 281.644 418.8 280.72 417.036C279.796 415.188 278.536 413.802 276.94 412.878C275.428 411.954 273.706 411.492 271.774 411.492C270.01 411.492 268.33 411.954 266.734 412.878C265.138 413.802 263.836 415.188 262.828 417.036C261.904 418.8 261.442 421.068 261.442 423.84C261.442 426.612 261.904 428.922 262.828 430.77C263.836 432.534 265.096 433.878 266.608 434.802C268.204 435.726 269.884 436.188 271.648 436.188ZM221.374 397.632C217.426 397.632 213.898 396.75 210.79 394.986C207.682 393.222 205.204 390.744 203.356 387.552C201.508 384.276 200.584 380.412 200.584 375.96C200.584 371.508 201.508 367.686 203.356 364.494C205.204 361.302 207.682 358.824 210.79 357.06C213.982 355.296 217.51 354.414 221.374 354.414C225.322 354.414 228.808 355.296 231.832 357.06C234.94 358.824 237.418 361.302 239.266 364.494C241.114 367.686 242.038 371.508 242.038 375.96C242.038 380.412 241.114 384.276 239.266 387.552C237.418 390.744 234.94 393.222 231.832 394.986C228.724 396.75 225.238 397.632 221.374 397.632ZM221.248 388.308C223.18 388.308 224.902 387.846 226.414 386.922C228.01 385.998 229.27 384.654 230.194 382.89C231.118 381.042 231.58 378.732 231.58 375.96C231.58 373.188 231.118 370.878 230.194 369.03C229.27 367.182 228.01 365.796 226.414 364.872C224.902 363.948 223.222 363.486 221.374 363.486C219.526 363.486 217.804 363.948 216.208 364.872C214.612 365.796 213.31 367.182 212.302 369.03C211.378 370.878 210.916 373.188 210.916 375.96C210.916 378.648 211.378 380.916 212.302 382.764C213.31 384.612 214.612 385.998 216.208 386.922C217.804 387.846 219.484 388.308 221.248 388.308Z" fill="#306032"/>
<path d="M97.8814 519V485.4H102.681V519H97.8814ZM76.5214 519V485.4H81.3214V519H76.5214ZM80.5054 503.832V499.896H98.9374V503.832H80.5054ZM105.934 519V485.4H117.31C119.966 485.4 122.142 485.848 123.838 486.744C125.534 487.64 126.782 488.84 127.582 490.344C128.414 491.816 128.83 493.496 128.83 495.384C128.83 497.176 128.414 498.84 127.582 500.376C126.782 501.88 125.518 503.096 123.79 504.024C122.062 504.92 119.854 505.368 117.166 505.368H110.734V519H105.934ZM123.598 519L116.35 504.072H121.63L129.166 519H123.598ZM110.734 501.72H116.974C119.374 501.72 121.118 501.144 122.206 499.992C123.326 498.808 123.886 497.304 123.886 495.48C123.886 493.624 123.342 492.152 122.254 491.064C121.166 489.976 119.406 489.432 116.974 489.432H110.734V501.72ZM139.541 519V485.4H151.061C153.717 485.4 155.909 485.848 157.637 486.744C159.365 487.608 160.645 488.792 161.477 490.296C162.309 491.8 162.725 493.496 162.725 495.384C162.725 497.208 162.309 498.872 161.477 500.376C160.677 501.88 159.413 503.096 157.685 504.024C155.989 504.92 153.781 505.368 151.061 505.368H144.341V519H139.541ZM144.341 501.384H150.869C153.365 501.384 155.141 500.84 156.197 499.752C157.285 498.664 157.829 497.208 157.829 495.384C157.829 493.464 157.285 491.992 156.197 490.968C155.141 489.912 153.365 489.384 150.869 489.384H144.341V501.384ZM171.244 519.576C169.356 519.576 167.772 519.256 166.492 518.616C165.244 517.944 164.316 517.048 163.708 515.928C163.1 514.808 162.796 513.592 162.796 512.28C162.796 510.712 163.196 509.368 163.996 508.248C164.828 507.128 166.012 506.264 167.548 505.656C169.116 505.048 170.988 504.744 173.164 504.744H179.452C179.452 503.304 179.228 502.12 178.78 501.192C178.364 500.232 177.74 499.528 176.908 499.08C176.076 498.6 175.068 498.36 173.884 498.36C172.412 498.36 171.132 498.728 170.044 499.464C168.988 500.168 168.348 501.288 168.124 502.824H163.324C163.516 501.064 164.076 499.592 165.004 498.408C165.964 497.192 167.212 496.264 168.748 495.624C170.284 494.952 171.996 494.616 173.884 494.616C176.156 494.616 178.06 495.016 179.596 495.816C181.164 496.616 182.332 497.752 183.1 499.224C183.868 500.664 184.252 502.376 184.252 504.36V519H180.268L179.788 515.016H179.596C179.148 515.784 178.62 516.456 178.012 517.032C177.404 517.576 176.748 518.04 176.044 518.424C175.372 518.808 174.62 519.096 173.788 519.288C172.988 519.48 172.14 519.576 171.244 519.576ZM172.396 515.688C173.516 515.688 174.492 515.48 175.324 515.064C176.188 514.648 176.908 514.088 177.484 513.384C178.092 512.648 178.54 511.832 178.828 510.936C179.148 510.04 179.324 509.112 179.356 508.152H173.644C172.236 508.152 171.1 508.312 170.236 508.632C169.404 508.952 168.796 509.4 168.412 509.976C168.028 510.552 167.836 511.224 167.836 511.992C167.836 512.728 168.012 513.384 168.364 513.96C168.748 514.504 169.276 514.936 169.948 515.256C170.652 515.544 171.468 515.688 172.396 515.688ZM186.783 519V495.192H190.959L191.391 500.376H191.583C192.351 498.68 193.119 497.432 193.887 496.632C194.687 495.8 195.599 495.256 196.623 495C197.679 494.744 198.927 494.616 200.367 494.616V499.656H199.119C197.871 499.656 196.767 499.816 195.807 500.136C194.879 500.424 194.095 500.872 193.455 501.48C192.847 502.088 192.383 502.872 192.063 503.832C191.743 504.76 191.583 505.864 191.583 507.144V519H186.783ZM211.365 519C209.861 519 208.533 518.76 207.381 518.28C206.261 517.8 205.397 517 204.789 515.88C204.213 514.76 203.925 513.24 203.925 511.32V498.792H199.797V495.192H203.925L204.453 489.24H208.725V495.192H215.493V498.792H208.725V511.368C208.725 512.872 208.997 513.88 209.541 514.392C210.117 514.904 211.109 515.16 212.517 515.16H215.205V519H211.365ZM216.593 519V495.192H220.769L221.201 498.984H221.393C222.193 497.64 223.265 496.584 224.609 495.816C225.953 495.016 227.585 494.616 229.505 494.616C231.361 494.616 232.977 495.016 234.353 495.816C235.729 496.584 236.785 497.752 237.521 499.32C238.289 500.888 238.673 502.872 238.673 505.272V519H233.873V505.752C233.873 503.448 233.377 501.704 232.385 500.52C231.425 499.304 229.985 498.696 228.065 498.696C226.785 498.696 225.633 499.016 224.609 499.656C223.617 500.264 222.833 501.16 222.257 502.344C221.681 503.528 221.393 504.968 221.393 506.664V519H216.593ZM252.456 519.576C250.12 519.576 248.056 519.064 246.264 518.04C244.472 516.984 243.064 515.528 242.04 513.672C241.016 511.816 240.504 509.64 240.504 507.144C240.504 504.648 241 502.472 241.992 500.616C243.016 498.728 244.424 497.256 246.216 496.2C248.04 495.144 250.136 494.616 252.504 494.616C254.872 494.616 256.904 495.144 258.6 496.2C260.296 497.224 261.608 498.584 262.536 500.28C263.496 501.976 263.976 503.864 263.976 505.944C263.976 506.264 263.976 506.616 263.976 507C263.976 507.384 263.944 507.784 263.88 508.2H244.008V504.84H259.176C259.08 502.792 258.408 501.208 257.16 500.088C255.912 498.936 254.344 498.36 252.456 498.36C251.176 498.36 249.976 498.648 248.856 499.224C247.768 499.8 246.888 500.664 246.216 501.816C245.544 502.968 245.208 504.424 245.208 506.184V507.528C245.208 509.288 245.544 510.776 246.216 511.992C246.888 513.176 247.768 514.072 248.856 514.68C249.976 515.288 251.16 515.592 252.408 515.592C253.944 515.592 255.208 515.256 256.2 514.584C257.224 513.88 257.976 512.936 258.456 511.752H263.304C262.856 513.256 262.136 514.6 261.144 515.784C260.152 516.936 258.92 517.864 257.448 518.568C256.008 519.24 254.344 519.576 252.456 519.576ZM265.809 519V495.192H269.985L270.417 500.376H270.609C271.377 498.68 272.145 497.432 272.913 496.632C273.713 495.8 274.625 495.256 275.649 495C276.705 494.744 277.953 494.616 279.393 494.616V499.656H278.145C276.897 499.656 275.793 499.816 274.833 500.136C273.905 500.424 273.121 500.872 272.481 501.48C271.873 502.088 271.409 502.872 271.089 503.832C270.769 504.76 270.609 505.864 270.609 507.144V519H265.809Z" fill="#306032"/>
<path d="M74.9941 257.073L78.1694 275.849L87.3748 276.747L84.185 255.778L74.9941 257.073Z" fill="#FCC9A7"/>
<path d="M76.9021 274.554C77.0915 273.892 77.776 273.642 78.2713 274.039C79.218 274.834 80.9222 275.79 83.3546 275.452C85.889 275.114 86.7921 273.554 87.1271 272.465C87.3019 271.891 87.8408 271.582 88.3215 271.803L105.552 279.101C106.514 279.543 107.271 280.411 107.665 281.5C108.043 282.53 107.388 283.663 106.426 283.678L78.1984 283.854C77.1497 283.854 76.3049 282.854 76.3632 281.632L76.6108 275.687C76.6108 275.584 76.6253 275.496 76.6545 275.393L76.9021 274.554Z" fill="#1F252A"/>
<path d="M37.7813 170.683H34.0234V281.383H37.7813V170.683Z" fill="#2A272D"/>
<path d="M29.6367 147.918L56.5538 197.861L73.581 267.241H89.035L78.0089 190.135L29.6367 147.918Z" fill="#037874"/>
<path d="M51.8505 169.048H18.2042C13.383 169.048 9.46484 165.105 9.46484 160.22C9.46484 155.349 13.3684 151.391 18.2042 151.391H51.8505C56.6717 151.391 60.5898 155.349 60.5898 160.22C60.5898 165.105 56.6717 169.048 51.8505 169.048Z" fill="#FFEEE3"/>
<path d="M52.0513 169.049H19.7158V172.316H52.0513V169.049Z" fill="#2A272D"/>
<path d="M52.0513 254.513H19.7158V257.78H52.0513V254.513Z" fill="#2A272D"/>
<path d="M34.1515 57.4665C27.6699 56.6718 21.5232 60.6302 19.0471 66.7221C16.9496 71.8576 15.2018 79.3033 17.0661 87.9409C22.7467 114.384 19.3529 132.674 19.3529 132.674H50.1299L50.0134 96.6668C50.0134 96.6668 52.14 92.4731 53.2907 86.9845C54.9074 79.3033 54.2957 78.3027 49.8532 71.5044L40.4002 59.8503C40.4147 59.8503 38.3027 57.9668 34.1515 57.4665Z" fill="#F7ECE7"/>
<path d="M90.1267 82.9825C92.1804 78.8329 97.1618 77.1554 101.269 79.2302C105.377 81.305 107.037 86.3375 104.984 90.487C102.93 94.6366 97.9484 96.3141 93.8409 94.2393C89.7334 92.1792 88.0729 87.132 90.1267 82.9825Z" fill="#FCC9A7"/>
<path d="M91.9471 80.554L76.3037 95.5631L82.2464 102.244L94.4378 91.6931L91.9471 80.554Z" fill="#FCC9A7"/>
<path d="M23.6065 80.7597L51.9073 124.213C52.9997 125.875 55.2428 126.273 56.8304 125.066L90.9866 97.9614L84.068 85.9688L57.6461 106.364L39.177 71.8572C36.7154 66.6776 30.1755 65.1031 25.6602 68.5758C21.9023 71.4599 21.0138 76.7867 23.6065 80.7597Z" fill="#F7ECE7"/>
<path d="M35.928 64.0427C34.1364 64.028 32.2283 63.2775 30.8154 62.5417C29.4171 61.8207 28.5432 60.3345 28.5578 58.7453L28.8491 29.551L41.4774 29.6099L41.1861 58.4363C41.1716 61.7472 38.8119 64.0574 35.928 64.0427Z" fill="#FCC9A7"/>
<path d="M41.2757 50.3442L36.0612 42.8838C36.0612 42.8838 32.8713 51.4037 41.2465 54.023L41.2757 50.3442Z" fill="#F2C09E"/>
<path d="M52.6491 29.67C52.6054 38.3665 45.5993 45.3708 36.9911 45.3266C28.3829 45.2825 21.4497 38.2047 21.4934 29.5082C21.5371 20.8117 28.5431 13.8074 37.1513 13.8515C45.745 13.8957 52.6782 20.9735 52.6491 29.67Z" fill="#FCC9A7"/>
<path d="M42.3821 50.4321C38.3038 50.4174 34.9974 47.0477 35.0266 42.9275L35.0703 32.1562L52.6363 29.6694L52.5926 40.22C52.5635 45.8852 48.0044 50.4616 42.3821 50.4321Z" fill="#FCC9A7"/>
<path d="M52.1699 33.1855L55.5491 38.2621C56.0298 39.0862 55.4034 40.1015 54.3984 40.1015L50.4512 40.8372L52.1699 33.1855Z" fill="#FCC9A7"/>
<path d="M35.0851 36.4675L41.7124 36.2321C41.7124 36.2321 42.2804 30.4197 43.5767 29.0218C44.8731 27.6239 45.5285 21.4142 45.5285 21.4142C45.5285 21.4142 42.3969 25.2842 41.4793 29.2867L55.3603 28.9335C55.3603 28.9335 57.4286 11.9231 36.4105 11.0991C15.3779 10.2751 15.9605 30.3756 20.0971 34.3633C23.3889 37.5417 28.7199 45.3406 28.7199 45.3406C28.7199 45.3406 28.4723 36.703 35.0851 36.4675Z" fill="#4C1827"/>
<path d="M39.8916 34.408C39.979 36.8948 38.0564 38.9696 35.6094 39.0579C33.1478 39.1462 31.0941 37.2038 30.9921 34.7317C30.9047 32.2449 32.8273 30.1701 35.2743 30.0671C37.7359 29.9788 39.7897 31.9211 39.8916 34.408Z" fill="#FCC9A7"/>
<path d="M27.0439 8.92207C27.7139 14.499 23.7958 19.5609 18.2901 20.2525C12.7697 20.9294 7.75917 16.9711 7.07459 11.3942C6.40457 5.81724 10.3227 0.755327 15.843 0.0784428C21.3634 -0.613156 26.3739 3.34513 27.0439 8.92207Z" fill="#4C1827"/>
<path d="M29.0557 60.762C29.0557 60.762 30.2646 64.5732 47.1315 68.1194L39.2952 57.3481L29.0557 60.762Z" fill="#FCC9A7"/>
<path d="M35.8997 275.791L13.2939 283.604H58.4763L35.8997 275.791Z" fill="#2A272D"/>
<path d="M37.6034 228.983L25.2373 244.007L34.1223 247.421L46.5321 231.514L37.6034 228.983Z" fill="#FCC9A7"/>
<path d="M25.6614 241.961C26.0983 241.446 26.8266 241.475 27.1179 242.049C27.6714 243.167 28.8366 244.727 31.2108 245.404C33.6724 246.11 36.367 243.933 37.0953 243.064C37.474 242.608 38.1003 242.535 38.4499 242.947L53.5835 253.674C54.2826 254.468 54.6322 255.572 54.5739 256.735C54.5156 257.823 53.4669 258.603 52.5784 258.221L22.6317 250.569C21.6704 250.142 21.2917 248.877 21.8306 247.788L24.9476 242.873C24.9913 242.785 25.0496 242.697 25.1079 242.623L25.6614 241.961Z" fill="#1F252A"/>
<path d="M18.4652 132.674C18.4652 132.674 9.20146 153.981 42.1196 165.326L64.8709 186.677L29.6515 234.324L45.3968 240.078L88.1612 194.108C91.322 190.386 91.453 184.676 88.4671 180.791L50.1452 132.659H18.4652V132.674Z" fill="#01928E"/>
<path d="M197.592 113.854H85.1318V120.181H197.592V113.854Z" fill="#FFEEE3"/>
<path d="M112.791 283.633V120.181" stroke="#2A272D" stroke-width="2.2811" stroke-miterlimit="10"/>
<path d="M169.028 283.633V120.181" stroke="#2A272D" stroke-width="2.2811" stroke-miterlimit="10"/>
<path d="M155.746 110.41H108.962V113.471H155.746V110.41Z" fill="#2A272D"/>
<path d="M155.744 113.486L170.893 68.8118L167.717 68.0466L152.875 110.955L155.744 113.486Z" fill="#2A272D"/>
<path d="M115.8 146.257L97.6611 118.397" stroke="#E4B9B0" stroke-width="0.7847" stroke-miterlimit="10" stroke-linecap="round" stroke-linejoin="round"/>
<path d="M116.898 124.399L109.975 113.34" stroke="#E4B9B0" stroke-width="0.7847" stroke-miterlimit="10" stroke-linecap="round" stroke-linejoin="round"/>
<path d="M283.341 10.4438C283.341 10.4438 287.588 10.7822 287.953 16.7175C288.319 22.6529 288.349 39.8747 280.373 40.9357C272.398 41.9967 278.136 12.6427 278.136 12.6427L283.341 10.4438Z" fill="#1C2226"/>
<path d="M255.641 15.7637C255.641 15.7637 252.414 24.8513 258.853 26.512C265.306 28.1726 264.104 14.9949 264.104 14.9949L255.641 15.7637Z" fill="#1C2226"/>
<path d="M292.322 72.8404L312.276 101.256L311.165 98.5963L320.373 140.298L330.632 138.36L324.285 96.1206C324.148 95.198 323.798 94.3677 323.311 93.6604L323.174 93.4605L303.22 65.0444L292.322 72.8404Z" fill="#FCC9A7"/>
<path d="M328.016 153.092C333.267 151.508 336.235 145.911 334.667 140.621C333.099 135.317 327.559 132.318 322.323 133.902C317.072 135.486 314.104 141.083 315.672 146.372C317.24 151.662 322.765 154.676 328.016 153.092Z" fill="#FCC9A7"/>
<path d="M249.127 71.8716L236.509 110.836L243.282 106.192L202.186 105.07L201.532 115.603L242.445 119.678C245.489 119.985 248.229 118.078 249.142 115.264L249.218 115.034L261.836 76.0694L249.127 71.8716Z" fill="#FCC9A7"/>
<path d="M251.363 271.17L245.184 288.376L236.143 280.165L241.911 266.372L251.363 271.17Z" fill="#FCC9A7"/>
<path d="M248.763 284.393C248.763 283.547 248.047 282.994 247.332 283.301C245.932 283.901 243.603 284.424 240.848 283.178C237.971 281.871 237.439 279.734 237.439 278.319C237.439 277.581 236.921 277.028 236.251 277.12L215.201 280.18C213.923 280.364 212.72 281.118 211.868 282.271C211.061 283.347 211.442 284.931 212.568 285.27L243.999 294.926C245.232 295.31 246.571 294.403 246.936 292.958L248.717 285.854C248.747 285.731 248.763 285.608 248.763 285.5V284.393Z" fill="#1F252A"/>
<path d="M333.556 259.483L340.405 273.03L332.43 279.919L323.815 263.666L333.556 259.483Z" fill="#FCC9A7"/>
<path d="M341.837 270.046C341.197 269.508 340.315 269.693 340.086 270.446C339.63 271.922 338.534 274.044 335.794 275.367C332.948 276.735 330.984 275.751 329.919 274.844C329.356 274.367 328.595 274.413 328.245 274.982L316.921 293.173C316.236 294.28 316.023 295.679 316.342 297.078C316.631 298.401 318.062 299.124 319.067 298.478L346.707 280.518C347.788 279.81 347.986 278.196 347.133 276.981L342.917 271.015C342.841 270.923 342.765 270.831 342.674 270.754L341.837 270.046Z" fill="#1F252A"/>
<path d="M258.351 132.411L285.383 208.171L323.648 272.23L340.71 263.712L306.692 199.853L288.031 135.978L258.351 132.411Z" fill="#C49D6A"/>
<path d="M300.116 133.533C300.116 133.533 305.231 143.298 297.285 158.905L272.613 206.465L253.815 278.55L235.14 271.969L253.009 199.069L272.324 142.19L258.336 132.426L300.116 133.533Z" fill="#D1A872"/>
<path d="M276.845 49.3618L297.895 53.7288C300.376 54.2363 302.568 55.6816 304.044 57.7575L317.438 76.6092L299.539 88.4338L305.993 140.053C305.993 140.053 298.702 162.595 254.227 144.62C254.227 144.62 258.063 101.842 255.491 73.9798L256.8 55.6355L276.845 49.3618Z" fill="#268380"/>
<path d="M256.784 55.6199L253.283 56.9115C250.391 57.9725 248.138 60.3252 247.179 63.2928L239.889 85.7581L261.319 89.756L256.784 55.6199Z" fill="#268380"/>
<path d="M188.518 107.332C188.518 112.868 192.963 117.358 198.442 117.358C203.921 117.358 208.351 112.868 208.351 107.332C208.351 101.797 203.906 97.3223 198.442 97.3223C192.963 97.3223 188.518 101.797 188.518 107.332Z" fill="#FCC9A7"/>
<path d="M270.894 55.8675L273.283 57.2052C277.925 56.8208 282.294 55.8214 281.913 51.1315L280.802 37.3848L263.983 38.784L265.095 52.5308C265.475 57.2206 266.251 56.2519 270.894 55.8675Z" fill="#FCC9A7"/>
<path d="M281.03 39.0454C281.03 39.0454 278.717 49.2248 270.254 48.8711C262.857 48.5482 263.557 37.3848 263.557 37.3848L281.03 39.0454Z" fill="#F4BE9A"/>
<path d="M271.7 45.2581L273.131 45.1043C280.284 44.3201 285.459 37.8312 284.698 30.5888L283.815 22.347C283.039 15.1199 276.616 9.89188 269.447 10.6607L268.017 10.8145C260.863 11.5987 255.688 18.0876 256.449 25.33L257.332 33.5719C258.108 40.7989 264.531 46.027 271.7 45.2581Z" fill="#FCC9A7"/>
<path d="M298.307 84.8351L292.888 78.377" stroke="white" stroke-width="0.7693" stroke-miterlimit="10" stroke-linecap="round" stroke-linejoin="round"/>
<path d="M256.297 88.8183L255.475 75.4868" stroke="white" stroke-width="0.7693" stroke-miterlimit="10" stroke-linecap="round" stroke-linejoin="round"/>
<path d="M286.747 50.3088C285.554 49.5046 283.875 48.9353 281.804 49.7942L271.586 56.0286L276.417 63.6985L288.392 51.8333C288.325 51.7497 288.245 51.6533 288.151 51.5481C287.827 51.1821 287.352 50.7163 286.747 50.3088Z" fill="white" stroke="white"/>
<path d="M265.158 52.4084C264.027 52.1369 263.017 52.6346 262.231 53.2913C261.835 53.6226 261.515 53.9785 261.295 54.2532C261.23 54.3334 261.177 54.4084 261.131 54.4709L265.754 62.9709L270.215 55.9973L265.158 52.4084Z" fill="white" stroke="white"/>
<path d="M243.008 107.747H178.336C177.255 107.747 176.387 106.871 176.387 105.779C176.387 104.687 177.255 103.811 178.336 103.811H243.008C244.088 103.811 244.956 104.687 244.956 105.779C244.956 106.855 244.088 107.747 243.008 107.747Z" fill="#D1D1D1"/>
<path d="M176.387 105.272L168.655 67.322C168.457 66.384 169.172 65.4922 170.131 65.4922H209.476C210.192 65.4922 210.816 65.9996 210.953 66.7223L218.578 105.287H176.387V105.272Z" fill="#D1D1D1"/>
<path d="M173.024 68.3828L180.239 102.811H215.916L208.701 68.3828H173.024Z" fill="#EFEFEF"/>
<path d="M282.961 28.6183H278.593L277.741 23.7747C277.741 23.7747 273.175 21.299 274.057 16.5169C274.057 16.5169 254.834 23.4825 251.835 15.7327C247.878 5.5072 262.231 2.97008 274.057 3.26223C285.884 3.53901 285.031 18.7926 285.031 18.7926L282.961 28.6183Z" fill="#1C2226"/>
<path d="M280.406 27.6506C280.68 30.2339 282.979 32.0945 285.536 31.8177C288.093 31.5409 289.934 29.219 289.66 26.6357C289.387 24.0525 287.088 22.1919 284.531 22.4687C281.974 22.7455 280.132 25.0673 280.406 27.6506Z" fill="#FCC9A7"/>
<rect x="12" y="548.5" width="89" height="29" rx="14.5" fill="white"/>
<path d="M29.4402 557.845H25.4172L26.0292 556.819V569.5H24.0762V556.819L24.7512 557.845H20.6742V556.225H29.4402V557.845ZM29.7637 569.5V559.942H31.7167V562.993L31.1947 562.759C31.2367 562.369 31.3357 561.997 31.4917 561.643C31.6477 561.289 31.8547 560.974 32.1127 560.698C32.3767 560.416 32.7007 560.194 33.0847 560.032C33.4687 559.87 33.9127 559.789 34.4167 559.789C34.8007 559.789 35.1097 559.819 35.3437 559.879C35.5837 559.939 35.7307 559.987 35.7847 560.023L35.3707 561.859C35.3107 561.817 35.1877 561.763 35.0017 561.697C34.8217 561.631 34.5697 561.598 34.2457 561.598C33.7537 561.598 33.3457 561.685 33.0217 561.859C32.6977 562.033 32.4397 562.264 32.2477 562.552C32.0557 562.84 31.9177 563.155 31.8337 563.497C31.7557 563.833 31.7167 564.172 31.7167 564.514V569.5H29.7637ZM40.9077 569.689C40.3137 569.689 39.7377 569.59 39.1797 569.392C38.6277 569.188 38.1297 568.879 37.6857 568.465C37.2477 568.051 36.8997 567.529 36.6417 566.899C36.3837 566.269 36.2547 565.525 36.2547 564.667C36.2547 563.851 36.3837 563.137 36.6417 562.525C36.9057 561.913 37.2597 561.406 37.7037 561.004C38.1477 560.596 38.6457 560.293 39.1977 560.095C39.7557 559.891 40.3257 559.789 40.9077 559.789C41.6517 559.789 42.3357 559.957 42.9597 560.293C43.5837 560.623 44.0817 561.112 44.4537 561.76C44.8317 562.408 45.0207 563.206 45.0207 564.154C45.0207 564.172 45.0207 564.196 45.0207 564.226C45.0207 564.25 45.0207 564.274 45.0207 564.298L43.9767 564.289C43.9767 564.271 43.9767 564.256 43.9767 564.244C43.9767 564.226 43.9767 564.208 43.9767 564.19C43.9767 563.596 43.8477 563.101 43.5897 562.705C43.3377 562.303 43.0047 562.003 42.5907 561.805C42.1827 561.601 41.7447 561.499 41.2767 561.499C40.7667 561.499 40.2837 561.604 39.8277 561.814C39.3777 562.018 39.0117 562.354 38.7297 562.822C38.4477 563.284 38.3067 563.902 38.3067 564.676C38.3067 565.456 38.4477 566.089 38.7297 566.575C39.0117 567.061 39.3777 567.418 39.8277 567.646C40.2837 567.868 40.7667 567.979 41.2767 567.979C41.7507 567.979 42.1917 567.874 42.5997 567.664C43.0077 567.454 43.3377 567.145 43.5897 566.737C43.8477 566.323 43.9767 565.822 43.9767 565.234L45.0207 565.315C45.0207 566.281 44.8317 567.091 44.4537 567.745C44.0817 568.393 43.5837 568.879 42.9597 569.203C42.3357 569.527 41.6517 569.689 40.9077 569.689ZM45.9297 569.5H43.9767V559.942H45.9297V569.5ZM52.4965 569.689C51.5365 569.689 50.6755 569.488 49.9135 569.086C49.1575 568.678 48.5605 568.099 48.1225 567.349C47.6905 566.599 47.4745 565.717 47.4745 564.703C47.4745 563.689 47.6905 562.816 48.1225 562.084C48.5605 561.346 49.1575 560.779 49.9135 560.383C50.6755 559.987 51.5365 559.789 52.4965 559.789C53.2225 559.789 53.8675 559.9 54.4315 560.122C54.9955 560.338 55.4725 560.626 55.8625 560.986C56.2525 561.346 56.5495 561.742 56.7535 562.174C56.9575 562.606 57.0595 563.038 57.0595 563.47C57.0595 563.476 57.0595 563.485 57.0595 563.497C57.0595 563.509 57.0595 563.521 57.0595 563.533H55.1245C55.1245 563.503 55.1215 563.47 55.1155 563.434C55.1095 563.392 55.1035 563.353 55.0975 563.317C55.0495 562.963 54.9115 562.648 54.6835 562.372C54.4555 562.096 54.1555 561.877 53.7835 561.715C53.4115 561.553 52.9765 561.472 52.4785 561.472C51.9325 561.472 51.4285 561.592 50.9665 561.832C50.5105 562.066 50.1445 562.423 49.8685 562.903C49.5925 563.383 49.4545 563.983 49.4545 564.703C49.4545 565.423 49.5895 566.029 49.8595 566.521C50.1355 567.007 50.5015 567.376 50.9575 567.628C51.4195 567.88 51.9265 568.006 52.4785 568.006C53.0725 568.006 53.5585 567.916 53.9365 567.736C54.3145 567.55 54.5995 567.304 54.7915 566.998C54.9835 566.686 55.0945 566.35 55.1245 565.99H57.0595C57.0595 566.422 56.9605 566.86 56.7625 567.304C56.5645 567.742 56.2735 568.141 55.8895 568.501C55.5055 568.861 55.0285 569.149 54.4585 569.365C53.8945 569.581 53.2405 569.689 52.4965 569.689ZM58.6769 569.5V555.433H60.5309V563.866L60.0539 563.641L64.3199 559.942H66.7769L62.1509 564.037L62.6189 563.164L66.7769 569.5H64.6979L61.3499 564.217L61.7909 564.352L60.2879 565.684L60.5309 564.793V569.5H58.6769ZM67.7616 569.5V559.942H69.6876V569.5H67.7616ZM68.7336 557.962C68.3976 557.962 68.1066 557.872 67.8606 557.692C67.6206 557.506 67.5006 557.251 67.5006 556.927C67.5006 556.609 67.6206 556.36 67.8606 556.18C68.1066 555.994 68.3976 555.901 68.7336 555.901C69.0636 555.901 69.3486 555.994 69.5886 556.18C69.8346 556.36 69.9576 556.609 69.9576 556.927C69.9576 557.251 69.8346 557.506 69.5886 557.692C69.3486 557.872 69.0636 557.962 68.7336 557.962ZM78.5513 569.5V565.09C78.5513 564.832 78.5513 564.613 78.5513 564.433C78.5513 564.253 78.5513 564.085 78.5513 563.929C78.5513 563.461 78.4793 563.05 78.3353 562.696C78.1913 562.336 77.9543 562.057 77.6243 561.859C77.2943 561.655 76.8533 561.553 76.3013 561.553C75.8153 561.553 75.3743 561.673 74.9783 561.913C74.5883 562.153 74.2763 562.48 74.0423 562.894C73.8143 563.302 73.7003 563.767 73.7003 564.289L72.8633 563.875C72.8633 563.101 73.0463 562.408 73.4123 561.796C73.7783 561.178 74.2673 560.689 74.8793 560.329C75.4973 559.969 76.1723 559.789 76.9043 559.789C77.6603 559.789 78.3053 559.936 78.8393 560.23C79.3793 560.518 79.7903 560.932 80.0723 561.472C80.3603 562.006 80.5043 562.645 80.5043 563.389C80.5043 563.665 80.5043 563.971 80.5043 564.307C80.5043 564.643 80.5043 564.967 80.5043 565.279V569.5H78.5513ZM71.7473 569.5V559.942H73.7003V569.5H71.7473ZM87.0122 573.568C86.4482 573.568 85.8902 573.508 85.3382 573.388C84.7862 573.274 84.2852 573.088 83.8352 572.83C83.3912 572.578 83.0372 572.248 82.7732 571.84C82.5092 571.432 82.3772 570.937 82.3772 570.355C82.3772 570.337 82.3772 570.319 82.3772 570.301C82.3772 570.283 82.3772 570.268 82.3772 570.256H84.3302C84.3302 570.268 84.3302 570.283 84.3302 570.301C84.3302 570.319 84.3302 570.337 84.3302 570.355C84.3302 570.733 84.4562 571.048 84.7082 571.3C84.9602 571.552 85.2932 571.738 85.7072 571.858C86.1212 571.984 86.5682 572.047 87.0482 572.047C87.5642 572.047 88.0322 571.963 88.4522 571.795C88.8782 571.627 89.2172 571.339 89.4692 570.931C89.7212 570.529 89.8472 569.98 89.8472 569.284V559.942H91.8002V569.284C91.8002 570.076 91.6622 570.745 91.3862 571.291C91.1162 571.837 90.7502 572.275 90.2882 572.605C89.8262 572.941 89.3102 573.184 88.7402 573.334C88.1762 573.49 87.6002 573.568 87.0122 573.568ZM86.7782 569.689C86.1842 569.689 85.6082 569.59 85.0502 569.392C84.4982 569.188 84.0002 568.879 83.5562 568.465C83.1182 568.051 82.7702 567.529 82.5122 566.899C82.2542 566.269 82.1252 565.525 82.1252 564.667C82.1252 563.851 82.2542 563.137 82.5122 562.525C82.7762 561.913 83.1302 561.406 83.5742 561.004C84.0182 560.596 84.5162 560.293 85.0682 560.095C85.6262 559.891 86.1962 559.789 86.7782 559.789C87.5222 559.789 88.2062 559.957 88.8302 560.293C89.4542 560.623 89.9522 561.112 90.3242 561.76C90.7022 562.402 90.8912 563.197 90.8912 564.145C90.8912 564.163 90.8912 564.187 90.8912 564.217C90.8912 564.241 90.8912 564.265 90.8912 564.289L89.8472 564.28C89.8472 564.262 89.8472 564.247 89.8472 564.235C89.8472 564.217 89.8472 564.199 89.8472 564.181C89.8472 563.587 89.7182 563.092 89.4602 562.696C89.2082 562.294 88.8752 561.994 88.4612 561.796C88.0532 561.592 87.6152 561.49 87.1472 561.49C86.6372 561.49 86.1542 561.595 85.6982 561.805C85.2482 562.009 84.8822 562.345 84.6002 562.813C84.3182 563.275 84.1772 563.893 84.1772 564.667C84.1772 565.447 84.3182 566.08 84.6002 566.566C84.8822 567.052 85.2482 567.409 85.6982 567.637C86.1542 567.859 86.6372 567.97 87.1472 567.97C87.6212 567.97 88.0622 567.865 88.4702 567.655C88.8782 567.445 89.2082 567.136 89.4602 566.728C89.7182 566.314 89.8472 565.813 89.8472 565.225L90.8912 565.306C90.8912 566.272 90.7022 567.082 90.3242 567.736C89.9522 568.384 89.4542 568.873 88.8302 569.203C88.2062 569.527 87.5222 569.689 86.7782 569.689Z" fill="black"/>
<rect x="113" y="548.5" width="136" height="29" rx="14.5" fill="white"/>
<path d="M136.572 564.802C136.572 565.354 136.47 565.915 136.266 566.485C136.062 567.055 135.753 567.583 135.339 568.069C134.925 568.555 134.403 568.948 133.773 569.248C133.143 569.542 132.402 569.689 131.55 569.689C130.392 569.689 129.405 569.398 128.589 568.816C127.779 568.228 127.161 567.421 126.735 566.395C126.309 565.369 126.096 564.193 126.096 562.867C126.096 561.535 126.309 560.359 126.735 559.339C127.161 558.313 127.779 557.509 128.589 556.927C129.405 556.345 130.392 556.054 131.55 556.054C132.516 556.054 133.338 556.243 134.016 556.621C134.7 556.999 135.243 557.485 135.645 558.079C136.053 558.673 136.323 559.291 136.455 559.933C136.533 560.281 136.572 560.611 136.572 560.923H134.61C134.61 560.755 134.595 560.572 134.565 560.374C134.499 559.894 134.337 559.453 134.079 559.051C133.827 558.649 133.488 558.328 133.062 558.088C132.642 557.848 132.138 557.728 131.55 557.728C130.866 557.728 130.263 557.92 129.741 558.304C129.219 558.682 128.811 559.252 128.517 560.014C128.229 560.776 128.085 561.727 128.085 562.867C128.085 564.001 128.229 564.952 128.517 565.72C128.811 566.482 129.219 567.058 129.741 567.448C130.263 567.832 130.866 568.024 131.55 568.024C132.048 568.024 132.486 567.934 132.864 567.754C133.242 567.574 133.56 567.331 133.818 567.025C134.076 566.719 134.271 566.374 134.403 565.99C134.541 565.606 134.61 565.21 134.61 564.802H136.572ZM142.778 569.68C141.794 569.68 140.924 569.467 140.168 569.041C139.418 568.615 138.83 568.03 138.404 567.286C137.984 566.536 137.774 565.678 137.774 564.712C137.774 563.752 137.984 562.903 138.404 562.165C138.83 561.421 139.418 560.842 140.168 560.428C140.924 560.008 141.794 559.798 142.778 559.798C143.762 559.798 144.629 560.008 145.379 560.428C146.135 560.842 146.723 561.421 147.143 562.165C147.569 562.903 147.782 563.752 147.782 564.712C147.782 565.678 147.569 566.536 147.143 567.286C146.723 568.03 146.135 568.615 145.379 569.041C144.629 569.467 143.762 569.68 142.778 569.68ZM142.778 568.006C143.378 568.006 143.906 567.871 144.362 567.601C144.818 567.331 145.175 566.95 145.433 566.458C145.691 565.96 145.82 565.378 145.82 564.712C145.82 564.052 145.691 563.479 145.433 562.993C145.175 562.507 144.818 562.132 144.362 561.868C143.906 561.604 143.378 561.472 142.778 561.472C142.184 561.472 141.656 561.604 141.194 561.868C140.738 562.132 140.381 562.507 140.123 562.993C139.865 563.479 139.736 564.052 139.736 564.712C139.736 565.378 139.865 565.96 140.123 566.458C140.381 566.95 140.738 567.331 141.194 567.601C141.656 567.871 142.184 568.006 142.778 568.006ZM154.033 569.68C153.049 569.68 152.179 569.467 151.423 569.041C150.673 568.615 150.085 568.03 149.659 567.286C149.239 566.536 149.029 565.678 149.029 564.712C149.029 563.752 149.239 562.903 149.659 562.165C150.085 561.421 150.673 560.842 151.423 560.428C152.179 560.008 153.049 559.798 154.033 559.798C155.017 559.798 155.884 560.008 156.634 560.428C157.39 560.842 157.978 561.421 158.398 562.165C158.824 562.903 159.037 563.752 159.037 564.712C159.037 565.678 158.824 566.536 158.398 567.286C157.978 568.03 157.39 568.615 156.634 569.041C155.884 569.467 155.017 569.68 154.033 569.68ZM154.033 568.006C154.633 568.006 155.161 567.871 155.617 567.601C156.073 567.331 156.43 566.95 156.688 566.458C156.946 565.96 157.075 565.378 157.075 564.712C157.075 564.052 156.946 563.479 156.688 562.993C156.43 562.507 156.073 562.132 155.617 561.868C155.161 561.604 154.633 561.472 154.033 561.472C153.439 561.472 152.911 561.604 152.449 561.868C151.993 562.132 151.636 562.507 151.378 562.993C151.12 563.479 150.991 564.052 150.991 564.712C150.991 565.378 151.12 565.96 151.378 566.458C151.636 566.95 151.993 567.331 152.449 567.601C152.911 567.871 153.439 568.006 154.033 568.006ZM160.671 569.5V559.942H162.624V562.993L162.102 562.759C162.144 562.369 162.243 561.997 162.399 561.643C162.555 561.289 162.762 560.974 163.02 560.698C163.284 560.416 163.608 560.194 163.992 560.032C164.376 559.87 164.82 559.789 165.324 559.789C165.708 559.789 166.017 559.819 166.251 559.879C166.491 559.939 166.638 559.987 166.692 560.023L166.278 561.859C166.218 561.817 166.095 561.763 165.909 561.697C165.729 561.631 165.477 561.598 165.153 561.598C164.661 561.598 164.253 561.685 163.929 561.859C163.605 562.033 163.347 562.264 163.155 562.552C162.963 562.84 162.825 563.155 162.741 563.497C162.663 563.833 162.624 564.172 162.624 564.514V569.5H160.671ZM171.509 569.689C170.723 569.689 170 569.5 169.34 569.122C168.68 568.738 168.152 568.174 167.756 567.43C167.36 566.686 167.162 565.777 167.162 564.703C167.162 563.653 167.363 562.762 167.765 562.03C168.167 561.298 168.698 560.743 169.358 560.365C170.018 559.981 170.735 559.789 171.509 559.789C172.253 559.789 172.943 559.969 173.579 560.329C174.221 560.689 174.737 561.19 175.127 561.832C175.517 562.468 175.712 563.203 175.712 564.037C175.712 564.061 175.712 564.085 175.712 564.109C175.712 564.127 175.712 564.145 175.712 564.163L174.578 564.199C174.578 564.181 174.578 564.163 174.578 564.145C174.578 564.121 174.578 564.1 174.578 564.082C174.578 563.584 174.452 563.143 174.2 562.759C173.948 562.369 173.615 562.063 173.201 561.841C172.793 561.613 172.358 561.499 171.896 561.499C171.122 561.499 170.474 561.76 169.952 562.282C169.43 562.798 169.169 563.605 169.169 564.703C169.169 565.795 169.43 566.605 169.952 567.133C170.48 567.655 171.128 567.916 171.896 567.916C172.376 567.916 172.82 567.802 173.228 567.574C173.636 567.34 173.963 567.022 174.209 566.62C174.455 566.218 174.578 565.759 174.578 565.243L175.712 565.288C175.712 566.116 175.523 566.863 175.145 567.529C174.773 568.195 174.269 568.723 173.633 569.113C173.003 569.497 172.295 569.689 171.509 569.689ZM174.578 569.5V555.433H176.54V569.5H174.578ZM178.532 569.5V559.942H180.458V569.5H178.532ZM179.504 557.962C179.168 557.962 178.877 557.872 178.631 557.692C178.391 557.506 178.271 557.251 178.271 556.927C178.271 556.609 178.391 556.36 178.631 556.18C178.877 555.994 179.168 555.901 179.504 555.901C179.834 555.901 180.119 555.994 180.359 556.18C180.605 556.36 180.728 556.609 180.728 556.927C180.728 557.251 180.605 557.506 180.359 557.692C180.119 557.872 179.834 557.962 179.504 557.962ZM189.322 569.5V565.09C189.322 564.832 189.322 564.613 189.322 564.433C189.322 564.253 189.322 564.085 189.322 563.929C189.322 563.461 189.25 563.05 189.106 562.696C188.962 562.336 188.725 562.057 188.395 561.859C188.065 561.655 187.624 561.553 187.072 561.553C186.586 561.553 186.145 561.673 185.749 561.913C185.359 562.153 185.047 562.48 184.813 562.894C184.585 563.302 184.471 563.767 184.471 564.289L183.634 563.875C183.634 563.101 183.817 562.408 184.183 561.796C184.549 561.178 185.038 560.689 185.65 560.329C186.268 559.969 186.943 559.789 187.675 559.789C188.431 559.789 189.076 559.936 189.61 560.23C190.15 560.518 190.561 560.932 190.843 561.472C191.131 562.006 191.275 562.645 191.275 563.389C191.275 563.665 191.275 563.971 191.275 564.307C191.275 564.643 191.275 564.967 191.275 565.279V569.5H189.322ZM182.518 569.5V559.942H184.471V569.5H182.518ZM197.459 569.689C196.865 569.689 196.289 569.59 195.731 569.392C195.179 569.188 194.681 568.879 194.237 568.465C193.799 568.051 193.451 567.529 193.193 566.899C192.935 566.269 192.806 565.525 192.806 564.667C192.806 563.851 192.935 563.137 193.193 562.525C193.457 561.913 193.811 561.406 194.255 561.004C194.699 560.596 195.197 560.293 195.749 560.095C196.307 559.891 196.877 559.789 197.459 559.789C198.203 559.789 198.887 559.957 199.511 560.293C200.135 560.623 200.633 561.112 201.005 561.76C201.383 562.408 201.572 563.206 201.572 564.154C201.572 564.172 201.572 564.196 201.572 564.226C201.572 564.25 201.572 564.274 201.572 564.298L200.528 564.289C200.528 564.271 200.528 564.256 200.528 564.244C200.528 564.226 200.528 564.208 200.528 564.19C200.528 563.596 200.399 563.101 200.141 562.705C199.889 562.303 199.556 562.003 199.142 561.805C198.734 561.601 198.296 561.499 197.828 561.499C197.318 561.499 196.835 561.604 196.379 561.814C195.929 562.018 195.563 562.354 195.281 562.822C194.999 563.284 194.858 563.902 194.858 564.676C194.858 565.456 194.999 566.089 195.281 566.575C195.563 567.061 195.929 567.418 196.379 567.646C196.835 567.868 197.318 567.979 197.828 567.979C198.302 567.979 198.743 567.874 199.151 567.664C199.559 567.454 199.889 567.145 200.141 566.737C200.399 566.323 200.528 565.822 200.528 565.234L201.572 565.315C201.572 566.281 201.383 567.091 201.005 567.745C200.633 568.393 200.135 568.879 199.511 569.203C198.887 569.527 198.203 569.689 197.459 569.689ZM202.481 569.5H200.528V559.942H202.481V569.5ZM205.672 569.5V561.562H203.53V559.942H204.538C204.814 559.942 205.027 559.93 205.177 559.906C205.333 559.876 205.447 559.819 205.519 559.735C205.591 559.645 205.633 559.513 205.645 559.339C205.663 559.159 205.672 558.919 205.672 558.619V557.413H207.625V559.942H210.235V561.562H207.625V569.5H205.672ZM211.581 569.5V559.942H213.507V569.5H211.581ZM212.553 557.962C212.217 557.962 211.926 557.872 211.68 557.692C211.44 557.506 211.32 557.251 211.32 556.927C211.32 556.609 211.44 556.36 211.68 556.18C211.926 555.994 212.217 555.901 212.553 555.901C212.883 555.901 213.168 555.994 213.408 556.18C213.654 556.36 213.777 556.609 213.777 556.927C213.777 557.251 213.654 557.506 213.408 557.692C213.168 557.872 212.883 557.962 212.553 557.962ZM220.184 569.68C219.2 569.68 218.33 569.467 217.574 569.041C216.824 568.615 216.236 568.03 215.81 567.286C215.39 566.536 215.18 565.678 215.18 564.712C215.18 563.752 215.39 562.903 215.81 562.165C216.236 561.421 216.824 560.842 217.574 560.428C218.33 560.008 219.2 559.798 220.184 559.798C221.168 559.798 222.035 560.008 222.785 560.428C223.541 560.842 224.129 561.421 224.549 562.165C224.975 562.903 225.188 563.752 225.188 564.712C225.188 565.678 224.975 566.536 224.549 567.286C224.129 568.03 223.541 568.615 222.785 569.041C222.035 569.467 221.168 569.68 220.184 569.68ZM220.184 568.006C220.784 568.006 221.312 567.871 221.768 567.601C222.224 567.331 222.581 566.95 222.839 566.458C223.097 565.96 223.226 565.378 223.226 564.712C223.226 564.052 223.097 563.479 222.839 562.993C222.581 562.507 222.224 562.132 221.768 561.868C221.312 561.604 220.784 561.472 220.184 561.472C219.59 561.472 219.062 561.604 218.6 561.868C218.144 562.132 217.787 562.507 217.529 562.993C217.271 563.479 217.142 564.052 217.142 564.712C217.142 565.378 217.271 565.96 217.529 566.458C217.787 566.95 218.144 567.331 218.6 567.601C219.062 567.871 219.59 568.006 220.184 568.006ZM233.626 569.5V565.09C233.626 564.832 233.626 564.613 233.626 564.433C233.626 564.253 233.626 564.085 233.626 563.929C233.626 563.461 233.554 563.05 233.41 562.696C233.266 562.336 233.029 562.057 232.699 561.859C232.369 561.655 231.928 561.553 231.376 561.553C230.89 561.553 230.449 561.673 230.053 561.913C229.663 562.153 229.351 562.48 229.117 562.894C228.889 563.302 228.775 563.767 228.775 564.289L227.938 563.875C227.938 563.101 228.121 562.408 228.487 561.796C228.853 561.178 229.342 560.689 229.954 560.329C230.572 559.969 231.247 559.789 231.979 559.789C232.735 559.789 233.38 559.936 233.914 560.23C234.454 560.518 234.865 560.932 235.147 561.472C235.435 562.006 235.579 562.645 235.579 563.389C235.579 563.665 235.579 563.971 235.579 564.307C235.579 564.643 235.579 564.967 235.579 565.279V569.5H233.626ZM226.822 569.5V559.942H228.775V569.5H226.822Z" fill="black"/>
<rect x="261" y="548.5" width="86" height="29" rx="14.5" fill="white"/>
<path d="M271.672 557.845L272.554 556.819V562.723L271.942 562.165H277.333V563.785H271.942L272.554 563.191V569.5H270.61V556.225H278.134V557.845H271.672ZM279.758 569.5V559.942H281.684V569.5H279.758ZM280.73 557.962C280.394 557.962 280.103 557.872 279.857 557.692C279.617 557.506 279.497 557.251 279.497 556.927C279.497 556.609 279.617 556.36 279.857 556.18C280.103 555.994 280.394 555.901 280.73 555.901C281.06 555.901 281.345 555.994 281.585 556.18C281.831 556.36 281.954 556.609 281.954 556.927C281.954 557.251 281.831 557.506 281.585 557.692C281.345 557.872 281.06 557.962 280.73 557.962ZM286.309 569.644C286.027 569.644 285.736 569.62 285.436 569.572C285.136 569.524 284.857 569.419 284.599 569.257C284.347 569.095 284.14 568.849 283.978 568.519C283.822 568.189 283.744 567.745 283.744 567.187C283.744 567.079 283.744 566.971 283.744 566.863C283.744 566.749 283.744 566.629 283.744 566.503V555.433H285.697V566.323C285.697 566.407 285.697 566.488 285.697 566.566C285.697 566.638 285.697 566.707 285.697 566.773C285.697 567.121 285.73 567.388 285.796 567.574C285.868 567.754 285.967 567.877 286.093 567.943C286.219 568.009 286.372 568.042 286.552 568.042C286.72 568.042 286.876 568.03 287.02 568.006C287.17 567.976 287.29 567.946 287.38 567.916V569.5C287.26 569.542 287.113 569.575 286.939 569.599C286.771 569.629 286.561 569.644 286.309 569.644ZM289.561 569.5V561.562H287.419V559.942H288.427C288.703 559.942 288.916 559.93 289.066 559.906C289.222 559.876 289.336 559.819 289.408 559.735C289.48 559.645 289.522 559.513 289.534 559.339C289.552 559.159 289.561 558.919 289.561 558.619V557.413H291.514V559.942H294.124V561.562H291.514V569.5H289.561ZM295.855 565.405V563.884H302.893L302.623 564.334C302.623 564.298 302.623 564.262 302.623 564.226C302.623 564.184 302.623 564.148 302.623 564.118C302.623 563.632 302.518 563.185 302.308 562.777C302.098 562.363 301.783 562.033 301.363 561.787C300.949 561.535 300.43 561.409 299.806 561.409C299.182 561.409 298.633 561.544 298.159 561.814C297.691 562.078 297.325 562.456 297.061 562.948C296.803 563.434 296.674 564.019 296.674 564.703C296.674 565.399 296.8 565.999 297.052 566.503C297.304 567.001 297.667 567.385 298.141 567.655C298.615 567.925 299.182 568.06 299.842 568.06C300.304 568.06 300.703 568.015 301.039 567.925C301.381 567.829 301.66 567.703 301.876 567.547C302.098 567.391 302.266 567.223 302.38 567.043C302.494 566.857 302.56 566.674 302.578 566.494H304.522C304.486 566.884 304.357 567.271 304.135 567.655C303.919 568.033 303.61 568.378 303.208 568.69C302.812 568.996 302.326 569.242 301.75 569.428C301.18 569.608 300.523 569.698 299.779 569.698C298.783 569.698 297.91 569.488 297.16 569.068C296.41 568.648 295.825 568.066 295.405 567.322C294.985 566.572 294.775 565.714 294.775 564.748C294.775 563.764 294.988 562.9 295.414 562.156C295.84 561.412 296.431 560.833 297.187 560.419C297.943 559.999 298.81 559.789 299.788 559.789C300.784 559.789 301.645 559.999 302.371 560.419C303.103 560.839 303.667 561.418 304.063 562.156C304.459 562.894 304.657 563.743 304.657 564.703C304.657 564.817 304.654 564.949 304.648 565.099C304.642 565.249 304.633 565.351 304.621 565.405H295.855ZM306.294 569.5V559.942H308.247V562.993L307.725 562.759C307.767 562.369 307.866 561.997 308.022 561.643C308.178 561.289 308.385 560.974 308.643 560.698C308.907 560.416 309.231 560.194 309.615 560.032C309.999 559.87 310.443 559.789 310.947 559.789C311.331 559.789 311.64 559.819 311.874 559.879C312.114 559.939 312.261 559.987 312.315 560.023L311.901 561.859C311.841 561.817 311.718 561.763 311.532 561.697C311.352 561.631 311.1 561.598 310.776 561.598C310.284 561.598 309.876 561.685 309.552 561.859C309.228 562.033 308.97 562.264 308.778 562.552C308.586 562.84 308.448 563.155 308.364 563.497C308.286 563.833 308.247 564.172 308.247 564.514V569.5H306.294ZM313.374 569.5V559.942H315.3V569.5H313.374ZM314.346 557.962C314.01 557.962 313.719 557.872 313.473 557.692C313.233 557.506 313.113 557.251 313.113 556.927C313.113 556.609 313.233 556.36 313.473 556.18C313.719 555.994 314.01 555.901 314.346 555.901C314.676 555.901 314.961 555.994 315.201 556.18C315.447 556.36 315.57 556.609 315.57 556.927C315.57 557.251 315.447 557.506 315.201 557.692C314.961 557.872 314.676 557.962 314.346 557.962ZM324.164 569.5V565.09C324.164 564.832 324.164 564.613 324.164 564.433C324.164 564.253 324.164 564.085 324.164 563.929C324.164 563.461 324.092 563.05 323.948 562.696C323.804 562.336 323.567 562.057 323.237 561.859C322.907 561.655 322.466 561.553 321.914 561.553C321.428 561.553 320.987 561.673 320.591 561.913C320.201 562.153 319.889 562.48 319.655 562.894C319.427 563.302 319.313 563.767 319.313 564.289L318.476 563.875C318.476 563.101 318.659 562.408 319.025 561.796C319.391 561.178 319.88 560.689 320.492 560.329C321.11 559.969 321.785 559.789 322.517 559.789C323.273 559.789 323.918 559.936 324.452 560.23C324.992 560.518 325.403 560.932 325.685 561.472C325.973 562.006 326.117 562.645 326.117 563.389C326.117 563.665 326.117 563.971 326.117 564.307C326.117 564.643 326.117 564.967 326.117 565.279V569.5H324.164ZM317.36 569.5V559.942H319.313V569.5H317.36ZM332.625 573.568C332.061 573.568 331.503 573.508 330.951 573.388C330.399 573.274 329.898 573.088 329.448 572.83C329.004 572.578 328.65 572.248 328.386 571.84C328.122 571.432 327.99 570.937 327.99 570.355C327.99 570.337 327.99 570.319 327.99 570.301C327.99 570.283 327.99 570.268 327.99 570.256H329.943C329.943 570.268 329.943 570.283 329.943 570.301C329.943 570.319 329.943 570.337 329.943 570.355C329.943 570.733 330.069 571.048 330.321 571.3C330.573 571.552 330.906 571.738 331.32 571.858C331.734 571.984 332.181 572.047 332.661 572.047C333.177 572.047 333.645 571.963 334.065 571.795C334.491 571.627 334.83 571.339 335.082 570.931C335.334 570.529 335.46 569.98 335.46 569.284V559.942H337.413V569.284C337.413 570.076 337.275 570.745 336.999 571.291C336.729 571.837 336.363 572.275 335.901 572.605C335.439 572.941 334.923 573.184 334.353 573.334C333.789 573.49 333.213 573.568 332.625 573.568ZM332.391 569.689C331.797 569.689 331.221 569.59 330.663 569.392C330.111 569.188 329.613 568.879 329.169 568.465C328.731 568.051 328.383 567.529 328.125 566.899C327.867 566.269 327.738 565.525 327.738 564.667C327.738 563.851 327.867 563.137 328.125 562.525C328.389 561.913 328.743 561.406 329.187 561.004C329.631 560.596 330.129 560.293 330.681 560.095C331.239 559.891 331.809 559.789 332.391 559.789C333.135 559.789 333.819 559.957 334.443 560.293C335.067 560.623 335.565 561.112 335.937 561.76C336.315 562.402 336.504 563.197 336.504 564.145C336.504 564.163 336.504 564.187 336.504 564.217C336.504 564.241 336.504 564.265 336.504 564.289L335.46 564.28C335.46 564.262 335.46 564.247 335.46 564.235C335.46 564.217 335.46 564.199 335.46 564.181C335.46 563.587 335.331 563.092 335.073 562.696C334.821 562.294 334.488 561.994 334.074 561.796C333.666 561.592 333.228 561.49 332.76 561.49C332.25 561.49 331.767 561.595 331.311 561.805C330.861 562.009 330.495 562.345 330.213 562.813C329.931 563.275 329.79 563.893 329.79 564.667C329.79 565.447 329.931 566.08 330.213 566.566C330.495 567.052 330.861 567.409 331.311 567.637C331.767 567.859 332.25 567.97 332.76 567.97C333.234 567.97 333.675 567.865 334.083 567.655C334.491 567.445 334.821 567.136 335.073 566.728C335.331 566.314 335.46 565.813 335.46 565.225L336.504 565.306C336.504 566.272 336.315 567.082 335.937 567.736C335.565 568.384 335.067 568.873 334.443 569.203C333.819 569.527 333.135 569.689 332.391 569.689Z" fill="black"/>
</g>
<defs>
<clipPath id="clip0_3158_5725">
<rect width="354" height="577.5" fill="white"/>
</clipPath>
</defs>
</svg>
