<svg width="1270" height="842" viewBox="0 0 1270 842" fill="none" xmlns="http://www.w3.org/2000/svg">
<g clip-path="url(#clip0_1390_7043)">
<path fill-rule="evenodd" clip-rule="evenodd" d="M608.23 547.76C544.597 590.037 525.936 691.25 447.345 698.867C373.927 705.982 326.658 627.561 274.943 580.061C227.542 536.524 163.746 495.099 159.222 434.229C154.73 373.786 235.542 335.865 252.438 277.229C269.977 216.362 215.512 142.547 257.703 92.4602C298.912 43.5383 383.147 31.4181 450.167 42.494C512.811 52.8469 536.852 126.902 595.925 148.356C658.799 171.191 756.062 116.782 794.051 167.385C831.789 217.654 744.737 278.263 738.843 338.734C733.817 390.305 790.856 444.257 762.668 489.367C734.705 534.118 654.097 517.286 608.23 547.76Z" fill="#DFF5ED"/>
<path fill-rule="evenodd" clip-rule="evenodd" d="M229.441 745.826C178.348 751.127 126.754 728.51 72.9671 706.024C11.5265 680.339 -65.7944 673.368 -99.7481 608.21C-133.711 543.034 -82.5668 488.777 -73.1768 425.569C-62.6848 354.941 -93.1315 258.443 -42.3725 221.986C11.1701 183.529 99.7519 203.498 166.885 253.146C227.118 297.691 229.889 385.313 269.371 452.534C315.1 530.392 422.802 593.014 412.208 670.83C401.706 747.965 300.321 738.473 229.441 745.826Z" fill="#F4EC9A"/>
<path fill-rule="evenodd" clip-rule="evenodd" d="M1098.3 476.699C1045.49 486.441 995.772 473.182 943.802 460.263C884.436 445.505 806.45 447.867 780.227 397.627C753.996 347.374 813.185 297.201 830.931 244.02C850.76 184.598 832.163 108.111 888.659 72.6759C948.254 35.298 1036.05 42.4864 1098.13 76.4343C1153.82 106.893 1145.33 178.956 1176.93 230.319C1213.53 289.808 1315.32 330.21 1294.46 395.579C1273.78 460.377 1171.57 463.184 1098.3 476.699Z" fill="#B3E5ED"/>
<path fill-rule="evenodd" clip-rule="evenodd" d="M1042.18 615.941C999.182 632.844 965.053 664.482 918.26 669.957C856.944 677.131 778.778 690.288 738.463 651.477C698.159 612.676 745.568 550.336 740.265 498.602C735.359 450.749 694.863 407.115 708.607 360.221C723.251 310.257 766.425 268.331 816.506 238.47C867.654 207.973 932.703 175.361 991.449 191.578C1051.9 208.266 1067.58 273.044 1102.77 317.496C1123.78 344.028 1131.2 375.889 1156.27 399.763C1196.88 438.437 1295.24 446.547 1292.97 498.628C1290.81 547.947 1200 555.352 1148.42 579.478C1114.25 595.461 1077.57 602.028 1042.18 615.941Z" fill="#E7D2D4"/>
</g>
<defs>
<clipPath id="clip0_1390_7043">
<rect width="1270" height="842" fill="white"/>
</clipPath>
</defs>
</svg>
