<svg width="1270" height="842" viewBox="0 0 1270 842" fill="none" xmlns="http://www.w3.org/2000/svg">
<g clip-path="url(#clip0_3108_6740)">
<path fill-rule="evenodd" clip-rule="evenodd" d="M290.23 566.76C226.597 609.037 207.936 710.25 129.345 717.867C55.927 724.982 8.65807 646.561 -43.0566 599.061C-90.4579 555.524 -154.254 514.099 -158.778 453.229C-163.27 392.786 -82.4582 354.865 -65.5621 296.229C-48.0234 235.362 -102.488 161.547 -60.2969 111.46C-19.0875 62.5383 65.1473 50.4181 132.167 61.494C194.811 71.8469 218.852 145.902 277.925 167.356C340.799 190.191 438.062 135.782 476.051 186.385C513.789 236.654 426.737 297.263 420.843 357.734C415.817 409.305 472.856 463.257 444.668 508.367C416.705 553.118 336.097 536.286 290.23 566.76Z" fill="#DFF5ED"/>
<path fill-rule="evenodd" clip-rule="evenodd" d="M1098.3 476.699C1045.49 486.441 995.772 473.182 943.802 460.263C884.436 445.505 806.45 447.867 780.227 397.627C753.996 347.374 813.185 297.201 830.931 244.02C850.76 184.598 832.163 108.111 888.659 72.6759C948.254 35.298 1036.05 42.4864 1098.13 76.4343C1153.82 106.893 1145.33 178.956 1176.93 230.319C1213.53 289.808 1315.32 330.21 1294.46 395.579C1273.78 460.377 1171.57 463.184 1098.3 476.699Z" fill="#B3E5ED"/>
</g>
<defs>
<clipPath id="clip0_3108_6740">
<rect width="1270" height="842" fill="white"/>
</clipPath>
</defs>
</svg>
