<svg width="754" height="842" viewBox="0 0 754 842" fill="none" xmlns="http://www.w3.org/2000/svg">
<g clip-path="url(#clip0_1392_7049)">
<path fill-rule="evenodd" clip-rule="evenodd" d="M562.23 521.76C498.597 564.037 479.936 665.25 401.345 672.867C327.927 679.982 280.658 601.561 228.943 554.061C181.542 510.524 117.746 469.099 113.222 408.229C108.73 347.786 189.542 309.865 206.438 251.229C223.977 190.362 169.512 116.547 211.703 66.4602C252.912 17.5383 337.147 5.41806 404.167 16.494C466.811 26.8469 490.852 100.902 549.925 122.356C612.799 145.191 710.062 90.782 748.051 141.385C785.789 191.654 698.737 252.263 692.843 312.734C687.817 364.305 744.856 418.257 716.668 463.367C688.705 508.118 608.097 491.286 562.23 521.76Z" fill="#DFF5ED"/>
<path fill-rule="evenodd" clip-rule="evenodd" d="M229.441 745.826C178.348 751.127 126.754 728.51 72.9671 706.024C11.5265 680.339 -65.7944 673.368 -99.7481 608.21C-133.711 543.034 -82.5668 488.777 -73.1768 425.569C-62.6848 354.941 -93.1315 258.443 -42.3725 221.986C11.1701 183.529 99.7519 203.498 166.885 253.146C227.118 297.691 229.889 385.313 269.371 452.534C315.1 530.392 422.802 593.014 412.208 670.83C401.706 747.965 300.321 738.473 229.441 745.826Z" fill="#F4EC9A"/>
<path fill-rule="evenodd" clip-rule="evenodd" d="M1098.3 476.699C1045.49 486.441 995.772 473.182 943.802 460.263C884.436 445.505 806.45 447.867 780.227 397.627C753.996 347.374 813.185 297.201 830.931 244.02C850.76 184.598 832.163 108.111 888.659 72.6759C948.254 35.298 1036.05 42.4864 1098.13 76.4343C1153.82 106.893 1145.33 178.956 1176.93 230.319C1213.53 289.808 1315.32 330.21 1294.46 395.579C1273.78 460.377 1171.57 463.184 1098.3 476.699Z" fill="#B3E5ED"/>
<path fill-rule="evenodd" clip-rule="evenodd" d="M883.18 733.941C840.182 750.844 806.053 782.482 759.26 787.957C697.944 795.131 619.778 808.288 579.463 769.477C539.159 730.676 586.568 668.336 581.265 616.602C576.359 568.749 535.863 525.115 549.607 478.221C564.251 428.257 607.425 386.331 657.506 356.47C708.654 325.973 773.703 293.361 832.449 309.578C892.9 326.266 908.578 391.044 943.771 435.496C964.778 462.028 972.205 493.889 997.273 517.763C1037.88 556.437 1136.24 564.547 1133.97 616.628C1131.81 665.947 1041 673.352 989.421 697.478C955.252 713.461 918.57 720.028 883.18 733.941Z" fill="#E7D2D4"/>
</g>
<defs>
<clipPath id="clip0_1392_7049">
<rect width="754" height="842" fill="white"/>
</clipPath>
</defs>
</svg>
