<svg width="754" height="842" viewBox="0 0 754 842" fill="none" xmlns="http://www.w3.org/2000/svg">
<g clip-path="url(#clip0_3108_6745)">
<path fill-rule="evenodd" clip-rule="evenodd" d="M523.23 536.76C459.597 579.037 440.936 680.25 362.345 687.867C288.927 694.982 241.658 616.561 189.943 569.061C142.542 525.524 78.7459 484.099 74.2222 423.229C69.7303 362.786 150.542 324.865 167.438 266.229C184.977 205.362 130.512 131.547 172.703 81.4602C213.912 32.5383 298.147 20.4181 365.167 31.494C427.811 41.8469 451.852 115.902 510.925 137.356C573.799 160.191 671.062 105.782 709.051 156.385C746.789 206.654 659.737 267.263 653.843 327.734C648.817 379.305 705.856 433.257 677.668 478.367C649.705 523.118 569.097 506.286 523.23 536.76Z" fill="#DFF5ED"/>
<path fill-rule="evenodd" clip-rule="evenodd" d="M1098.3 476.699C1045.49 486.441 995.772 473.182 943.802 460.263C884.436 445.505 806.45 447.867 780.227 397.627C753.996 347.374 813.185 297.201 830.931 244.02C850.76 184.598 832.163 108.111 888.659 72.6759C948.254 35.298 1036.05 42.4864 1098.13 76.4343C1153.82 106.893 1145.33 178.956 1176.93 230.319C1213.53 289.808 1315.32 330.21 1294.46 395.579C1273.78 460.377 1171.57 463.184 1098.3 476.699Z" fill="#B3E5ED"/>
<path fill-rule="evenodd" clip-rule="evenodd" d="M-209.697 467.146C-203.236 421.399 -213.967 376.115 -195.69 332.692C-171.741 275.793 -144.701 201.282 -91.0689 185.305C-37.4517 169.333 -6.5395 241.293 41.0991 262.153C85.1636 281.447 143.082 267.687 177.129 302.741C213.405 340.09 228.635 398.312 229.963 456.605C231.32 516.139 227.673 588.815 184.63 631.959C140.338 676.355 76.2382 658.102 20.2188 666.843C-13.2179 672.061 -44.6052 662.836 -77.7281 672.899C-131.386 689.2 -186.88 770.815 -231.088 743.188C-272.952 717.027 -234.676 634.338 -230.277 577.568C-227.363 539.959 -215.016 504.798 -209.697 467.146Z" fill="#E7D2D4"/>
</g>
<defs>
<clipPath id="clip0_3108_6745">
<rect width="754" height="842" fill="white"/>
</clipPath>
</defs>
</svg>
