<svg width="51" height="51" viewBox="0 0 51 51" fill="none" xmlns="http://www.w3.org/2000/svg">
<circle cx="9.5" cy="24.5" r="4.5" fill="#E66900"/>
<path d="M38.5 18L44.1292 27.75H32.8708L38.5 18Z" fill="#E66900"/>
<path d="M41.3073 6.375C40.6243 6.375 40.1423 7.04441 40.3589 7.69212L45.0192 21.6296C45.1556 22.0375 45.5375 22.3125 45.9676 22.3125H46.8125C47.3648 22.3125 47.8125 22.7602 47.8125 23.3125V25.1794C47.8125 25.3565 47.669 25.5 47.4919 25.5V25.5C47.3558 25.5 47.235 25.5862 47.1869 25.7136C46.8614 26.5766 46.4225 27.3687 45.8701 28.0898C45.2725 28.8701 44.5752 29.5425 43.7783 30.1069C42.9814 30.6714 42.1182 31.103 41.1885 31.4019C40.2588 31.7007 39.2793 31.8584 38.25 31.875C37.2373 31.875 36.2661 31.7256 35.3364 31.4268C34.4067 31.1279 33.5435 30.6963 32.7466 30.1318C31.9497 29.5674 31.2524 28.895 30.6548 28.1147C30.1012 27.392 29.6545 26.591 29.3145 25.7116C29.2656 25.5851 29.1451 25.5 29.0095 25.5V25.5C28.8317 25.5 28.6875 25.3558 28.6875 25.178V23.3125C28.6875 22.7602 29.1352 22.3125 29.6875 22.3125H30.5324C30.9625 22.3125 31.3444 22.0375 31.4808 21.6296L36.1411 7.69212C36.3577 7.04441 35.8757 6.375 35.1927 6.375H26.5C25.9477 6.375 25.5 6.82272 25.5 7.375V40.551C25.5 41.0778 25.909 41.512 26.433 41.5659C28.8626 41.8161 31.1747 42.4124 33.3691 43.355C35.7273 44.3679 37.8968 45.7655 39.8777 47.5478C40.0652 47.7165 40.3076 47.8125 40.5598 47.8125H43.625C44.1773 47.8125 44.625 48.2602 44.625 48.8125V50C44.625 50.5523 44.1773 51 43.625 51H4.1875C3.63522 51 3.1875 50.5523 3.1875 50V48.8125C3.1875 48.2602 3.63522 47.8125 4.1875 47.8125H7.25287C7.50496 47.8125 7.74723 47.7166 7.93472 47.5481C9.89998 45.7818 12.0612 44.3924 14.4185 43.3799C16.6162 42.4359 18.9384 41.8326 21.385 41.5701C21.9067 41.5141 22.3125 41.0808 22.3125 40.5562V7.375C22.3125 6.82272 21.8648 6.375 21.3125 6.375H12.6198C11.9368 6.375 11.4548 7.04441 11.6714 7.69212L16.3317 21.6296C16.4681 22.0375 16.85 22.3125 17.2801 22.3125H18.125C18.6773 22.3125 19.125 22.7602 19.125 23.3125V25.1794C19.125 25.3565 18.9815 25.5 18.8044 25.5V25.5C18.6683 25.5 18.5475 25.5862 18.4994 25.7136C18.1739 26.5766 17.735 27.3687 17.1826 28.0898C16.585 28.8701 15.8877 29.5425 15.0908 30.1069C14.2939 30.6714 13.4307 31.103 12.501 31.4019C11.5713 31.7007 10.5918 31.8584 9.5625 31.875C8.5498 31.875 7.57861 31.7256 6.64893 31.4268C5.71924 31.1279 4.85596 30.6963 4.05908 30.1318C3.26221 29.5674 2.56494 28.895 1.96729 28.1147C1.41371 27.392 0.966953 26.591 0.627021 25.7116C0.578144 25.5851 0.457551 25.5 0.321989 25.5V25.5C0.144159 25.5 0 25.3558 0 25.178V23.3125C0 22.7602 0.447715 22.3125 1 22.3125H1.84489C2.27498 22.3125 2.65689 22.0375 2.79328 21.6296L7.45363 7.69212C7.67021 7.04441 7.1882 6.375 6.50525 6.375H1C0.447715 6.375 0 5.92728 0 5.375V4.1875C0 3.63522 0.447715 3.1875 1 3.1875H21.3125C21.8648 3.1875 22.3125 2.73978 22.3125 2.1875V1C22.3125 0.447715 22.7602 0 23.3125 0H24.5C25.0523 0 25.5 0.447715 25.5 1V2.1875C25.5 2.73978 25.9477 3.1875 26.5 3.1875H46.8125C47.3648 3.1875 47.8125 3.63522 47.8125 4.1875V5.375C47.8125 5.92728 47.3648 6.375 46.8125 6.375H41.3073ZM10.5112 14.2513C10.2073 13.3396 8.91772 13.3396 8.61382 14.2513L6.3655 20.9963C6.14966 21.6438 6.63163 22.3125 7.31418 22.3125H11.8108C12.4934 22.3125 12.9753 21.6438 12.7595 20.9963L10.5112 14.2513ZM9.5625 28.6875C10.708 28.6875 11.7705 28.4053 12.75 27.8408C13.2226 27.5685 13.6488 27.2459 14.0287 26.873C14.5795 26.3324 14.1216 25.5 13.3498 25.5H5.77522C5.00343 25.5 4.5455 26.3324 5.0963 26.873C5.47615 27.2459 5.90238 27.5685 6.375 27.8408C7.35449 28.4053 8.41699 28.6875 9.5625 28.6875ZM31.4996 47.8125C32.5024 47.8125 32.8179 46.6051 31.8913 46.2215C31.1649 45.9208 30.4207 45.6626 29.6587 45.4468C27.7827 44.9155 25.8652 44.6416 23.9062 44.625C21.9473 44.625 20.0298 44.8906 18.1538 45.4219C17.3739 45.6427 16.6126 45.9095 15.87 46.2222C14.9492 46.6099 15.2681 47.8125 16.2672 47.8125H31.4996ZM39.1987 14.2513C38.8948 13.3396 37.6052 13.3396 37.3013 14.2513L35.053 20.9963C34.8372 21.6438 35.3191 22.3125 36.0017 22.3125H40.4983C41.1809 22.3125 41.6628 21.6438 41.447 20.9963L39.1987 14.2513ZM38.25 28.6875C39.3955 28.6875 40.458 28.4053 41.4375 27.8408C41.9101 27.5685 42.3363 27.2459 42.7162 26.873C43.267 26.3324 42.8091 25.5 42.0373 25.5H34.4627C33.6909 25.5 33.233 26.3324 33.7838 26.873C34.1637 27.2459 34.5899 27.5685 35.0625 27.8408C36.042 28.4053 37.1045 28.6875 38.25 28.6875Z" fill="#00A19B"/>
</svg>
