<svg width="138" height="187" viewBox="0 0 138 187" fill="none" xmlns="http://www.w3.org/2000/svg">
<rect x="64.5039" y="135.787" width="23.9735" height="49.4814" rx="3.51536" fill="#00ADB5" stroke="black" stroke-width="1.64486" stroke-linejoin="round"/>
<rect x="1.78906" y="150.075" width="23.9735" height="35.1931" rx="3.51536" fill="#EEEEEE" stroke="black" stroke-width="1.64486" stroke-linejoin="round"/>
<rect x="113.027" y="80.9351" width="23.9735" height="104.333" rx="3.51536" fill="#00ADB5" stroke="black" stroke-width="1.64486" stroke-linejoin="round"/>
<path d="M33.565 68.2342L58.2136 68.2342C58.2136 68.2342 54.2853 104.134 48.9389 110.02C43.5924 115.906 15.6111 132.048 15.6111 132.048L6.18776 126.264L23.7549 98.5983C23.7549 98.5983 21.823 87.8096 33.565 68.2342Z" fill="#00ADB5" stroke="black" stroke-width="1.39887"/>
<path d="M16.0095 131.724L6.18771 126.266L1.21684 131.618C1.21684 131.618 9.59663 136.475 15.443 138.379L12.9669 135.113L16.0095 131.724Z" fill="#EEEEEE" stroke="black" stroke-width="1.39887" stroke-linejoin="round"/>
<path d="M33.6697 67.7109L60.6015 67.6754C60.6015 67.6754 75.5728 80.8409 77.459 88.5655C79.3452 96.2901 77.1942 124.323 77.1942 124.323L66.3092 129.136L55.0718 99.5263C55.0718 99.5263 43.3227 88.3965 33.6697 67.7109Z" fill="#00ADB5"/>
<path d="M33.6697 67.7109L33.6688 67.0115C33.4299 67.0118 33.2077 67.134 33.0795 67.3356C32.9513 67.5372 32.9349 67.7902 33.0359 68.0067L33.6697 67.7109ZM60.6015 67.6754L61.0633 67.1502L60.8648 66.9757L60.6005 66.976L60.6015 67.6754ZM77.1942 124.323L77.477 124.963L77.8596 124.794L77.8916 124.377L77.1942 124.323ZM66.3092 129.136L65.6553 129.384L65.9172 130.074L66.5921 129.776L66.3092 129.136ZM55.0718 99.5263L55.7257 99.2781L55.6689 99.1285L55.5528 99.0185L55.0718 99.5263ZM33.6706 68.4104L60.6024 68.3749L60.6005 66.976L33.6688 67.0115L33.6706 68.4104ZM76.9114 123.684L66.0264 128.496L66.5921 129.776L77.477 124.963L76.9114 123.684ZM66.9632 128.888L55.7257 99.2781L54.4178 99.7745L65.6553 129.384L66.9632 128.888ZM55.0718 99.5263C55.5528 99.0185 55.5529 99.0186 55.5529 99.0186C55.5529 99.0186 55.5529 99.0186 55.5528 99.0185C55.5526 99.0183 55.5522 99.018 55.5517 99.0174C55.5506 99.0164 55.5488 99.0147 55.5463 99.0123C55.5413 99.0075 55.5335 99.0001 55.5229 98.9899C55.5018 98.9695 55.4696 98.9384 55.4268 98.8965C55.3412 98.8127 55.2131 98.6858 55.046 98.5164C54.7116 98.1775 54.2209 97.6682 53.6008 96.9915C52.3606 95.638 50.6031 93.6154 48.5443 90.9483C44.4262 85.6135 39.1046 77.7035 34.3035 67.4151L33.0359 68.0067C37.8878 78.4039 43.2673 86.4015 47.437 91.8031C49.522 94.5041 51.3051 96.5568 52.5695 97.9366C53.2017 98.6265 53.7043 99.1483 54.0502 99.4989C54.2231 99.6742 54.3569 99.8067 54.4481 99.896C54.4937 99.9406 54.5287 99.9745 54.5526 99.9975C54.5646 100.009 54.5738 100.018 54.5801 100.024C54.5833 100.027 54.5858 100.029 54.5876 100.031C54.5885 100.032 54.5892 100.033 54.5897 100.033C54.59 100.033 54.5902 100.034 54.5904 100.034C54.5906 100.034 54.5908 100.034 55.0718 99.5263ZM60.6015 67.6754C60.1396 68.2007 60.1396 68.2007 60.1396 68.2007C60.1397 68.2008 60.1398 68.2009 60.14 68.2011C60.1404 68.2014 60.141 68.2019 60.1418 68.2027C60.1435 68.2041 60.146 68.2064 60.1495 68.2094C60.1564 68.2155 60.1668 68.2247 60.1807 68.237C60.2084 68.2616 60.2499 68.2984 60.3042 68.3469C60.413 68.444 60.5732 68.5879 60.7782 68.774C61.1883 69.1464 61.777 69.6876 62.4897 70.3615C63.9156 71.7097 65.8352 73.5863 67.8119 75.7014C69.7902 77.8181 71.8166 80.1639 73.4614 82.451C75.117 84.7531 76.3409 86.935 76.7795 88.7314L78.1385 88.3996C77.634 86.3338 76.2792 83.9733 74.5971 81.6343C72.9043 79.2804 70.8341 76.8864 68.8339 74.7462C66.832 72.6043 64.8908 70.7067 63.4507 69.345C62.7304 68.6639 62.1347 68.1163 61.7186 67.7384C61.5106 67.5495 61.3474 67.403 61.2359 67.3034C61.1801 67.2537 61.1373 67.2156 61.1083 67.1899C61.0937 67.177 61.0827 67.1673 61.0751 67.1606C61.0714 67.1573 61.0685 67.1548 61.0665 67.153C61.0655 67.1522 61.0648 67.1515 61.0643 67.151C61.064 67.1508 61.0638 67.1506 61.0636 67.1505C61.0634 67.1503 61.0633 67.1502 60.6015 67.6754ZM76.7795 88.7314C77.2304 90.578 77.4504 93.7067 77.5141 97.4235C77.5773 101.12 77.4858 105.334 77.335 109.315C77.1843 113.294 76.9747 117.034 76.8028 119.779C76.7168 121.151 76.6403 122.274 76.5852 123.054C76.5577 123.445 76.5356 123.749 76.5204 123.955C76.5127 124.058 76.5068 124.137 76.5029 124.19C76.5009 124.217 76.4993 124.237 76.4983 124.25C76.4978 124.257 76.4974 124.262 76.4972 124.265C76.4971 124.267 76.497 124.268 76.4969 124.269C76.4969 124.269 76.4968 124.269 76.4968 124.27C76.4968 124.27 76.4968 124.27 77.1942 124.323C77.8916 124.377 77.8916 124.377 77.8916 124.376C77.8916 124.376 77.8917 124.376 77.8917 124.375C77.8918 124.375 77.8919 124.373 77.892 124.372C77.8923 124.368 77.8927 124.363 77.8932 124.356C77.8942 124.342 77.8958 124.322 77.8978 124.295C77.9018 124.242 77.9078 124.162 77.9154 124.058C77.9308 123.85 77.953 123.545 77.9806 123.153C78.0359 122.37 78.1127 121.243 78.1989 119.866C78.3713 117.114 78.5816 113.362 78.7329 109.368C78.8841 105.375 78.9766 101.132 78.9127 97.3995C78.8492 93.6875 78.6307 90.4153 78.1385 88.3996L76.7795 88.7314Z" fill="black"/>
<path fill-rule="evenodd" clip-rule="evenodd" d="M57.2921 23.7888C57.9047 23.5653 58.4881 23.2387 59.0204 22.7852C63.0387 19.3618 61.3157 14.1967 58.8838 11.5077C56.452 8.81868 41.5752 9.89128 48.5931 22.3484C48.6227 22.3662 48.6528 22.3842 48.6835 22.4022C49.4681 24.8988 48.8064 27.0403 48.0125 29.6097C47.6887 30.6576 47.3429 31.7768 47.0642 33.0202L54.5073 32.4869C56.5531 29.7089 57.3287 26.9087 57.2921 23.7888Z" fill="#F5B9AB"/>
<path d="M59.0204 22.7852L58.4871 22.1592L59.0204 22.7852ZM57.2921 23.7888L57.0103 23.0162C56.6824 23.1358 56.4657 23.4494 56.4698 23.7985L57.2921 23.7888ZM58.8838 11.5077L58.2739 12.0594L58.2739 12.0593L58.8838 11.5077ZM48.5931 22.3484L47.8766 22.7521C47.9463 22.8759 48.047 22.9796 48.1688 23.0529L48.5931 22.3484ZM48.6835 22.4022L49.4681 22.1556C49.407 21.9612 49.2759 21.7963 49.1001 21.6931L48.6835 22.4022ZM48.0125 29.6097L47.2267 29.3669L47.2267 29.3669L48.0125 29.6097ZM47.0642 33.0202L46.2617 32.8404C46.2048 33.0942 46.2713 33.3599 46.441 33.5569C46.6107 33.754 46.8636 33.8592 47.123 33.8406L47.0642 33.0202ZM54.5073 32.4869L54.566 33.3073C54.8062 33.29 55.0267 33.1685 55.1695 32.9746L54.5073 32.4869ZM58.4871 22.1592C58.0338 22.5453 57.5369 22.8241 57.0103 23.0162L57.574 24.5614C58.2726 24.3066 58.9424 23.9321 59.5538 23.4112L58.4871 22.1592ZM58.2739 12.0593C59.3941 13.298 60.3437 15.1062 60.5537 16.9635C60.7595 18.7828 60.262 20.647 58.4871 22.1592L59.5538 23.4112C61.7972 21.5 62.4473 19.0699 62.1882 16.7786C61.9333 14.5252 60.8054 12.4064 59.4938 10.9561L58.2739 12.0593ZM49.3097 21.9447C47.6105 18.9287 47.3203 16.7472 47.697 15.2177C48.0681 13.7104 49.1312 12.6616 50.5467 11.9916C51.9738 11.3161 53.7018 11.0593 55.2212 11.1367C55.9774 11.1753 56.6571 11.2955 57.2011 11.4726C57.7603 11.6546 58.1058 11.8735 58.2739 12.0594L59.4938 10.9561C59.0539 10.4696 58.4025 10.1338 57.7101 9.90849C57.0025 9.67817 56.1758 9.53838 55.305 9.49399C53.5703 9.40555 51.5618 9.69126 49.843 10.5049C48.1125 11.324 46.6203 12.711 46.0998 14.8244C45.5849 16.9156 46.0668 19.5396 47.8766 22.7521L49.3097 21.9447ZM49.1001 21.6931C49.072 21.6765 49.0444 21.6602 49.0175 21.6439L48.1688 23.0529C48.201 23.0723 48.2337 23.0918 48.2669 23.1113L49.1001 21.6931ZM48.7983 29.8525C49.5815 27.3175 50.3407 24.9323 49.4681 22.1556L47.8989 22.6488C48.5955 24.8653 48.0313 26.763 47.2267 29.3669L48.7983 29.8525ZM47.8667 33.2001C48.1373 31.9928 48.4736 30.9031 48.7983 29.8525L47.2267 29.3669C46.9037 30.4121 46.5484 31.5607 46.2617 32.8404L47.8667 33.2001ZM54.4485 31.6666L47.0054 32.1999L47.123 33.8406L54.566 33.3073L54.4485 31.6666ZM56.4698 23.7985C56.5044 26.7528 55.7772 29.3755 53.845 31.9992L55.1695 32.9746C57.3289 30.0424 58.153 27.0646 58.1145 23.7792L56.4698 23.7985Z" fill="black"/>
<path d="M47.2581 14.826C46.0934 16.4464 47.3479 20.4485 48.2735 21.4496C40.604 17.194 45.4594 7.59242 47.8258 9.34332C48.2115 5.7935 52.2847 4.54104 55.0615 7.54325C62.0232 1.92123 62.3894 11.501 59.9322 12.9578C57.475 14.4147 54.4938 13.0273 52.9466 13.7786C51.3995 14.5298 50.4447 19.0805 49.9436 16.5548C49.4424 14.0291 48.714 12.8005 47.2581 14.826Z" fill="#00ADB5" stroke="black" stroke-width="1.64486"/>
<path d="M61.5023 68.2854C69.5298 62.9464 66.1798 44.4968 65.0377 39.2513C64.8322 38.3075 64.528 37.4022 64.1588 36.5097C61.1245 29.1743 53.6384 23.2661 46.4687 26.6735C31.1969 33.9315 33.4673 57.083 33.6115 68.4589L61.5023 68.2854Z" fill="#EEEEEE" stroke="black" stroke-width="1.64486" stroke-linejoin="round"/>
<path d="M85.6491 43.3208L79.2058 35.4579L57.4962 50.6469L50.4795 36.5232L41.3937 50.6468C41.3937 50.6468 51.2367 65.9339 56.2367 65.4898C65.3487 64.6804 85.6491 43.3208 85.6491 43.3208Z" fill="#EEEEEE"/>
<path d="M50.9608 37.5539L57.4356 50.2134L79.2063 35.4583L85.6495 43.3212C85.6495 43.3212 66.5126 64.5486 55.3295 65.542C51.8098 65.8546 41.5555 50.494 41.5555 50.494" stroke="black" stroke-width="1.64486"/>
<path d="M81.3464 34.0391L78.7944 35.677L85.2005 43.7933L87.2154 42.1609C89.359 40.4243 89.6987 37.2828 87.9756 35.1282C86.3708 33.1212 83.5091 32.6511 81.3464 34.0391Z" fill="#F5B9AB" stroke="black" stroke-width="1.64486" stroke-linejoin="round"/>
<path d="M77.326 123.302L66.3092 129.046L68.2041 136.224L82.9145 127.165L78.586 127.752L77.326 123.302Z" fill="#EEEEEE" stroke="black" stroke-width="1.39887" stroke-linejoin="round"/>
</svg>
