<svg width="1282" height="1002" viewBox="0 0 1282 1002" fill="none" xmlns="http://www.w3.org/2000/svg">
<g clip-path="url(#clip0_1240_8459)">
<rect width="1282" height="1002" fill="#81B1CF"/>
<path fill-rule="evenodd" clip-rule="evenodd" d="M651.44 654.135C576.034 704.235 553.92 824.174 460.787 833.201C373.784 841.633 317.769 748.701 256.485 692.413C200.313 640.82 124.713 591.73 119.352 519.597C114.029 447.971 209.793 403.032 229.816 333.547C250.6 261.418 186.058 173.945 236.055 114.591C284.889 56.6168 384.71 42.2539 464.13 55.3792C538.366 67.6477 566.856 155.406 636.858 180.829C711.366 207.889 826.626 143.413 871.644 203.379C916.364 262.949 813.205 334.773 806.221 406.432C800.264 467.546 867.857 531.481 834.454 584.938C801.317 637.969 705.794 618.022 651.44 654.135Z" fill="#DFF5ED"/>
<path fill-rule="evenodd" clip-rule="evenodd" d="M236.078 962.477C175.53 968.759 114.39 941.957 50.6514 915.311C-22.1576 884.874 -113.785 876.613 -154.021 799.398C-194.269 722.162 -133.661 657.867 -122.534 582.963C-110.1 499.267 -146.181 384.913 -86.0296 341.711C-22.58 296.138 82.392 319.803 161.947 378.637C233.324 431.424 236.609 535.259 283.396 614.918C337.586 707.181 465.216 781.39 452.662 873.605C440.217 965.012 320.073 953.763 236.078 962.477Z" fill="#F4EC9A"/>
<path fill-rule="evenodd" clip-rule="evenodd" d="M1176.83 586.233C1114.24 597.778 1055.33 582.066 993.739 566.756C923.388 549.267 830.973 552.067 799.897 492.531C768.813 432.979 838.954 373.523 859.983 310.502C883.481 240.084 861.443 149.445 928.393 107.454C999.014 63.1597 1103.05 71.6781 1176.62 111.907C1242.62 148.002 1232.56 233.399 1270 294.265C1313.37 364.762 1434 412.639 1409.27 490.104C1384.77 566.891 1263.65 570.217 1176.83 586.233Z" fill="#B3E5ED"/>
<path fill-rule="evenodd" clip-rule="evenodd" d="M1179.62 883.225C1128.67 903.255 1088.23 940.748 1032.78 947.236C960.115 955.738 867.486 971.329 819.711 925.336C771.95 879.356 828.131 805.482 821.847 744.175C816.034 687.468 768.044 635.76 784.331 580.19C801.684 520.98 852.847 471.296 912.195 435.91C972.807 399.771 1049.89 361.124 1119.51 380.342C1191.14 400.118 1209.72 476.881 1251.43 529.559C1276.32 561 1285.12 598.756 1314.83 627.047C1362.95 672.878 1479.51 682.488 1476.82 744.205C1474.26 802.65 1366.64 811.425 1305.52 840.015C1265.03 858.955 1221.56 866.738 1179.62 883.225Z" fill="#E7D2D4"/>
</g>
<defs>
<clipPath id="clip0_1240_8459">
<rect width="1282" height="1002" fill="white"/>
</clipPath>
</defs>
</svg>
