<svg width="36" height="36" viewBox="0 0 36 36" fill="none" xmlns="http://www.w3.org/2000/svg">
<circle cx="18" cy="18" r="18" fill="white"/>
<path d="M19.648 28.7459C21.7022 28.3262 23.025 26.3229 22.6052 24.2687L21.3778 18.2588L13.9434 19.7788L15.1708 25.7887C15.5905 27.8428 17.5938 29.1657 19.648 28.7459Z" fill="#FCC9A7"/>
<path d="M21.8873 20.3574C21.8873 20.3574 21.1051 25.2289 17.3147 25.5215C13.9949 25.7759 14.3129 20.9743 14.3129 20.9743L21.8873 20.3574Z" fill="#F4BE9A"/>
<path d="M17.6126 22.8511L18.2676 22.6984C21.5556 21.9353 23.6034 18.6537 22.8402 15.3721L21.9753 11.6262C21.2121 8.33826 17.9306 6.29045 14.649 7.05361L13.9939 7.20624C10.7059 7.96941 8.65812 11.251 9.42129 14.5326L10.2862 18.2785C11.0494 21.5664 14.331 23.6142 17.6126 22.8511Z" fill="#FCC9A7"/>
<path d="M20.7863 15.0408C20.7863 15.0408 17.918 14.0932 18.4014 9.90217C18.4014 9.90217 11.2785 16.6434 6 11.6956C6 11.6956 8.35948 11.066 9.33251 9.45064C11.1069 6.5061 16.2073 2.44863 20.2902 7.14207C20.2902 7.14207 25.2571 6.37255 23.8326 14.0233L20.7863 15.0408Z" fill="#C5CACC"/>
<path d="M20.7858 15.0404C21.0593 16.2106 22.2295 16.942 23.3997 16.6749C24.5762 16.4014 25.3012 15.2312 25.0341 14.061C24.7606 12.8909 23.5905 12.1595 22.4203 12.4266C21.2437 12.7001 20.5124 13.8702 20.7858 15.0404Z" fill="#FCC9A7"/>
<path d="M17.1618 28.5107L20.2335 28.568L18.084 33.0198L15.7627 28.7524L17.1618 28.5107Z" fill="#00A09B"/>
<path d="M22.8668 24.0144L18.9111 28.6315L21.4868 31.5888L26.2248 25.0764C26.2248 25.0764 25.0101 23.124 22.8668 24.0144Z" fill="#EEE7E3"/>
<path d="M17.1626 28.5105L14.8859 31.0798L13.2832 27.0732C13.2832 27.0732 13.703 25.2734 15.0131 25.6168L17.1626 28.5105Z" fill="#EEE7E3"/>
<path d="M21.0383 17.8302C20.8503 18.0667 20.6496 18.4363 20.5146 19.0209C20.3508 19.762 19.8713 20.4194 19.1824 20.7448C17.2044 21.6826 16.2588 18.4572 13.5129 18.6105C13.5129 18.6105 12.4453 18.6185 12.071 19.7534C11.6976 20.8821 10.5332 18.6469 10.4102 17.216C10.2872 15.785 8.94493 24.0026 15.6175 24.2438C15.6175 24.2438 18.9506 24.6113 21.6691 21.5502C21.9677 21.2139 22.1746 20.8002 22.2512 20.355C22.3646 19.6967 22.4133 18.6822 21.8864 17.8744C21.7039 17.5785 21.2578 17.5532 21.0383 17.8302Z" fill="#C5CACC"/>
</svg>
