<svg width="56" height="75" viewBox="0 0 56 75" fill="none" xmlns="http://www.w3.org/2000/svg">
<g clip-path="url(#clip0_1765_5550)">
<path d="M37.1606 63.4022C42.7537 62.2815 46.3555 56.9327 45.2127 51.448L41.8705 35.4014L21.6279 39.4597L24.97 55.5063C26.1128 60.991 31.5674 64.523 37.1606 63.4022Z" fill="#FCC9A7"/>
<path d="M43.2584 41.0049C43.2584 41.0049 41.1285 54.012 30.808 54.7931C21.7689 55.4723 22.6347 42.652 22.6347 42.652L43.2584 41.0049Z" fill="#F4BE9A"/>
<path d="M31.6177 47.6628L33.4013 47.2552C42.3538 45.2176 47.9297 36.4556 45.8517 27.6937L43.4966 17.6922C41.4187 8.91324 32.4836 3.44551 23.5484 5.48318L21.7648 5.89071C12.8122 7.92837 7.2364 16.6903 9.31435 25.4523L11.6694 35.4538C13.7474 44.2327 22.6825 49.7004 31.6177 47.6628Z" fill="#FCC9A7"/>
<path d="M40.2603 26.8092C40.2603 26.8092 32.4507 24.2791 33.7667 13.0889C33.7667 13.0889 14.3725 31.0883 0 17.8774C0 17.8774 6.42442 16.1964 9.07381 11.8833C13.9051 4.02133 27.7927 -6.81223 38.9097 5.71939C38.9097 5.71939 52.4337 3.66474 48.5549 24.0923L40.2603 26.8092Z" fill="#C5CACC"/>
<path d="M40.2596 26.808C41.0042 29.9324 44.1904 31.8852 47.3766 31.172C50.5801 30.4418 52.5541 27.3174 51.8268 24.193C51.0822 21.0686 47.8961 19.1158 44.7099 19.829C41.5064 20.5592 39.515 23.6836 40.2596 26.808Z" fill="#FCC9A7"/>
<path d="M30.3916 62.7744L38.7553 62.9272L32.9024 74.8136L26.582 63.4197L30.3916 62.7744Z" fill="#00A09B"/>
<path d="M45.925 50.7686L35.1543 63.0964L42.1674 70.9924L55.068 53.6043C55.068 53.6043 51.7605 48.3913 45.925 50.7686Z" fill="#EEE7E3"/>
<path d="M30.3921 62.7736L24.1928 69.6337L19.8291 58.936C19.8291 58.936 20.972 54.1305 24.5392 55.0475L30.3921 62.7736Z" fill="#EEE7E3"/>
<path d="M40.9482 34.2571C40.4363 34.8886 39.89 35.8755 39.5224 37.4364C39.0763 39.415 37.7708 41.1702 35.8948 42.0393C30.5093 44.5431 27.9345 35.9312 20.458 36.3406C20.458 36.3406 17.5511 36.3618 16.5319 39.3922C15.5151 42.4058 12.3447 36.4378 12.0099 32.6171C11.675 28.7964 8.02013 50.7375 26.1883 51.3816C26.1883 51.3816 35.2638 52.3628 42.6657 44.1896C43.4789 43.2916 44.0422 42.1871 44.2506 40.9984C44.5594 39.2406 44.6921 36.5318 43.2574 34.3752C42.7605 33.585 41.5459 33.5176 40.9482 34.2571Z" fill="#C5CACC"/>
</g>
<defs>
<clipPath id="clip0_1765_5550">
<rect width="55.068" height="74.8136" fill="white"/>
</clipPath>
</defs>
</svg>
