<svg width="493" height="489" viewBox="0 0 493 489" fill="none" xmlns="http://www.w3.org/2000/svg">
<path d="M233.616 227.923L45.4824 97.4141V435.414H485.482V248.371H375.176L233.616 227.923Z" fill="#F6DA76" fill-opacity="0.6"/>
<path d="M486.482 13.4141V13.4141H45.4824V13.4141H486.482Z" fill="#797979" stroke="#787878"/>
<path d="M486.482 97.4141V97.4141H45.4824V97.4141H486.482Z" fill="#797979" stroke="#787878"/>
<path d="M486.482 181.414V182.414H45.4824V181.414H486.482Z" fill="#7E7E7E" fill-opacity="0.94"/>
<path d="M486.482 265.414V266.414H45.4824V265.414H486.482Z" fill="#7E7E7E" fill-opacity="0.94"/>
<path d="M486.482 349.414V350.414H45.4824V349.414H486.482Z" fill="#7E7E7E" fill-opacity="0.94"/>
<path d="M486.482 434.414V435.414H45.4824V434.414H486.482Z" fill="#44463F"/>
<path d="M17.4824 425.596V428.119C17.4824 429.475 17.3549 430.619 17.0998 431.55C16.8447 432.482 16.4781 433.232 15.9998 433.8C15.5216 434.369 14.9437 434.781 14.2661 435.039C13.5966 435.289 12.8393 435.414 11.9944 435.414C11.3248 435.414 10.7071 435.335 10.1411 435.175C9.57518 435.016 9.06503 434.763 8.61068 434.414C8.16431 434.058 7.7817 433.596 7.46286 433.028C7.14402 432.46 6.9009 431.77 6.73351 430.96C6.56612 430.149 6.48242 429.202 6.48242 428.119V425.596C6.48242 424.24 6.60996 423.103 6.86503 422.187C7.12807 421.27 7.49873 420.535 7.97699 419.982C8.45525 419.422 9.02916 419.02 9.69873 418.778C10.3763 418.535 11.1335 418.414 11.9705 418.414C12.648 418.414 13.2697 418.494 13.8357 418.653C14.4096 418.804 14.9197 419.05 15.3661 419.391C15.8125 419.725 16.1911 420.172 16.502 420.732C16.8208 421.285 17.0639 421.963 17.2313 422.766C17.3987 423.569 17.4824 424.513 17.4824 425.596ZM15.2585 428.46V425.244C15.2585 424.501 15.2107 423.85 15.115 423.289C15.0273 422.721 14.8958 422.236 14.7205 421.835C14.5451 421.433 14.3219 421.107 14.0509 420.857C13.7879 420.607 13.481 420.425 13.1302 420.312C12.7875 420.191 12.4009 420.13 11.9705 420.13C11.4444 420.13 10.9781 420.225 10.5716 420.414C10.165 420.596 9.82228 420.888 9.54329 421.289C9.27228 421.691 9.06503 422.217 8.92155 422.869C8.77807 423.52 8.70633 424.312 8.70633 425.244V428.46C8.70633 429.202 8.75018 429.857 8.83786 430.425C8.93351 430.994 9.073 431.486 9.25633 431.903C9.43967 432.312 9.66286 432.649 9.9259 432.914C10.1889 433.179 10.4918 433.376 10.8346 433.505C11.1853 433.626 11.5719 433.687 11.9944 433.687C12.5364 433.687 13.0107 433.588 13.4172 433.391C13.8237 433.194 14.1625 432.888 14.4335 432.471C14.7125 432.047 14.9197 431.505 15.0552 430.846C15.1908 430.179 15.2585 429.384 15.2585 428.46Z" fill="#4A4A4A"/>
<path d="M53.4332 472.92L47.7892 488.414H45.4824L51.9813 471.414H53.4684L53.4332 472.92ZM58.1639 488.414L52.5082 472.92L52.4731 471.414H53.9602L60.4824 488.414H58.1639ZM57.8712 482.121V483.966H48.2927V482.121H57.8712Z" fill="#4A4A4A"/>
<path d="M264.767 480.463H260.299L260.275 478.653H264.331C265.001 478.653 265.586 478.544 266.087 478.326C266.587 478.108 266.975 477.797 267.249 477.392C267.532 476.98 267.673 476.489 267.673 475.921C267.673 475.298 267.548 474.792 267.298 474.403C267.056 474.006 266.68 473.718 266.172 473.539C265.671 473.352 265.033 473.259 264.258 473.259H260.819V488.414H258.482V471.414H264.258C265.163 471.414 265.97 471.504 266.68 471.683C267.391 471.854 267.992 472.126 268.484 472.5C268.985 472.866 269.364 473.333 269.623 473.901C269.881 474.469 270.01 475.15 270.01 475.944C270.01 476.645 269.825 477.279 269.453 477.847C269.082 478.408 268.565 478.867 267.903 479.225C267.249 479.583 266.482 479.813 265.603 479.914L264.767 480.463ZM264.658 488.414H259.378L260.698 486.581H264.658C265.401 486.581 266.03 486.456 266.547 486.207C267.072 485.958 267.471 485.608 267.746 485.157C268.02 484.697 268.157 484.156 268.157 483.534C268.157 482.903 268.04 482.358 267.806 481.899C267.572 481.44 267.205 481.086 266.704 480.836C266.204 480.587 265.558 480.463 264.767 480.463H261.437L261.461 478.653H266.014L266.511 479.307C267.358 479.377 268.077 479.61 268.666 480.007C269.255 480.397 269.703 480.895 270.01 481.502C270.325 482.109 270.482 482.779 270.482 483.51C270.482 484.569 270.24 485.464 269.756 486.196C269.28 486.92 268.606 487.472 267.734 487.854C266.862 488.227 265.837 488.414 264.658 488.414Z" fill="#4A4A4A"/>
<path d="M484.342 488.414H480.592L480.617 486.581H484.342C485.625 486.581 486.694 486.328 487.549 485.822C488.404 485.308 489.045 484.592 489.473 483.674C489.909 482.747 490.127 481.665 490.127 480.428V479.389C490.127 478.416 490.003 477.552 489.757 476.797C489.51 476.034 489.148 475.392 488.671 474.87C488.194 474.341 487.611 473.94 486.92 473.667C486.237 473.395 485.452 473.259 484.564 473.259H480.518V471.414H484.564C485.74 471.414 486.813 471.601 487.783 471.975C488.753 472.34 489.588 472.874 490.287 473.574C490.994 474.267 491.537 475.108 491.915 476.096C492.293 477.077 492.482 478.182 492.482 479.412V480.428C492.482 481.658 492.293 482.767 491.915 483.755C491.537 484.736 490.99 485.573 490.275 486.266C489.567 486.958 488.712 487.492 487.709 487.865C486.714 488.231 485.592 488.414 484.342 488.414ZM481.863 471.414V488.414H479.482V471.414H481.863Z" fill="#4A4A4A"/>
<path d="M45.5905 97.6701C45.7805 97.3992 46.1554 97.3326 46.4276 97.5217L233.93 227.816L374.922 248.217H484.881C485.213 248.217 485.482 248.485 485.482 248.816C485.482 249.146 485.213 249.414 484.881 249.414H374.833L374.79 249.408L233.616 228.98L233.475 228.96L233.359 228.878L45.7396 98.5035C45.4675 98.3143 45.4006 97.9411 45.5905 97.6701Z" fill="#FFCC23"/>
<path d="M25.0442 343.911V346.517C25.0442 347.917 24.919 349.099 24.6686 350.061C24.4183 351.023 24.0584 351.798 23.5889 352.385C23.1195 352.971 22.5522 353.398 21.8872 353.664C21.23 353.922 20.4867 354.051 19.6574 354.051C19.0001 354.051 18.3938 353.969 17.8383 353.805C17.2828 353.64 16.782 353.378 16.3361 353.018C15.8979 352.651 15.5224 352.173 15.2094 351.587C14.8965 351 14.6578 350.288 14.4935 349.451C14.3292 348.613 14.2471 347.636 14.2471 346.517V343.911C14.2471 342.511 14.3723 341.337 14.6226 340.39C14.8808 339.444 15.2446 338.685 15.7141 338.114C16.1835 337.535 16.7468 337.12 17.404 336.87C18.0691 336.619 18.8124 336.494 19.6339 336.494C20.2989 336.494 20.9092 336.576 21.4647 336.741C22.028 336.897 22.5288 337.151 22.9669 337.503C23.405 337.848 23.7767 338.309 24.0818 338.888C24.3948 339.459 24.6334 340.16 24.7977 340.989C24.962 341.818 25.0442 342.792 25.0442 343.911ZM22.8613 346.869V343.547C22.8613 342.781 22.8143 342.108 22.7205 341.529C22.6344 340.942 22.5053 340.441 22.3332 340.027C22.161 339.612 21.942 339.276 21.6759 339.017C21.4178 338.759 21.1165 338.571 20.7723 338.454C20.4358 338.329 20.0564 338.266 19.6339 338.266C19.1175 338.266 18.6598 338.364 18.2608 338.56C17.8618 338.747 17.5253 339.049 17.2515 339.463C16.9855 339.878 16.782 340.422 16.6412 341.095C16.5004 341.768 16.43 342.585 16.43 343.547V346.869C16.43 347.636 16.473 348.312 16.5591 348.899C16.6529 349.486 16.7899 349.994 16.9698 350.425C17.1498 350.847 17.3688 351.195 17.627 351.469C17.8852 351.743 18.1825 351.947 18.519 352.08C18.8632 352.205 19.2427 352.267 19.6574 352.267C20.1894 352.267 20.6549 352.166 21.0539 351.962C21.453 351.759 21.7855 351.442 22.0515 351.012C22.3253 350.573 22.5288 350.014 22.6618 349.333C22.7948 348.645 22.8613 347.823 22.8613 346.869Z" fill="#4A4A4A"/>
<path d="M7.93344 336.635V353.816H5.76229V339.346L1.38477 340.942V338.982L7.5931 336.635H7.93344Z" fill="#4A4A4A"/>
<path d="M25.0442 259.788V262.393C25.0442 263.794 24.919 264.975 24.6686 265.937C24.4183 266.9 24.0584 267.674 23.5889 268.261C23.1195 268.848 22.5522 269.274 21.8872 269.54C21.23 269.799 20.4867 269.928 19.6574 269.928C19.0001 269.928 18.3938 269.845 17.8383 269.681C17.2828 269.517 16.782 269.255 16.3361 268.895C15.8979 268.527 15.5224 268.05 15.2094 267.463C14.8965 266.876 14.6578 266.164 14.4935 265.327C14.3292 264.49 14.2471 263.512 14.2471 262.393V259.788C14.2471 258.387 14.3723 257.214 14.6226 256.267C14.8808 255.32 15.2446 254.561 15.7141 253.99C16.1835 253.411 16.7468 252.997 17.404 252.746C18.0691 252.496 18.8124 252.371 19.6339 252.371C20.2989 252.371 20.9092 252.453 21.4647 252.617C22.028 252.774 22.5288 253.028 22.9669 253.38C23.405 253.724 23.7767 254.186 24.0818 254.765C24.3948 255.336 24.6334 256.036 24.7977 256.865C24.962 257.695 25.0442 258.669 25.0442 259.788ZM22.8613 262.745V259.424C22.8613 258.657 22.8143 257.984 22.7205 257.405C22.6344 256.819 22.5053 256.318 22.3332 255.903C22.161 255.488 21.942 255.152 21.6759 254.894C21.4178 254.636 21.1165 254.448 20.7723 254.331C20.4358 254.205 20.0564 254.143 19.6339 254.143C19.1175 254.143 18.6598 254.241 18.2608 254.436C17.8618 254.624 17.5253 254.925 17.2515 255.34C16.9855 255.754 16.782 256.298 16.6412 256.971C16.5004 257.644 16.43 258.462 16.43 259.424V262.745C16.43 263.512 16.473 264.189 16.5591 264.776C16.6529 265.362 16.7899 265.871 16.9698 266.301C17.1498 266.724 17.3688 267.072 17.627 267.346C17.8852 267.62 18.1825 267.823 18.519 267.956C18.8632 268.081 19.2427 268.144 19.6574 268.144C20.1894 268.144 20.6549 268.042 21.0539 267.839C21.453 267.635 21.7855 267.318 22.0515 266.888C22.3253 266.45 22.5288 265.89 22.6618 265.21C22.7948 264.521 22.8613 263.7 22.8613 262.745Z" fill="#4A4A4A"/>
<path d="M11.9944 267.909V269.693H0.810053V268.132L6.40812 261.9C7.09663 261.133 7.62866 260.484 8.00421 259.952C8.38759 259.412 8.6536 258.931 8.80226 258.509C8.95874 258.078 9.03698 257.64 9.03698 257.194C9.03698 256.631 8.91962 256.122 8.6849 255.668C8.458 255.207 8.12157 254.839 7.6756 254.565C7.22964 254.291 6.68978 254.154 6.05604 254.154C5.29711 254.154 4.66337 254.303 4.15481 254.6C3.65407 254.89 3.27852 255.297 3.02815 255.821C2.77779 256.345 2.6526 256.948 2.6526 257.628H0.481445C0.481445 256.666 0.692693 255.786 1.11519 254.988C1.53768 254.19 2.1636 253.556 2.99295 253.087C3.82229 252.609 4.84332 252.371 6.05604 252.371C7.13575 252.371 8.05898 252.562 8.82573 252.946C9.59248 253.321 10.1793 253.853 10.5861 254.542C11.0008 255.222 11.2081 256.02 11.2081 256.936C11.2081 257.437 11.1221 257.945 10.9499 258.462C10.7856 258.97 10.5548 259.479 10.2575 259.987C9.96803 260.496 9.62769 260.997 9.23649 261.489C8.85311 261.982 8.44235 262.467 8.00421 262.945L3.42718 267.909H11.9944Z" fill="#4A4A4A"/>
<path d="M25.0442 175.664V178.27C25.0442 179.67 24.919 180.852 24.6686 181.814C24.4183 182.776 24.0584 183.551 23.5889 184.138C23.1195 184.724 22.5522 185.151 21.8872 185.417C21.23 185.675 20.4867 185.804 19.6574 185.804C19.0001 185.804 18.3938 185.722 17.8383 185.558C17.2828 185.393 16.782 185.131 16.3361 184.771C15.8979 184.404 15.5224 183.926 15.2094 183.34C14.8965 182.753 14.6578 182.041 14.4935 181.204C14.3292 180.366 14.2471 179.388 14.2471 178.27V175.664C14.2471 174.264 14.3723 173.09 14.6226 172.143C14.8808 171.197 15.2446 170.438 15.7141 169.867C16.1835 169.288 16.7468 168.873 17.404 168.623C18.0691 168.372 18.8124 168.247 19.6339 168.247C20.2989 168.247 20.9092 168.329 21.4647 168.494C22.028 168.65 22.5288 168.904 22.9669 169.256C23.405 169.601 23.7767 170.062 24.0818 170.641C24.3948 171.212 24.6334 171.913 24.7977 172.742C24.962 173.571 25.0442 174.545 25.0442 175.664ZM22.8613 178.622V175.3C22.8613 174.534 22.8143 173.861 22.7205 173.282C22.6344 172.695 22.5053 172.194 22.3332 171.78C22.161 171.365 21.942 171.028 21.6759 170.77C21.4178 170.512 21.1165 170.324 20.7723 170.207C20.4358 170.082 20.0564 170.019 19.6339 170.019C19.1175 170.019 18.6598 170.117 18.2608 170.313C17.8618 170.5 17.5253 170.802 17.2515 171.216C16.9855 171.631 16.782 172.175 16.6412 172.848C16.5004 173.52 16.43 174.338 16.43 175.3V178.622C16.43 179.388 16.473 180.065 16.5591 180.652C16.6529 181.239 16.7899 181.747 16.9698 182.178C17.1498 182.6 17.3688 182.948 17.627 183.222C17.8852 183.496 18.1825 183.699 18.519 183.832C18.8632 183.958 19.2427 184.02 19.6574 184.02C20.1894 184.02 20.6549 183.919 21.0539 183.715C21.453 183.512 21.7855 183.195 22.0515 182.764C22.3253 182.326 22.5288 181.767 22.6618 181.086C22.7948 180.398 22.8613 179.576 22.8613 178.622Z" fill="#4A4A4A"/>
<path d="M3.96702 175.958H5.51616C6.27509 175.958 6.90101 175.832 7.39392 175.582C7.89466 175.324 8.2663 174.976 8.50884 174.538C8.75921 174.092 8.88439 173.591 8.88439 173.035C8.88439 172.378 8.77486 171.827 8.55578 171.381C8.33671 170.935 8.00811 170.598 7.56996 170.371C7.13182 170.144 6.57632 170.031 5.90345 170.031C5.29318 170.031 4.75333 170.152 4.28389 170.395C3.82227 170.629 3.45846 170.966 3.19244 171.404C2.93425 171.842 2.80515 172.359 2.80515 172.953H0.633996C0.633996 172.085 0.853068 171.295 1.29121 170.583C1.72935 169.871 2.34354 169.303 3.13376 168.881C3.93181 168.458 4.85504 168.247 5.90345 168.247C6.93622 168.247 7.83989 168.431 8.61446 168.799C9.38904 169.159 9.99149 169.698 10.4218 170.418C10.8521 171.13 11.0673 172.018 11.0673 173.082C11.0673 173.513 10.9656 173.974 10.7621 174.467C10.5665 174.952 10.2575 175.406 9.83501 175.829C9.42034 176.251 8.88048 176.599 8.21544 176.873C7.5504 177.139 6.75236 177.272 5.8213 177.272H3.96702V175.958ZM3.96702 177.741V176.439H5.8213C6.90884 176.439 7.80859 176.568 8.52058 176.826C9.23256 177.084 9.79197 177.429 10.1988 177.859C10.6135 178.289 10.903 178.763 11.0673 179.279C11.2394 179.787 11.3255 180.296 11.3255 180.805C11.3255 181.603 11.1886 182.311 10.9147 182.929C10.6487 183.547 10.2692 184.071 9.77633 184.501C9.29124 184.932 8.72009 185.256 8.06287 185.475C7.40566 185.695 6.68976 185.804 5.91519 185.804C5.17191 185.804 4.47166 185.698 3.81445 185.487C3.16506 185.276 2.58999 184.971 2.08926 184.572C1.58852 184.165 1.19732 183.668 0.915659 183.081C0.633996 182.487 0.493164 181.81 0.493164 181.051H2.66432C2.66432 181.646 2.79342 182.166 3.05161 182.612C3.31762 183.058 3.69318 183.406 4.17826 183.656C4.67117 183.899 5.25015 184.02 5.91519 184.02C6.58023 184.02 7.15138 183.907 7.62864 183.68C8.11373 183.445 8.48537 183.093 8.74356 182.624C9.00958 182.154 9.14258 181.563 9.14258 180.852C9.14258 180.14 8.99393 179.557 8.69662 179.103C8.3993 178.641 7.97681 178.301 7.42913 178.082C6.88928 177.855 6.25162 177.741 5.51616 177.741H3.96702Z" fill="#4A4A4A"/>
<path d="M25.0442 91.5407V94.1461C25.0442 95.5466 24.919 96.728 24.6686 97.6903C24.4183 98.6527 24.0584 99.4273 23.5889 100.014C23.1195 100.601 22.5522 101.027 21.8872 101.293C21.23 101.551 20.4867 101.681 19.6574 101.681C19.0001 101.681 18.3938 101.598 17.8383 101.434C17.2828 101.27 16.782 101.008 16.3361 100.648C15.8979 100.28 15.5224 99.8028 15.2094 99.216C14.8965 98.6292 14.6578 97.9172 14.4935 97.0801C14.3292 96.2429 14.2471 95.2649 14.2471 94.1461V91.5407C14.2471 90.1402 14.3723 88.9666 14.6226 88.0199C14.8808 87.0732 15.2446 86.3143 15.7141 85.7431C16.1835 85.1641 16.7468 84.7495 17.404 84.4991C18.0691 84.2487 18.8124 84.1235 19.6339 84.1235C20.2989 84.1235 20.9092 84.2057 21.4647 84.37C22.028 84.5265 22.5288 84.7808 22.9669 85.1328C23.405 85.4771 23.7767 85.9387 24.0818 86.5177C24.3948 87.0888 24.6334 87.7891 24.7977 88.6184C24.962 89.4478 25.0442 90.4218 25.0442 91.5407ZM22.8613 94.4981V91.1769C22.8613 90.4101 22.8143 89.7372 22.7205 89.1583C22.6344 88.5715 22.5053 88.0707 22.3332 87.6561C22.161 87.2414 21.942 86.905 21.6759 86.6468C21.4178 86.3886 21.1165 86.2008 20.7723 86.0834C20.4358 85.9583 20.0564 85.8957 19.6339 85.8957C19.1175 85.8957 18.6598 85.9935 18.2608 86.1891C17.8618 86.3768 17.5253 86.6781 17.2515 87.0927C16.9855 87.5074 16.782 88.0512 16.6412 88.724C16.5004 89.3969 16.43 90.2145 16.43 91.1769V94.4981C16.43 95.2649 16.473 95.9417 16.5591 96.5285C16.6529 97.1153 16.7899 97.6238 16.9698 98.0541C17.1498 98.4766 17.3688 98.8248 17.627 99.0987C17.8852 99.3725 18.1825 99.5759 18.519 99.7089C18.8632 99.8341 19.2427 99.8967 19.6574 99.8967C20.1894 99.8967 20.6549 99.795 21.0539 99.5916C21.453 99.3881 21.7855 99.0713 22.0515 98.6409C22.3253 98.2028 22.5288 97.6434 22.6618 96.9627C22.7948 96.2742 22.8613 95.4527 22.8613 94.4981Z" fill="#4A4A4A"/>
<path d="M12.3463 95.6951V97.479H0V96.1998L7.65186 84.3582H9.42399L7.52277 87.7851L2.46456 95.6951H12.3463ZM9.96385 84.3582V101.446H7.79269V84.3582H9.96385Z" fill="#4A4A4A"/>
<path d="M25.0442 7.41714V10.0225C25.0442 11.423 24.919 12.6044 24.6686 13.5668C24.4183 14.5291 24.0584 15.3037 23.5889 15.8905C23.1195 16.4773 22.5522 16.9037 21.8872 17.1697C21.23 17.4279 20.4867 17.557 19.6574 17.557C19.0001 17.557 18.3938 17.4749 17.8383 17.3106C17.2828 17.1463 16.782 16.8842 16.3361 16.5243C15.8979 16.1565 15.5224 15.6793 15.2094 15.0925C14.8965 14.5057 14.6578 13.7937 14.4935 12.9565C14.3292 12.1194 14.2471 11.1414 14.2471 10.0225V7.41714C14.2471 6.01665 14.3723 4.84305 14.6226 3.89635C14.8808 2.94964 15.2446 2.19072 15.7141 1.61957C16.1835 1.04059 16.7468 0.625919 17.404 0.375551C18.0691 0.125184 18.8124 0 19.6339 0C20.2989 0 20.9092 0.0821519 21.4647 0.246456C22.028 0.402935 22.5288 0.657215 22.9669 1.00929C23.405 1.35355 23.7767 1.81517 24.0818 2.39414C24.3948 2.96529 24.6334 3.66554 24.7977 4.49488C24.962 5.32422 25.0442 6.29831 25.0442 7.41714ZM22.8613 10.3746V7.05333C22.8613 6.28658 22.8143 5.61371 22.7205 5.03474C22.6344 4.44794 22.5053 3.9472 22.3332 3.53253C22.161 3.11786 21.942 2.78143 21.6759 2.52324C21.4178 2.26504 21.1165 2.07727 20.7723 1.95991C20.4358 1.83473 20.0564 1.77213 19.6339 1.77213C19.1175 1.77213 18.6598 1.86993 18.2608 2.06553C17.8618 2.25331 17.5253 2.55453 17.2515 2.9692C16.9855 3.38388 16.782 3.92764 16.6412 4.60051C16.5004 5.27337 16.43 6.09098 16.43 7.05333V10.3746C16.43 11.1414 16.473 11.8181 16.5591 12.4049C16.6529 12.9917 16.7899 13.5003 16.9698 13.9306C17.1498 14.3531 17.3688 14.7013 17.627 14.9751C17.8852 15.249 18.1825 15.4524 18.519 15.5854C18.8632 15.7106 19.2427 15.7732 19.6574 15.7732C20.1894 15.7732 20.6549 15.6714 21.0539 15.468C21.453 15.2646 21.7855 14.9477 22.0515 14.5174C22.3253 14.0793 22.5288 13.5199 22.6618 12.8392C22.7948 12.1507 22.8613 11.3291 22.8613 10.3746Z" fill="#4A4A4A"/>
<path d="M3.54448 9.18917L1.80755 8.74321L2.66428 0.234619H11.4311V2.24147H4.50683L3.99045 6.88892C4.30341 6.70897 4.69852 6.54075 5.17578 6.38427C5.66087 6.22779 6.21637 6.14955 6.84229 6.14955C7.63251 6.14955 8.34058 6.28647 8.9665 6.56031C9.59242 6.82633 10.1245 7.20971 10.5626 7.71044C11.0086 8.21118 11.3489 8.81362 11.5836 9.51778C11.8183 10.2219 11.9357 11.0083 11.9357 11.8767C11.9357 12.6982 11.8223 13.4532 11.5954 14.1418C11.3763 14.8303 11.0438 15.4327 10.5978 15.9491C10.1518 16.4577 9.58851 16.8528 8.90782 17.1344C8.23496 17.4161 7.44083 17.5569 6.52542 17.5569C5.83691 17.5569 5.1836 17.463 4.56551 17.2753C3.95524 17.0797 3.40756 16.7863 2.92247 16.3951C2.44521 15.996 2.05401 15.5031 1.74887 14.9163C1.45156 14.3217 1.26379 13.6254 1.18555 12.8273H3.25108C3.34497 13.4689 3.53274 14.0088 3.81441 14.4469C4.09607 14.885 4.4638 15.2176 4.91759 15.4445C5.3792 15.6635 5.91515 15.7731 6.52542 15.7731C7.0418 15.7731 7.49951 15.6831 7.89853 15.5031C8.29755 15.3232 8.63398 15.065 8.90782 14.7286C9.18166 14.3921 9.389 13.9853 9.52983 13.508C9.67849 13.0308 9.75281 12.4948 9.75281 11.9002C9.75281 11.3603 9.67849 10.8596 9.52983 10.398C9.38117 9.93637 9.15819 9.53343 8.86088 9.18917C8.57139 8.84492 8.2154 8.5789 7.7929 8.39113C7.37041 8.19553 6.88532 8.09773 6.33764 8.09773C5.61001 8.09773 5.05842 8.19553 4.68287 8.39113C4.31514 8.58673 3.93568 8.85274 3.54448 9.18917Z" fill="#4A4A4A"/>
</svg>
