<svg width="1850" height="864" viewBox="0 0 1850 864" fill="none" xmlns="http://www.w3.org/2000/svg">
<rect x="243" y="384" width="200" height="95" rx="47.5" fill="#FF928A"/>
<path d="M274.9 406.78H291.04V409.14H274.9V406.78ZM275.96 412.62H290.1V414.94H275.96V412.62ZM274.04 418.8H292.04V421.16H274.04V418.8ZM281.68 408.82H284.32V420.06H281.68V408.82ZM279.9 404.36L281.9 402.98C282.327 403.247 282.78 403.56 283.26 403.92C283.753 404.28 284.22 404.64 284.66 405C285.113 405.36 285.48 405.7 285.76 406.02L283.62 407.56C283.38 407.253 283.047 406.913 282.62 406.54C282.207 406.153 281.76 405.773 281.28 405.4C280.8 405.013 280.34 404.667 279.9 404.36ZM318.92 419.5H328.66V421.28H318.92V419.5ZM321.78 407.2H324.1V409.62H321.78V407.2ZM314.4 408.58H331.8V412.58H329.44V410.38H316.66V412.58H314.4V408.58ZM318.84 411.22H328.62V415.7H318.84V414H326.24V412.94H318.84V411.22ZM318.94 416.62H330.14V421.8H327.76V418.38H318.94V416.62ZM317.52 411.22H319.8V421.82H317.52V411.22ZM316.4 404.4H322.72V406.3H316.4V404.4ZM324.5 404.4H332.26V406.3H324.5V404.4ZM316.5 402.84L318.72 403.46C318.333 404.353 317.84 405.227 317.24 406.08C316.653 406.92 316.067 407.633 315.48 408.22C315.333 408.087 315.14 407.94 314.9 407.78C314.66 407.62 314.42 407.46 314.18 407.3C313.94 407.14 313.72 407.013 313.52 406.92C314.133 406.427 314.707 405.813 315.24 405.08C315.773 404.347 316.193 403.6 316.5 402.84ZM324.64 402.84L326.92 403.4C326.56 404.267 326.093 405.093 325.52 405.88C324.947 406.653 324.36 407.3 323.76 407.82C323.587 407.7 323.373 407.573 323.12 407.44C322.88 407.293 322.627 407.153 322.36 407.02C322.093 406.873 321.86 406.76 321.66 406.68C322.3 406.227 322.88 405.66 323.4 404.98C323.933 404.287 324.347 403.573 324.64 402.84ZM317.16 405.88L319.2 405.32C319.44 405.667 319.68 406.06 319.92 406.5C320.173 406.927 320.367 407.293 320.5 407.6L318.34 408.22C318.247 407.913 318.08 407.54 317.84 407.1C317.613 406.647 317.387 406.24 317.16 405.88ZM326.08 405.92L328.2 405.36C328.493 405.693 328.787 406.073 329.08 406.5C329.387 406.927 329.62 407.307 329.78 407.64L327.56 408.26C327.44 407.94 327.233 407.56 326.94 407.12C326.647 406.68 326.36 406.28 326.08 405.92ZM359.32 408.36H366.72V410.36H359.32V408.36ZM354.4 419.42H371.68V421.4H354.4V419.42ZM355.56 403.74H361.16V405.68H355.56V403.74ZM360.4 403.74H360.82L361.22 403.64L362.8 404.44C362.427 405.413 361.96 406.327 361.4 407.18C360.84 408.02 360.207 408.793 359.5 409.5C358.793 410.207 358.04 410.84 357.24 411.4C356.44 411.947 355.62 412.427 354.78 412.84C354.633 412.587 354.413 412.287 354.12 411.94C353.84 411.58 353.58 411.3 353.34 411.1C354.087 410.78 354.82 410.38 355.54 409.9C356.273 409.42 356.953 408.873 357.58 408.26C358.22 407.647 358.78 406.993 359.26 406.3C359.753 405.607 360.133 404.893 360.4 404.16V403.74ZM364.98 403.08C365.433 404.16 366.033 405.187 366.78 406.16C367.54 407.133 368.413 408 369.4 408.76C370.4 409.52 371.473 410.12 372.62 410.56C372.447 410.72 372.253 410.92 372.04 411.16C371.84 411.387 371.647 411.627 371.46 411.88C371.287 412.12 371.14 412.347 371.02 412.56C369.793 412 368.667 411.28 367.64 410.4C366.627 409.52 365.727 408.513 364.94 407.38C364.153 406.247 363.48 405.027 362.92 403.72L364.98 403.08ZM354.6 407.34L355.9 406.02C356.193 406.193 356.5 406.387 356.82 406.6C357.14 406.813 357.44 407.033 357.72 407.26C358.013 407.487 358.247 407.7 358.42 407.9L357.06 409.36C356.807 409.067 356.44 408.727 355.96 408.34C355.493 407.953 355.04 407.62 354.6 407.34ZM368.04 403.2L369.86 404.48C369.3 404.947 368.713 405.407 368.1 405.86C367.5 406.313 366.947 406.7 366.44 407.02L365.02 405.9C365.34 405.673 365.687 405.407 366.06 405.1C366.433 404.78 366.793 404.453 367.14 404.12C367.5 403.787 367.8 403.48 368.04 403.2ZM370.3 405.52L372.06 406.76C371.5 407.253 370.893 407.747 370.24 408.24C369.6 408.733 369.013 409.14 368.48 409.46L367.04 408.34C367.4 408.1 367.773 407.82 368.16 407.5C368.56 407.18 368.947 406.847 369.32 406.5C369.707 406.153 370.033 405.827 370.3 405.52ZM359.52 413.4V415.18H366.36V413.4H359.52ZM357.18 411.5H368.84V417.08H357.18V411.5ZM358.34 417.34L360.54 416.78C360.793 417.14 361.02 417.547 361.22 418C361.433 418.453 361.587 418.853 361.68 419.2L359.36 419.86C359.293 419.513 359.16 419.1 358.96 418.62C358.773 418.14 358.567 417.713 358.34 417.34ZM365.46 416.74L367.8 417.24C367.547 417.733 367.307 418.2 367.08 418.64C366.853 419.08 366.633 419.46 366.42 419.78L364.32 419.3C364.467 419.06 364.607 418.793 364.74 418.5C364.887 418.193 365.02 417.887 365.14 417.58C365.273 417.273 365.38 416.993 365.46 416.74ZM397.58 404.12H403.26V406.56H397.58V404.12ZM402.08 404.12H404.56C404.56 404.76 404.587 405.487 404.64 406.3C404.693 407.1 404.807 407.96 404.98 408.88C405.153 409.787 405.413 410.72 405.76 411.68C406.107 412.64 406.567 413.593 407.14 414.54C407.727 415.473 408.46 416.373 409.34 417.24C410.22 418.107 411.273 418.907 412.5 419.64C412.327 419.773 412.113 419.967 411.86 420.22C411.607 420.473 411.36 420.733 411.12 421C410.893 421.28 410.707 421.527 410.56 421.74C409.307 420.967 408.22 420.1 407.3 419.14C406.38 418.167 405.607 417.14 404.98 416.06C404.353 414.967 403.847 413.867 403.46 412.76C403.073 411.64 402.78 410.553 402.58 409.5C402.38 408.433 402.247 407.44 402.18 406.52C402.113 405.6 402.08 404.8 402.08 404.12ZM401.22 408.52L403.96 409.02C403.507 410.993 402.9 412.787 402.14 414.4C401.38 416.013 400.467 417.433 399.4 418.66C398.347 419.887 397.127 420.92 395.74 421.76C395.593 421.587 395.387 421.373 395.12 421.12C394.853 420.88 394.573 420.633 394.28 420.38C394 420.14 393.753 419.947 393.54 419.8C395.633 418.747 397.3 417.267 398.54 415.36C399.78 413.44 400.673 411.16 401.22 408.52Z" fill="white"/>
<path d="M288.953 446.625H290.703L293.992 455.398L297.273 446.625H299.023L294.68 458H293.289L288.953 446.625ZM288.156 446.625H289.82L290.109 454.219V458H288.156V446.625ZM298.156 446.625H299.828V458H297.867V454.219L298.156 446.625ZM307.054 456.305V452.273C307.054 451.971 307 451.711 306.89 451.492C306.781 451.273 306.614 451.104 306.39 450.984C306.172 450.865 305.896 450.805 305.562 450.805C305.255 450.805 304.989 450.857 304.765 450.961C304.541 451.065 304.367 451.206 304.242 451.383C304.117 451.56 304.054 451.76 304.054 451.984H302.179C302.179 451.651 302.26 451.328 302.422 451.016C302.583 450.703 302.817 450.424 303.125 450.18C303.432 449.935 303.799 449.742 304.226 449.602C304.653 449.461 305.132 449.391 305.664 449.391C306.299 449.391 306.862 449.497 307.351 449.711C307.846 449.924 308.234 450.247 308.515 450.68C308.802 451.107 308.945 451.643 308.945 452.289V456.047C308.945 456.432 308.971 456.779 309.023 457.086C309.08 457.388 309.161 457.651 309.265 457.875V458H307.336C307.247 457.797 307.177 457.539 307.125 457.227C307.078 456.909 307.054 456.602 307.054 456.305ZM307.328 452.859L307.343 454.023H305.992C305.643 454.023 305.336 454.057 305.07 454.125C304.804 454.188 304.583 454.281 304.406 454.406C304.229 454.531 304.096 454.682 304.007 454.859C303.919 455.036 303.875 455.237 303.875 455.461C303.875 455.685 303.927 455.891 304.031 456.078C304.135 456.26 304.286 456.404 304.484 456.508C304.687 456.612 304.932 456.664 305.218 456.664C305.604 456.664 305.94 456.586 306.226 456.43C306.518 456.268 306.747 456.073 306.914 455.844C307.08 455.609 307.169 455.388 307.179 455.18L307.789 456.016C307.726 456.229 307.619 456.458 307.468 456.703C307.317 456.948 307.119 457.182 306.875 457.406C306.635 457.625 306.346 457.805 306.007 457.945C305.674 458.086 305.289 458.156 304.851 458.156C304.299 458.156 303.807 458.047 303.375 457.828C302.942 457.604 302.604 457.305 302.359 456.93C302.114 456.549 301.992 456.12 301.992 455.641C301.992 455.193 302.075 454.797 302.242 454.453C302.414 454.104 302.664 453.812 302.992 453.578C303.325 453.344 303.731 453.167 304.211 453.047C304.69 452.922 305.237 452.859 305.851 452.859H307.328ZM313.101 451.352V458H311.218V449.547H312.992L313.101 451.352ZM312.765 453.461L312.156 453.453C312.161 452.854 312.244 452.305 312.406 451.805C312.572 451.305 312.801 450.875 313.093 450.516C313.39 450.156 313.744 449.88 314.156 449.688C314.567 449.49 315.025 449.391 315.531 449.391C315.937 449.391 316.304 449.448 316.632 449.562C316.966 449.672 317.249 449.852 317.484 450.102C317.723 450.352 317.906 450.677 318.031 451.078C318.156 451.474 318.218 451.961 318.218 452.539V458H316.327V452.531C316.327 452.125 316.268 451.805 316.148 451.57C316.033 451.331 315.864 451.161 315.64 451.062C315.421 450.958 315.148 450.906 314.82 450.906C314.497 450.906 314.208 450.974 313.952 451.109C313.697 451.245 313.481 451.43 313.304 451.664C313.132 451.898 312.999 452.169 312.906 452.477C312.812 452.784 312.765 453.112 312.765 453.461ZM325.226 456.305V452.273C325.226 451.971 325.171 451.711 325.062 451.492C324.952 451.273 324.786 451.104 324.562 450.984C324.343 450.865 324.067 450.805 323.733 450.805C323.426 450.805 323.161 450.857 322.937 450.961C322.713 451.065 322.538 451.206 322.413 451.383C322.288 451.56 322.226 451.76 322.226 451.984H320.351C320.351 451.651 320.431 451.328 320.593 451.016C320.754 450.703 320.989 450.424 321.296 450.18C321.603 449.935 321.97 449.742 322.397 449.602C322.825 449.461 323.304 449.391 323.835 449.391C324.47 449.391 325.033 449.497 325.522 449.711C326.017 449.924 326.405 450.247 326.687 450.68C326.973 451.107 327.116 451.643 327.116 452.289V456.047C327.116 456.432 327.142 456.779 327.194 457.086C327.252 457.388 327.332 457.651 327.437 457.875V458H325.507C325.418 457.797 325.348 457.539 325.296 457.227C325.249 456.909 325.226 456.602 325.226 456.305ZM325.499 452.859L325.515 454.023H324.163C323.814 454.023 323.507 454.057 323.241 454.125C322.976 454.188 322.754 454.281 322.577 454.406C322.4 454.531 322.267 454.682 322.179 454.859C322.09 455.036 322.046 455.237 322.046 455.461C322.046 455.685 322.098 455.891 322.202 456.078C322.306 456.26 322.457 456.404 322.655 456.508C322.858 456.612 323.103 456.664 323.39 456.664C323.775 456.664 324.111 456.586 324.397 456.43C324.689 456.268 324.918 456.073 325.085 455.844C325.252 455.609 325.34 455.388 325.351 455.18L325.96 456.016C325.897 456.229 325.791 456.458 325.64 456.703C325.489 456.948 325.291 457.182 325.046 457.406C324.806 457.625 324.517 457.805 324.179 457.945C323.845 458.086 323.46 458.156 323.022 458.156C322.47 458.156 321.978 458.047 321.546 457.828C321.114 457.604 320.775 457.305 320.53 456.93C320.286 456.549 320.163 456.12 320.163 455.641C320.163 455.193 320.246 454.797 320.413 454.453C320.585 454.104 320.835 453.812 321.163 453.578C321.496 453.344 321.903 453.167 322.382 453.047C322.861 452.922 323.408 452.859 324.022 452.859H325.499ZM334.819 449.547H336.53V457.766C336.53 458.526 336.369 459.172 336.046 459.703C335.723 460.234 335.272 460.638 334.694 460.914C334.116 461.195 333.447 461.336 332.686 461.336C332.363 461.336 332.004 461.289 331.608 461.195C331.217 461.102 330.837 460.951 330.467 460.742C330.103 460.539 329.798 460.271 329.553 459.938L330.436 458.828C330.738 459.188 331.072 459.451 331.436 459.617C331.801 459.784 332.184 459.867 332.585 459.867C333.017 459.867 333.384 459.786 333.686 459.625C333.994 459.469 334.231 459.237 334.397 458.93C334.564 458.622 334.647 458.247 334.647 457.805V451.461L334.819 449.547ZM329.077 453.867V453.703C329.077 453.062 329.155 452.479 329.311 451.953C329.467 451.422 329.691 450.966 329.983 450.586C330.275 450.201 330.629 449.906 331.046 449.703C331.462 449.495 331.934 449.391 332.46 449.391C333.007 449.391 333.473 449.49 333.858 449.688C334.249 449.885 334.574 450.169 334.835 450.539C335.095 450.904 335.298 451.341 335.444 451.852C335.595 452.357 335.707 452.919 335.78 453.539V454.062C335.712 454.667 335.598 455.219 335.436 455.719C335.275 456.219 335.061 456.651 334.796 457.016C334.53 457.38 334.202 457.661 333.811 457.859C333.426 458.057 332.97 458.156 332.444 458.156C331.928 458.156 331.462 458.049 331.046 457.836C330.634 457.622 330.28 457.323 329.983 456.938C329.691 456.552 329.467 456.099 329.311 455.578C329.155 455.052 329.077 454.482 329.077 453.867ZM330.96 453.703V453.867C330.96 454.253 330.996 454.612 331.069 454.945C331.147 455.279 331.264 455.573 331.421 455.828C331.582 456.078 331.785 456.276 332.03 456.422C332.28 456.562 332.574 456.633 332.913 456.633C333.356 456.633 333.717 456.539 333.999 456.352C334.285 456.164 334.504 455.911 334.655 455.594C334.811 455.271 334.921 454.911 334.983 454.516V453.102C334.952 452.794 334.887 452.508 334.788 452.242C334.694 451.977 334.566 451.745 334.405 451.547C334.244 451.344 334.04 451.188 333.796 451.078C333.551 450.964 333.262 450.906 332.928 450.906C332.59 450.906 332.296 450.979 332.046 451.125C331.796 451.271 331.59 451.471 331.428 451.727C331.272 451.982 331.155 452.279 331.077 452.617C330.999 452.956 330.96 453.318 330.96 453.703ZM342.53 458.156C341.905 458.156 341.34 458.055 340.834 457.852C340.334 457.643 339.907 457.354 339.553 456.984C339.204 456.615 338.936 456.18 338.748 455.68C338.561 455.18 338.467 454.641 338.467 454.062V453.75C338.467 453.089 338.564 452.49 338.756 451.953C338.949 451.417 339.217 450.958 339.561 450.578C339.905 450.193 340.311 449.898 340.78 449.695C341.248 449.492 341.756 449.391 342.303 449.391C342.907 449.391 343.436 449.492 343.889 449.695C344.342 449.898 344.717 450.185 345.014 450.555C345.316 450.919 345.54 451.354 345.686 451.859C345.837 452.365 345.912 452.922 345.912 453.531V454.336H339.381V452.984H344.053V452.836C344.043 452.497 343.975 452.18 343.85 451.883C343.73 451.586 343.545 451.346 343.295 451.164C343.045 450.982 342.712 450.891 342.295 450.891C341.983 450.891 341.704 450.958 341.459 451.094C341.22 451.224 341.019 451.414 340.858 451.664C340.696 451.914 340.571 452.216 340.483 452.57C340.399 452.919 340.358 453.312 340.358 453.75V454.062C340.358 454.432 340.407 454.776 340.506 455.094C340.61 455.406 340.761 455.68 340.959 455.914C341.157 456.148 341.397 456.333 341.678 456.469C341.959 456.599 342.28 456.664 342.639 456.664C343.092 456.664 343.496 456.573 343.85 456.391C344.204 456.208 344.511 455.951 344.772 455.617L345.764 456.578C345.582 456.844 345.345 457.099 345.053 457.344C344.761 457.583 344.405 457.779 343.983 457.93C343.566 458.081 343.082 458.156 342.53 458.156ZM349.592 451.156V458H347.709V449.547H349.506L349.592 451.156ZM352.178 449.492L352.162 451.242C352.048 451.221 351.923 451.206 351.787 451.195C351.657 451.185 351.527 451.18 351.397 451.18C351.074 451.18 350.79 451.227 350.545 451.32C350.3 451.409 350.094 451.539 349.928 451.711C349.766 451.878 349.641 452.081 349.553 452.32C349.464 452.56 349.412 452.828 349.397 453.125L348.967 453.156C348.967 452.625 349.019 452.133 349.123 451.68C349.227 451.227 349.384 450.828 349.592 450.484C349.805 450.141 350.071 449.872 350.389 449.68C350.712 449.487 351.084 449.391 351.506 449.391C351.621 449.391 351.743 449.401 351.873 449.422C352.009 449.443 352.11 449.466 352.178 449.492ZM365.294 456.445V458H359.583V456.445H365.294ZM360.13 446.625V458H358.169V446.625H360.13ZM366.583 453.867V453.688C366.583 453.078 366.672 452.513 366.849 451.992C367.026 451.466 367.281 451.01 367.614 450.625C367.953 450.234 368.364 449.932 368.849 449.719C369.338 449.5 369.89 449.391 370.505 449.391C371.125 449.391 371.677 449.5 372.161 449.719C372.651 449.932 373.065 450.234 373.403 450.625C373.742 451.01 374 451.466 374.177 451.992C374.354 452.513 374.442 453.078 374.442 453.688V453.867C374.442 454.477 374.354 455.042 374.177 455.562C374 456.083 373.742 456.539 373.403 456.93C373.065 457.315 372.653 457.617 372.169 457.836C371.685 458.049 371.135 458.156 370.521 458.156C369.901 458.156 369.346 458.049 368.857 457.836C368.372 457.617 367.961 457.315 367.622 456.93C367.284 456.539 367.026 456.083 366.849 455.562C366.672 455.042 366.583 454.477 366.583 453.867ZM368.466 453.688V453.867C368.466 454.247 368.505 454.607 368.583 454.945C368.661 455.284 368.784 455.581 368.95 455.836C369.117 456.091 369.331 456.292 369.591 456.438C369.851 456.583 370.161 456.656 370.521 456.656C370.87 456.656 371.172 456.583 371.427 456.438C371.687 456.292 371.901 456.091 372.067 455.836C372.234 455.581 372.357 455.284 372.435 454.945C372.518 454.607 372.56 454.247 372.56 453.867V453.688C372.56 453.312 372.518 452.958 372.435 452.625C372.357 452.286 372.232 451.987 372.06 451.727C371.893 451.466 371.679 451.263 371.419 451.117C371.164 450.966 370.859 450.891 370.505 450.891C370.151 450.891 369.844 450.966 369.583 451.117C369.328 451.263 369.117 451.466 368.95 451.727C368.784 451.987 368.661 452.286 368.583 452.625C368.505 452.958 368.466 453.312 368.466 453.688ZM381.755 449.547H383.466V457.766C383.466 458.526 383.304 459.172 382.981 459.703C382.658 460.234 382.208 460.638 381.63 460.914C381.052 461.195 380.382 461.336 379.622 461.336C379.299 461.336 378.94 461.289 378.544 461.195C378.153 461.102 377.773 460.951 377.403 460.742C377.039 460.539 376.734 460.271 376.489 459.938L377.372 458.828C377.674 459.188 378.007 459.451 378.372 459.617C378.736 459.784 379.119 459.867 379.52 459.867C379.953 459.867 380.32 459.786 380.622 459.625C380.929 459.469 381.166 459.237 381.333 458.93C381.499 458.622 381.583 458.247 381.583 457.805V451.461L381.755 449.547ZM376.012 453.867V453.703C376.012 453.062 376.091 452.479 376.247 451.953C376.403 451.422 376.627 450.966 376.919 450.586C377.21 450.201 377.565 449.906 377.981 449.703C378.398 449.495 378.869 449.391 379.395 449.391C379.942 449.391 380.408 449.49 380.794 449.688C381.184 449.885 381.51 450.169 381.77 450.539C382.031 450.904 382.234 451.341 382.38 451.852C382.531 452.357 382.643 452.919 382.716 453.539V454.062C382.648 454.667 382.533 455.219 382.372 455.719C382.21 456.219 381.997 456.651 381.731 457.016C381.466 457.38 381.137 457.661 380.747 457.859C380.361 458.057 379.906 458.156 379.38 458.156C378.864 458.156 378.398 458.049 377.981 457.836C377.57 457.622 377.216 457.323 376.919 456.938C376.627 456.552 376.403 456.099 376.247 455.578C376.091 455.052 376.012 454.482 376.012 453.867ZM377.895 453.703V453.867C377.895 454.253 377.932 454.612 378.005 454.945C378.083 455.279 378.2 455.573 378.356 455.828C378.518 456.078 378.721 456.276 378.966 456.422C379.216 456.562 379.51 456.633 379.848 456.633C380.291 456.633 380.653 456.539 380.934 456.352C381.221 456.164 381.44 455.911 381.591 455.594C381.747 455.271 381.856 454.911 381.919 454.516V453.102C381.887 452.794 381.822 452.508 381.723 452.242C381.63 451.977 381.502 451.745 381.341 451.547C381.179 451.344 380.976 451.188 380.731 451.078C380.486 450.964 380.197 450.906 379.864 450.906C379.526 450.906 379.231 450.979 378.981 451.125C378.731 451.271 378.526 451.471 378.364 451.727C378.208 451.982 378.091 452.279 378.012 452.617C377.934 452.956 377.895 453.318 377.895 453.703ZM387.754 449.547V458H385.864V449.547H387.754ZM385.739 447.328C385.739 447.042 385.832 446.805 386.02 446.617C386.213 446.424 386.478 446.328 386.817 446.328C387.15 446.328 387.413 446.424 387.606 446.617C387.799 446.805 387.895 447.042 387.895 447.328C387.895 447.609 387.799 447.844 387.606 448.031C387.413 448.219 387.15 448.312 386.817 448.312C386.478 448.312 386.213 448.219 386.02 448.031C385.832 447.844 385.739 447.609 385.739 447.328ZM392.004 451.352V458H390.121V449.547H391.895L392.004 451.352ZM391.668 453.461L391.059 453.453C391.064 452.854 391.147 452.305 391.309 451.805C391.475 451.305 391.705 450.875 391.996 450.516C392.293 450.156 392.647 449.88 393.059 449.688C393.47 449.49 393.929 449.391 394.434 449.391C394.84 449.391 395.207 449.448 395.535 449.562C395.869 449.672 396.152 449.852 396.387 450.102C396.626 450.352 396.809 450.677 396.934 451.078C397.059 451.474 397.121 451.961 397.121 452.539V458H395.231V452.531C395.231 452.125 395.171 451.805 395.051 451.57C394.936 451.331 394.767 451.161 394.543 451.062C394.324 450.958 394.051 450.906 393.723 450.906C393.4 450.906 393.111 450.974 392.856 451.109C392.6 451.245 392.384 451.43 392.207 451.664C392.035 451.898 391.902 452.169 391.809 452.477C391.715 452.784 391.668 453.112 391.668 453.461Z" fill="white"/>
<rect x="595" y="374" width="267" height="115" rx="10" fill="#3CC3DF"/>
<path d="M624.46 403.6V404.62H631.24V403.6H624.46ZM624.46 401.08V402.08H631.24V401.08H624.46ZM622.1 399.5H633.74V406.2H622.1V399.5ZM619.04 393.26H636.96V395.32H619.04V393.26ZM626.72 391.02H629.1V398.94H626.72V391.02ZM625.62 393.9L627.62 394.66C625.9 397.34 623.06 399.62 620 400.82C619.66 400.24 618.96 399.36 618.46 398.9C621.36 397.98 624.18 396.02 625.62 393.9ZM630.1 393.88C631.56 395.96 634.48 397.84 637.46 398.72C636.94 399.16 636.24 400.08 635.9 400.68C632.82 399.54 629.92 397.28 628.16 394.62L630.1 393.88ZM619.22 407.12H636.8V409.24H619.22V407.12ZM663.06 399.86H675.02V409.86H672.6V401.68H665.36V409.86H663.06V399.86ZM659.08 397.14H676.9V399.02H659.08V397.14ZM660.48 394.46H675.8V396.28H660.48V394.46ZM664.62 402.52H673.58V404.04H664.62V402.52ZM664.62 404.9H673.58V406.4H664.62V404.9ZM664.34 407.32H673.58V409.14H664.34V407.32ZM674.34 391.08L675.74 392.8C671.64 393.48 665.68 393.72 660.72 393.68C660.68 393.16 660.46 392.36 660.26 391.88C665.16 391.88 670.96 391.64 674.34 391.08ZM665.82 392.74L668.32 393.24C666.96 398.22 664.56 402.98 659.94 405.64C659.62 405.1 658.92 404.2 658.44 403.74C662.68 401.46 664.88 397.06 665.82 392.74ZM705.2 399.84H710.34V401.72H705.2V399.84ZM705.2 403.2H710.36V405.08H705.2V403.2ZM701.32 406.58H714.82V408.78H701.32V406.58ZM699.82 396.24H716.16V409.8H713.72V398.44H702.12V409.8H699.82V396.24ZM704.18 397.7H706.32V407.56H704.18V397.7ZM709.4 397.7H711.56V407.54H709.4V397.7ZM706.44 393.2L709.28 393.8C708.8 395.28 708.36 396.84 707.96 397.88L705.76 397.3C706.04 396.14 706.36 394.46 706.44 393.2ZM698.98 392.16H717.06V394.44H698.98V392.16ZM750.42 396.62L751.9 395.04C753.62 396.02 756.1 397.52 757.32 398.54L755.74 400.34C754.62 399.3 752.2 397.7 750.42 396.62ZM751.8 399.5H753V402.54C753 403.88 753.86 406.42 757.52 407.78C757.08 408.34 756.44 409.26 756.12 409.84C753.6 408.88 752.16 406.64 751.78 405.42C751.38 406.64 749.78 408.8 747.02 409.84C746.76 409.3 746.12 408.34 745.7 407.88C749.54 406.52 750.56 403.9 750.56 402.54V399.5H751.8ZM750.72 391.02H753.08C752.88 395.8 752.24 398.84 747.4 400.5C747.18 399.92 746.58 399.06 746.08 398.6C750.26 397.32 750.58 395 750.72 391.02ZM747.78 392.2L749.74 392.6C749.54 393.94 749.02 395.42 748.16 396.32L746.28 395.52C747.02 394.8 747.58 393.46 747.78 392.2ZM747.56 400.9L749.64 401.32C749.38 402.84 748.76 404.46 747.78 405.44L745.8 404.42C746.66 403.68 747.28 402.26 747.56 400.9ZM754.84 392.08L757.16 392.8C756.48 393.98 755.76 395.22 755.2 396.04L753.42 395.38C753.94 394.48 754.54 393.08 754.84 392.08ZM754.96 400.74L757.32 401.48C756.62 402.72 755.84 404.06 755.22 404.92L753.36 404.24C753.92 403.3 754.6 401.82 754.96 400.74ZM739.54 397.16H745.58V398.96H739.54V397.16ZM739.6 391.64H745.52V393.46H739.6V391.64ZM739.54 399.88H745.58V401.7H739.54V399.88ZM738.58 394.34H746.24V396.24H738.58V394.34ZM740.58 402.66H745.6V408.74H740.58V406.84H743.56V404.56H740.58V402.66ZM739.5 402.66H741.52V409.54H739.5V402.66ZM784.74 399.08H797.4V401.1H784.74V399.08ZM786.92 402.06H795.14V403.94H786.92V402.06ZM787.68 399.82L789.74 400.34C788.72 402.66 786.92 404.66 785.02 405.9C784.68 405.5 783.88 404.78 783.42 404.46C785.26 403.42 786.86 401.76 787.68 399.82ZM794.76 402.06H797C797 402.06 796.98 402.6 796.94 402.88C796.66 406.8 796.34 408.42 795.8 409.02C795.42 409.46 794.98 409.62 794.46 409.68C794 409.74 793.24 409.76 792.42 409.74C792.4 409.16 792.2 408.34 791.9 407.84C792.52 407.9 793.06 407.92 793.32 407.92C793.6 407.92 793.76 407.88 793.92 407.68C794.24 407.32 794.54 405.94 794.76 402.38V402.06ZM788.62 395.7V396.66H793.8V395.7H788.62ZM788.62 393.18V394.14H793.8V393.18H788.62ZM786.5 391.52H796.02V398.32H786.5V391.52ZM778.88 395.22H785V397.5H778.88V395.22ZM780.9 391.26H783.14V403.7H780.9V391.26ZM778.44 404.12C779.98 403.54 782.42 402.52 784.74 401.52L785.24 403.58C783.24 404.62 781.08 405.7 779.32 406.54L778.44 404.12ZM792.48 402.44L794.1 403.32C793.34 405.72 791.66 408.5 789.88 409.88C789.46 409.42 788.76 408.88 788.16 408.54C790.1 407.34 791.74 404.76 792.48 402.44ZM789.44 402.46L791.02 403.4C790.02 405.46 787.92 407.78 786.02 409C785.64 408.5 785 407.92 784.44 407.58C786.42 406.58 788.48 404.42 789.44 402.46ZM826.5 391.1L829 391.54C828.22 395.1 826.86 398.44 825.22 400.56C824.72 400.18 823.58 399.54 822.94 399.26C824.66 397.4 825.88 394.28 826.5 391.1ZM830.2 396.72H831.44V398.92C831.44 401.1 832.64 405.46 837.58 407.62C837.12 408.2 836.4 409.2 836.02 409.8C832.44 408.16 830.56 404.62 830.18 402.82C829.7 404.62 827.66 408.04 823.6 409.8C823.32 409.24 822.56 408.22 822.14 407.78C827.56 405.62 828.9 401.2 828.9 398.92V396.72H830.2ZM818.54 404.92C819.66 403.84 821.46 402 823.12 400.18L824.48 402.24C823.1 403.86 821.46 405.62 820.08 406.98L818.54 404.92ZM819.12 394.02L820.82 392.26C822.02 393.04 823.64 394.24 824.42 395.1L822.6 397.08C821.9 396.2 820.34 394.9 819.12 394.02ZM827.36 394.48H835.56V396.86H826.18L827.36 394.48ZM834.76 394.48H835.12L835.58 394.34L837.36 395.38C836.78 397.4 835.82 399.48 835.04 400.9C834.54 400.64 833.58 400.14 833 399.92C833.64 398.7 834.46 396.58 834.76 395V394.48ZM651.08 422.18H654.78V424.26H651.08V422.18ZM646.56 423.04H650.68V425H646.56V423.04ZM651.32 425.86H654.7V427.82H651.32V425.86ZM651.3 429.54H654.66V431.5H651.3V429.54ZM641.48 425.86H644.84V427.82H641.48V425.86ZM641.5 429.52H644.84V431.48H641.5V429.52ZM640.32 422.34L643 423.06C642.96 423.22 642.82 423.3 642.5 423.36L642.82 434.12H640.68L640.32 422.34ZM653.4 422.18H655.6C655.6 426.1 655.5 431.06 655.28 434.04H653.04C653.28 431 653.44 426.02 653.4 422.18ZM644.04 421.22L645.84 422.94C644.48 423.62 642.9 424.28 641.6 424.76C641.48 424.32 641.14 423.56 640.88 423.1C642 422.56 643.26 421.8 644.04 421.22ZM645.54 428.9H647.44V433.88H645.54V428.9ZM645.58 421.26H647.62V426.38H649.74V428.24H645.58V421.26ZM648.56 426.38H650.6V433.94H648.56V426.38ZM638.78 433.14H657.28V435.36H638.78V433.14ZM649.34 436.68L651.14 435.08C653.3 436.06 655.8 437.34 657.24 438.2L654.84 439.84C653.6 438.96 651.36 437.64 649.34 436.68ZM644.44 435.12L646.56 436.64C644.94 437.76 642.54 439.04 640.7 439.82C640.26 439.34 639.44 438.6 638.84 438.16C640.76 437.44 643.16 436.12 644.44 435.12ZM685.2 429.84H690.34V431.72H685.2V429.84ZM685.2 433.2H690.36V435.08H685.2V433.2ZM681.32 436.58H694.82V438.78H681.32V436.58ZM679.82 426.24H696.16V439.8H693.72V428.44H682.12V439.8H679.82V426.24ZM684.18 427.7H686.32V437.56H684.18V427.7ZM689.4 427.7H691.56V437.54H689.4V427.7ZM686.44 423.2L689.28 423.8C688.8 425.28 688.36 426.84 687.96 427.88L685.76 427.3C686.04 426.14 686.36 424.46 686.44 423.2ZM678.98 422.16H697.06V424.44H678.98V422.16ZM730.42 426.62L731.9 425.04C733.62 426.02 736.1 427.52 737.32 428.54L735.74 430.34C734.62 429.3 732.2 427.7 730.42 426.62ZM731.8 429.5H733V432.54C733 433.88 733.86 436.42 737.52 437.78C737.08 438.34 736.44 439.26 736.12 439.84C733.6 438.88 732.16 436.64 731.78 435.42C731.38 436.64 729.78 438.8 727.02 439.84C726.76 439.3 726.12 438.34 725.7 437.88C729.54 436.52 730.56 433.9 730.56 432.54V429.5H731.8ZM730.72 421.02H733.08C732.88 425.8 732.24 428.84 727.4 430.5C727.18 429.92 726.58 429.06 726.08 428.6C730.26 427.32 730.58 425 730.72 421.02ZM727.78 422.2L729.74 422.6C729.54 423.94 729.02 425.42 728.16 426.32L726.28 425.52C727.02 424.8 727.58 423.46 727.78 422.2ZM727.56 430.9L729.64 431.32C729.38 432.84 728.76 434.46 727.78 435.44L725.8 434.42C726.66 433.68 727.28 432.26 727.56 430.9ZM734.84 422.08L737.16 422.8C736.48 423.98 735.76 425.22 735.2 426.04L733.42 425.38C733.94 424.48 734.54 423.08 734.84 422.08ZM734.96 430.74L737.32 431.48C736.62 432.72 735.84 434.06 735.22 434.92L733.36 434.24C733.92 433.3 734.6 431.82 734.96 430.74ZM719.54 427.16H725.58V428.96H719.54V427.16ZM719.6 421.64H725.52V423.46H719.6V421.64ZM719.54 429.88H725.58V431.7H719.54V429.88ZM718.58 424.34H726.24V426.24H718.58V424.34ZM720.58 432.66H725.6V438.74H720.58V436.84H723.56V434.56H720.58V432.66ZM719.5 432.66H721.52V439.54H719.5V432.66ZM760.14 421.58H762.56V427.62C762.56 431.12 762.28 436.42 760.52 439.8C760.06 439.42 758.96 438.84 758.34 438.62C760.02 435.48 760.14 430.86 760.14 427.64V421.58ZM762.02 421.58H776.06V426.3H762.02V424.48H773.66V423.4H762.02V421.58ZM769.9 434.48H774.86V435.78H769.9V434.48ZM768.82 427.4H776.64V428.9H768.82V427.4ZM774.38 434.48H774.76L775.14 434.42L776.36 434.9C774.9 437.94 771.6 439.24 767.64 439.82C767.48 439.34 767.08 438.62 766.74 438.22C770.22 437.88 773.24 436.82 774.38 434.7V434.48ZM769.96 435.34C771.24 436.92 774 437.8 777.34 438.06C776.94 438.44 776.44 439.18 776.2 439.68C772.64 439.22 769.86 437.96 768.34 435.76L769.96 435.34ZM769.96 433.54L771.78 434.06C770.8 435.48 769.1 436.72 767.52 437.52C767.2 437.18 766.5 436.52 766.1 436.22C767.64 435.6 769.16 434.62 769.96 433.54ZM769.9 432.18V432.86H773.92V432.18H769.9ZM769.9 430.56V431.2H773.92V430.56H769.9ZM767.98 429.52H775.94V433.9H767.98V429.52ZM768.9 426.28L770.72 426.9C769.96 428.54 768.68 430.32 767.4 431.4C767.22 430.98 766.7 429.94 766.36 429.48C767.36 428.7 768.34 427.5 768.9 426.28ZM765.46 429.62L767.3 430.32C766.28 432.08 764.6 433.9 763 435C762.86 434.56 762.32 433.44 762.02 432.94C763.3 432.14 764.66 430.92 765.46 429.62ZM763.78 432.96L765.16 431.56L765.86 431.78V439.78H763.78V432.96ZM765.28 426.46L767.12 427.08C766.32 428.26 765.02 429.52 763.88 430.28C763.6 429.9 762.94 429.1 762.54 428.74C763.58 428.18 764.64 427.34 765.28 426.46ZM801.58 421.74H817.02V423.9H801.58V421.74ZM801.8 437.32H817.06V439.3H801.8V437.32ZM809.7 433.8H815.34V435.64H809.7V433.8ZM800 421.74H802.26V427.92C802.26 431.34 802.02 436.46 800.4 439.76C799.96 439.42 798.96 438.86 798.38 438.66C799.88 435.58 800 431.08 800 427.92V421.74ZM808.44 432.16H810.76V438.44H808.44V432.16ZM803.96 433.56H806.26V438.46H803.96V433.56ZM802.66 426.98H808.88V428.64H802.66V426.98ZM804.84 424.92H806.8V432.28H804.84V424.92ZM804.6 427.72L805.9 428.2C805.26 429.74 804.08 431.4 802.9 432.3C802.62 431.84 802.04 431.2 801.62 430.86C802.76 430.22 803.96 428.92 804.6 427.72ZM809.38 426.98H816.56V428.64H809.38V426.98ZM811.72 424.92H813.72V432.28H811.72V424.92ZM811.24 427.7L812.56 428.16C811.96 429.72 810.82 431.4 809.64 432.3C809.34 431.84 808.76 431.18 808.34 430.84C809.48 430.18 810.66 428.9 811.24 427.7ZM806.72 428.46C807.18 428.7 808.54 429.56 808.9 429.84L807.76 431.28C807.3 430.78 806.16 429.74 805.6 429.3L806.72 428.46ZM814.14 427.7C814.76 428.9 815.98 430.08 817.32 430.66C816.88 431.02 816.28 431.72 815.98 432.22C814.62 431.38 813.44 429.74 812.82 428.1L814.14 427.7ZM807.3 424.02L808.78 425.22C807.22 425.82 804.92 426.12 803 426.22C802.9 425.84 802.68 425.24 802.48 424.86C804.24 424.74 806.22 424.44 807.3 424.02ZM814.52 423.92L816 425.12C814.28 425.76 811.74 426.08 809.6 426.18C809.54 425.82 809.3 425.18 809.1 424.84C811.06 424.68 813.32 424.38 814.52 423.92Z" fill="white"/>
<path d="M646.25 457.625V469H644.289V457.625H646.25ZM650.687 462.352V469H648.804V460.547H650.578L650.687 462.352ZM650.351 464.461L649.742 464.453C649.747 463.854 649.83 463.305 649.992 462.805C650.159 462.305 650.388 461.875 650.679 461.516C650.976 461.156 651.33 460.88 651.742 460.688C652.153 460.49 652.612 460.391 653.117 460.391C653.523 460.391 653.89 460.448 654.218 460.562C654.552 460.672 654.836 460.852 655.07 461.102C655.31 461.352 655.492 461.677 655.617 462.078C655.742 462.474 655.804 462.961 655.804 463.539V469H653.914V463.531C653.914 463.125 653.854 462.805 653.734 462.57C653.619 462.331 653.45 462.161 653.226 462.062C653.008 461.958 652.734 461.906 652.406 461.906C652.083 461.906 651.794 461.974 651.539 462.109C651.284 462.245 651.067 462.43 650.89 462.664C650.718 462.898 650.586 463.169 650.492 463.477C650.398 463.784 650.351 464.112 650.351 464.461ZM661.921 460.547V461.922H657.156V460.547H661.921ZM658.531 458.477H660.413V466.664C660.413 466.924 660.45 467.125 660.523 467.266C660.601 467.401 660.708 467.492 660.843 467.539C660.979 467.586 661.137 467.609 661.32 467.609C661.45 467.609 661.575 467.602 661.695 467.586C661.814 467.57 661.911 467.555 661.984 467.539L661.992 468.977C661.835 469.023 661.653 469.065 661.445 469.102C661.242 469.138 661.007 469.156 660.742 469.156C660.309 469.156 659.926 469.081 659.593 468.93C659.26 468.773 658.999 468.521 658.812 468.172C658.624 467.823 658.531 467.359 658.531 466.781V458.477ZM667.421 469.156C666.796 469.156 666.231 469.055 665.726 468.852C665.226 468.643 664.799 468.354 664.444 467.984C664.095 467.615 663.827 467.18 663.64 466.68C663.452 466.18 663.358 465.641 663.358 465.062V464.75C663.358 464.089 663.455 463.49 663.647 462.953C663.84 462.417 664.108 461.958 664.452 461.578C664.796 461.193 665.202 460.898 665.671 460.695C666.14 460.492 666.647 460.391 667.194 460.391C667.799 460.391 668.327 460.492 668.78 460.695C669.233 460.898 669.608 461.185 669.905 461.555C670.207 461.919 670.431 462.354 670.577 462.859C670.728 463.365 670.804 463.922 670.804 464.531V465.336H664.272V463.984H668.944V463.836C668.934 463.497 668.866 463.18 668.741 462.883C668.621 462.586 668.437 462.346 668.187 462.164C667.937 461.982 667.603 461.891 667.187 461.891C666.874 461.891 666.595 461.958 666.351 462.094C666.111 462.224 665.911 462.414 665.749 462.664C665.588 462.914 665.463 463.216 665.374 463.57C665.291 463.919 665.249 464.312 665.249 464.75V465.062C665.249 465.432 665.299 465.776 665.397 466.094C665.502 466.406 665.653 466.68 665.851 466.914C666.049 467.148 666.288 467.333 666.569 467.469C666.851 467.599 667.171 467.664 667.53 467.664C667.983 467.664 668.387 467.573 668.741 467.391C669.095 467.208 669.403 466.951 669.663 466.617L670.655 467.578C670.473 467.844 670.236 468.099 669.944 468.344C669.653 468.583 669.296 468.779 668.874 468.93C668.457 469.081 667.973 469.156 667.421 469.156ZM674.483 462.156V469H672.6V460.547H674.397L674.483 462.156ZM677.069 460.492L677.053 462.242C676.939 462.221 676.814 462.206 676.678 462.195C676.548 462.185 676.418 462.18 676.288 462.18C675.965 462.18 675.681 462.227 675.436 462.32C675.191 462.409 674.986 462.539 674.819 462.711C674.658 462.878 674.533 463.081 674.444 463.32C674.356 463.56 674.303 463.828 674.288 464.125L673.858 464.156C673.858 463.625 673.91 463.133 674.014 462.68C674.119 462.227 674.275 461.828 674.483 461.484C674.697 461.141 674.962 460.872 675.28 460.68C675.603 460.487 675.975 460.391 676.397 460.391C676.512 460.391 676.634 460.401 676.764 460.422C676.9 460.443 677.001 460.466 677.069 460.492ZM681.459 467.508L683.53 460.547H685.483L682.545 469H681.327L681.459 467.508ZM679.873 460.547L681.983 467.539L682.084 469H680.866L677.912 460.547H679.873ZM688.982 460.547V469H687.092V460.547H688.982ZM686.967 458.328C686.967 458.042 687.061 457.805 687.248 457.617C687.441 457.424 687.706 457.328 688.045 457.328C688.378 457.328 688.641 457.424 688.834 457.617C689.027 457.805 689.123 458.042 689.123 458.328C689.123 458.609 689.027 458.844 688.834 459.031C688.641 459.219 688.378 459.312 688.045 459.312C687.706 459.312 687.441 459.219 687.248 459.031C687.061 458.844 686.967 458.609 686.967 458.328ZM695.092 469.156C694.467 469.156 693.901 469.055 693.396 468.852C692.896 468.643 692.469 468.354 692.115 467.984C691.766 467.615 691.498 467.18 691.31 466.68C691.123 466.18 691.029 465.641 691.029 465.062V464.75C691.029 464.089 691.125 463.49 691.318 462.953C691.511 462.417 691.779 461.958 692.123 461.578C692.467 461.193 692.873 460.898 693.342 460.695C693.81 460.492 694.318 460.391 694.865 460.391C695.469 460.391 695.998 460.492 696.451 460.695C696.904 460.898 697.279 461.185 697.576 461.555C697.878 461.919 698.102 462.354 698.248 462.859C698.399 463.365 698.474 463.922 698.474 464.531V465.336H691.943V463.984H696.615V463.836C696.605 463.497 696.537 463.18 696.412 462.883C696.292 462.586 696.107 462.346 695.857 462.164C695.607 461.982 695.274 461.891 694.857 461.891C694.545 461.891 694.266 461.958 694.021 462.094C693.782 462.224 693.581 462.414 693.42 462.664C693.258 462.914 693.133 463.216 693.045 463.57C692.961 463.919 692.92 464.312 692.92 464.75V465.062C692.92 465.432 692.969 465.776 693.068 466.094C693.172 466.406 693.323 466.68 693.521 466.914C693.719 467.148 693.959 467.333 694.24 467.469C694.521 467.599 694.842 467.664 695.201 467.664C695.654 467.664 696.058 467.573 696.412 467.391C696.766 467.208 697.073 466.951 697.334 466.617L698.326 467.578C698.144 467.844 697.907 468.099 697.615 468.344C697.323 468.583 696.967 468.779 696.545 468.93C696.128 469.081 695.644 469.156 695.092 469.156ZM702.56 467.125L704.513 460.547H705.716L705.388 462.516L703.419 469H702.341L702.56 467.125ZM701.412 460.547L702.935 467.156L703.06 469H701.857L699.568 460.547H701.412ZM707.544 467.078L709.021 460.547H710.857L708.576 469H707.373L707.544 467.078ZM705.919 460.547L707.849 467.047L708.091 469H707.013L705.021 462.508L704.693 460.547H705.919ZM722.934 466.07C722.934 465.836 722.898 465.628 722.825 465.445C722.757 465.263 722.635 465.096 722.458 464.945C722.281 464.794 722.031 464.648 721.708 464.508C721.39 464.362 720.984 464.214 720.489 464.062C719.947 463.896 719.447 463.711 718.989 463.508C718.536 463.299 718.14 463.06 717.802 462.789C717.463 462.513 717.2 462.198 717.012 461.844C716.825 461.484 716.731 461.07 716.731 460.602C716.731 460.138 716.828 459.716 717.02 459.336C717.218 458.956 717.497 458.628 717.856 458.352C718.221 458.07 718.651 457.854 719.145 457.703C719.64 457.547 720.187 457.469 720.786 457.469C721.63 457.469 722.356 457.625 722.966 457.938C723.58 458.25 724.052 458.669 724.38 459.195C724.713 459.721 724.88 460.302 724.88 460.938H722.934C722.934 460.562 722.854 460.232 722.692 459.945C722.536 459.654 722.296 459.424 721.973 459.258C721.656 459.091 721.252 459.008 720.762 459.008C720.299 459.008 719.914 459.078 719.606 459.219C719.299 459.359 719.07 459.549 718.919 459.789C718.768 460.029 718.692 460.299 718.692 460.602C718.692 460.815 718.742 461.01 718.841 461.188C718.94 461.359 719.091 461.521 719.294 461.672C719.497 461.818 719.752 461.956 720.059 462.086C720.367 462.216 720.729 462.341 721.145 462.461C721.776 462.648 722.325 462.857 722.794 463.086C723.262 463.31 723.653 463.565 723.966 463.852C724.278 464.138 724.512 464.464 724.669 464.828C724.825 465.188 724.903 465.596 724.903 466.055C724.903 466.534 724.807 466.966 724.614 467.352C724.421 467.732 724.145 468.057 723.786 468.328C723.432 468.594 723.005 468.799 722.505 468.945C722.01 469.086 721.458 469.156 720.848 469.156C720.302 469.156 719.762 469.083 719.231 468.938C718.705 468.792 718.226 468.57 717.794 468.273C717.361 467.971 717.018 467.596 716.762 467.148C716.507 466.695 716.38 466.167 716.38 465.562H718.341C718.341 465.932 718.403 466.247 718.528 466.508C718.658 466.768 718.838 466.982 719.067 467.148C719.296 467.31 719.562 467.43 719.864 467.508C720.171 467.586 720.499 467.625 720.848 467.625C721.307 467.625 721.69 467.56 721.997 467.43C722.309 467.299 722.544 467.117 722.7 466.883C722.856 466.648 722.934 466.378 722.934 466.07ZM730.223 467.656C730.53 467.656 730.806 467.596 731.051 467.477C731.301 467.352 731.502 467.18 731.653 466.961C731.809 466.742 731.895 466.49 731.911 466.203H733.684C733.674 466.75 733.512 467.247 733.2 467.695C732.887 468.143 732.473 468.5 731.957 468.766C731.442 469.026 730.872 469.156 730.247 469.156C729.601 469.156 729.038 469.047 728.559 468.828C728.08 468.604 727.681 468.297 727.364 467.906C727.046 467.516 726.806 467.065 726.645 466.555C726.489 466.044 726.411 465.497 726.411 464.914V464.641C726.411 464.057 726.489 463.51 726.645 463C726.806 462.484 727.046 462.031 727.364 461.641C727.681 461.25 728.08 460.945 728.559 460.727C729.038 460.503 729.598 460.391 730.239 460.391C730.916 460.391 731.51 460.526 732.02 460.797C732.53 461.062 732.931 461.435 733.223 461.914C733.52 462.388 733.674 462.94 733.684 463.57H731.911C731.895 463.258 731.817 462.977 731.676 462.727C731.541 462.471 731.348 462.268 731.098 462.117C730.853 461.966 730.559 461.891 730.215 461.891C729.835 461.891 729.52 461.969 729.27 462.125C729.02 462.276 728.825 462.484 728.684 462.75C728.543 463.01 728.442 463.305 728.379 463.633C728.322 463.956 728.293 464.292 728.293 464.641V464.914C728.293 465.263 728.322 465.602 728.379 465.93C728.437 466.258 728.536 466.552 728.676 466.812C728.822 467.068 729.02 467.273 729.27 467.43C729.52 467.581 729.838 467.656 730.223 467.656ZM737.309 457V469H735.434V457H737.309ZM736.981 464.461L736.371 464.453C736.376 463.87 736.457 463.331 736.613 462.836C736.775 462.341 736.999 461.911 737.285 461.547C737.577 461.177 737.926 460.893 738.332 460.695C738.738 460.492 739.189 460.391 739.684 460.391C740.1 460.391 740.475 460.448 740.809 460.562C741.147 460.677 741.439 460.862 741.684 461.117C741.929 461.367 742.113 461.695 742.238 462.102C742.369 462.503 742.434 462.992 742.434 463.57V469H740.543V463.555C740.543 463.148 740.483 462.826 740.363 462.586C740.249 462.346 740.08 462.174 739.856 462.07C739.632 461.961 739.358 461.906 739.035 461.906C738.697 461.906 738.397 461.974 738.137 462.109C737.882 462.245 737.668 462.43 737.496 462.664C737.324 462.898 737.194 463.169 737.106 463.477C737.022 463.784 736.981 464.112 736.981 464.461ZM748.387 469.156C747.762 469.156 747.196 469.055 746.691 468.852C746.191 468.643 745.764 468.354 745.41 467.984C745.061 467.615 744.793 467.18 744.605 466.68C744.418 466.18 744.324 465.641 744.324 465.062V464.75C744.324 464.089 744.42 463.49 744.613 462.953C744.806 462.417 745.074 461.958 745.418 461.578C745.762 461.193 746.168 460.898 746.637 460.695C747.105 460.492 747.613 460.391 748.16 460.391C748.764 460.391 749.293 460.492 749.746 460.695C750.199 460.898 750.574 461.185 750.871 461.555C751.173 461.919 751.397 462.354 751.543 462.859C751.694 463.365 751.769 463.922 751.769 464.531V465.336H745.238V463.984H749.91V463.836C749.9 463.497 749.832 463.18 749.707 462.883C749.587 462.586 749.402 462.346 749.152 462.164C748.902 461.982 748.569 461.891 748.152 461.891C747.84 461.891 747.561 461.958 747.316 462.094C747.077 462.224 746.876 462.414 746.715 462.664C746.553 462.914 746.428 463.216 746.34 463.57C746.256 463.919 746.215 464.312 746.215 464.75V465.062C746.215 465.432 746.264 465.776 746.363 466.094C746.467 466.406 746.618 466.68 746.816 466.914C747.014 467.148 747.254 467.333 747.535 467.469C747.816 467.599 748.137 467.664 748.496 467.664C748.949 467.664 749.353 467.573 749.707 467.391C750.061 467.208 750.368 466.951 750.629 466.617L751.621 467.578C751.439 467.844 751.202 468.099 750.91 468.344C750.618 468.583 750.262 468.779 749.84 468.93C749.423 469.081 748.939 469.156 748.387 469.156ZM758.714 467.25V457H760.605V469H758.894L758.714 467.25ZM753.214 464.867V464.703C753.214 464.062 753.29 463.479 753.441 462.953C753.592 462.422 753.811 461.966 754.097 461.586C754.384 461.201 754.733 460.906 755.144 460.703C755.556 460.495 756.019 460.391 756.535 460.391C757.045 460.391 757.493 460.49 757.878 460.688C758.264 460.885 758.592 461.169 758.863 461.539C759.134 461.904 759.35 462.341 759.511 462.852C759.673 463.357 759.787 463.919 759.855 464.539V465.062C759.787 465.667 759.673 466.219 759.511 466.719C759.35 467.219 759.134 467.651 758.863 468.016C758.592 468.38 758.261 468.661 757.871 468.859C757.485 469.057 757.035 469.156 756.519 469.156C756.009 469.156 755.548 469.049 755.136 468.836C754.73 468.622 754.384 468.323 754.097 467.938C753.811 467.552 753.592 467.099 753.441 466.578C753.29 466.052 753.214 465.482 753.214 464.867ZM755.097 464.703V464.867C755.097 465.253 755.131 465.612 755.199 465.945C755.272 466.279 755.384 466.573 755.535 466.828C755.686 467.078 755.881 467.276 756.121 467.422C756.365 467.562 756.657 467.633 756.996 467.633C757.423 467.633 757.774 467.539 758.05 467.352C758.326 467.164 758.543 466.911 758.699 466.594C758.86 466.271 758.97 465.911 759.027 465.516V464.102C758.996 463.794 758.931 463.508 758.832 463.242C758.738 462.977 758.61 462.745 758.449 462.547C758.287 462.344 758.087 462.188 757.847 462.078C757.613 461.964 757.334 461.906 757.011 461.906C756.668 461.906 756.376 461.979 756.136 462.125C755.897 462.271 755.699 462.471 755.543 462.727C755.391 462.982 755.279 463.279 755.207 463.617C755.134 463.956 755.097 464.318 755.097 464.703ZM767.98 467.008V460.547H769.87V469H768.089L767.98 467.008ZM768.245 465.25L768.878 465.234C768.878 465.802 768.816 466.326 768.691 466.805C768.566 467.279 768.373 467.693 768.113 468.047C767.852 468.396 767.519 468.669 767.113 468.867C766.706 469.06 766.219 469.156 765.652 469.156C765.24 469.156 764.863 469.096 764.519 468.977C764.175 468.857 763.878 468.672 763.628 468.422C763.383 468.172 763.193 467.846 763.058 467.445C762.922 467.044 762.855 466.565 762.855 466.008V460.547H764.738V466.023C764.738 466.331 764.774 466.589 764.847 466.797C764.92 467 765.019 467.164 765.144 467.289C765.269 467.414 765.415 467.503 765.581 467.555C765.748 467.607 765.925 467.633 766.113 467.633C766.649 467.633 767.071 467.529 767.378 467.32C767.691 467.107 767.912 466.82 768.042 466.461C768.178 466.102 768.245 465.698 768.245 465.25ZM774.136 457V469H772.245V457H774.136ZM780.245 469.156C779.62 469.156 779.055 469.055 778.549 468.852C778.049 468.643 777.622 468.354 777.268 467.984C776.919 467.615 776.651 467.18 776.463 466.68C776.276 466.18 776.182 465.641 776.182 465.062V464.75C776.182 464.089 776.279 463.49 776.471 462.953C776.664 462.417 776.932 461.958 777.276 461.578C777.62 461.193 778.026 460.898 778.495 460.695C778.963 460.492 779.471 460.391 780.018 460.391C780.622 460.391 781.151 460.492 781.604 460.695C782.057 460.898 782.432 461.185 782.729 461.555C783.031 461.919 783.255 462.354 783.401 462.859C783.552 463.365 783.628 463.922 783.628 464.531V465.336H777.096V463.984H781.768V463.836C781.758 463.497 781.69 463.18 781.565 462.883C781.445 462.586 781.26 462.346 781.01 462.164C780.76 461.982 780.427 461.891 780.01 461.891C779.698 461.891 779.419 461.958 779.174 462.094C778.935 462.224 778.734 462.414 778.573 462.664C778.411 462.914 778.286 463.216 778.198 463.57C778.114 463.919 778.073 464.312 778.073 464.75V465.062C778.073 465.432 778.122 465.776 778.221 466.094C778.325 466.406 778.476 466.68 778.674 466.914C778.872 467.148 779.112 467.333 779.393 467.469C779.674 467.599 779.995 467.664 780.354 467.664C780.807 467.664 781.211 467.573 781.565 467.391C781.919 467.208 782.226 466.951 782.487 466.617L783.479 467.578C783.297 467.844 783.06 468.099 782.768 468.344C782.476 468.583 782.12 468.779 781.698 468.93C781.281 469.081 780.797 469.156 780.245 469.156ZM790.362 457.625L785.932 469.977H784.455L788.893 457.625H790.362ZM798.893 465.297H800.846C800.783 466.042 800.575 466.706 800.221 467.289C799.866 467.867 799.369 468.323 798.728 468.656C798.088 468.99 797.309 469.156 796.393 469.156C795.689 469.156 795.057 469.031 794.494 468.781C793.932 468.526 793.45 468.167 793.049 467.703C792.648 467.234 792.34 466.669 792.127 466.008C791.919 465.346 791.814 464.607 791.814 463.789V462.844C791.814 462.026 791.921 461.286 792.135 460.625C792.353 459.964 792.666 459.398 793.072 458.93C793.478 458.456 793.965 458.094 794.533 457.844C795.106 457.594 795.749 457.469 796.463 457.469C797.369 457.469 798.135 457.635 798.76 457.969C799.385 458.302 799.869 458.763 800.213 459.352C800.562 459.94 800.775 460.615 800.853 461.375H798.9C798.848 460.885 798.734 460.466 798.557 460.117C798.385 459.768 798.129 459.503 797.791 459.32C797.452 459.133 797.01 459.039 796.463 459.039C796.015 459.039 795.624 459.122 795.291 459.289C794.958 459.456 794.679 459.701 794.455 460.023C794.231 460.346 794.062 460.745 793.947 461.219C793.838 461.688 793.783 462.224 793.783 462.828V463.789C793.783 464.362 793.833 464.883 793.932 465.352C794.036 465.815 794.192 466.214 794.4 466.547C794.614 466.88 794.885 467.138 795.213 467.32C795.541 467.503 795.934 467.594 796.393 467.594C796.95 467.594 797.4 467.505 797.744 467.328C798.093 467.151 798.356 466.893 798.533 466.555C798.715 466.211 798.835 465.792 798.893 465.297ZM806.845 466.922L809.837 457.625H812.002L807.923 469H806.462L806.845 466.922ZM804.08 457.625L807.048 466.922L807.455 469H805.986L801.923 457.625H804.08ZM818.15 466.711C818.15 466.523 818.103 466.354 818.009 466.203C817.915 466.047 817.736 465.906 817.47 465.781C817.21 465.656 816.824 465.542 816.314 465.438C815.866 465.339 815.454 465.221 815.079 465.086C814.71 464.945 814.392 464.776 814.126 464.578C813.861 464.38 813.655 464.146 813.509 463.875C813.363 463.604 813.29 463.292 813.29 462.938C813.29 462.594 813.366 462.268 813.517 461.961C813.668 461.654 813.884 461.383 814.165 461.148C814.447 460.914 814.788 460.729 815.189 460.594C815.595 460.458 816.048 460.391 816.548 460.391C817.256 460.391 817.863 460.51 818.368 460.75C818.879 460.984 819.269 461.305 819.54 461.711C819.811 462.112 819.947 462.565 819.947 463.07H818.064C818.064 462.846 818.006 462.638 817.892 462.445C817.783 462.247 817.616 462.089 817.392 461.969C817.168 461.844 816.887 461.781 816.548 461.781C816.225 461.781 815.957 461.833 815.743 461.938C815.535 462.036 815.379 462.167 815.275 462.328C815.176 462.49 815.126 462.667 815.126 462.859C815.126 463 815.152 463.128 815.204 463.242C815.262 463.352 815.355 463.453 815.486 463.547C815.616 463.635 815.793 463.719 816.017 463.797C816.246 463.875 816.533 463.951 816.876 464.023C817.522 464.159 818.077 464.333 818.54 464.547C819.009 464.755 819.368 465.026 819.618 465.359C819.868 465.688 819.993 466.104 819.993 466.609C819.993 466.984 819.913 467.328 819.751 467.641C819.595 467.948 819.366 468.216 819.064 468.445C818.762 468.669 818.4 468.844 817.978 468.969C817.561 469.094 817.092 469.156 816.572 469.156C815.806 469.156 815.158 469.021 814.626 468.75C814.095 468.474 813.691 468.122 813.415 467.695C813.144 467.263 813.009 466.815 813.009 466.352H814.829C814.85 466.701 814.947 466.979 815.118 467.188C815.296 467.391 815.514 467.539 815.775 467.633C816.04 467.721 816.314 467.766 816.595 467.766C816.934 467.766 817.217 467.721 817.447 467.633C817.676 467.539 817.85 467.414 817.97 467.258C818.09 467.096 818.15 466.914 818.15 466.711Z" fill="white"/>
<rect x="979" y="374" width="256" height="115" rx="10" fill="#3CC3DF"/>
<path d="M1040.9 405.308H1051.72V407.628H1040.9V405.308ZM1050.92 405.308H1053.44C1053.44 405.308 1053.44 405.375 1053.44 405.508C1053.44 405.628 1053.44 405.775 1053.44 405.948C1053.44 406.108 1053.43 406.242 1053.42 406.348C1053.37 407.855 1053.31 409.155 1053.24 410.248C1053.17 411.328 1053.09 412.228 1053 412.948C1052.92 413.668 1052.82 414.242 1052.7 414.668C1052.58 415.095 1052.43 415.415 1052.26 415.628C1051.99 415.948 1051.71 416.175 1051.42 416.308C1051.14 416.442 1050.81 416.535 1050.42 416.588C1050.09 416.642 1049.65 416.668 1049.1 416.668C1048.55 416.682 1047.98 416.675 1047.38 416.648C1047.37 416.288 1047.29 415.875 1047.14 415.408C1046.99 414.955 1046.81 414.562 1046.6 414.228C1047.16 414.268 1047.68 414.295 1048.16 414.308C1048.64 414.322 1049 414.328 1049.24 414.328C1049.43 414.328 1049.58 414.315 1049.7 414.288C1049.82 414.248 1049.94 414.168 1050.06 414.048C1050.22 413.875 1050.35 413.495 1050.44 412.908C1050.55 412.308 1050.64 411.428 1050.72 410.268C1050.8 409.095 1050.87 407.582 1050.92 405.728V405.308ZM1043.14 398.208L1045.74 398.968C1045.25 400.128 1044.65 401.248 1043.96 402.328C1043.28 403.408 1042.54 404.402 1041.74 405.308C1040.95 406.215 1040.13 407.002 1039.28 407.668C1039.13 407.495 1038.93 407.288 1038.68 407.048C1038.43 406.795 1038.17 406.548 1037.9 406.308C1037.65 406.068 1037.42 405.875 1037.22 405.728C1038.05 405.168 1038.83 404.502 1039.58 403.728C1040.34 402.942 1041.03 402.082 1041.64 401.148C1042.25 400.202 1042.75 399.222 1043.14 398.208ZM1050.76 398.168C1051.08 398.808 1051.47 399.462 1051.92 400.128C1052.37 400.795 1052.87 401.448 1053.4 402.088C1053.95 402.715 1054.5 403.308 1055.06 403.868C1055.63 404.428 1056.19 404.915 1056.74 405.328C1056.53 405.488 1056.29 405.702 1056.02 405.968C1055.77 406.222 1055.52 406.482 1055.28 406.748C1055.05 407.015 1054.86 407.262 1054.7 407.488C1054.14 406.968 1053.57 406.388 1053 405.748C1052.43 405.095 1051.86 404.408 1051.3 403.688C1050.75 402.955 1050.23 402.202 1049.74 401.428C1049.25 400.642 1048.8 399.868 1048.4 399.108L1050.76 398.168ZM1044.46 405.988H1047.08C1046.99 407.108 1046.83 408.202 1046.62 409.268C1046.41 410.335 1046.05 411.342 1045.56 412.288C1045.08 413.235 1044.38 414.102 1043.46 414.888C1042.55 415.662 1041.35 416.322 1039.86 416.868C1039.77 416.642 1039.63 416.395 1039.46 416.128C1039.29 415.862 1039.1 415.595 1038.9 415.328C1038.7 415.075 1038.5 414.855 1038.3 414.668C1039.65 414.242 1040.71 413.715 1041.5 413.088C1042.29 412.448 1042.88 411.755 1043.28 411.008C1043.68 410.248 1043.95 409.442 1044.1 408.588C1044.26 407.735 1044.38 406.868 1044.46 405.988ZM1087.92 403.928H1091.96V405.748H1087.92V403.928ZM1086.42 409.768H1092.94V411.388H1086.42V409.768ZM1079.6 398.648H1085.1V400.528H1079.6V398.648ZM1084.48 398.648H1084.88L1085.26 398.568L1086.74 399.288C1086.26 400.462 1085.61 401.502 1084.78 402.408C1083.95 403.302 1083.02 404.075 1081.98 404.728C1080.94 405.368 1079.85 405.902 1078.72 406.328C1078.57 406.062 1078.37 405.755 1078.12 405.408C1077.87 405.048 1077.64 404.768 1077.44 404.568C1078.19 404.342 1078.92 404.048 1079.64 403.688C1080.37 403.315 1081.05 402.888 1081.68 402.408C1082.31 401.928 1082.86 401.402 1083.34 400.828C1083.82 400.255 1084.2 399.648 1084.48 399.008V398.648ZM1088.72 397.948C1089.17 398.935 1089.77 399.842 1090.52 400.668C1091.28 401.482 1092.16 402.188 1093.16 402.788C1094.17 403.388 1095.3 403.848 1096.54 404.168C1096.29 404.395 1096.02 404.695 1095.74 405.068C1095.47 405.428 1095.26 405.755 1095.1 406.048C1093.79 405.635 1092.61 405.068 1091.56 404.348C1090.52 403.628 1089.6 402.782 1088.8 401.808C1088.01 400.822 1087.35 399.722 1086.8 398.508L1088.72 397.948ZM1091.72 398.088L1093.46 399.288C1092.98 399.702 1092.49 400.108 1091.98 400.508C1091.49 400.895 1091.03 401.228 1090.62 401.508L1089.24 400.428C1089.51 400.228 1089.79 399.995 1090.1 399.728C1090.41 399.448 1090.7 399.168 1090.98 398.888C1091.27 398.595 1091.52 398.328 1091.72 398.088ZM1094.3 400.088L1096.04 401.288C1095.57 401.702 1095.08 402.108 1094.56 402.508C1094.04 402.895 1093.57 403.228 1093.14 403.508L1091.72 402.428C1092 402.228 1092.29 401.995 1092.6 401.728C1092.92 401.448 1093.23 401.168 1093.54 400.888C1093.85 400.595 1094.1 400.328 1094.3 400.088ZM1080.12 404.048H1085.56V409.288H1083.44V405.868H1080.12V404.048ZM1079.74 407.268H1081.72C1081.61 407.842 1081.5 408.455 1081.38 409.108C1081.26 409.748 1081.13 410.368 1081 410.968C1080.88 411.555 1080.75 412.082 1080.62 412.548L1078.68 412.248C1078.81 411.808 1078.94 411.308 1079.06 410.748C1079.19 410.175 1079.31 409.588 1079.42 408.988C1079.54 408.375 1079.65 407.802 1079.74 407.268ZM1083.44 410.328H1085.6C1085.6 410.328 1085.59 410.435 1085.58 410.648C1085.58 410.862 1085.57 411.035 1085.54 411.168C1085.47 412.128 1085.39 412.935 1085.3 413.588C1085.22 414.228 1085.12 414.735 1085 415.108C1084.88 415.482 1084.73 415.762 1084.54 415.948C1084.33 416.188 1084.09 416.348 1083.84 416.428C1083.59 416.522 1083.29 416.588 1082.94 416.628C1082.66 416.655 1082.28 416.668 1081.8 416.668C1081.32 416.682 1080.81 416.675 1080.26 416.648C1080.23 416.328 1080.16 415.982 1080.04 415.608C1079.92 415.235 1079.77 414.908 1079.58 414.628C1080.07 414.668 1080.55 414.695 1081 414.708C1081.45 414.722 1081.79 414.728 1082 414.728C1082.17 414.728 1082.32 414.722 1082.44 414.708C1082.56 414.682 1082.67 414.628 1082.76 414.548C1082.87 414.455 1082.96 414.262 1083.04 413.968C1083.12 413.675 1083.19 413.255 1083.26 412.708C1083.33 412.162 1083.39 411.462 1083.44 410.608V410.328ZM1087.02 403.928H1089.02V405.408C1089.02 405.888 1088.96 406.395 1088.84 406.928C1088.72 407.448 1088.5 407.948 1088.18 408.428C1087.87 408.908 1087.41 409.335 1086.8 409.708C1086.71 409.575 1086.57 409.408 1086.38 409.208C1086.19 409.008 1086 408.815 1085.8 408.628C1085.6 408.442 1085.43 408.308 1085.3 408.228C1085.81 407.935 1086.18 407.628 1086.42 407.308C1086.66 406.988 1086.82 406.662 1086.9 406.328C1086.98 405.995 1087.02 405.668 1087.02 405.348V403.928ZM1092.46 409.768H1092.88L1093.26 409.708L1094.56 410.168C1094.15 411.462 1093.54 412.542 1092.74 413.408C1091.95 414.275 1091.01 414.975 1089.92 415.508C1088.83 416.042 1087.61 416.455 1086.26 416.748C1086.15 416.495 1086.01 416.195 1085.82 415.848C1085.63 415.502 1085.44 415.222 1085.24 415.008C1086.41 414.822 1087.48 414.522 1088.44 414.108C1089.41 413.682 1090.25 413.135 1090.94 412.468C1091.63 411.802 1092.14 410.988 1092.46 410.028V409.768ZM1088.84 411.228C1089.43 412.188 1090.31 412.975 1091.5 413.588C1092.7 414.188 1094.12 414.595 1095.76 414.808C1095.52 415.035 1095.27 415.342 1095 415.728C1094.73 416.115 1094.53 416.455 1094.38 416.748C1092.63 416.402 1091.15 415.808 1089.92 414.968C1088.69 414.128 1087.73 413.048 1087.04 411.728L1088.84 411.228ZM1080.74 407.268H1084.18V409.048H1080.42L1080.74 407.268ZM1080.2 410.328H1084.04V412.068H1079.84L1080.2 410.328ZM1090.8 403.928H1092.82V406.948C1092.82 407.068 1092.82 407.175 1092.82 407.268C1092.83 407.348 1092.85 407.402 1092.88 407.428C1092.92 407.482 1092.99 407.508 1093.1 407.508C1093.14 407.508 1093.19 407.508 1093.26 407.508C1093.33 407.508 1093.39 407.508 1093.44 407.508C1093.48 407.508 1093.53 407.508 1093.58 407.508C1093.63 407.508 1093.67 407.502 1093.7 407.488C1093.73 407.462 1093.76 407.435 1093.8 407.408C1093.84 407.368 1093.87 407.308 1093.88 407.228C1093.91 407.162 1093.92 407.048 1093.92 406.888C1093.93 406.728 1093.95 406.542 1093.96 406.328C1094.15 406.488 1094.4 406.655 1094.72 406.828C1095.05 406.988 1095.36 407.115 1095.64 407.208C1095.6 407.462 1095.56 407.715 1095.52 407.968C1095.48 408.208 1095.42 408.388 1095.34 408.508C1095.26 408.628 1095.16 408.735 1095.04 408.828C1094.92 408.922 1094.77 409.002 1094.6 409.068C1094.48 409.108 1094.32 409.142 1094.12 409.168C1093.93 409.195 1093.77 409.208 1093.62 409.208C1093.47 409.208 1093.3 409.208 1093.1 409.208C1092.91 409.208 1092.75 409.208 1092.6 409.208C1092.37 409.208 1092.13 409.175 1091.88 409.108C1091.64 409.028 1091.44 408.915 1091.28 408.768C1091.12 408.595 1091 408.388 1090.92 408.148C1090.84 407.895 1090.8 407.482 1090.8 406.908V403.928ZM1078.94 401.808L1080.3 400.548C1080.7 400.748 1081.13 400.995 1081.6 401.288C1082.08 401.568 1082.45 401.828 1082.72 402.068L1081.28 403.468C1081.04 403.215 1080.69 402.935 1080.24 402.628C1079.79 402.322 1079.35 402.048 1078.94 401.808ZM1128.9 404.568H1136.38V406.788H1128.9V404.568ZM1118.06 399.948H1127.08V401.888H1118.06V399.948ZM1117.88 407.908H1127.06V409.928H1117.88V407.908ZM1117.82 404.408H1127.24V406.368H1117.82V404.408ZM1132.14 405.548H1134.48V416.648H1132.14V405.548ZM1121.42 398.128H1123.74V400.808H1121.42V398.128ZM1121.42 406.248H1123.74V416.708H1121.42V406.248ZM1127.82 399.528L1130.62 400.328C1130.61 400.502 1130.44 400.615 1130.12 400.668V406.548C1130.12 407.295 1130.08 408.115 1130 409.008C1129.93 409.888 1129.79 410.795 1129.58 411.728C1129.37 412.648 1129.05 413.542 1128.64 414.408C1128.23 415.275 1127.68 416.068 1127 416.788C1126.91 416.602 1126.75 416.402 1126.54 416.188C1126.34 415.975 1126.13 415.768 1125.9 415.568C1125.69 415.382 1125.48 415.242 1125.28 415.148C1125.87 414.535 1126.33 413.875 1126.66 413.168C1127.01 412.448 1127.26 411.708 1127.42 410.948C1127.59 410.188 1127.7 409.435 1127.74 408.688C1127.79 407.928 1127.82 407.202 1127.82 406.508V399.528ZM1134.36 398.168L1136.28 399.908C1135.6 400.215 1134.86 400.495 1134.06 400.748C1133.26 401.002 1132.44 401.228 1131.6 401.428C1130.77 401.615 1129.97 401.782 1129.2 401.928C1129.13 401.675 1129.03 401.368 1128.88 401.008C1128.73 400.648 1128.59 400.348 1128.44 400.108C1129.16 399.948 1129.89 399.768 1130.62 399.568C1131.35 399.355 1132.04 399.128 1132.68 398.888C1133.33 398.648 1133.89 398.408 1134.36 398.168ZM1123.58 410.008C1123.73 410.088 1123.94 410.235 1124.22 410.448C1124.51 410.662 1124.82 410.895 1125.14 411.148C1125.46 411.388 1125.75 411.615 1126 411.828C1126.27 412.028 1126.47 412.175 1126.6 412.268L1125.2 413.988C1125.04 413.802 1124.83 413.575 1124.58 413.308C1124.34 413.028 1124.07 412.748 1123.78 412.468C1123.5 412.188 1123.23 411.922 1122.96 411.668C1122.69 411.415 1122.47 411.208 1122.28 411.048L1123.58 410.008ZM1119.06 402.188L1120.92 401.748C1121.09 402.108 1121.25 402.515 1121.38 402.968C1121.51 403.408 1121.6 403.788 1121.64 404.108L1119.7 404.648C1119.67 404.315 1119.6 403.922 1119.48 403.468C1119.37 403.002 1119.23 402.575 1119.06 402.188ZM1124.04 401.708L1126.18 402.128C1125.99 402.582 1125.81 403.022 1125.64 403.448C1125.47 403.862 1125.31 404.215 1125.16 404.508L1123.24 404.108C1123.33 403.882 1123.43 403.628 1123.54 403.348C1123.65 403.068 1123.75 402.788 1123.84 402.508C1123.93 402.215 1124 401.948 1124.04 401.708ZM1121.44 409.068L1123.12 409.708C1122.8 410.428 1122.41 411.155 1121.96 411.888C1121.51 412.608 1121.01 413.282 1120.48 413.908C1119.95 414.535 1119.41 415.062 1118.88 415.488C1118.71 415.235 1118.47 414.942 1118.16 414.608C1117.85 414.262 1117.57 413.988 1117.32 413.788C1117.84 413.455 1118.36 413.035 1118.88 412.528C1119.4 412.008 1119.88 411.455 1120.32 410.868C1120.77 410.268 1121.15 409.668 1121.44 409.068ZM1165.32 398.428H1168.08C1168.05 398.988 1168.01 399.708 1167.94 400.588C1167.87 401.468 1167.75 402.448 1167.56 403.528C1167.39 404.595 1167.12 405.715 1166.76 406.888C1166.4 408.062 1165.91 409.235 1165.28 410.408C1164.67 411.568 1163.88 412.682 1162.92 413.748C1161.97 414.802 1160.82 415.742 1159.46 416.568C1159.25 416.262 1158.95 415.935 1158.58 415.588C1158.22 415.242 1157.84 414.928 1157.44 414.648C1158.77 413.902 1159.89 413.048 1160.8 412.088C1161.71 411.128 1162.45 410.122 1163.02 409.068C1163.59 408.002 1164.03 406.935 1164.34 405.868C1164.65 404.788 1164.87 403.768 1165 402.808C1165.13 401.848 1165.21 400.988 1165.24 400.228C1165.27 399.468 1165.29 398.868 1165.32 398.428ZM1167.98 398.968C1167.99 399.222 1168.02 399.622 1168.06 400.168C1168.1 400.715 1168.18 401.368 1168.3 402.128C1168.42 402.888 1168.6 403.715 1168.84 404.608C1169.09 405.488 1169.43 406.395 1169.84 407.328C1170.25 408.262 1170.77 409.175 1171.38 410.068C1171.99 410.962 1172.73 411.788 1173.6 412.548C1174.48 413.308 1175.51 413.968 1176.68 414.528C1176.29 414.808 1175.93 415.135 1175.6 415.508C1175.28 415.882 1175.02 416.235 1174.82 416.568C1173.59 415.955 1172.52 415.228 1171.6 414.388C1170.69 413.535 1169.91 412.615 1169.26 411.628C1168.62 410.628 1168.09 409.615 1167.66 408.588C1167.23 407.562 1166.89 406.555 1166.62 405.568C1166.37 404.568 1166.17 403.642 1166.04 402.788C1165.91 401.935 1165.81 401.195 1165.76 400.568C1165.72 399.942 1165.69 399.488 1165.66 399.208L1167.98 398.968Z" fill="white"/>
<path d="M1056.18 444.573V455.948H1054.22L1049.12 447.799V455.948H1047.16V444.573H1049.12L1054.23 452.737V444.573H1056.18ZM1062.37 456.104C1061.75 456.104 1061.18 456.002 1060.68 455.799C1060.18 455.591 1059.75 455.302 1059.4 454.932C1059.05 454.562 1058.78 454.127 1058.59 453.627C1058.41 453.127 1058.31 452.588 1058.31 452.01V451.698C1058.31 451.036 1058.41 450.437 1058.6 449.901C1058.79 449.364 1059.06 448.906 1059.41 448.526C1059.75 448.14 1060.16 447.846 1060.62 447.643C1061.09 447.44 1061.6 447.338 1062.15 447.338C1062.75 447.338 1063.28 447.44 1063.73 447.643C1064.19 447.846 1064.56 448.133 1064.86 448.502C1065.16 448.867 1065.39 449.302 1065.53 449.807C1065.68 450.312 1065.76 450.87 1065.76 451.479V452.284H1059.23V450.932H1063.9V450.784C1063.89 450.445 1063.82 450.127 1063.69 449.831C1063.58 449.534 1063.39 449.294 1063.14 449.112C1062.89 448.93 1062.56 448.838 1062.14 448.838C1061.83 448.838 1061.55 448.906 1061.3 449.042C1061.06 449.172 1060.86 449.362 1060.7 449.612C1060.54 449.862 1060.42 450.164 1060.33 450.518C1060.24 450.867 1060.2 451.26 1060.2 451.698V452.01C1060.2 452.38 1060.25 452.724 1060.35 453.042C1060.46 453.354 1060.61 453.627 1060.8 453.862C1061 454.096 1061.24 454.281 1061.52 454.417C1061.8 454.547 1062.12 454.612 1062.48 454.612C1062.94 454.612 1063.34 454.521 1063.69 454.338C1064.05 454.156 1064.36 453.898 1064.62 453.565L1065.61 454.526C1065.43 454.792 1065.19 455.047 1064.9 455.292C1064.61 455.531 1064.25 455.726 1063.83 455.877C1063.41 456.028 1062.93 456.104 1062.37 456.104ZM1069.84 454.073L1071.8 447.495H1073L1072.67 449.463L1070.7 455.948H1069.62L1069.84 454.073ZM1068.69 447.495L1070.22 454.104L1070.34 455.948H1069.14L1066.85 447.495H1068.69ZM1074.83 454.026L1076.3 447.495H1078.14L1075.86 455.948H1074.66L1074.83 454.026ZM1073.2 447.495L1075.13 453.995L1075.37 455.948H1074.3L1072.3 449.456L1071.98 447.495H1073.2ZM1091.75 449.323V450.877H1085.71V449.323H1091.75ZM1086.19 444.573V455.948H1084.23V444.573H1086.19ZM1093.26 444.573V455.948H1091.3V444.573H1093.26ZM1097.74 447.495V455.948H1095.85V447.495H1097.74ZM1095.72 445.276C1095.72 444.989 1095.82 444.752 1096.01 444.565C1096.2 444.372 1096.46 444.276 1096.8 444.276C1097.14 444.276 1097.4 444.372 1097.59 444.565C1097.78 444.752 1097.88 444.989 1097.88 445.276C1097.88 445.557 1097.78 445.792 1097.59 445.979C1097.4 446.167 1097.14 446.26 1096.8 446.26C1096.46 446.26 1096.2 446.167 1096.01 445.979C1095.82 445.792 1095.72 445.557 1095.72 445.276ZM1102.01 449.104V455.948H1100.13V447.495H1101.93L1102.01 449.104ZM1104.6 447.44L1104.58 449.19C1104.47 449.169 1104.34 449.153 1104.21 449.143C1104.08 449.133 1103.95 449.127 1103.82 449.127C1103.5 449.127 1103.21 449.174 1102.97 449.268C1102.72 449.357 1102.52 449.487 1102.35 449.659C1102.19 449.825 1102.06 450.028 1101.97 450.268C1101.89 450.508 1101.83 450.776 1101.82 451.073L1101.39 451.104C1101.39 450.573 1101.44 450.081 1101.54 449.627C1101.65 449.174 1101.81 448.776 1102.01 448.432C1102.23 448.088 1102.49 447.82 1102.81 447.627C1103.13 447.435 1103.51 447.338 1103.93 447.338C1104.04 447.338 1104.16 447.349 1104.29 447.37C1104.43 447.39 1104.53 447.414 1104.6 447.44ZM1109.67 456.104C1109.04 456.104 1108.48 456.002 1107.97 455.799C1107.47 455.591 1107.05 455.302 1106.69 454.932C1106.34 454.562 1106.08 454.127 1105.89 453.627C1105.7 453.127 1105.61 452.588 1105.61 452.01V451.698C1105.61 451.036 1105.7 450.437 1105.9 449.901C1106.09 449.364 1106.36 448.906 1106.7 448.526C1107.04 448.14 1107.45 447.846 1107.92 447.643C1108.39 447.44 1108.9 447.338 1109.44 447.338C1110.05 447.338 1110.58 447.44 1111.03 447.643C1111.48 447.846 1111.86 448.133 1112.15 448.502C1112.46 448.867 1112.68 449.302 1112.83 449.807C1112.98 450.312 1113.05 450.87 1113.05 451.479V452.284H1106.52V450.932H1111.19V450.784C1111.18 450.445 1111.12 450.127 1110.99 449.831C1110.87 449.534 1110.69 449.294 1110.44 449.112C1110.19 448.93 1109.85 448.838 1109.44 448.838C1109.12 448.838 1108.84 448.906 1108.6 449.042C1108.36 449.172 1108.16 449.362 1108 449.612C1107.84 449.862 1107.71 450.164 1107.62 450.518C1107.54 450.867 1107.5 451.26 1107.5 451.698V452.01C1107.5 452.38 1107.55 452.724 1107.65 453.042C1107.75 453.354 1107.9 453.627 1108.1 453.862C1108.3 454.096 1108.54 454.281 1108.82 454.417C1109.1 454.547 1109.42 454.612 1109.78 454.612C1110.23 454.612 1110.64 454.521 1110.99 454.338C1111.34 454.156 1111.65 453.898 1111.91 453.565L1112.9 454.526C1112.72 454.792 1112.48 455.047 1112.19 455.292C1111.9 455.531 1111.54 455.726 1111.12 455.877C1110.71 456.028 1110.22 456.104 1109.67 456.104ZM1123.76 446.088L1120.36 455.948H1118.31L1122.59 444.573H1123.9L1123.76 446.088ZM1126.61 455.948L1123.2 446.088L1123.05 444.573H1124.37L1128.67 455.948H1126.61ZM1126.44 451.729V453.284H1120.25V451.729H1126.44ZM1134.82 453.659C1134.82 453.471 1134.77 453.302 1134.68 453.151C1134.58 452.995 1134.4 452.854 1134.14 452.729C1133.88 452.604 1133.49 452.489 1132.98 452.385C1132.53 452.286 1132.12 452.169 1131.75 452.034C1131.38 451.893 1131.06 451.724 1130.79 451.526C1130.53 451.328 1130.32 451.094 1130.18 450.823C1130.03 450.552 1129.96 450.239 1129.96 449.885C1129.96 449.542 1130.03 449.216 1130.18 448.909C1130.34 448.601 1130.55 448.331 1130.83 448.096C1131.11 447.862 1131.46 447.677 1131.86 447.542C1132.26 447.406 1132.72 447.338 1133.22 447.338C1133.92 447.338 1134.53 447.458 1135.04 447.698C1135.55 447.932 1135.94 448.252 1136.21 448.659C1136.48 449.06 1136.61 449.513 1136.61 450.018H1134.73C1134.73 449.794 1134.67 449.586 1134.56 449.393C1134.45 449.195 1134.28 449.036 1134.06 448.917C1133.84 448.792 1133.55 448.729 1133.22 448.729C1132.89 448.729 1132.62 448.781 1132.41 448.885C1132.2 448.984 1132.05 449.114 1131.94 449.276C1131.84 449.437 1131.79 449.614 1131.79 449.807C1131.79 449.948 1131.82 450.075 1131.87 450.19C1131.93 450.299 1132.02 450.401 1132.15 450.495C1132.28 450.583 1132.46 450.667 1132.68 450.745C1132.91 450.823 1133.2 450.898 1133.54 450.971C1134.19 451.107 1134.74 451.281 1135.21 451.495C1135.68 451.703 1136.04 451.974 1136.29 452.307C1136.54 452.635 1136.66 453.052 1136.66 453.557C1136.66 453.932 1136.58 454.276 1136.42 454.588C1136.26 454.896 1136.03 455.164 1135.73 455.393C1135.43 455.617 1135.07 455.792 1134.65 455.917C1134.23 456.042 1133.76 456.104 1133.24 456.104C1132.47 456.104 1131.82 455.969 1131.29 455.698C1130.76 455.422 1130.36 455.07 1130.08 454.643C1129.81 454.211 1129.68 453.763 1129.68 453.299H1131.5C1131.52 453.648 1131.61 453.927 1131.79 454.135C1131.96 454.338 1132.18 454.487 1132.44 454.581C1132.71 454.669 1132.98 454.713 1133.26 454.713C1133.6 454.713 1133.88 454.669 1134.11 454.581C1134.34 454.487 1134.52 454.362 1134.64 454.206C1134.76 454.044 1134.82 453.862 1134.82 453.659ZM1143.37 453.659C1143.37 453.471 1143.32 453.302 1143.23 453.151C1143.14 452.995 1142.96 452.854 1142.69 452.729C1142.43 452.604 1142.05 452.489 1141.54 452.385C1141.09 452.286 1140.68 452.169 1140.3 452.034C1139.93 451.893 1139.61 451.724 1139.35 451.526C1139.08 451.328 1138.88 451.094 1138.73 450.823C1138.59 450.552 1138.51 450.239 1138.51 449.885C1138.51 449.542 1138.59 449.216 1138.74 448.909C1138.89 448.601 1139.11 448.331 1139.39 448.096C1139.67 447.862 1140.01 447.677 1140.41 447.542C1140.82 447.406 1141.27 447.338 1141.77 447.338C1142.48 447.338 1143.09 447.458 1143.59 447.698C1144.1 447.932 1144.49 448.252 1144.76 448.659C1145.03 449.06 1145.17 449.513 1145.17 450.018H1143.29C1143.29 449.794 1143.23 449.586 1143.11 449.393C1143 449.195 1142.84 449.036 1142.61 448.917C1142.39 448.792 1142.11 448.729 1141.77 448.729C1141.45 448.729 1141.18 448.781 1140.97 448.885C1140.76 448.984 1140.6 449.114 1140.5 449.276C1140.4 449.437 1140.35 449.614 1140.35 449.807C1140.35 449.948 1140.37 450.075 1140.43 450.19C1140.48 450.299 1140.58 450.401 1140.71 450.495C1140.84 450.583 1141.01 450.667 1141.24 450.745C1141.47 450.823 1141.75 450.898 1142.1 450.971C1142.74 451.107 1143.3 451.281 1143.76 451.495C1144.23 451.703 1144.59 451.974 1144.84 452.307C1145.09 452.635 1145.22 453.052 1145.22 453.557C1145.22 453.932 1145.13 454.276 1144.97 454.588C1144.82 454.896 1144.59 455.164 1144.29 455.393C1143.98 455.617 1143.62 455.792 1143.2 455.917C1142.78 456.042 1142.31 456.104 1141.79 456.104C1141.03 456.104 1140.38 455.969 1139.85 455.698C1139.32 455.422 1138.91 455.07 1138.64 454.643C1138.37 454.211 1138.23 453.763 1138.23 453.299H1140.05C1140.07 453.648 1140.17 453.927 1140.34 454.135C1140.52 454.338 1140.74 454.487 1141 454.581C1141.26 454.669 1141.54 454.713 1141.82 454.713C1142.16 454.713 1142.44 454.669 1142.67 454.581C1142.9 454.487 1143.07 454.362 1143.19 454.206C1143.31 454.044 1143.37 453.862 1143.37 453.659ZM1149.2 447.495V455.948H1147.31V447.495H1149.2ZM1147.18 445.276C1147.18 444.989 1147.28 444.752 1147.46 444.565C1147.66 444.372 1147.92 444.276 1148.26 444.276C1148.6 444.276 1148.86 444.372 1149.05 444.565C1149.24 444.752 1149.34 444.989 1149.34 445.276C1149.34 445.557 1149.24 445.792 1149.05 445.979C1148.86 446.167 1148.6 446.26 1148.26 446.26C1147.92 446.26 1147.66 446.167 1147.46 445.979C1147.28 445.792 1147.18 445.557 1147.18 445.276ZM1157 447.495H1158.71V455.713C1158.71 456.474 1158.55 457.12 1158.22 457.651C1157.9 458.182 1157.45 458.586 1156.87 458.862C1156.29 459.143 1155.62 459.284 1154.86 459.284C1154.54 459.284 1154.18 459.237 1153.79 459.143C1153.39 459.049 1153.01 458.898 1152.64 458.69C1152.28 458.487 1151.98 458.219 1151.73 457.885L1152.61 456.776C1152.92 457.135 1153.25 457.398 1153.61 457.565C1153.98 457.732 1154.36 457.815 1154.76 457.815C1155.19 457.815 1155.56 457.734 1155.86 457.573C1156.17 457.417 1156.41 457.185 1156.57 456.877C1156.74 456.57 1156.82 456.195 1156.82 455.752V449.409L1157 447.495ZM1151.25 451.815V451.651C1151.25 451.01 1151.33 450.427 1151.49 449.901C1151.64 449.37 1151.87 448.914 1152.16 448.534C1152.45 448.148 1152.81 447.854 1153.22 447.651C1153.64 447.443 1154.11 447.338 1154.64 447.338C1155.18 447.338 1155.65 447.437 1156.04 447.635C1156.43 447.833 1156.75 448.117 1157.01 448.487C1157.27 448.851 1157.48 449.289 1157.62 449.799C1157.77 450.305 1157.88 450.867 1157.96 451.487V452.01C1157.89 452.614 1157.77 453.167 1157.61 453.667C1157.45 454.167 1157.24 454.599 1156.97 454.963C1156.71 455.328 1156.38 455.609 1155.99 455.807C1155.6 456.005 1155.15 456.104 1154.62 456.104C1154.11 456.104 1153.64 455.997 1153.22 455.784C1152.81 455.57 1152.46 455.271 1152.16 454.885C1151.87 454.5 1151.64 454.047 1151.49 453.526C1151.33 453 1151.25 452.43 1151.25 451.815ZM1153.14 451.651V451.815C1153.14 452.2 1153.17 452.56 1153.25 452.893C1153.32 453.226 1153.44 453.521 1153.6 453.776C1153.76 454.026 1153.96 454.224 1154.21 454.37C1154.46 454.51 1154.75 454.581 1155.09 454.581C1155.53 454.581 1155.89 454.487 1156.18 454.299C1156.46 454.112 1156.68 453.859 1156.83 453.542C1156.99 453.219 1157.1 452.859 1157.16 452.463V451.049C1157.13 450.742 1157.06 450.456 1156.96 450.19C1156.87 449.924 1156.74 449.693 1156.58 449.495C1156.42 449.292 1156.22 449.135 1155.97 449.026C1155.73 448.911 1155.44 448.854 1155.11 448.854C1154.77 448.854 1154.47 448.927 1154.22 449.073C1153.97 449.219 1153.77 449.419 1153.61 449.674C1153.45 449.93 1153.33 450.226 1153.25 450.565C1153.18 450.903 1153.14 451.265 1153.14 451.651ZM1162.85 449.299V455.948H1160.96V447.495H1162.74L1162.85 449.299ZM1162.51 451.409L1161.9 451.401C1161.91 450.802 1161.99 450.252 1162.15 449.752C1162.32 449.252 1162.55 448.823 1162.84 448.463C1163.14 448.104 1163.49 447.828 1163.9 447.635C1164.31 447.437 1164.77 447.338 1165.28 447.338C1165.68 447.338 1166.05 447.396 1166.38 447.51C1166.71 447.62 1167 447.799 1167.23 448.049C1167.47 448.299 1167.65 448.625 1167.78 449.026C1167.9 449.422 1167.96 449.909 1167.96 450.487V455.948H1166.07V450.479C1166.07 450.073 1166.01 449.752 1165.89 449.518C1165.78 449.278 1165.61 449.109 1165.39 449.01C1165.17 448.906 1164.89 448.854 1164.57 448.854C1164.24 448.854 1163.95 448.922 1163.7 449.057C1163.44 449.193 1163.23 449.377 1163.05 449.612C1162.88 449.846 1162.75 450.117 1162.65 450.424C1162.56 450.732 1162.51 451.06 1162.51 451.409Z" fill="white"/>
<rect x="1352" y="384" width="256" height="95" rx="47.5" fill="#3CC3DF"/>
<path d="M1414.76 410.7H1425.14V412.86H1414.76V410.7ZM1411.04 414.3H1428.96V416.56H1411.04V414.3ZM1415.88 416.1H1418.48C1418.1 419.82 1417.14 422.46 1411.86 423.86C1411.62 423.22 1411 422.22 1410.46 421.72C1415.04 420.7 1415.58 418.84 1415.88 416.1ZM1421.04 415.72H1423.46V420.6C1423.46 421.24 1423.58 421.34 1424.28 421.34C1424.6 421.34 1425.9 421.34 1426.28 421.34C1426.94 421.34 1427.06 421 1427.14 418.9C1427.62 419.28 1428.66 419.66 1429.28 419.82C1429.04 422.74 1428.4 423.5 1426.5 423.5C1426.04 423.5 1424.4 423.5 1423.94 423.5C1421.6 423.5 1421.04 422.8 1421.04 420.64V415.72ZM1418.66 405.04H1421.22V408.66H1418.66V405.04ZM1411.4 406.96H1428.58V411.72H1426V409.22H1413.84V411.72H1411.4V406.96ZM1453.62 412.54H1458.24V414.74H1453.62V412.54ZM1457.32 412.54H1459.66C1459.66 412.54 1459.64 413.14 1459.64 413.42C1459.56 417.66 1459.46 419.44 1459 420.06C1458.6 420.56 1458.2 420.74 1457.62 420.84C1457.08 420.92 1456.22 420.92 1455.28 420.9C1455.24 420.2 1454.98 419.26 1454.62 418.66C1455.34 418.74 1456.02 418.74 1456.34 418.74C1456.62 418.74 1456.8 418.7 1456.96 418.5C1457.2 418.18 1457.28 416.78 1457.32 412.9V412.54ZM1463.34 406.28L1464.78 404.82C1465.88 405.4 1467.36 406.32 1468.08 406.98L1466.54 408.6C1465.88 407.9 1464.46 406.92 1463.34 406.28ZM1465.7 411.42L1468.12 412C1466.44 417.22 1463.5 421.28 1459.54 423.72C1459.18 423.22 1458.3 422.22 1457.8 421.74C1461.64 419.68 1464.32 416.06 1465.7 411.42ZM1453.76 408.02H1469.18V410.38H1453.76V408.02ZM1452.16 408.02H1454.68V413.9C1454.68 416.9 1454.34 421.34 1452.52 424.04C1452.12 423.56 1451.04 422.68 1450.48 422.4C1452.02 420 1452.16 416.5 1452.16 413.88V408.02ZM1460.28 405.04H1462.8C1462.66 413.2 1464.5 421.22 1466.52 421.22C1466.98 421.22 1467.22 420.2 1467.34 417.68C1467.88 418.24 1468.74 418.8 1469.38 419.04C1469 422.76 1468.2 423.66 1466.32 423.66C1461.96 423.66 1460.34 414.16 1460.28 405.04ZM1493.88 412.36H1504.7V414.7H1493.88V412.36ZM1503.92 412.36H1506.44C1506.44 412.36 1506.42 413.1 1506.4 413.4C1506.18 419.48 1505.94 421.86 1505.24 422.68C1504.74 423.36 1504.18 423.54 1503.42 423.66C1502.72 423.76 1501.56 423.74 1500.38 423.7C1500.34 423 1500.02 421.96 1499.58 421.28C1500.7 421.38 1501.74 421.4 1502.24 421.4C1502.6 421.4 1502.82 421.34 1503.04 421.12C1503.52 420.6 1503.74 418.36 1503.92 412.8V412.36ZM1496.14 405.28L1498.74 406.04C1497.24 409.52 1494.8 412.74 1492.28 414.72C1491.82 414.2 1490.78 413.24 1490.2 412.78C1492.72 411.12 1494.94 408.32 1496.14 405.28ZM1503.76 405.24C1505.02 407.78 1507.54 410.7 1509.74 412.38C1509.08 412.9 1508.16 413.88 1507.7 414.56C1505.44 412.48 1502.98 409.24 1501.4 406.18L1503.76 405.24ZM1497.46 413.04H1500.06C1499.68 417.54 1498.82 421.72 1492.86 423.94C1492.56 423.28 1491.86 422.26 1491.3 421.74C1496.66 419.98 1497.14 416.6 1497.46 413.04ZM1540.92 411H1544.96V412.8H1540.92V411ZM1539.42 416.84H1545.94V418.44H1539.42V416.84ZM1532.6 405.72H1538.08V407.6H1532.6V405.72ZM1537.46 405.72H1537.86L1538.24 405.64L1539.74 406.36C1538.26 409.86 1535.12 412.14 1531.7 413.38C1531.42 412.86 1530.84 412.04 1530.42 411.62C1533.46 410.72 1536.38 408.62 1537.46 406.06V405.72ZM1541.72 405.02C1543.06 407.98 1545.82 410.26 1549.52 411.22C1549.04 411.68 1548.42 412.54 1548.1 413.12C1544.18 411.86 1541.42 409.22 1539.8 405.58L1541.72 405.02ZM1544.72 405.14L1546.44 406.36C1545.5 407.18 1544.42 408 1543.6 408.56L1542.22 407.5C1543 406.9 1544.1 405.88 1544.72 405.14ZM1547.3 407.14L1549.02 408.34C1548.08 409.18 1546.98 410.02 1546.14 410.56L1544.7 409.5C1545.52 408.9 1546.66 407.88 1547.3 407.14ZM1533.1 411.12H1538.54V416.34H1536.44V412.92H1533.1V411.12ZM1532.72 414.34H1534.7C1534.4 416.08 1533.98 418.24 1533.62 419.62L1531.68 419.3C1532.04 417.98 1532.48 415.94 1532.72 414.34ZM1536.42 417.4H1538.58C1538.58 417.4 1538.56 417.96 1538.52 418.22C1538.32 421.12 1538.08 422.46 1537.54 423.02C1537.1 423.48 1536.62 423.62 1535.94 423.7C1535.36 423.74 1534.32 423.74 1533.26 423.72C1533.2 423.08 1532.94 422.24 1532.56 421.68C1533.58 421.78 1534.56 421.8 1535 421.8C1535.34 421.8 1535.56 421.78 1535.74 421.62C1536.06 421.32 1536.24 420.22 1536.42 417.68V417.4ZM1540 411H1542V412.46C1542 413.94 1541.6 415.64 1539.8 416.78C1539.5 416.36 1538.7 415.56 1538.3 415.28C1539.8 414.42 1540 413.36 1540 412.42V411ZM1545.46 416.84H1545.88L1546.24 416.78L1547.56 417.22C1546.3 421.14 1543.28 422.94 1539.24 423.8C1539.04 423.3 1538.6 422.5 1538.24 422.06C1541.76 421.5 1544.48 419.96 1545.46 417.1V416.84ZM1541.84 418.3C1543 420.22 1545.48 421.44 1548.74 421.86C1548.26 422.34 1547.66 423.22 1547.36 423.8C1543.86 423.12 1541.42 421.44 1540.02 418.78L1541.84 418.3ZM1533.74 414.34H1537.16V416.1H1533.42L1533.74 414.34ZM1533.18 417.4H1537.02V419.14H1532.84L1533.18 417.4ZM1543.8 411H1545.82V414.02C1545.82 414.26 1545.82 414.42 1545.86 414.48C1545.92 414.54 1545.98 414.56 1546.08 414.56C1546.18 414.56 1546.32 414.56 1546.42 414.56C1546.52 414.56 1546.64 414.56 1546.68 414.54C1546.76 414.52 1546.82 414.44 1546.88 414.3C1546.92 414.14 1546.94 413.82 1546.96 413.4C1547.32 413.72 1548.08 414.1 1548.62 414.26C1548.56 414.78 1548.48 415.32 1548.32 415.58C1548.18 415.84 1547.92 416.02 1547.6 416.12C1547.34 416.22 1546.9 416.26 1546.62 416.26C1546.32 416.26 1545.88 416.26 1545.6 416.26C1545.14 416.26 1544.58 416.14 1544.26 415.82C1543.94 415.48 1543.8 415.1 1543.8 413.98V411ZM1531.94 408.88L1533.28 407.62C1534.1 408.02 1535.16 408.66 1535.7 409.12L1534.28 410.52C1533.8 410.04 1532.74 409.34 1531.94 408.88Z" fill="white"/>
<path d="M1419.48 450.758H1416.52V449.203H1419.48C1419.99 449.203 1420.41 449.12 1420.73 448.953C1421.04 448.786 1421.28 448.557 1421.42 448.266C1421.57 447.969 1421.65 447.63 1421.65 447.25C1421.65 446.891 1421.57 446.555 1421.42 446.242C1421.28 445.924 1421.04 445.669 1420.73 445.477C1420.41 445.284 1419.99 445.188 1419.48 445.188H1417.12V455H1415.16V443.625H1419.48C1420.36 443.625 1421.1 443.781 1421.72 444.094C1422.34 444.401 1422.81 444.828 1423.13 445.375C1423.46 445.917 1423.62 446.536 1423.62 447.234C1423.62 447.969 1423.46 448.599 1423.13 449.125C1422.81 449.651 1422.34 450.055 1421.72 450.336C1421.1 450.617 1420.36 450.758 1419.48 450.758ZM1427.4 448.156V455H1425.52V446.547H1427.31L1427.4 448.156ZM1429.98 446.492L1429.97 448.242C1429.85 448.221 1429.73 448.206 1429.59 448.195C1429.46 448.185 1429.33 448.18 1429.2 448.18C1428.88 448.18 1428.6 448.227 1428.35 448.32C1428.11 448.409 1427.9 448.539 1427.73 448.711C1427.57 448.878 1427.45 449.081 1427.36 449.32C1427.27 449.56 1427.22 449.828 1427.2 450.125L1426.77 450.156C1426.77 449.625 1426.83 449.133 1426.93 448.68C1427.03 448.227 1427.19 447.828 1427.4 447.484C1427.61 447.141 1427.88 446.872 1428.19 446.68C1428.52 446.487 1428.89 446.391 1429.31 446.391C1429.43 446.391 1429.55 446.401 1429.68 446.422C1429.81 446.443 1429.92 446.466 1429.98 446.492ZM1430.92 450.867V450.688C1430.92 450.078 1431.01 449.513 1431.19 448.992C1431.36 448.466 1431.62 448.01 1431.95 447.625C1432.29 447.234 1432.7 446.932 1433.19 446.719C1433.68 446.5 1434.23 446.391 1434.84 446.391C1435.46 446.391 1436.01 446.5 1436.5 446.719C1436.99 446.932 1437.4 447.234 1437.74 447.625C1438.08 448.01 1438.34 448.466 1438.51 448.992C1438.69 449.513 1438.78 450.078 1438.78 450.688V450.867C1438.78 451.477 1438.69 452.042 1438.51 452.562C1438.34 453.083 1438.08 453.539 1437.74 453.93C1437.4 454.315 1436.99 454.617 1436.51 454.836C1436.02 455.049 1435.47 455.156 1434.86 455.156C1434.24 455.156 1433.68 455.049 1433.19 454.836C1432.71 454.617 1432.3 454.315 1431.96 453.93C1431.62 453.539 1431.36 453.083 1431.19 452.562C1431.01 452.042 1430.92 451.477 1430.92 450.867ZM1432.8 450.688V450.867C1432.8 451.247 1432.84 451.607 1432.92 451.945C1433 452.284 1433.12 452.581 1433.29 452.836C1433.46 453.091 1433.67 453.292 1433.93 453.438C1434.19 453.583 1434.5 453.656 1434.86 453.656C1435.21 453.656 1435.51 453.583 1435.76 453.438C1436.03 453.292 1436.24 453.091 1436.41 452.836C1436.57 452.581 1436.69 452.284 1436.77 451.945C1436.86 451.607 1436.9 451.247 1436.9 450.867V450.688C1436.9 450.312 1436.86 449.958 1436.77 449.625C1436.69 449.286 1436.57 448.987 1436.4 448.727C1436.23 448.466 1436.02 448.263 1435.76 448.117C1435.5 447.966 1435.2 447.891 1434.84 447.891C1434.49 447.891 1434.18 447.966 1433.92 448.117C1433.67 448.263 1433.46 448.466 1433.29 448.727C1433.12 448.987 1433 449.286 1432.92 449.625C1432.84 449.958 1432.8 450.312 1432.8 450.688ZM1445.83 453.25V443H1447.73V455H1446.01L1445.83 453.25ZM1440.33 450.867V450.703C1440.33 450.062 1440.41 449.479 1440.56 448.953C1440.71 448.422 1440.93 447.966 1441.22 447.586C1441.5 447.201 1441.85 446.906 1442.26 446.703C1442.68 446.495 1443.14 446.391 1443.66 446.391C1444.17 446.391 1444.61 446.49 1445 446.688C1445.38 446.885 1445.71 447.169 1445.98 447.539C1446.25 447.904 1446.47 448.341 1446.63 448.852C1446.79 449.357 1446.91 449.919 1446.98 450.539V451.062C1446.91 451.667 1446.79 452.219 1446.63 452.719C1446.47 453.219 1446.25 453.651 1445.98 454.016C1445.71 454.38 1445.38 454.661 1444.99 454.859C1444.61 455.057 1444.16 455.156 1443.64 455.156C1443.13 455.156 1442.67 455.049 1442.26 454.836C1441.85 454.622 1441.5 454.323 1441.22 453.938C1440.93 453.552 1440.71 453.099 1440.56 452.578C1440.41 452.052 1440.33 451.482 1440.33 450.867ZM1442.22 450.703V450.867C1442.22 451.253 1442.25 451.612 1442.32 451.945C1442.39 452.279 1442.5 452.573 1442.66 452.828C1442.81 453.078 1443 453.276 1443.24 453.422C1443.49 453.562 1443.78 453.633 1444.12 453.633C1444.54 453.633 1444.89 453.539 1445.17 453.352C1445.45 453.164 1445.66 452.911 1445.82 452.594C1445.98 452.271 1446.09 451.911 1446.15 451.516V450.102C1446.12 449.794 1446.05 449.508 1445.95 449.242C1445.86 448.977 1445.73 448.745 1445.57 448.547C1445.41 448.344 1445.21 448.188 1444.97 448.078C1444.73 447.964 1444.45 447.906 1444.13 447.906C1443.79 447.906 1443.5 447.979 1443.26 448.125C1443.02 448.271 1442.82 448.471 1442.66 448.727C1442.51 448.982 1442.4 449.279 1442.33 449.617C1442.25 449.956 1442.22 450.318 1442.22 450.703ZM1455.1 453.008V446.547H1456.99V455H1455.21L1455.1 453.008ZM1455.37 451.25L1456 451.234C1456 451.802 1455.94 452.326 1455.81 452.805C1455.69 453.279 1455.49 453.693 1455.23 454.047C1454.97 454.396 1454.64 454.669 1454.23 454.867C1453.83 455.06 1453.34 455.156 1452.77 455.156C1452.36 455.156 1451.98 455.096 1451.64 454.977C1451.3 454.857 1451 454.672 1450.75 454.422C1450.5 454.172 1450.31 453.846 1450.18 453.445C1450.04 453.044 1449.98 452.565 1449.98 452.008V446.547H1451.86V452.023C1451.86 452.331 1451.89 452.589 1451.97 452.797C1452.04 453 1452.14 453.164 1452.26 453.289C1452.39 453.414 1452.54 453.503 1452.7 453.555C1452.87 453.607 1453.05 453.633 1453.23 453.633C1453.77 453.633 1454.19 453.529 1454.5 453.32C1454.81 453.107 1455.03 452.82 1455.16 452.461C1455.3 452.102 1455.37 451.698 1455.37 451.25ZM1462.69 453.656C1463 453.656 1463.28 453.596 1463.52 453.477C1463.77 453.352 1463.97 453.18 1464.12 452.961C1464.28 452.742 1464.37 452.49 1464.38 452.203H1466.15C1466.14 452.75 1465.98 453.247 1465.67 453.695C1465.36 454.143 1464.94 454.5 1464.43 454.766C1463.91 455.026 1463.34 455.156 1462.72 455.156C1462.07 455.156 1461.51 455.047 1461.03 454.828C1460.55 454.604 1460.15 454.297 1459.83 453.906C1459.52 453.516 1459.28 453.065 1459.12 452.555C1458.96 452.044 1458.88 451.497 1458.88 450.914V450.641C1458.88 450.057 1458.96 449.51 1459.12 449C1459.28 448.484 1459.52 448.031 1459.83 447.641C1460.15 447.25 1460.55 446.945 1461.03 446.727C1461.51 446.503 1462.07 446.391 1462.71 446.391C1463.39 446.391 1463.98 446.526 1464.49 446.797C1465 447.062 1465.4 447.435 1465.69 447.914C1465.99 448.388 1466.14 448.94 1466.15 449.57H1464.38C1464.37 449.258 1464.29 448.977 1464.15 448.727C1464.01 448.471 1463.82 448.268 1463.57 448.117C1463.32 447.966 1463.03 447.891 1462.69 447.891C1462.31 447.891 1461.99 447.969 1461.74 448.125C1461.49 448.276 1461.3 448.484 1461.15 448.75C1461.01 449.01 1460.91 449.305 1460.85 449.633C1460.79 449.956 1460.76 450.292 1460.76 450.641V450.914C1460.76 451.263 1460.79 451.602 1460.85 451.93C1460.91 452.258 1461.01 452.552 1461.15 452.812C1461.29 453.068 1461.49 453.273 1461.74 453.43C1461.99 453.581 1462.31 453.656 1462.69 453.656ZM1471.79 446.547V447.922H1467.03V446.547H1471.79ZM1468.4 444.477H1470.29V452.664C1470.29 452.924 1470.32 453.125 1470.4 453.266C1470.47 453.401 1470.58 453.492 1470.72 453.539C1470.85 453.586 1471.01 453.609 1471.19 453.609C1471.32 453.609 1471.45 453.602 1471.57 453.586C1471.69 453.57 1471.78 453.555 1471.86 453.539L1471.87 454.977C1471.71 455.023 1471.53 455.065 1471.32 455.102C1471.12 455.138 1470.88 455.156 1470.62 455.156C1470.18 455.156 1469.8 455.081 1469.47 454.93C1469.13 454.773 1468.87 454.521 1468.69 454.172C1468.5 453.823 1468.4 453.359 1468.4 452.781V444.477ZM1482.61 452.711C1482.61 452.523 1482.57 452.354 1482.47 452.203C1482.38 452.047 1482.2 451.906 1481.94 451.781C1481.67 451.656 1481.29 451.542 1480.78 451.438C1480.33 451.339 1479.92 451.221 1479.54 451.086C1479.17 450.945 1478.86 450.776 1478.59 450.578C1478.33 450.38 1478.12 450.146 1477.97 449.875C1477.83 449.604 1477.76 449.292 1477.76 448.938C1477.76 448.594 1477.83 448.268 1477.98 447.961C1478.13 447.654 1478.35 447.383 1478.63 447.148C1478.91 446.914 1479.25 446.729 1479.65 446.594C1480.06 446.458 1480.51 446.391 1481.01 446.391C1481.72 446.391 1482.33 446.51 1482.83 446.75C1483.34 446.984 1483.73 447.305 1484.01 447.711C1484.28 448.112 1484.41 448.565 1484.41 449.07H1482.53C1482.53 448.846 1482.47 448.638 1482.36 448.445C1482.25 448.247 1482.08 448.089 1481.86 447.969C1481.63 447.844 1481.35 447.781 1481.01 447.781C1480.69 447.781 1480.42 447.833 1480.21 447.938C1480 448.036 1479.84 448.167 1479.74 448.328C1479.64 448.49 1479.59 448.667 1479.59 448.859C1479.59 449 1479.62 449.128 1479.67 449.242C1479.73 449.352 1479.82 449.453 1479.95 449.547C1480.08 449.635 1480.26 449.719 1480.48 449.797C1480.71 449.875 1481 449.951 1481.34 450.023C1481.99 450.159 1482.54 450.333 1483.01 450.547C1483.47 450.755 1483.83 451.026 1484.08 451.359C1484.33 451.688 1484.46 452.104 1484.46 452.609C1484.46 452.984 1484.38 453.328 1484.22 453.641C1484.06 453.948 1483.83 454.216 1483.53 454.445C1483.23 454.669 1482.86 454.844 1482.44 454.969C1482.03 455.094 1481.56 455.156 1481.04 455.156C1480.27 455.156 1479.62 455.021 1479.09 454.75C1478.56 454.474 1478.16 454.122 1477.88 453.695C1477.61 453.263 1477.47 452.815 1477.47 452.352H1479.29C1479.32 452.701 1479.41 452.979 1479.58 453.188C1479.76 453.391 1479.98 453.539 1480.24 453.633C1480.51 453.721 1480.78 453.766 1481.06 453.766C1481.4 453.766 1481.68 453.721 1481.91 453.633C1482.14 453.539 1482.32 453.414 1482.44 453.258C1482.55 453.096 1482.61 452.914 1482.61 452.711ZM1490.15 455.156C1489.53 455.156 1488.96 455.055 1488.46 454.852C1487.96 454.643 1487.53 454.354 1487.18 453.984C1486.83 453.615 1486.56 453.18 1486.37 452.68C1486.18 452.18 1486.09 451.641 1486.09 451.062V450.75C1486.09 450.089 1486.19 449.49 1486.38 448.953C1486.57 448.417 1486.84 447.958 1487.18 447.578C1487.53 447.193 1487.93 446.898 1488.4 446.695C1488.87 446.492 1489.38 446.391 1489.93 446.391C1490.53 446.391 1491.06 446.492 1491.51 446.695C1491.97 446.898 1492.34 447.185 1492.64 447.555C1492.94 447.919 1493.16 448.354 1493.31 448.859C1493.46 449.365 1493.54 449.922 1493.54 450.531V451.336H1487V449.984H1491.68V449.836C1491.67 449.497 1491.6 449.18 1491.47 448.883C1491.35 448.586 1491.17 448.346 1490.92 448.164C1490.67 447.982 1490.34 447.891 1489.92 447.891C1489.61 447.891 1489.33 447.958 1489.08 448.094C1488.84 448.224 1488.64 448.414 1488.48 448.664C1488.32 448.914 1488.2 449.216 1488.11 449.57C1488.02 449.919 1487.98 450.312 1487.98 450.75V451.062C1487.98 451.432 1488.03 451.776 1488.13 452.094C1488.23 452.406 1488.39 452.68 1488.58 452.914C1488.78 453.148 1489.02 453.333 1489.3 453.469C1489.58 453.599 1489.9 453.664 1490.26 453.664C1490.72 453.664 1491.12 453.573 1491.47 453.391C1491.83 453.208 1492.14 452.951 1492.4 452.617L1493.39 453.578C1493.21 453.844 1492.97 454.099 1492.68 454.344C1492.39 454.583 1492.03 454.779 1491.61 454.93C1491.19 455.081 1490.71 455.156 1490.15 455.156ZM1497.34 443V455H1495.45V443H1497.34ZM1503.45 455.156C1502.82 455.156 1502.26 455.055 1501.75 454.852C1501.25 454.643 1500.83 454.354 1500.47 453.984C1500.12 453.615 1499.86 453.18 1499.67 452.68C1499.48 452.18 1499.39 451.641 1499.39 451.062V450.75C1499.39 450.089 1499.48 449.49 1499.68 448.953C1499.87 448.417 1500.14 447.958 1500.48 447.578C1500.82 447.193 1501.23 446.898 1501.7 446.695C1502.17 446.492 1502.68 446.391 1503.22 446.391C1503.83 446.391 1504.36 446.492 1504.81 446.695C1505.26 446.898 1505.64 447.185 1505.93 447.555C1506.24 447.919 1506.46 448.354 1506.61 448.859C1506.76 449.365 1506.83 449.922 1506.83 450.531V451.336H1500.3V449.984H1504.97V449.836C1504.96 449.497 1504.89 449.18 1504.77 448.883C1504.65 448.586 1504.47 448.346 1504.22 448.164C1503.97 447.982 1503.63 447.891 1503.22 447.891C1502.9 447.891 1502.62 447.958 1502.38 448.094C1502.14 448.224 1501.94 448.414 1501.78 448.664C1501.62 448.914 1501.49 449.216 1501.4 449.57C1501.32 449.919 1501.28 450.312 1501.28 450.75V451.062C1501.28 451.432 1501.33 451.776 1501.43 452.094C1501.53 452.406 1501.68 452.68 1501.88 452.914C1502.08 453.148 1502.32 453.333 1502.6 453.469C1502.88 453.599 1503.2 453.664 1503.56 453.664C1504.01 453.664 1504.42 453.573 1504.77 453.391C1505.12 453.208 1505.43 452.951 1505.69 452.617L1506.68 453.578C1506.5 453.844 1506.26 454.099 1505.97 454.344C1505.68 454.583 1505.32 454.779 1504.9 454.93C1504.49 455.081 1504 455.156 1503.45 455.156ZM1512.07 453.656C1512.38 453.656 1512.66 453.596 1512.9 453.477C1513.15 453.352 1513.35 453.18 1513.5 452.961C1513.66 452.742 1513.75 452.49 1513.76 452.203H1515.54C1515.52 452.75 1515.36 453.247 1515.05 453.695C1514.74 454.143 1514.32 454.5 1513.81 454.766C1513.29 455.026 1512.72 455.156 1512.1 455.156C1511.45 455.156 1510.89 455.047 1510.41 454.828C1509.93 454.604 1509.53 454.297 1509.21 453.906C1508.9 453.516 1508.66 453.065 1508.5 452.555C1508.34 452.044 1508.26 451.497 1508.26 450.914V450.641C1508.26 450.057 1508.34 449.51 1508.5 449C1508.66 448.484 1508.9 448.031 1509.21 447.641C1509.53 447.25 1509.93 446.945 1510.41 446.727C1510.89 446.503 1511.45 446.391 1512.09 446.391C1512.77 446.391 1513.36 446.526 1513.87 446.797C1514.38 447.062 1514.78 447.435 1515.07 447.914C1515.37 448.388 1515.52 448.94 1515.54 449.57H1513.76C1513.75 449.258 1513.67 448.977 1513.53 448.727C1513.39 448.471 1513.2 448.268 1512.95 448.117C1512.7 447.966 1512.41 447.891 1512.07 447.891C1511.69 447.891 1511.37 447.969 1511.12 448.125C1510.87 448.276 1510.68 448.484 1510.54 448.75C1510.39 449.01 1510.29 449.305 1510.23 449.633C1510.17 449.956 1510.14 450.292 1510.14 450.641V450.914C1510.14 451.263 1510.17 451.602 1510.23 451.93C1510.29 452.258 1510.39 452.552 1510.53 452.812C1510.67 453.068 1510.87 453.273 1511.12 453.43C1511.37 453.581 1511.69 453.656 1512.07 453.656ZM1521.18 446.547V447.922H1516.41V446.547H1521.18ZM1517.79 444.477H1519.67V452.664C1519.67 452.924 1519.7 453.125 1519.78 453.266C1519.86 453.401 1519.96 453.492 1520.1 453.539C1520.23 453.586 1520.39 453.609 1520.57 453.609C1520.7 453.609 1520.83 453.602 1520.95 453.586C1521.07 453.57 1521.17 453.555 1521.24 453.539L1521.25 454.977C1521.09 455.023 1520.91 455.065 1520.7 455.102C1520.5 455.138 1520.26 455.156 1520 455.156C1519.56 455.156 1519.18 455.081 1518.85 454.93C1518.51 454.773 1518.25 454.521 1518.07 454.172C1517.88 453.823 1517.79 453.359 1517.79 452.781V444.477ZM1524.96 446.547V455H1523.07V446.547H1524.96ZM1522.95 444.328C1522.95 444.042 1523.04 443.805 1523.23 443.617C1523.42 443.424 1523.69 443.328 1524.03 443.328C1524.36 443.328 1524.62 443.424 1524.82 443.617C1525.01 443.805 1525.11 444.042 1525.11 444.328C1525.11 444.609 1525.01 444.844 1524.82 445.031C1524.62 445.219 1524.36 445.312 1524.03 445.312C1523.69 445.312 1523.42 445.219 1523.23 445.031C1523.04 444.844 1522.95 444.609 1522.95 444.328ZM1526.99 450.867V450.688C1526.99 450.078 1527.08 449.513 1527.25 448.992C1527.43 448.466 1527.69 448.01 1528.02 447.625C1528.36 447.234 1528.77 446.932 1529.25 446.719C1529.74 446.5 1530.29 446.391 1530.91 446.391C1531.53 446.391 1532.08 446.5 1532.57 446.719C1533.06 446.932 1533.47 447.234 1533.81 447.625C1534.15 448.01 1534.4 448.466 1534.58 448.992C1534.76 449.513 1534.85 450.078 1534.85 450.688V450.867C1534.85 451.477 1534.76 452.042 1534.58 452.562C1534.4 453.083 1534.15 453.539 1533.81 453.93C1533.47 454.315 1533.06 454.617 1532.57 454.836C1532.09 455.049 1531.54 455.156 1530.93 455.156C1530.31 455.156 1529.75 455.049 1529.26 454.836C1528.78 454.617 1528.37 454.315 1528.03 453.93C1527.69 453.539 1527.43 453.083 1527.25 452.562C1527.08 452.042 1526.99 451.477 1526.99 450.867ZM1528.87 450.688V450.867C1528.87 451.247 1528.91 451.607 1528.99 451.945C1529.07 452.284 1529.19 452.581 1529.35 452.836C1529.52 453.091 1529.73 453.292 1530 453.438C1530.26 453.583 1530.57 453.656 1530.93 453.656C1531.27 453.656 1531.58 453.583 1531.83 453.438C1532.09 453.292 1532.31 453.091 1532.47 452.836C1532.64 452.581 1532.76 452.284 1532.84 451.945C1532.92 451.607 1532.96 451.247 1532.96 450.867V450.688C1532.96 450.312 1532.92 449.958 1532.84 449.625C1532.76 449.286 1532.64 448.987 1532.46 448.727C1532.3 448.466 1532.08 448.263 1531.82 448.117C1531.57 447.966 1531.26 447.891 1530.91 447.891C1530.56 447.891 1530.25 447.966 1529.99 448.117C1529.73 448.263 1529.52 448.466 1529.35 448.727C1529.19 448.987 1529.07 449.286 1528.99 449.625C1528.91 449.958 1528.87 450.312 1528.87 450.688ZM1538.61 448.352V455H1536.73V446.547H1538.5L1538.61 448.352ZM1538.28 450.461L1537.67 450.453C1537.67 449.854 1537.76 449.305 1537.92 448.805C1538.08 448.305 1538.31 447.875 1538.6 447.516C1538.9 447.156 1539.26 446.88 1539.67 446.688C1540.08 446.49 1540.54 446.391 1541.04 446.391C1541.45 446.391 1541.82 446.448 1542.14 446.562C1542.48 446.672 1542.76 446.852 1543 447.102C1543.23 447.352 1543.42 447.677 1543.54 448.078C1543.67 448.474 1543.73 448.961 1543.73 449.539V455H1541.84V449.531C1541.84 449.125 1541.78 448.805 1541.66 448.57C1541.54 448.331 1541.38 448.161 1541.15 448.062C1540.93 447.958 1540.66 447.906 1540.33 447.906C1540.01 447.906 1539.72 447.974 1539.46 448.109C1539.21 448.245 1538.99 448.43 1538.82 448.664C1538.64 448.898 1538.51 449.169 1538.42 449.477C1538.32 449.784 1538.28 450.112 1538.28 450.461Z" fill="white"/>
<path d="M443 427C440.5 427 438.5 429 438.5 431.5C438.5 434 440.5 436 443 436C445.5 436 447.5 434 447.5 431.5C447.5 429 445.5 427 443 427Z" fill="white"/>
<path d="M596.061 432.561C596.646 431.975 596.646 431.025 596.061 430.439L586.515 420.893C585.929 420.308 584.979 420.308 584.393 420.893C583.808 421.479 583.808 422.429 584.393 423.015L592.879 431.5L584.393 439.985C583.808 440.571 583.808 441.521 584.393 442.107C584.979 442.692 585.929 442.692 586.515 442.107L596.061 432.561ZM438.5 431.5H440C440 429.828 441.328 428.5 443 428.5V427V425.5C439.672 425.5 437 428.172 437 431.5H438.5ZM443 427V428.5C444.672 428.5 446 429.828 446 431.5H447.5H449C449 428.172 446.328 425.5 443 425.5V427ZM447.5 431.5H446C446 433.172 444.672 434.5 443 434.5V436V437.5C446.328 437.5 449 434.828 449 431.5H447.5ZM443 436V434.5C441.328 434.5 440 433.172 440 431.5H438.5H437C437 434.828 439.672 437.5 443 437.5V436ZM447.5 431.5V433H595V431.5V430H447.5V431.5Z" fill="black"/>
<path d="M862 427C859.5 427 857.5 429 857.5 431.5C857.5 434 859.5 436 862 436C864.5 436 866.5 434 866.5 431.5C866.5 429 864.5 427 862 427Z" fill="white"/>
<path d="M980.061 432.561C980.646 431.975 980.646 431.025 980.061 430.439L970.515 420.893C969.929 420.308 968.979 420.308 968.393 420.893C967.808 421.479 967.808 422.429 968.393 423.015L976.879 431.5L968.393 439.985C967.808 440.571 967.808 441.521 968.393 442.107C968.979 442.692 969.929 442.692 970.515 442.107L980.061 432.561ZM857.5 431.5H859C859 429.828 860.328 428.5 862 428.5V427V425.5C858.672 425.5 856 428.172 856 431.5H857.5ZM862 427V428.5C863.672 428.5 865 429.828 865 431.5H866.5H868C868 428.172 865.328 425.5 862 425.5V427ZM866.5 431.5H865C865 433.172 863.672 434.5 862 434.5V436V437.5C865.328 437.5 868 434.828 868 431.5H866.5ZM862 436V434.5C860.328 434.5 859 433.172 859 431.5H857.5H856C856 434.828 858.672 437.5 862 437.5V436ZM866.5 431.5V433H979V431.5V430H866.5V431.5Z" fill="black"/>
<path d="M1235 427C1232.5 427 1230.5 429 1230.5 431.5C1230.5 434 1232.5 436 1235 436C1237.5 436 1239.5 434 1239.5 431.5C1239.5 429 1237.5 427 1235 427Z" fill="white"/>
<path d="M1353.06 432.561C1353.65 431.975 1353.65 431.025 1353.06 430.439L1343.51 420.893C1342.93 420.308 1341.98 420.308 1341.39 420.893C1340.81 421.479 1340.81 422.429 1341.39 423.015L1349.88 431.5L1341.39 439.985C1340.81 440.571 1340.81 441.521 1341.39 442.107C1341.98 442.692 1342.93 442.692 1343.51 442.107L1353.06 432.561ZM1230.5 431.5H1232C1232 429.828 1233.33 428.5 1235 428.5V427V425.5C1231.67 425.5 1229 428.172 1229 431.5H1230.5ZM1235 427V428.5C1236.67 428.5 1238 429.828 1238 431.5H1239.5H1241C1241 428.172 1238.33 425.5 1235 425.5V427ZM1239.5 431.5H1238C1238 433.172 1236.67 434.5 1235 434.5V436V437.5C1238.33 437.5 1241 434.828 1241 431.5H1239.5ZM1235 436V434.5C1233.33 434.5 1232 433.172 1232 431.5H1230.5H1229C1229 434.828 1231.67 437.5 1235 437.5V436ZM1239.5 431.5V433H1352V431.5V430H1239.5V431.5Z" fill="black"/>
</svg>
