<svg width="24" height="25" viewBox="0 0 24 25" fill="none" xmlns="http://www.w3.org/2000/svg">
<path d="M0 12.5139C0 9.48484 0 6.45582 0 3.42681C0.00136636 1.78637 1.17507 0.62256 2.82974 0.621883C8.94285 0.621206 15.056 0.621883 21.1691 0.621883C22.8251 0.621883 23.9995 1.78501 23.9995 3.42545C24.0002 9.48349 24.0002 15.5415 23.9995 21.5996C23.9995 23.2407 22.8251 24.4045 21.1704 24.4045C15.0573 24.4052 8.94421 24.4052 2.8311 24.4045C1.17576 24.4045 0.00136636 23.2407 0.000683182 21.6002C-0.000683182 18.5712 0.000683182 15.5422 0.000683182 12.5132L0 12.5139ZM11.9885 2.78228C8.9893 2.78228 5.99014 2.78228 2.99097 2.78228C2.34468 2.78228 2.18072 2.94273 2.18072 3.57372C2.18072 9.52952 2.18072 15.4853 2.18072 21.4411C2.18072 22.0809 2.34331 22.2448 2.97935 22.2448C8.9893 22.2448 14.9993 22.2448 21.0092 22.2448C21.6548 22.2448 21.8201 22.0836 21.8201 21.4533C21.8201 15.4975 21.8201 9.54171 21.8201 3.58591C21.8201 2.94612 21.6582 2.78295 21.0215 2.78295C18.0107 2.78295 15.0006 2.78295 11.9898 2.78295L11.9885 2.78228Z" fill="white"/>
<path d="M12.8172 20.0731H9.64172V9.83441H12.6723V11.2447C12.7475 11.1769 12.7809 11.1573 12.8008 11.1275C13.57 9.94815 14.7089 9.52365 16.0684 9.57375C16.4175 9.58661 16.7707 9.63739 17.1109 9.71796C18.5757 10.0639 19.2507 11.1018 19.4864 12.4795C19.5806 13.0313 19.6237 13.5973 19.6292 14.1572C19.6462 16.015 19.636 17.8727 19.636 19.7312C19.636 19.8314 19.636 19.9316 19.636 20.0562H16.4332C16.4332 19.9343 16.4332 19.8145 16.4332 19.6946C16.4325 18.0731 16.4401 16.4517 16.425 14.8302C16.4216 14.428 16.3799 14.0198 16.2993 13.6258C16.1415 12.8526 15.7282 12.489 14.9733 12.3929C14.1733 12.2907 13.4614 12.6278 13.1355 13.271C12.8568 13.8201 12.824 14.4186 12.8206 15.015C12.8117 16.5688 12.8172 18.1226 12.8172 19.677C12.8172 19.7989 12.8172 19.9201 12.8172 20.0738V20.0731Z" fill="white"/>
<path d="M7.60099 9.83691V20.0614H4.38184V9.83691H7.60099Z" fill="white"/>
<path d="M5.93128 4.62842C6.95469 4.62842 7.8196 5.48486 7.82028 6.49904C7.82028 7.51187 6.95469 8.37034 5.93197 8.37034C4.90993 8.37034 4.04297 7.51187 4.04297 6.49972C4.04297 5.48689 4.90924 4.62909 5.93197 4.62842H5.93128Z" fill="white"/>
</svg>
