<svg width="55" height="55" viewBox="0 0 55 55" fill="none" xmlns="http://www.w3.org/2000/svg">
<path d="M52 39.9985C52 46.626 46.6274 51.9985 40 51.9985C33.3726 51.9985 28 46.626 28 39.9985C28 33.3711 33.3726 27.9985 40 27.9985C46.6274 27.9985 52 33.3711 52 39.9985Z" fill="#E66900"/>
<path d="M3 43.3996V14.8823C3 12.9914 3.75503 11.1786 5.09803 9.8416C6.44104 8.50459 8.262 7.75293 10.1613 7.75293H14.9355C16.2538 7.75293 17.3226 8.8169 17.3226 10.1294C17.3226 11.4418 16.2538 12.5058 14.9355 12.5058H10.1613C9.52819 12.5058 8.92121 12.7564 8.47354 13.202C8.02587 13.6477 7.77419 14.252 7.77419 14.8823V43.3996L7.78585 43.634C7.84001 44.1782 8.08171 44.6898 8.47354 45.0798C8.92121 45.5255 9.52819 45.7761 10.1613 45.7761H23.7612L24.0037 45.7877C25.2079 45.9089 26.1483 46.9217 26.1483 48.1525C26.1483 49.3833 25.2079 50.3961 24.0037 50.5173L23.7612 50.5289H10.1613C8.262 50.5289 6.44104 49.7773 5.09803 48.4403C3.75503 47.1033 3 45.2904 3 43.3996ZM36.4194 24.388V14.8823C36.4194 14.252 36.1677 13.6477 35.72 13.202C35.3282 12.812 34.8143 12.5713 34.2677 12.5174L34.0323 12.5058H29.2581C27.9397 12.5058 26.871 11.4418 26.871 10.1294C26.871 8.8169 27.9397 7.75293 29.2581 7.75293H34.0323C35.9316 7.75293 37.7525 8.50459 39.0955 9.8416C40.4385 11.1786 41.1936 12.9914 41.1936 14.8823V24.388C41.1936 25.7005 40.1248 26.7645 38.8065 26.7645C37.4881 26.7645 36.4194 25.7005 36.4194 24.388Z" fill="#00A19B"/>
<path d="M39.0158 31.9863C37.8594 31.9863 36.9219 32.9196 36.9219 34.0709V42.4093C36.9219 43.5606 37.8594 44.4939 39.0158 44.4939H47.3916C48.548 44.4939 49.4855 43.5606 49.4855 42.4093C49.4855 41.258 48.548 40.3247 47.3916 40.3247H41.1098V34.0709C41.1098 32.9196 40.1723 31.9863 39.0158 31.9863Z" fill="white"/>
<path d="M22.0953 31.5173C23.4136 31.5173 24.4824 32.5813 24.4824 33.8938C24.4824 35.2063 23.4136 36.2702 22.0953 36.2702H14.934C13.6156 36.2702 12.5469 35.2063 12.5469 33.8938C12.5469 32.5813 13.6156 31.5173 14.934 31.5173H22.0953ZM24.4824 22.0116C25.8007 22.0116 26.8695 23.0755 26.8695 24.388C26.8695 25.7005 25.8007 26.7645 24.4824 26.7645H14.934C13.6156 26.7645 12.5469 25.7005 12.5469 24.388C12.5469 23.0755 13.6156 22.0116 14.934 22.0116H24.4824ZM26.8695 10.1293C26.8695 9.49906 26.6178 8.89479 26.1701 8.44912C25.7783 8.05904 25.2644 7.81842 24.7178 7.76449L24.4824 7.75289H19.7082C19.0751 7.75289 18.4681 8.00344 18.0204 8.44912C17.5727 8.89479 17.3211 9.49906 17.3211 10.1293C17.3211 10.7596 17.5727 11.3639 18.0204 11.8096C18.4681 12.2552 19.0751 12.5058 19.7082 12.5058H24.4824L24.7178 12.4942C25.2644 12.4403 25.7783 12.1996 26.1701 11.8096C26.6178 11.3639 26.8695 10.7596 26.8695 10.1293ZM31.6437 10.1293C31.6437 12.0202 30.8886 13.833 29.5456 15.17C28.2026 16.507 26.3817 17.2587 24.4824 17.2587H19.7082C17.8089 17.2587 15.9879 16.507 14.6449 15.17C13.3019 13.833 12.5469 12.0202 12.5469 10.1293C12.5469 8.23852 13.3019 6.42568 14.6449 5.08867C15.9879 3.75166 17.8089 3 19.7082 3H24.4824C26.3817 3 28.2026 3.75166 29.5456 5.08867C30.8886 6.42568 31.6437 8.23852 31.6437 10.1293Z" fill="#00A19B"/>
</svg>
