<svg width="37" height="29" viewBox="0 0 37 29" fill="none" xmlns="http://www.w3.org/2000/svg">
<g filter="url(#filter0_d_299_340)">
<path fill-rule="evenodd" clip-rule="evenodd" d="M21.4 2.90001C21.4 1.29838 20.1016 2.8153e-06 18.5 2.53526e-06C16.8984 2.25522e-06 15.6 1.29838 15.6 2.9L15.6 9.28736C15.6 10.8775 14.3016 12.1664 12.7 12.1664C11.0984 12.1664 9.8 10.8775 9.8 9.28736L9.8 2.9C9.8 1.29838 8.50163 7.87089e-07 6.9 5.07052e-07C5.29837 2.27015e-07 4 1.29837 4 2.9L4 14.3954C4 22.3457 10.4919 20.8966 18.5 20.8966C26.5081 20.8966 33 22.3457 33 14.3954L33 2.90001C33 1.29838 31.7016 4.84351e-06 30.1 4.56347e-06C28.4984 4.28343e-06 27.2 1.29838 27.2 2.9L27.2 9.28736C27.2 10.8775 25.9017 12.1664 24.3 12.1664C22.6983 12.1664 21.4 10.8775 21.4 9.28736L21.4 2.90001Z" fill="white"/>
</g>
<defs>
<filter id="filter0_d_299_340" x="0" y="0" width="37" height="29" filterUnits="userSpaceOnUse" color-interpolation-filters="sRGB">
<feFlood flood-opacity="0" result="BackgroundImageFix"/>
<feColorMatrix in="SourceAlpha" type="matrix" values="0 0 0 0 0 0 0 0 0 0 0 0 0 0 0 0 0 0 127 0" result="hardAlpha"/>
<feOffset dy="4"/>
<feGaussianBlur stdDeviation="2"/>
<feComposite in2="hardAlpha" operator="out"/>
<feColorMatrix type="matrix" values="0 0 0 0 0 0 0 0 0 0 0 0 0 0 0 0 0 0 0.25 0"/>
<feBlend mode="normal" in2="BackgroundImageFix" result="effect1_dropShadow_299_340"/>
<feBlend mode="normal" in="SourceGraphic" in2="effect1_dropShadow_299_340" result="shape"/>
</filter>
</defs>
</svg>
