<svg width="47" height="47" viewBox="0 0 47 47" fill="none" xmlns="http://www.w3.org/2000/svg">
<circle cx="23.5" cy="23.5" r="23.5" fill="white"/>
<path d="M12.8806 27.96C12.2206 27.56 11.7806 26.84 11.7806 26.06V15.44C11.7806 15.1 12.0606 14.84 12.3806 14.84C12.7206 14.84 12.9806 15.1 12.9806 15.44V26.06C12.9806 26.44 13.1806 26.74 13.4806 26.92C13.7806 27.08 13.8806 27.44 13.7006 27.74C13.5406 28.04 13.1806 28.12 12.8806 27.96ZM18.0045 28.04C16.5645 28.04 15.4045 26.88 15.4045 25.44V21.44C15.4045 20 16.5645 18.84 18.0045 18.84C19.4245 18.84 20.6045 20 20.6045 21.44V25.44C20.6045 26.88 19.4245 28.04 18.0045 28.04ZM18.0045 20.04C17.2245 20.04 16.6045 20.66 16.6045 21.44V25.44C16.6045 26.22 17.2245 26.84 18.0045 26.84C18.7845 26.84 19.4045 26.22 19.4045 25.44V21.44C19.4045 20.66 18.7845 20.04 18.0045 20.04ZM25.3241 27.96C23.8841 27.96 22.7241 26.8 22.7241 25.36V21.52C22.7241 20.08 23.8841 18.92 25.3241 18.92H27.3241C27.6641 18.92 27.9241 19.18 27.9241 19.52V29.44C27.9241 30.5 27.3041 31.44 26.3241 31.84C25.3441 32.24 24.2641 32.02 23.4841 31.28C23.3641 31.16 23.3041 31.02 23.3041 30.84C23.3041 30.68 23.3641 30.54 23.4841 30.44C23.6041 30.32 23.7441 30.26 23.9041 30.26C24.0841 30.26 24.2241 30.32 24.3441 30.44C24.7441 30.84 25.3241 30.96 25.8641 30.74C26.4041 30.52 26.7241 30 26.7241 29.44V27.96H25.3241ZM25.3241 20.12C24.5441 20.12 23.9241 20.74 23.9241 21.52V25.36C23.9241 26.14 24.5441 26.76 25.3241 26.76H26.7241V20.12H25.3241ZM32.7998 28.04C31.3598 28.04 30.1998 26.88 30.1998 25.44V21.44C30.1998 20 31.3598 18.84 32.7998 18.84C34.2198 18.84 35.3998 20 35.3998 21.44V25.44C35.3998 26.88 34.2198 28.04 32.7998 28.04ZM32.7998 20.04C32.0198 20.04 31.3998 20.66 31.3998 21.44V25.44C31.3998 26.22 32.0198 26.84 32.7998 26.84C33.5798 26.84 34.1998 26.22 34.1998 25.44V21.44C34.1998 20.66 33.5798 20.04 32.7998 20.04Z" fill="black"/>
</svg>
