<svg width="64" height="75" viewBox="0 0 64 75" fill="none" xmlns="http://www.w3.org/2000/svg">
<g clip-path="url(#clip0_1872_3193)">
<path fill-rule="evenodd" clip-rule="evenodd" d="M31.7265 47.2743C32.0691 46.9086 32.6494 46.9086 32.992 47.2743L36.4826 51.001C36.6694 51.2005 36.738 51.4456 36.7139 51.6776C36.739 51.9105 36.6706 52.157 36.4829 52.3574L34.0848 54.9178L35.9976 70.0413H28.9359L30.5167 54.792L28.2363 52.3574C28.0494 52.1579 27.9809 51.9128 28.005 51.6808C27.9799 51.4478 28.0483 51.2014 28.2359 51.001L31.7265 47.2743Z" fill="white"/>
<path d="M19.3584 48.478C19.3849 48.5249 19.4134 48.5718 19.4443 48.6177L30.8408 65.5376C31.6336 66.7145 33.3664 66.7145 34.1592 65.5376L45.5068 48.689C50.011 49.8283 54.057 51.4468 57.5596 53.2397C61.5596 55.2797 64 59.4004 64 63.8804V75.0005H0V63.8804C0 59.4004 2.44043 55.2797 6.44043 53.2397C10.1658 51.3328 14.506 49.6236 19.3584 48.478Z" fill="white"/>
<path d="M32 43C40.84 43 48 35.84 48 27C48 18.16 40.84 11 32 11C23.16 11 16 18.16 16 27C16 35.84 23.16 43 32 43Z" fill="white"/>
</g>
<defs>
<clipPath id="clip0_1872_3193">
<rect width="64" height="75" fill="white"/>
</clipPath>
</defs>
</svg>
