<svg width="423" height="343" viewBox="0 0 423 343" fill="none" xmlns="http://www.w3.org/2000/svg">
<path d="M34.8935 266.036C22.5071 249.475 13.4964 230.632 8.37588 210.581C3.25536 190.53 2.1253 169.665 5.05022 149.176L98.448 162.57C97.278 170.766 97.73 179.112 99.7782 187.132C101.826 195.153 105.431 202.69 110.385 209.314L34.8935 266.036Z" fill="#3CC3DF"/>
<path d="M4.76622 151.265C8.03502 125.958 17.386 101.825 32.0156 80.9395C46.6451 60.0543 66.1157 43.0419 88.7538 31.3642C111.392 19.6866 136.521 13.693 161.98 13.8987C187.44 14.1043 212.469 20.503 234.917 32.5448C257.364 44.5866 276.558 61.9114 290.85 83.0302C305.142 104.149 314.104 128.43 316.965 153.787C319.827 179.144 316.502 204.818 307.278 228.602C298.053 252.387 283.204 273.571 264.007 290.334L202.031 219.033C209.71 212.328 215.649 203.855 219.339 194.341C223.029 184.827 224.359 174.557 223.214 164.415C222.069 154.272 218.485 144.56 212.768 136.112C207.051 127.664 199.373 120.735 190.395 115.918C181.416 111.101 171.404 108.542 161.22 108.459C151.036 108.377 140.985 110.775 131.929 115.446C122.874 120.117 115.086 126.922 109.234 135.276C103.382 143.63 99.6419 153.283 98.3344 163.406L4.76622 151.265Z" fill="#5EACE8"/>
<path d="M264.428 289.965C248.083 304.34 228.941 315.161 208.211 321.744C187.481 328.328 165.615 330.53 143.993 328.213C122.37 325.895 101.463 319.108 82.5909 308.28C63.7189 297.452 47.2927 282.819 34.3501 265.305L110.168 209.022C115.345 216.027 121.915 221.881 129.464 226.212C137.013 230.543 145.376 233.258 154.025 234.185C162.674 235.112 171.42 234.231 179.712 231.598C188.004 228.964 195.661 224.636 202.199 218.886L264.428 289.965Z" fill="#FF928A"/>
<circle cx="335" cy="157.31" r="3.5" fill="#5EACE8" stroke="#1A1F26"/>
<path d="M352.688 156.47H357.308V157.262H352.688V156.47ZM352.664 153.59H357.86V154.418H352.664V153.59ZM354.884 151.742H355.772V156.938H354.884V151.742ZM352.292 153.59H353.144V156.494C353.144 156.958 353.124 157.462 353.084 158.006C353.044 158.55 352.972 159.106 352.868 159.674C352.772 160.234 352.624 160.782 352.424 161.318C352.232 161.854 351.972 162.342 351.644 162.782C351.596 162.734 351.528 162.678 351.44 162.614C351.352 162.558 351.26 162.502 351.164 162.446C351.068 162.39 350.984 162.346 350.912 162.314C351.232 161.89 351.48 161.43 351.656 160.934C351.84 160.438 351.976 159.934 352.064 159.422C352.16 158.902 352.22 158.39 352.244 157.886C352.276 157.382 352.292 156.914 352.292 156.482V153.59ZM353.936 156.878C354.304 158.118 354.88 159.19 355.664 160.094C356.448 160.998 357.444 161.638 358.652 162.014C358.58 162.078 358.504 162.154 358.424 162.242C358.352 162.338 358.28 162.434 358.208 162.53C358.144 162.626 358.088 162.718 358.04 162.806C356.784 162.342 355.756 161.618 354.956 160.634C354.164 159.65 353.564 158.466 353.156 157.082L353.936 156.878ZM357.596 153.59H357.728L357.884 153.554L358.508 153.698C358.412 154.114 358.296 154.542 358.16 154.982C358.032 155.422 357.904 155.794 357.776 156.098L357.008 155.93C357.112 155.658 357.22 155.314 357.332 154.898C357.444 154.482 357.532 154.094 357.596 153.734V153.59ZM357.116 156.47H357.284L357.44 156.422L358.016 156.638C357.768 157.718 357.4 158.658 356.912 159.458C356.424 160.258 355.848 160.934 355.184 161.486C354.52 162.03 353.804 162.462 353.036 162.782C352.996 162.702 352.944 162.614 352.88 162.518C352.824 162.43 352.764 162.342 352.7 162.254C352.636 162.174 352.568 162.102 352.496 162.038C353.208 161.782 353.872 161.406 354.488 160.91C355.112 160.406 355.652 159.794 356.108 159.074C356.572 158.354 356.908 157.538 357.116 156.626V156.47ZM349.244 157.622L350.096 156.602V162.782H349.244V157.622ZM347.588 153.962H351.116V154.778H347.588V153.962ZM349.208 151.766H350.06V154.418H349.208V151.766ZM350 156.614C350.088 156.694 350.216 156.834 350.384 157.034C350.56 157.226 350.744 157.438 350.936 157.67C351.136 157.902 351.316 158.118 351.476 158.318C351.644 158.518 351.764 158.662 351.836 158.75L351.296 159.362C351.208 159.218 351.084 159.038 350.924 158.822C350.772 158.606 350.604 158.378 350.42 158.138C350.244 157.898 350.072 157.678 349.904 157.478C349.744 157.278 349.616 157.122 349.52 157.01L350 156.614ZM350.9 153.962H351.08L351.236 153.926L351.716 154.25C351.444 154.946 351.096 155.622 350.672 156.278C350.248 156.926 349.784 157.522 349.28 158.066C348.776 158.602 348.272 159.054 347.768 159.422C347.736 159.342 347.692 159.25 347.636 159.146C347.588 159.042 347.532 158.946 347.468 158.858C347.412 158.762 347.356 158.686 347.3 158.63C347.78 158.31 348.252 157.914 348.716 157.442C349.188 156.962 349.616 156.438 350 155.87C350.384 155.302 350.684 154.726 350.9 154.142V153.962ZM351.488 156.11L352.052 156.518C351.868 156.774 351.672 157.034 351.464 157.298C351.256 157.562 351.064 157.786 350.888 157.97L350.432 157.634C350.544 157.498 350.664 157.342 350.792 157.166C350.928 156.982 351.056 156.798 351.176 156.614C351.304 156.422 351.408 156.254 351.488 156.11ZM366.176 155.846H367.076V162.77H366.176V155.846ZM362.672 157.61H370.448V158.438H362.672V157.61ZM367.34 157.946C367.58 158.426 367.884 158.898 368.252 159.362C368.62 159.818 369.024 160.238 369.464 160.622C369.904 160.998 370.34 161.306 370.772 161.546C370.708 161.602 370.632 161.674 370.544 161.762C370.464 161.842 370.388 161.926 370.316 162.014C370.244 162.102 370.184 162.186 370.136 162.266C369.696 161.978 369.256 161.618 368.816 161.186C368.384 160.754 367.98 160.282 367.604 159.77C367.228 159.258 366.908 158.738 366.644 158.21L367.34 157.946ZM365.972 157.874L366.68 158.138C366.408 158.69 366.072 159.23 365.672 159.758C365.272 160.278 364.836 160.754 364.364 161.186C363.9 161.61 363.428 161.962 362.948 162.242C362.9 162.162 362.84 162.078 362.768 161.99C362.696 161.91 362.62 161.83 362.54 161.75C362.468 161.662 362.396 161.59 362.324 161.534C362.796 161.294 363.264 160.982 363.728 160.598C364.192 160.214 364.616 159.786 365 159.314C365.392 158.842 365.716 158.362 365.972 157.874ZM364.424 153.098V155.306H368.888V153.098H364.424ZM363.56 152.294H369.788V156.122H363.56V152.294ZM362.324 151.766L363.164 152.03C362.9 152.702 362.588 153.366 362.228 154.022C361.868 154.678 361.48 155.294 361.064 155.87C360.648 156.446 360.22 156.958 359.78 157.406C359.756 157.334 359.712 157.242 359.648 157.13C359.592 157.018 359.528 156.906 359.456 156.794C359.392 156.682 359.332 156.59 359.276 156.518C359.676 156.134 360.064 155.69 360.44 155.186C360.816 154.674 361.164 154.13 361.484 153.554C361.812 152.97 362.092 152.374 362.324 151.766ZM361.076 154.862L361.916 154.01L361.94 154.022V162.734H361.076V154.862ZM376.376 152.102H377.384C377.368 152.414 377.34 152.826 377.3 153.338C377.26 153.85 377.184 154.43 377.072 155.078C376.968 155.718 376.804 156.386 376.58 157.082C376.356 157.778 376.056 158.466 375.68 159.146C375.304 159.826 374.824 160.47 374.24 161.078C373.664 161.686 372.96 162.214 372.128 162.662C372.056 162.55 371.952 162.43 371.816 162.302C371.68 162.174 371.54 162.062 371.396 161.966C372.22 161.542 372.912 161.046 373.472 160.478C374.032 159.91 374.492 159.302 374.852 158.654C375.212 158.006 375.492 157.354 375.692 156.698C375.892 156.034 376.04 155.402 376.136 154.802C376.232 154.202 376.292 153.67 376.316 153.206C376.348 152.734 376.368 152.366 376.376 152.102ZM377.336 152.342C377.344 152.478 377.36 152.714 377.384 153.05C377.416 153.378 377.472 153.778 377.552 154.25C377.632 154.722 377.748 155.234 377.9 155.786C378.052 156.338 378.256 156.906 378.512 157.49C378.768 158.074 379.084 158.642 379.46 159.194C379.836 159.746 380.288 160.258 380.816 160.73C381.344 161.194 381.964 161.586 382.676 161.906C382.54 162.01 382.408 162.13 382.28 162.266C382.16 162.41 382.06 162.542 381.98 162.662C381.26 162.318 380.624 161.898 380.072 161.402C379.528 160.898 379.06 160.354 378.668 159.77C378.284 159.178 377.96 158.574 377.696 157.958C377.44 157.342 377.232 156.742 377.072 156.158C376.912 155.566 376.792 155.018 376.712 154.514C376.632 154.002 376.576 153.566 376.544 153.206C376.512 152.838 376.492 152.574 376.484 152.414L377.336 152.342ZM388.964 152.114H389.816V153.578C389.816 153.914 389.776 154.274 389.696 154.658C389.616 155.042 389.468 155.414 389.252 155.774C389.036 156.134 388.712 156.458 388.28 156.746C388.24 156.682 388.176 156.614 388.088 156.542C388.008 156.462 387.924 156.386 387.836 156.314C387.756 156.234 387.684 156.178 387.62 156.146C388.004 155.89 388.292 155.618 388.484 155.33C388.676 155.034 388.804 154.734 388.868 154.43C388.932 154.126 388.964 153.834 388.964 153.554V152.114ZM391.88 152.114H392.744V155.054C392.744 155.19 392.756 155.278 392.78 155.318C392.812 155.35 392.876 155.366 392.972 155.366C393.004 155.366 393.06 155.366 393.14 155.366C393.22 155.366 393.304 155.366 393.392 155.366C393.48 155.366 393.544 155.366 393.584 155.366C393.648 155.366 393.696 155.338 393.728 155.282C393.768 155.226 393.796 155.106 393.812 154.922C393.836 154.73 393.848 154.442 393.848 154.058C393.936 154.13 394.056 154.194 394.208 154.25C394.36 154.306 394.496 154.35 394.616 154.382C394.592 154.854 394.544 155.218 394.472 155.474C394.408 155.73 394.312 155.91 394.184 156.014C394.064 156.11 393.896 156.158 393.68 156.158C393.624 156.158 393.54 156.158 393.428 156.158C393.316 156.158 393.2 156.158 393.08 156.158C392.968 156.158 392.888 156.158 392.84 156.158C392.592 156.158 392.396 156.126 392.252 156.062C392.116 155.998 392.02 155.89 391.964 155.738C391.908 155.578 391.88 155.354 391.88 155.066V152.114ZM389.612 157.766C390.02 158.806 390.656 159.694 391.52 160.43C392.392 161.166 393.432 161.686 394.64 161.99C394.576 162.046 394.504 162.122 394.424 162.218C394.352 162.314 394.28 162.41 394.208 162.506C394.144 162.602 394.088 162.686 394.04 162.758C392.8 162.398 391.736 161.814 390.848 161.006C389.968 160.19 389.288 159.198 388.808 158.03L389.612 157.766ZM392.972 156.926H393.14L393.296 156.89L393.884 157.118C393.676 157.91 393.38 158.614 392.996 159.23C392.62 159.838 392.18 160.374 391.676 160.838C391.172 161.302 390.62 161.69 390.02 162.002C389.428 162.322 388.8 162.578 388.136 162.77C388.112 162.69 388.072 162.598 388.016 162.494C387.96 162.398 387.9 162.302 387.836 162.206C387.772 162.11 387.708 162.034 387.644 161.978C388.252 161.818 388.836 161.598 389.396 161.318C389.956 161.038 390.472 160.698 390.944 160.298C391.424 159.89 391.836 159.418 392.18 158.882C392.524 158.346 392.788 157.746 392.972 157.082V156.926ZM388.184 156.926H393.32V157.754H388.184V156.926ZM389.324 152.114H392.324V152.918H389.324V152.114ZM384.032 155.366H387.608V156.074H384.032V155.366ZM384.08 152.15H387.584V152.87H384.08V152.15ZM384.032 156.962H387.608V157.682H384.032V156.962ZM383.456 153.722H388.028V154.478H383.456V153.722ZM384.452 158.582H387.596V162.086H384.452V161.342H386.804V159.338H384.452V158.582ZM384.008 158.582H384.8V162.638H384.008V158.582ZM397.532 155.402H404.54V156.266H397.532V155.402ZM400.988 158.27H405.032V159.11H400.988V158.27ZM400.52 155.834H401.456V161.918L400.52 161.786V155.834ZM397.664 157.286L398.6 157.394C398.432 158.602 398.152 159.662 397.76 160.574C397.368 161.486 396.836 162.238 396.164 162.83C396.116 162.774 396.044 162.706 395.948 162.626C395.86 162.554 395.768 162.478 395.672 162.398C395.576 162.326 395.492 162.266 395.42 162.218C396.084 161.698 396.592 161.018 396.944 160.178C397.304 159.338 397.544 158.374 397.664 157.286ZM398.24 158.834C398.448 159.45 398.72 159.946 399.056 160.322C399.392 160.698 399.78 160.986 400.22 161.186C400.66 161.386 401.144 161.522 401.672 161.594C402.208 161.666 402.784 161.702 403.4 161.702C403.488 161.702 403.632 161.702 403.832 161.702C404.032 161.702 404.256 161.702 404.504 161.702C404.76 161.702 405.02 161.702 405.284 161.702C405.548 161.702 405.788 161.702 406.004 161.702C406.22 161.702 406.384 161.698 406.496 161.69C406.456 161.762 406.412 161.854 406.364 161.966C406.316 162.078 406.272 162.19 406.232 162.302C406.2 162.414 406.176 162.514 406.16 162.602H405.56H403.352C402.64 162.602 401.98 162.554 401.372 162.458C400.772 162.37 400.228 162.202 399.74 161.954C399.26 161.706 398.832 161.354 398.456 160.898C398.08 160.442 397.764 159.85 397.508 159.122L398.24 158.834ZM400.508 151.73H401.456V153.674H400.508V151.73ZM395.984 153.11H406.016V155.726H405.092V153.974H396.872V155.726H395.984V153.11Z" fill="#3C4043"/>
<circle cx="335" cy="184.5" r="3.5" fill="#FF928A" stroke="#1A1F26"/>
<path d="M349.868 183.66V187.908H349.016V184.5H347.54V183.66H349.868ZM349.868 187.548C350.156 187.996 350.56 188.328 351.08 188.544C351.608 188.76 352.224 188.884 352.928 188.916C353.272 188.924 353.688 188.932 354.176 188.94C354.664 188.94 355.176 188.94 355.712 188.94C356.256 188.932 356.776 188.92 357.272 188.904C357.776 188.88 358.212 188.856 358.58 188.832C358.548 188.896 358.512 188.98 358.472 189.084C358.432 189.188 358.396 189.292 358.364 189.396C358.34 189.508 358.32 189.608 358.304 189.696C357.96 189.712 357.552 189.724 357.08 189.732C356.616 189.74 356.128 189.744 355.616 189.744C355.112 189.752 354.624 189.752 354.152 189.744C353.688 189.744 353.288 189.736 352.952 189.72C352.152 189.688 351.472 189.56 350.912 189.336C350.352 189.112 349.884 188.76 349.508 188.28C349.252 188.536 348.988 188.796 348.716 189.06C348.444 189.324 348.164 189.592 347.876 189.864L347.408 189C347.664 188.8 347.944 188.572 348.248 188.316C348.552 188.06 348.84 187.804 349.112 187.548H349.868ZM347.6 179.664L348.296 179.208C348.536 179.392 348.776 179.604 349.016 179.844C349.264 180.076 349.488 180.312 349.688 180.552C349.888 180.784 350.044 181.004 350.156 181.212L349.4 181.716C349.288 181.516 349.136 181.296 348.944 181.056C348.752 180.808 348.54 180.564 348.308 180.324C348.076 180.076 347.84 179.856 347.6 179.664ZM350.768 183.996H358.052V184.692H350.768V183.996ZM350.384 185.832H358.424V186.54H350.384V185.832ZM352.544 183.12H353.396V186.18H352.544V183.12ZM355.364 183.12H356.228V186.18H355.364V183.12ZM351.068 180.792H353.18V180.012H350.612V179.388H353.96V181.428H351.068V180.792ZM350.816 180.792H351.584V182.052C351.584 182.164 351.608 182.24 351.656 182.28C351.712 182.312 351.836 182.328 352.028 182.328C352.068 182.328 352.148 182.328 352.268 182.328C352.388 182.328 352.52 182.328 352.664 182.328C352.808 182.328 352.94 182.328 353.06 182.328C353.188 182.328 353.28 182.328 353.336 182.328C353.48 182.328 353.572 182.296 353.612 182.232C353.66 182.16 353.692 181.992 353.708 181.728C353.78 181.784 353.88 181.832 354.008 181.872C354.144 181.912 354.268 181.948 354.38 181.98C354.34 182.364 354.252 182.624 354.116 182.76C353.98 182.896 353.756 182.964 353.444 182.964C353.396 182.964 353.3 182.964 353.156 182.964C353.02 182.964 352.864 182.964 352.688 182.964C352.52 182.964 352.364 182.964 352.22 182.964C352.076 182.964 351.984 182.964 351.944 182.964C351.648 182.964 351.416 182.94 351.248 182.892C351.088 182.836 350.976 182.744 350.912 182.616C350.848 182.48 350.816 182.292 350.816 182.052V180.792ZM355.016 180.792H357.092V180.012H354.536V179.388H357.884V181.428H355.016V180.792ZM354.764 180.792H355.532V182.04C355.532 182.16 355.56 182.24 355.616 182.28C355.672 182.312 355.8 182.328 356 182.328C356.056 182.328 356.144 182.328 356.264 182.328C356.392 182.328 356.532 182.328 356.684 182.328C356.844 182.328 356.992 182.328 357.128 182.328C357.264 182.328 357.364 182.328 357.428 182.328C357.58 182.328 357.676 182.292 357.716 182.22C357.764 182.14 357.8 181.96 357.824 181.68C357.896 181.736 357.996 181.788 358.124 181.836C358.26 181.876 358.38 181.912 358.484 181.944C358.452 182.344 358.364 182.616 358.22 182.76C358.084 182.896 357.856 182.964 357.536 182.964C357.488 182.964 357.384 182.964 357.224 182.964C357.072 182.964 356.904 182.964 356.72 182.964C356.536 182.964 356.368 182.964 356.216 182.964C356.064 182.964 355.964 182.964 355.916 182.964C355.62 182.964 355.388 182.94 355.22 182.892C355.052 182.836 354.932 182.744 354.86 182.616C354.796 182.48 354.764 182.288 354.764 182.04V180.792ZM355.16 187.092L355.808 186.696C356.096 186.832 356.392 186.984 356.696 187.152C357 187.32 357.284 187.492 357.548 187.668C357.82 187.836 358.052 187.996 358.244 188.148L357.356 188.532C357.108 188.308 356.784 188.064 356.384 187.8C355.984 187.536 355.576 187.3 355.16 187.092ZM352.952 186.672L353.756 186.948C353.444 187.236 353.068 187.52 352.628 187.8C352.188 188.08 351.768 188.312 351.368 188.496C351.32 188.448 351.256 188.388 351.176 188.316C351.096 188.244 351.012 188.172 350.924 188.1C350.844 188.028 350.772 187.972 350.708 187.932C351.116 187.772 351.524 187.584 351.932 187.368C352.348 187.144 352.688 186.912 352.952 186.672ZM368.204 180.06V181.32H369.416V180.06H368.204ZM366.272 180.06V181.32H367.472V180.06H366.272ZM364.412 180.06V181.32H365.552V180.06H364.412ZM363.68 179.412H370.184V181.98H363.68V179.412ZM363.812 182.712H369.944V183.396H363.812V182.712ZM363.2 184.248H370.532V184.968H363.2V184.248ZM363.32 186.108H370.376V186.828H363.32V186.108ZM363.572 187.692H370.112V188.388H363.572V187.692ZM366.392 181.8H367.256V184.548H366.392V181.8ZM366.392 186.42H367.256V190.044H366.392V186.42ZM364.7 185.088L365.456 184.908C365.544 185.076 365.636 185.268 365.732 185.484C365.828 185.692 365.896 185.872 365.936 186.024L365.156 186.24C365.116 186.08 365.052 185.892 364.964 185.676C364.884 185.46 364.796 185.264 364.7 185.088ZM368.288 184.8L369.14 185.016C369.012 185.24 368.884 185.46 368.756 185.676C368.636 185.892 368.524 186.08 368.42 186.24L367.736 186.036C367.832 185.852 367.932 185.644 368.036 185.412C368.148 185.18 368.232 184.976 368.288 184.8ZM359.336 185.148C359.8 185.012 360.36 184.844 361.016 184.644C361.68 184.436 362.352 184.224 363.032 184.008L363.164 184.836C362.54 185.044 361.912 185.252 361.28 185.46C360.648 185.668 360.076 185.852 359.564 186.012L359.336 185.148ZM359.504 181.344H363.14V182.184H359.504V181.344ZM361.004 178.932H361.844V188.916C361.844 189.156 361.812 189.344 361.748 189.48C361.692 189.616 361.588 189.72 361.436 189.792C361.292 189.864 361.1 189.912 360.86 189.936C360.62 189.96 360.308 189.968 359.924 189.96C359.916 189.856 359.884 189.72 359.828 189.552C359.78 189.392 359.728 189.248 359.672 189.12C359.928 189.128 360.16 189.132 360.368 189.132C360.584 189.14 360.728 189.14 360.8 189.132C360.872 189.132 360.924 189.116 360.956 189.084C360.988 189.06 361.004 189.004 361.004 188.916V178.932ZM372.944 182.856H382.424V183.6H372.944V182.856ZM372.32 179.916H381.824V180.648H372.32V179.916ZM375.116 184.836H381.644V185.568H375.116V184.836ZM374.852 186.78H381.356V187.512H374.852V186.78ZM373.772 188.952H382.328V189.708H373.772V188.952ZM376.532 178.932H377.432V180.432H376.532V178.932ZM377.588 183.864H378.464V189.264H377.588V183.864ZM372.488 182.856H373.364V184.8C373.364 185.176 373.348 185.592 373.316 186.048C373.284 186.496 373.22 186.956 373.124 187.428C373.036 187.9 372.908 188.364 372.74 188.82C372.58 189.268 372.364 189.68 372.092 190.056C372.052 190 371.988 189.932 371.9 189.852C371.812 189.78 371.72 189.708 371.624 189.636C371.536 189.572 371.456 189.524 371.384 189.492C371.712 189.02 371.952 188.508 372.104 187.956C372.264 187.396 372.368 186.844 372.416 186.3C372.464 185.748 372.488 185.244 372.488 184.788V182.856ZM375.248 183.828L376.04 184.02C375.856 184.532 375.62 185.024 375.332 185.496C375.044 185.968 374.74 186.368 374.42 186.696C374.372 186.648 374.304 186.596 374.216 186.54C374.128 186.476 374.04 186.416 373.952 186.36C373.872 186.304 373.796 186.256 373.724 186.216C374.044 185.92 374.336 185.564 374.6 185.148C374.864 184.724 375.08 184.284 375.248 183.828ZM374.108 181.08L374.684 180.6C375.156 180.712 375.652 180.844 376.172 180.996C376.692 181.148 377.204 181.308 377.708 181.476C378.22 181.644 378.704 181.812 379.16 181.98C379.616 182.14 380.012 182.292 380.348 182.436L379.784 182.952C379.456 182.808 379.068 182.652 378.62 182.484C378.172 182.308 377.692 182.136 377.18 181.968C376.668 181.792 376.148 181.628 375.62 181.476C375.1 181.324 374.596 181.192 374.108 181.08ZM379.292 180.42L379.94 180.768C379.588 181.016 379.176 181.252 378.704 181.476C378.232 181.692 377.724 181.892 377.18 182.076C376.644 182.26 376.096 182.424 375.536 182.568C374.984 182.712 374.444 182.832 373.916 182.928C373.884 182.848 373.832 182.752 373.76 182.64C373.688 182.52 373.624 182.424 373.568 182.352C374.064 182.264 374.584 182.156 375.128 182.028C375.68 181.892 376.216 181.744 376.736 181.584C377.264 181.416 377.748 181.236 378.188 181.044C378.636 180.844 379.004 180.636 379.292 180.42ZM386.624 180.288V182.568H391.412V180.288H386.624ZM385.748 179.436H392.336V183.432H385.748V179.436ZM383.996 184.716H388.268V189.852H387.368V185.568H384.86V189.96H383.996V184.716ZM389.588 184.716H394.1V189.888H393.188V185.568H390.452V189.96H389.588V184.716ZM384.392 188.436H387.74V189.312H384.392V188.436ZM390.02 188.436H393.584V189.312H390.02V188.436Z" fill="#3C4043"/>
<circle cx="335" cy="211.691" r="3.5" fill="#3CC3DF" stroke="#1A1F26"/>
<path d="M354.752 206.111H355.664V210.815H354.752V206.111ZM353.192 215.723H357.476V216.539H353.192V215.723ZM351.968 207.815H358.532V208.631H351.968V207.815ZM352.352 210.431H358.256V211.271H352.352V210.431ZM352.736 212.567H357.92V217.103H357.056V213.383H353.576V217.139H352.736V212.567ZM349.34 206.111L350.144 206.423C350 206.711 349.84 207.015 349.664 207.335C349.488 207.655 349.316 207.963 349.148 208.259C348.98 208.547 348.816 208.803 348.656 209.027L348.032 208.751C348.184 208.519 348.34 208.251 348.5 207.947C348.66 207.635 348.816 207.319 348.968 206.999C349.12 206.671 349.244 206.375 349.34 206.111ZM350.792 207.479L351.584 207.815C351.304 208.271 350.992 208.751 350.648 209.255C350.312 209.751 349.972 210.235 349.628 210.707C349.284 211.179 348.96 211.587 348.656 211.931L348.08 211.631C348.312 211.359 348.552 211.051 348.8 210.707C349.048 210.363 349.292 210.003 349.532 209.627C349.78 209.251 350.012 208.879 350.228 208.511C350.444 208.143 350.632 207.799 350.792 207.479ZM347.456 208.643L347.9 208.043C348.124 208.227 348.352 208.431 348.584 208.655C348.816 208.879 349.028 209.103 349.22 209.327C349.412 209.543 349.56 209.739 349.664 209.915L349.184 210.611C349.072 210.419 348.92 210.207 348.728 209.975C348.544 209.743 348.34 209.511 348.116 209.279C347.892 209.047 347.672 208.835 347.456 208.643ZM350.408 210.263L351.08 209.975C351.256 210.239 351.424 210.519 351.584 210.815C351.744 211.111 351.884 211.399 352.004 211.679C352.132 211.959 352.224 212.211 352.28 212.435L351.572 212.771C351.508 212.547 351.416 212.291 351.296 212.003C351.176 211.715 351.04 211.419 350.888 211.115C350.736 210.811 350.576 210.527 350.408 210.263ZM347.432 211.475C347.968 211.459 348.604 211.439 349.34 211.415C350.084 211.383 350.848 211.347 351.632 211.307L351.62 212.051C350.876 212.099 350.144 212.147 349.424 212.195C348.704 212.235 348.064 212.267 347.504 212.291L347.432 211.475ZM350.72 213.143L351.392 212.915C351.568 213.283 351.732 213.683 351.884 214.115C352.044 214.547 352.156 214.919 352.22 215.231L351.476 215.483C351.42 215.163 351.32 214.787 351.176 214.355C351.032 213.915 350.88 213.511 350.72 213.143ZM348.092 212.975L348.86 213.107C348.78 213.675 348.668 214.235 348.524 214.787C348.38 215.331 348.212 215.795 348.02 216.179C347.964 216.139 347.892 216.099 347.804 216.059C347.724 216.019 347.636 215.979 347.54 215.939C347.452 215.891 347.372 215.855 347.3 215.831C347.508 215.463 347.672 215.027 347.792 214.523C347.92 214.011 348.02 213.495 348.092 212.975ZM349.472 211.823H350.288V217.175H349.472V211.823ZM361.364 206.123H362.144V217.151H361.364V206.123ZM359.792 208.391H363.44V209.207H360.488V214.679H359.792V208.391ZM363.08 208.391H363.764V213.695C363.764 213.855 363.748 213.995 363.716 214.115C363.684 214.235 363.616 214.335 363.512 214.415C363.408 214.479 363.284 214.523 363.14 214.547C362.996 214.563 362.82 214.571 362.612 214.571C362.604 214.459 362.576 214.331 362.528 214.187C362.48 214.035 362.424 213.903 362.36 213.791C362.512 213.799 362.64 213.803 362.744 213.803C362.848 213.803 362.924 213.803 362.972 213.803C363.044 213.795 363.08 213.751 363.08 213.671V208.391ZM365.192 206.627H369.944V207.383H365.192V206.627ZM365.204 208.307H369.548V209.015H365.204V208.307ZM365.204 209.963H369.548V210.659H365.204V209.963ZM363.92 211.595H370.46V212.375H363.92V211.595ZM363.668 216.191C364.196 216.111 364.836 216.011 365.588 215.891C366.348 215.771 367.12 215.647 367.904 215.519L367.964 216.275C367.228 216.411 366.5 216.539 365.78 216.659C365.06 216.787 364.42 216.903 363.86 217.007L363.668 216.191ZM367.388 211.835C367.54 212.563 367.756 213.227 368.036 213.827C368.316 214.427 368.676 214.947 369.116 215.387C369.556 215.819 370.084 216.151 370.7 216.383C370.636 216.439 370.564 216.511 370.484 216.599C370.412 216.695 370.34 216.791 370.268 216.887C370.204 216.983 370.148 217.071 370.1 217.151C369.452 216.863 368.9 216.475 368.444 215.987C367.988 215.491 367.616 214.903 367.328 214.223C367.04 213.543 366.812 212.791 366.644 211.967L367.388 211.835ZM369.836 212.651L370.436 213.191C370.116 213.487 369.752 213.783 369.344 214.079C368.944 214.367 368.576 214.615 368.24 214.823L367.724 214.295C367.948 214.159 368.188 213.999 368.444 213.815C368.7 213.623 368.952 213.427 369.2 213.227C369.448 213.019 369.66 212.827 369.836 212.651ZM364.832 206.627H365.672V211.979H364.832V206.627ZM364.82 211.955H365.66V216.239L364.82 216.359V211.955ZM374.78 207.671H382.412V208.499H374.78V207.671ZM377.96 206.111H378.872V208.067H377.96V206.111ZM377.96 211.859H378.776V216.635H377.96V211.859ZM375.86 211.787H376.676V213.059C376.676 213.395 376.656 213.739 376.616 214.091C376.584 214.443 376.504 214.799 376.376 215.159C376.256 215.511 376.076 215.855 375.836 216.191C375.596 216.527 375.272 216.839 374.864 217.127C374.824 217.071 374.768 217.003 374.696 216.923C374.624 216.851 374.544 216.779 374.456 216.707C374.376 216.635 374.3 216.579 374.228 216.539C374.724 216.195 375.084 215.823 375.308 215.423C375.54 215.023 375.688 214.619 375.752 214.211C375.824 213.795 375.86 213.403 375.86 213.035V211.787ZM377.432 208.115L378.356 208.403C378.212 208.699 378.052 209.003 377.876 209.315C377.708 209.619 377.54 209.911 377.372 210.191C377.204 210.471 377.044 210.723 376.892 210.947L376.16 210.683C376.312 210.451 376.464 210.187 376.616 209.891C376.776 209.587 376.928 209.279 377.072 208.967C377.216 208.655 377.336 208.371 377.432 208.115ZM379.532 209.291L380.216 208.907C380.504 209.147 380.796 209.415 381.092 209.711C381.388 210.007 381.656 210.303 381.896 210.599C382.144 210.895 382.336 211.167 382.472 211.415L381.74 211.847C381.604 211.607 381.416 211.339 381.176 211.043C380.936 210.739 380.672 210.435 380.384 210.131C380.104 209.819 379.82 209.539 379.532 209.291ZM374.924 210.467C375.444 210.451 376.052 210.431 376.748 210.407C377.444 210.383 378.18 210.359 378.956 210.335C379.74 210.303 380.524 210.271 381.308 210.239L381.284 211.007C380.532 211.047 379.78 211.087 379.028 211.127C378.276 211.167 377.56 211.203 376.88 211.235C376.2 211.267 375.584 211.295 375.032 211.319L374.924 210.467ZM372.092 206.867L372.584 206.219C372.848 206.323 373.116 206.447 373.388 206.591C373.66 206.735 373.916 206.887 374.156 207.047C374.404 207.207 374.604 207.355 374.756 207.491L374.24 208.235C374.088 208.083 373.892 207.927 373.652 207.767C373.412 207.599 373.156 207.435 372.884 207.275C372.612 207.115 372.348 206.979 372.092 206.867ZM371.456 210.119L371.948 209.447C372.204 209.543 372.472 209.663 372.752 209.807C373.032 209.943 373.296 210.083 373.544 210.227C373.792 210.371 373.996 210.511 374.156 210.647L373.64 211.403C373.488 211.267 373.288 211.123 373.04 210.971C372.792 210.811 372.528 210.659 372.248 210.515C371.976 210.363 371.712 210.231 371.456 210.119ZM371.804 216.407C372.012 216.095 372.24 215.723 372.488 215.291C372.736 214.859 372.988 214.403 373.244 213.923C373.5 213.435 373.736 212.963 373.952 212.507L374.636 213.071C374.436 213.495 374.22 213.939 373.988 214.403C373.756 214.859 373.52 215.311 373.28 215.759C373.04 216.199 372.808 216.607 372.584 216.983L371.804 216.407ZM380.096 211.787H380.936V215.759C380.936 215.999 380.96 216.139 381.008 216.179C381.024 216.195 381.048 216.207 381.08 216.215C381.12 216.231 381.16 216.239 381.2 216.239C381.24 216.239 381.292 216.239 381.356 216.239C381.428 216.239 381.488 216.239 381.536 216.239C381.584 216.239 381.632 216.235 381.68 216.227C381.736 216.219 381.776 216.203 381.8 216.179C381.848 216.147 381.888 216.039 381.92 215.855C381.936 215.759 381.944 215.607 381.944 215.399C381.952 215.183 381.96 214.931 381.968 214.643C382.04 214.715 382.136 214.783 382.256 214.847C382.376 214.903 382.492 214.951 382.604 214.991C382.596 215.255 382.58 215.523 382.556 215.795C382.54 216.067 382.516 216.259 382.484 216.371C382.428 216.587 382.32 216.743 382.16 216.839C382.096 216.879 382.008 216.911 381.896 216.935C381.784 216.959 381.68 216.971 381.584 216.971C381.512 216.971 381.408 216.971 381.272 216.971C381.144 216.971 381.048 216.971 380.984 216.971C380.872 216.971 380.756 216.951 380.636 216.911C380.516 216.879 380.412 216.827 380.324 216.755C380.236 216.675 380.176 216.563 380.144 216.419C380.112 216.283 380.096 216.035 380.096 215.675V211.787ZM390.728 211.763H391.616V216.575H390.728V211.763ZM388.1 211.439H394.292V212.231H388.1V211.439ZM387.572 216.035H394.556V216.827H387.572V216.035ZM388.376 213.683H394.028V214.463H388.376V213.683ZM389.384 207.395V209.603H393.008V207.395H389.384ZM388.544 206.615H393.884V210.383H388.544V206.615ZM385.544 207.107H386.432V217.127H385.544V207.107ZM383.588 209.495H387.932V210.335H383.588V209.495ZM385.592 209.819L386.156 210.059C386.036 210.483 385.888 210.923 385.712 211.379C385.536 211.827 385.344 212.275 385.136 212.723C384.936 213.163 384.72 213.579 384.488 213.971C384.264 214.355 384.036 214.683 383.804 214.955C383.756 214.835 383.684 214.695 383.588 214.535C383.5 214.375 383.416 214.239 383.336 214.127C383.56 213.887 383.78 213.599 383.996 213.263C384.212 212.927 384.42 212.563 384.62 212.171C384.828 211.779 385.016 211.383 385.184 210.983C385.352 210.575 385.488 210.187 385.592 209.819ZM387.332 206.279L387.956 206.975C387.588 207.119 387.168 207.255 386.696 207.383C386.224 207.511 385.736 207.623 385.232 207.719C384.736 207.807 384.252 207.883 383.78 207.947C383.764 207.851 383.728 207.739 383.672 207.611C383.616 207.475 383.564 207.359 383.516 207.263C383.964 207.183 384.424 207.095 384.896 206.999C385.376 206.903 385.828 206.795 386.252 206.675C386.676 206.547 387.036 206.415 387.332 206.279ZM386.384 211.031C386.464 211.103 386.58 211.219 386.732 211.379C386.892 211.531 387.064 211.699 387.248 211.883C387.432 212.059 387.596 212.227 387.74 212.387C387.892 212.547 388 212.663 388.064 212.735L387.524 213.443C387.452 213.323 387.348 213.171 387.212 212.987C387.084 212.803 386.94 212.607 386.78 212.399C386.62 212.191 386.468 211.999 386.324 211.823C386.18 211.647 386.06 211.507 385.964 211.403L386.384 211.031Z" fill="#3C4043"/>
<path d="M327.357 133V124.273H330.63C331.3 124.273 331.863 124.398 332.317 124.648C332.775 124.898 333.12 125.241 333.353 125.679C333.588 126.114 333.706 126.608 333.706 127.162C333.706 127.722 333.588 128.219 333.353 128.653C333.117 129.088 332.769 129.43 332.309 129.68C331.848 129.928 331.282 130.051 330.608 130.051H328.439V128.751H330.395C330.787 128.751 331.108 128.683 331.358 128.547C331.608 128.411 331.793 128.223 331.912 127.984C332.034 127.746 332.096 127.472 332.096 127.162C332.096 126.852 332.034 126.58 331.912 126.344C331.793 126.108 331.607 125.925 331.354 125.794C331.104 125.661 330.782 125.594 330.387 125.594H328.938V133H327.357ZM336.778 133.132C336.363 133.132 335.989 133.058 335.657 132.911C335.327 132.76 335.066 132.538 334.873 132.246C334.683 131.953 334.587 131.592 334.587 131.163C334.587 130.794 334.656 130.489 334.792 130.247C334.928 130.006 335.114 129.812 335.35 129.668C335.586 129.523 335.852 129.413 336.147 129.339C336.445 129.263 336.754 129.207 337.072 129.173C337.455 129.134 337.766 129.098 338.005 129.067C338.244 129.033 338.417 128.982 338.525 128.913C338.636 128.842 338.691 128.733 338.691 128.585V128.56C338.691 128.239 338.596 127.99 338.406 127.814C338.215 127.638 337.941 127.55 337.583 127.55C337.205 127.55 336.906 127.632 336.684 127.797C336.465 127.962 336.317 128.156 336.241 128.381L334.8 128.176C334.914 127.778 335.102 127.446 335.363 127.179C335.624 126.909 335.944 126.707 336.322 126.574C336.7 126.438 337.117 126.369 337.575 126.369C337.89 126.369 338.204 126.406 338.516 126.48C338.829 126.554 339.114 126.676 339.373 126.847C339.631 127.014 339.839 127.243 339.995 127.533C340.154 127.822 340.234 128.185 340.234 128.619V133H338.751V132.101H338.7C338.606 132.283 338.474 132.453 338.303 132.612C338.136 132.768 337.924 132.895 337.668 132.991C337.415 133.085 337.119 133.132 336.778 133.132ZM337.178 131.999C337.488 131.999 337.756 131.937 337.984 131.815C338.211 131.69 338.386 131.526 338.508 131.321C338.633 131.116 338.695 130.893 338.695 130.652V129.881C338.647 129.92 338.565 129.957 338.448 129.991C338.335 130.026 338.207 130.055 338.065 130.081C337.923 130.107 337.782 130.129 337.643 130.149C337.504 130.169 337.383 130.186 337.281 130.2C337.05 130.232 336.844 130.283 336.663 130.354C336.481 130.425 336.337 130.524 336.232 130.652C336.127 130.777 336.075 130.939 336.075 131.138C336.075 131.422 336.178 131.636 336.386 131.781C336.593 131.926 336.857 131.999 337.178 131.999ZM344.631 135.591C344.077 135.591 343.602 135.516 343.204 135.365C342.806 135.217 342.487 135.018 342.245 134.768C342.004 134.518 341.836 134.241 341.742 133.938L343.131 133.601C343.194 133.729 343.285 133.855 343.404 133.98C343.523 134.108 343.684 134.213 343.886 134.295C344.09 134.381 344.347 134.423 344.657 134.423C345.094 134.423 345.457 134.317 345.744 134.104C346.031 133.893 346.174 133.547 346.174 133.064V131.824H346.097C346.018 131.983 345.901 132.146 345.748 132.314C345.597 132.482 345.397 132.622 345.147 132.736C344.9 132.849 344.589 132.906 344.214 132.906C343.711 132.906 343.255 132.788 342.846 132.553C342.44 132.314 342.116 131.959 341.874 131.487C341.636 131.013 341.516 130.419 341.516 129.706C341.516 128.987 341.636 128.381 341.874 127.886C342.116 127.389 342.441 127.013 342.85 126.757C343.259 126.499 343.715 126.369 344.218 126.369C344.602 126.369 344.917 126.435 345.164 126.565C345.414 126.693 345.613 126.848 345.761 127.03C345.908 127.209 346.021 127.378 346.097 127.537H346.183V126.455H347.704V133.107C347.704 133.666 347.57 134.129 347.303 134.496C347.036 134.862 346.671 135.136 346.208 135.318C345.745 135.5 345.219 135.591 344.631 135.591ZM344.644 131.696C344.971 131.696 345.249 131.616 345.479 131.457C345.71 131.298 345.884 131.07 346.004 130.771C346.123 130.473 346.183 130.115 346.183 129.697C346.183 129.286 346.123 128.925 346.004 128.615C345.887 128.305 345.714 128.065 345.484 127.895C345.256 127.722 344.977 127.635 344.644 127.635C344.3 127.635 344.013 127.724 343.783 127.903C343.553 128.082 343.38 128.328 343.263 128.641C343.147 128.95 343.089 129.303 343.089 129.697C343.089 130.098 343.147 130.449 343.263 130.75C343.383 131.048 343.558 131.281 343.788 131.449C344.021 131.614 344.306 131.696 344.644 131.696ZM352.183 133.128C351.526 133.128 350.96 132.991 350.482 132.719C350.008 132.443 349.643 132.054 349.387 131.551C349.131 131.045 349.004 130.45 349.004 129.766C349.004 129.092 349.131 128.501 349.387 127.993C349.646 127.482 350.006 127.084 350.469 126.8C350.933 126.513 351.477 126.369 352.102 126.369C352.505 126.369 352.886 126.435 353.244 126.565C353.604 126.693 353.923 126.892 354.198 127.162C354.477 127.432 354.695 127.776 354.854 128.193C355.013 128.608 355.093 129.102 355.093 129.676V130.149H349.728V129.109H353.614C353.612 128.814 353.548 128.551 353.423 128.321C353.298 128.088 353.123 127.905 352.898 127.771C352.677 127.638 352.418 127.571 352.123 127.571C351.808 127.571 351.531 127.648 351.292 127.801C351.053 127.952 350.867 128.151 350.734 128.398C350.603 128.642 350.536 128.911 350.533 129.203V130.111C350.533 130.491 350.603 130.818 350.742 131.091C350.881 131.361 351.076 131.568 351.326 131.713C351.576 131.855 351.869 131.926 352.204 131.926C352.428 131.926 352.631 131.895 352.813 131.832C352.995 131.767 353.153 131.672 353.286 131.547C353.42 131.422 353.521 131.267 353.589 131.082L355.029 131.244C354.938 131.625 354.765 131.957 354.509 132.241C354.256 132.523 353.933 132.741 353.538 132.898C353.143 133.051 352.691 133.128 352.183 133.128ZM362.4 133H359.443V124.273H362.46C363.326 124.273 364.071 124.447 364.693 124.797C365.318 125.143 365.798 125.642 366.133 126.293C366.468 126.943 366.636 127.722 366.636 128.628C366.636 129.537 366.467 130.318 366.129 130.972C365.794 131.625 365.309 132.126 364.676 132.476C364.045 132.825 363.287 133 362.4 133ZM361.024 131.632H362.324C362.931 131.632 363.439 131.521 363.845 131.3C364.251 131.075 364.556 130.741 364.761 130.298C364.966 129.852 365.068 129.295 365.068 128.628C365.068 127.96 364.966 127.406 364.761 126.966C364.556 126.523 364.254 126.192 363.853 125.973C363.456 125.751 362.961 125.641 362.37 125.641H361.024V131.632ZM368.07 133V126.455H369.566V127.545H369.634C369.753 127.168 369.958 126.876 370.248 126.672C370.54 126.464 370.874 126.361 371.249 126.361C371.334 126.361 371.429 126.365 371.534 126.374C371.642 126.379 371.732 126.389 371.803 126.403V127.822C371.738 127.8 371.634 127.78 371.492 127.763C371.353 127.743 371.218 127.733 371.087 127.733C370.806 127.733 370.553 127.794 370.328 127.916C370.107 128.036 369.932 128.202 369.804 128.415C369.676 128.628 369.613 128.874 369.613 129.152V133H368.07ZM375.413 133.128C374.774 133.128 374.22 132.987 373.751 132.706C373.283 132.425 372.919 132.031 372.661 131.526C372.405 131.02 372.277 130.429 372.277 129.753C372.277 129.077 372.405 128.484 372.661 127.976C372.919 127.467 373.283 127.072 373.751 126.791C374.22 126.51 374.774 126.369 375.413 126.369C376.053 126.369 376.607 126.51 377.075 126.791C377.544 127.072 377.906 127.467 378.162 127.976C378.42 128.484 378.55 129.077 378.55 129.753C378.55 130.429 378.42 131.02 378.162 131.526C377.906 132.031 377.544 132.425 377.075 132.706C376.607 132.987 376.053 133.128 375.413 133.128ZM375.422 131.892C375.768 131.892 376.058 131.797 376.291 131.607C376.524 131.413 376.697 131.155 376.811 130.831C376.928 130.507 376.986 130.146 376.986 129.749C376.986 129.348 376.928 128.986 376.811 128.662C376.697 128.335 376.524 128.075 376.291 127.882C376.058 127.689 375.768 127.592 375.422 127.592C375.067 127.592 374.771 127.689 374.536 127.882C374.303 128.075 374.128 128.335 374.011 128.662C373.898 128.986 373.841 129.348 373.841 129.749C373.841 130.146 373.898 130.507 374.011 130.831C374.128 131.155 374.303 131.413 374.536 131.607C374.771 131.797 375.067 131.892 375.422 131.892ZM379.859 135.455V126.455H381.376V127.537H381.466C381.545 127.378 381.657 127.209 381.802 127.03C381.947 126.848 382.143 126.693 382.39 126.565C382.637 126.435 382.953 126.369 383.336 126.369C383.842 126.369 384.298 126.499 384.704 126.757C385.113 127.013 385.437 127.392 385.676 127.895C385.917 128.395 386.038 129.009 386.038 129.736C386.038 130.455 385.92 131.065 385.684 131.568C385.449 132.071 385.127 132.455 384.721 132.719C384.315 132.983 383.855 133.115 383.341 133.115C382.966 133.115 382.654 133.053 382.407 132.928C382.16 132.803 381.961 132.652 381.811 132.476C381.663 132.297 381.548 132.128 381.466 131.969H381.402V135.455H379.859ZM381.372 129.727C381.372 130.151 381.431 130.521 381.551 130.839C381.673 131.158 381.848 131.406 382.075 131.585C382.305 131.761 382.583 131.849 382.91 131.849C383.251 131.849 383.537 131.759 383.767 131.577C383.997 131.392 384.17 131.141 384.287 130.822C384.406 130.501 384.466 130.136 384.466 129.727C384.466 129.321 384.407 128.96 384.291 128.645C384.174 128.33 384.001 128.082 383.771 127.903C383.541 127.724 383.254 127.635 382.91 127.635C382.581 127.635 382.301 127.722 382.071 127.895C381.841 128.068 381.666 128.311 381.547 128.624C381.43 128.936 381.372 129.304 381.372 129.727ZM391.326 128.73V130H387.397V128.73H391.326ZM395.804 133.128C395.165 133.128 394.611 132.987 394.142 132.706C393.673 132.425 393.31 132.031 393.051 131.526C392.795 131.02 392.668 130.429 392.668 129.753C392.668 129.077 392.795 128.484 393.051 127.976C393.31 127.467 393.673 127.072 394.142 126.791C394.611 126.51 395.165 126.369 395.804 126.369C396.443 126.369 396.997 126.51 397.466 126.791C397.935 127.072 398.297 127.467 398.553 127.976C398.811 128.484 398.94 129.077 398.94 129.753C398.94 130.429 398.811 131.02 398.553 131.526C398.297 132.031 397.935 132.425 397.466 132.706C396.997 132.987 396.443 133.128 395.804 133.128ZM395.812 131.892C396.159 131.892 396.449 131.797 396.682 131.607C396.915 131.413 397.088 131.155 397.202 130.831C397.318 130.507 397.376 130.146 397.376 129.749C397.376 129.348 397.318 128.986 397.202 128.662C397.088 128.335 396.915 128.075 396.682 127.882C396.449 127.689 396.159 127.592 395.812 127.592C395.457 127.592 395.162 127.689 394.926 127.882C394.693 128.075 394.518 128.335 394.402 128.662C394.288 128.986 394.232 129.348 394.232 129.749C394.232 130.146 394.288 130.507 394.402 130.831C394.518 131.155 394.693 131.413 394.926 131.607C395.162 131.797 395.457 131.892 395.812 131.892ZM403.565 126.455V127.648H399.696V126.455H403.565ZM400.663 133V125.837C400.663 125.396 400.754 125.03 400.936 124.737C401.12 124.445 401.368 124.226 401.677 124.081C401.987 123.936 402.331 123.864 402.708 123.864C402.975 123.864 403.213 123.885 403.42 123.928C403.627 123.97 403.781 124.009 403.88 124.043L403.574 125.236C403.508 125.216 403.426 125.196 403.326 125.176C403.227 125.153 403.116 125.142 402.994 125.142C402.707 125.142 402.504 125.212 402.385 125.351C402.268 125.487 402.21 125.683 402.21 125.939V133H400.663ZM408.088 126.455V127.648H404.219V126.455H408.088ZM405.186 133V125.837C405.186 125.396 405.277 125.03 405.459 124.737C405.644 124.445 405.891 124.226 406.201 124.081C406.51 123.936 406.854 123.864 407.232 123.864C407.499 123.864 407.736 123.885 407.944 123.928C408.151 123.97 408.304 124.009 408.404 124.043L408.097 125.236C408.032 125.216 407.949 125.196 407.85 125.176C407.75 125.153 407.64 125.142 407.517 125.142C407.23 125.142 407.027 125.212 406.908 125.351C406.792 125.487 406.733 125.683 406.733 125.939V133H405.186Z" fill="#5F6367"/>
</svg>
