<svg width="493" height="368" viewBox="0 0 493 368" fill="none" xmlns="http://www.w3.org/2000/svg">
<g clip-path="url(#clip0_1828_5111)">
<path d="M21.3011 55.1193C20.9432 55.1136 20.5852 55.0455 20.2273 54.9148C19.8693 54.7841 19.5426 54.5639 19.2472 54.2543C18.9517 53.9418 18.7145 53.5199 18.5355 52.9886C18.3565 52.4545 18.267 51.7841 18.267 50.9773C18.267 50.2045 18.3395 49.5199 18.4844 48.9233C18.6293 48.3239 18.8395 47.8196 19.1151 47.4105C19.3906 46.9986 19.723 46.6861 20.1122 46.473C20.5043 46.2599 20.946 46.1534 21.4375 46.1534C21.9261 46.1534 22.3608 46.2514 22.7415 46.4474C23.125 46.6406 23.4375 46.9105 23.679 47.2571C23.9205 47.6037 24.0767 48.0028 24.1477 48.4545H23.108C23.0114 48.0625 22.8239 47.7372 22.5455 47.4787C22.267 47.2202 21.8977 47.0909 21.4375 47.0909C20.7614 47.0909 20.2287 47.3849 19.8395 47.973C19.4531 48.5611 19.2585 49.3864 19.2557 50.4489H19.3239C19.483 50.2074 19.6719 50.0014 19.8906 49.831C20.1122 49.6577 20.3565 49.5241 20.6236 49.4304C20.8906 49.3366 21.1733 49.2898 21.4716 49.2898C21.9716 49.2898 22.429 49.4148 22.8438 49.6648C23.2585 49.9119 23.5909 50.2543 23.8409 50.6918C24.0909 51.1264 24.2159 51.625 24.2159 52.1875C24.2159 52.7273 24.0952 53.2216 23.8537 53.6705C23.6122 54.1165 23.2727 54.4716 22.8352 54.7358C22.4006 54.9972 21.8892 55.125 21.3011 55.1193ZM21.3011 54.1818C21.6591 54.1818 21.9801 54.0923 22.2642 53.9134C22.5511 53.7344 22.777 53.4943 22.9418 53.1932C23.1094 52.892 23.1932 52.5568 23.1932 52.1875C23.1932 51.8267 23.1122 51.4986 22.9503 51.2031C22.7912 50.9048 22.571 50.6676 22.2898 50.4915C22.0114 50.3153 21.6932 50.2273 21.3352 50.2273C21.0653 50.2273 20.8139 50.2812 20.581 50.3892C20.348 50.4943 20.1435 50.6392 19.9673 50.8239C19.794 51.0085 19.6577 51.2202 19.5582 51.4588C19.4588 51.6946 19.4091 51.9432 19.4091 52.2045C19.4091 52.5511 19.4901 52.875 19.652 53.1761C19.8168 53.4773 20.0412 53.7202 20.3253 53.9048C20.6122 54.0895 20.9375 54.1818 21.3011 54.1818ZM28.7383 55.1193C28.0962 55.1193 27.5494 54.9446 27.0977 54.5952C26.646 54.2429 26.3008 53.733 26.0621 53.0653C25.8235 52.3949 25.7042 51.5852 25.7042 50.6364C25.7042 49.6932 25.8235 48.8878 26.0621 48.2202C26.3036 47.5497 26.6502 47.0384 27.1019 46.6861C27.5565 46.331 28.1019 46.1534 28.7383 46.1534C29.3746 46.1534 29.9187 46.331 30.3704 46.6861C30.8249 47.0384 31.1715 47.5497 31.4102 48.2202C31.6516 48.8878 31.7724 49.6932 31.7724 50.6364C31.7724 51.5852 31.6531 52.3949 31.4144 53.0653C31.1758 53.733 30.8306 54.2429 30.3789 54.5952C29.9272 54.9446 29.3803 55.1193 28.7383 55.1193ZM28.7383 54.1818C29.3746 54.1818 29.869 53.875 30.2212 53.2614C30.5735 52.6477 30.7496 51.7727 30.7496 50.6364C30.7496 49.8807 30.6687 49.2372 30.5067 48.706C30.3477 48.1747 30.1175 47.7699 29.8164 47.4915C29.5181 47.2131 29.1587 47.0739 28.7383 47.0739C28.1076 47.0739 27.6147 47.3849 27.2596 48.0071C26.9045 48.6264 26.7269 49.5028 26.7269 50.6364C26.7269 51.392 26.8065 52.0341 26.9656 52.5625C27.1246 53.0909 27.3533 53.4929 27.6516 53.7685C27.9528 54.044 28.315 54.1818 28.7383 54.1818ZM33.4087 55V48.4545H34.3803V49.4773H34.4656C34.6019 49.1278 34.8221 48.8565 35.1261 48.6634C35.43 48.4673 35.7951 48.3693 36.2212 48.3693C36.6531 48.3693 37.0124 48.4673 37.2994 48.6634C37.5891 48.8565 37.815 49.1278 37.9769 49.4773H38.0451C38.2127 49.1392 38.4641 48.8707 38.7994 48.6719C39.1346 48.4702 39.5366 48.3693 40.0053 48.3693C40.5906 48.3693 41.0692 48.5526 41.4414 48.919C41.8136 49.2827 41.9996 49.8494 41.9996 50.6193V55H40.994V50.6193C40.994 50.1364 40.8619 49.7912 40.5977 49.5838C40.3335 49.3764 40.0224 49.2727 39.6644 49.2727C39.2042 49.2727 38.8477 49.4119 38.5948 49.6903C38.342 49.9659 38.2156 50.3153 38.2156 50.7386V55H37.1928V50.517C37.1928 50.1449 37.0721 49.8452 36.8306 49.6179C36.5891 49.3878 36.2781 49.2727 35.8974 49.2727C35.636 49.2727 35.3917 49.3423 35.1644 49.4815C34.94 49.6207 34.7582 49.8139 34.619 50.0611C34.4826 50.3054 34.4144 50.5881 34.4144 50.9091V55H33.4087ZM43.8384 55V48.4545H44.8441V55H43.8384ZM44.3498 47.3636C44.1538 47.3636 43.9847 47.2969 43.8427 47.1634C43.7035 47.0298 43.6339 46.8693 43.6339 46.6818C43.6339 46.4943 43.7035 46.3338 43.8427 46.2003C43.9847 46.0668 44.1538 46 44.3498 46C44.5458 46 44.7134 46.0668 44.8526 46.2003C44.9947 46.3338 45.0657 46.4943 45.0657 46.6818C45.0657 46.8693 44.9947 47.0298 44.8526 47.1634C44.7134 47.2969 44.5458 47.3636 44.3498 47.3636ZM47.6918 51.0625V55H46.6861V48.4545H47.6577V49.4773H47.7429C47.8963 49.1449 48.1293 48.8778 48.4418 48.6761C48.7543 48.4716 49.1577 48.3693 49.652 48.3693C50.0952 48.3693 50.483 48.4602 50.8153 48.642C51.1477 48.821 51.4063 49.0938 51.5909 49.4602C51.7756 49.8239 51.8679 50.2841 51.8679 50.8409V55H50.8622V50.9091C50.8622 50.3949 50.7287 49.9943 50.4616 49.7074C50.1946 49.4176 49.8281 49.2727 49.3622 49.2727C49.0412 49.2727 48.7543 49.3423 48.5014 49.4815C48.2514 49.6207 48.054 49.8239 47.9091 50.0909C47.7642 50.358 47.6918 50.6818 47.6918 51.0625Z" fill="black" fill-opacity="0.7"/>
<path d="M18.1989 138.3V137.431L22.0341 131.363H22.6648V132.709H22.2386L19.3409 137.294V137.363H24.5057V138.3H18.1989ZM22.3068 140.09V138.036V137.631V131.363H23.3125V140.09H22.3068ZM28.9492 140.209C28.3072 140.209 27.7603 140.034 27.3086 139.685C26.8569 139.333 26.5117 138.823 26.2731 138.155C26.0344 137.485 25.9151 136.675 25.9151 135.726C25.9151 134.783 26.0344 133.978 26.2731 133.31C26.5146 132.64 26.8612 132.128 27.3129 131.776C27.7674 131.421 28.3129 131.243 28.9492 131.243C29.5856 131.243 30.1296 131.421 30.5813 131.776C31.0359 132.128 31.3825 132.64 31.6211 133.31C31.8626 133.978 31.9833 134.783 31.9833 135.726C31.9833 136.675 31.864 137.485 31.6254 138.155C31.3867 138.823 31.0415 139.333 30.5898 139.685C30.1381 140.034 29.5913 140.209 28.9492 140.209ZM28.9492 139.272C29.5856 139.272 30.0799 138.965 30.4322 138.351C30.7844 137.738 30.9606 136.863 30.9606 135.726C30.9606 134.971 30.8796 134.327 30.7177 133.796C30.5586 133.265 30.3285 132.86 30.0273 132.581C29.729 132.303 29.3697 132.164 28.9492 132.164C28.3185 132.164 27.8256 132.475 27.4705 133.097C27.1154 133.716 26.9379 134.593 26.9379 135.726C26.9379 136.482 27.0174 137.124 27.1765 137.652C27.3356 138.181 27.5643 138.583 27.8626 138.858C28.1637 139.134 28.5259 139.272 28.9492 139.272ZM33.6197 140.09V133.544H34.5913V134.567H34.6765C34.8129 134.218 35.033 133.946 35.337 133.753C35.641 133.557 36.006 133.459 36.4322 133.459C36.864 133.459 37.2234 133.557 37.5103 133.753C37.8001 133.946 38.0259 134.218 38.1879 134.567H38.256C38.4237 134.229 38.6751 133.961 39.0103 133.762C39.3455 133.56 39.7475 133.459 40.2163 133.459C40.8015 133.459 41.2802 133.642 41.6523 134.009C42.0245 134.373 42.2106 134.939 42.2106 135.709V140.09H41.2049V135.709C41.2049 135.226 41.0728 134.881 40.8086 134.674C40.5444 134.466 40.2333 134.363 39.8754 134.363C39.4151 134.363 39.0586 134.502 38.8058 134.78C38.5529 135.056 38.4265 135.405 38.4265 135.828V140.09H37.4038V135.607C37.4038 135.235 37.283 134.935 37.0415 134.708C36.8001 134.478 36.489 134.363 36.1083 134.363C35.8469 134.363 35.6026 134.432 35.3754 134.571C35.1509 134.711 34.9691 134.904 34.8299 135.151C34.6935 135.395 34.6254 135.678 34.6254 135.999V140.09H33.6197ZM44.0494 140.09V133.544H45.055V140.09H44.0494ZM44.5607 132.453C44.3647 132.453 44.1957 132.387 44.0536 132.253C43.9144 132.12 43.8448 131.959 43.8448 131.772C43.8448 131.584 43.9144 131.424 44.0536 131.29C44.1957 131.157 44.3647 131.09 44.5607 131.09C44.7567 131.09 44.9244 131.157 45.0636 131.29C45.2056 131.424 45.2766 131.584 45.2766 131.772C45.2766 131.959 45.2056 132.12 45.0636 132.253C44.9244 132.387 44.7567 132.453 44.5607 132.453ZM47.9027 136.152V140.09H46.897V133.544H47.8686V134.567H47.9538C48.1072 134.235 48.3402 133.968 48.6527 133.766C48.9652 133.561 49.3686 133.459 49.8629 133.459C50.3061 133.459 50.6939 133.55 51.0263 133.732C51.3587 133.911 51.6172 134.184 51.8018 134.55C51.9865 134.914 52.0788 135.374 52.0788 135.931V140.09H51.0732V135.999C51.0732 135.485 50.9396 135.084 50.6726 134.797C50.4055 134.507 50.0391 134.363 49.5732 134.363C49.2521 134.363 48.9652 134.432 48.7124 134.571C48.4624 134.711 48.2649 134.914 48.12 135.181C47.9751 135.448 47.9027 135.772 47.9027 136.152Z" fill="black" fill-opacity="0.7"/>
<path d="M18.4034 225.18V224.413L21.2841 221.259C21.6222 220.89 21.9006 220.569 22.1193 220.296C22.3381 220.021 22.5 219.762 22.6051 219.521C22.7131 219.276 22.767 219.021 22.767 218.754C22.767 218.447 22.6932 218.181 22.5455 217.957C22.4006 217.732 22.2017 217.559 21.9489 217.437C21.696 217.315 21.4119 217.254 21.0966 217.254C20.7614 217.254 20.4688 217.323 20.2188 217.462C19.9716 217.599 19.7798 217.79 19.6435 218.038C19.5099 218.285 19.4432 218.575 19.4432 218.907H18.4375C18.4375 218.396 18.5554 217.947 18.7912 217.56C19.027 217.174 19.348 216.873 19.7543 216.657C20.1634 216.441 20.6222 216.333 21.1307 216.333C21.642 216.333 22.0952 216.441 22.4901 216.657C22.8849 216.873 23.1946 217.164 23.419 217.531C23.6435 217.897 23.7557 218.305 23.7557 218.754C23.7557 219.075 23.6974 219.388 23.581 219.695C23.4673 219.999 23.2685 220.339 22.9844 220.714C22.7031 221.086 22.3125 221.54 21.8125 222.077L19.8523 224.174V224.242H23.9091V225.18H18.4034ZM28.5156 225.299C27.8736 225.299 27.3267 225.124 26.875 224.775C26.4233 224.423 26.0781 223.913 25.8395 223.245C25.6009 222.575 25.4815 221.765 25.4815 220.816C25.4815 219.873 25.6009 219.067 25.8395 218.4C26.081 217.729 26.4276 217.218 26.8793 216.866C27.3338 216.511 27.8793 216.333 28.5156 216.333C29.152 216.333 29.696 216.511 30.1477 216.866C30.6023 217.218 30.9489 217.729 31.1875 218.4C31.429 219.067 31.5497 219.873 31.5497 220.816C31.5497 221.765 31.4304 222.575 31.1918 223.245C30.9531 223.913 30.608 224.423 30.1562 224.775C29.7045 225.124 29.1577 225.299 28.5156 225.299ZM28.5156 224.362C29.152 224.362 29.6463 224.055 29.9986 223.441C30.3509 222.827 30.527 221.952 30.527 220.816C30.527 220.06 30.446 219.417 30.2841 218.886C30.125 218.354 29.8949 217.95 29.5938 217.671C29.2955 217.393 28.9361 217.254 28.5156 217.254C27.8849 217.254 27.392 217.565 27.0369 218.187C26.6818 218.806 26.5043 219.683 26.5043 220.816C26.5043 221.572 26.5838 222.214 26.7429 222.742C26.902 223.271 27.1307 223.673 27.429 223.948C27.7301 224.224 28.0923 224.362 28.5156 224.362ZM33.1861 225.18V218.634H34.1577V219.657H34.2429C34.3793 219.308 34.5994 219.036 34.9034 218.843C35.2074 218.647 35.5724 218.549 35.9986 218.549C36.4304 218.549 36.7898 218.647 37.0767 218.843C37.3665 219.036 37.5923 219.308 37.7543 219.657H37.8224C37.9901 219.319 38.2415 219.05 38.5767 218.852C38.9119 218.65 39.3139 218.549 39.7827 218.549C40.3679 218.549 40.8466 218.732 41.2188 219.099C41.5909 219.462 41.777 220.029 41.777 220.799V225.18H40.7713V220.799C40.7713 220.316 40.6392 219.971 40.375 219.763C40.1108 219.556 39.7997 219.452 39.4418 219.452C38.9815 219.452 38.625 219.592 38.3722 219.87C38.1193 220.146 37.9929 220.495 37.9929 220.918V225.18H36.9702V220.697C36.9702 220.325 36.8494 220.025 36.608 219.798C36.3665 219.567 36.0554 219.452 35.6747 219.452C35.4134 219.452 35.169 219.522 34.9418 219.661C34.7173 219.8 34.5355 219.994 34.3963 220.241C34.2599 220.485 34.1918 220.768 34.1918 221.089V225.18H33.1861ZM43.6158 225.18V218.634H44.6214V225.18H43.6158ZM44.1271 217.543C43.9311 217.543 43.7621 217.477 43.62 217.343C43.4808 217.21 43.4112 217.049 43.4112 216.862C43.4112 216.674 43.4808 216.513 43.62 216.38C43.7621 216.246 43.9311 216.18 44.1271 216.18C44.3232 216.18 44.4908 216.246 44.63 216.38C44.772 216.513 44.843 216.674 44.843 216.862C44.843 217.049 44.772 217.21 44.63 217.343C44.4908 217.477 44.3232 217.543 44.1271 217.543ZM47.4691 221.242V225.18H46.4634V218.634H47.435V219.657H47.5202C47.6737 219.325 47.9066 219.058 48.2191 218.856C48.5316 218.651 48.935 218.549 49.4293 218.549C49.8725 218.549 50.2603 218.64 50.5927 218.822C50.9251 219.001 51.1836 219.273 51.3683 219.64C51.5529 220.004 51.6452 220.464 51.6452 221.021V225.18H50.6396V221.089C50.6396 220.575 50.506 220.174 50.239 219.887C49.9719 219.597 49.6055 219.452 49.1396 219.452C48.8185 219.452 48.5316 219.522 48.2788 219.661C48.0288 219.8 47.8313 220.004 47.6864 220.271C47.5415 220.538 47.4691 220.862 47.4691 221.242Z" fill="black" fill-opacity="0.7"/>
<path d="M49.25 267.843C48.608 267.843 48.0611 267.669 47.6094 267.319C47.1577 266.967 46.8125 266.457 46.5739 265.789C46.3352 265.119 46.2159 264.309 46.2159 263.36C46.2159 262.417 46.3352 261.612 46.5739 260.944C46.8153 260.274 47.1619 259.762 47.6136 259.41C48.0682 259.055 48.6136 258.878 49.25 258.878C49.8864 258.878 50.4304 259.055 50.8821 259.41C51.3366 259.762 51.6832 260.274 51.9219 260.944C52.1634 261.612 52.2841 262.417 52.2841 263.36C52.2841 264.309 52.1648 265.119 51.9261 265.789C51.6875 266.457 51.3423 266.967 50.8906 267.319C50.4389 267.669 49.892 267.843 49.25 267.843ZM49.25 266.906C49.8864 266.906 50.3807 266.599 50.733 265.985C51.0852 265.372 51.2614 264.497 51.2614 263.36C51.2614 262.605 51.1804 261.961 51.0185 261.43C50.8594 260.899 50.6293 260.494 50.3281 260.216C50.0298 259.937 49.6705 259.798 49.25 259.798C48.6193 259.798 48.1264 260.109 47.7713 260.731C47.4162 261.351 47.2386 262.227 47.2386 263.36C47.2386 264.116 47.3182 264.758 47.4773 265.287C47.6364 265.815 47.8651 266.217 48.1634 266.493C48.4645 266.768 48.8267 266.906 49.25 266.906Z" fill="black" fill-opacity="0.7"/>
<line x1="58.5" y1="48.5" x2="360.5" y2="48.5" stroke="#00001A" stroke-opacity="0.15" stroke-dasharray="2"/>
<line x1="58.5" y1="91.7002" x2="360.5" y2="91.7002" stroke="#00001A" stroke-opacity="0.15" stroke-dasharray="2"/>
<line x1="58.5" y1="134.9" x2="360.5" y2="134.9" stroke="#00001A" stroke-opacity="0.15" stroke-dasharray="2"/>
<line x1="58.5" y1="178.1" x2="360.5" y2="178.1" stroke="#00001A" stroke-opacity="0.15" stroke-dasharray="2"/>
<line x1="58.5" y1="221.3" x2="360.5" y2="221.3" stroke="#00001A" stroke-opacity="0.15" stroke-dasharray="2"/>
<line x1="58.5" y1="264.5" x2="360.5" y2="264.5" stroke="#00001A" stroke-opacity="0.3"/>
<line x1="58" y1="265" x2="58" y2="49" stroke="#00001A" stroke-opacity="0.15" stroke-dasharray="2"/>
<line x1="108.332" y1="265" x2="108.332" y2="49" stroke="#00001A" stroke-opacity="0.15" stroke-dasharray="2"/>
<line x1="158.668" y1="265" x2="158.668" y2="49" stroke="#00001A" stroke-opacity="0.15" stroke-dasharray="2"/>
<line x1="209" y1="265" x2="209" y2="49" stroke="#00001A" stroke-opacity="0.15" stroke-dasharray="2"/>
<line x1="259.332" y1="265" x2="259.332" y2="49" stroke="#00001A" stroke-opacity="0.15" stroke-dasharray="2"/>
<line x1="309.668" y1="265" x2="309.668" y2="49" stroke="#00001A" stroke-opacity="0.15" stroke-dasharray="2"/>
<line x1="360" y1="265" x2="360" y2="49" stroke="#00001A" stroke-opacity="0.15" stroke-dasharray="2"/>
<g opacity="0.2">
<rect opacity="0.6" x="68.5" y="49" width="25" height="215.362" fill="#5EACE8"/>
<rect x="68.5" y="49" width="25" height="3" fill="#5EACE8"/>
</g>
<rect opacity="0.6" x="68.5" y="199.307" width="25" height="64.4173" fill="#5EACE8"/>
<rect x="68.5" y="199.307" width="25" height="3" fill="#5EACE8"/>
<path d="M77.2415 197.407C76.7727 197.407 76.3549 197.326 75.9879 197.165C75.6233 197.004 75.3333 196.78 75.1179 196.494C74.9048 196.205 74.7888 195.87 74.7699 195.489H75.6648C75.6837 195.723 75.7642 195.926 75.9062 196.096C76.0483 196.264 76.2341 196.394 76.4638 196.487C76.6934 196.579 76.9479 196.625 77.2273 196.625C77.5398 196.625 77.8168 196.571 78.0582 196.462C78.2997 196.353 78.4891 196.202 78.6264 196.007C78.7637 195.813 78.8324 195.588 78.8324 195.333C78.8324 195.065 78.7661 194.83 78.6335 194.626C78.5009 194.42 78.3068 194.259 78.0511 194.143C77.7955 194.027 77.483 193.969 77.1136 193.969H76.5312V193.188H77.1136C77.4025 193.188 77.6558 193.136 77.8736 193.032C78.0938 192.927 78.2654 192.781 78.3885 192.591C78.514 192.402 78.5767 192.179 78.5767 191.924C78.5767 191.677 78.5223 191.463 78.4134 191.281C78.3045 191.099 78.1506 190.957 77.9517 190.855C77.7552 190.753 77.5232 190.702 77.2557 190.702C77.0047 190.702 76.768 190.748 76.5455 190.841C76.3253 190.93 76.1454 191.062 76.0057 191.235C75.866 191.405 75.7902 191.611 75.7784 191.853H74.9261C74.9403 191.471 75.0552 191.138 75.2706 190.851C75.486 190.562 75.7678 190.337 76.1158 190.176C76.4661 190.015 76.8509 189.935 77.2699 189.935C77.7197 189.935 78.1056 190.026 78.4276 190.208C78.7495 190.388 78.9969 190.626 79.1697 190.922C79.3426 191.218 79.429 191.538 79.429 191.881C79.429 192.291 79.3213 192.64 79.1058 192.929C78.8928 193.217 78.6027 193.417 78.2358 193.529V193.586C78.6951 193.661 79.0537 193.857 79.3118 194.171C79.5698 194.484 79.6989 194.871 79.6989 195.333C79.6989 195.728 79.5911 196.083 79.3757 196.398C79.1626 196.711 78.8714 196.957 78.5021 197.137C78.1328 197.317 77.7126 197.407 77.2415 197.407ZM83.5234 197.407C82.9884 197.407 82.5327 197.261 82.1562 196.97C81.7798 196.676 81.4922 196.251 81.2933 195.695C81.0945 195.136 80.995 194.461 80.995 193.671C80.995 192.885 81.0945 192.214 81.2933 191.657C81.4946 191.099 81.7834 190.672 82.1598 190.379C82.5386 190.083 82.9931 189.935 83.5234 189.935C84.0537 189.935 84.5071 190.083 84.8835 190.379C85.2623 190.672 85.5511 191.099 85.75 191.657C85.9512 192.214 86.0518 192.885 86.0518 193.671C86.0518 194.461 85.9524 195.136 85.7536 195.695C85.5547 196.251 85.267 196.676 84.8906 196.97C84.5142 197.261 84.0585 197.407 83.5234 197.407ZM83.5234 196.625C84.0537 196.625 84.4657 196.37 84.7592 195.858C85.0528 195.347 85.1996 194.618 85.1996 193.671C85.1996 193.041 85.1321 192.505 84.9972 192.062C84.8646 191.619 84.6728 191.282 84.4219 191.05C84.1733 190.818 83.8738 190.702 83.5234 190.702C82.9979 190.702 82.5871 190.961 82.2912 191.48C81.9953 191.996 81.8473 192.726 81.8473 193.671C81.8473 194.3 81.9136 194.836 82.0462 195.276C82.1787 195.716 82.3693 196.051 82.6179 196.281C82.8688 196.51 83.1707 196.625 83.5234 196.625Z" fill="black" fill-opacity="0.7"/>
<g opacity="0.2">
<rect opacity="0.6" x="95.6094" y="49" width="25" height="215.362" fill="#FF928A"/>
<rect x="95.6094" y="49" width="25" height="3" fill="#FF928A"/>
</g>
<rect opacity="0.6" x="95.6094" y="201.454" width="25" height="62.2701" fill="#FF928A"/>
<rect x="95.6094" y="201.454" width="25" height="3" fill="#FF928A"/>
<path d="M101.893 199.454V198.815L104.294 196.187C104.576 195.879 104.808 195.612 104.99 195.384C105.172 195.155 105.307 194.939 105.395 194.738C105.485 194.535 105.53 194.322 105.53 194.099C105.53 193.843 105.468 193.622 105.345 193.435C105.224 193.248 105.059 193.103 104.848 193.002C104.637 192.9 104.401 192.849 104.138 192.849C103.858 192.849 103.615 192.907 103.406 193.023C103.2 193.137 103.04 193.296 102.927 193.502C102.816 193.708 102.76 193.95 102.76 194.227H101.922C101.922 193.801 102.02 193.427 102.217 193.105C102.413 192.783 102.681 192.532 103.019 192.352C103.36 192.172 103.742 192.082 104.166 192.082C104.592 192.082 104.97 192.172 105.299 192.352C105.628 192.532 105.886 192.774 106.073 193.08C106.26 193.385 106.354 193.725 106.354 194.099C106.354 194.367 106.305 194.628 106.208 194.884C106.113 195.137 105.948 195.42 105.711 195.733C105.477 196.043 105.151 196.421 104.734 196.869L103.101 198.616V198.673H106.482V199.454H101.893ZM110.263 192.082C110.562 192.084 110.86 192.141 111.158 192.252C111.457 192.364 111.729 192.548 111.975 192.806C112.221 193.062 112.419 193.411 112.568 193.854C112.717 194.297 112.792 194.852 112.792 195.519C112.792 196.166 112.73 196.74 112.607 197.242C112.487 197.741 112.311 198.163 112.082 198.506C111.854 198.849 111.577 199.11 111.251 199.287C110.926 199.465 110.559 199.554 110.15 199.554C109.743 199.554 109.379 199.473 109.06 199.312C108.742 199.149 108.482 198.923 108.278 198.634C108.077 198.343 107.948 198.005 107.891 197.622H108.758C108.836 197.956 108.991 198.231 109.223 198.449C109.457 198.665 109.766 198.772 110.15 198.772C110.711 198.772 111.154 198.527 111.478 198.037C111.805 197.547 111.968 196.855 111.968 195.96H111.911C111.779 196.159 111.621 196.33 111.439 196.475C111.257 196.619 111.054 196.73 110.832 196.809C110.609 196.887 110.372 196.926 110.121 196.926C109.705 196.926 109.322 196.823 108.974 196.617C108.629 196.408 108.352 196.123 108.143 195.761C107.938 195.396 107.835 194.98 107.835 194.511C107.835 194.066 107.934 193.659 108.133 193.289C108.334 192.918 108.616 192.622 108.978 192.402C109.343 192.181 109.771 192.075 110.263 192.082ZM110.263 192.863C109.965 192.863 109.696 192.938 109.457 193.087C109.221 193.234 109.032 193.433 108.893 193.684C108.755 193.932 108.687 194.208 108.687 194.511C108.687 194.814 108.753 195.09 108.886 195.338C109.021 195.585 109.204 195.781 109.436 195.928C109.67 196.072 109.937 196.144 110.235 196.144C110.46 196.144 110.67 196.101 110.864 196.013C111.058 195.923 111.227 195.801 111.371 195.647C111.518 195.491 111.633 195.315 111.716 195.118C111.799 194.919 111.84 194.712 111.84 194.497C111.84 194.213 111.772 193.946 111.634 193.698C111.499 193.449 111.312 193.248 111.073 193.094C110.836 192.94 110.567 192.863 110.263 192.863Z" fill="black" fill-opacity="0.7"/>
<g opacity="0.2">
<rect opacity="0.6" x="122.723" y="49" width="25" height="215.362" fill="#3CC3DF"/>
<rect x="122.723" y="49" width="25" height="3" fill="#3CC3DF"/>
</g>
<rect opacity="0.6" x="122.723" y="169.246" width="25" height="94.4787" fill="#3CC3DF"/>
<rect x="122.723" y="169.246" width="25" height="3" fill="#3CC3DF"/>
<path d="M128.836 165.754V165.03L132.032 159.973H132.558V161.095H132.203L129.788 164.916V164.973H134.092V165.754H128.836ZM132.26 167.246V165.534V165.197V159.973H133.098V167.246H132.26ZM135.252 165.754V165.03L138.448 159.973H138.974V161.095H138.619L136.204 164.916V164.973H140.508V165.754H135.252ZM138.676 167.246V165.534V165.197V159.973H139.514V167.246H138.676Z" fill="black" fill-opacity="0.7"/>
<g opacity="0.2">
<rect opacity="0.6" x="169.832" y="49" width="25" height="215.362" fill="#5EACE8"/>
<rect x="169.832" y="49" width="25" height="3" fill="#5EACE8"/>
</g>
<rect opacity="0.6" x="169.832" y="94.0923" width="25" height="169.632" fill="#5EACE8"/>
<rect x="169.832" y="94.0923" width="25" height="3" fill="#5EACE8"/>
<path d="M177.73 92.0923L180.983 85.6576V85.6008H177.233V84.8196H181.892V85.6434L178.653 92.0923H177.73ZM185.433 84.7201C185.732 84.7225 186.03 84.7793 186.328 84.8906C186.627 85.0018 186.899 85.1865 187.145 85.4446C187.391 85.7002 187.589 86.0494 187.738 86.4921C187.887 86.9349 187.962 87.49 187.962 88.1576C187.962 88.8039 187.9 89.378 187.777 89.8799C187.656 90.3795 187.481 90.8009 187.252 91.1441C187.024 91.4874 186.747 91.7478 186.421 91.9254C186.096 92.1029 185.729 92.1917 185.32 92.1917C184.913 92.1917 184.549 92.1112 184.23 91.9502C183.912 91.7869 183.652 91.5608 183.448 91.272C183.247 90.9808 183.118 90.6434 183.061 90.2599H183.928C184.006 90.5937 184.161 90.8695 184.393 91.0873C184.627 91.3027 184.936 91.4105 185.32 91.4105C185.881 91.4105 186.324 91.1654 186.648 90.6754C186.975 90.1853 187.138 89.4929 187.138 88.598H187.081C186.949 88.7968 186.791 88.9685 186.609 89.1129C186.427 89.2573 186.224 89.3686 186.002 89.4467C185.779 89.5248 185.542 89.5639 185.291 89.5639C184.875 89.5639 184.492 89.4609 184.144 89.2549C183.799 89.0466 183.522 88.7613 183.313 88.3991C183.107 88.0345 183.004 87.6179 183.004 87.1491C183.004 86.704 183.104 86.2968 183.303 85.9275C183.504 85.5558 183.786 85.2599 184.148 85.0397C184.512 84.8196 184.941 84.713 185.433 84.7201ZM185.433 85.5014C185.135 85.5014 184.866 85.5759 184.627 85.7251C184.391 85.8719 184.202 86.0707 184.063 86.3217C183.925 86.5703 183.857 86.8461 183.857 87.1491C183.857 87.4521 183.923 87.7279 184.056 87.9765C184.191 88.2227 184.374 88.4192 184.606 88.566C184.84 88.7104 185.107 88.7826 185.405 88.7826C185.63 88.7826 185.839 88.7388 186.034 88.6512C186.228 88.5613 186.397 88.4393 186.541 88.2855C186.688 88.1292 186.803 87.9528 186.886 87.7563C186.969 87.5575 187.01 87.3503 187.01 87.1349C187.01 86.8508 186.941 86.5845 186.804 86.3359C186.669 86.0873 186.482 85.8861 186.243 85.7322C186.006 85.5783 185.736 85.5014 185.433 85.5014Z" fill="black" fill-opacity="0.7"/>
<g opacity="0.2">
<rect opacity="0.6" x="196.941" y="49" width="25" height="215.362" fill="#FF928A"/>
<rect x="196.941" y="49" width="25" height="3" fill="#FF928A"/>
</g>
<rect opacity="0.6" x="196.941" y="152.068" width="25" height="111.657" fill="#FF928A"/>
<rect x="196.941" y="152.068" width="25" height="3" fill="#FF928A"/>
<path d="M205.498 150.167C205.082 150.167 204.706 150.084 204.373 149.919C204.039 149.753 203.771 149.526 203.57 149.237C203.369 148.948 203.259 148.619 203.24 148.25H204.092C204.125 148.579 204.274 148.851 204.539 149.066C204.807 149.28 205.127 149.386 205.498 149.386C205.797 149.386 206.062 149.316 206.294 149.177C206.528 149.037 206.712 148.845 206.844 148.601C206.979 148.355 207.047 148.077 207.047 147.767C207.047 147.449 206.977 147.167 206.837 146.918C206.7 146.667 206.51 146.469 206.269 146.325C206.027 146.181 205.752 146.107 205.441 146.105C205.219 146.102 204.99 146.137 204.756 146.208C204.522 146.276 204.329 146.365 204.177 146.474L203.353 146.375L203.794 142.795H207.572V143.576H204.532L204.277 145.721H204.319C204.468 145.603 204.655 145.505 204.88 145.427C205.105 145.348 205.34 145.309 205.583 145.309C206.029 145.309 206.425 145.416 206.773 145.629C207.123 145.84 207.398 146.128 207.597 146.495C207.798 146.862 207.899 147.281 207.899 147.753C207.899 148.217 207.795 148.631 207.586 148.995C207.38 149.358 207.096 149.644 206.734 149.855C206.372 150.063 205.96 150.167 205.498 150.167ZM209.309 150.068V149.429L211.71 146.801C211.992 146.493 212.224 146.226 212.406 145.998C212.588 145.769 212.723 145.553 212.811 145.352C212.901 145.148 212.946 144.935 212.946 144.713C212.946 144.457 212.884 144.236 212.761 144.049C212.64 143.862 212.475 143.717 212.264 143.615C212.053 143.514 211.817 143.463 211.554 143.463C211.274 143.463 211.031 143.521 210.822 143.637C210.616 143.75 210.456 143.91 210.343 144.116C210.232 144.322 210.176 144.564 210.176 144.841H209.338C209.338 144.414 209.436 144.04 209.633 143.718C209.829 143.396 210.097 143.146 210.435 142.966C210.776 142.786 211.158 142.696 211.582 142.696C212.008 142.696 212.386 142.786 212.715 142.966C213.044 143.146 213.302 143.388 213.489 143.694C213.676 143.999 213.77 144.339 213.77 144.713C213.77 144.98 213.721 145.242 213.624 145.498C213.529 145.751 213.364 146.034 213.127 146.346C212.893 146.656 212.567 147.035 212.15 147.483L210.517 149.23V149.287H213.898V150.068H209.309Z" fill="black" fill-opacity="0.7"/>
<g opacity="0.2">
<rect opacity="0.6" x="224.055" y="49" width="25" height="215.362" fill="#3CC3DF"/>
<rect x="224.055" y="49" width="25" height="3" fill="#3CC3DF"/>
</g>
<rect opacity="0.6" x="224.055" y="154.215" width="25" height="109.509" fill="#3CC3DF"/>
<rect x="224.055" y="154.215" width="25" height="3" fill="#3CC3DF"/>
<path d="M233.385 152.314C232.968 152.314 232.593 152.231 232.259 152.066C231.925 151.9 231.658 151.673 231.457 151.384C231.255 151.095 231.145 150.766 231.126 150.397H231.979C232.012 150.726 232.161 150.998 232.426 151.213C232.694 151.426 233.013 151.533 233.385 151.533C233.683 151.533 233.948 151.463 234.18 151.324C234.415 151.184 234.598 150.992 234.731 150.748C234.866 150.502 234.933 150.224 234.933 149.914C234.933 149.596 234.863 149.314 234.724 149.065C234.586 148.814 234.397 148.616 234.156 148.472C233.914 148.328 233.638 148.254 233.328 148.252C233.106 148.249 232.877 148.284 232.643 148.355C232.408 148.423 232.215 148.512 232.064 148.621L231.24 148.522L231.68 144.942H235.459V145.723H232.419L232.163 147.868H232.206C232.355 147.75 232.542 147.652 232.767 147.574C232.992 147.495 233.226 147.456 233.47 147.456C233.915 147.456 234.312 147.563 234.66 147.776C235.01 147.987 235.285 148.275 235.484 148.642C235.685 149.009 235.786 149.428 235.786 149.9C235.786 150.364 235.681 150.778 235.473 151.142C235.267 151.505 234.983 151.791 234.621 152.002C234.259 152.21 233.847 152.314 233.385 152.314ZM239.753 144.942V152.215H238.872V145.865H238.83L237.054 147.044V146.15L238.872 144.942H239.753Z" fill="black" fill-opacity="0.7"/>
<g opacity="0.2">
<rect opacity="0.6" x="271.168" y="49" width="25" height="215.362" fill="#5EACE8"/>
<rect x="271.168" y="49" width="25" height="3" fill="#5EACE8"/>
</g>
<rect opacity="0.6" x="271.168" y="158.509" width="25" height="105.215" fill="#5EACE8"/>
<rect x="271.168" y="158.509" width="25" height="3" fill="#5EACE8"/>
<path d="M277.282 155.018V154.293L280.478 149.237H281.003V150.359H280.648L278.233 154.18V154.237H282.537V155.018H277.282ZM280.705 156.509V154.798V154.46V149.237H281.543V156.509H280.705ZM286.183 149.137C286.482 149.139 286.78 149.196 287.078 149.308C287.377 149.419 287.649 149.604 287.895 149.862C288.141 150.117 288.339 150.466 288.488 150.909C288.637 151.352 288.712 151.907 288.712 152.575C288.712 153.221 288.65 153.795 288.527 154.297C288.406 154.796 288.231 155.218 288.002 155.561C287.774 155.904 287.497 156.165 287.171 156.342C286.846 156.52 286.479 156.609 286.07 156.609C285.663 156.609 285.299 156.528 284.98 156.367C284.662 156.204 284.402 155.978 284.198 155.689C283.997 155.398 283.868 155.06 283.811 154.677H284.678C284.756 155.011 284.911 155.287 285.143 155.504C285.377 155.72 285.686 155.827 286.07 155.827C286.631 155.827 287.074 155.582 287.398 155.092C287.725 154.602 287.888 153.91 287.888 153.015H287.831C287.699 153.214 287.541 153.385 287.359 153.53C287.177 153.674 286.974 153.786 286.752 153.864C286.529 153.942 286.292 153.981 286.041 153.981C285.625 153.981 285.242 153.878 284.894 153.672C284.549 153.464 284.272 153.178 284.063 152.816C283.857 152.452 283.754 152.035 283.754 151.566C283.754 151.121 283.854 150.714 284.053 150.345C284.254 149.973 284.536 149.677 284.898 149.457C285.262 149.237 285.691 149.13 286.183 149.137ZM286.183 149.918C285.885 149.918 285.616 149.993 285.377 150.142C285.141 150.289 284.952 150.488 284.813 150.739C284.675 150.987 284.607 151.263 284.607 151.566C284.607 151.869 284.673 152.145 284.806 152.394C284.941 152.64 285.124 152.836 285.356 152.983C285.59 153.127 285.857 153.2 286.155 153.2C286.38 153.2 286.589 153.156 286.784 153.068C286.978 152.978 287.147 152.856 287.291 152.702C287.438 152.546 287.553 152.37 287.636 152.173C287.719 151.974 287.76 151.767 287.76 151.552C287.76 151.268 287.691 151.001 287.554 150.753C287.419 150.504 287.232 150.303 286.993 150.149C286.756 149.995 286.486 149.918 286.183 149.918Z" fill="black" fill-opacity="0.7"/>
<g opacity="0.2">
<rect opacity="0.6" x="298.277" y="49" width="25" height="215.362" fill="#FF928A"/>
<rect x="298.277" y="49" width="25" height="3" fill="#FF928A"/>
</g>
<rect opacity="0.6" x="298.277" y="195.013" width="25" height="68.7118" fill="#FF928A"/>
<rect x="298.277" y="195.013" width="25" height="3" fill="#FF928A"/>
<path d="M307.019 193.112C306.55 193.112 306.132 193.032 305.765 192.871C305.401 192.71 305.111 192.486 304.895 192.199C304.682 191.911 304.566 191.576 304.547 191.195H305.442C305.461 191.429 305.542 191.631 305.684 191.802C305.826 191.97 306.011 192.1 306.241 192.192C306.471 192.285 306.725 192.331 307.005 192.331C307.317 192.331 307.594 192.276 307.836 192.168C308.077 192.059 308.266 191.907 308.404 191.713C308.541 191.519 308.61 191.294 308.61 191.038C308.61 190.771 308.543 190.535 308.411 190.332C308.278 190.126 308.084 189.965 307.828 189.849C307.573 189.733 307.26 189.675 306.891 189.675H306.309V188.893H306.891C307.18 188.893 307.433 188.841 307.651 188.737C307.871 188.633 308.043 188.486 308.166 188.297C308.291 188.107 308.354 187.885 308.354 187.629C308.354 187.383 308.3 187.169 308.191 186.986C308.082 186.804 307.928 186.662 307.729 186.56C307.533 186.458 307.301 186.408 307.033 186.408C306.782 186.408 306.545 186.454 306.323 186.546C306.103 186.636 305.923 186.767 305.783 186.94C305.643 187.111 305.568 187.317 305.556 187.558H304.703C304.718 187.177 304.833 186.843 305.048 186.557C305.263 186.268 305.545 186.043 305.893 185.882C306.243 185.721 306.628 185.641 307.047 185.641C307.497 185.641 307.883 185.732 308.205 185.914C308.527 186.094 308.774 186.332 308.947 186.628C309.12 186.924 309.206 187.243 309.206 187.587C309.206 187.996 309.099 188.345 308.883 188.634C308.67 188.923 308.38 189.123 308.013 189.234V189.291C308.472 189.367 308.831 189.562 309.089 189.877C309.347 190.19 309.476 190.577 309.476 191.038C309.476 191.434 309.368 191.789 309.153 192.104C308.94 192.416 308.649 192.662 308.279 192.842C307.91 193.022 307.49 193.112 307.019 193.112ZM310.929 193.013V192.373L313.329 189.746C313.611 189.438 313.843 189.17 314.025 188.943C314.208 188.713 314.342 188.498 314.43 188.297C314.52 188.093 314.565 187.88 314.565 187.658C314.565 187.402 314.503 187.181 314.38 186.994C314.26 186.806 314.094 186.662 313.883 186.56C313.672 186.458 313.436 186.408 313.173 186.408C312.894 186.408 312.65 186.466 312.441 186.582C312.235 186.695 312.076 186.855 311.962 187.061C311.851 187.267 311.795 187.508 311.795 187.785H310.957C310.957 187.359 311.055 186.985 311.252 186.663C311.448 186.341 311.716 186.09 312.054 185.91C312.395 185.73 312.778 185.641 313.201 185.641C313.627 185.641 314.005 185.73 314.334 185.91C314.663 186.09 314.921 186.333 315.108 186.638C315.295 186.944 315.389 187.284 315.389 187.658C315.389 187.925 315.34 188.187 315.243 188.442C315.149 188.696 314.983 188.979 314.746 189.291C314.512 189.601 314.186 189.98 313.77 190.427L312.136 192.175V192.231H315.517V193.013H310.929Z" fill="black" fill-opacity="0.7"/>
<g opacity="0.2">
<rect opacity="0.6" x="325.391" y="49" width="25" height="215.362" fill="#3CC3DF"/>
<rect x="325.391" y="49" width="25" height="3" fill="#3CC3DF"/>
</g>
<rect opacity="0.6" x="325.391" y="169.246" width="25" height="94.4787" fill="#3CC3DF"/>
<rect x="325.391" y="169.246" width="25" height="3" fill="#3CC3DF"/>
<path d="M331.504 165.754V165.03L334.7 159.973H335.226V161.095H334.871L332.456 164.916V164.973H336.76V165.754H331.504ZM334.928 167.246V165.534V165.197V159.973H335.766V167.246H334.928ZM337.92 165.754V165.03L341.116 159.973H341.642V161.095H341.287L338.872 164.916V164.973H343.176V165.754H337.92ZM341.344 167.246V165.534V165.197V159.973H342.182V167.246H341.344Z" fill="black" fill-opacity="0.7"/>
<circle cx="390.5" cy="140" r="3.5" fill="#7ABEEE" stroke="#1A1F26"/>
<path d="M403.557 135.773H404.818L407.784 143.017H407.886L410.852 135.773H412.114V144.5H411.125V137.869H411.04L408.312 144.5H407.358L404.631 137.869H404.545V144.5H403.557V135.773ZM416.755 144.636C416.164 144.636 415.646 144.496 415.2 144.214C414.757 143.933 414.41 143.54 414.16 143.034C413.913 142.528 413.789 141.937 413.789 141.261C413.789 140.58 413.913 139.984 414.16 139.476C414.41 138.967 414.757 138.572 415.2 138.291C415.646 138.01 416.164 137.869 416.755 137.869C417.346 137.869 417.863 138.01 418.306 138.291C418.752 138.572 419.099 138.967 419.346 139.476C419.596 139.984 419.721 140.58 419.721 141.261C419.721 141.937 419.596 142.528 419.346 143.034C419.099 143.54 418.752 143.933 418.306 144.214C417.863 144.496 417.346 144.636 416.755 144.636ZM416.755 143.733C417.204 143.733 417.574 143.618 417.863 143.388C418.153 143.158 418.368 142.855 418.507 142.48C418.646 142.105 418.716 141.699 418.716 141.261C418.716 140.824 418.646 140.416 418.507 140.038C418.368 139.661 418.153 139.355 417.863 139.122C417.574 138.889 417.204 138.773 416.755 138.773C416.306 138.773 415.937 138.889 415.647 139.122C415.358 139.355 415.143 139.661 415.004 140.038C414.865 140.416 414.795 140.824 414.795 141.261C414.795 141.699 414.865 142.105 415.004 142.48C415.143 142.855 415.358 143.158 415.647 143.388C415.937 143.618 416.306 143.733 416.755 143.733ZM421.393 144.5V135.773H422.398V138.994H422.484C422.558 138.881 422.66 138.736 422.79 138.56C422.924 138.381 423.114 138.222 423.362 138.082C423.612 137.94 423.95 137.869 424.376 137.869C424.927 137.869 425.413 138.007 425.833 138.283C426.254 138.558 426.582 138.949 426.817 139.455C427.053 139.96 427.171 140.557 427.171 141.244C427.171 141.938 427.053 142.538 426.817 143.047C426.582 143.553 426.255 143.945 425.837 144.223C425.42 144.499 424.938 144.636 424.393 144.636C423.972 144.636 423.636 144.567 423.383 144.428C423.13 144.286 422.935 144.125 422.799 143.946C422.663 143.764 422.558 143.614 422.484 143.494H422.364V144.5H421.393ZM422.381 141.227C422.381 141.722 422.454 142.158 422.599 142.536C422.744 142.911 422.955 143.205 423.234 143.418C423.512 143.628 423.853 143.733 424.256 143.733C424.677 143.733 425.028 143.622 425.309 143.401C425.593 143.176 425.806 142.875 425.948 142.497C426.093 142.116 426.165 141.693 426.165 141.227C426.165 140.767 426.094 140.352 425.952 139.983C425.813 139.611 425.602 139.317 425.317 139.101C425.036 138.882 424.683 138.773 424.256 138.773C423.847 138.773 423.504 138.876 423.225 139.084C422.947 139.288 422.737 139.575 422.594 139.945C422.452 140.311 422.381 140.739 422.381 141.227ZM428.71 144.5V137.955H429.715V144.5H428.71ZM429.221 136.864C429.025 136.864 428.856 136.797 428.714 136.663C428.575 136.53 428.505 136.369 428.505 136.182C428.505 135.994 428.575 135.834 428.714 135.7C428.856 135.567 429.025 135.5 429.221 135.5C429.417 135.5 429.585 135.567 429.724 135.7C429.866 135.834 429.937 135.994 429.937 136.182C429.937 136.369 429.866 136.53 429.724 136.663C429.585 136.797 429.417 136.864 429.221 136.864ZM432.563 135.773V144.5H431.557V135.773H432.563ZM437.149 144.636C436.518 144.636 435.974 144.497 435.517 144.219C435.062 143.938 434.712 143.545 434.464 143.043C434.22 142.537 434.098 141.949 434.098 141.278C434.098 140.608 434.22 140.017 434.464 139.506C434.712 138.991 435.055 138.591 435.496 138.304C435.939 138.014 436.456 137.869 437.047 137.869C437.388 137.869 437.724 137.926 438.057 138.04C438.389 138.153 438.692 138.338 438.964 138.594C439.237 138.847 439.455 139.182 439.616 139.599C439.778 140.017 439.859 140.531 439.859 141.142V141.568H434.814V140.699H438.837C438.837 140.33 438.763 140 438.615 139.71C438.47 139.42 438.263 139.192 437.993 139.024C437.726 138.857 437.411 138.773 437.047 138.773C436.646 138.773 436.3 138.872 436.007 139.071C435.717 139.267 435.494 139.523 435.338 139.838C435.182 140.153 435.104 140.491 435.104 140.852V141.432C435.104 141.926 435.189 142.345 435.359 142.689C435.533 143.03 435.773 143.29 436.08 143.469C436.386 143.645 436.743 143.733 437.149 143.733C437.413 143.733 437.652 143.696 437.865 143.622C438.081 143.545 438.267 143.432 438.423 143.281C438.58 143.128 438.7 142.937 438.786 142.71L439.757 142.983C439.655 143.312 439.483 143.602 439.241 143.852C439 144.099 438.702 144.293 438.347 144.432C437.991 144.568 437.592 144.636 437.149 144.636Z" fill="#3C4043"/>
<circle cx="390.5" cy="173" r="3.5" fill="#FF9F98" stroke="#1A1F26"/>
<path d="M403.42 177.5V170.955H404.426V177.5H403.42ZM403.932 169.864C403.736 169.864 403.567 169.797 403.425 169.663C403.286 169.53 403.216 169.369 403.216 169.182C403.216 168.994 403.286 168.834 403.425 168.7C403.567 168.567 403.736 168.5 403.932 168.5C404.128 168.5 404.295 168.567 404.435 168.7C404.577 168.834 404.648 168.994 404.648 169.182C404.648 169.369 404.577 169.53 404.435 169.663C404.295 169.797 404.128 169.864 403.932 169.864ZM406.268 179.955V170.955H407.24V171.994H407.359C407.433 171.881 407.535 171.736 407.666 171.56C407.799 171.381 407.99 171.222 408.237 171.082C408.487 170.94 408.825 170.869 409.251 170.869C409.802 170.869 410.288 171.007 410.708 171.283C411.129 171.558 411.457 171.949 411.693 172.455C411.929 172.96 412.047 173.557 412.047 174.244C412.047 174.938 411.929 175.538 411.693 176.047C411.457 176.553 411.13 176.945 410.713 177.223C410.295 177.499 409.814 177.636 409.268 177.636C408.848 177.636 408.511 177.567 408.258 177.428C408.005 177.286 407.811 177.125 407.674 176.946C407.538 176.764 407.433 176.614 407.359 176.494H407.274V179.955H406.268ZM407.257 174.227C407.257 174.722 407.329 175.158 407.474 175.536C407.619 175.911 407.831 176.205 408.109 176.418C408.387 176.628 408.728 176.733 409.132 176.733C409.552 176.733 409.903 176.622 410.184 176.401C410.468 176.176 410.681 175.875 410.824 175.497C410.968 175.116 411.041 174.693 411.041 174.227C411.041 173.767 410.97 173.352 410.828 172.983C410.689 172.611 410.477 172.317 410.193 172.101C409.912 171.882 409.558 171.773 409.132 171.773C408.723 171.773 408.379 171.876 408.1 172.084C407.822 172.288 407.612 172.575 407.47 172.945C407.328 173.311 407.257 173.739 407.257 174.227ZM415.507 177.653C415.092 177.653 414.716 177.575 414.377 177.419C414.039 177.26 413.771 177.031 413.572 176.733C413.373 176.432 413.274 176.068 413.274 175.642C413.274 175.267 413.348 174.963 413.495 174.73C413.643 174.494 413.841 174.31 414.088 174.176C414.335 174.043 414.608 173.943 414.906 173.878C415.207 173.81 415.51 173.756 415.814 173.716C416.211 173.665 416.534 173.626 416.781 173.601C417.031 173.572 417.213 173.526 417.326 173.46C417.443 173.395 417.501 173.281 417.501 173.119V173.085C417.501 172.665 417.386 172.338 417.156 172.105C416.929 171.872 416.583 171.756 416.12 171.756C415.64 171.756 415.264 171.861 414.991 172.071C414.718 172.281 414.527 172.506 414.416 172.744L413.461 172.403C413.632 172.006 413.859 171.696 414.143 171.474C414.43 171.25 414.743 171.094 415.081 171.006C415.422 170.915 415.757 170.869 416.086 170.869C416.297 170.869 416.538 170.895 416.811 170.946C417.086 170.994 417.352 171.095 417.608 171.249C417.866 171.402 418.081 171.634 418.251 171.943C418.422 172.253 418.507 172.668 418.507 173.188V177.5H417.501V176.614H417.45C417.382 176.756 417.268 176.908 417.109 177.07C416.95 177.232 416.738 177.369 416.474 177.483C416.21 177.597 415.887 177.653 415.507 177.653ZM415.66 176.75C416.058 176.75 416.393 176.672 416.666 176.516C416.941 176.359 417.149 176.158 417.288 175.911C417.43 175.663 417.501 175.403 417.501 175.131V174.21C417.458 174.261 417.365 174.308 417.22 174.351C417.078 174.391 416.913 174.426 416.725 174.457C416.541 174.486 416.36 174.511 416.184 174.534C416.011 174.554 415.87 174.571 415.762 174.585C415.501 174.619 415.257 174.675 415.029 174.751C414.805 174.825 414.623 174.937 414.484 175.088C414.348 175.236 414.279 175.437 414.279 175.693C414.279 176.043 414.409 176.307 414.667 176.486C414.929 176.662 415.26 176.75 415.66 176.75ZM422.814 177.636C422.268 177.636 421.787 177.499 421.369 177.223C420.952 176.945 420.625 176.553 420.389 176.047C420.153 175.538 420.036 174.938 420.036 174.244C420.036 173.557 420.153 172.96 420.389 172.455C420.625 171.949 420.953 171.558 421.374 171.283C421.794 171.007 422.28 170.869 422.831 170.869C423.257 170.869 423.594 170.94 423.841 171.082C424.091 171.222 424.281 171.381 424.412 171.56C424.545 171.736 424.649 171.881 424.723 171.994H424.808V168.773H425.814V177.5H424.842V176.494H424.723C424.649 176.614 424.544 176.764 424.408 176.946C424.271 177.125 424.077 177.286 423.824 177.428C423.571 177.567 423.234 177.636 422.814 177.636ZM422.95 176.733C423.354 176.733 423.695 176.628 423.973 176.418C424.251 176.205 424.463 175.911 424.608 175.536C424.753 175.158 424.825 174.722 424.825 174.227C424.825 173.739 424.754 173.311 424.612 172.945C424.47 172.575 424.26 172.288 423.982 172.084C423.703 171.876 423.359 171.773 422.95 171.773C422.524 171.773 422.169 171.882 421.885 172.101C421.604 172.317 421.392 172.611 421.25 172.983C421.111 173.352 421.041 173.767 421.041 174.227C421.041 174.693 421.112 175.116 421.254 175.497C421.399 175.875 421.612 176.176 421.893 176.401C422.178 176.622 422.53 176.733 422.95 176.733Z" fill="#3C4043"/>
<circle cx="390.5" cy="206" r="3.5" fill="#3CC3DF" stroke="#1A1F26"/>
<path d="M403.42 212.955V203.955H404.392V204.994H404.511C404.585 204.881 404.688 204.736 404.818 204.56C404.952 204.381 405.142 204.222 405.389 204.082C405.639 203.94 405.977 203.869 406.403 203.869C406.955 203.869 407.44 204.007 407.861 204.283C408.281 204.558 408.609 204.949 408.845 205.455C409.081 205.96 409.199 206.557 409.199 207.244C409.199 207.938 409.081 208.538 408.845 209.047C408.609 209.553 408.283 209.945 407.865 210.223C407.447 210.499 406.966 210.636 406.42 210.636C406 210.636 405.663 210.567 405.411 210.428C405.158 210.286 404.963 210.125 404.827 209.946C404.69 209.764 404.585 209.614 404.511 209.494H404.426V212.955H403.42ZM404.409 207.227C404.409 207.722 404.482 208.158 404.626 208.536C404.771 208.911 404.983 209.205 405.261 209.418C405.54 209.628 405.881 209.733 406.284 209.733C406.705 209.733 407.055 209.622 407.337 209.401C407.621 209.176 407.834 208.875 407.976 208.497C408.121 208.116 408.193 207.693 408.193 207.227C408.193 206.767 408.122 206.352 407.98 205.983C407.841 205.611 407.629 205.317 407.345 205.101C407.064 204.882 406.71 204.773 406.284 204.773C405.875 204.773 405.531 204.876 405.253 205.084C404.974 205.288 404.764 205.575 404.622 205.945C404.48 206.311 404.409 206.739 404.409 207.227ZM413.392 210.636C412.778 210.636 412.25 210.491 411.807 210.202C411.364 209.912 411.023 209.513 410.784 209.004C410.545 208.496 410.426 207.915 410.426 207.261C410.426 206.597 410.548 206.01 410.793 205.501C411.04 204.99 411.384 204.591 411.824 204.304C412.267 204.014 412.784 203.869 413.375 203.869C413.835 203.869 414.25 203.955 414.619 204.125C414.989 204.295 415.291 204.534 415.527 204.841C415.763 205.148 415.909 205.506 415.966 205.915H414.96C414.884 205.616 414.713 205.352 414.449 205.122C414.188 204.889 413.835 204.773 413.392 204.773C413 204.773 412.656 204.875 412.361 205.08C412.068 205.281 411.839 205.567 411.675 205.936C411.513 206.303 411.432 206.733 411.432 207.227C411.432 207.733 411.511 208.173 411.67 208.548C411.832 208.923 412.06 209.214 412.352 209.422C412.648 209.629 412.994 209.733 413.392 209.733C413.653 209.733 413.891 209.688 414.104 209.597C414.317 209.506 414.497 209.375 414.645 209.205C414.793 209.034 414.898 208.83 414.96 208.591H415.966C415.909 208.977 415.768 209.325 415.544 209.635C415.322 209.942 415.028 210.186 414.662 210.368C414.298 210.547 413.875 210.636 413.392 210.636ZM420.521 201.364L417.709 211.812H416.788L419.601 201.364H420.521ZM422.719 206.562V210.5H421.713V203.955H422.685V204.977H422.77C422.924 204.645 423.157 204.378 423.469 204.176C423.782 203.972 424.185 203.869 424.679 203.869C425.123 203.869 425.51 203.96 425.843 204.142C426.175 204.321 426.434 204.594 426.618 204.96C426.803 205.324 426.895 205.784 426.895 206.341V210.5H425.89V206.409C425.89 205.895 425.756 205.494 425.489 205.207C425.222 204.918 424.855 204.773 424.39 204.773C424.069 204.773 423.782 204.842 423.529 204.982C423.279 205.121 423.081 205.324 422.936 205.591C422.792 205.858 422.719 206.182 422.719 206.562ZM431.392 210.636C430.801 210.636 430.283 210.496 429.837 210.214C429.393 209.933 429.047 209.54 428.797 209.034C428.55 208.528 428.426 207.937 428.426 207.261C428.426 206.58 428.55 205.984 428.797 205.476C429.047 204.967 429.393 204.572 429.837 204.291C430.283 204.01 430.801 203.869 431.392 203.869C431.983 203.869 432.5 204.01 432.943 204.291C433.389 204.572 433.736 204.967 433.983 205.476C434.233 205.984 434.358 206.58 434.358 207.261C434.358 207.937 434.233 208.528 433.983 209.034C433.736 209.54 433.389 209.933 432.943 210.214C432.5 210.496 431.983 210.636 431.392 210.636ZM431.392 209.733C431.841 209.733 432.21 209.618 432.5 209.388C432.79 209.158 433.004 208.855 433.143 208.48C433.283 208.105 433.352 207.699 433.352 207.261C433.352 206.824 433.283 206.416 433.143 206.038C433.004 205.661 432.79 205.355 432.5 205.122C432.21 204.889 431.841 204.773 431.392 204.773C430.943 204.773 430.574 204.889 430.284 205.122C429.994 205.355 429.78 205.661 429.641 206.038C429.501 206.416 429.432 206.824 429.432 207.261C429.432 207.699 429.501 208.105 429.641 208.48C429.78 208.855 429.994 209.158 430.284 209.388C430.574 209.618 430.943 209.733 431.392 209.733ZM438.74 203.955V204.807H435.348V203.955H438.74ZM436.336 202.386H437.342V208.625C437.342 208.909 437.383 209.122 437.466 209.264C437.551 209.403 437.659 209.497 437.789 209.545C437.923 209.591 438.064 209.614 438.211 209.614C438.322 209.614 438.413 209.608 438.484 209.597C438.555 209.582 438.612 209.571 438.654 209.562L438.859 210.466C438.791 210.491 438.696 210.517 438.574 210.543C438.451 210.571 438.297 210.585 438.109 210.585C437.825 210.585 437.547 210.524 437.274 210.402C437.004 210.28 436.779 210.094 436.6 209.844C436.424 209.594 436.336 209.278 436.336 208.898V202.386ZM442.926 210.636C442.296 210.636 441.752 210.497 441.294 210.219C440.84 209.938 440.489 209.545 440.242 209.043C439.998 208.537 439.875 207.949 439.875 207.278C439.875 206.608 439.998 206.017 440.242 205.506C440.489 204.991 440.833 204.591 441.273 204.304C441.716 204.014 442.233 203.869 442.824 203.869C443.165 203.869 443.502 203.926 443.834 204.04C444.167 204.153 444.469 204.338 444.742 204.594C445.015 204.847 445.232 205.182 445.394 205.599C445.556 206.017 445.637 206.531 445.637 207.142V207.568H440.591V206.699H444.614C444.614 206.33 444.54 206 444.392 205.71C444.248 205.42 444.04 205.192 443.77 205.024C443.503 204.857 443.188 204.773 442.824 204.773C442.424 204.773 442.077 204.872 441.784 205.071C441.495 205.267 441.272 205.523 441.115 205.838C440.959 206.153 440.881 206.491 440.881 206.852V207.432C440.881 207.926 440.966 208.345 441.137 208.689C441.31 209.03 441.55 209.29 441.857 209.469C442.164 209.645 442.52 209.733 442.926 209.733C443.191 209.733 443.429 209.696 443.642 209.622C443.858 209.545 444.044 209.432 444.201 209.281C444.357 209.128 444.478 208.937 444.563 208.71L445.534 208.983C445.432 209.312 445.26 209.602 445.019 209.852C444.777 210.099 444.479 210.293 444.124 210.432C443.769 210.568 443.37 210.636 442.926 210.636ZM447.303 210.5V201.773H448.309V204.994H448.394C448.468 204.881 448.57 204.736 448.701 204.56C448.834 204.381 449.025 204.222 449.272 204.082C449.522 203.94 449.86 203.869 450.286 203.869C450.837 203.869 451.323 204.007 451.743 204.283C452.164 204.558 452.492 204.949 452.728 205.455C452.963 205.96 453.081 206.557 453.081 207.244C453.081 207.938 452.963 208.538 452.728 209.047C452.492 209.553 452.165 209.945 451.748 210.223C451.33 210.499 450.848 210.636 450.303 210.636C449.882 210.636 449.546 210.567 449.293 210.428C449.04 210.286 448.846 210.125 448.709 209.946C448.573 209.764 448.468 209.614 448.394 209.494H448.275V210.5H447.303ZM448.292 207.227C448.292 207.722 448.364 208.158 448.509 208.536C448.654 208.911 448.865 209.205 449.144 209.418C449.422 209.628 449.763 209.733 450.167 209.733C450.587 209.733 450.938 209.622 451.219 209.401C451.503 209.176 451.716 208.875 451.858 208.497C452.003 208.116 452.076 207.693 452.076 207.227C452.076 206.767 452.005 206.352 451.863 205.983C451.723 205.611 451.512 205.317 451.228 205.101C450.946 204.882 450.593 204.773 450.167 204.773C449.757 204.773 449.414 204.876 449.135 205.084C448.857 205.288 448.647 205.575 448.505 205.945C448.363 206.311 448.292 206.739 448.292 207.227ZM457.279 210.636C456.688 210.636 456.169 210.496 455.723 210.214C455.28 209.933 454.934 209.54 454.684 209.034C454.436 208.528 454.313 207.937 454.313 207.261C454.313 206.58 454.436 205.984 454.684 205.476C454.934 204.967 455.28 204.572 455.723 204.291C456.169 204.01 456.688 203.869 457.279 203.869C457.87 203.869 458.387 204.01 458.83 204.291C459.276 204.572 459.623 204.967 459.87 205.476C460.12 205.984 460.245 206.58 460.245 207.261C460.245 207.937 460.12 208.528 459.87 209.034C459.623 209.54 459.276 209.933 458.83 210.214C458.387 210.496 457.87 210.636 457.279 210.636ZM457.279 209.733C457.728 209.733 458.097 209.618 458.387 209.388C458.676 209.158 458.891 208.855 459.03 208.48C459.169 208.105 459.239 207.699 459.239 207.261C459.239 206.824 459.169 206.416 459.03 206.038C458.891 205.661 458.676 205.355 458.387 205.122C458.097 204.889 457.728 204.773 457.279 204.773C456.83 204.773 456.461 204.889 456.171 205.122C455.881 205.355 455.667 205.661 455.527 206.038C455.388 206.416 455.319 206.824 455.319 207.261C455.319 207.699 455.388 208.105 455.527 208.48C455.667 208.855 455.881 209.158 456.171 209.388C456.461 209.618 456.83 209.733 457.279 209.733ZM464.439 210.636C463.848 210.636 463.33 210.496 462.884 210.214C462.44 209.933 462.094 209.54 461.844 209.034C461.597 208.528 461.473 207.937 461.473 207.261C461.473 206.58 461.597 205.984 461.844 205.476C462.094 204.967 462.44 204.572 462.884 204.291C463.33 204.01 463.848 203.869 464.439 203.869C465.03 203.869 465.547 204.01 465.99 204.291C466.436 204.572 466.783 204.967 467.03 205.476C467.28 205.984 467.405 206.58 467.405 207.261C467.405 207.937 467.28 208.528 467.03 209.034C466.783 209.54 466.436 209.933 465.99 210.214C465.547 210.496 465.03 210.636 464.439 210.636ZM464.439 209.733C464.888 209.733 465.257 209.618 465.547 209.388C465.837 209.158 466.051 208.855 466.19 208.48C466.33 208.105 466.399 207.699 466.399 207.261C466.399 206.824 466.33 206.416 466.19 206.038C466.051 205.661 465.837 205.355 465.547 205.122C465.257 204.889 464.888 204.773 464.439 204.773C463.99 204.773 463.621 204.889 463.331 205.122C463.041 205.355 462.827 205.661 462.688 206.038C462.548 206.416 462.479 206.824 462.479 207.261C462.479 207.699 462.548 208.105 462.688 208.48C462.827 208.855 463.041 209.158 463.331 209.388C463.621 209.618 463.99 209.733 464.439 209.733ZM469.877 208.114L469.86 206.869H470.065L472.929 203.955H474.173L471.122 207.04H471.037L469.877 208.114ZM468.94 210.5V201.773H469.946V210.5H468.94ZM473.099 210.5L470.542 207.261L471.258 206.562L474.377 210.5H473.099Z" fill="#3C4043"/>
<path d="M400.679 232.688V233.708H401.855V232.688H400.679ZM400.679 234.86V235.892H401.855V234.86H400.679ZM400.679 230.528V231.536H401.855V230.528H400.679ZM399.467 229.28H403.115V237.14H399.467V229.28ZM401.495 237.752L402.587 237.14C402.739 237.324 402.895 237.528 403.055 237.752C403.223 237.976 403.375 238.196 403.511 238.412C403.655 238.628 403.771 238.82 403.859 238.988L402.707 239.672C402.635 239.504 402.531 239.308 402.395 239.084C402.259 238.86 402.111 238.632 401.951 238.4C401.799 238.16 401.647 237.944 401.495 237.752ZM399.791 237.248L401.099 237.608C400.907 238.064 400.663 238.52 400.367 238.976C400.071 239.432 399.779 239.812 399.491 240.116C399.403 240.044 399.287 239.96 399.143 239.864C399.007 239.768 398.867 239.676 398.723 239.588C398.579 239.5 398.455 239.428 398.351 239.372C398.639 239.108 398.911 238.784 399.167 238.4C399.431 238.016 399.639 237.632 399.791 237.248ZM405.695 228.8H407.003V238.46C407.003 238.82 406.963 239.104 406.883 239.312C406.811 239.52 406.667 239.68 406.451 239.792C406.243 239.904 405.975 239.976 405.647 240.008C405.327 240.048 404.931 240.068 404.459 240.068C404.435 239.876 404.383 239.644 404.303 239.372C404.223 239.108 404.139 238.88 404.051 238.688C404.355 238.696 404.639 238.704 404.903 238.712C405.167 238.712 405.347 238.712 405.443 238.712C405.539 238.704 405.603 238.684 405.635 238.652C405.675 238.612 405.695 238.548 405.695 238.46V228.8ZM403.715 230.036H404.951V236.996H403.715V230.036ZM396.575 229.952L397.391 228.908C397.607 228.996 397.835 229.104 398.075 229.232C398.323 229.36 398.555 229.496 398.771 229.64C398.995 229.776 399.175 229.908 399.311 230.036L398.447 231.188C398.327 231.052 398.159 230.912 397.943 230.768C397.735 230.616 397.511 230.468 397.271 230.324C397.031 230.18 396.799 230.056 396.575 229.952ZM396.119 233.168L396.911 232.1C397.135 232.188 397.367 232.292 397.607 232.412C397.855 232.524 398.087 232.648 398.303 232.784C398.527 232.912 398.707 233.036 398.843 233.156L398.003 234.32C397.875 234.2 397.703 234.068 397.487 233.924C397.279 233.78 397.055 233.644 396.815 233.516C396.575 233.38 396.343 233.264 396.119 233.168ZM396.323 239.204C396.475 238.892 396.639 238.524 396.815 238.1C396.999 237.676 397.183 237.228 397.367 236.756C397.559 236.276 397.731 235.804 397.883 235.34L399.047 236.084C398.919 236.516 398.775 236.956 398.615 237.404C398.455 237.844 398.291 238.28 398.123 238.712C397.955 239.136 397.787 239.548 397.619 239.948L396.323 239.204ZM412.451 238.076C412.939 237.996 413.519 237.9 414.191 237.788C414.863 237.676 415.547 237.56 416.243 237.44L416.339 238.628C415.715 238.764 415.087 238.896 414.455 239.024C413.831 239.152 413.259 239.272 412.739 239.384L412.451 238.076ZM412.679 233.696H415.967V234.932H412.679V233.696ZM412.691 231.08H419.291V232.388H412.691V231.08ZM417.479 229.436L418.463 228.932C418.663 229.148 418.863 229.396 419.063 229.676C419.263 229.948 419.411 230.192 419.507 230.408L418.463 230.972C418.375 230.756 418.235 230.504 418.043 230.216C417.859 229.928 417.671 229.668 417.479 229.436ZM413.687 234.176H415.019V238.208L413.687 238.46V234.176ZM416.123 228.812H417.503C417.487 229.86 417.487 230.856 417.503 231.8C417.519 232.736 417.547 233.6 417.587 234.392C417.635 235.176 417.691 235.86 417.755 236.444C417.827 237.02 417.911 237.468 418.007 237.788C418.103 238.108 418.211 238.276 418.331 238.292C418.411 238.292 418.475 238.164 418.523 237.908C418.571 237.652 418.607 237.292 418.631 236.828C418.703 236.94 418.803 237.052 418.931 237.164C419.067 237.276 419.199 237.38 419.327 237.476C419.463 237.572 419.567 237.644 419.639 237.692C419.535 238.356 419.403 238.86 419.243 239.204C419.091 239.548 418.927 239.78 418.751 239.9C418.583 240.02 418.423 240.08 418.271 240.08C417.903 240.072 417.595 239.896 417.347 239.552C417.099 239.216 416.895 238.728 416.735 238.088C416.583 237.448 416.463 236.672 416.375 235.76C416.287 234.848 416.223 233.808 416.183 232.64C416.151 231.472 416.131 230.196 416.123 228.812ZM408.683 232.484H412.235V233.576H408.683V232.484ZM408.731 229.184H412.175V230.264H408.731V229.184ZM408.683 234.128H412.235V235.208H408.683V234.128ZM408.143 230.792H412.511V231.932H408.143V230.792ZM409.307 235.784H412.223V239.444H409.307V238.304H411.023V236.924H409.307V235.784ZM408.659 235.784H409.847V239.912H408.659V235.784ZM424.775 229.088H426.431C426.415 229.424 426.387 229.856 426.347 230.384C426.307 230.912 426.231 231.5 426.119 232.148C426.015 232.788 425.855 233.46 425.639 234.164C425.423 234.868 425.127 235.572 424.751 236.276C424.383 236.972 423.911 237.64 423.335 238.28C422.767 238.912 422.075 239.476 421.259 239.972C421.131 239.788 420.955 239.592 420.731 239.384C420.515 239.176 420.287 238.988 420.047 238.82C420.847 238.372 421.519 237.86 422.063 237.284C422.607 236.708 423.051 236.104 423.395 235.472C423.739 234.832 424.003 234.192 424.187 233.552C424.371 232.904 424.503 232.292 424.583 231.716C424.663 231.14 424.711 230.624 424.727 230.168C424.743 229.712 424.759 229.352 424.775 229.088ZM426.371 229.412C426.379 229.564 426.395 229.804 426.419 230.132C426.443 230.46 426.491 230.852 426.563 231.308C426.635 231.764 426.743 232.26 426.887 232.796C427.039 233.324 427.239 233.868 427.487 234.428C427.735 234.988 428.043 235.536 428.411 236.072C428.779 236.608 429.223 237.104 429.743 237.56C430.271 238.016 430.887 238.412 431.591 238.748C431.359 238.916 431.143 239.112 430.943 239.336C430.751 239.56 430.595 239.772 430.475 239.972C429.739 239.604 429.095 239.168 428.543 238.664C427.999 238.152 427.531 237.6 427.139 237.008C426.755 236.408 426.435 235.8 426.179 235.184C425.923 234.568 425.715 233.964 425.555 233.372C425.403 232.772 425.287 232.216 425.207 231.704C425.127 231.192 425.071 230.748 425.039 230.372C425.015 229.996 424.995 229.724 424.979 229.556L426.371 229.412ZM439.427 230.996H443.423V232.328H439.427V230.996ZM439.559 228.8L440.927 228.992C440.815 229.816 440.667 230.62 440.483 231.404C440.307 232.188 440.087 232.92 439.823 233.6C439.567 234.28 439.263 234.876 438.911 235.388C438.847 235.3 438.751 235.188 438.623 235.052C438.503 234.916 438.375 234.784 438.239 234.656C438.103 234.52 437.983 234.412 437.879 234.332C438.191 233.9 438.455 233.392 438.671 232.808C438.887 232.224 439.067 231.592 439.211 230.912C439.355 230.224 439.471 229.52 439.559 228.8ZM441.491 231.776L442.835 231.872C442.699 233.2 442.479 234.384 442.175 235.424C441.871 236.464 441.443 237.372 440.891 238.148C440.339 238.924 439.623 239.584 438.743 240.128C438.703 240.024 438.635 239.896 438.539 239.744C438.451 239.6 438.355 239.452 438.251 239.3C438.147 239.156 438.051 239.036 437.963 238.94C438.755 238.508 439.391 237.956 439.871 237.284C440.359 236.604 440.727 235.804 440.975 234.884C441.223 233.964 441.395 232.928 441.491 231.776ZM440.183 232.112C440.327 233.12 440.527 234.072 440.783 234.968C441.047 235.864 441.395 236.656 441.827 237.344C442.267 238.024 442.819 238.56 443.483 238.952C443.387 239.04 443.275 239.152 443.147 239.288C443.027 239.424 442.911 239.564 442.799 239.708C442.695 239.852 442.611 239.984 442.547 240.104C441.819 239.616 441.219 238.988 440.747 238.22C440.283 237.452 439.911 236.568 439.631 235.568C439.351 234.56 439.131 233.464 438.971 232.28L440.183 232.112ZM434.795 228.8H436.019V235.22H434.795V228.8ZM434.099 230.3V232.04H436.775V230.3H434.099ZM432.911 229.4H438.023V232.952H432.911V229.4ZM433.847 234.2V234.704H437.015V234.2H433.847ZM432.671 233.336H438.263V235.568H432.671V233.336ZM432.179 236.06C432.747 236.06 433.391 236.056 434.111 236.048C434.839 236.04 435.603 236.032 436.403 236.024C437.211 236.008 438.019 235.996 438.827 235.988L438.779 237.008C437.995 237.024 437.203 237.04 436.403 237.056C435.611 237.072 434.855 237.088 434.135 237.104C433.423 237.112 432.787 237.12 432.227 237.128L432.179 236.06ZM434.507 235.316L435.695 235.58C435.519 235.9 435.331 236.236 435.131 236.588C434.939 236.94 434.743 237.276 434.543 237.596C434.351 237.916 434.171 238.204 434.003 238.46L432.851 238.172C433.019 237.924 433.199 237.636 433.391 237.308C433.591 236.98 433.787 236.644 433.979 236.3C434.179 235.948 434.355 235.62 434.507 235.316ZM433.775 238.184L434.459 237.344C434.915 237.504 435.375 237.684 435.839 237.884C436.303 238.076 436.739 238.276 437.147 238.484C437.555 238.684 437.899 238.876 438.179 239.06L437.303 239.948C437.039 239.756 436.715 239.552 436.331 239.336C435.955 239.128 435.547 238.924 435.107 238.724C434.667 238.524 434.223 238.344 433.775 238.184ZM436.547 236.564L437.759 236.696C437.591 237.408 437.311 237.988 436.919 238.436C436.535 238.884 436.019 239.236 435.371 239.492C434.723 239.756 433.919 239.968 432.959 240.128C432.927 239.936 432.859 239.736 432.755 239.528C432.659 239.328 432.563 239.16 432.467 239.024C433.275 238.952 433.951 238.828 434.495 238.652C435.047 238.476 435.487 238.22 435.815 237.884C436.151 237.548 436.395 237.108 436.547 236.564ZM432.143 230.66H433.355V230.732H437.447V230.66H438.815V231.68H437.447V231.608H433.355V231.68H432.143V230.66ZM447.535 239V237.858L450.565 234.888C450.855 234.595 451.096 234.335 451.29 234.108C451.483 233.881 451.628 233.661 451.724 233.447C451.821 233.234 451.869 233.007 451.869 232.766C451.869 232.49 451.807 232.254 451.682 232.058C451.557 231.859 451.385 231.706 451.166 231.598C450.947 231.49 450.699 231.436 450.42 231.436C450.133 231.436 449.882 231.496 449.666 231.615C449.45 231.732 449.282 231.898 449.163 232.114C449.047 232.33 448.988 232.587 448.988 232.885H447.484C447.484 232.331 447.611 231.849 447.863 231.44C448.116 231.031 448.464 230.714 448.907 230.49C449.354 230.266 449.865 230.153 450.442 230.153C451.027 230.153 451.541 230.263 451.984 230.482C452.427 230.7 452.771 231 453.015 231.381C453.263 231.761 453.386 232.196 453.386 232.685C453.386 233.011 453.324 233.332 453.199 233.648C453.074 233.963 452.854 234.312 452.538 234.696C452.226 235.08 451.787 235.544 451.221 236.089L449.717 237.619V237.679H453.518V239H447.535ZM458.214 239.166C457.513 239.166 456.91 238.989 456.407 238.634C455.907 238.276 455.523 237.76 455.253 237.087C454.986 236.411 454.852 235.597 454.852 234.645C454.855 233.693 454.99 232.884 455.257 232.216C455.527 231.545 455.912 231.034 456.412 230.682C456.915 230.33 457.515 230.153 458.214 230.153C458.913 230.153 459.514 230.33 460.017 230.682C460.52 231.034 460.905 231.545 461.172 232.216C461.442 232.886 461.577 233.696 461.577 234.645C461.577 235.599 461.442 236.415 461.172 237.091C460.905 237.764 460.52 238.278 460.017 238.634C459.517 238.989 458.916 239.166 458.214 239.166ZM458.214 237.832C458.76 237.832 459.19 237.564 459.506 237.027C459.824 236.487 459.983 235.693 459.983 234.645C459.983 233.952 459.91 233.369 459.765 232.898C459.621 232.426 459.416 232.071 459.152 231.832C458.888 231.591 458.575 231.47 458.214 231.47C457.672 231.47 457.243 231.74 456.927 232.28C456.612 232.817 456.453 233.605 456.45 234.645C456.447 235.341 456.517 235.926 456.659 236.401C456.804 236.875 457.008 237.233 457.273 237.474C457.537 237.713 457.851 237.832 458.214 237.832Z" fill="#5F6367"/>
<path d="M91.076 286.56L92.06 287.496C91.732 287.696 91.376 287.876 90.992 288.036C90.608 288.188 90.248 288.32 89.912 288.432C89.88 288.304 89.824 288.152 89.744 287.976C89.664 287.792 89.588 287.632 89.516 287.496C89.804 287.376 90.088 287.232 90.368 287.064C90.656 286.896 90.892 286.728 91.076 286.56ZM89.252 287.136L90.5 287.532V291.504H89.252V287.136ZM89.252 290.808H94.46V288.252H93.428V287.112H95.744V291.936H89.252V290.808ZM89.792 289.008H91.436V290.028H89.792V289.008ZM93.44 289.008H95.144V290.028H93.44V289.008ZM91.808 286.224H93.08V292.956H91.808V286.224ZM89.048 292.8H94.808V293.988H89.048V292.8ZM94.424 292.8H94.7L94.94 292.752L95.816 293.16C95.528 293.824 95.148 294.404 94.676 294.9C94.212 295.388 93.676 295.804 93.068 296.148C92.468 296.492 91.808 296.772 91.088 296.988C90.376 297.204 89.624 297.372 88.832 297.492C88.776 297.324 88.688 297.12 88.568 296.88C88.448 296.64 88.332 296.448 88.22 296.304C88.94 296.224 89.624 296.1 90.272 295.932C90.928 295.764 91.528 295.548 92.072 295.284C92.624 295.012 93.1 294.688 93.5 294.312C93.9 293.928 94.208 293.484 94.424 292.98V292.8ZM90.86 293.832C91.188 294.264 91.62 294.648 92.156 294.984C92.692 295.312 93.308 295.584 94.004 295.8C94.708 296.016 95.468 296.18 96.284 296.292C96.18 296.388 96.072 296.508 95.96 296.652C95.848 296.804 95.74 296.956 95.636 297.108C95.54 297.268 95.46 297.412 95.396 297.54C94.54 297.388 93.748 297.168 93.02 296.88C92.3 296.592 91.652 296.232 91.076 295.8C90.508 295.368 90.016 294.864 89.6 294.288L90.86 293.832ZM84.74 292.368C85.276 292.256 85.916 292.112 86.66 291.936C87.404 291.752 88.148 291.564 88.892 291.372L89.06 292.668C88.38 292.86 87.692 293.052 86.996 293.244C86.308 293.436 85.676 293.608 85.1 293.76L84.74 292.368ZM84.932 288.492H88.916V289.824H84.932V288.492ZM86.384 286.224H87.764V295.992C87.764 296.336 87.728 296.604 87.656 296.796C87.584 296.988 87.448 297.136 87.248 297.24C87.048 297.344 86.8 297.412 86.504 297.444C86.208 297.484 85.852 297.504 85.436 297.504C85.412 297.32 85.36 297.104 85.28 296.856C85.208 296.608 85.128 296.388 85.04 296.196C85.272 296.204 85.496 296.212 85.712 296.22C85.928 296.22 86.076 296.22 86.156 296.22C86.236 296.22 86.292 296.204 86.324 296.172C86.364 296.132 86.384 296.072 86.384 295.992V286.224ZM98.396 286.608H106.472V290.256H98.324V289.32H105.056V287.544H98.396V286.608ZM103.952 291.576V292.404H105.968V291.576H103.952ZM102.62 290.652H107.396V293.316H102.62V290.652ZM98.756 288H105.608V288.864H98.756V288ZM97.412 290.652H102.008V291.648H97.412V290.652ZM97.016 293.88H107.996V295.056H97.016V293.88ZM104.204 293.208H105.632V296.088C105.632 296.424 105.588 296.684 105.5 296.868C105.42 297.06 105.252 297.204 104.996 297.3C104.756 297.396 104.468 297.452 104.132 297.468C103.796 297.492 103.396 297.504 102.932 297.504C102.908 297.312 102.852 297.096 102.764 296.856C102.676 296.616 102.584 296.408 102.488 296.232C102.688 296.24 102.888 296.248 103.088 296.256C103.288 296.256 103.468 296.256 103.628 296.256C103.788 296.248 103.896 296.244 103.952 296.244C104.048 296.236 104.112 296.224 104.144 296.208C104.184 296.184 104.204 296.132 104.204 296.052V293.208ZM98.984 291.012H100.34V292.68H98.984V291.012ZM97.232 292.524C97.656 292.508 98.136 292.488 98.672 292.464C99.208 292.44 99.776 292.412 100.376 292.38C100.984 292.348 101.588 292.32 102.188 292.296L102.176 293.316C101.304 293.372 100.44 293.424 99.584 293.472C98.736 293.52 97.984 293.564 97.328 293.604L97.232 292.524ZM99.044 295.428L100.016 294.624C100.216 294.752 100.424 294.896 100.64 295.056C100.864 295.208 101.068 295.368 101.252 295.536C101.444 295.696 101.6 295.852 101.72 296.004L100.688 296.892C100.584 296.748 100.44 296.588 100.256 296.412C100.072 296.236 99.876 296.064 99.668 295.896C99.46 295.72 99.252 295.564 99.044 295.428ZM110.54 290.136H119.996V291.288H110.54V290.136ZM109.736 287.04H119.42V288.168H109.736V287.04ZM112.664 292.212H119.3V293.34H112.664V292.212ZM112.448 294.108H118.952V295.2H112.448V294.108ZM111.428 296.112H119.9V297.276H111.428V296.112ZM113.744 286.236H115.196V287.928H113.744V286.236ZM114.968 291.432H116.384V296.544H114.968V291.432ZM109.82 290.136H111.224V292.152C111.224 292.544 111.204 292.98 111.164 293.46C111.132 293.94 111.068 294.432 110.972 294.936C110.876 295.432 110.74 295.912 110.564 296.376C110.388 296.84 110.16 297.264 109.88 297.648C109.808 297.56 109.7 297.456 109.556 297.336C109.412 297.216 109.264 297.1 109.112 296.988C108.968 296.876 108.848 296.792 108.752 296.736C109.08 296.288 109.316 295.792 109.46 295.248C109.612 294.704 109.708 294.16 109.748 293.616C109.796 293.072 109.82 292.58 109.82 292.14V290.136ZM112.628 291.288L113.9 291.588C113.716 292.1 113.48 292.596 113.192 293.076C112.904 293.548 112.596 293.94 112.268 294.252C112.188 294.18 112.084 294.096 111.956 294C111.828 293.904 111.696 293.812 111.56 293.724C111.424 293.628 111.308 293.556 111.212 293.508C111.524 293.236 111.804 292.904 112.052 292.512C112.3 292.12 112.492 291.712 112.628 291.288ZM111.392 288.636L112.28 287.964C112.768 288.068 113.272 288.188 113.792 288.324C114.32 288.46 114.844 288.604 115.364 288.756C115.892 288.9 116.392 289.048 116.864 289.2C117.344 289.352 117.768 289.492 118.136 289.62L117.26 290.352C116.908 290.216 116.496 290.072 116.024 289.92C115.56 289.76 115.064 289.604 114.536 289.452C114.016 289.3 113.484 289.156 112.94 289.02C112.404 288.876 111.888 288.748 111.392 288.636ZM116.768 287.796L117.728 288.312C117.344 288.56 116.9 288.792 116.396 289.008C115.9 289.224 115.372 289.42 114.812 289.596C114.26 289.764 113.696 289.916 113.12 290.052C112.544 290.18 111.988 290.292 111.452 290.388C111.404 290.268 111.324 290.12 111.212 289.944C111.108 289.768 111.02 289.624 110.948 289.512C111.46 289.44 111.992 289.348 112.544 289.236C113.104 289.124 113.648 288.992 114.176 288.84C114.704 288.688 115.192 288.528 115.64 288.36C116.096 288.184 116.472 287.996 116.768 287.796ZM124.388 288.084V289.692H128.612V288.084H124.388ZM122.996 286.704H130.076V291.06H122.996V286.704ZM121.34 292.068H125.936V297.432H124.496V293.448H122.708V297.504H121.34V292.068ZM126.944 292.068H131.696V297.444H130.256V293.448H128.324V297.504H126.944V292.068ZM121.94 295.512H125.096V296.892H121.94V295.512ZM127.604 295.512H130.964V296.892H127.604V295.512Z" fill="#5F6367"/>
<path d="M188.332 290.904H192.592V292.164H188.332V290.904ZM188.284 287.94H193.072V289.236H188.284V287.94ZM190.168 286.26H191.56V291.696H190.168V286.26ZM187.696 287.94H189.04V290.736C189.04 291.224 189.02 291.764 188.98 292.356C188.94 292.94 188.86 293.54 188.74 294.156C188.628 294.764 188.464 295.356 188.248 295.932C188.032 296.5 187.748 297.016 187.396 297.48C187.316 297.4 187.204 297.312 187.06 297.216C186.916 297.12 186.768 297.028 186.616 296.94C186.472 296.852 186.344 296.788 186.232 296.748C186.568 296.316 186.832 295.844 187.024 295.332C187.216 294.812 187.36 294.284 187.456 293.748C187.56 293.212 187.624 292.684 187.648 292.164C187.68 291.644 187.696 291.164 187.696 290.724V287.94ZM189.88 291.636C190.224 292.732 190.764 293.684 191.5 294.492C192.236 295.3 193.18 295.888 194.332 296.256C194.22 296.344 194.104 296.46 193.984 296.604C193.864 296.756 193.748 296.908 193.636 297.06C193.532 297.22 193.444 297.368 193.372 297.504C192.148 297.032 191.16 296.324 190.408 295.38C189.656 294.428 189.068 293.284 188.644 291.948L189.88 291.636ZM192.7 287.94H192.904L193.12 287.892L194.152 288.096C194.056 288.544 193.948 289.004 193.828 289.476C193.708 289.948 193.592 290.348 193.48 290.676L192.244 290.448C192.324 290.152 192.408 289.784 192.496 289.344C192.584 288.904 192.652 288.496 192.7 288.12V287.94ZM192.304 290.904H192.58L192.82 290.856L193.756 291.18C193.524 292.268 193.18 293.22 192.724 294.036C192.276 294.852 191.728 295.544 191.08 296.112C190.44 296.672 189.708 297.132 188.884 297.492C188.828 297.372 188.752 297.236 188.656 297.084C188.568 296.94 188.468 296.796 188.356 296.652C188.252 296.508 188.152 296.392 188.056 296.304C188.76 296.04 189.4 295.664 189.976 295.176C190.56 294.688 191.052 294.104 191.452 293.424C191.852 292.744 192.136 291.984 192.304 291.144V290.904ZM184.408 292.548L185.776 290.928V297.492H184.408V292.548ZM183.016 288.348H186.376V289.632H183.016V288.348ZM184.408 286.26H185.764V289.092H184.408V286.26ZM185.572 291.024C185.66 291.104 185.788 291.248 185.956 291.456C186.132 291.656 186.316 291.876 186.508 292.116C186.708 292.348 186.884 292.564 187.036 292.764C187.196 292.964 187.312 293.108 187.384 293.196L186.568 294.156C186.472 293.98 186.348 293.78 186.196 293.556C186.052 293.324 185.896 293.084 185.728 292.836C185.56 292.588 185.396 292.356 185.236 292.14C185.084 291.924 184.952 291.748 184.84 291.612L185.572 291.024ZM186.04 288.348H186.316L186.556 288.288L187.312 288.804C187.04 289.54 186.692 290.256 186.268 290.952C185.844 291.648 185.38 292.284 184.876 292.86C184.372 293.436 183.86 293.916 183.34 294.3C183.308 294.18 183.252 294.032 183.172 293.856C183.092 293.68 183.008 293.512 182.92 293.352C182.832 293.184 182.752 293.06 182.68 292.98C183.152 292.668 183.608 292.28 184.048 291.816C184.488 291.344 184.884 290.832 185.236 290.28C185.588 289.72 185.856 289.16 186.04 288.6V288.348ZM186.916 290.628L187.756 291.252C187.556 291.508 187.356 291.764 187.156 292.02C186.956 292.276 186.768 292.496 186.592 292.68L185.92 292.152C186.032 292.016 186.148 291.86 186.268 291.684C186.388 291.5 186.504 291.316 186.616 291.132C186.736 290.94 186.836 290.772 186.916 290.628ZM201.496 290.472H202.936V297.504H201.496V290.472ZM198.328 291.984H206.044V293.28H198.328V291.984ZM203.212 292.56C203.436 292.992 203.716 293.42 204.052 293.844C204.396 294.268 204.768 294.66 205.168 295.02C205.576 295.38 205.988 295.68 206.404 295.92C206.3 296 206.18 296.108 206.044 296.244C205.916 296.38 205.792 296.52 205.672 296.664C205.56 296.808 205.464 296.94 205.384 297.06C204.968 296.764 204.556 296.396 204.148 295.956C203.748 295.516 203.372 295.04 203.02 294.528C202.676 294.008 202.38 293.48 202.132 292.944L203.212 292.56ZM201.292 292.44L202.42 292.836C202.164 293.396 201.852 293.944 201.484 294.48C201.116 295.008 200.712 295.492 200.272 295.932C199.832 296.364 199.372 296.732 198.892 297.036C198.82 296.916 198.724 296.784 198.604 296.64C198.492 296.496 198.372 296.36 198.244 296.232C198.124 296.096 198.008 295.98 197.896 295.884C198.36 295.644 198.808 295.344 199.24 294.984C199.672 294.616 200.064 294.216 200.416 293.784C200.776 293.344 201.068 292.896 201.292 292.44ZM200.488 288.024V289.632H204.016V288.024H200.488ZM199.132 286.752H205.468V290.892H199.132V286.752ZM197.56 286.26L198.892 286.692C198.628 287.372 198.312 288.052 197.944 288.732C197.584 289.404 197.192 290.044 196.768 290.652C196.352 291.252 195.924 291.78 195.484 292.236C195.444 292.116 195.38 291.964 195.292 291.78C195.204 291.596 195.108 291.408 195.004 291.216C194.9 291.024 194.804 290.872 194.716 290.76C195.092 290.392 195.456 289.968 195.808 289.488C196.16 289.008 196.484 288.492 196.78 287.94C197.084 287.388 197.344 286.828 197.56 286.26ZM196.396 289.572L197.764 288.204V288.216V297.468H196.396V289.572ZM211.492 286.512H213.148C213.132 286.848 213.104 287.28 213.064 287.808C213.024 288.336 212.948 288.924 212.836 289.572C212.732 290.212 212.572 290.884 212.356 291.588C212.14 292.292 211.844 292.996 211.468 293.7C211.1 294.396 210.628 295.064 210.052 295.704C209.484 296.336 208.792 296.9 207.976 297.396C207.848 297.212 207.672 297.016 207.448 296.808C207.232 296.6 207.004 296.412 206.764 296.244C207.564 295.796 208.236 295.284 208.78 294.708C209.324 294.132 209.768 293.528 210.112 292.896C210.456 292.256 210.72 291.616 210.904 290.976C211.088 290.328 211.22 289.716 211.3 289.14C211.38 288.564 211.428 288.048 211.444 287.592C211.46 287.136 211.476 286.776 211.492 286.512ZM213.088 286.836C213.096 286.988 213.112 287.228 213.136 287.556C213.16 287.884 213.208 288.276 213.28 288.732C213.352 289.188 213.46 289.684 213.604 290.22C213.756 290.748 213.956 291.292 214.204 291.852C214.452 292.412 214.76 292.96 215.128 293.496C215.496 294.032 215.94 294.528 216.46 294.984C216.988 295.44 217.604 295.836 218.308 296.172C218.076 296.34 217.86 296.536 217.66 296.76C217.468 296.984 217.312 297.196 217.192 297.396C216.456 297.028 215.812 296.592 215.26 296.088C214.716 295.576 214.248 295.024 213.856 294.432C213.472 293.832 213.152 293.224 212.896 292.608C212.64 291.992 212.432 291.388 212.272 290.796C212.12 290.196 212.004 289.64 211.924 289.128C211.844 288.616 211.788 288.172 211.756 287.796C211.732 287.42 211.712 287.148 211.696 286.98L213.088 286.836ZM224.32 286.572H225.676V288.036C225.676 288.412 225.636 288.808 225.556 289.224C225.484 289.632 225.34 290.028 225.124 290.412C224.908 290.796 224.592 291.136 224.176 291.432C224.104 291.344 224 291.24 223.864 291.12C223.736 290.992 223.6 290.872 223.456 290.76C223.312 290.648 223.192 290.564 223.096 290.508C223.464 290.26 223.732 289.996 223.9 289.716C224.076 289.436 224.188 289.148 224.236 288.852C224.292 288.556 224.32 288.276 224.32 288.012V286.572ZM227.008 286.572H228.364V289.272C228.364 289.432 228.372 289.532 228.388 289.572C228.412 289.612 228.456 289.632 228.52 289.632C228.536 289.632 228.564 289.632 228.604 289.632C228.644 289.632 228.684 289.632 228.724 289.632C228.772 289.632 228.804 289.632 228.82 289.632C228.868 289.632 228.908 289.608 228.94 289.56C228.972 289.504 228.996 289.392 229.012 289.224C229.028 289.048 229.04 288.784 229.048 288.432C229.176 288.544 229.356 288.648 229.588 288.744C229.828 288.832 230.036 288.9 230.212 288.948C230.172 289.444 230.104 289.832 230.008 290.112C229.912 290.392 229.78 290.588 229.612 290.7C229.452 290.804 229.24 290.856 228.976 290.856C228.912 290.856 228.836 290.856 228.748 290.856C228.66 290.856 228.572 290.856 228.484 290.856C228.404 290.856 228.332 290.856 228.268 290.856C227.948 290.856 227.696 290.808 227.512 290.712C227.328 290.616 227.196 290.456 227.116 290.232C227.044 290 227.008 289.684 227.008 289.284V286.572ZM225.46 292.692C225.868 293.548 226.484 294.288 227.308 294.912C228.132 295.528 229.108 295.972 230.236 296.244C230.132 296.34 230.02 296.46 229.9 296.604C229.78 296.756 229.668 296.908 229.564 297.06C229.46 297.22 229.372 297.364 229.3 297.492C228.108 297.132 227.084 296.58 226.228 295.836C225.38 295.084 224.7 294.172 224.188 293.1L225.46 292.692ZM228.136 291.408H228.412L228.664 291.348L229.6 291.696C229.392 292.504 229.108 293.22 228.748 293.844C228.396 294.46 227.976 295.004 227.488 295.476C227 295.948 226.452 296.348 225.844 296.676C225.236 297.004 224.584 297.276 223.888 297.492C223.84 297.364 223.772 297.22 223.684 297.06C223.596 296.908 223.5 296.756 223.396 296.604C223.3 296.452 223.208 296.324 223.12 296.22C223.736 296.068 224.316 295.86 224.86 295.596C225.404 295.324 225.892 294.996 226.324 294.612C226.764 294.228 227.136 293.784 227.44 293.28C227.752 292.776 227.984 292.224 228.136 291.624V291.408ZM223.732 291.408H228.7V292.692H223.732V291.408ZM224.86 286.572H227.752V287.832H224.86V286.572ZM219.436 289.908H223.156V291H219.436V289.908ZM219.484 286.608H223.132V287.688H219.484V286.608ZM219.436 291.552H223.156V292.632H219.436V291.552ZM218.86 288.216H223.576V289.356H218.86V288.216ZM220.096 293.208H223.132V296.868H220.096V295.728H221.896V294.348H220.096V293.208ZM219.4 293.208H220.624V297.336H219.4V293.208ZM233.176 289.848H239.812V291.228H233.176V289.848ZM236.5 292.728H240.544V294.084H236.5V292.728ZM235.744 290.652H237.244V296.448L235.744 296.268V290.652ZM232.876 291.888L234.376 292.044C234.216 293.268 233.944 294.348 233.56 295.284C233.176 296.22 232.64 296.984 231.952 297.576C231.872 297.488 231.76 297.38 231.616 297.252C231.472 297.124 231.32 297 231.16 296.88C231.008 296.76 230.876 296.664 230.764 296.592C231.412 296.112 231.9 295.468 232.228 294.66C232.556 293.844 232.772 292.92 232.876 291.888ZM234.04 293.4C234.224 293.944 234.464 294.388 234.76 294.732C235.064 295.068 235.412 295.324 235.804 295.5C236.204 295.668 236.64 295.784 237.112 295.848C237.584 295.912 238.084 295.944 238.612 295.944C238.74 295.944 238.912 295.944 239.128 295.944C239.352 295.944 239.596 295.944 239.86 295.944C240.132 295.944 240.408 295.944 240.688 295.944C240.968 295.936 241.228 295.932 241.468 295.932C241.708 295.924 241.908 295.916 242.068 295.908C241.996 296.028 241.924 296.176 241.852 296.352C241.788 296.52 241.728 296.696 241.672 296.88C241.616 297.064 241.576 297.232 241.552 297.384H240.94H238.54C237.844 297.384 237.204 297.336 236.62 297.24C236.036 297.144 235.508 296.968 235.036 296.712C234.572 296.464 234.156 296.104 233.788 295.632C233.428 295.16 233.12 294.544 232.864 293.784L234.04 293.4ZM235.72 286.248H237.256V288.432H235.72V286.248ZM231.352 287.46H241.66V290.472H240.184V288.816H232.768V290.472H231.352V287.46Z" fill="#5F6367"/>
<path d="M306.012 286.224H307.476V290.928H306.012V286.224ZM304.92 295.692H308.82V296.976H304.92V295.692ZM303.468 287.784H310.128V289.092H303.468V287.784ZM303.804 290.4H309.84V291.708H303.804V290.4ZM304.188 292.728H309.576V297.48H308.184V294.012H305.508V297.492H304.188V292.728ZM300.66 286.236L301.932 286.68C301.772 286.992 301.604 287.312 301.428 287.64C301.252 287.96 301.08 288.272 300.912 288.576C300.744 288.872 300.58 289.132 300.42 289.356L299.448 288.96C299.592 288.712 299.74 288.432 299.892 288.12C300.044 287.8 300.188 287.476 300.324 287.148C300.46 286.82 300.572 286.516 300.66 286.236ZM302.1 287.664L303.324 288.168C303.028 288.624 302.708 289.104 302.364 289.608C302.02 290.104 301.672 290.58 301.32 291.036C300.968 291.492 300.64 291.892 300.336 292.236L299.46 291.792C299.692 291.52 299.928 291.212 300.168 290.868C300.408 290.524 300.644 290.168 300.876 289.8C301.116 289.432 301.34 289.064 301.548 288.696C301.764 288.32 301.948 287.976 302.1 287.664ZM298.812 289.08L299.496 288.096C299.704 288.272 299.92 288.472 300.144 288.696C300.368 288.912 300.572 289.128 300.756 289.344C300.948 289.56 301.092 289.76 301.188 289.944L300.456 291.06C300.36 290.876 300.22 290.668 300.036 290.436C299.86 290.196 299.664 289.96 299.448 289.728C299.232 289.488 299.02 289.272 298.812 289.08ZM301.812 290.556L302.832 290.112C302.992 290.376 303.148 290.66 303.3 290.964C303.452 291.268 303.584 291.568 303.696 291.864C303.808 292.152 303.892 292.412 303.948 292.644L302.844 293.148C302.796 292.924 302.72 292.664 302.616 292.368C302.512 292.064 302.388 291.756 302.244 291.444C302.108 291.124 301.964 290.828 301.812 290.556ZM298.812 291.516C299.364 291.5 300.028 291.476 300.804 291.444C301.58 291.412 302.368 291.376 303.168 291.336L303.156 292.476C302.404 292.532 301.656 292.588 300.912 292.644C300.176 292.692 299.516 292.732 298.932 292.764L298.812 291.516ZM302.016 293.556L303.072 293.208C303.24 293.568 303.396 293.96 303.54 294.384C303.684 294.808 303.788 295.176 303.852 295.488L302.736 295.896C302.68 295.576 302.584 295.2 302.448 294.768C302.312 294.328 302.168 293.924 302.016 293.556ZM299.328 293.28L300.516 293.496C300.452 294.072 300.356 294.64 300.228 295.2C300.1 295.76 299.952 296.232 299.784 296.616C299.704 296.56 299.596 296.496 299.46 296.424C299.324 296.36 299.184 296.296 299.04 296.232C298.904 296.168 298.784 296.12 298.68 296.088C298.856 295.728 298.996 295.3 299.1 294.804C299.204 294.3 299.28 293.792 299.328 293.28ZM300.72 292.152H301.992V297.504H300.72V292.152ZM312.66 286.236H313.872V297.504H312.66V286.236ZM311.088 288.444H314.916V289.704H312.144V295.008H311.088V288.444ZM314.412 288.444H315.432V293.58C315.432 293.796 315.412 293.996 315.372 294.18C315.34 294.364 315.26 294.508 315.132 294.612C315.004 294.724 314.864 294.796 314.712 294.828C314.568 294.852 314.392 294.864 314.184 294.864C314.176 294.696 314.14 294.496 314.076 294.264C314.012 294.024 313.94 293.824 313.86 293.664C313.964 293.664 314.056 293.664 314.136 293.664C314.224 293.664 314.284 293.664 314.316 293.664C314.38 293.664 314.412 293.624 314.412 293.544V288.444ZM316.764 286.668H321.6V287.832H316.764V286.668ZM316.776 288.372H321.216V289.428H316.776V288.372ZM316.776 289.992H321.216V291.048H316.776V289.992ZM315.552 291.612H322.032V292.788H315.552V291.612ZM315.156 296.112C315.684 296.048 316.316 295.96 317.052 295.848C317.796 295.736 318.548 295.624 319.308 295.512L319.392 296.688C318.704 296.816 318.016 296.94 317.328 297.06C316.64 297.18 316.016 297.288 315.456 297.384L315.156 296.112ZM319.32 292.02C319.456 292.684 319.644 293.296 319.884 293.856C320.132 294.416 320.452 294.9 320.844 295.308C321.244 295.716 321.736 296.032 322.32 296.256C322.216 296.352 322.104 296.472 321.984 296.616C321.864 296.76 321.752 296.912 321.648 297.072C321.544 297.232 321.456 297.376 321.384 297.504C320.744 297.2 320.212 296.792 319.788 296.28C319.372 295.768 319.032 295.168 318.768 294.48C318.512 293.792 318.308 293.028 318.156 292.188L319.32 292.02ZM321.216 292.884L322.164 293.748C321.844 294.02 321.496 294.292 321.12 294.564C320.744 294.836 320.408 295.068 320.112 295.26L319.32 294.456C319.512 294.328 319.724 294.176 319.956 294C320.188 293.816 320.416 293.628 320.64 293.436C320.864 293.236 321.056 293.052 321.216 292.884ZM316.236 286.668H317.568V292.188H316.236V286.668ZM316.224 292.212H317.556V296.256L316.224 296.424V292.212Z" fill="#5F6367"/>
<path d="M10.1177 274.64H17.3897V275.804H10.1177V274.64ZM9.74569 281.66H17.5817V282.86H9.74569V281.66ZM13.0337 273.8H14.4257V276.92H13.0337V273.8ZM12.2897 278.516V278.996H15.1937V278.516H12.2897ZM12.2897 279.824V280.292H15.1937V279.824H12.2897ZM12.2897 277.244V277.7H15.1937V277.244H12.2897ZM10.9937 276.356H16.5617V281.168H10.9937V276.356ZM14.1737 283.472L15.1577 282.764C15.4617 282.932 15.7657 283.116 16.0697 283.316C16.3817 283.508 16.6777 283.7 16.9577 283.892C17.2377 284.084 17.4737 284.26 17.6657 284.42L16.3457 285.08C16.1857 284.928 15.9857 284.756 15.7457 284.564C15.5057 284.38 15.2497 284.192 14.9777 284C14.7057 283.808 14.4377 283.632 14.1737 283.472ZM11.9417 282.824L13.2977 283.292C12.9377 283.652 12.4937 283.992 11.9657 284.312C11.4377 284.632 10.9257 284.892 10.4297 285.092C10.3497 285.004 10.2457 284.896 10.1177 284.768C9.98969 284.64 9.85769 284.512 9.72169 284.384C9.59369 284.264 9.47369 284.164 9.36169 284.084C9.85769 283.94 10.3417 283.76 10.8137 283.544C11.2857 283.32 11.6617 283.08 11.9417 282.824ZM6.45769 276.668H10.0937V278.036H6.45769V276.668ZM7.68169 273.992H9.02569V281.96H7.68169V273.992ZM6.19369 281.84C6.52969 281.72 6.90969 281.58 7.33369 281.42C7.75769 281.252 8.20969 281.072 8.68969 280.88C9.16969 280.68 9.64569 280.48 10.1177 280.28L10.4417 281.612C9.81769 281.9 9.18169 282.192 8.53369 282.488C7.88569 282.784 7.28569 283.048 6.73369 283.28L6.19369 281.84ZM23.1977 273.812H24.6497V275.456H23.1977V273.812ZM18.7217 274.64H29.1377V277.112H27.7817V275.864H20.0297V277.112H18.7217V274.64ZM22.9217 275.984L23.7737 276.86C23.3657 277.028 22.9057 277.176 22.3937 277.304C21.8897 277.432 21.4137 277.532 20.9657 277.604C20.9337 277.484 20.8857 277.34 20.8217 277.172C20.7577 277.004 20.6937 276.856 20.6297 276.728C20.9017 276.672 21.1777 276.604 21.4577 276.524C21.7377 276.444 22.0057 276.36 22.2617 276.272C22.5257 276.176 22.7457 276.08 22.9217 275.984ZM20.1857 276.512L21.4577 276.74V279.968H20.1857V276.512ZM20.1857 279.38H26.3777V277.484H24.1937V276.512H27.6737V280.352H20.1857V279.38ZM20.5577 277.952H23.4497V278.9H20.5577V277.952ZM24.3857 277.952H26.9777V278.9H24.3857V277.952ZM21.7577 279.776L23.0417 280.16C22.7617 280.624 22.4177 281.06 22.0097 281.468C21.6017 281.868 21.1537 282.228 20.6657 282.548C20.1857 282.86 19.6897 283.128 19.1777 283.352C19.1217 283.264 19.0417 283.148 18.9377 283.004C18.8417 282.86 18.7377 282.72 18.6257 282.584C18.5217 282.44 18.4257 282.324 18.3377 282.236C18.8177 282.068 19.2737 281.864 19.7057 281.624C20.1457 281.384 20.5417 281.108 20.8937 280.796C21.2537 280.484 21.5417 280.144 21.7577 279.776ZM21.5657 280.892H27.8417V282.032H20.4377L21.5657 280.892ZM27.3977 280.892H28.8137C28.8137 280.892 28.8097 280.956 28.8017 281.084C28.8017 281.212 28.7977 281.316 28.7897 281.396C28.7657 282.06 28.7297 282.608 28.6817 283.04C28.6337 283.464 28.5737 283.8 28.5017 284.048C28.4377 284.296 28.3537 284.476 28.2497 284.588C28.1217 284.732 27.9817 284.832 27.8297 284.888C27.6857 284.952 27.5217 284.992 27.3377 285.008C27.1777 285.032 26.9617 285.044 26.6897 285.044C26.4257 285.052 26.1417 285.048 25.8377 285.032C25.8297 284.84 25.7897 284.624 25.7177 284.384C25.6457 284.152 25.5577 283.956 25.4537 283.796C25.7097 283.82 25.9457 283.836 26.1617 283.844C26.3777 283.852 26.5377 283.852 26.6417 283.844C26.7297 283.844 26.8057 283.84 26.8697 283.832C26.9337 283.816 26.9897 283.78 27.0377 283.724C27.1017 283.66 27.1537 283.536 27.1937 283.352C27.2417 283.16 27.2817 282.88 27.3137 282.512C27.3457 282.144 27.3737 281.664 27.3977 281.072V280.892ZM20.3297 282.248L21.4697 282.584C21.3817 283.024 21.2617 283.452 21.1097 283.868C20.9577 284.284 20.7337 284.632 20.4377 284.912L19.3697 284.312C19.6257 284.064 19.8297 283.756 19.9817 283.388C20.1417 283.02 20.2577 282.64 20.3297 282.248ZM21.8297 282.548L22.9097 282.428C23.0217 282.772 23.1097 283.144 23.1737 283.544C23.2457 283.936 23.2777 284.272 23.2697 284.552L22.1297 284.708C22.1377 284.428 22.1137 284.088 22.0577 283.688C22.0097 283.28 21.9337 282.9 21.8297 282.548ZM23.4617 282.572L24.4577 282.32C24.6177 282.6 24.7537 282.904 24.8657 283.232C24.9857 283.552 25.0617 283.832 25.0937 284.072L24.0257 284.348C24.0017 284.108 23.9337 283.824 23.8217 283.496C23.7177 283.16 23.5977 282.852 23.4617 282.572ZM25.0337 282.512L25.9577 282.116C26.1177 282.284 26.2737 282.48 26.4257 282.704C26.5857 282.92 26.7017 283.112 26.7737 283.28L25.8017 283.724C25.7377 283.548 25.6297 283.348 25.4777 283.124C25.3337 282.892 25.1857 282.688 25.0337 282.512ZM35.0657 275.084H41.2097V276.332H35.0657V275.084ZM34.6697 277.388H41.5577V278.648H34.6697V277.388ZM34.6937 279.668H41.4737V280.928H34.6937V279.668ZM37.3817 273.788H38.8097V278.204H37.3817V273.788ZM38.9057 278.588H40.3217V283.556C40.3217 283.9 40.2777 284.168 40.1897 284.36C40.1017 284.56 39.9417 284.716 39.7097 284.828C39.4777 284.932 39.1937 284.996 38.8577 285.02C38.5297 285.052 38.1417 285.068 37.6937 285.068C37.6617 284.868 37.6017 284.636 37.5137 284.372C37.4257 284.116 37.3337 283.896 37.2377 283.712C37.5337 283.72 37.8217 283.728 38.1017 283.736C38.3817 283.736 38.5697 283.736 38.6657 283.736C38.7537 283.736 38.8137 283.724 38.8457 283.7C38.8857 283.668 38.9057 283.608 38.9057 283.52V278.588ZM35.1737 281.744L36.3137 281.084C36.5057 281.268 36.6977 281.476 36.8897 281.708C37.0817 281.94 37.2577 282.172 37.4177 282.404C37.5777 282.636 37.7017 282.848 37.7897 283.04L36.5417 283.772C36.4777 283.58 36.3697 283.368 36.2177 283.136C36.0657 282.896 35.8977 282.656 35.7137 282.416C35.5377 282.168 35.3577 281.944 35.1737 281.744ZM31.3697 274.544H34.4537V282.752H31.3697V281.468H33.1217V275.828H31.3697V274.544ZM31.4417 277.952H33.7697V279.212H31.4417V277.952ZM30.6857 274.544H32.0177V283.82H30.6857V274.544ZM46.2857 281.132H49.5617V282.152H46.2857V281.132ZM46.2017 279.344H50.2457V283.964H46.2017V282.896H48.8897V280.412H46.2017V279.344ZM45.6017 279.344H46.9097V284.576H45.6017V279.344ZM43.5977 275.936H46.5977V276.908H43.5977V275.936ZM49.1657 275.936H52.1897V276.908H49.1657V275.936ZM51.6017 274.268H53.0537V283.376C53.0537 283.76 53.0097 284.064 52.9217 284.288C52.8337 284.512 52.6697 284.684 52.4297 284.804C52.1817 284.924 51.8777 285 51.5177 285.032C51.1657 285.064 50.7297 285.08 50.2097 285.08C50.1937 284.936 50.1617 284.776 50.1137 284.6C50.0657 284.424 50.0097 284.244 49.9457 284.06C49.8817 283.884 49.8137 283.732 49.7417 283.604C49.9577 283.62 50.1697 283.632 50.3777 283.64C50.5937 283.64 50.7857 283.64 50.9537 283.64C51.1297 283.632 51.2497 283.628 51.3137 283.628C51.4257 283.628 51.5017 283.608 51.5417 283.568C51.5817 283.528 51.6017 283.456 51.6017 283.352V274.268ZM43.7057 274.268H47.5097V278.624H43.7057V277.592H46.1537V275.312H43.7057V274.268ZM52.3697 274.268V275.312H49.6817V277.616H52.3697V278.648H48.3137V274.268H52.3697ZM42.8777 274.268H44.3057V285.08H42.8777V274.268Z" fill="#5F6367"/>
</g>
<defs>
<clipPath id="clip0_1828_5111">
<rect width="493" height="367.424" fill="white"/>
</clipPath>
</defs>
</svg>
