<svg width="348" height="283" viewBox="0 0 348 283" fill="none" xmlns="http://www.w3.org/2000/svg">
<path d="M7.97159 3.27273V12H6.91477V4.38068H6.86364L4.73295 5.79545V4.72159L6.91477 3.27273H7.97159ZM13.3281 12.1193C12.6861 12.1193 12.1392 11.9446 11.6875 11.5952C11.2358 11.2429 10.8906 10.733 10.652 10.0653C10.4134 9.39489 10.294 8.58523 10.294 7.63636C10.294 6.69318 10.4134 5.88778 10.652 5.22017C10.8935 4.54972 11.2401 4.03835 11.6918 3.68608C12.1463 3.33097 12.6918 3.15341 13.3281 3.15341C13.9645 3.15341 14.5085 3.33097 14.9602 3.68608C15.4148 4.03835 15.7614 4.54972 16 5.22017C16.2415 5.88778 16.3622 6.69318 16.3622 7.63636C16.3622 8.58523 16.2429 9.39489 16.0043 10.0653C15.7656 10.733 15.4205 11.2429 14.9688 11.5952C14.517 11.9446 13.9702 12.1193 13.3281 12.1193ZM13.3281 11.1818C13.9645 11.1818 14.4588 10.875 14.8111 10.2614C15.1634 9.64773 15.3395 8.77273 15.3395 7.63636C15.3395 6.88068 15.2585 6.23722 15.0966 5.70597C14.9375 5.17472 14.7074 4.76989 14.4062 4.49148C14.108 4.21307 13.7486 4.07386 13.3281 4.07386C12.6974 4.07386 12.2045 4.38494 11.8494 5.0071C11.4943 5.62642 11.3168 6.50284 11.3168 7.63636C11.3168 8.39205 11.3963 9.03409 11.5554 9.5625C11.7145 10.0909 11.9432 10.4929 12.2415 10.7685C12.5426 11.044 12.9048 11.1818 13.3281 11.1818ZM20.8281 12.1193C20.1861 12.1193 19.6392 11.9446 19.1875 11.5952C18.7358 11.2429 18.3906 10.733 18.152 10.0653C17.9134 9.39489 17.794 8.58523 17.794 7.63636C17.794 6.69318 17.9134 5.88778 18.152 5.22017C18.3935 4.54972 18.7401 4.03835 19.1918 3.68608C19.6463 3.33097 20.1918 3.15341 20.8281 3.15341C21.4645 3.15341 22.0085 3.33097 22.4602 3.68608C22.9148 4.03835 23.2614 4.54972 23.5 5.22017C23.7415 5.88778 23.8622 6.69318 23.8622 7.63636C23.8622 8.58523 23.7429 9.39489 23.5043 10.0653C23.2656 10.733 22.9205 11.2429 22.4688 11.5952C22.017 11.9446 21.4702 12.1193 20.8281 12.1193ZM20.8281 11.1818C21.4645 11.1818 21.9588 10.875 22.3111 10.2614C22.6634 9.64773 22.8395 8.77273 22.8395 7.63636C22.8395 6.88068 22.7585 6.23722 22.5966 5.70597C22.4375 5.17472 22.2074 4.76989 21.9062 4.49148C21.608 4.21307 21.2486 4.07386 20.8281 4.07386C20.1974 4.07386 19.7045 4.38494 19.3494 5.0071C18.9943 5.62642 18.8168 6.50284 18.8168 7.63636C18.8168 8.39205 18.8963 9.03409 19.0554 9.5625C19.2145 10.0909 19.4432 10.4929 19.7415 10.7685C20.0426 11.044 20.4048 11.1818 20.8281 11.1818Z" fill="black" fill-opacity="0.7"/>
<path d="M13.6989 54.6642C13.1136 54.6642 12.5966 54.5605 12.1477 54.3532C11.7017 54.1429 11.3537 53.8546 11.1037 53.4881C10.8537 53.1188 10.7301 52.6983 10.733 52.2267C10.7301 51.8574 10.8026 51.5165 10.9503 51.204C11.098 50.8887 11.2997 50.6259 11.5554 50.4157C11.8139 50.2026 12.1023 50.0676 12.4205 50.0108V49.9597C12.0028 49.8517 11.6705 49.6174 11.4233 49.2566C11.1761 48.8929 11.054 48.4796 11.0568 48.0165C11.054 47.5733 11.1662 47.177 11.3935 46.8276C11.6207 46.4782 11.9332 46.2026 12.331 46.0009C12.7315 45.7992 13.1875 45.6983 13.6989 45.6983C14.2045 45.6983 14.6563 45.7992 15.054 46.0009C15.4517 46.2026 15.7642 46.4782 15.9915 46.8276C16.2216 47.177 16.3381 47.5733 16.3409 48.0165C16.3381 48.4796 16.2116 48.8929 15.9616 49.2566C15.7145 49.6174 15.3864 49.8517 14.9773 49.9597V50.0108C15.2926 50.0676 15.5767 50.2026 15.8295 50.4157C16.0824 50.6259 16.2841 50.8887 16.4347 51.204C16.5852 51.5165 16.6619 51.8574 16.6648 52.2267C16.6619 52.6983 16.5341 53.1188 16.2812 53.4881C16.0312 53.8546 15.6832 54.1429 15.2372 54.3532C14.794 54.5605 14.2813 54.6642 13.6989 54.6642ZM13.6989 53.7267C14.0938 53.7267 14.4347 53.6628 14.7216 53.535C15.0085 53.4071 15.2301 53.2267 15.3864 52.9938C15.5426 52.7608 15.6222 52.4881 15.625 52.1756C15.6222 51.8461 15.5369 51.5549 15.3693 51.302C15.2017 51.0492 14.973 50.8503 14.6832 50.7054C14.3963 50.5605 14.0682 50.4881 13.6989 50.4881C13.3267 50.4881 12.9943 50.5605 12.7017 50.7054C12.4119 50.8503 12.1832 51.0492 12.0156 51.302C11.8509 51.5549 11.7699 51.8461 11.7727 52.1756C11.7699 52.4881 11.8452 52.7608 11.9986 52.9938C12.1548 53.2267 12.3778 53.4071 12.6676 53.535C12.9574 53.6628 13.3011 53.7267 13.6989 53.7267ZM13.6989 49.5847C14.0114 49.5847 14.2884 49.5222 14.5298 49.3972C14.7741 49.2722 14.9659 49.0975 15.1051 48.873C15.2443 48.6486 15.3153 48.3858 15.3182 48.0847C15.3153 47.7892 15.2457 47.5321 15.1094 47.3134C14.973 47.0918 14.7841 46.9213 14.5426 46.802C14.3011 46.6799 14.0199 46.6188 13.6989 46.6188C13.3722 46.6188 13.0866 46.6799 12.8423 46.802C12.598 46.9213 12.4091 47.0918 12.2756 47.3134C12.142 47.5321 12.0767 47.7892 12.0795 48.0847C12.0767 48.3858 12.1435 48.6486 12.2798 48.873C12.419 49.0975 12.6108 49.2722 12.8551 49.3972C13.0994 49.5222 13.3807 49.5847 13.6989 49.5847ZM21.1445 54.6642C20.5025 54.6642 19.9556 54.4895 19.5039 54.1401C19.0522 53.7878 18.707 53.2779 18.4684 52.6103C18.2298 51.9398 18.1104 51.1301 18.1104 50.1813C18.1104 49.2381 18.2298 48.4327 18.4684 47.7651C18.7099 47.0946 19.0565 46.5833 19.5082 46.231C19.9627 45.8759 20.5082 45.6983 21.1445 45.6983C21.7809 45.6983 22.3249 45.8759 22.7766 46.231C23.2312 46.5833 23.5778 47.0946 23.8164 47.7651C24.0579 48.4327 24.1786 49.2381 24.1786 50.1813C24.1786 51.1301 24.0593 51.9398 23.8207 52.6103C23.582 53.2779 23.2369 53.7878 22.7852 54.1401C22.3335 54.4895 21.7866 54.6642 21.1445 54.6642ZM21.1445 53.7267C21.7809 53.7267 22.2752 53.4199 22.6275 52.8063C22.9798 52.1926 23.1559 51.3176 23.1559 50.1813C23.1559 49.4256 23.0749 48.7821 22.913 48.2509C22.7539 47.7196 22.5238 47.3148 22.2227 47.0364C21.9244 46.758 21.565 46.6188 21.1445 46.6188C20.5138 46.6188 20.021 46.9299 19.6658 47.552C19.3107 48.1713 19.1332 49.0478 19.1332 50.1813C19.1332 50.937 19.2127 51.579 19.3718 52.1074C19.5309 52.6358 19.7596 53.0378 20.0579 53.3134C20.359 53.589 20.7212 53.7267 21.1445 53.7267Z" fill="black" fill-opacity="0.7"/>
<path d="M13.8011 97.2092C13.4432 97.2035 13.0852 97.1353 12.7273 97.0046C12.3693 96.8739 12.0426 96.6538 11.7472 96.3441C11.4517 96.0316 11.2145 95.6097 11.0355 95.0785C10.8565 94.5444 10.767 93.8739 10.767 93.0671C10.767 92.2944 10.8395 91.6097 10.9844 91.0131C11.1293 90.4137 11.3395 89.9094 11.6151 89.5004C11.8906 89.0884 12.223 88.7759 12.6122 88.5629C13.0043 88.3498 13.446 88.2433 13.9375 88.2433C14.4261 88.2433 14.8608 88.3413 15.2415 88.5373C15.625 88.7305 15.9375 89.0004 16.179 89.3469C16.4205 89.6935 16.5767 90.0927 16.6477 90.5444H15.608C15.5114 90.1523 15.3239 89.8271 15.0455 89.5685C14.767 89.31 14.3977 89.1808 13.9375 89.1808C13.2614 89.1808 12.7287 89.4748 12.3395 90.0629C11.9531 90.6509 11.7585 91.4762 11.7557 92.5387H11.8239C11.983 92.2972 12.1719 92.0913 12.3906 91.9208C12.6122 91.7475 12.8565 91.614 13.1236 91.5202C13.3906 91.4265 13.6733 91.3796 13.9716 91.3796C14.4716 91.3796 14.929 91.5046 15.3438 91.7546C15.7585 92.0018 16.0909 92.3441 16.3409 92.7816C16.5909 93.2163 16.7159 93.7148 16.7159 94.2773C16.7159 94.8171 16.5952 95.3114 16.3537 95.7603C16.1122 96.2063 15.7727 96.5614 15.3352 96.8256C14.9006 97.087 14.3892 97.2148 13.8011 97.2092ZM13.8011 96.2717C14.1591 96.2717 14.4801 96.1822 14.7642 96.0032C15.0511 95.8242 15.277 95.5842 15.4418 95.283C15.6094 94.9819 15.6932 94.6467 15.6932 94.2773C15.6932 93.9165 15.6122 93.5884 15.4503 93.293C15.2912 92.9947 15.071 92.7575 14.7898 92.5813C14.5114 92.4052 14.1932 92.3171 13.8352 92.3171C13.5653 92.3171 13.3139 92.3711 13.081 92.479C12.848 92.5842 12.6435 92.729 12.4673 92.9137C12.294 93.0984 12.1577 93.31 12.0582 93.5487C11.9588 93.7844 11.9091 94.033 11.9091 94.2944C11.9091 94.641 11.9901 94.9648 12.152 95.266C12.3168 95.5671 12.5412 95.81 12.8253 95.9947C13.1122 96.1793 13.4375 96.2717 13.8011 96.2717ZM21.2383 97.2092C20.5962 97.2092 20.0494 97.0344 19.5977 96.685C19.146 96.3327 18.8008 95.8228 18.5621 95.1552C18.3235 94.4847 18.2042 93.6751 18.2042 92.7262C18.2042 91.783 18.3235 90.9776 18.5621 90.31C18.8036 89.6396 19.1502 89.1282 19.6019 88.7759C20.0565 88.4208 20.6019 88.2433 21.2383 88.2433C21.8746 88.2433 22.4187 88.4208 22.8704 88.7759C23.3249 89.1282 23.6715 89.6396 23.9102 90.31C24.1516 90.9776 24.2724 91.783 24.2724 92.7262C24.2724 93.6751 24.1531 94.4847 23.9144 95.1552C23.6758 95.8228 23.3306 96.3327 22.8789 96.685C22.4272 97.0344 21.8803 97.2092 21.2383 97.2092ZM21.2383 96.2717C21.8746 96.2717 22.369 95.9648 22.7212 95.3512C23.0735 94.7376 23.2496 93.8626 23.2496 92.7262C23.2496 91.9705 23.1687 91.3271 23.0067 90.7958C22.8477 90.2646 22.6175 89.8597 22.3164 89.5813C22.0181 89.3029 21.6587 89.1637 21.2383 89.1637C20.6076 89.1637 20.1147 89.4748 19.7596 90.0969C19.4045 90.7163 19.2269 91.5927 19.2269 92.7262C19.2269 93.4819 19.3065 94.1239 19.4656 94.6523C19.6246 95.1808 19.8533 95.5827 20.1516 95.8583C20.4528 96.1339 20.815 96.2717 21.2383 96.2717Z" fill="black" fill-opacity="0.7"/>
<path d="M9.69886 137.845V136.976L13.5341 130.907H14.1648V132.254H13.7386L10.8409 136.839V136.907H16.0057V137.845H9.69886ZM13.8068 139.635V137.581V137.176V130.907H14.8125V139.635H13.8068ZM20.4492 139.754C19.8072 139.754 19.2603 139.579 18.8086 139.23C18.3569 138.878 18.0117 138.368 17.7731 137.7C17.5344 137.03 17.4151 136.22 17.4151 135.271C17.4151 134.328 17.5344 133.523 17.7731 132.855C18.0146 132.184 18.3612 131.673 18.8129 131.321C19.2674 130.966 19.8129 130.788 20.4492 130.788C21.0856 130.788 21.6296 130.966 22.0813 131.321C22.5359 131.673 22.8825 132.184 23.1211 132.855C23.3626 133.523 23.4833 134.328 23.4833 135.271C23.4833 136.22 23.364 137.03 23.1254 137.7C22.8867 138.368 22.5415 138.878 22.0898 139.23C21.6381 139.579 21.0913 139.754 20.4492 139.754ZM20.4492 138.817C21.0856 138.817 21.5799 138.51 21.9322 137.896C22.2844 137.282 22.4606 136.407 22.4606 135.271C22.4606 134.515 22.3796 133.872 22.2177 133.341C22.0586 132.809 21.8285 132.405 21.5273 132.126C21.229 131.848 20.8697 131.709 20.4492 131.709C19.8185 131.709 19.3256 132.02 18.9705 132.642C18.6154 133.261 18.4379 134.138 18.4379 135.271C18.4379 136.027 18.5174 136.669 18.6765 137.197C18.8356 137.726 19.0643 138.128 19.3626 138.403C19.6637 138.679 20.0259 138.817 20.4492 138.817Z" fill="black" fill-opacity="0.7"/>
<path d="M10.9034 182.18V181.413L13.7841 178.259C14.1222 177.89 14.4006 177.569 14.6193 177.296C14.8381 177.021 15 176.762 15.1051 176.521C15.2131 176.276 15.267 176.021 15.267 175.754C15.267 175.447 15.1932 175.181 15.0455 174.957C14.9006 174.732 14.7017 174.559 14.4489 174.437C14.196 174.315 13.9119 174.254 13.5966 174.254C13.2614 174.254 12.9688 174.323 12.7188 174.462C12.4716 174.599 12.2798 174.79 12.1435 175.038C12.0099 175.285 11.9432 175.575 11.9432 175.907H10.9375C10.9375 175.396 11.0554 174.947 11.2912 174.56C11.527 174.174 11.848 173.873 12.2543 173.657C12.6634 173.441 13.1222 173.333 13.6307 173.333C14.142 173.333 14.5952 173.441 14.9901 173.657C15.3849 173.873 15.6946 174.164 15.919 174.531C16.1435 174.897 16.2557 175.305 16.2557 175.754C16.2557 176.075 16.1974 176.388 16.081 176.695C15.9673 176.999 15.7685 177.339 15.4844 177.714C15.2031 178.086 14.8125 178.54 14.3125 179.077L12.3523 181.174V181.242H16.4091V182.18H10.9034ZM21.0156 182.299C20.3736 182.299 19.8267 182.124 19.375 181.775C18.9233 181.423 18.5781 180.913 18.3395 180.245C18.1009 179.575 17.9815 178.765 17.9815 177.816C17.9815 176.873 18.1009 176.067 18.3395 175.4C18.581 174.729 18.9276 174.218 19.3793 173.866C19.8338 173.511 20.3793 173.333 21.0156 173.333C21.652 173.333 22.196 173.511 22.6477 173.866C23.1023 174.218 23.4489 174.729 23.6875 175.4C23.929 176.067 24.0497 176.873 24.0497 177.816C24.0497 178.765 23.9304 179.575 23.6918 180.245C23.4531 180.913 23.108 181.423 22.6562 181.775C22.2045 182.124 21.6577 182.299 21.0156 182.299ZM21.0156 181.362C21.652 181.362 22.1463 181.055 22.4986 180.441C22.8509 179.827 23.027 178.952 23.027 177.816C23.027 177.06 22.946 176.417 22.7841 175.886C22.625 175.354 22.3949 174.95 22.0938 174.671C21.7955 174.393 21.4361 174.254 21.0156 174.254C20.3849 174.254 19.892 174.565 19.5369 175.187C19.1818 175.806 19.0043 176.683 19.0043 177.816C19.0043 178.572 19.0838 179.214 19.2429 179.742C19.402 180.271 19.6307 180.673 19.929 180.948C20.2301 181.224 20.5923 181.362 21.0156 181.362Z" fill="black" fill-opacity="0.7"/>
<path d="M20.75 224.843C20.108 224.843 19.5611 224.669 19.1094 224.319C18.6577 223.967 18.3125 223.457 18.0739 222.789C17.8352 222.119 17.7159 221.309 17.7159 220.36C17.7159 219.417 17.8352 218.612 18.0739 217.944C18.3153 217.274 18.6619 216.762 19.1136 216.41C19.5682 216.055 20.1136 215.878 20.75 215.878C21.3864 215.878 21.9304 216.055 22.3821 216.41C22.8366 216.762 23.1832 217.274 23.4219 217.944C23.6634 218.612 23.7841 219.417 23.7841 220.36C23.7841 221.309 23.6648 222.119 23.4261 222.789C23.1875 223.457 22.8423 223.967 22.3906 224.319C21.9389 224.669 21.392 224.843 20.75 224.843ZM20.75 223.906C21.3864 223.906 21.8807 223.599 22.233 222.985C22.5852 222.372 22.7614 221.497 22.7614 220.36C22.7614 219.605 22.6804 218.961 22.5185 218.43C22.3594 217.899 22.1293 217.494 21.8281 217.216C21.5298 216.937 21.1705 216.798 20.75 216.798C20.1193 216.798 19.6264 217.109 19.2713 217.731C18.9162 218.351 18.7386 219.227 18.7386 220.36C18.7386 221.116 18.8182 221.758 18.9773 222.287C19.1364 222.815 19.3651 223.217 19.6634 223.493C19.9645 223.768 20.3267 223.906 20.75 223.906Z" fill="black" fill-opacity="0.7"/>
<line x1="30" y1="5.5" x2="347" y2="5.5" stroke="#00001A" stroke-opacity="0.15" stroke-dasharray="2"/>
<line x1="30" y1="48.7002" x2="347" y2="48.7002" stroke="#00001A" stroke-opacity="0.15" stroke-dasharray="2"/>
<line x1="30" y1="91.8999" x2="347" y2="91.8999" stroke="#00001A" stroke-opacity="0.15" stroke-dasharray="2"/>
<line x1="30" y1="135.1" x2="347" y2="135.1" stroke="#00001A" stroke-opacity="0.15" stroke-dasharray="2"/>
<line x1="30" y1="178.3" x2="347" y2="178.3" stroke="#00001A" stroke-opacity="0.15" stroke-dasharray="2"/>
<line x1="30" y1="221.5" x2="347" y2="221.5" stroke="#00001A" stroke-opacity="0.3"/>
<line x1="29.5" y1="222" x2="29.5" y2="6" stroke="#00001A" stroke-opacity="0.15" stroke-dasharray="2"/>
<line x1="82.333" y1="222" x2="82.333" y2="6" stroke="#00001A" stroke-opacity="0.15" stroke-dasharray="2"/>
<line x1="135.167" y1="222" x2="135.167" y2="6" stroke="#00001A" stroke-opacity="0.15" stroke-dasharray="2"/>
<line x1="188" y1="222" x2="188" y2="6" stroke="#00001A" stroke-opacity="0.15" stroke-dasharray="2"/>
<line x1="240.833" y1="222" x2="240.833" y2="6" stroke="#00001A" stroke-opacity="0.15" stroke-dasharray="2"/>
<line x1="293.667" y1="222" x2="293.667" y2="6" stroke="#00001A" stroke-opacity="0.15" stroke-dasharray="2"/>
<line x1="346.5" y1="222" x2="346.5" y2="6" stroke="#00001A" stroke-opacity="0.15" stroke-dasharray="2"/>
<g opacity="0.2">
<rect opacity="0.6" x="40" y="6" width="27" height="215.362" fill="#5EACE8"/>
<rect x="40" y="6" width="27" height="3" fill="#5EACE8"/>
</g>
<rect opacity="0.6" x="40" y="156.307" width="27" height="64.4173" fill="#5EACE8"/>
<rect x="40" y="156.307" width="27" height="3" fill="#5EACE8"/>
<path d="M49.3782 154.407C48.9094 154.407 48.4916 154.326 48.1246 154.165C47.7601 154.004 47.4701 153.78 47.2546 153.494C47.0415 153.205 46.9255 152.87 46.9066 152.489H47.8015C47.8204 152.723 47.9009 152.926 48.043 153.096C48.185 153.264 48.3709 153.394 48.6005 153.487C48.8301 153.579 49.0846 153.625 49.364 153.625C49.6765 153.625 49.9535 153.571 50.195 153.462C50.4364 153.353 50.6258 153.202 50.7631 153.007C50.9004 152.813 50.9691 152.588 50.9691 152.333C50.9691 152.065 50.9028 151.83 50.7702 151.626C50.6377 151.42 50.4435 151.259 50.1879 151.143C49.9322 151.027 49.6197 150.969 49.2504 150.969H48.668V150.188H49.2504C49.5392 150.188 49.7925 150.136 50.0103 150.032C50.2305 149.927 50.4021 149.781 50.5252 149.591C50.6507 149.402 50.7134 149.179 50.7134 148.924C50.7134 148.677 50.659 148.463 50.5501 148.281C50.4412 148.099 50.2873 147.957 50.0884 147.855C49.8919 147.753 49.6599 147.702 49.3924 147.702C49.1415 147.702 48.9047 147.748 48.6822 147.841C48.462 147.93 48.2821 148.062 48.1424 148.235C48.0027 148.405 47.927 148.611 47.9151 148.853H47.0629C47.0771 148.471 47.1919 148.138 47.4073 147.851C47.6228 147.562 47.9045 147.337 48.2525 147.176C48.6029 147.015 48.9876 146.935 49.4066 146.935C49.8564 146.935 50.2423 147.026 50.5643 147.208C50.8862 147.388 51.1336 147.626 51.3065 147.922C51.4793 148.218 51.5657 148.538 51.5657 148.881C51.5657 149.291 51.458 149.64 51.2425 149.929C51.0295 150.217 50.7395 150.417 50.3725 150.529V150.586C50.8318 150.661 51.1905 150.857 51.4485 151.171C51.7066 151.484 51.8356 151.871 51.8356 152.333C51.8356 152.728 51.7279 153.083 51.5124 153.398C51.2994 153.711 51.0082 153.957 50.6388 154.137C50.2695 154.317 49.8493 154.407 49.3782 154.407ZM55.6602 154.407C55.1251 154.407 54.6694 154.261 54.293 153.97C53.9165 153.676 53.6289 153.251 53.43 152.695C53.2312 152.136 53.1317 151.461 53.1317 150.671C53.1317 149.885 53.2312 149.214 53.43 148.657C53.6313 148.099 53.9201 147.672 54.2965 147.379C54.6753 147.083 55.1299 146.935 55.6602 146.935C56.1905 146.935 56.6438 147.083 57.0202 147.379C57.399 147.672 57.6879 148.099 57.8867 148.657C58.0879 149.214 58.1886 149.885 58.1886 150.671C58.1886 151.461 58.0891 152.136 57.8903 152.695C57.6914 153.251 57.4038 153.676 57.0273 153.97C56.6509 154.261 56.1952 154.407 55.6602 154.407ZM55.6602 153.625C56.1905 153.625 56.6024 153.37 56.896 152.858C57.1895 152.347 57.3363 151.618 57.3363 150.671C57.3363 150.041 57.2688 149.505 57.1339 149.062C57.0013 148.619 56.8095 148.282 56.5586 148.05C56.31 147.818 56.0105 147.702 55.6602 147.702C55.1346 147.702 54.7238 147.961 54.4279 148.48C54.132 148.996 53.984 149.726 53.984 150.671C53.984 151.3 54.0503 151.836 54.1829 152.276C54.3155 152.716 54.506 153.051 54.7546 153.281C55.0056 153.51 55.3074 153.625 55.6602 153.625Z" fill="black" fill-opacity="0.7"/>
<g opacity="0.2">
<rect opacity="0.6" x="68.7773" y="6" width="27" height="215.362" fill="#FF928A"/>
<rect x="68.7773" y="6" width="27" height="3" fill="#FF928A"/>
</g>
<rect opacity="0.6" x="68.7773" y="158.454" width="27" height="62.2701" fill="#FF928A"/>
<rect x="68.7773" y="158.454" width="27" height="3" fill="#FF928A"/>
<path d="M75.6982 156.454V155.815L78.0987 153.187C78.3804 152.879 78.6125 152.612 78.7947 152.384C78.977 152.155 79.112 151.939 79.1996 151.738C79.2895 151.535 79.3345 151.322 79.3345 151.099C79.3345 150.843 79.273 150.622 79.1499 150.435C79.0291 150.248 78.8634 150.103 78.6527 150.002C78.442 149.9 78.2053 149.849 77.9425 149.849C77.6631 149.849 77.4193 149.907 77.2109 150.023C77.005 150.137 76.8452 150.296 76.7315 150.502C76.6203 150.708 76.5646 150.95 76.5646 151.227H75.7266C75.7266 150.801 75.8248 150.427 76.0213 150.105C76.2178 149.783 76.4853 149.532 76.8239 149.352C77.1648 149.172 77.5471 149.082 77.9709 149.082C78.397 149.082 78.7746 149.172 79.1037 149.352C79.4328 149.532 79.6908 149.774 79.8778 150.08C80.0649 150.385 80.1584 150.725 80.1584 151.099C80.1584 151.367 80.1098 151.628 80.0128 151.884C79.9181 152.137 79.7524 152.42 79.5156 152.733C79.2812 153.043 78.9557 153.421 78.5391 153.869L76.9055 155.616V155.673H80.2862V156.454H75.6982ZM84.0682 149.082C84.3665 149.084 84.6648 149.141 84.9631 149.252C85.2614 149.364 85.5336 149.548 85.7798 149.806C86.026 150.062 86.2237 150.411 86.3729 150.854C86.522 151.297 86.5966 151.852 86.5966 152.519C86.5966 153.166 86.535 153.74 86.4119 154.242C86.2912 154.741 86.116 155.163 85.8864 155.506C85.6591 155.849 85.3821 156.11 85.0554 156.287C84.7311 156.465 84.3641 156.554 83.9545 156.554C83.5473 156.554 83.1839 156.473 82.8643 156.312C82.5471 156.149 82.2867 155.923 82.0831 155.634C81.8819 155.343 81.7528 155.005 81.696 154.622H82.5625C82.6406 154.956 82.7957 155.231 83.0277 155.449C83.2621 155.665 83.571 155.772 83.9545 155.772C84.5156 155.772 84.9583 155.527 85.2827 155.037C85.6094 154.547 85.7727 153.855 85.7727 152.96H85.7159C85.5833 153.159 85.4259 153.33 85.2436 153.475C85.0613 153.619 84.8589 153.73 84.6364 153.809C84.4138 153.887 84.1771 153.926 83.9261 153.926C83.5095 153.926 83.1271 153.823 82.7791 153.617C82.4335 153.408 82.1565 153.123 81.9482 152.761C81.7422 152.396 81.6392 151.98 81.6392 151.511C81.6392 151.066 81.7386 150.659 81.9375 150.289C82.1387 149.918 82.4205 149.622 82.7827 149.402C83.1473 149.181 83.5758 149.075 84.0682 149.082ZM84.0682 149.863C83.7699 149.863 83.5012 149.938 83.2621 150.087C83.0253 150.234 82.8371 150.433 82.6974 150.684C82.5601 150.932 82.4915 151.208 82.4915 151.511C82.4915 151.814 82.5578 152.09 82.6903 152.338C82.8253 152.585 83.0088 152.781 83.2408 152.928C83.4751 153.072 83.7415 153.144 84.0398 153.144C84.2647 153.144 84.4742 153.101 84.6683 153.013C84.8625 152.923 85.0317 152.801 85.1761 152.647C85.3229 152.491 85.4377 152.315 85.5206 152.118C85.6035 151.919 85.6449 151.712 85.6449 151.497C85.6449 151.213 85.5762 150.946 85.4389 150.698C85.304 150.449 85.117 150.248 84.8778 150.094C84.6411 149.94 84.3712 149.863 84.0682 149.863Z" fill="black" fill-opacity="0.7"/>
<g opacity="0.2">
<rect opacity="0.6" x="97.5557" y="6" width="27" height="215.362" fill="#3CC3DF"/>
<rect x="97.5557" y="6" width="27" height="3" fill="#3CC3DF"/>
</g>
<rect opacity="0.6" x="97.5557" y="126.246" width="27" height="94.4787" fill="#3CC3DF"/>
<rect x="97.5557" y="126.246" width="27" height="3" fill="#3CC3DF"/>
<path d="M104.306 122.754V122.03L107.502 116.973H108.028V118.095H107.672L105.258 121.916V121.973H109.562V122.754H104.306ZM107.729 124.246V122.534V122.197V116.973H108.567V124.246H107.729ZM110.722 122.754V122.03L113.918 116.973H114.444V118.095H114.089L111.674 121.916V121.973H115.978V122.754H110.722ZM114.145 124.246V122.534V122.197V116.973H114.983V124.246H114.145Z" fill="black" fill-opacity="0.7"/>
<g opacity="0.2">
<rect opacity="0.6" x="146.333" y="6" width="27" height="215.362" fill="#5EACE8"/>
<rect x="146.333" y="6" width="27" height="3" fill="#5EACE8"/>
</g>
<rect opacity="0.6" x="146.333" y="51.0923" width="27" height="169.632" fill="#5EACE8"/>
<rect x="146.333" y="51.0923" width="27" height="3" fill="#5EACE8"/>
<path d="M154.96 49.0923L158.212 42.6576V42.6008H154.462V41.8196H159.122V42.6434L155.883 49.0923H154.96ZM162.663 41.7201C162.961 41.7225 163.259 41.7793 163.558 41.8906C163.856 42.0018 164.128 42.1865 164.375 42.4446C164.621 42.7002 164.818 43.0494 164.968 43.4921C165.117 43.9349 165.191 44.49 165.191 45.1576C165.191 45.8039 165.13 46.378 165.007 46.8799C164.886 47.3795 164.711 47.8009 164.481 48.1441C164.254 48.4874 163.977 48.7478 163.65 48.9254C163.326 49.1029 162.959 49.1917 162.549 49.1917C162.142 49.1917 161.779 49.1112 161.459 48.9502C161.142 48.7869 160.881 48.5608 160.678 48.272C160.477 47.9808 160.348 47.6434 160.291 47.2599H161.157C161.235 47.5937 161.39 47.8695 161.622 48.0873C161.857 48.3027 162.166 48.4105 162.549 48.4105C163.11 48.4105 163.553 48.1654 163.877 47.6754C164.204 47.1853 164.367 46.4929 164.367 45.598H164.311C164.178 45.7968 164.021 45.9685 163.838 46.1129C163.656 46.2573 163.454 46.3686 163.231 46.4467C163.009 46.5248 162.772 46.5639 162.521 46.5639C162.104 46.5639 161.722 46.4609 161.374 46.2549C161.028 46.0466 160.751 45.7613 160.543 45.3991C160.337 45.0345 160.234 44.6179 160.234 44.1491C160.234 43.704 160.333 43.2968 160.532 42.9275C160.733 42.5558 161.015 42.2599 161.377 42.0397C161.742 41.8196 162.17 41.713 162.663 41.7201ZM162.663 42.5014C162.365 42.5014 162.096 42.5759 161.857 42.7251C161.62 42.8719 161.432 43.0707 161.292 43.3217C161.155 43.5703 161.086 43.8461 161.086 44.1491C161.086 44.4521 161.152 44.7279 161.285 44.9765C161.42 45.2227 161.603 45.4192 161.835 45.566C162.07 45.7104 162.336 45.7826 162.634 45.7826C162.859 45.7826 163.069 45.7388 163.263 45.6512C163.457 45.5613 163.626 45.4393 163.771 45.2855C163.918 45.1292 164.032 44.9528 164.115 44.7563C164.198 44.5575 164.24 44.3503 164.24 44.1349C164.24 43.8508 164.171 43.5845 164.034 43.3359C163.899 43.0873 163.712 42.8861 163.473 42.7322C163.236 42.5783 162.966 42.5014 162.663 42.5014Z" fill="black" fill-opacity="0.7"/>
<g opacity="0.2">
<rect opacity="0.6" x="175.11" y="6" width="27" height="215.362" fill="#FF928A"/>
<rect x="175.11" y="6" width="27" height="3" fill="#FF928A"/>
</g>
<rect opacity="0.6" x="175.11" y="109.068" width="27" height="111.657" fill="#FF928A"/>
<rect x="175.11" y="109.068" width="27" height="3" fill="#FF928A"/>
<path d="M184.304 107.167C183.887 107.167 183.512 107.084 183.178 106.919C182.844 106.753 182.577 106.526 182.376 106.237C182.174 105.948 182.064 105.619 182.045 105.25H182.898C182.931 105.579 183.08 105.851 183.345 106.066C183.613 106.28 183.932 106.386 184.304 106.386C184.602 106.386 184.867 106.316 185.099 106.177C185.334 106.037 185.517 105.845 185.65 105.601C185.785 105.355 185.852 105.077 185.852 104.767C185.852 104.449 185.782 104.167 185.643 103.918C185.505 103.667 185.316 103.469 185.074 103.325C184.833 103.181 184.557 103.107 184.247 103.105C184.025 103.102 183.796 103.137 183.562 103.208C183.327 103.276 183.134 103.365 182.983 103.474L182.159 103.375L182.599 99.7951H186.378V100.576H183.338L183.082 102.721H183.125C183.274 102.603 183.461 102.505 183.686 102.427C183.911 102.348 184.145 102.309 184.389 102.309C184.834 102.309 185.231 102.416 185.579 102.629C185.929 102.84 186.204 103.128 186.403 103.495C186.604 103.862 186.704 104.281 186.704 104.753C186.704 105.217 186.6 105.631 186.392 105.995C186.186 106.358 185.902 106.644 185.54 106.855C185.177 107.063 184.766 107.167 184.304 107.167ZM188.115 107.068V106.429L190.516 103.801C190.797 103.493 191.029 103.226 191.212 102.998C191.394 102.769 191.529 102.553 191.617 102.352C191.707 102.148 191.752 101.935 191.752 101.713C191.752 101.457 191.69 101.236 191.567 101.049C191.446 100.862 191.28 100.717 191.07 100.615C190.859 100.514 190.622 100.463 190.359 100.463C190.08 100.463 189.836 100.521 189.628 100.637C189.422 100.75 189.262 100.91 189.149 101.116C189.037 101.322 188.982 101.564 188.982 101.841H188.144C188.144 101.414 188.242 101.04 188.438 100.718C188.635 100.396 188.902 100.146 189.241 99.9656C189.582 99.7857 189.964 99.6957 190.388 99.6957C190.814 99.6957 191.192 99.7857 191.521 99.9656C191.85 100.146 192.108 100.388 192.295 100.694C192.482 100.999 192.575 101.339 192.575 101.713C192.575 101.98 192.527 102.242 192.43 102.498C192.335 102.751 192.169 103.034 191.933 103.346C191.698 103.656 191.373 104.035 190.956 104.483L189.323 106.23V106.287H192.703V107.068H188.115Z" fill="black" fill-opacity="0.7"/>
<g opacity="0.2">
<rect opacity="0.6" x="203.889" y="6" width="27" height="215.362" fill="#3CC3DF"/>
<rect x="203.889" y="6" width="27" height="3" fill="#3CC3DF"/>
</g>
<rect opacity="0.6" x="203.889" y="111.215" width="27" height="109.509" fill="#3CC3DF"/>
<rect x="203.889" y="111.215" width="27" height="3" fill="#3CC3DF"/>
<path d="M214.039 109.314C213.623 109.314 213.247 109.231 212.914 109.066C212.58 108.9 212.312 108.673 212.111 108.384C211.91 108.095 211.8 107.766 211.781 107.397H212.633C212.666 107.726 212.815 107.998 213.08 108.213C213.348 108.426 213.668 108.533 214.039 108.533C214.338 108.533 214.603 108.463 214.835 108.324C215.069 108.184 215.253 107.992 215.385 107.748C215.52 107.502 215.588 107.224 215.588 106.914C215.588 106.596 215.518 106.314 215.378 106.065C215.241 105.814 215.051 105.616 214.81 105.472C214.568 105.328 214.293 105.254 213.982 105.252C213.76 105.249 213.531 105.284 213.297 105.355C213.063 105.423 212.87 105.512 212.718 105.621L211.894 105.522L212.335 101.942H216.113V102.723H213.073L212.818 104.868H212.86C213.009 104.75 213.196 104.652 213.421 104.574C213.646 104.495 213.881 104.456 214.124 104.456C214.57 104.456 214.966 104.563 215.314 104.776C215.664 104.987 215.939 105.275 216.138 105.642C216.339 106.009 216.44 106.428 216.44 106.9C216.44 107.364 216.336 107.778 216.127 108.142C215.921 108.505 215.637 108.791 215.275 109.002C214.913 109.21 214.501 109.314 214.039 109.314ZM220.407 101.942V109.215H219.527V102.865H219.484L217.708 104.044V103.15L219.527 101.942H220.407Z" fill="black" fill-opacity="0.7"/>
<g opacity="0.2">
<rect opacity="0.6" x="252.667" y="6" width="27" height="215.362" fill="#5EACE8"/>
<rect x="252.667" y="6" width="27" height="3" fill="#5EACE8"/>
</g>
<rect opacity="0.6" x="252.667" y="115.509" width="27" height="105.215" fill="#5EACE8"/>
<rect x="252.667" y="115.509" width="27" height="3" fill="#5EACE8"/>
<path d="M259.417 112.018V111.293L262.613 106.237H263.139V107.359H262.784L260.369 111.18V111.237H264.673V112.018H259.417ZM262.841 113.509V111.798V111.46V106.237H263.679V113.509H262.841ZM268.319 106.137C268.617 106.139 268.916 106.196 269.214 106.308C269.512 106.419 269.785 106.604 270.031 106.862C270.277 107.117 270.475 107.466 270.624 107.909C270.773 108.352 270.848 108.907 270.848 109.575C270.848 110.221 270.786 110.795 270.663 111.297C270.542 111.796 270.367 112.218 270.137 112.561C269.91 112.904 269.633 113.165 269.306 113.342C268.982 113.52 268.615 113.609 268.206 113.609C267.798 113.609 267.435 113.528 267.115 113.367C266.798 113.204 266.538 112.978 266.334 112.689C266.133 112.398 266.004 112.06 265.947 111.677H266.813C266.892 112.011 267.047 112.287 267.279 112.504C267.513 112.72 267.822 112.827 268.206 112.827C268.767 112.827 269.209 112.582 269.534 112.092C269.86 111.602 270.024 110.91 270.024 110.015H269.967C269.834 110.214 269.677 110.385 269.495 110.53C269.312 110.674 269.11 110.786 268.887 110.864C268.665 110.942 268.428 110.981 268.177 110.981C267.76 110.981 267.378 110.878 267.03 110.672C266.684 110.464 266.407 110.178 266.199 109.816C265.993 109.452 265.89 109.035 265.89 108.566C265.89 108.121 265.99 107.714 266.188 107.345C266.39 106.973 266.671 106.677 267.034 106.457C267.398 106.237 267.827 106.13 268.319 106.137ZM268.319 106.918C268.021 106.918 267.752 106.993 267.513 107.142C267.276 107.289 267.088 107.488 266.948 107.739C266.811 107.987 266.742 108.263 266.742 108.566C266.742 108.869 266.809 109.145 266.941 109.394C267.076 109.64 267.26 109.836 267.492 109.983C267.726 110.127 267.992 110.2 268.291 110.2C268.516 110.2 268.725 110.156 268.919 110.068C269.113 109.978 269.283 109.856 269.427 109.702C269.574 109.546 269.689 109.37 269.772 109.173C269.854 108.974 269.896 108.767 269.896 108.552C269.896 108.268 269.827 108.001 269.69 107.753C269.555 107.504 269.368 107.303 269.129 107.149C268.892 106.995 268.622 106.918 268.319 106.918Z" fill="black" fill-opacity="0.7"/>
<g opacity="0.2">
<rect opacity="0.6" x="281.444" y="6" width="27" height="215.362" fill="#FF928A"/>
<rect x="281.444" y="6" width="27" height="3" fill="#FF928A"/>
</g>
<rect opacity="0.6" x="281.444" y="152.013" width="27" height="68.7118" fill="#FF928A"/>
<rect x="281.444" y="152.013" width="27" height="3" fill="#FF928A"/>
<path d="M290.823 150.112C290.354 150.112 289.936 150.032 289.569 149.871C289.204 149.71 288.914 149.486 288.699 149.199C288.486 148.911 288.37 148.576 288.351 148.195H289.246C289.265 148.429 289.345 148.631 289.487 148.802C289.629 148.97 289.815 149.1 290.045 149.192C290.274 149.285 290.529 149.331 290.808 149.331C291.121 149.331 291.398 149.276 291.639 149.168C291.881 149.059 292.07 148.907 292.207 148.713C292.345 148.519 292.413 148.294 292.413 148.038C292.413 147.771 292.347 147.535 292.215 147.332C292.082 147.126 291.888 146.965 291.632 146.849C291.377 146.733 291.064 146.675 290.695 146.675H290.112V145.893H290.695C290.984 145.893 291.237 145.841 291.455 145.737C291.675 145.633 291.846 145.486 291.97 145.297C292.095 145.107 292.158 144.885 292.158 144.629C292.158 144.383 292.103 144.169 291.994 143.986C291.886 143.804 291.732 143.662 291.533 143.56C291.336 143.458 291.104 143.408 290.837 143.408C290.586 143.408 290.349 143.454 290.127 143.546C289.906 143.636 289.726 143.767 289.587 143.94C289.447 144.111 289.371 144.317 289.359 144.558H288.507C288.521 144.177 288.636 143.843 288.852 143.557C289.067 143.268 289.349 143.043 289.697 142.882C290.047 142.721 290.432 142.641 290.851 142.641C291.301 142.641 291.687 142.732 292.009 142.914C292.331 143.094 292.578 143.332 292.751 143.628C292.924 143.924 293.01 144.243 293.01 144.587C293.01 144.996 292.902 145.345 292.687 145.634C292.474 145.923 292.184 146.123 291.817 146.234V146.291C292.276 146.367 292.635 146.562 292.893 146.877C293.151 147.19 293.28 147.577 293.28 148.038C293.28 148.434 293.172 148.789 292.957 149.104C292.744 149.416 292.453 149.662 292.083 149.842C291.714 150.022 291.294 150.112 290.823 150.112ZM294.732 150.013V149.373L297.133 146.746C297.415 146.438 297.647 146.17 297.829 145.943C298.011 145.713 298.146 145.498 298.234 145.297C298.324 145.093 298.369 144.88 298.369 144.658C298.369 144.402 298.307 144.181 298.184 143.994C298.063 143.806 297.898 143.662 297.687 143.56C297.476 143.458 297.239 143.408 296.977 143.408C296.697 143.408 296.453 143.466 296.245 143.582C296.039 143.695 295.879 143.855 295.766 144.061C295.654 144.267 295.599 144.508 295.599 144.785H294.761C294.761 144.359 294.859 143.985 295.055 143.663C295.252 143.341 295.52 143.09 295.858 142.91C296.199 142.73 296.581 142.641 297.005 142.641C297.431 142.641 297.809 142.73 298.138 142.91C298.467 143.09 298.725 143.333 298.912 143.638C299.099 143.944 299.193 144.284 299.193 144.658C299.193 144.925 299.144 145.187 299.047 145.442C298.952 145.696 298.787 145.979 298.55 146.291C298.315 146.601 297.99 146.98 297.573 147.427L295.94 149.175V149.231H299.32V150.013H294.732Z" fill="black" fill-opacity="0.7"/>
<g opacity="0.2">
<rect opacity="0.6" x="310.223" y="6" width="27" height="215.362" fill="#3CC3DF"/>
<rect x="310.223" y="6" width="27" height="3" fill="#3CC3DF"/>
</g>
<rect opacity="0.6" x="310.223" y="126.246" width="27" height="94.4787" fill="#3CC3DF"/>
<rect x="310.223" y="126.246" width="27" height="3" fill="#3CC3DF"/>
<path d="M316.973 122.754V122.03L320.169 116.973H320.695V118.095H320.339L317.925 121.916V121.973H322.229V122.754H316.973ZM320.396 124.246V122.534V122.197V116.973H321.234V124.246H320.396ZM323.389 122.754V122.03L326.585 116.973H327.111V118.095H326.756L324.341 121.916V121.973H328.645V122.754H323.389ZM326.812 124.246V122.534V122.197V116.973H327.65V124.246H326.812Z" fill="black" fill-opacity="0.7"/>
</svg>
