<svg width="423" height="343" viewBox="0 0 423 343" fill="none" xmlns="http://www.w3.org/2000/svg">
<g clip-path="url(#clip0_1828_5087)">
<path d="M34.8945 266.036C22.5081 249.475 13.4974 230.632 8.37686 210.581C3.25634 190.53 2.12628 169.665 5.0512 149.176L98.449 162.57C97.279 170.766 97.731 179.112 99.7792 187.132C101.827 195.153 105.432 202.69 110.386 209.314L34.8945 266.036Z" fill="#3CC3DF"/>
<path d="M4.76719 151.265C8.9239 119.084 22.8902 88.9727 44.759 65.044C66.6277 41.1153 95.3327 24.5355 126.954 17.5687C158.575 10.6019 191.571 13.5878 221.436 26.1185C251.301 38.6493 276.579 60.1141 293.818 87.5817C311.057 115.049 319.417 147.181 317.755 179.588C316.094 211.995 304.492 243.098 284.535 268.65C264.578 294.202 237.238 312.957 206.249 322.354C175.26 331.75 142.132 331.331 111.39 321.152L140.984 231.361C153.281 235.432 166.532 235.6 178.928 231.841C191.324 228.083 202.26 220.581 210.243 210.36C218.225 200.139 222.866 187.698 223.531 174.735C224.195 161.772 220.851 148.92 213.956 137.933C207.06 126.946 196.949 118.36 185.003 113.347C173.057 108.335 159.859 107.141 147.21 109.927C134.562 112.714 123.08 119.346 114.332 128.918C105.585 138.489 99.998 150.533 98.3354 163.406L4.76719 151.265Z" fill="#5EACE8"/>
<path d="M133.63 326.751C103.911 321.543 76.314 307.875 54.1315 287.38C31.9491 266.884 16.1176 240.425 8.52575 211.159L99.8388 187.364C102.876 199.07 109.208 209.653 118.081 217.852C126.954 226.05 137.993 231.517 149.88 233.6L133.63 326.751Z" fill="#FF928A"/>
<circle cx="358" cy="197.522" r="3.5" fill="#5EACE8" stroke="#1A1F26"/>
<path d="M370.903 202.022V201.255L373.784 198.102C374.122 197.732 374.401 197.411 374.619 197.138C374.838 196.863 375 196.604 375.105 196.363C375.213 196.119 375.267 195.863 375.267 195.596C375.267 195.289 375.193 195.023 375.045 194.799C374.901 194.575 374.702 194.401 374.449 194.279C374.196 194.157 373.912 194.096 373.597 194.096C373.261 194.096 372.969 194.165 372.719 194.305C372.472 194.441 372.28 194.633 372.143 194.88C372.01 195.127 371.943 195.417 371.943 195.749H370.938C370.938 195.238 371.055 194.789 371.291 194.403C371.527 194.016 371.848 193.715 372.254 193.499C372.663 193.283 373.122 193.175 373.631 193.175C374.142 193.175 374.595 193.283 374.99 193.499C375.385 193.715 375.695 194.006 375.919 194.373C376.143 194.739 376.256 195.147 376.256 195.596C376.256 195.917 376.197 196.231 376.081 196.538C375.967 196.842 375.768 197.181 375.484 197.556C375.203 197.928 374.812 198.383 374.312 198.92L372.352 201.016V201.084H376.409V202.022H370.903ZM378.169 202.022V201.255L381.05 198.102C381.388 197.732 381.666 197.411 381.885 197.138C382.104 196.863 382.266 196.604 382.371 196.363C382.479 196.119 382.533 195.863 382.533 195.596C382.533 195.289 382.459 195.023 382.311 194.799C382.166 194.575 381.967 194.401 381.714 194.279C381.462 194.157 381.178 194.096 380.862 194.096C380.527 194.096 380.234 194.165 379.984 194.305C379.737 194.441 379.545 194.633 379.409 194.88C379.276 195.127 379.209 195.417 379.209 195.749H378.203C378.203 195.238 378.321 194.789 378.557 194.403C378.793 194.016 379.114 193.715 379.52 193.499C379.929 193.283 380.388 193.175 380.896 193.175C381.408 193.175 381.861 193.283 382.256 193.499C382.651 193.715 382.96 194.006 383.185 194.373C383.409 194.739 383.521 195.147 383.521 195.596C383.521 195.917 383.463 196.231 383.347 196.538C383.233 196.842 383.034 197.181 382.75 197.556C382.469 197.928 382.078 198.383 381.578 198.92L379.618 201.016V201.084H383.675V202.022H378.169ZM389.202 197.19V198.127H385.384V197.19H389.202ZM390.544 202.022V201.255L393.425 198.102C393.763 197.732 394.041 197.411 394.26 197.138C394.479 196.863 394.641 196.604 394.746 196.363C394.854 196.119 394.908 195.863 394.908 195.596C394.908 195.289 394.834 195.023 394.686 194.799C394.541 194.575 394.342 194.401 394.089 194.279C393.837 194.157 393.553 194.096 393.237 194.096C392.902 194.096 392.609 194.165 392.359 194.305C392.112 194.441 391.92 194.633 391.784 194.88C391.651 195.127 391.584 195.417 391.584 195.749H390.578C390.578 195.238 390.696 194.789 390.932 194.403C391.168 194.016 391.489 193.715 391.895 193.499C392.304 193.283 392.763 193.175 393.271 193.175C393.783 193.175 394.236 193.283 394.631 193.499C395.026 193.715 395.335 194.006 395.56 194.373C395.784 194.739 395.896 195.147 395.896 195.596C395.896 195.917 395.838 196.231 395.722 196.538C395.608 196.842 395.409 197.181 395.125 197.556C394.844 197.928 394.453 198.383 393.953 198.92L391.993 201.016V201.084H396.05V202.022H390.544ZM397.418 200.232V199.363L401.253 193.295H401.884V194.641H401.457L398.56 199.227V199.295H403.724V200.232H397.418ZM401.526 202.022V199.968V199.563V193.295H402.531V202.022H401.526Z" fill="#3C4043"/>
<circle cx="358" cy="224.712" r="3.5" fill="#FF928A" stroke="#1A1F26"/>
<path d="M370.903 229.212V228.445L373.784 225.292C374.122 224.923 374.401 224.602 374.619 224.329C374.838 224.053 375 223.795 375.105 223.553C375.213 223.309 375.267 223.053 375.267 222.786C375.267 222.479 375.193 222.214 375.045 221.989C374.901 221.765 374.702 221.592 374.449 221.47C374.196 221.347 373.912 221.286 373.597 221.286C373.261 221.286 372.969 221.356 372.719 221.495C372.472 221.631 372.28 221.823 372.143 222.07C372.01 222.318 371.943 222.607 371.943 222.94H370.938C370.938 222.428 371.055 221.979 371.291 221.593C371.527 221.207 371.848 220.906 372.254 220.69C372.663 220.474 373.122 220.366 373.631 220.366C374.142 220.366 374.595 220.474 374.99 220.69C375.385 220.906 375.695 221.197 375.919 221.563C376.143 221.93 376.256 222.337 376.256 222.786C376.256 223.107 376.197 223.421 376.081 223.728C375.967 224.032 375.768 224.371 375.484 224.746C375.203 225.119 374.812 225.573 374.312 226.11L372.352 228.207V228.275H376.409V229.212H370.903ZM377.777 227.423V226.553L381.612 220.485H382.243V221.832H381.817L378.919 226.417V226.485H384.084V227.423H377.777ZM381.885 229.212V227.158V226.754V220.485H382.891V229.212H381.885ZM389.448 224.38V225.318H385.63V224.38H389.448ZM394.009 229.332C393.446 229.332 392.945 229.235 392.504 229.042C392.067 228.849 391.719 228.58 391.46 228.237C391.205 227.89 391.065 227.488 391.043 227.031H392.116C392.139 227.312 392.236 227.555 392.406 227.759C392.577 227.961 392.8 228.117 393.075 228.228C393.351 228.339 393.656 228.394 393.991 228.394C394.366 228.394 394.699 228.329 394.989 228.198C395.278 228.068 395.506 227.886 395.67 227.653C395.835 227.42 395.918 227.15 395.918 226.843C395.918 226.522 395.838 226.239 395.679 225.995C395.52 225.748 395.287 225.555 394.98 225.416C394.673 225.276 394.298 225.207 393.855 225.207H393.156V224.269H393.855C394.202 224.269 394.506 224.207 394.767 224.082C395.031 223.957 395.237 223.781 395.385 223.553C395.536 223.326 395.611 223.059 395.611 222.752C395.611 222.457 395.545 222.2 395.415 221.981C395.284 221.762 395.099 221.592 394.861 221.47C394.625 221.347 394.347 221.286 394.026 221.286C393.724 221.286 393.44 221.342 393.173 221.452C392.909 221.56 392.693 221.718 392.526 221.925C392.358 222.13 392.267 222.377 392.253 222.667H391.23C391.247 222.21 391.385 221.809 391.643 221.465C391.902 221.119 392.24 220.849 392.658 220.656C393.078 220.462 393.54 220.366 394.043 220.366C394.582 220.366 395.045 220.475 395.432 220.694C395.818 220.91 396.115 221.195 396.322 221.55C396.53 221.906 396.634 222.289 396.634 222.701C396.634 223.193 396.504 223.612 396.246 223.958C395.99 224.305 395.642 224.545 395.202 224.678V224.746C395.753 224.837 396.183 225.072 396.493 225.45C396.803 225.825 396.957 226.289 396.957 226.843C396.957 227.318 396.828 227.744 396.57 228.121C396.314 228.496 395.964 228.792 395.521 229.008C395.078 229.224 394.574 229.332 394.009 229.332ZM401.547 229.332C400.905 229.332 400.358 229.157 399.906 228.808C399.455 228.455 399.109 227.945 398.871 227.278C398.632 226.607 398.513 225.798 398.513 224.849C398.513 223.906 398.632 223.1 398.871 222.433C399.112 221.762 399.459 221.251 399.911 220.898C400.365 220.543 400.911 220.366 401.547 220.366C402.183 220.366 402.727 220.543 403.179 220.898C403.634 221.251 403.98 221.762 404.219 222.433C404.46 223.1 404.581 223.906 404.581 224.849C404.581 225.798 404.462 226.607 404.223 227.278C403.984 227.945 403.639 228.455 403.188 228.808C402.736 229.157 402.189 229.332 401.547 229.332ZM401.547 228.394C402.183 228.394 402.678 228.087 403.03 227.474C403.382 226.86 403.558 225.985 403.558 224.849C403.558 224.093 403.477 223.45 403.315 222.918C403.156 222.387 402.926 221.982 402.625 221.704C402.327 221.425 401.967 221.286 401.547 221.286C400.916 221.286 400.423 221.597 400.068 222.22C399.713 222.839 399.536 223.715 399.536 224.849C399.536 225.604 399.615 226.246 399.774 226.775C399.933 227.303 400.162 227.705 400.46 227.981C400.761 228.256 401.124 228.394 401.547 228.394Z" fill="#3C4043"/>
<circle cx="358" cy="251.903" r="3.5" fill="#3CC3DF" stroke="#1A1F26"/>
<path d="M373.852 256.523C373.29 256.523 372.788 256.426 372.348 256.233C371.911 256.04 371.563 255.771 371.304 255.427C371.048 255.081 370.909 254.679 370.886 254.222H371.96C371.983 254.503 372.08 254.746 372.25 254.95C372.42 255.152 372.643 255.308 372.919 255.419C373.195 255.53 373.5 255.585 373.835 255.585C374.21 255.585 374.543 255.52 374.832 255.389C375.122 255.258 375.349 255.077 375.514 254.844C375.679 254.611 375.761 254.341 375.761 254.034C375.761 253.713 375.682 253.43 375.523 253.186C375.364 252.939 375.131 252.746 374.824 252.606C374.517 252.467 374.142 252.398 373.699 252.398H373V251.46H373.699C374.045 251.46 374.349 251.398 374.611 251.273C374.875 251.148 375.081 250.972 375.229 250.744C375.379 250.517 375.455 250.25 375.455 249.943C375.455 249.648 375.389 249.391 375.259 249.172C375.128 248.953 374.943 248.783 374.705 248.66C374.469 248.538 374.19 248.477 373.869 248.477C373.568 248.477 373.284 248.533 373.017 248.643C372.753 248.751 372.537 248.909 372.369 249.116C372.202 249.321 372.111 249.568 372.097 249.858H371.074C371.091 249.4 371.229 249 371.487 248.656C371.746 248.31 372.084 248.04 372.501 247.847C372.922 247.653 373.384 247.557 373.886 247.557C374.426 247.557 374.889 247.666 375.276 247.885C375.662 248.101 375.959 248.386 376.166 248.741C376.374 249.097 376.477 249.48 376.477 249.892C376.477 250.383 376.348 250.802 376.089 251.149C375.834 251.496 375.486 251.736 375.045 251.869V251.937C375.597 252.028 376.027 252.263 376.337 252.641C376.646 253.016 376.801 253.48 376.801 254.034C376.801 254.508 376.672 254.935 376.413 255.312C376.158 255.687 375.808 255.983 375.365 256.199C374.922 256.415 374.418 256.523 373.852 256.523ZM381.391 256.523C380.749 256.523 380.202 256.348 379.75 255.998C379.298 255.646 378.953 255.136 378.714 254.469C378.476 253.798 378.357 252.989 378.357 252.04C378.357 251.097 378.476 250.291 378.714 249.623C378.956 248.953 379.303 248.442 379.754 248.089C380.209 247.734 380.754 247.557 381.391 247.557C382.027 247.557 382.571 247.734 383.023 248.089C383.477 248.442 383.824 248.953 384.062 249.623C384.304 250.291 384.425 251.097 384.425 252.04C384.425 252.989 384.305 253.798 384.067 254.469C383.828 255.136 383.483 255.646 383.031 255.998C382.58 256.348 382.033 256.523 381.391 256.523ZM381.391 255.585C382.027 255.585 382.521 255.278 382.874 254.665C383.226 254.051 383.402 253.176 383.402 252.04C383.402 251.284 383.321 250.641 383.159 250.109C383 249.578 382.77 249.173 382.469 248.895C382.17 248.616 381.811 248.477 381.391 248.477C380.76 248.477 380.267 248.788 379.912 249.41C379.557 250.03 379.379 250.906 379.379 252.04C379.379 252.795 379.459 253.437 379.618 253.966C379.777 254.494 380.006 254.896 380.304 255.172C380.605 255.447 380.967 255.585 381.391 255.585ZM389.811 251.571V252.508H385.993V251.571H389.811ZM391.359 254.614V253.744L395.194 247.676H395.825V249.023H395.399L392.501 253.608V253.676H397.666V254.614H391.359ZM395.467 256.403V254.349V253.945V247.676H396.473V256.403H395.467ZM401.99 256.523C401.49 256.523 401.04 256.423 400.639 256.224C400.239 256.025 399.918 255.753 399.676 255.406C399.435 255.06 399.303 254.665 399.28 254.222H400.303C400.342 254.616 400.521 254.943 400.839 255.202C401.161 255.457 401.544 255.585 401.99 255.585C402.348 255.585 402.666 255.501 402.945 255.334C403.226 255.166 403.446 254.936 403.605 254.643C403.767 254.348 403.848 254.014 403.848 253.642C403.848 253.261 403.764 252.922 403.597 252.623C403.432 252.322 403.205 252.085 402.915 251.912C402.625 251.739 402.294 251.65 401.922 251.648C401.655 251.645 401.381 251.686 401.099 251.771C400.818 251.854 400.587 251.96 400.405 252.091L399.416 251.972L399.945 247.676H404.479V248.614H400.831L400.524 251.187H400.575C400.754 251.045 400.979 250.927 401.249 250.834C401.518 250.74 401.8 250.693 402.092 250.693C402.626 250.693 403.102 250.821 403.52 251.077C403.94 251.329 404.27 251.676 404.509 252.116C404.75 252.557 404.871 253.06 404.871 253.625C404.871 254.182 404.746 254.679 404.496 255.116C404.249 255.551 403.908 255.895 403.473 256.148C403.038 256.398 402.544 256.523 401.99 256.523Z" fill="#3C4043"/>
<path d="M372.564 136.792L373.86 137.2C373.068 138.628 371.748 139.9 370.428 140.692C370.236 140.416 369.78 139.864 369.492 139.612C370.74 138.988 371.928 137.956 372.564 136.792ZM372.72 131.764L373.968 132.412C373.332 133.168 372.6 133.972 372.024 134.5L371.04 133.936C371.604 133.36 372.324 132.448 372.72 131.764ZM374.964 132.652L376.248 133.36C374.964 134.716 373.272 136.252 371.928 137.224L370.98 136.6C372.312 135.58 373.968 133.948 374.964 132.652ZM369.9 134.008L370.764 133.072C371.64 133.624 372.768 134.44 373.284 135.064L372.372 136.096C371.88 135.484 370.8 134.596 369.9 134.008ZM374.832 135.34L375.948 134.74C376.656 135.52 377.46 136.612 377.784 137.368L376.572 138.052C376.284 137.32 375.54 136.168 374.832 135.34ZM369.66 136.192C371.4 136.18 374.1 136.144 376.632 136.096L376.584 137.248C374.148 137.332 371.568 137.416 369.768 137.464L369.66 136.192ZM372.156 138.772C373.128 140.392 375.156 141.484 377.784 141.892C377.484 142.192 377.112 142.744 376.932 143.116C374.172 142.564 372.192 141.244 370.992 139.144L372.156 138.772ZM372.456 138.052H375.684V139.132H371.496L372.456 138.052ZM375.216 138.052H375.492L375.72 138.004L376.62 138.4C375.552 141.1 373.092 142.48 370.176 143.14C370.056 142.78 369.744 142.216 369.492 141.928C372.132 141.472 374.424 140.248 375.216 138.256V138.052ZM368.868 134.392L370.14 134.86C369.36 136.324 368.112 137.86 366.936 138.832C366.804 138.52 366.42 137.8 366.18 137.488C367.2 136.744 368.244 135.58 368.868 134.392ZM368.652 131.812L369.924 132.316C369.18 133.36 368.052 134.524 367.044 135.268C366.864 134.98 366.516 134.476 366.288 134.212C367.152 133.612 368.16 132.604 368.652 131.812ZM367.884 136.984L369.108 135.76L369.228 135.82V143.104H367.884V136.984ZM380.628 141.196H387.252V142.588H380.628V141.196ZM379.98 137.752H388.008V143.068H386.46V139.132H381.456V143.068H379.98V137.752ZM382.332 131.716L383.976 132.256C383.196 133.744 382.176 135.352 381.36 136.396L380.064 135.88C380.868 134.788 381.816 133.06 382.332 131.716ZM385.212 133.864L386.352 133.024C387.54 133.984 388.98 135.376 389.604 136.408L388.344 137.368C387.78 136.36 386.412 134.896 385.212 133.864ZM378.708 135.208C381.132 135.148 384.852 135.004 388.152 134.86L388.08 136.252C384.756 136.432 381.156 136.576 378.792 136.672L378.708 135.208ZM345.588 157V155.858L348.618 152.888C348.908 152.595 349.149 152.335 349.342 152.108C349.536 151.881 349.68 151.661 349.777 151.447C349.874 151.234 349.922 151.007 349.922 150.766C349.922 150.49 349.859 150.254 349.734 150.058C349.609 149.859 349.438 149.706 349.219 149.598C349 149.49 348.751 149.436 348.473 149.436C348.186 149.436 347.935 149.496 347.719 149.615C347.503 149.732 347.335 149.898 347.216 150.114C347.099 150.33 347.041 150.587 347.041 150.885H345.537C345.537 150.331 345.663 149.849 345.916 149.44C346.169 149.031 346.517 148.714 346.96 148.49C347.406 148.266 347.918 148.153 348.494 148.153C349.08 148.153 349.594 148.263 350.037 148.482C350.48 148.7 350.824 149 351.068 149.381C351.315 149.761 351.439 150.196 351.439 150.685C351.439 151.011 351.376 151.332 351.251 151.648C351.126 151.963 350.906 152.312 350.591 152.696C350.278 153.08 349.839 153.544 349.274 154.089L347.77 155.619V155.679H351.571V157H345.588ZM356.267 157.166C355.565 157.166 354.963 156.989 354.46 156.634C353.96 156.276 353.575 155.76 353.305 155.087C353.038 154.411 352.905 153.597 352.905 152.645C352.908 151.693 353.043 150.884 353.31 150.216C353.58 149.545 353.964 149.034 354.464 148.682C354.967 148.33 355.568 148.153 356.267 148.153C356.966 148.153 357.567 148.33 358.07 148.682C358.572 149.034 358.957 149.545 359.224 150.216C359.494 150.886 359.629 151.696 359.629 152.645C359.629 153.599 359.494 154.415 359.224 155.091C358.957 155.764 358.572 156.278 358.07 156.634C357.57 156.989 356.969 157.166 356.267 157.166ZM356.267 155.832C356.813 155.832 357.243 155.564 357.558 155.027C357.876 154.487 358.036 153.693 358.036 152.645C358.036 151.952 357.963 151.369 357.818 150.898C357.673 150.426 357.469 150.071 357.205 149.832C356.94 149.591 356.628 149.47 356.267 149.47C355.724 149.47 355.295 149.74 354.98 150.28C354.665 150.817 354.506 151.605 354.503 152.645C354.5 153.341 354.57 153.926 354.712 154.401C354.857 154.875 355.061 155.233 355.325 155.474C355.589 155.713 355.903 155.832 356.267 155.832ZM361.045 157V155.858L364.075 152.888C364.365 152.595 364.606 152.335 364.799 152.108C364.993 151.881 365.137 151.661 365.234 151.447C365.331 151.234 365.379 151.007 365.379 150.766C365.379 150.49 365.316 150.254 365.191 150.058C365.066 149.859 364.895 149.706 364.676 149.598C364.457 149.49 364.208 149.436 363.93 149.436C363.643 149.436 363.392 149.496 363.176 149.615C362.96 149.732 362.792 149.898 362.673 150.114C362.556 150.33 362.498 150.587 362.498 150.885H360.994C360.994 150.331 361.12 149.849 361.373 149.44C361.626 149.031 361.974 148.714 362.417 148.49C362.863 148.266 363.375 148.153 363.951 148.153C364.537 148.153 365.051 148.263 365.494 148.482C365.937 148.7 366.281 149 366.525 149.381C366.772 149.761 366.896 150.196 366.896 150.685C366.896 151.011 366.833 151.332 366.708 151.648C366.583 151.963 366.363 152.312 366.048 152.696C365.735 153.08 365.297 153.544 364.731 154.089L363.227 155.619V155.679H367.028V157H361.045ZM368.498 157V155.858L371.528 152.888C371.818 152.595 372.059 152.335 372.252 152.108C372.446 151.881 372.591 151.661 372.687 151.447C372.784 151.234 372.832 151.007 372.832 150.766C372.832 150.49 372.77 150.254 372.645 150.058C372.52 149.859 372.348 149.706 372.129 149.598C371.91 149.49 371.662 149.436 371.383 149.436C371.096 149.436 370.845 149.496 370.629 149.615C370.413 149.732 370.245 149.898 370.126 150.114C370.01 150.33 369.951 150.587 369.951 150.885H368.447C368.447 150.331 368.574 149.849 368.826 149.44C369.079 149.031 369.427 148.714 369.87 148.49C370.316 148.266 370.828 148.153 371.404 148.153C371.99 148.153 372.504 148.263 372.947 148.482C373.39 148.7 373.734 149 373.978 149.381C374.225 149.761 374.349 150.196 374.349 150.685C374.349 151.011 374.287 151.332 374.162 151.648C374.037 151.963 373.816 152.312 373.501 152.696C373.189 153.08 372.75 153.544 372.184 154.089L370.68 155.619V155.679H374.481V157H368.498ZM379.936 152.001V153.271H376.007V152.001H379.936ZM381.237 157V155.858L384.266 152.888C384.556 152.595 384.798 152.335 384.991 152.108C385.184 151.881 385.329 151.661 385.425 151.447C385.522 151.234 385.57 151.007 385.57 150.766C385.57 150.49 385.508 150.254 385.383 150.058C385.258 149.859 385.086 149.706 384.867 149.598C384.648 149.49 384.4 149.436 384.121 149.436C383.835 149.436 383.583 149.496 383.367 149.615C383.151 149.732 382.984 149.898 382.864 150.114C382.748 150.33 382.69 150.587 382.69 150.885H381.185C381.185 150.331 381.312 149.849 381.565 149.44C381.817 149.031 382.165 148.714 382.609 148.49C383.055 148.266 383.566 148.153 384.143 148.153C384.728 148.153 385.242 148.263 385.685 148.482C386.129 148.7 386.472 149 386.717 149.381C386.964 149.761 387.087 150.196 387.087 150.685C387.087 151.011 387.025 151.332 386.9 151.648C386.775 151.963 386.555 152.312 386.239 152.696C385.927 153.08 385.488 153.544 384.923 154.089L383.418 155.619V155.679H387.219V157H381.237ZM391.915 157.166C391.214 157.166 390.612 156.989 390.109 156.634C389.609 156.276 389.224 155.76 388.954 155.087C388.687 154.411 388.553 153.597 388.553 152.645C388.556 151.693 388.691 150.884 388.958 150.216C389.228 149.545 389.613 149.034 390.113 148.682C390.616 148.33 391.217 148.153 391.915 148.153C392.614 148.153 393.215 148.33 393.718 148.682C394.221 149.034 394.606 149.545 394.873 150.216C395.143 150.886 395.278 151.696 395.278 152.645C395.278 153.599 395.143 154.415 394.873 155.091C394.606 155.764 394.221 156.278 393.718 156.634C393.218 156.989 392.617 157.166 391.915 157.166ZM391.915 155.832C392.461 155.832 392.891 155.564 393.207 155.027C393.525 154.487 393.684 153.693 393.684 152.645C393.684 151.952 393.612 151.369 393.467 150.898C393.322 150.426 393.117 150.071 392.853 149.832C392.589 149.591 392.276 149.47 391.915 149.47C391.373 149.47 390.944 149.74 390.629 150.28C390.313 150.817 390.154 151.605 390.151 152.645C390.148 153.341 390.218 153.926 390.36 154.401C390.505 154.875 390.71 155.233 390.974 155.474C391.238 155.713 391.552 155.832 391.915 155.832ZM396.694 157V155.858L399.723 152.888C400.013 152.595 400.255 152.335 400.448 152.108C400.641 151.881 400.786 151.661 400.882 151.447C400.979 151.234 401.027 151.007 401.027 150.766C401.027 150.49 400.965 150.254 400.84 150.058C400.715 149.859 400.543 149.706 400.324 149.598C400.105 149.49 399.857 149.436 399.578 149.436C399.292 149.436 399.04 149.496 398.824 149.615C398.608 149.732 398.441 149.898 398.321 150.114C398.205 150.33 398.147 150.587 398.147 150.885H396.642C396.642 150.331 396.769 149.849 397.022 149.44C397.275 149.031 397.623 148.714 398.066 148.49C398.512 148.266 399.023 148.153 399.6 148.153C400.185 148.153 400.699 148.263 401.142 148.482C401.586 148.7 401.929 149 402.174 149.381C402.421 149.761 402.544 150.196 402.544 150.685C402.544 151.011 402.482 151.332 402.357 151.648C402.232 151.963 402.012 152.312 401.696 152.696C401.384 153.08 400.945 153.544 400.38 154.089L398.875 155.619V155.679H402.676V157H396.694ZM407.279 157.119C406.665 157.119 406.12 157.014 405.642 156.804C405.168 156.594 404.793 156.301 404.517 155.926C404.242 155.551 404.096 155.118 404.078 154.626H405.681C405.695 154.862 405.773 155.068 405.915 155.244C406.057 155.418 406.246 155.553 406.482 155.649C406.718 155.746 406.982 155.794 407.275 155.794C407.587 155.794 407.864 155.74 408.105 155.632C408.347 155.521 408.536 155.368 408.672 155.172C408.809 154.976 408.875 154.75 408.873 154.494C408.875 154.23 408.807 153.997 408.668 153.795C408.529 153.594 408.327 153.436 408.063 153.322C407.801 153.209 407.486 153.152 407.117 153.152H406.346V151.933H407.117C407.421 151.933 407.686 151.881 407.914 151.776C408.144 151.67 408.324 151.523 408.455 151.332C408.586 151.139 408.65 150.916 408.647 150.663C408.65 150.416 408.594 150.202 408.48 150.02C408.37 149.835 408.212 149.692 408.007 149.589C407.806 149.487 407.569 149.436 407.296 149.436C407.029 149.436 406.782 149.484 406.554 149.581C406.327 149.678 406.144 149.815 406.005 149.994C405.865 150.17 405.792 150.381 405.783 150.625H404.262C404.273 150.136 404.414 149.707 404.684 149.338C404.956 148.966 405.32 148.676 405.775 148.469C406.229 148.259 406.739 148.153 407.304 148.153C407.887 148.153 408.392 148.263 408.821 148.482C409.253 148.697 409.587 148.989 409.823 149.355C410.059 149.722 410.176 150.126 410.176 150.57C410.179 151.061 410.034 151.473 409.742 151.805C409.452 152.138 409.071 152.355 408.6 152.457V152.526C409.213 152.611 409.684 152.838 410.01 153.207C410.34 153.574 410.503 154.03 410.5 154.575C410.5 155.064 410.361 155.501 410.083 155.888C409.807 156.271 409.426 156.572 408.941 156.791C408.458 157.01 407.904 157.119 407.279 157.119ZM357.696 163.273H359.277V168.974C359.277 169.599 359.129 170.149 358.834 170.624C358.541 171.098 358.129 171.469 357.598 171.736C357.067 172 356.446 172.132 355.736 172.132C355.023 172.132 354.401 172 353.869 171.736C353.338 171.469 352.926 171.098 352.634 170.624C352.341 170.149 352.195 169.599 352.195 168.974V163.273H353.776V168.842C353.776 169.206 353.855 169.53 354.014 169.814C354.176 170.098 354.404 170.321 354.696 170.483C354.989 170.642 355.335 170.722 355.736 170.722C356.137 170.722 356.483 170.642 356.776 170.483C357.071 170.321 357.298 170.098 357.458 169.814C357.617 169.53 357.696 169.206 357.696 168.842V163.273ZM366.101 167.185L364.694 167.338C364.655 167.196 364.585 167.062 364.486 166.938C364.389 166.812 364.258 166.712 364.094 166.635C363.929 166.558 363.727 166.52 363.488 166.52C363.167 166.52 362.898 166.589 362.679 166.729C362.463 166.868 362.356 167.048 362.359 167.27C362.356 167.46 362.426 167.615 362.568 167.734C362.713 167.854 362.952 167.952 363.284 168.028L364.4 168.267C365.02 168.401 365.48 168.612 365.781 168.902C366.085 169.192 366.238 169.571 366.241 170.04C366.238 170.452 366.118 170.815 365.879 171.131C365.643 171.443 365.315 171.687 364.895 171.864C364.474 172.04 363.991 172.128 363.446 172.128C362.645 172.128 362 171.96 361.511 171.625C361.023 171.287 360.731 170.817 360.638 170.214L362.142 170.07C362.21 170.365 362.355 170.588 362.577 170.739C362.798 170.889 363.086 170.964 363.442 170.964C363.808 170.964 364.102 170.889 364.324 170.739C364.548 170.588 364.66 170.402 364.66 170.18C364.66 169.993 364.588 169.838 364.443 169.716C364.301 169.594 364.079 169.5 363.778 169.435L362.662 169.2C362.034 169.07 361.569 168.849 361.268 168.54C360.967 168.227 360.818 167.832 360.821 167.355C360.818 166.952 360.927 166.602 361.149 166.307C361.373 166.009 361.684 165.778 362.082 165.616C362.483 165.452 362.944 165.369 363.467 165.369C364.234 165.369 364.838 165.533 365.278 165.859C365.721 166.186 365.996 166.628 366.101 167.185ZM370.411 172.128C369.755 172.128 369.188 171.991 368.711 171.719C368.236 171.443 367.871 171.054 367.616 170.551C367.36 170.045 367.232 169.45 367.232 168.766C367.232 168.092 367.36 167.501 367.616 166.993C367.874 166.482 368.235 166.084 368.698 165.8C369.161 165.513 369.705 165.369 370.33 165.369C370.733 165.369 371.114 165.435 371.472 165.565C371.833 165.693 372.151 165.892 372.427 166.162C372.705 166.432 372.924 166.776 373.083 167.193C373.242 167.608 373.322 168.102 373.322 168.676V169.149H367.956V168.109H371.843C371.84 167.814 371.776 167.551 371.651 167.321C371.526 167.088 371.351 166.905 371.127 166.771C370.905 166.638 370.647 166.571 370.351 166.571C370.036 166.571 369.759 166.648 369.52 166.801C369.282 166.952 369.096 167.151 368.962 167.398C368.831 167.642 368.765 167.911 368.762 168.203V169.111C368.762 169.491 368.831 169.818 368.971 170.091C369.11 170.361 369.305 170.568 369.555 170.713C369.805 170.855 370.097 170.926 370.432 170.926C370.657 170.926 370.86 170.895 371.042 170.832C371.224 170.767 371.381 170.672 371.515 170.547C371.648 170.422 371.749 170.267 371.817 170.082L373.258 170.244C373.167 170.625 372.993 170.957 372.738 171.241C372.485 171.523 372.161 171.741 371.766 171.898C371.371 172.051 370.92 172.128 370.411 172.128ZM374.627 172V165.455H376.122V166.545H376.191C376.31 166.168 376.514 165.876 376.804 165.672C377.097 165.464 377.431 165.361 377.806 165.361C377.891 165.361 377.986 165.365 378.091 165.374C378.199 165.379 378.289 165.389 378.36 165.403V166.822C378.294 166.8 378.191 166.78 378.048 166.763C377.909 166.743 377.774 166.733 377.644 166.733C377.362 166.733 377.11 166.794 376.885 166.916C376.664 167.036 376.489 167.202 376.361 167.415C376.233 167.628 376.169 167.874 376.169 168.152V172H374.627ZM383.55 172H381.862L384.935 163.273H386.887L389.963 172H388.276L385.945 165.062H385.877L383.55 172ZM383.605 168.578H388.208V169.848H383.605V168.578ZM393.692 174.591C393.138 174.591 392.662 174.516 392.264 174.365C391.867 174.217 391.547 174.018 391.306 173.768C391.064 173.518 390.896 173.241 390.803 172.938L392.192 172.601C392.254 172.729 392.345 172.855 392.465 172.98C392.584 173.108 392.744 173.213 392.946 173.295C393.151 173.381 393.408 173.423 393.718 173.423C394.155 173.423 394.517 173.317 394.804 173.104C395.091 172.893 395.235 172.547 395.235 172.064V170.824H395.158C395.078 170.983 394.962 171.146 394.808 171.314C394.658 171.482 394.458 171.622 394.208 171.736C393.96 171.849 393.649 171.906 393.274 171.906C392.771 171.906 392.316 171.788 391.906 171.553C391.5 171.314 391.176 170.959 390.935 170.487C390.696 170.013 390.577 169.419 390.577 168.706C390.577 167.987 390.696 167.381 390.935 166.886C391.176 166.389 391.502 166.013 391.911 165.757C392.32 165.499 392.776 165.369 393.279 165.369C393.662 165.369 393.977 165.435 394.225 165.565C394.475 165.693 394.673 165.848 394.821 166.03C394.969 166.209 395.081 166.378 395.158 166.537H395.243V165.455H396.764V172.107C396.764 172.666 396.631 173.129 396.364 173.496C396.097 173.862 395.732 174.136 395.269 174.318C394.806 174.5 394.28 174.591 393.692 174.591ZM393.705 170.696C394.031 170.696 394.31 170.616 394.54 170.457C394.77 170.298 394.945 170.07 395.064 169.771C395.183 169.473 395.243 169.115 395.243 168.697C395.243 168.286 395.183 167.925 395.064 167.615C394.948 167.305 394.774 167.065 394.544 166.895C394.317 166.722 394.037 166.635 393.705 166.635C393.361 166.635 393.074 166.724 392.844 166.903C392.614 167.082 392.441 167.328 392.324 167.641C392.208 167.95 392.149 168.303 392.149 168.697C392.149 169.098 392.208 169.449 392.324 169.75C392.443 170.048 392.618 170.281 392.848 170.449C393.081 170.614 393.367 170.696 393.705 170.696ZM401.243 172.128C400.587 172.128 400.02 171.991 399.543 171.719C399.068 171.443 398.703 171.054 398.448 170.551C398.192 170.045 398.064 169.45 398.064 168.766C398.064 168.092 398.192 167.501 398.448 166.993C398.706 166.482 399.067 166.084 399.53 165.8C399.993 165.513 400.537 165.369 401.162 165.369C401.566 165.369 401.946 165.435 402.304 165.565C402.665 165.693 402.983 165.892 403.259 166.162C403.537 166.432 403.756 166.776 403.915 167.193C404.074 167.608 404.154 168.102 404.154 168.676V169.149H398.789V168.109H402.675C402.672 167.814 402.608 167.551 402.483 167.321C402.358 167.088 402.183 166.905 401.959 166.771C401.737 166.638 401.479 166.571 401.183 166.571C400.868 166.571 400.591 166.648 400.352 166.801C400.114 166.952 399.928 167.151 399.794 167.398C399.664 167.642 399.597 167.911 399.594 168.203V169.111C399.594 169.491 399.664 169.818 399.803 170.091C399.942 170.361 400.137 170.568 400.387 170.713C400.637 170.855 400.929 170.926 401.264 170.926C401.489 170.926 401.692 170.895 401.874 170.832C402.056 170.767 402.213 170.672 402.347 170.547C402.48 170.422 402.581 170.267 402.649 170.082L404.09 170.244C403.999 170.625 403.825 170.957 403.57 171.241C403.317 171.523 402.993 171.741 402.598 171.898C402.203 172.051 401.752 172.128 401.243 172.128Z" fill="#5F6367"/>
</g>
<defs>
<clipPath id="clip0_1828_5087">
<rect width="423" height="343" fill="white"/>
</clipPath>
</defs>
</svg>
