<svg width="493" height="343" viewBox="0 0 493 343" fill="none" xmlns="http://www.w3.org/2000/svg">
<path d="M395.384 290.112V291.132H396.56V290.112H395.384ZM395.384 292.284V293.316H396.56V292.284H395.384ZM395.384 287.952V288.96H396.56V287.952H395.384ZM394.172 286.704H397.82V294.564H394.172V286.704ZM396.2 295.176L397.292 294.564C397.444 294.748 397.6 294.952 397.76 295.176C397.928 295.4 398.08 295.62 398.216 295.836C398.36 296.052 398.476 296.244 398.564 296.412L397.412 297.096C397.34 296.928 397.236 296.732 397.1 296.508C396.964 296.284 396.816 296.056 396.656 295.824C396.504 295.584 396.352 295.368 396.2 295.176ZM394.496 294.672L395.804 295.032C395.612 295.488 395.368 295.944 395.072 296.4C394.776 296.856 394.484 297.236 394.196 297.54C394.108 297.468 393.992 297.384 393.848 297.288C393.712 297.192 393.572 297.1 393.428 297.012C393.284 296.924 393.16 296.852 393.056 296.796C393.344 296.532 393.616 296.208 393.872 295.824C394.136 295.44 394.344 295.056 394.496 294.672ZM400.4 286.224H401.708V295.884C401.708 296.244 401.668 296.528 401.588 296.736C401.516 296.944 401.372 297.104 401.156 297.216C400.948 297.328 400.68 297.4 400.352 297.432C400.032 297.472 399.636 297.492 399.164 297.492C399.14 297.3 399.088 297.068 399.008 296.796C398.928 296.532 398.844 296.304 398.756 296.112C399.06 296.12 399.344 296.128 399.608 296.136C399.872 296.136 400.052 296.136 400.148 296.136C400.244 296.128 400.308 296.108 400.34 296.076C400.38 296.036 400.4 295.972 400.4 295.884V286.224ZM398.42 287.46H399.656V294.42H398.42V287.46ZM391.28 287.376L392.096 286.332C392.312 286.42 392.54 286.528 392.78 286.656C393.028 286.784 393.26 286.92 393.476 287.064C393.7 287.2 393.88 287.332 394.016 287.46L393.152 288.612C393.032 288.476 392.864 288.336 392.648 288.192C392.44 288.04 392.216 287.892 391.976 287.748C391.736 287.604 391.504 287.48 391.28 287.376ZM390.824 290.592L391.616 289.524C391.84 289.612 392.072 289.716 392.312 289.836C392.56 289.948 392.792 290.072 393.008 290.208C393.232 290.336 393.412 290.46 393.548 290.58L392.708 291.744C392.58 291.624 392.408 291.492 392.192 291.348C391.984 291.204 391.76 291.068 391.52 290.94C391.28 290.804 391.048 290.688 390.824 290.592ZM391.028 296.628C391.18 296.316 391.344 295.948 391.52 295.524C391.704 295.1 391.888 294.652 392.072 294.18C392.264 293.7 392.436 293.228 392.588 292.764L393.752 293.508C393.624 293.94 393.48 294.38 393.32 294.828C393.16 295.268 392.996 295.704 392.828 296.136C392.66 296.56 392.492 296.972 392.324 297.372L391.028 296.628ZM407.156 295.5C407.644 295.42 408.224 295.324 408.896 295.212C409.568 295.1 410.252 294.984 410.948 294.864L411.044 296.052C410.42 296.188 409.792 296.32 409.16 296.448C408.536 296.576 407.964 296.696 407.444 296.808L407.156 295.5ZM407.384 291.12H410.672V292.356H407.384V291.12ZM407.396 288.504H413.996V289.812H407.396V288.504ZM412.184 286.86L413.168 286.356C413.368 286.572 413.568 286.82 413.768 287.1C413.968 287.372 414.116 287.616 414.212 287.832L413.168 288.396C413.08 288.18 412.94 287.928 412.748 287.64C412.564 287.352 412.376 287.092 412.184 286.86ZM408.392 291.6H409.724V295.632L408.392 295.884V291.6ZM410.828 286.236H412.208C412.192 287.284 412.192 288.28 412.208 289.224C412.224 290.16 412.252 291.024 412.292 291.816C412.34 292.6 412.396 293.284 412.46 293.868C412.532 294.444 412.616 294.892 412.712 295.212C412.808 295.532 412.916 295.7 413.036 295.716C413.116 295.716 413.18 295.588 413.228 295.332C413.276 295.076 413.312 294.716 413.336 294.252C413.408 294.364 413.508 294.476 413.636 294.588C413.772 294.7 413.904 294.804 414.032 294.9C414.168 294.996 414.272 295.068 414.344 295.116C414.24 295.78 414.108 296.284 413.948 296.628C413.796 296.972 413.632 297.204 413.456 297.324C413.288 297.444 413.128 297.504 412.976 297.504C412.608 297.496 412.3 297.32 412.052 296.976C411.804 296.64 411.6 296.152 411.44 295.512C411.288 294.872 411.168 294.096 411.08 293.184C410.992 292.272 410.928 291.232 410.888 290.064C410.856 288.896 410.836 287.62 410.828 286.236ZM403.388 289.908H406.94V291H403.388V289.908ZM403.436 286.608H406.88V287.688H403.436V286.608ZM403.388 291.552H406.94V292.632H403.388V291.552ZM402.848 288.216H407.216V289.356H402.848V288.216ZM404.012 293.208H406.928V296.868H404.012V295.728H405.728V294.348H404.012V293.208ZM403.364 293.208H404.552V297.336H403.364V293.208ZM419.48 286.512H421.136C421.12 286.848 421.092 287.28 421.052 287.808C421.012 288.336 420.936 288.924 420.824 289.572C420.72 290.212 420.56 290.884 420.344 291.588C420.128 292.292 419.832 292.996 419.456 293.7C419.088 294.396 418.616 295.064 418.04 295.704C417.472 296.336 416.78 296.9 415.964 297.396C415.836 297.212 415.66 297.016 415.436 296.808C415.22 296.6 414.992 296.412 414.752 296.244C415.552 295.796 416.224 295.284 416.768 294.708C417.312 294.132 417.756 293.528 418.1 292.896C418.444 292.256 418.708 291.616 418.892 290.976C419.076 290.328 419.208 289.716 419.288 289.14C419.368 288.564 419.416 288.048 419.432 287.592C419.448 287.136 419.464 286.776 419.48 286.512ZM421.076 286.836C421.084 286.988 421.1 287.228 421.124 287.556C421.148 287.884 421.196 288.276 421.268 288.732C421.34 289.188 421.448 289.684 421.592 290.22C421.744 290.748 421.944 291.292 422.192 291.852C422.44 292.412 422.748 292.96 423.116 293.496C423.484 294.032 423.928 294.528 424.448 294.984C424.976 295.44 425.592 295.836 426.296 296.172C426.064 296.34 425.848 296.536 425.648 296.76C425.456 296.984 425.3 297.196 425.18 297.396C424.444 297.028 423.8 296.592 423.248 296.088C422.704 295.576 422.236 295.024 421.844 294.432C421.46 293.832 421.14 293.224 420.884 292.608C420.628 291.992 420.42 291.388 420.26 290.796C420.108 290.196 419.992 289.64 419.912 289.128C419.832 288.616 419.776 288.172 419.744 287.796C419.72 287.42 419.7 287.148 419.684 286.98L421.076 286.836ZM434.132 288.42H438.128V289.752H434.132V288.42ZM434.264 286.224L435.632 286.416C435.52 287.24 435.372 288.044 435.188 288.828C435.012 289.612 434.792 290.344 434.528 291.024C434.272 291.704 433.968 292.3 433.616 292.812C433.552 292.724 433.456 292.612 433.328 292.476C433.208 292.34 433.08 292.208 432.944 292.08C432.808 291.944 432.688 291.836 432.584 291.756C432.896 291.324 433.16 290.816 433.376 290.232C433.592 289.648 433.772 289.016 433.916 288.336C434.06 287.648 434.176 286.944 434.264 286.224ZM436.196 289.2L437.54 289.296C437.404 290.624 437.184 291.808 436.88 292.848C436.576 293.888 436.148 294.796 435.596 295.572C435.044 296.348 434.328 297.008 433.448 297.552C433.408 297.448 433.34 297.32 433.244 297.168C433.156 297.024 433.06 296.876 432.956 296.724C432.852 296.58 432.756 296.46 432.668 296.364C433.46 295.932 434.096 295.38 434.576 294.708C435.064 294.028 435.432 293.228 435.68 292.308C435.928 291.388 436.1 290.352 436.196 289.2ZM434.888 289.536C435.032 290.544 435.232 291.496 435.488 292.392C435.752 293.288 436.1 294.08 436.532 294.768C436.972 295.448 437.524 295.984 438.188 296.376C438.092 296.464 437.98 296.576 437.852 296.712C437.732 296.848 437.616 296.988 437.504 297.132C437.4 297.276 437.316 297.408 437.252 297.528C436.524 297.04 435.924 296.412 435.452 295.644C434.988 294.876 434.616 293.992 434.336 292.992C434.056 291.984 433.836 290.888 433.676 289.704L434.888 289.536ZM429.5 286.224H430.724V292.644H429.5V286.224ZM428.804 287.724V289.464H431.48V287.724H428.804ZM427.616 286.824H432.728V290.376H427.616V286.824ZM428.552 291.624V292.128H431.72V291.624H428.552ZM427.376 290.76H432.968V292.992H427.376V290.76ZM426.884 293.484C427.452 293.484 428.096 293.48 428.816 293.472C429.544 293.464 430.308 293.456 431.108 293.448C431.916 293.432 432.724 293.42 433.532 293.412L433.484 294.432C432.7 294.448 431.908 294.464 431.108 294.48C430.316 294.496 429.56 294.512 428.84 294.528C428.128 294.536 427.492 294.544 426.932 294.552L426.884 293.484ZM429.212 292.74L430.4 293.004C430.224 293.324 430.036 293.66 429.836 294.012C429.644 294.364 429.448 294.7 429.248 295.02C429.056 295.34 428.876 295.628 428.708 295.884L427.556 295.596C427.724 295.348 427.904 295.06 428.096 294.732C428.296 294.404 428.492 294.068 428.684 293.724C428.884 293.372 429.06 293.044 429.212 292.74ZM428.48 295.608L429.164 294.768C429.62 294.928 430.08 295.108 430.544 295.308C431.008 295.5 431.444 295.7 431.852 295.908C432.26 296.108 432.604 296.3 432.884 296.484L432.008 297.372C431.744 297.18 431.42 296.976 431.036 296.76C430.66 296.552 430.252 296.348 429.812 296.148C429.372 295.948 428.928 295.768 428.48 295.608ZM431.252 293.988L432.464 294.12C432.296 294.832 432.016 295.412 431.624 295.86C431.24 296.308 430.724 296.66 430.076 296.916C429.428 297.18 428.624 297.392 427.664 297.552C427.632 297.36 427.564 297.16 427.46 296.952C427.364 296.752 427.268 296.584 427.172 296.448C427.98 296.376 428.656 296.252 429.2 296.076C429.752 295.9 430.192 295.644 430.52 295.308C430.856 294.972 431.1 294.532 431.252 293.988ZM426.848 288.084H428.06V288.156H432.152V288.084H433.52V289.104H432.152V289.032H428.06V289.104H426.848V288.084ZM441.164 296.424V295.416C441.796 294.912 442.392 294.428 442.952 293.964C443.512 293.492 444 293.04 444.416 292.608C444.84 292.168 445.168 291.748 445.4 291.348C445.64 290.948 445.76 290.572 445.76 290.22C445.76 289.924 445.692 289.668 445.556 289.452C445.428 289.236 445.248 289.068 445.016 288.948C444.784 288.828 444.52 288.768 444.224 288.768C443.808 288.768 443.436 288.872 443.108 289.08C442.78 289.28 442.436 289.572 442.076 289.956L441.044 288.948C441.5 288.428 442.004 288.036 442.556 287.772C443.116 287.5 443.7 287.364 444.308 287.364C444.924 287.364 445.468 287.472 445.94 287.688C446.42 287.904 446.796 288.22 447.068 288.636C447.34 289.052 447.476 289.56 447.476 290.16C447.476 290.592 447.384 291.016 447.2 291.432C447.024 291.84 446.776 292.244 446.456 292.644C446.144 293.044 445.776 293.44 445.352 293.832C444.928 294.224 444.48 294.624 444.008 295.032C444.248 295.016 444.472 295 444.68 294.984C444.896 294.96 445.112 294.948 445.328 294.948H447.86V296.424H441.164ZM456.488 296.58C455.8 296.58 455.196 296.404 454.676 296.052C454.156 295.7 453.752 295.18 453.464 294.492C453.176 293.796 453.032 292.94 453.032 291.924C453.032 290.916 453.176 290.076 453.464 289.404C453.752 288.732 454.156 288.228 454.676 287.892C455.196 287.548 455.8 287.376 456.488 287.376C457.176 287.376 457.78 287.548 458.3 287.892C458.82 288.228 459.224 288.732 459.512 289.404C459.8 290.076 459.944 290.916 459.944 291.924C459.944 292.94 459.8 293.796 459.512 294.492C459.224 295.18 458.82 295.7 458.3 296.052C457.78 296.404 457.176 296.58 456.488 296.58ZM456.488 295.2C456.816 295.2 457.112 295.1 457.376 294.9C457.648 294.7 457.864 294.36 458.024 293.88C458.184 293.4 458.264 292.748 458.264 291.924C458.264 291.1 458.184 290.46 458.024 290.004C457.864 289.54 457.648 289.216 457.376 289.032C457.112 288.848 456.816 288.756 456.488 288.756C456.16 288.756 455.86 288.848 455.588 289.032C455.324 289.216 455.112 289.54 454.952 290.004C454.792 290.46 454.712 291.1 454.712 291.924C454.712 292.748 454.792 293.4 454.952 293.88C455.112 294.36 455.324 294.7 455.588 294.9C455.86 295.1 456.16 295.2 456.488 295.2Z" fill="#5F6367"/>
<path d="M21.3011 55.1193C20.9432 55.1136 20.5852 55.0455 20.2273 54.9148C19.8693 54.7841 19.5426 54.5639 19.2472 54.2543C18.9517 53.9418 18.7145 53.5199 18.5355 52.9886C18.3565 52.4545 18.267 51.7841 18.267 50.9773C18.267 50.2045 18.3395 49.5199 18.4844 48.9233C18.6293 48.3239 18.8395 47.8196 19.1151 47.4105C19.3906 46.9986 19.723 46.6861 20.1122 46.473C20.5043 46.2599 20.946 46.1534 21.4375 46.1534C21.9261 46.1534 22.3608 46.2514 22.7415 46.4474C23.125 46.6406 23.4375 46.9105 23.679 47.2571C23.9205 47.6037 24.0767 48.0028 24.1477 48.4545H23.108C23.0114 48.0625 22.8239 47.7372 22.5455 47.4787C22.267 47.2202 21.8977 47.0909 21.4375 47.0909C20.7614 47.0909 20.2287 47.3849 19.8395 47.973C19.4531 48.5611 19.2585 49.3864 19.2557 50.4489H19.3239C19.483 50.2074 19.6719 50.0014 19.8906 49.831C20.1122 49.6577 20.3565 49.5241 20.6236 49.4304C20.8906 49.3366 21.1733 49.2898 21.4716 49.2898C21.9716 49.2898 22.429 49.4148 22.8438 49.6648C23.2585 49.9119 23.5909 50.2543 23.8409 50.6918C24.0909 51.1264 24.2159 51.625 24.2159 52.1875C24.2159 52.7273 24.0952 53.2216 23.8537 53.6705C23.6122 54.1165 23.2727 54.4716 22.8352 54.7358C22.4006 54.9972 21.8892 55.125 21.3011 55.1193ZM21.3011 54.1818C21.6591 54.1818 21.9801 54.0923 22.2642 53.9134C22.5511 53.7344 22.777 53.4943 22.9418 53.1932C23.1094 52.892 23.1932 52.5568 23.1932 52.1875C23.1932 51.8267 23.1122 51.4986 22.9503 51.2031C22.7912 50.9048 22.571 50.6676 22.2898 50.4915C22.0114 50.3153 21.6932 50.2273 21.3352 50.2273C21.0653 50.2273 20.8139 50.2812 20.581 50.3892C20.348 50.4943 20.1435 50.6392 19.9673 50.8239C19.794 51.0085 19.6577 51.2202 19.5582 51.4588C19.4588 51.6946 19.4091 51.9432 19.4091 52.2045C19.4091 52.5511 19.4901 52.875 19.652 53.1761C19.8168 53.4773 20.0412 53.7202 20.3253 53.9048C20.6122 54.0895 20.9375 54.1818 21.3011 54.1818ZM28.7383 55.1193C28.0962 55.1193 27.5494 54.9446 27.0977 54.5952C26.646 54.2429 26.3008 53.733 26.0621 53.0653C25.8235 52.3949 25.7042 51.5852 25.7042 50.6364C25.7042 49.6932 25.8235 48.8878 26.0621 48.2202C26.3036 47.5497 26.6502 47.0384 27.1019 46.6861C27.5565 46.331 28.1019 46.1534 28.7383 46.1534C29.3746 46.1534 29.9187 46.331 30.3704 46.6861C30.8249 47.0384 31.1715 47.5497 31.4102 48.2202C31.6516 48.8878 31.7724 49.6932 31.7724 50.6364C31.7724 51.5852 31.6531 52.3949 31.4144 53.0653C31.1758 53.733 30.8306 54.2429 30.3789 54.5952C29.9272 54.9446 29.3803 55.1193 28.7383 55.1193ZM28.7383 54.1818C29.3746 54.1818 29.869 53.875 30.2212 53.2614C30.5735 52.6477 30.7496 51.7727 30.7496 50.6364C30.7496 49.8807 30.6687 49.2372 30.5067 48.706C30.3477 48.1747 30.1175 47.7699 29.8164 47.4915C29.5181 47.2131 29.1587 47.0739 28.7383 47.0739C28.1076 47.0739 27.6147 47.3849 27.2596 48.0071C26.9045 48.6264 26.7269 49.5028 26.7269 50.6364C26.7269 51.392 26.8065 52.0341 26.9656 52.5625C27.1246 53.0909 27.3533 53.4929 27.6516 53.7685C27.9528 54.044 28.315 54.1818 28.7383 54.1818ZM33.4087 55V48.4545H34.3803V49.4773H34.4656C34.6019 49.1278 34.8221 48.8565 35.1261 48.6634C35.43 48.4673 35.7951 48.3693 36.2212 48.3693C36.6531 48.3693 37.0124 48.4673 37.2994 48.6634C37.5891 48.8565 37.815 49.1278 37.9769 49.4773H38.0451C38.2127 49.1392 38.4641 48.8707 38.7994 48.6719C39.1346 48.4702 39.5366 48.3693 40.0053 48.3693C40.5906 48.3693 41.0692 48.5526 41.4414 48.919C41.8136 49.2827 41.9996 49.8494 41.9996 50.6193V55H40.994V50.6193C40.994 50.1364 40.8619 49.7912 40.5977 49.5838C40.3335 49.3764 40.0224 49.2727 39.6644 49.2727C39.2042 49.2727 38.8477 49.4119 38.5948 49.6903C38.342 49.9659 38.2156 50.3153 38.2156 50.7386V55H37.1928V50.517C37.1928 50.1449 37.0721 49.8452 36.8306 49.6179C36.5891 49.3878 36.2781 49.2727 35.8974 49.2727C35.636 49.2727 35.3917 49.3423 35.1644 49.4815C34.94 49.6207 34.7582 49.8139 34.619 50.0611C34.4826 50.3054 34.4144 50.5881 34.4144 50.9091V55H33.4087ZM43.8384 55V48.4545H44.8441V55H43.8384ZM44.3498 47.3636C44.1538 47.3636 43.9847 47.2969 43.8427 47.1634C43.7035 47.0298 43.6339 46.8693 43.6339 46.6818C43.6339 46.4943 43.7035 46.3338 43.8427 46.2003C43.9847 46.0668 44.1538 46 44.3498 46C44.5458 46 44.7134 46.0668 44.8526 46.2003C44.9947 46.3338 45.0657 46.4943 45.0657 46.6818C45.0657 46.8693 44.9947 47.0298 44.8526 47.1634C44.7134 47.2969 44.5458 47.3636 44.3498 47.3636ZM47.6918 51.0625V55H46.6861V48.4545H47.6577V49.4773H47.7429C47.8963 49.1449 48.1293 48.8778 48.4418 48.6761C48.7543 48.4716 49.1577 48.3693 49.652 48.3693C50.0952 48.3693 50.483 48.4602 50.8153 48.642C51.1477 48.821 51.4063 49.0938 51.5909 49.4602C51.7756 49.8239 51.8679 50.2841 51.8679 50.8409V55H50.8622V50.9091C50.8622 50.3949 50.7287 49.9943 50.4616 49.7074C50.1946 49.4176 49.8281 49.2727 49.3622 49.2727C49.0412 49.2727 48.7543 49.3423 48.5014 49.4815C48.2514 49.6207 48.054 49.8239 47.9091 50.0909C47.7642 50.358 47.6918 50.6818 47.6918 51.0625Z" fill="black" fill-opacity="0.7"/>
<path d="M18.1989 138.3V137.431L22.0341 131.363H22.6648V132.709H22.2386L19.3409 137.294V137.363H24.5057V138.3H18.1989ZM22.3068 140.09V138.036V137.631V131.363H23.3125V140.09H22.3068ZM28.9492 140.209C28.3072 140.209 27.7603 140.034 27.3086 139.685C26.8569 139.333 26.5117 138.823 26.2731 138.155C26.0344 137.485 25.9151 136.675 25.9151 135.726C25.9151 134.783 26.0344 133.978 26.2731 133.31C26.5146 132.64 26.8612 132.128 27.3129 131.776C27.7674 131.421 28.3129 131.243 28.9492 131.243C29.5856 131.243 30.1296 131.421 30.5813 131.776C31.0359 132.128 31.3825 132.64 31.6211 133.31C31.8626 133.978 31.9833 134.783 31.9833 135.726C31.9833 136.675 31.864 137.485 31.6254 138.155C31.3867 138.823 31.0415 139.333 30.5898 139.685C30.1381 140.034 29.5913 140.209 28.9492 140.209ZM28.9492 139.272C29.5856 139.272 30.0799 138.965 30.4322 138.351C30.7844 137.738 30.9606 136.863 30.9606 135.726C30.9606 134.971 30.8796 134.327 30.7177 133.796C30.5586 133.265 30.3285 132.86 30.0273 132.581C29.729 132.303 29.3697 132.164 28.9492 132.164C28.3185 132.164 27.8256 132.475 27.4705 133.097C27.1154 133.716 26.9379 134.593 26.9379 135.726C26.9379 136.482 27.0174 137.124 27.1765 137.652C27.3356 138.181 27.5643 138.583 27.8626 138.858C28.1637 139.134 28.5259 139.272 28.9492 139.272ZM33.6197 140.09V133.544H34.5913V134.567H34.6765C34.8129 134.218 35.033 133.946 35.337 133.753C35.641 133.557 36.006 133.459 36.4322 133.459C36.864 133.459 37.2234 133.557 37.5103 133.753C37.8001 133.946 38.0259 134.218 38.1879 134.567H38.256C38.4237 134.229 38.6751 133.961 39.0103 133.762C39.3455 133.56 39.7475 133.459 40.2163 133.459C40.8015 133.459 41.2802 133.642 41.6523 134.009C42.0245 134.373 42.2106 134.939 42.2106 135.709V140.09H41.2049V135.709C41.2049 135.226 41.0728 134.881 40.8086 134.674C40.5444 134.466 40.2333 134.363 39.8754 134.363C39.4151 134.363 39.0586 134.502 38.8058 134.78C38.5529 135.056 38.4265 135.405 38.4265 135.828V140.09H37.4038V135.607C37.4038 135.235 37.283 134.935 37.0415 134.708C36.8001 134.478 36.489 134.363 36.1083 134.363C35.8469 134.363 35.6026 134.432 35.3754 134.571C35.1509 134.711 34.9691 134.904 34.8299 135.151C34.6935 135.395 34.6254 135.678 34.6254 135.999V140.09H33.6197ZM44.0494 140.09V133.544H45.055V140.09H44.0494ZM44.5607 132.453C44.3647 132.453 44.1957 132.387 44.0536 132.253C43.9144 132.12 43.8448 131.959 43.8448 131.772C43.8448 131.584 43.9144 131.424 44.0536 131.29C44.1957 131.157 44.3647 131.09 44.5607 131.09C44.7567 131.09 44.9244 131.157 45.0636 131.29C45.2056 131.424 45.2766 131.584 45.2766 131.772C45.2766 131.959 45.2056 132.12 45.0636 132.253C44.9244 132.387 44.7567 132.453 44.5607 132.453ZM47.9027 136.152V140.09H46.897V133.544H47.8686V134.567H47.9538C48.1072 134.235 48.3402 133.968 48.6527 133.766C48.9652 133.561 49.3686 133.459 49.8629 133.459C50.3061 133.459 50.6939 133.55 51.0263 133.732C51.3587 133.911 51.6172 134.184 51.8018 134.55C51.9865 134.914 52.0788 135.374 52.0788 135.931V140.09H51.0732V135.999C51.0732 135.485 50.9396 135.084 50.6726 134.797C50.4055 134.507 50.0391 134.363 49.5732 134.363C49.2521 134.363 48.9652 134.432 48.7124 134.571C48.4624 134.711 48.2649 134.914 48.12 135.181C47.9751 135.448 47.9027 135.772 47.9027 136.152Z" fill="black" fill-opacity="0.7"/>
<path d="M18.4034 225.18V224.413L21.2841 221.259C21.6222 220.89 21.9006 220.569 22.1193 220.296C22.3381 220.021 22.5 219.762 22.6051 219.521C22.7131 219.276 22.767 219.021 22.767 218.754C22.767 218.447 22.6932 218.181 22.5455 217.957C22.4006 217.732 22.2017 217.559 21.9489 217.437C21.696 217.315 21.4119 217.254 21.0966 217.254C20.7614 217.254 20.4688 217.323 20.2188 217.462C19.9716 217.599 19.7798 217.79 19.6435 218.038C19.5099 218.285 19.4432 218.575 19.4432 218.907H18.4375C18.4375 218.396 18.5554 217.947 18.7912 217.56C19.027 217.174 19.348 216.873 19.7543 216.657C20.1634 216.441 20.6222 216.333 21.1307 216.333C21.642 216.333 22.0952 216.441 22.4901 216.657C22.8849 216.873 23.1946 217.164 23.419 217.531C23.6435 217.897 23.7557 218.305 23.7557 218.754C23.7557 219.075 23.6974 219.388 23.581 219.695C23.4673 219.999 23.2685 220.339 22.9844 220.714C22.7031 221.086 22.3125 221.54 21.8125 222.077L19.8523 224.174V224.242H23.9091V225.18H18.4034ZM28.5156 225.299C27.8736 225.299 27.3267 225.124 26.875 224.775C26.4233 224.423 26.0781 223.913 25.8395 223.245C25.6009 222.575 25.4815 221.765 25.4815 220.816C25.4815 219.873 25.6009 219.067 25.8395 218.4C26.081 217.729 26.4276 217.218 26.8793 216.866C27.3338 216.511 27.8793 216.333 28.5156 216.333C29.152 216.333 29.696 216.511 30.1477 216.866C30.6023 217.218 30.9489 217.729 31.1875 218.4C31.429 219.067 31.5497 219.873 31.5497 220.816C31.5497 221.765 31.4304 222.575 31.1918 223.245C30.9531 223.913 30.608 224.423 30.1562 224.775C29.7045 225.124 29.1577 225.299 28.5156 225.299ZM28.5156 224.362C29.152 224.362 29.6463 224.055 29.9986 223.441C30.3509 222.827 30.527 221.952 30.527 220.816C30.527 220.06 30.446 219.417 30.2841 218.886C30.125 218.354 29.8949 217.95 29.5938 217.671C29.2955 217.393 28.9361 217.254 28.5156 217.254C27.8849 217.254 27.392 217.565 27.0369 218.187C26.6818 218.806 26.5043 219.683 26.5043 220.816C26.5043 221.572 26.5838 222.214 26.7429 222.742C26.902 223.271 27.1307 223.673 27.429 223.948C27.7301 224.224 28.0923 224.362 28.5156 224.362ZM33.1861 225.18V218.634H34.1577V219.657H34.2429C34.3793 219.308 34.5994 219.036 34.9034 218.843C35.2074 218.647 35.5724 218.549 35.9986 218.549C36.4304 218.549 36.7898 218.647 37.0767 218.843C37.3665 219.036 37.5923 219.308 37.7543 219.657H37.8224C37.9901 219.319 38.2415 219.05 38.5767 218.852C38.9119 218.65 39.3139 218.549 39.7827 218.549C40.3679 218.549 40.8466 218.732 41.2188 219.099C41.5909 219.462 41.777 220.029 41.777 220.799V225.18H40.7713V220.799C40.7713 220.316 40.6392 219.971 40.375 219.763C40.1108 219.556 39.7997 219.452 39.4418 219.452C38.9815 219.452 38.625 219.592 38.3722 219.87C38.1193 220.146 37.9929 220.495 37.9929 220.918V225.18H36.9702V220.697C36.9702 220.325 36.8494 220.025 36.608 219.798C36.3665 219.567 36.0554 219.452 35.6747 219.452C35.4134 219.452 35.169 219.522 34.9418 219.661C34.7173 219.8 34.5355 219.994 34.3963 220.241C34.2599 220.485 34.1918 220.768 34.1918 221.089V225.18H33.1861ZM43.6158 225.18V218.634H44.6214V225.18H43.6158ZM44.1271 217.543C43.9311 217.543 43.7621 217.477 43.62 217.343C43.4808 217.21 43.4112 217.049 43.4112 216.862C43.4112 216.674 43.4808 216.513 43.62 216.38C43.7621 216.246 43.9311 216.18 44.1271 216.18C44.3232 216.18 44.4908 216.246 44.63 216.38C44.772 216.513 44.843 216.674 44.843 216.862C44.843 217.049 44.772 217.21 44.63 217.343C44.4908 217.477 44.3232 217.543 44.1271 217.543ZM47.4691 221.242V225.18H46.4634V218.634H47.435V219.657H47.5202C47.6737 219.325 47.9066 219.058 48.2191 218.856C48.5316 218.651 48.935 218.549 49.4293 218.549C49.8725 218.549 50.2603 218.64 50.5927 218.822C50.9251 219.001 51.1836 219.273 51.3683 219.64C51.5529 220.004 51.6452 220.464 51.6452 221.021V225.18H50.6396V221.089C50.6396 220.575 50.506 220.174 50.239 219.887C49.9719 219.597 49.6055 219.452 49.1396 219.452C48.8185 219.452 48.5316 219.522 48.2788 219.661C48.0288 219.8 47.8313 220.004 47.6864 220.271C47.5415 220.538 47.4691 220.862 47.4691 221.242Z" fill="black" fill-opacity="0.7"/>
<path d="M49.25 267.843C48.608 267.843 48.0611 267.669 47.6094 267.319C47.1577 266.967 46.8125 266.457 46.5739 265.789C46.3352 265.119 46.2159 264.309 46.2159 263.36C46.2159 262.417 46.3352 261.612 46.5739 260.944C46.8153 260.274 47.1619 259.762 47.6136 259.41C48.0682 259.055 48.6136 258.878 49.25 258.878C49.8864 258.878 50.4304 259.055 50.8821 259.41C51.3366 259.762 51.6832 260.274 51.9219 260.944C52.1634 261.612 52.2841 262.417 52.2841 263.36C52.2841 264.309 52.1648 265.119 51.9261 265.789C51.6875 266.457 51.3423 266.967 50.8906 267.319C50.4389 267.669 49.892 267.843 49.25 267.843ZM49.25 266.906C49.8864 266.906 50.3807 266.599 50.733 265.985C51.0852 265.372 51.2614 264.497 51.2614 263.36C51.2614 262.605 51.1804 261.961 51.0185 261.43C50.8594 260.899 50.6293 260.494 50.3281 260.216C50.0298 259.937 49.6705 259.798 49.25 259.798C48.6193 259.798 48.1264 260.109 47.7713 260.731C47.4162 261.351 47.2386 262.227 47.2386 263.36C47.2386 264.116 47.3182 264.758 47.4773 265.287C47.6364 265.815 47.8651 266.217 48.1634 266.493C48.4645 266.768 48.8267 266.906 49.25 266.906Z" fill="black" fill-opacity="0.7"/>
<line x1="58.5" y1="48.5" x2="360.5" y2="48.5" stroke="#00001A" stroke-opacity="0.15" stroke-dasharray="2"/>
<line x1="58.5" y1="91.7002" x2="360.5" y2="91.7002" stroke="#00001A" stroke-opacity="0.15" stroke-dasharray="2"/>
<line x1="58.5" y1="134.9" x2="360.5" y2="134.9" stroke="#00001A" stroke-opacity="0.15" stroke-dasharray="2"/>
<line x1="58.5" y1="178.1" x2="360.5" y2="178.1" stroke="#00001A" stroke-opacity="0.15" stroke-dasharray="2"/>
<line x1="58.5" y1="221.3" x2="360.5" y2="221.3" stroke="#00001A" stroke-opacity="0.15" stroke-dasharray="2"/>
<line x1="58.5" y1="264.5" x2="360.5" y2="264.5" stroke="#00001A" stroke-opacity="0.3"/>
<line x1="58" y1="265" x2="58" y2="49" stroke="#00001A" stroke-opacity="0.15" stroke-dasharray="2"/>
<line x1="108.332" y1="265" x2="108.332" y2="49" stroke="#00001A" stroke-opacity="0.15" stroke-dasharray="2"/>
<line x1="158.668" y1="265" x2="158.668" y2="49" stroke="#00001A" stroke-opacity="0.15" stroke-dasharray="2"/>
<line x1="209" y1="265" x2="209" y2="49" stroke="#00001A" stroke-opacity="0.15" stroke-dasharray="2"/>
<line x1="259.332" y1="265" x2="259.332" y2="49" stroke="#00001A" stroke-opacity="0.15" stroke-dasharray="2"/>
<line x1="309.668" y1="265" x2="309.668" y2="49" stroke="#00001A" stroke-opacity="0.15" stroke-dasharray="2"/>
<line x1="360" y1="265" x2="360" y2="49" stroke="#00001A" stroke-opacity="0.15" stroke-dasharray="2"/>
<g opacity="0.2">
<rect opacity="0.6" x="68.5" y="49" width="25" height="215.362" fill="#5EACE8"/>
<rect x="68.5" y="49" width="25" height="3" fill="#5EACE8"/>
</g>
<rect opacity="0.6" x="68.5" y="199.307" width="25" height="64.4173" fill="#5EACE8"/>
<rect x="68.5" y="199.307" width="25" height="3" fill="#5EACE8"/>
<path d="M77.2415 197.407C76.7727 197.407 76.3549 197.326 75.9879 197.165C75.6233 197.004 75.3333 196.78 75.1179 196.494C74.9048 196.205 74.7888 195.87 74.7699 195.489H75.6648C75.6837 195.723 75.7642 195.926 75.9062 196.096C76.0483 196.264 76.2341 196.394 76.4638 196.487C76.6934 196.579 76.9479 196.625 77.2273 196.625C77.5398 196.625 77.8168 196.571 78.0582 196.462C78.2997 196.353 78.4891 196.202 78.6264 196.007C78.7637 195.813 78.8324 195.588 78.8324 195.333C78.8324 195.065 78.7661 194.83 78.6335 194.626C78.5009 194.42 78.3068 194.259 78.0511 194.143C77.7955 194.027 77.483 193.969 77.1136 193.969H76.5312V193.188H77.1136C77.4025 193.188 77.6558 193.136 77.8736 193.032C78.0938 192.927 78.2654 192.781 78.3885 192.591C78.514 192.402 78.5767 192.179 78.5767 191.924C78.5767 191.677 78.5223 191.463 78.4134 191.281C78.3045 191.099 78.1506 190.957 77.9517 190.855C77.7552 190.753 77.5232 190.702 77.2557 190.702C77.0047 190.702 76.768 190.748 76.5455 190.841C76.3253 190.93 76.1454 191.062 76.0057 191.235C75.866 191.405 75.7902 191.611 75.7784 191.853H74.9261C74.9403 191.471 75.0552 191.138 75.2706 190.851C75.486 190.562 75.7678 190.337 76.1158 190.176C76.4661 190.015 76.8509 189.935 77.2699 189.935C77.7197 189.935 78.1056 190.026 78.4276 190.208C78.7495 190.388 78.9969 190.626 79.1697 190.922C79.3426 191.218 79.429 191.538 79.429 191.881C79.429 192.291 79.3213 192.64 79.1058 192.929C78.8928 193.217 78.6027 193.417 78.2358 193.529V193.586C78.6951 193.661 79.0537 193.857 79.3118 194.171C79.5698 194.484 79.6989 194.871 79.6989 195.333C79.6989 195.728 79.5911 196.083 79.3757 196.398C79.1626 196.711 78.8714 196.957 78.5021 197.137C78.1328 197.317 77.7126 197.407 77.2415 197.407ZM83.5234 197.407C82.9884 197.407 82.5327 197.261 82.1562 196.97C81.7798 196.676 81.4922 196.251 81.2933 195.695C81.0945 195.136 80.995 194.461 80.995 193.671C80.995 192.885 81.0945 192.214 81.2933 191.657C81.4946 191.099 81.7834 190.672 82.1598 190.379C82.5386 190.083 82.9931 189.935 83.5234 189.935C84.0537 189.935 84.5071 190.083 84.8835 190.379C85.2623 190.672 85.5511 191.099 85.75 191.657C85.9512 192.214 86.0518 192.885 86.0518 193.671C86.0518 194.461 85.9524 195.136 85.7536 195.695C85.5547 196.251 85.267 196.676 84.8906 196.97C84.5142 197.261 84.0585 197.407 83.5234 197.407ZM83.5234 196.625C84.0537 196.625 84.4657 196.37 84.7592 195.858C85.0528 195.347 85.1996 194.618 85.1996 193.671C85.1996 193.041 85.1321 192.505 84.9972 192.062C84.8646 191.619 84.6728 191.282 84.4219 191.05C84.1733 190.818 83.8738 190.702 83.5234 190.702C82.9979 190.702 82.5871 190.961 82.2912 191.48C81.9953 191.996 81.8473 192.726 81.8473 193.671C81.8473 194.3 81.9136 194.836 82.0462 195.276C82.1787 195.716 82.3693 196.051 82.6179 196.281C82.8688 196.51 83.1707 196.625 83.5234 196.625Z" fill="black" fill-opacity="0.7"/>
<g opacity="0.2">
<rect opacity="0.6" x="95.6094" y="49" width="25" height="215.362" fill="#FF928A"/>
<rect x="95.6094" y="49" width="25" height="3" fill="#FF928A"/>
</g>
<rect opacity="0.6" x="95.6094" y="201.454" width="25" height="62.2701" fill="#FF928A"/>
<rect x="95.6094" y="201.454" width="25" height="3" fill="#FF928A"/>
<path d="M101.893 199.454V198.815L104.294 196.187C104.576 195.879 104.808 195.612 104.99 195.384C105.172 195.155 105.307 194.939 105.395 194.738C105.485 194.535 105.53 194.322 105.53 194.099C105.53 193.843 105.468 193.622 105.345 193.435C105.224 193.248 105.059 193.103 104.848 193.002C104.637 192.9 104.401 192.849 104.138 192.849C103.858 192.849 103.615 192.907 103.406 193.023C103.2 193.137 103.04 193.296 102.927 193.502C102.816 193.708 102.76 193.95 102.76 194.227H101.922C101.922 193.801 102.02 193.427 102.217 193.105C102.413 192.783 102.681 192.532 103.019 192.352C103.36 192.172 103.742 192.082 104.166 192.082C104.592 192.082 104.97 192.172 105.299 192.352C105.628 192.532 105.886 192.774 106.073 193.08C106.26 193.385 106.354 193.725 106.354 194.099C106.354 194.367 106.305 194.628 106.208 194.884C106.113 195.137 105.948 195.42 105.711 195.733C105.477 196.043 105.151 196.421 104.734 196.869L103.101 198.616V198.673H106.482V199.454H101.893ZM110.263 192.082C110.562 192.084 110.86 192.141 111.158 192.252C111.457 192.364 111.729 192.548 111.975 192.806C112.221 193.062 112.419 193.411 112.568 193.854C112.717 194.297 112.792 194.852 112.792 195.519C112.792 196.166 112.73 196.74 112.607 197.242C112.487 197.741 112.311 198.163 112.082 198.506C111.854 198.849 111.577 199.11 111.251 199.287C110.926 199.465 110.559 199.554 110.15 199.554C109.743 199.554 109.379 199.473 109.06 199.312C108.742 199.149 108.482 198.923 108.278 198.634C108.077 198.343 107.948 198.005 107.891 197.622H108.758C108.836 197.956 108.991 198.231 109.223 198.449C109.457 198.665 109.766 198.772 110.15 198.772C110.711 198.772 111.154 198.527 111.478 198.037C111.805 197.547 111.968 196.855 111.968 195.96H111.911C111.779 196.159 111.621 196.33 111.439 196.475C111.257 196.619 111.054 196.73 110.832 196.809C110.609 196.887 110.372 196.926 110.121 196.926C109.705 196.926 109.322 196.823 108.974 196.617C108.629 196.408 108.352 196.123 108.143 195.761C107.938 195.396 107.835 194.98 107.835 194.511C107.835 194.066 107.934 193.659 108.133 193.289C108.334 192.918 108.616 192.622 108.978 192.402C109.343 192.181 109.771 192.075 110.263 192.082ZM110.263 192.863C109.965 192.863 109.696 192.938 109.457 193.087C109.221 193.234 109.032 193.433 108.893 193.684C108.755 193.932 108.687 194.208 108.687 194.511C108.687 194.814 108.753 195.09 108.886 195.338C109.021 195.585 109.204 195.781 109.436 195.928C109.67 196.072 109.937 196.144 110.235 196.144C110.46 196.144 110.67 196.101 110.864 196.013C111.058 195.923 111.227 195.801 111.371 195.647C111.518 195.491 111.633 195.315 111.716 195.118C111.799 194.919 111.84 194.712 111.84 194.497C111.84 194.213 111.772 193.946 111.634 193.698C111.499 193.449 111.312 193.248 111.073 193.094C110.836 192.94 110.567 192.863 110.263 192.863Z" fill="black" fill-opacity="0.7"/>
<g opacity="0.2">
<rect opacity="0.6" x="122.723" y="49" width="25" height="215.362" fill="#3CC3DF"/>
<rect x="122.723" y="49" width="25" height="3" fill="#3CC3DF"/>
</g>
<rect opacity="0.6" x="122.723" y="169.246" width="25" height="94.4787" fill="#3CC3DF"/>
<rect x="122.723" y="169.246" width="25" height="3" fill="#3CC3DF"/>
<path d="M128.836 165.754V165.03L132.032 159.973H132.558V161.095H132.203L129.788 164.916V164.973H134.092V165.754H128.836ZM132.26 167.246V165.534V165.197V159.973H133.098V167.246H132.26ZM135.252 165.754V165.03L138.448 159.973H138.974V161.095H138.619L136.204 164.916V164.973H140.508V165.754H135.252ZM138.676 167.246V165.534V165.197V159.973H139.514V167.246H138.676Z" fill="black" fill-opacity="0.7"/>
<g opacity="0.2">
<rect opacity="0.6" x="169.832" y="49" width="25" height="215.362" fill="#5EACE8"/>
<rect x="169.832" y="49" width="25" height="3" fill="#5EACE8"/>
</g>
<rect opacity="0.6" x="169.832" y="94.0923" width="25" height="169.632" fill="#5EACE8"/>
<rect x="169.832" y="94.0923" width="25" height="3" fill="#5EACE8"/>
<path d="M177.73 92.0923L180.983 85.6576V85.6008H177.233V84.8196H181.892V85.6434L178.653 92.0923H177.73ZM185.433 84.7201C185.732 84.7225 186.03 84.7793 186.328 84.8906C186.627 85.0018 186.899 85.1865 187.145 85.4446C187.391 85.7002 187.589 86.0494 187.738 86.4921C187.887 86.9349 187.962 87.49 187.962 88.1576C187.962 88.8039 187.9 89.378 187.777 89.8799C187.656 90.3795 187.481 90.8009 187.252 91.1441C187.024 91.4874 186.747 91.7478 186.421 91.9254C186.096 92.1029 185.729 92.1917 185.32 92.1917C184.913 92.1917 184.549 92.1112 184.23 91.9502C183.912 91.7869 183.652 91.5608 183.448 91.272C183.247 90.9808 183.118 90.6434 183.061 90.2599H183.928C184.006 90.5937 184.161 90.8695 184.393 91.0873C184.627 91.3027 184.936 91.4105 185.32 91.4105C185.881 91.4105 186.324 91.1654 186.648 90.6754C186.975 90.1853 187.138 89.4929 187.138 88.598H187.081C186.949 88.7968 186.791 88.9685 186.609 89.1129C186.427 89.2573 186.224 89.3686 186.002 89.4467C185.779 89.5248 185.542 89.5639 185.291 89.5639C184.875 89.5639 184.492 89.4609 184.144 89.2549C183.799 89.0466 183.522 88.7613 183.313 88.3991C183.107 88.0345 183.004 87.6179 183.004 87.1491C183.004 86.704 183.104 86.2968 183.303 85.9275C183.504 85.5558 183.786 85.2599 184.148 85.0397C184.512 84.8196 184.941 84.713 185.433 84.7201ZM185.433 85.5014C185.135 85.5014 184.866 85.5759 184.627 85.7251C184.391 85.8719 184.202 86.0707 184.063 86.3217C183.925 86.5703 183.857 86.8461 183.857 87.1491C183.857 87.4521 183.923 87.7279 184.056 87.9765C184.191 88.2227 184.374 88.4192 184.606 88.566C184.84 88.7104 185.107 88.7826 185.405 88.7826C185.63 88.7826 185.839 88.7388 186.034 88.6512C186.228 88.5613 186.397 88.4393 186.541 88.2855C186.688 88.1292 186.803 87.9528 186.886 87.7563C186.969 87.5575 187.01 87.3503 187.01 87.1349C187.01 86.8508 186.941 86.5845 186.804 86.3359C186.669 86.0873 186.482 85.8861 186.243 85.7322C186.006 85.5783 185.736 85.5014 185.433 85.5014Z" fill="black" fill-opacity="0.7"/>
<g opacity="0.2">
<rect opacity="0.6" x="196.941" y="49" width="25" height="215.362" fill="#FF928A"/>
<rect x="196.941" y="49" width="25" height="3" fill="#FF928A"/>
</g>
<rect opacity="0.6" x="196.941" y="152.068" width="25" height="111.657" fill="#FF928A"/>
<rect x="196.941" y="152.068" width="25" height="3" fill="#FF928A"/>
<path d="M205.498 150.167C205.082 150.167 204.706 150.084 204.373 149.919C204.039 149.753 203.771 149.526 203.57 149.237C203.369 148.948 203.259 148.619 203.24 148.25H204.092C204.125 148.579 204.274 148.851 204.539 149.066C204.807 149.28 205.127 149.386 205.498 149.386C205.797 149.386 206.062 149.316 206.294 149.177C206.528 149.037 206.712 148.845 206.844 148.601C206.979 148.355 207.047 148.077 207.047 147.767C207.047 147.449 206.977 147.167 206.837 146.918C206.7 146.667 206.51 146.469 206.269 146.325C206.027 146.181 205.752 146.107 205.441 146.105C205.219 146.102 204.99 146.137 204.756 146.208C204.522 146.276 204.329 146.365 204.177 146.474L203.353 146.375L203.794 142.795H207.572V143.576H204.532L204.277 145.721H204.319C204.468 145.603 204.655 145.505 204.88 145.427C205.105 145.348 205.34 145.309 205.583 145.309C206.029 145.309 206.425 145.416 206.773 145.629C207.123 145.84 207.398 146.128 207.597 146.495C207.798 146.862 207.899 147.281 207.899 147.753C207.899 148.217 207.795 148.631 207.586 148.995C207.38 149.358 207.096 149.644 206.734 149.855C206.372 150.063 205.96 150.167 205.498 150.167ZM209.309 150.068V149.429L211.71 146.801C211.992 146.493 212.224 146.226 212.406 145.998C212.588 145.769 212.723 145.553 212.811 145.352C212.901 145.148 212.946 144.935 212.946 144.713C212.946 144.457 212.884 144.236 212.761 144.049C212.64 143.862 212.475 143.717 212.264 143.615C212.053 143.514 211.817 143.463 211.554 143.463C211.274 143.463 211.031 143.521 210.822 143.637C210.616 143.75 210.456 143.91 210.343 144.116C210.232 144.322 210.176 144.564 210.176 144.841H209.338C209.338 144.414 209.436 144.04 209.633 143.718C209.829 143.396 210.097 143.146 210.435 142.966C210.776 142.786 211.158 142.696 211.582 142.696C212.008 142.696 212.386 142.786 212.715 142.966C213.044 143.146 213.302 143.388 213.489 143.694C213.676 143.999 213.77 144.339 213.77 144.713C213.77 144.98 213.721 145.242 213.624 145.498C213.529 145.751 213.364 146.034 213.127 146.346C212.893 146.656 212.567 147.035 212.15 147.483L210.517 149.23V149.287H213.898V150.068H209.309Z" fill="black" fill-opacity="0.7"/>
<g opacity="0.2">
<rect opacity="0.6" x="224.055" y="49" width="25" height="215.362" fill="#3CC3DF"/>
<rect x="224.055" y="49" width="25" height="3" fill="#3CC3DF"/>
</g>
<rect opacity="0.6" x="224.055" y="154.215" width="25" height="109.509" fill="#3CC3DF"/>
<rect x="224.055" y="154.215" width="25" height="3" fill="#3CC3DF"/>
<path d="M233.385 152.314C232.968 152.314 232.593 152.231 232.259 152.066C231.925 151.9 231.658 151.673 231.457 151.384C231.255 151.095 231.145 150.766 231.126 150.397H231.979C232.012 150.726 232.161 150.998 232.426 151.213C232.694 151.426 233.013 151.533 233.385 151.533C233.683 151.533 233.948 151.463 234.18 151.324C234.415 151.184 234.598 150.992 234.731 150.748C234.866 150.502 234.933 150.224 234.933 149.914C234.933 149.596 234.863 149.314 234.724 149.065C234.586 148.814 234.397 148.616 234.156 148.472C233.914 148.328 233.638 148.254 233.328 148.252C233.106 148.249 232.877 148.284 232.643 148.355C232.408 148.423 232.215 148.512 232.064 148.621L231.24 148.522L231.68 144.942H235.459V145.723H232.419L232.163 147.868H232.206C232.355 147.75 232.542 147.652 232.767 147.574C232.992 147.495 233.226 147.456 233.47 147.456C233.915 147.456 234.312 147.563 234.66 147.776C235.01 147.987 235.285 148.275 235.484 148.642C235.685 149.009 235.786 149.428 235.786 149.9C235.786 150.364 235.681 150.778 235.473 151.142C235.267 151.505 234.983 151.791 234.621 152.002C234.259 152.21 233.847 152.314 233.385 152.314ZM239.753 144.942V152.215H238.872V145.865H238.83L237.054 147.044V146.15L238.872 144.942H239.753Z" fill="black" fill-opacity="0.7"/>
<g opacity="0.2">
<rect opacity="0.6" x="271.168" y="49" width="25" height="215.362" fill="#5EACE8"/>
<rect x="271.168" y="49" width="25" height="3" fill="#5EACE8"/>
</g>
<rect opacity="0.6" x="271.168" y="158.509" width="25" height="105.215" fill="#5EACE8"/>
<rect x="271.168" y="158.509" width="25" height="3" fill="#5EACE8"/>
<path d="M277.282 155.018V154.293L280.478 149.237H281.003V150.359H280.648L278.233 154.18V154.237H282.537V155.018H277.282ZM280.705 156.509V154.798V154.46V149.237H281.543V156.509H280.705ZM286.183 149.137C286.482 149.139 286.78 149.196 287.078 149.308C287.377 149.419 287.649 149.604 287.895 149.862C288.141 150.117 288.339 150.466 288.488 150.909C288.637 151.352 288.712 151.907 288.712 152.575C288.712 153.221 288.65 153.795 288.527 154.297C288.406 154.796 288.231 155.218 288.002 155.561C287.774 155.904 287.497 156.165 287.171 156.342C286.846 156.52 286.479 156.609 286.07 156.609C285.663 156.609 285.299 156.528 284.98 156.367C284.662 156.204 284.402 155.978 284.198 155.689C283.997 155.398 283.868 155.06 283.811 154.677H284.678C284.756 155.011 284.911 155.287 285.143 155.504C285.377 155.72 285.686 155.827 286.07 155.827C286.631 155.827 287.074 155.582 287.398 155.092C287.725 154.602 287.888 153.91 287.888 153.015H287.831C287.699 153.214 287.541 153.385 287.359 153.53C287.177 153.674 286.974 153.786 286.752 153.864C286.529 153.942 286.292 153.981 286.041 153.981C285.625 153.981 285.242 153.878 284.894 153.672C284.549 153.464 284.272 153.178 284.063 152.816C283.857 152.452 283.754 152.035 283.754 151.566C283.754 151.121 283.854 150.714 284.053 150.345C284.254 149.973 284.536 149.677 284.898 149.457C285.262 149.237 285.691 149.13 286.183 149.137ZM286.183 149.918C285.885 149.918 285.616 149.993 285.377 150.142C285.141 150.289 284.952 150.488 284.813 150.739C284.675 150.987 284.607 151.263 284.607 151.566C284.607 151.869 284.673 152.145 284.806 152.394C284.941 152.64 285.124 152.836 285.356 152.983C285.59 153.127 285.857 153.2 286.155 153.2C286.38 153.2 286.589 153.156 286.784 153.068C286.978 152.978 287.147 152.856 287.291 152.702C287.438 152.546 287.553 152.37 287.636 152.173C287.719 151.974 287.76 151.767 287.76 151.552C287.76 151.268 287.691 151.001 287.554 150.753C287.419 150.504 287.232 150.303 286.993 150.149C286.756 149.995 286.486 149.918 286.183 149.918Z" fill="black" fill-opacity="0.7"/>
<g opacity="0.2">
<rect opacity="0.6" x="298.277" y="49" width="25" height="215.362" fill="#FF928A"/>
<rect x="298.277" y="49" width="25" height="3" fill="#FF928A"/>
</g>
<rect opacity="0.6" x="298.277" y="195.013" width="25" height="68.7118" fill="#FF928A"/>
<rect x="298.277" y="195.013" width="25" height="3" fill="#FF928A"/>
<path d="M307.019 193.112C306.55 193.112 306.132 193.032 305.765 192.871C305.401 192.71 305.111 192.486 304.895 192.199C304.682 191.911 304.566 191.576 304.547 191.195H305.442C305.461 191.429 305.542 191.631 305.684 191.802C305.826 191.97 306.011 192.1 306.241 192.192C306.471 192.285 306.725 192.331 307.005 192.331C307.317 192.331 307.594 192.276 307.836 192.168C308.077 192.059 308.266 191.907 308.404 191.713C308.541 191.519 308.61 191.294 308.61 191.038C308.61 190.771 308.543 190.535 308.411 190.332C308.278 190.126 308.084 189.965 307.828 189.849C307.573 189.733 307.26 189.675 306.891 189.675H306.309V188.893H306.891C307.18 188.893 307.433 188.841 307.651 188.737C307.871 188.633 308.043 188.486 308.166 188.297C308.291 188.107 308.354 187.885 308.354 187.629C308.354 187.383 308.3 187.169 308.191 186.986C308.082 186.804 307.928 186.662 307.729 186.56C307.533 186.458 307.301 186.408 307.033 186.408C306.782 186.408 306.545 186.454 306.323 186.546C306.103 186.636 305.923 186.767 305.783 186.94C305.643 187.111 305.568 187.317 305.556 187.558H304.703C304.718 187.177 304.833 186.843 305.048 186.557C305.263 186.268 305.545 186.043 305.893 185.882C306.243 185.721 306.628 185.641 307.047 185.641C307.497 185.641 307.883 185.732 308.205 185.914C308.527 186.094 308.774 186.332 308.947 186.628C309.12 186.924 309.206 187.243 309.206 187.587C309.206 187.996 309.099 188.345 308.883 188.634C308.67 188.923 308.38 189.123 308.013 189.234V189.291C308.472 189.367 308.831 189.562 309.089 189.877C309.347 190.19 309.476 190.577 309.476 191.038C309.476 191.434 309.368 191.789 309.153 192.104C308.94 192.416 308.649 192.662 308.279 192.842C307.91 193.022 307.49 193.112 307.019 193.112ZM310.929 193.013V192.373L313.329 189.746C313.611 189.438 313.843 189.17 314.025 188.943C314.208 188.713 314.342 188.498 314.43 188.297C314.52 188.093 314.565 187.88 314.565 187.658C314.565 187.402 314.503 187.181 314.38 186.994C314.26 186.806 314.094 186.662 313.883 186.56C313.672 186.458 313.436 186.408 313.173 186.408C312.894 186.408 312.65 186.466 312.441 186.582C312.235 186.695 312.076 186.855 311.962 187.061C311.851 187.267 311.795 187.508 311.795 187.785H310.957C310.957 187.359 311.055 186.985 311.252 186.663C311.448 186.341 311.716 186.09 312.054 185.91C312.395 185.73 312.778 185.641 313.201 185.641C313.627 185.641 314.005 185.73 314.334 185.91C314.663 186.09 314.921 186.333 315.108 186.638C315.295 186.944 315.389 187.284 315.389 187.658C315.389 187.925 315.34 188.187 315.243 188.442C315.149 188.696 314.983 188.979 314.746 189.291C314.512 189.601 314.186 189.98 313.77 190.427L312.136 192.175V192.231H315.517V193.013H310.929Z" fill="black" fill-opacity="0.7"/>
<g opacity="0.2">
<rect opacity="0.6" x="325.391" y="49" width="25" height="215.362" fill="#3CC3DF"/>
<rect x="325.391" y="49" width="25" height="3" fill="#3CC3DF"/>
</g>
<rect opacity="0.6" x="325.391" y="169.246" width="25" height="94.4787" fill="#3CC3DF"/>
<rect x="325.391" y="169.246" width="25" height="3" fill="#3CC3DF"/>
<path d="M331.504 165.754V165.03L334.7 159.973H335.226V161.095H334.871L332.456 164.916V164.973H336.76V165.754H331.504ZM334.928 167.246V165.534V165.197V159.973H335.766V167.246H334.928ZM337.92 165.754V165.03L341.116 159.973H341.642V161.095H341.287L338.872 164.916V164.973H343.176V165.754H337.92ZM341.344 167.246V165.534V165.197V159.973H342.182V167.246H341.344Z" fill="black" fill-opacity="0.7"/>
<circle cx="390.5" cy="203.946" r="3.5" fill="#7ABEEE" stroke="#1A1F26"/>
<path d="M403.557 199.719H404.818L407.784 206.963H407.886L410.852 199.719H412.114V208.446H411.125V201.815H411.04L408.312 208.446H407.358L404.631 201.815H404.545V208.446H403.557V199.719ZM416.755 208.582C416.164 208.582 415.646 208.442 415.2 208.16C414.757 207.879 414.41 207.486 414.16 206.98C413.913 206.474 413.789 205.883 413.789 205.207C413.789 204.525 413.913 203.93 414.16 203.422C414.41 202.913 414.757 202.518 415.2 202.237C415.646 201.956 416.164 201.815 416.755 201.815C417.346 201.815 417.863 201.956 418.306 202.237C418.752 202.518 419.099 202.913 419.346 203.422C419.596 203.93 419.721 204.525 419.721 205.207C419.721 205.883 419.596 206.474 419.346 206.98C419.099 207.486 418.752 207.879 418.306 208.16C417.863 208.442 417.346 208.582 416.755 208.582ZM416.755 207.679C417.204 207.679 417.574 207.564 417.863 207.334C418.153 207.103 418.368 206.801 418.507 206.426C418.646 206.051 418.716 205.645 418.716 205.207C418.716 204.77 418.646 204.362 418.507 203.984C418.368 203.606 418.153 203.301 417.863 203.068C417.574 202.835 417.204 202.719 416.755 202.719C416.306 202.719 415.937 202.835 415.647 203.068C415.358 203.301 415.143 203.606 415.004 203.984C414.865 204.362 414.795 204.77 414.795 205.207C414.795 205.645 414.865 206.051 415.004 206.426C415.143 206.801 415.358 207.103 415.647 207.334C415.937 207.564 416.306 207.679 416.755 207.679ZM421.393 208.446V199.719H422.398V202.94H422.484C422.558 202.826 422.66 202.682 422.79 202.505C422.924 202.326 423.114 202.167 423.362 202.028C423.612 201.886 423.95 201.815 424.376 201.815C424.927 201.815 425.413 201.953 425.833 202.228C426.254 202.504 426.582 202.895 426.817 203.4C427.053 203.906 427.171 204.503 427.171 205.19C427.171 205.883 427.053 206.484 426.817 206.993C426.582 207.498 426.255 207.89 425.837 208.169C425.42 208.444 424.938 208.582 424.393 208.582C423.972 208.582 423.636 208.513 423.383 208.373C423.13 208.231 422.935 208.071 422.799 207.892C422.663 207.71 422.558 207.559 422.484 207.44H422.364V208.446H421.393ZM422.381 205.173C422.381 205.667 422.454 206.103 422.599 206.481C422.744 206.856 422.955 207.15 423.234 207.363C423.512 207.574 423.853 207.679 424.256 207.679C424.677 207.679 425.028 207.568 425.309 207.346C425.593 207.122 425.806 206.821 425.948 206.443C426.093 206.062 426.165 205.639 426.165 205.173C426.165 204.713 426.094 204.298 425.952 203.929C425.813 203.557 425.602 203.263 425.317 203.047C425.036 202.828 424.683 202.719 424.256 202.719C423.847 202.719 423.504 202.822 423.225 203.03C422.947 203.234 422.737 203.521 422.594 203.89C422.452 204.257 422.381 204.684 422.381 205.173ZM428.71 208.446V201.9H429.715V208.446H428.71ZM429.221 200.809C429.025 200.809 428.856 200.743 428.714 200.609C428.575 200.476 428.505 200.315 428.505 200.128C428.505 199.94 428.575 199.78 428.714 199.646C428.856 199.513 429.025 199.446 429.221 199.446C429.417 199.446 429.585 199.513 429.724 199.646C429.866 199.78 429.937 199.94 429.937 200.128C429.937 200.315 429.866 200.476 429.724 200.609C429.585 200.743 429.417 200.809 429.221 200.809ZM432.563 199.719V208.446H431.557V199.719H432.563ZM437.149 208.582C436.518 208.582 435.974 208.443 435.517 208.165C435.062 207.883 434.712 207.491 434.464 206.988C434.22 206.483 434.098 205.895 434.098 205.224C434.098 204.554 434.22 203.963 434.464 203.451C434.712 202.937 435.055 202.537 435.496 202.25C435.939 201.96 436.456 201.815 437.047 201.815C437.388 201.815 437.724 201.872 438.057 201.986C438.389 202.099 438.692 202.284 438.964 202.54C439.237 202.792 439.455 203.128 439.616 203.545C439.778 203.963 439.859 204.477 439.859 205.088V205.514H434.814V204.645H438.837C438.837 204.275 438.763 203.946 438.615 203.656C438.47 203.366 438.263 203.138 437.993 202.97C437.726 202.802 437.411 202.719 437.047 202.719C436.646 202.719 436.3 202.818 436.007 203.017C435.717 203.213 435.494 203.469 435.338 203.784C435.182 204.099 435.104 204.437 435.104 204.798V205.378C435.104 205.872 435.189 206.291 435.359 206.635C435.533 206.976 435.773 207.236 436.08 207.415C436.386 207.591 436.743 207.679 437.149 207.679C437.413 207.679 437.652 207.642 437.865 207.568C438.081 207.491 438.267 207.378 438.423 207.227C438.58 207.074 438.7 206.883 438.786 206.656L439.757 206.929C439.655 207.258 439.483 207.548 439.241 207.798C439 208.045 438.702 208.238 438.347 208.378C437.991 208.514 437.592 208.582 437.149 208.582Z" fill="#3C4043"/>
<circle cx="390.5" cy="231.136" r="3.5" fill="#FF9F98" stroke="#1A1F26"/>
<path d="M403.42 235.636V229.091H404.426V235.636H403.42ZM403.932 228C403.736 228 403.567 227.933 403.425 227.8C403.286 227.666 403.216 227.506 403.216 227.318C403.216 227.131 403.286 226.97 403.425 226.837C403.567 226.703 403.736 226.636 403.932 226.636C404.128 226.636 404.295 226.703 404.435 226.837C404.577 226.97 404.648 227.131 404.648 227.318C404.648 227.506 404.577 227.666 404.435 227.8C404.295 227.933 404.128 228 403.932 228ZM406.268 238.091V229.091H407.24V230.131H407.359C407.433 230.017 407.535 229.872 407.666 229.696C407.799 229.517 407.99 229.358 408.237 229.219C408.487 229.077 408.825 229.006 409.251 229.006C409.802 229.006 410.288 229.143 410.708 229.419C411.129 229.694 411.457 230.085 411.693 230.591C411.929 231.096 412.047 231.693 412.047 232.381C412.047 233.074 411.929 233.675 411.693 234.183C411.457 234.689 411.13 235.081 410.713 235.359C410.295 235.635 409.814 235.773 409.268 235.773C408.848 235.773 408.511 235.703 408.258 235.564C408.005 235.422 407.811 235.261 407.674 235.082C407.538 234.9 407.433 234.75 407.359 234.631H407.274V238.091H406.268ZM407.257 232.364C407.257 232.858 407.329 233.294 407.474 233.672C407.619 234.047 407.831 234.341 408.109 234.554C408.387 234.764 408.728 234.869 409.132 234.869C409.552 234.869 409.903 234.758 410.184 234.537C410.468 234.312 410.681 234.011 410.824 233.633C410.968 233.253 411.041 232.829 411.041 232.364C411.041 231.903 410.97 231.489 410.828 231.119C410.689 230.747 410.477 230.453 410.193 230.237C409.912 230.018 409.558 229.909 409.132 229.909C408.723 229.909 408.379 230.013 408.1 230.22C407.822 230.425 407.612 230.712 407.47 231.081C407.328 231.447 407.257 231.875 407.257 232.364ZM415.507 235.79C415.092 235.79 414.716 235.712 414.377 235.555C414.039 235.396 413.771 235.167 413.572 234.869C413.373 234.568 413.274 234.204 413.274 233.778C413.274 233.403 413.348 233.099 413.495 232.866C413.643 232.631 413.841 232.446 414.088 232.312C414.335 232.179 414.608 232.079 414.906 232.014C415.207 231.946 415.51 231.892 415.814 231.852C416.211 231.801 416.534 231.763 416.781 231.737C417.031 231.709 417.213 231.662 417.326 231.596C417.443 231.531 417.501 231.417 417.501 231.256V231.221C417.501 230.801 417.386 230.474 417.156 230.241C416.929 230.008 416.583 229.892 416.12 229.892C415.64 229.892 415.264 229.997 414.991 230.207C414.718 230.417 414.527 230.642 414.416 230.881L413.461 230.54C413.632 230.142 413.859 229.832 414.143 229.611C414.43 229.386 414.743 229.23 415.081 229.142C415.422 229.051 415.757 229.006 416.086 229.006C416.297 229.006 416.538 229.031 416.811 229.082C417.086 229.131 417.352 229.231 417.608 229.385C417.866 229.538 418.081 229.77 418.251 230.079C418.422 230.389 418.507 230.804 418.507 231.324V235.636H417.501V234.75H417.45C417.382 234.892 417.268 235.044 417.109 235.206C416.95 235.368 416.738 235.506 416.474 235.619C416.21 235.733 415.887 235.79 415.507 235.79ZM415.66 234.886C416.058 234.886 416.393 234.808 416.666 234.652C416.941 234.496 417.149 234.294 417.288 234.047C417.43 233.8 417.501 233.54 417.501 233.267V232.346C417.458 232.398 417.365 232.444 417.22 232.487C417.078 232.527 416.913 232.562 416.725 232.594C416.541 232.622 416.36 232.648 416.184 232.67C416.011 232.69 415.87 232.707 415.762 232.721C415.501 232.756 415.257 232.811 415.029 232.888C414.805 232.962 414.623 233.074 414.484 233.224C414.348 233.372 414.279 233.574 414.279 233.829C414.279 234.179 414.409 234.443 414.667 234.622C414.929 234.798 415.26 234.886 415.66 234.886ZM422.814 235.773C422.268 235.773 421.787 235.635 421.369 235.359C420.952 235.081 420.625 234.689 420.389 234.183C420.153 233.675 420.036 233.074 420.036 232.381C420.036 231.693 420.153 231.096 420.389 230.591C420.625 230.085 420.953 229.694 421.374 229.419C421.794 229.143 422.28 229.006 422.831 229.006C423.257 229.006 423.594 229.077 423.841 229.219C424.091 229.358 424.281 229.517 424.412 229.696C424.545 229.872 424.649 230.017 424.723 230.131H424.808V226.909H425.814V235.636H424.842V234.631H424.723C424.649 234.75 424.544 234.9 424.408 235.082C424.271 235.261 424.077 235.422 423.824 235.564C423.571 235.703 423.234 235.773 422.814 235.773ZM422.95 234.869C423.354 234.869 423.695 234.764 423.973 234.554C424.251 234.341 424.463 234.047 424.608 233.672C424.753 233.294 424.825 232.858 424.825 232.364C424.825 231.875 424.754 231.447 424.612 231.081C424.47 230.712 424.26 230.425 423.982 230.22C423.703 230.013 423.359 229.909 422.95 229.909C422.524 229.909 422.169 230.018 421.885 230.237C421.604 230.453 421.392 230.747 421.25 231.119C421.111 231.489 421.041 231.903 421.041 232.364C421.041 232.829 421.112 233.253 421.254 233.633C421.399 234.011 421.612 234.312 421.893 234.537C422.178 234.758 422.53 234.869 422.95 234.869Z" fill="#3C4043"/>
<circle cx="390.5" cy="258.327" r="3.5" fill="#3CC3DF" stroke="#1A1F26"/>
<path d="M403.42 265.282V256.282H404.392V257.321H404.511C404.585 257.208 404.688 257.063 404.818 256.887C404.952 256.708 405.142 256.549 405.389 256.41C405.639 256.267 405.977 256.196 406.403 256.196C406.955 256.196 407.44 256.334 407.861 256.61C408.281 256.885 408.609 257.276 408.845 257.782C409.081 258.287 409.199 258.884 409.199 259.571C409.199 260.265 409.081 260.866 408.845 261.374C408.609 261.88 408.283 262.272 407.865 262.55C407.447 262.826 406.966 262.964 406.42 262.964C406 262.964 405.663 262.894 405.411 262.755C405.158 262.613 404.963 262.452 404.827 262.273C404.69 262.091 404.585 261.941 404.511 261.821H404.426V265.282H403.42ZM404.409 259.554C404.409 260.049 404.482 260.485 404.626 260.863C404.771 261.238 404.983 261.532 405.261 261.745C405.54 261.955 405.881 262.06 406.284 262.06C406.705 262.06 407.055 261.949 407.337 261.728C407.621 261.503 407.834 261.202 407.976 260.824C408.121 260.444 408.193 260.02 408.193 259.554C408.193 259.094 408.122 258.679 407.98 258.31C407.841 257.938 407.629 257.644 407.345 257.428C407.064 257.209 406.71 257.1 406.284 257.1C405.875 257.1 405.531 257.204 405.253 257.411C404.974 257.616 404.764 257.902 404.622 258.272C404.48 258.638 404.409 259.066 404.409 259.554ZM413.392 262.964C412.778 262.964 412.25 262.819 411.807 262.529C411.364 262.239 411.023 261.84 410.784 261.331C410.545 260.823 410.426 260.242 410.426 259.589C410.426 258.924 410.548 258.337 410.793 257.829C411.04 257.317 411.384 256.918 411.824 256.631C412.267 256.341 412.784 256.196 413.375 256.196C413.835 256.196 414.25 256.282 414.619 256.452C414.989 256.623 415.291 256.861 415.527 257.168C415.763 257.475 415.909 257.833 415.966 258.242H414.96C414.884 257.944 414.713 257.679 414.449 257.449C414.188 257.216 413.835 257.1 413.392 257.1C413 257.1 412.656 257.202 412.361 257.407C412.068 257.608 411.839 257.894 411.675 258.263C411.513 258.63 411.432 259.06 411.432 259.554C411.432 260.06 411.511 260.5 411.67 260.875C411.832 261.25 412.06 261.542 412.352 261.749C412.648 261.956 412.994 262.06 413.392 262.06C413.653 262.06 413.891 262.015 414.104 261.924C414.317 261.833 414.497 261.702 414.645 261.532C414.793 261.361 414.898 261.157 414.96 260.918H415.966C415.909 261.304 415.768 261.652 415.544 261.962C415.322 262.269 415.028 262.513 414.662 262.695C414.298 262.874 413.875 262.964 413.392 262.964ZM420.521 253.691L417.709 264.14H416.788L419.601 253.691H420.521ZM422.719 258.89V262.827H421.713V256.282H422.685V257.304H422.77C422.924 256.972 423.157 256.705 423.469 256.503C423.782 256.299 424.185 256.196 424.679 256.196C425.123 256.196 425.51 256.287 425.843 256.469C426.175 256.648 426.434 256.921 426.618 257.287C426.803 257.651 426.895 258.111 426.895 258.668V262.827H425.89V258.736C425.89 258.222 425.756 257.821 425.489 257.535C425.222 257.245 424.855 257.1 424.39 257.1C424.069 257.1 423.782 257.169 423.529 257.309C423.279 257.448 423.081 257.651 422.936 257.918C422.792 258.185 422.719 258.509 422.719 258.89ZM431.392 262.964C430.801 262.964 430.283 262.823 429.837 262.542C429.393 262.26 429.047 261.867 428.797 261.361C428.55 260.856 428.426 260.265 428.426 259.589C428.426 258.907 428.55 258.312 428.797 257.803C429.047 257.294 429.393 256.9 429.837 256.618C430.283 256.337 430.801 256.196 431.392 256.196C431.983 256.196 432.5 256.337 432.943 256.618C433.389 256.9 433.736 257.294 433.983 257.803C434.233 258.312 434.358 258.907 434.358 259.589C434.358 260.265 434.233 260.856 433.983 261.361C433.736 261.867 433.389 262.26 432.943 262.542C432.5 262.823 431.983 262.964 431.392 262.964ZM431.392 262.06C431.841 262.06 432.21 261.945 432.5 261.715C432.79 261.485 433.004 261.182 433.143 260.807C433.283 260.432 433.352 260.026 433.352 259.589C433.352 259.151 433.283 258.743 433.143 258.366C433.004 257.988 432.79 257.682 432.5 257.449C432.21 257.216 431.841 257.1 431.392 257.1C430.943 257.1 430.574 257.216 430.284 257.449C429.994 257.682 429.78 257.988 429.641 258.366C429.501 258.743 429.432 259.151 429.432 259.589C429.432 260.026 429.501 260.432 429.641 260.807C429.78 261.182 429.994 261.485 430.284 261.715C430.574 261.945 430.943 262.06 431.392 262.06ZM438.74 256.282V257.134H435.348V256.282H438.74ZM436.336 254.714H437.342V260.952C437.342 261.236 437.383 261.449 437.466 261.591C437.551 261.731 437.659 261.824 437.789 261.873C437.923 261.918 438.064 261.941 438.211 261.941C438.322 261.941 438.413 261.935 438.484 261.924C438.555 261.91 438.612 261.898 438.654 261.89L438.859 262.793C438.791 262.819 438.696 262.844 438.574 262.87C438.451 262.898 438.297 262.912 438.109 262.912C437.825 262.912 437.547 262.851 437.274 262.729C437.004 262.607 436.779 262.421 436.6 262.171C436.424 261.921 436.336 261.606 436.336 261.225V254.714ZM442.926 262.964C442.296 262.964 441.752 262.824 441.294 262.546C440.84 262.265 440.489 261.873 440.242 261.37C439.998 260.864 439.875 260.276 439.875 259.606C439.875 258.935 439.998 258.344 440.242 257.833C440.489 257.319 440.833 256.918 441.273 256.631C441.716 256.341 442.233 256.196 442.824 256.196C443.165 256.196 443.502 256.253 443.834 256.367C444.167 256.481 444.469 256.665 444.742 256.921C445.015 257.174 445.232 257.509 445.394 257.927C445.556 258.344 445.637 258.858 445.637 259.469V259.895H440.591V259.026H444.614C444.614 258.657 444.54 258.327 444.392 258.037C444.248 257.748 444.04 257.519 443.77 257.351C443.503 257.184 443.188 257.1 442.824 257.1C442.424 257.1 442.077 257.199 441.784 257.398C441.495 257.594 441.272 257.85 441.115 258.165C440.959 258.481 440.881 258.819 440.881 259.179V259.759C440.881 260.253 440.966 260.672 441.137 261.016C441.31 261.357 441.55 261.617 441.857 261.796C442.164 261.972 442.52 262.06 442.926 262.06C443.191 262.06 443.429 262.023 443.642 261.949C443.858 261.873 444.044 261.759 444.201 261.608C444.357 261.455 444.478 261.265 444.563 261.037L445.534 261.31C445.432 261.64 445.26 261.929 445.019 262.179C444.777 262.427 444.479 262.62 444.124 262.759C443.769 262.895 443.37 262.964 442.926 262.964ZM447.303 262.827V254.1H448.309V257.321H448.394C448.468 257.208 448.57 257.063 448.701 256.887C448.834 256.708 449.025 256.549 449.272 256.41C449.522 256.267 449.86 256.196 450.286 256.196C450.837 256.196 451.323 256.334 451.743 256.61C452.164 256.885 452.492 257.276 452.728 257.782C452.963 258.287 453.081 258.884 453.081 259.571C453.081 260.265 452.963 260.866 452.728 261.374C452.492 261.88 452.165 262.272 451.748 262.55C451.33 262.826 450.848 262.964 450.303 262.964C449.882 262.964 449.546 262.894 449.293 262.755C449.04 262.613 448.846 262.452 448.709 262.273C448.573 262.091 448.468 261.941 448.394 261.821H448.275V262.827H447.303ZM448.292 259.554C448.292 260.049 448.364 260.485 448.509 260.863C448.654 261.238 448.865 261.532 449.144 261.745C449.422 261.955 449.763 262.06 450.167 262.06C450.587 262.06 450.938 261.949 451.219 261.728C451.503 261.503 451.716 261.202 451.858 260.824C452.003 260.444 452.076 260.02 452.076 259.554C452.076 259.094 452.005 258.679 451.863 258.31C451.723 257.938 451.512 257.644 451.228 257.428C450.946 257.209 450.593 257.1 450.167 257.1C449.757 257.1 449.414 257.204 449.135 257.411C448.857 257.616 448.647 257.902 448.505 258.272C448.363 258.638 448.292 259.066 448.292 259.554ZM457.279 262.964C456.688 262.964 456.169 262.823 455.723 262.542C455.28 262.26 454.934 261.867 454.684 261.361C454.436 260.856 454.313 260.265 454.313 259.589C454.313 258.907 454.436 258.312 454.684 257.803C454.934 257.294 455.28 256.9 455.723 256.618C456.169 256.337 456.688 256.196 457.279 256.196C457.87 256.196 458.387 256.337 458.83 256.618C459.276 256.9 459.623 257.294 459.87 257.803C460.12 258.312 460.245 258.907 460.245 259.589C460.245 260.265 460.12 260.856 459.87 261.361C459.623 261.867 459.276 262.26 458.83 262.542C458.387 262.823 457.87 262.964 457.279 262.964ZM457.279 262.06C457.728 262.06 458.097 261.945 458.387 261.715C458.676 261.485 458.891 261.182 459.03 260.807C459.169 260.432 459.239 260.026 459.239 259.589C459.239 259.151 459.169 258.743 459.03 258.366C458.891 257.988 458.676 257.682 458.387 257.449C458.097 257.216 457.728 257.1 457.279 257.1C456.83 257.1 456.461 257.216 456.171 257.449C455.881 257.682 455.667 257.988 455.527 258.366C455.388 258.743 455.319 259.151 455.319 259.589C455.319 260.026 455.388 260.432 455.527 260.807C455.667 261.182 455.881 261.485 456.171 261.715C456.461 261.945 456.83 262.06 457.279 262.06ZM464.439 262.964C463.848 262.964 463.33 262.823 462.884 262.542C462.44 262.26 462.094 261.867 461.844 261.361C461.597 260.856 461.473 260.265 461.473 259.589C461.473 258.907 461.597 258.312 461.844 257.803C462.094 257.294 462.44 256.9 462.884 256.618C463.33 256.337 463.848 256.196 464.439 256.196C465.03 256.196 465.547 256.337 465.99 256.618C466.436 256.9 466.783 257.294 467.03 257.803C467.28 258.312 467.405 258.907 467.405 259.589C467.405 260.265 467.28 260.856 467.03 261.361C466.783 261.867 466.436 262.26 465.99 262.542C465.547 262.823 465.03 262.964 464.439 262.964ZM464.439 262.06C464.888 262.06 465.257 261.945 465.547 261.715C465.837 261.485 466.051 261.182 466.19 260.807C466.33 260.432 466.399 260.026 466.399 259.589C466.399 259.151 466.33 258.743 466.19 258.366C466.051 257.988 465.837 257.682 465.547 257.449C465.257 257.216 464.888 257.1 464.439 257.1C463.99 257.1 463.621 257.216 463.331 257.449C463.041 257.682 462.827 257.988 462.688 258.366C462.548 258.743 462.479 259.151 462.479 259.589C462.479 260.026 462.548 260.432 462.688 260.807C462.827 261.182 463.041 261.485 463.331 261.715C463.621 261.945 463.99 262.06 464.439 262.06ZM469.877 260.441L469.86 259.196H470.065L472.929 256.282H474.173L471.122 259.367H471.037L469.877 260.441ZM468.94 262.827V254.1H469.946V262.827H468.94ZM473.099 262.827L470.542 259.589L471.258 258.89L474.377 262.827H473.099Z" fill="#3C4043"/>
<path d="M391.688 164.064H398.96V165.228H391.688V164.064ZM391.316 171.084H399.152V172.284H391.316V171.084ZM394.604 163.224H395.996V166.344H394.604V163.224ZM393.86 167.94V168.42H396.764V167.94H393.86ZM393.86 169.248V169.716H396.764V169.248H393.86ZM393.86 166.668V167.124H396.764V166.668H393.86ZM392.564 165.78H398.132V170.592H392.564V165.78ZM395.744 172.896L396.728 172.188C397.032 172.356 397.336 172.54 397.64 172.74C397.952 172.932 398.248 173.124 398.528 173.316C398.808 173.508 399.044 173.684 399.236 173.844L397.916 174.504C397.756 174.352 397.556 174.18 397.316 173.988C397.076 173.804 396.82 173.616 396.548 173.424C396.276 173.232 396.008 173.056 395.744 172.896ZM393.512 172.248L394.868 172.716C394.508 173.076 394.064 173.416 393.536 173.736C393.008 174.056 392.496 174.316 392 174.516C391.92 174.428 391.816 174.32 391.688 174.192C391.56 174.064 391.428 173.936 391.292 173.808C391.164 173.688 391.044 173.588 390.932 173.508C391.428 173.364 391.912 173.184 392.384 172.968C392.856 172.744 393.232 172.504 393.512 172.248ZM388.028 166.092H391.664V167.46H388.028V166.092ZM389.252 163.416H390.596V171.384H389.252V163.416ZM387.764 171.264C388.1 171.144 388.48 171.004 388.904 170.844C389.328 170.676 389.78 170.496 390.26 170.304C390.74 170.104 391.216 169.904 391.688 169.704L392.012 171.036C391.388 171.324 390.752 171.616 390.104 171.912C389.456 172.208 388.856 172.472 388.304 172.704L387.764 171.264ZM404.768 163.236H406.22V164.88H404.768V163.236ZM400.292 164.064H410.708V166.536H409.352V165.288H401.6V166.536H400.292V164.064ZM404.492 165.408L405.344 166.284C404.936 166.452 404.476 166.6 403.964 166.728C403.46 166.856 402.984 166.956 402.536 167.028C402.504 166.908 402.456 166.764 402.392 166.596C402.328 166.428 402.264 166.28 402.2 166.152C402.472 166.096 402.748 166.028 403.028 165.948C403.308 165.868 403.576 165.784 403.832 165.696C404.096 165.6 404.316 165.504 404.492 165.408ZM401.756 165.936L403.028 166.164V169.392H401.756V165.936ZM401.756 168.804H407.948V166.908H405.764V165.936H409.244V169.776H401.756V168.804ZM402.128 167.376H405.02V168.324H402.128V167.376ZM405.956 167.376H408.548V168.324H405.956V167.376ZM403.328 169.2L404.612 169.584C404.332 170.048 403.988 170.484 403.58 170.892C403.172 171.292 402.724 171.652 402.236 171.972C401.756 172.284 401.26 172.552 400.748 172.776C400.692 172.688 400.612 172.572 400.508 172.428C400.412 172.284 400.308 172.144 400.196 172.008C400.092 171.864 399.996 171.748 399.908 171.66C400.388 171.492 400.844 171.288 401.276 171.048C401.716 170.808 402.112 170.532 402.464 170.22C402.824 169.908 403.112 169.568 403.328 169.2ZM403.136 170.316H409.412V171.456H402.008L403.136 170.316ZM408.968 170.316H410.384C410.384 170.316 410.38 170.38 410.372 170.508C410.372 170.636 410.368 170.74 410.36 170.82C410.336 171.484 410.3 172.032 410.252 172.464C410.204 172.888 410.144 173.224 410.072 173.472C410.008 173.72 409.924 173.9 409.82 174.012C409.692 174.156 409.552 174.256 409.4 174.312C409.256 174.376 409.092 174.416 408.908 174.432C408.748 174.456 408.532 174.468 408.26 174.468C407.996 174.476 407.712 174.472 407.408 174.456C407.4 174.264 407.36 174.048 407.288 173.808C407.216 173.576 407.128 173.38 407.024 173.22C407.28 173.244 407.516 173.26 407.732 173.268C407.948 173.276 408.108 173.276 408.212 173.268C408.3 173.268 408.376 173.264 408.44 173.256C408.504 173.24 408.56 173.204 408.608 173.148C408.672 173.084 408.724 172.96 408.764 172.776C408.812 172.584 408.852 172.304 408.884 171.936C408.916 171.568 408.944 171.088 408.968 170.496V170.316ZM401.9 171.672L403.04 172.008C402.952 172.448 402.832 172.876 402.68 173.292C402.528 173.708 402.304 174.056 402.008 174.336L400.94 173.736C401.196 173.488 401.4 173.18 401.552 172.812C401.712 172.444 401.828 172.064 401.9 171.672ZM403.4 171.972L404.48 171.852C404.592 172.196 404.68 172.568 404.744 172.968C404.816 173.36 404.848 173.696 404.84 173.976L403.7 174.132C403.708 173.852 403.684 173.512 403.628 173.112C403.58 172.704 403.504 172.324 403.4 171.972ZM405.032 171.996L406.028 171.744C406.188 172.024 406.324 172.328 406.436 172.656C406.556 172.976 406.632 173.256 406.664 173.496L405.596 173.772C405.572 173.532 405.504 173.248 405.392 172.92C405.288 172.584 405.168 172.276 405.032 171.996ZM406.604 171.936L407.528 171.54C407.688 171.708 407.844 171.904 407.996 172.128C408.156 172.344 408.272 172.536 408.344 172.704L407.372 173.148C407.308 172.972 407.2 172.772 407.048 172.548C406.904 172.316 406.756 172.112 406.604 171.936ZM416.636 164.508H422.78V165.756H416.636V164.508ZM416.24 166.812H423.128V168.072H416.24V166.812ZM416.264 169.092H423.044V170.352H416.264V169.092ZM418.952 163.212H420.38V167.628H418.952V163.212ZM420.476 168.012H421.892V172.98C421.892 173.324 421.848 173.592 421.76 173.784C421.672 173.984 421.512 174.14 421.28 174.252C421.048 174.356 420.764 174.42 420.428 174.444C420.1 174.476 419.712 174.492 419.264 174.492C419.232 174.292 419.172 174.06 419.084 173.796C418.996 173.54 418.904 173.32 418.808 173.136C419.104 173.144 419.392 173.152 419.672 173.16C419.952 173.16 420.14 173.16 420.236 173.16C420.324 173.16 420.384 173.148 420.416 173.124C420.456 173.092 420.476 173.032 420.476 172.944V168.012ZM416.744 171.168L417.884 170.508C418.076 170.692 418.268 170.9 418.46 171.132C418.652 171.364 418.828 171.596 418.988 171.828C419.148 172.06 419.272 172.272 419.36 172.464L418.112 173.196C418.048 173.004 417.94 172.792 417.788 172.56C417.636 172.32 417.468 172.08 417.284 171.84C417.108 171.592 416.928 171.368 416.744 171.168ZM412.94 163.968H416.024V172.176H412.94V170.892H414.692V165.252H412.94V163.968ZM413.012 167.376H415.34V168.636H413.012V167.376ZM412.256 163.968H413.588V173.244H412.256V163.968ZM427.856 170.556H431.132V171.576H427.856V170.556ZM427.772 168.768H431.816V173.388H427.772V172.32H430.46V169.836H427.772V168.768ZM427.172 168.768H428.48V174H427.172V168.768ZM425.168 165.36H428.168V166.332H425.168V165.36ZM430.736 165.36H433.76V166.332H430.736V165.36ZM433.172 163.692H434.624V172.8C434.624 173.184 434.58 173.488 434.492 173.712C434.404 173.936 434.24 174.108 434 174.228C433.752 174.348 433.448 174.424 433.088 174.456C432.736 174.488 432.3 174.504 431.78 174.504C431.764 174.36 431.732 174.2 431.684 174.024C431.636 173.848 431.58 173.668 431.516 173.484C431.452 173.308 431.384 173.156 431.312 173.028C431.528 173.044 431.74 173.056 431.948 173.064C432.164 173.064 432.356 173.064 432.524 173.064C432.7 173.056 432.82 173.052 432.884 173.052C432.996 173.052 433.072 173.032 433.112 172.992C433.152 172.952 433.172 172.88 433.172 172.776V163.692ZM425.276 163.692H429.08V168.048H425.276V167.016H427.724V164.736H425.276V163.692ZM433.94 163.692V164.736H431.252V167.04H433.94V168.072H429.884V163.692H433.94ZM424.448 163.692H425.876V174.504H424.448V163.692Z" fill="#5F6367"/>
<path d="M91.076 286.56L92.06 287.496C91.732 287.696 91.376 287.876 90.992 288.036C90.608 288.188 90.248 288.32 89.912 288.432C89.88 288.304 89.824 288.152 89.744 287.976C89.664 287.792 89.588 287.632 89.516 287.496C89.804 287.376 90.088 287.232 90.368 287.064C90.656 286.896 90.892 286.728 91.076 286.56ZM89.252 287.136L90.5 287.532V291.504H89.252V287.136ZM89.252 290.808H94.46V288.252H93.428V287.112H95.744V291.936H89.252V290.808ZM89.792 289.008H91.436V290.028H89.792V289.008ZM93.44 289.008H95.144V290.028H93.44V289.008ZM91.808 286.224H93.08V292.956H91.808V286.224ZM89.048 292.8H94.808V293.988H89.048V292.8ZM94.424 292.8H94.7L94.94 292.752L95.816 293.16C95.528 293.824 95.148 294.404 94.676 294.9C94.212 295.388 93.676 295.804 93.068 296.148C92.468 296.492 91.808 296.772 91.088 296.988C90.376 297.204 89.624 297.372 88.832 297.492C88.776 297.324 88.688 297.12 88.568 296.88C88.448 296.64 88.332 296.448 88.22 296.304C88.94 296.224 89.624 296.1 90.272 295.932C90.928 295.764 91.528 295.548 92.072 295.284C92.624 295.012 93.1 294.688 93.5 294.312C93.9 293.928 94.208 293.484 94.424 292.98V292.8ZM90.86 293.832C91.188 294.264 91.62 294.648 92.156 294.984C92.692 295.312 93.308 295.584 94.004 295.8C94.708 296.016 95.468 296.18 96.284 296.292C96.18 296.388 96.072 296.508 95.96 296.652C95.848 296.804 95.74 296.956 95.636 297.108C95.54 297.268 95.46 297.412 95.396 297.54C94.54 297.388 93.748 297.168 93.02 296.88C92.3 296.592 91.652 296.232 91.076 295.8C90.508 295.368 90.016 294.864 89.6 294.288L90.86 293.832ZM84.74 292.368C85.276 292.256 85.916 292.112 86.66 291.936C87.404 291.752 88.148 291.564 88.892 291.372L89.06 292.668C88.38 292.86 87.692 293.052 86.996 293.244C86.308 293.436 85.676 293.608 85.1 293.76L84.74 292.368ZM84.932 288.492H88.916V289.824H84.932V288.492ZM86.384 286.224H87.764V295.992C87.764 296.336 87.728 296.604 87.656 296.796C87.584 296.988 87.448 297.136 87.248 297.24C87.048 297.344 86.8 297.412 86.504 297.444C86.208 297.484 85.852 297.504 85.436 297.504C85.412 297.32 85.36 297.104 85.28 296.856C85.208 296.608 85.128 296.388 85.04 296.196C85.272 296.204 85.496 296.212 85.712 296.22C85.928 296.22 86.076 296.22 86.156 296.22C86.236 296.22 86.292 296.204 86.324 296.172C86.364 296.132 86.384 296.072 86.384 295.992V286.224ZM98.396 286.608H106.472V290.256H98.324V289.32H105.056V287.544H98.396V286.608ZM103.952 291.576V292.404H105.968V291.576H103.952ZM102.62 290.652H107.396V293.316H102.62V290.652ZM98.756 288H105.608V288.864H98.756V288ZM97.412 290.652H102.008V291.648H97.412V290.652ZM97.016 293.88H107.996V295.056H97.016V293.88ZM104.204 293.208H105.632V296.088C105.632 296.424 105.588 296.684 105.5 296.868C105.42 297.06 105.252 297.204 104.996 297.3C104.756 297.396 104.468 297.452 104.132 297.468C103.796 297.492 103.396 297.504 102.932 297.504C102.908 297.312 102.852 297.096 102.764 296.856C102.676 296.616 102.584 296.408 102.488 296.232C102.688 296.24 102.888 296.248 103.088 296.256C103.288 296.256 103.468 296.256 103.628 296.256C103.788 296.248 103.896 296.244 103.952 296.244C104.048 296.236 104.112 296.224 104.144 296.208C104.184 296.184 104.204 296.132 104.204 296.052V293.208ZM98.984 291.012H100.34V292.68H98.984V291.012ZM97.232 292.524C97.656 292.508 98.136 292.488 98.672 292.464C99.208 292.44 99.776 292.412 100.376 292.38C100.984 292.348 101.588 292.32 102.188 292.296L102.176 293.316C101.304 293.372 100.44 293.424 99.584 293.472C98.736 293.52 97.984 293.564 97.328 293.604L97.232 292.524ZM99.044 295.428L100.016 294.624C100.216 294.752 100.424 294.896 100.64 295.056C100.864 295.208 101.068 295.368 101.252 295.536C101.444 295.696 101.6 295.852 101.72 296.004L100.688 296.892C100.584 296.748 100.44 296.588 100.256 296.412C100.072 296.236 99.876 296.064 99.668 295.896C99.46 295.72 99.252 295.564 99.044 295.428ZM110.54 290.136H119.996V291.288H110.54V290.136ZM109.736 287.04H119.42V288.168H109.736V287.04ZM112.664 292.212H119.3V293.34H112.664V292.212ZM112.448 294.108H118.952V295.2H112.448V294.108ZM111.428 296.112H119.9V297.276H111.428V296.112ZM113.744 286.236H115.196V287.928H113.744V286.236ZM114.968 291.432H116.384V296.544H114.968V291.432ZM109.82 290.136H111.224V292.152C111.224 292.544 111.204 292.98 111.164 293.46C111.132 293.94 111.068 294.432 110.972 294.936C110.876 295.432 110.74 295.912 110.564 296.376C110.388 296.84 110.16 297.264 109.88 297.648C109.808 297.56 109.7 297.456 109.556 297.336C109.412 297.216 109.264 297.1 109.112 296.988C108.968 296.876 108.848 296.792 108.752 296.736C109.08 296.288 109.316 295.792 109.46 295.248C109.612 294.704 109.708 294.16 109.748 293.616C109.796 293.072 109.82 292.58 109.82 292.14V290.136ZM112.628 291.288L113.9 291.588C113.716 292.1 113.48 292.596 113.192 293.076C112.904 293.548 112.596 293.94 112.268 294.252C112.188 294.18 112.084 294.096 111.956 294C111.828 293.904 111.696 293.812 111.56 293.724C111.424 293.628 111.308 293.556 111.212 293.508C111.524 293.236 111.804 292.904 112.052 292.512C112.3 292.12 112.492 291.712 112.628 291.288ZM111.392 288.636L112.28 287.964C112.768 288.068 113.272 288.188 113.792 288.324C114.32 288.46 114.844 288.604 115.364 288.756C115.892 288.9 116.392 289.048 116.864 289.2C117.344 289.352 117.768 289.492 118.136 289.62L117.26 290.352C116.908 290.216 116.496 290.072 116.024 289.92C115.56 289.76 115.064 289.604 114.536 289.452C114.016 289.3 113.484 289.156 112.94 289.02C112.404 288.876 111.888 288.748 111.392 288.636ZM116.768 287.796L117.728 288.312C117.344 288.56 116.9 288.792 116.396 289.008C115.9 289.224 115.372 289.42 114.812 289.596C114.26 289.764 113.696 289.916 113.12 290.052C112.544 290.18 111.988 290.292 111.452 290.388C111.404 290.268 111.324 290.12 111.212 289.944C111.108 289.768 111.02 289.624 110.948 289.512C111.46 289.44 111.992 289.348 112.544 289.236C113.104 289.124 113.648 288.992 114.176 288.84C114.704 288.688 115.192 288.528 115.64 288.36C116.096 288.184 116.472 287.996 116.768 287.796ZM124.388 288.084V289.692H128.612V288.084H124.388ZM122.996 286.704H130.076V291.06H122.996V286.704ZM121.34 292.068H125.936V297.432H124.496V293.448H122.708V297.504H121.34V292.068ZM126.944 292.068H131.696V297.444H130.256V293.448H128.324V297.504H126.944V292.068ZM121.94 295.512H125.096V296.892H121.94V295.512ZM127.604 295.512H130.964V296.892H127.604V295.512Z" fill="#5F6367"/>
<path d="M188.332 290.904H192.592V292.164H188.332V290.904ZM188.284 287.94H193.072V289.236H188.284V287.94ZM190.168 286.26H191.56V291.696H190.168V286.26ZM187.696 287.94H189.04V290.736C189.04 291.224 189.02 291.764 188.98 292.356C188.94 292.94 188.86 293.54 188.74 294.156C188.628 294.764 188.464 295.356 188.248 295.932C188.032 296.5 187.748 297.016 187.396 297.48C187.316 297.4 187.204 297.312 187.06 297.216C186.916 297.12 186.768 297.028 186.616 296.94C186.472 296.852 186.344 296.788 186.232 296.748C186.568 296.316 186.832 295.844 187.024 295.332C187.216 294.812 187.36 294.284 187.456 293.748C187.56 293.212 187.624 292.684 187.648 292.164C187.68 291.644 187.696 291.164 187.696 290.724V287.94ZM189.88 291.636C190.224 292.732 190.764 293.684 191.5 294.492C192.236 295.3 193.18 295.888 194.332 296.256C194.22 296.344 194.104 296.46 193.984 296.604C193.864 296.756 193.748 296.908 193.636 297.06C193.532 297.22 193.444 297.368 193.372 297.504C192.148 297.032 191.16 296.324 190.408 295.38C189.656 294.428 189.068 293.284 188.644 291.948L189.88 291.636ZM192.7 287.94H192.904L193.12 287.892L194.152 288.096C194.056 288.544 193.948 289.004 193.828 289.476C193.708 289.948 193.592 290.348 193.48 290.676L192.244 290.448C192.324 290.152 192.408 289.784 192.496 289.344C192.584 288.904 192.652 288.496 192.7 288.12V287.94ZM192.304 290.904H192.58L192.82 290.856L193.756 291.18C193.524 292.268 193.18 293.22 192.724 294.036C192.276 294.852 191.728 295.544 191.08 296.112C190.44 296.672 189.708 297.132 188.884 297.492C188.828 297.372 188.752 297.236 188.656 297.084C188.568 296.94 188.468 296.796 188.356 296.652C188.252 296.508 188.152 296.392 188.056 296.304C188.76 296.04 189.4 295.664 189.976 295.176C190.56 294.688 191.052 294.104 191.452 293.424C191.852 292.744 192.136 291.984 192.304 291.144V290.904ZM184.408 292.548L185.776 290.928V297.492H184.408V292.548ZM183.016 288.348H186.376V289.632H183.016V288.348ZM184.408 286.26H185.764V289.092H184.408V286.26ZM185.572 291.024C185.66 291.104 185.788 291.248 185.956 291.456C186.132 291.656 186.316 291.876 186.508 292.116C186.708 292.348 186.884 292.564 187.036 292.764C187.196 292.964 187.312 293.108 187.384 293.196L186.568 294.156C186.472 293.98 186.348 293.78 186.196 293.556C186.052 293.324 185.896 293.084 185.728 292.836C185.56 292.588 185.396 292.356 185.236 292.14C185.084 291.924 184.952 291.748 184.84 291.612L185.572 291.024ZM186.04 288.348H186.316L186.556 288.288L187.312 288.804C187.04 289.54 186.692 290.256 186.268 290.952C185.844 291.648 185.38 292.284 184.876 292.86C184.372 293.436 183.86 293.916 183.34 294.3C183.308 294.18 183.252 294.032 183.172 293.856C183.092 293.68 183.008 293.512 182.92 293.352C182.832 293.184 182.752 293.06 182.68 292.98C183.152 292.668 183.608 292.28 184.048 291.816C184.488 291.344 184.884 290.832 185.236 290.28C185.588 289.72 185.856 289.16 186.04 288.6V288.348ZM186.916 290.628L187.756 291.252C187.556 291.508 187.356 291.764 187.156 292.02C186.956 292.276 186.768 292.496 186.592 292.68L185.92 292.152C186.032 292.016 186.148 291.86 186.268 291.684C186.388 291.5 186.504 291.316 186.616 291.132C186.736 290.94 186.836 290.772 186.916 290.628ZM201.496 290.472H202.936V297.504H201.496V290.472ZM198.328 291.984H206.044V293.28H198.328V291.984ZM203.212 292.56C203.436 292.992 203.716 293.42 204.052 293.844C204.396 294.268 204.768 294.66 205.168 295.02C205.576 295.38 205.988 295.68 206.404 295.92C206.3 296 206.18 296.108 206.044 296.244C205.916 296.38 205.792 296.52 205.672 296.664C205.56 296.808 205.464 296.94 205.384 297.06C204.968 296.764 204.556 296.396 204.148 295.956C203.748 295.516 203.372 295.04 203.02 294.528C202.676 294.008 202.38 293.48 202.132 292.944L203.212 292.56ZM201.292 292.44L202.42 292.836C202.164 293.396 201.852 293.944 201.484 294.48C201.116 295.008 200.712 295.492 200.272 295.932C199.832 296.364 199.372 296.732 198.892 297.036C198.82 296.916 198.724 296.784 198.604 296.64C198.492 296.496 198.372 296.36 198.244 296.232C198.124 296.096 198.008 295.98 197.896 295.884C198.36 295.644 198.808 295.344 199.24 294.984C199.672 294.616 200.064 294.216 200.416 293.784C200.776 293.344 201.068 292.896 201.292 292.44ZM200.488 288.024V289.632H204.016V288.024H200.488ZM199.132 286.752H205.468V290.892H199.132V286.752ZM197.56 286.26L198.892 286.692C198.628 287.372 198.312 288.052 197.944 288.732C197.584 289.404 197.192 290.044 196.768 290.652C196.352 291.252 195.924 291.78 195.484 292.236C195.444 292.116 195.38 291.964 195.292 291.78C195.204 291.596 195.108 291.408 195.004 291.216C194.9 291.024 194.804 290.872 194.716 290.76C195.092 290.392 195.456 289.968 195.808 289.488C196.16 289.008 196.484 288.492 196.78 287.94C197.084 287.388 197.344 286.828 197.56 286.26ZM196.396 289.572L197.764 288.204V288.216V297.468H196.396V289.572ZM211.492 286.512H213.148C213.132 286.848 213.104 287.28 213.064 287.808C213.024 288.336 212.948 288.924 212.836 289.572C212.732 290.212 212.572 290.884 212.356 291.588C212.14 292.292 211.844 292.996 211.468 293.7C211.1 294.396 210.628 295.064 210.052 295.704C209.484 296.336 208.792 296.9 207.976 297.396C207.848 297.212 207.672 297.016 207.448 296.808C207.232 296.6 207.004 296.412 206.764 296.244C207.564 295.796 208.236 295.284 208.78 294.708C209.324 294.132 209.768 293.528 210.112 292.896C210.456 292.256 210.72 291.616 210.904 290.976C211.088 290.328 211.22 289.716 211.3 289.14C211.38 288.564 211.428 288.048 211.444 287.592C211.46 287.136 211.476 286.776 211.492 286.512ZM213.088 286.836C213.096 286.988 213.112 287.228 213.136 287.556C213.16 287.884 213.208 288.276 213.28 288.732C213.352 289.188 213.46 289.684 213.604 290.22C213.756 290.748 213.956 291.292 214.204 291.852C214.452 292.412 214.76 292.96 215.128 293.496C215.496 294.032 215.94 294.528 216.46 294.984C216.988 295.44 217.604 295.836 218.308 296.172C218.076 296.34 217.86 296.536 217.66 296.76C217.468 296.984 217.312 297.196 217.192 297.396C216.456 297.028 215.812 296.592 215.26 296.088C214.716 295.576 214.248 295.024 213.856 294.432C213.472 293.832 213.152 293.224 212.896 292.608C212.64 291.992 212.432 291.388 212.272 290.796C212.12 290.196 212.004 289.64 211.924 289.128C211.844 288.616 211.788 288.172 211.756 287.796C211.732 287.42 211.712 287.148 211.696 286.98L213.088 286.836ZM224.32 286.572H225.676V288.036C225.676 288.412 225.636 288.808 225.556 289.224C225.484 289.632 225.34 290.028 225.124 290.412C224.908 290.796 224.592 291.136 224.176 291.432C224.104 291.344 224 291.24 223.864 291.12C223.736 290.992 223.6 290.872 223.456 290.76C223.312 290.648 223.192 290.564 223.096 290.508C223.464 290.26 223.732 289.996 223.9 289.716C224.076 289.436 224.188 289.148 224.236 288.852C224.292 288.556 224.32 288.276 224.32 288.012V286.572ZM227.008 286.572H228.364V289.272C228.364 289.432 228.372 289.532 228.388 289.572C228.412 289.612 228.456 289.632 228.52 289.632C228.536 289.632 228.564 289.632 228.604 289.632C228.644 289.632 228.684 289.632 228.724 289.632C228.772 289.632 228.804 289.632 228.82 289.632C228.868 289.632 228.908 289.608 228.94 289.56C228.972 289.504 228.996 289.392 229.012 289.224C229.028 289.048 229.04 288.784 229.048 288.432C229.176 288.544 229.356 288.648 229.588 288.744C229.828 288.832 230.036 288.9 230.212 288.948C230.172 289.444 230.104 289.832 230.008 290.112C229.912 290.392 229.78 290.588 229.612 290.7C229.452 290.804 229.24 290.856 228.976 290.856C228.912 290.856 228.836 290.856 228.748 290.856C228.66 290.856 228.572 290.856 228.484 290.856C228.404 290.856 228.332 290.856 228.268 290.856C227.948 290.856 227.696 290.808 227.512 290.712C227.328 290.616 227.196 290.456 227.116 290.232C227.044 290 227.008 289.684 227.008 289.284V286.572ZM225.46 292.692C225.868 293.548 226.484 294.288 227.308 294.912C228.132 295.528 229.108 295.972 230.236 296.244C230.132 296.34 230.02 296.46 229.9 296.604C229.78 296.756 229.668 296.908 229.564 297.06C229.46 297.22 229.372 297.364 229.3 297.492C228.108 297.132 227.084 296.58 226.228 295.836C225.38 295.084 224.7 294.172 224.188 293.1L225.46 292.692ZM228.136 291.408H228.412L228.664 291.348L229.6 291.696C229.392 292.504 229.108 293.22 228.748 293.844C228.396 294.46 227.976 295.004 227.488 295.476C227 295.948 226.452 296.348 225.844 296.676C225.236 297.004 224.584 297.276 223.888 297.492C223.84 297.364 223.772 297.22 223.684 297.06C223.596 296.908 223.5 296.756 223.396 296.604C223.3 296.452 223.208 296.324 223.12 296.22C223.736 296.068 224.316 295.86 224.86 295.596C225.404 295.324 225.892 294.996 226.324 294.612C226.764 294.228 227.136 293.784 227.44 293.28C227.752 292.776 227.984 292.224 228.136 291.624V291.408ZM223.732 291.408H228.7V292.692H223.732V291.408ZM224.86 286.572H227.752V287.832H224.86V286.572ZM219.436 289.908H223.156V291H219.436V289.908ZM219.484 286.608H223.132V287.688H219.484V286.608ZM219.436 291.552H223.156V292.632H219.436V291.552ZM218.86 288.216H223.576V289.356H218.86V288.216ZM220.096 293.208H223.132V296.868H220.096V295.728H221.896V294.348H220.096V293.208ZM219.4 293.208H220.624V297.336H219.4V293.208ZM233.176 289.848H239.812V291.228H233.176V289.848ZM236.5 292.728H240.544V294.084H236.5V292.728ZM235.744 290.652H237.244V296.448L235.744 296.268V290.652ZM232.876 291.888L234.376 292.044C234.216 293.268 233.944 294.348 233.56 295.284C233.176 296.22 232.64 296.984 231.952 297.576C231.872 297.488 231.76 297.38 231.616 297.252C231.472 297.124 231.32 297 231.16 296.88C231.008 296.76 230.876 296.664 230.764 296.592C231.412 296.112 231.9 295.468 232.228 294.66C232.556 293.844 232.772 292.92 232.876 291.888ZM234.04 293.4C234.224 293.944 234.464 294.388 234.76 294.732C235.064 295.068 235.412 295.324 235.804 295.5C236.204 295.668 236.64 295.784 237.112 295.848C237.584 295.912 238.084 295.944 238.612 295.944C238.74 295.944 238.912 295.944 239.128 295.944C239.352 295.944 239.596 295.944 239.86 295.944C240.132 295.944 240.408 295.944 240.688 295.944C240.968 295.936 241.228 295.932 241.468 295.932C241.708 295.924 241.908 295.916 242.068 295.908C241.996 296.028 241.924 296.176 241.852 296.352C241.788 296.52 241.728 296.696 241.672 296.88C241.616 297.064 241.576 297.232 241.552 297.384H240.94H238.54C237.844 297.384 237.204 297.336 236.62 297.24C236.036 297.144 235.508 296.968 235.036 296.712C234.572 296.464 234.156 296.104 233.788 295.632C233.428 295.16 233.12 294.544 232.864 293.784L234.04 293.4ZM235.72 286.248H237.256V288.432H235.72V286.248ZM231.352 287.46H241.66V290.472H240.184V288.816H232.768V290.472H231.352V287.46Z" fill="#5F6367"/>
<path d="M306.012 286.224H307.476V290.928H306.012V286.224ZM304.92 295.692H308.82V296.976H304.92V295.692ZM303.468 287.784H310.128V289.092H303.468V287.784ZM303.804 290.4H309.84V291.708H303.804V290.4ZM304.188 292.728H309.576V297.48H308.184V294.012H305.508V297.492H304.188V292.728ZM300.66 286.236L301.932 286.68C301.772 286.992 301.604 287.312 301.428 287.64C301.252 287.96 301.08 288.272 300.912 288.576C300.744 288.872 300.58 289.132 300.42 289.356L299.448 288.96C299.592 288.712 299.74 288.432 299.892 288.12C300.044 287.8 300.188 287.476 300.324 287.148C300.46 286.82 300.572 286.516 300.66 286.236ZM302.1 287.664L303.324 288.168C303.028 288.624 302.708 289.104 302.364 289.608C302.02 290.104 301.672 290.58 301.32 291.036C300.968 291.492 300.64 291.892 300.336 292.236L299.46 291.792C299.692 291.52 299.928 291.212 300.168 290.868C300.408 290.524 300.644 290.168 300.876 289.8C301.116 289.432 301.34 289.064 301.548 288.696C301.764 288.32 301.948 287.976 302.1 287.664ZM298.812 289.08L299.496 288.096C299.704 288.272 299.92 288.472 300.144 288.696C300.368 288.912 300.572 289.128 300.756 289.344C300.948 289.56 301.092 289.76 301.188 289.944L300.456 291.06C300.36 290.876 300.22 290.668 300.036 290.436C299.86 290.196 299.664 289.96 299.448 289.728C299.232 289.488 299.02 289.272 298.812 289.08ZM301.812 290.556L302.832 290.112C302.992 290.376 303.148 290.66 303.3 290.964C303.452 291.268 303.584 291.568 303.696 291.864C303.808 292.152 303.892 292.412 303.948 292.644L302.844 293.148C302.796 292.924 302.72 292.664 302.616 292.368C302.512 292.064 302.388 291.756 302.244 291.444C302.108 291.124 301.964 290.828 301.812 290.556ZM298.812 291.516C299.364 291.5 300.028 291.476 300.804 291.444C301.58 291.412 302.368 291.376 303.168 291.336L303.156 292.476C302.404 292.532 301.656 292.588 300.912 292.644C300.176 292.692 299.516 292.732 298.932 292.764L298.812 291.516ZM302.016 293.556L303.072 293.208C303.24 293.568 303.396 293.96 303.54 294.384C303.684 294.808 303.788 295.176 303.852 295.488L302.736 295.896C302.68 295.576 302.584 295.2 302.448 294.768C302.312 294.328 302.168 293.924 302.016 293.556ZM299.328 293.28L300.516 293.496C300.452 294.072 300.356 294.64 300.228 295.2C300.1 295.76 299.952 296.232 299.784 296.616C299.704 296.56 299.596 296.496 299.46 296.424C299.324 296.36 299.184 296.296 299.04 296.232C298.904 296.168 298.784 296.12 298.68 296.088C298.856 295.728 298.996 295.3 299.1 294.804C299.204 294.3 299.28 293.792 299.328 293.28ZM300.72 292.152H301.992V297.504H300.72V292.152ZM312.66 286.236H313.872V297.504H312.66V286.236ZM311.088 288.444H314.916V289.704H312.144V295.008H311.088V288.444ZM314.412 288.444H315.432V293.58C315.432 293.796 315.412 293.996 315.372 294.18C315.34 294.364 315.26 294.508 315.132 294.612C315.004 294.724 314.864 294.796 314.712 294.828C314.568 294.852 314.392 294.864 314.184 294.864C314.176 294.696 314.14 294.496 314.076 294.264C314.012 294.024 313.94 293.824 313.86 293.664C313.964 293.664 314.056 293.664 314.136 293.664C314.224 293.664 314.284 293.664 314.316 293.664C314.38 293.664 314.412 293.624 314.412 293.544V288.444ZM316.764 286.668H321.6V287.832H316.764V286.668ZM316.776 288.372H321.216V289.428H316.776V288.372ZM316.776 289.992H321.216V291.048H316.776V289.992ZM315.552 291.612H322.032V292.788H315.552V291.612ZM315.156 296.112C315.684 296.048 316.316 295.96 317.052 295.848C317.796 295.736 318.548 295.624 319.308 295.512L319.392 296.688C318.704 296.816 318.016 296.94 317.328 297.06C316.64 297.18 316.016 297.288 315.456 297.384L315.156 296.112ZM319.32 292.02C319.456 292.684 319.644 293.296 319.884 293.856C320.132 294.416 320.452 294.9 320.844 295.308C321.244 295.716 321.736 296.032 322.32 296.256C322.216 296.352 322.104 296.472 321.984 296.616C321.864 296.76 321.752 296.912 321.648 297.072C321.544 297.232 321.456 297.376 321.384 297.504C320.744 297.2 320.212 296.792 319.788 296.28C319.372 295.768 319.032 295.168 318.768 294.48C318.512 293.792 318.308 293.028 318.156 292.188L319.32 292.02ZM321.216 292.884L322.164 293.748C321.844 294.02 321.496 294.292 321.12 294.564C320.744 294.836 320.408 295.068 320.112 295.26L319.32 294.456C319.512 294.328 319.724 294.176 319.956 294C320.188 293.816 320.416 293.628 320.64 293.436C320.864 293.236 321.056 293.052 321.216 292.884ZM316.236 286.668H317.568V292.188H316.236V286.668ZM316.224 292.212H317.556V296.256L316.224 296.424V292.212Z" fill="#5F6367"/>
</svg>
