<svg width="826" height="851" viewBox="0 0 826 851" fill="none" xmlns="http://www.w3.org/2000/svg">
<g clip-path="url(#clip0_1831_4444)">
<path d="M282.727 742.2C272.006 743.277 261.172 744.581 251.302 748.775C246.537 750.815 241.319 755.463 243.474 760.167C244.268 761.981 246.083 763.171 247.898 764.021C252.663 766.175 258.052 766.288 263.27 766.345C293.164 766.685 323.057 767.025 352.95 767.365C430.377 768.216 507.805 769.066 585.232 769.972C600.831 770.142 617.961 769.803 629.646 759.544C628.342 756.71 624.881 755.746 621.875 755.123C575.929 745.884 527.544 757.163 481.939 746.508C487.725 744.694 493.51 742.937 499.296 741.124C488.859 734.889 476.266 733.642 464.128 732.905C440.928 731.432 417.728 731.091 394.528 730.751C384.828 730.581 374.675 730.355 365.316 733.359C358.452 735.569 353.177 737.61 345.746 737.95C324.588 738.856 303.657 740.103 282.727 742.2Z" fill="url(#paint0_linear_1831_4444)"/>
<path opacity="0.56" d="M282.727 742.201C272.006 743.278 261.172 744.582 251.302 748.776C246.537 750.816 241.319 755.464 243.474 760.168C244.268 761.982 246.083 763.172 247.898 764.022C252.663 766.176 258.052 766.289 263.27 766.346C293.164 766.686 323.057 767.026 352.95 767.366C430.377 768.217 507.805 769.066 585.232 769.973C600.831 770.143 617.961 769.803 629.646 759.545C628.342 756.711 624.881 755.747 621.875 755.124C575.929 745.885 527.544 757.164 481.939 746.509C487.725 744.695 493.51 742.938 499.296 741.124C488.859 734.89 476.266 733.643 464.128 732.906C440.928 731.433 417.728 731.092 394.528 730.752C384.828 730.582 374.675 730.356 365.316 733.36C358.452 735.57 353.177 737.61 345.746 737.951C324.588 738.857 303.657 740.104 282.727 742.201Z" fill="url(#paint1_linear_1831_4444)"/>
<path opacity="0.33" d="M421.136 710.518L685.013 405.705L137.746 401.057L402.19 710.178L421.136 710.518Z" fill="#E8EDEF"/>
<g opacity="0.69">
<g opacity="0.69">
<g opacity="0.69">
<path opacity="0.69" d="M678.205 90.6889C678.205 90.6889 678.205 101.628 678.092 111.32C677.127 175.706 678.545 240.148 682.232 304.704C683.31 323.352 684.558 342.055 686.033 360.759C686.827 370.677 685.068 405.704 685.068 405.704C673.497 412.279 628.969 406.384 614.164 406.271C590.057 406.158 566.176 405.988 542.523 405.874C427.488 405.251 316.991 404.627 210.748 404.004C193.448 403.89 176.204 403.834 159.13 403.721C153.117 403.664 141.886 405.194 137.859 401C132.413 395.332 132.073 360.135 132.073 353.051C131.846 277.216 137.065 211.696 133.605 136.145C132.81 118.745 129.691 100.324 131.619 83.0371C143.928 80.8267 159.187 82.8107 171.95 82.9808C265.43 84.341 362.256 85.7012 462.6 87.1181C505.653 87.7416 549.33 88.3651 593.744 88.9886C615.299 89.272 637.931 88.365 659.656 89.952C666.407 90.5188 675.369 89.1586 678.205 90.6889Z" fill="#EDF3F4"/>
</g>
<g opacity="0.69">
<g opacity="0.69">
<g opacity="0.69">
<path opacity="0.69" d="M356.354 215.324C355.333 215.324 354.425 214.587 354.312 213.511C354.198 212.377 354.992 211.357 356.07 211.244C358.452 210.96 360.835 210.733 363.217 210.507C364.352 210.45 365.316 211.243 365.429 212.377C365.543 213.51 364.692 214.474 363.558 214.587C361.232 214.757 358.906 214.984 356.58 215.268C356.524 215.324 356.467 215.324 356.354 215.324Z" fill="#4675B8"/>
</g>
<g opacity="0.69">
<path opacity="0.69" d="M301.844 287.759C301.334 287.759 300.88 287.589 300.483 287.249L263.102 252.845C262.308 252.052 262.251 250.805 263.046 249.954C263.84 249.104 265.088 249.104 265.938 249.898L303.262 284.301C304.113 285.095 304.17 286.342 303.376 287.192C302.979 287.532 302.411 287.759 301.844 287.759ZM292.315 228.587C291.407 228.587 290.556 227.964 290.329 227C290.103 225.923 290.783 224.79 291.861 224.563L328.447 216.401C332.815 215.438 337.126 214.474 341.494 213.624C342.572 213.397 343.649 214.134 343.876 215.211C344.103 216.288 343.366 217.365 342.288 217.592C337.977 218.442 333.666 219.405 329.355 220.369L292.768 228.53C292.598 228.587 292.428 228.587 292.315 228.587Z" fill="#4675B8"/>
</g>
<g opacity="0.69">
<path opacity="0.69" d="M329.577 313.206C329.52 313.206 329.52 313.206 329.463 313.206C327.081 313.036 324.755 312.922 322.373 312.809C321.238 312.752 320.387 311.789 320.444 310.655C320.501 309.522 321.408 308.785 322.6 308.728C323.11 308.728 323.621 308.785 324.074 308.785L322.713 307.538C321.862 306.745 321.805 305.498 322.6 304.648C323.337 303.854 324.642 303.797 325.492 304.534L331.051 309.635C331.675 310.202 331.902 311.165 331.562 311.959C331.108 312.752 330.371 313.206 329.577 313.206Z" fill="#4675B8"/>
</g>
<g opacity="0.69">
<path opacity="0.69" d="M270.757 314.227C269.736 314.227 268.829 313.433 268.715 312.356C268.602 311.223 269.453 310.259 270.53 310.146C283.804 308.842 297.36 308.332 310.747 308.446C311.882 308.446 312.789 309.409 312.789 310.486C312.789 311.619 311.882 312.526 310.747 312.526C297.474 312.413 284.087 312.923 270.984 314.227C270.871 314.227 270.814 314.227 270.757 314.227Z" fill="#4675B8"/>
</g>
<g opacity="0.69">
<path opacity="0.69" d="M257.144 315.814C256.123 315.814 255.272 315.077 255.102 314.057C254.932 312.924 255.726 311.904 256.86 311.79C259.243 311.507 261.569 311.167 263.951 310.94C265.085 310.827 266.106 311.62 266.22 312.754C266.333 313.887 265.539 314.908 264.405 315.021C262.079 315.304 259.697 315.588 257.371 315.871C257.314 315.758 257.201 315.814 257.144 315.814Z" fill="#4675B8"/>
</g>
</g>
</g>
</g>
<g opacity="0.69">
<path opacity="0.69" d="M437.015 222.124C507.352 223.711 577.575 229.152 647.118 240.204C649.387 240.545 648.876 244.568 646.551 244.285C576.951 235.387 507.182 229.379 437.015 227.962C433.271 227.848 433.271 222.011 437.015 222.124Z" fill="#F1F1F2"/>
</g>
<g opacity="0.69">
<path opacity="0.69" d="M508.484 142.946C508.598 139.942 513.136 139.942 513.136 142.946C513.079 190.555 505.194 237.881 497.083 284.64C496.289 289.231 489.539 287.191 490.163 282.714C496.572 236.238 506.499 189.988 508.484 142.946Z" fill="#F1F1F2"/>
</g>
<g opacity="0.69">
<path opacity="0.69" d="M614.045 223.824C616.598 226.602 619.831 226.545 623.348 226.658C624.482 226.942 625.674 227.169 627.035 227.169C629.985 227.282 632.651 227.338 635.543 228.019C637.018 228.359 638.833 229.095 640.365 228.699C642.69 228.075 643.485 225.808 643.825 223.768C644.789 217.59 645.413 206.651 637.812 204.724C633.161 203.534 627.999 203.647 623.234 203.93C620.512 204.1 616.087 203.874 613.762 205.687C609.337 209.258 610.472 219.97 614.045 223.824Z" fill="#F1F1F2"/>
</g>
<g opacity="0.69">
<path opacity="0.69" d="M606.162 225.582C606.105 225.979 605.992 226.489 605.708 226.772C605.255 227.169 604.574 227.169 604.007 227.056C597.087 226.262 590.109 225.525 583.189 224.732C582.168 224.618 581.034 224.448 580.353 223.655C579.786 222.975 579.729 222.011 579.672 221.161C579.502 216.06 579.843 210.959 580.693 205.971C580.864 204.838 581.204 203.591 582.168 203.024C582.792 202.684 583.53 202.684 584.21 202.684C588.975 202.741 603.61 200.474 606.729 204.271C609.679 208.012 606.843 221.331 606.162 225.582Z" fill="#F1F1F2"/>
</g>
<g opacity="0.69">
<path opacity="0.69" d="M574.516 215.039C574.119 217.59 573.325 220.65 570.886 221.501C569.695 221.897 568.334 221.671 567.086 221.444C564.079 220.877 561.073 220.31 558.067 219.744C557.613 219.63 557.159 219.573 556.819 219.233C556.478 218.837 556.365 218.327 556.365 217.816C555.911 211.865 556.422 205.801 557.84 200.02C561.357 200.076 571.567 199.85 574.29 202.57C576.842 205.177 575.027 211.809 574.516 215.039Z" fill="#F1F1F2"/>
</g>
<g opacity="0.69">
<path opacity="0.69" d="M567.081 309.465C571.846 319.554 584.211 320.858 594.025 318.761C603.554 316.72 612.403 310.372 614.842 300.624C616.544 293.822 614.502 288.041 610.645 283.28C608.659 278.803 604.859 275.232 599.186 273.929C590.054 271.775 577.064 275.912 570.541 282.714C564.131 289.345 563.281 301.36 567.081 309.465ZM604.348 292.405C603.611 306.405 582.68 319.157 575.703 302.154C575.022 300.454 573.491 299.66 572.016 299.547C572.016 298.016 572.129 296.486 572.356 295.013C573.718 287.474 579.844 284.244 586.651 282.43C594.365 280.39 604.859 282.43 604.348 292.405Z" fill="#F1F1F2"/>
</g>
<g opacity="0.69">
<path opacity="0.69" d="M592.437 239.752C592.834 234.935 600.378 234.878 600.038 239.752C599.017 252.391 596.578 264.974 595.67 277.613C595.5 279.767 592.267 279.823 592.324 277.613C592.38 265.03 591.416 252.448 592.437 239.752Z" fill="#F1F1F2"/>
</g>
<g opacity="0.69">
<path opacity="0.69" d="M494.021 281.806C518.582 284.356 542.747 288.721 566.514 295.579C569.293 296.372 568.102 300.283 565.322 299.829C541.669 296.032 517.902 292.915 494.021 290.875C488.235 290.308 488.292 281.182 494.021 281.806Z" fill="#F1F1F2"/>
</g>
<g opacity="0.69">
<path opacity="0.69" d="M393.733 347.383C429.356 345.796 464.978 344.322 500.657 343.132C517.844 342.565 535.088 341.998 552.275 341.545C557.664 341.375 573.887 343.869 578.084 340.921C584.664 336.33 583.076 326.809 583.756 318.987C583.983 316.21 588.011 316.153 588.124 318.987C588.578 327.545 588.975 336.047 589.202 344.606C589.259 346.703 587.443 348.233 585.458 348.346C521.531 350.897 457.604 352.144 393.733 355.034C388.798 355.261 388.798 347.609 393.733 347.383Z" fill="#F1F1F2"/>
</g>
<g opacity="0.69">
<path opacity="0.69" d="M616.32 303.118C629.253 310.089 642.753 316.55 655.232 324.372C658.976 326.696 655.686 332.363 651.772 330.323C638.782 323.522 626.36 315.133 613.824 307.482C610.988 305.782 613.427 301.587 616.32 303.118Z" fill="#F1F1F2"/>
</g>
<g opacity="0.69">
<path opacity="0.69" d="M515.24 154.904C539.915 156.435 564.419 158.815 588.98 161.365C591.59 161.649 591.703 165.673 588.98 165.559C564.362 164.483 539.801 163.293 515.24 161.252C511.213 160.912 511.156 154.621 515.24 154.904Z" fill="#F1F1F2"/>
</g>
<g opacity="0.69">
<path opacity="0.69" d="M512.401 113.303C513.025 109.903 518.3 111.32 517.62 114.72C515.634 124.129 513.706 133.31 513.025 142.946C512.968 143.966 511.494 143.966 511.437 142.946C510.699 133.084 510.643 123.052 512.401 113.303Z" fill="#F1F1F2"/>
</g>
<g opacity="0.69">
<path opacity="0.69" d="M531.235 156.492C533.788 146.744 535.376 136.768 536.397 126.736C536.51 125.376 538.609 125.319 538.609 126.736C538.496 136.938 537.588 147.027 536.397 157.172C535.886 160.97 530.271 160.12 531.235 156.492Z" fill="#F1F1F2"/>
</g>
<g opacity="0.69">
<path opacity="0.69" d="M549.84 155.074C551.429 147.479 552.79 139.884 554.095 132.233C554.378 130.589 557.214 130.929 557.044 132.629C556.477 140.338 555.796 148.046 555.172 155.811C554.832 159.722 549.046 158.928 549.84 155.074Z" fill="#F1F1F2"/>
</g>
<g opacity="0.69">
<path opacity="0.69" d="M569.463 133.594C569.463 131.27 572.809 131.327 573.036 133.594C573.774 141.869 574.057 150.371 573.604 158.702C573.377 163.123 566.853 162.386 567.534 157.909C568.839 149.747 569.519 141.813 569.463 133.594Z" fill="#F1F1F2"/>
</g>
<g opacity="0.69">
<path opacity="0.69" d="M577.294 157.852C580.016 149.01 581.832 140.282 582.853 131.1C583.08 128.946 586.483 128.89 586.313 131.1C585.405 140.282 584.441 149.464 583.533 158.645C583.08 163.406 575.989 162.159 577.294 157.852Z" fill="#F1F1F2"/>
</g>
<g opacity="0.69">
<path opacity="0.69" d="M550.525 218.497C550.412 218.894 550.241 219.347 549.901 219.631C549.561 219.914 549.107 219.971 548.653 219.971C543.718 220.424 538.783 220.254 533.905 219.574C532.487 219.347 530.899 219.007 530.048 217.817C529.367 216.797 529.424 215.55 529.481 214.303C529.594 212.206 529.708 210.109 529.821 208.012C530.048 204.328 530.445 200.247 533.281 197.866C537.365 194.409 547.689 194.919 550.979 199.453C554.325 204.158 552 213.679 550.525 218.497Z" fill="#F1F1F2"/>
</g>
<g opacity="0.69">
<g opacity="0.69">
<path opacity="0.69" d="M487.556 165.844C487.896 164.597 488.293 163.293 488.974 162.5C489.541 161.82 490.279 161.593 490.959 161.423C494.873 160.233 498.844 159.213 502.815 158.249C501.85 164.314 500.886 170.378 499.922 176.443C494.817 176.839 489.768 177.179 484.663 177.803C485.571 173.779 486.535 169.811 487.556 165.844Z" fill="#F1F1F2"/>
</g>
<g opacity="0.69">
<path opacity="0.69" d="M496.235 200.19C495.157 206.991 494.136 213.792 493.115 220.594C488.578 220.594 484.096 220.14 479.615 219.177C479.842 213.622 480.239 208.125 480.806 202.627C485.968 201.777 491.073 200.983 496.235 200.19Z" fill="#F1F1F2"/>
</g>
<g opacity="0.69">
<path opacity="0.69" d="M484.267 180.07C489.372 179.447 494.478 179.107 499.639 178.653C498.618 185.115 497.597 191.519 496.576 197.98C491.415 198.774 486.253 199.567 481.091 200.417C481.885 193.559 482.906 186.758 484.267 180.07Z" fill="#F1F1F2"/>
</g>
</g>
<g opacity="0.69">
<g opacity="0.69">
<path opacity="0.69" d="M469.404 165.277C469.744 164.03 470.141 162.726 470.822 161.933C471.389 161.253 472.126 161.026 472.807 160.856C476.721 159.666 480.692 158.646 484.662 157.682C483.698 163.747 482.734 169.811 481.769 175.875C476.664 176.272 471.616 176.613 466.511 177.236C467.418 173.212 468.383 169.188 469.404 165.277Z" fill="#F1F1F2"/>
</g>
<g opacity="0.69">
<path opacity="0.69" d="M478.082 199.623C477.004 206.424 475.983 213.225 474.962 220.027C470.424 220.027 465.943 219.573 461.462 218.61C461.689 213.055 462.086 207.557 462.653 202.06C467.815 201.209 472.92 200.416 478.082 199.623Z" fill="#F1F1F2"/>
</g>
<g opacity="0.69">
<path opacity="0.69" d="M466.112 179.503C471.217 178.88 476.322 178.54 481.484 178.086C480.463 184.548 479.442 190.952 478.421 197.414C473.259 198.207 468.097 199.001 462.936 199.851C463.73 192.993 464.751 186.191 466.112 179.503Z" fill="#F1F1F2"/>
</g>
</g>
<g opacity="0.69">
<g opacity="0.69">
<path opacity="0.69" d="M450.517 165.277C450.857 164.03 451.254 162.726 451.935 161.933C452.502 161.253 453.24 161.026 453.92 160.856C457.834 159.666 461.805 158.646 465.775 157.682C464.811 163.747 463.847 169.811 462.883 175.875C457.778 176.272 452.729 176.613 447.624 177.236C448.532 173.212 449.439 169.188 450.517 165.277Z" fill="#F1F1F2"/>
</g>
<g opacity="0.69">
<path opacity="0.69" d="M459.14 199.623C458.063 206.424 457.042 213.226 456.021 220.027C451.483 220.027 447.002 219.574 442.521 218.61C442.747 213.056 443.144 207.558 443.712 202.06C448.873 201.21 454.035 200.417 459.14 199.623Z" fill="#F1F1F2"/>
</g>
<g opacity="0.69">
<path opacity="0.69" d="M447.229 179.503C452.334 178.88 457.439 178.54 462.601 178.086C461.58 184.548 460.559 190.952 459.538 197.414C454.376 198.207 449.215 199.001 444.053 199.851C444.79 192.993 445.868 186.191 447.229 179.503Z" fill="#F1F1F2"/>
</g>
</g>
<g opacity="0.69">
<path opacity="0.69" d="M627.548 323.692C623.067 320.404 616.998 320.688 611.439 321.084C609.567 321.198 607.582 321.425 606.277 322.728C605.483 323.522 605.029 324.655 604.689 325.732C600.945 336.161 597.201 346.59 593.514 357.018C592.834 358.889 592.21 360.816 592.38 362.743C592.777 366.54 596.294 369.204 599.754 370.904C608.262 375.099 617.905 376.402 627.321 377.649C643.034 379.69 665.042 376.856 661.809 355.318C660.845 348.687 656.194 345.116 651.032 341.432C642.92 335.821 635.433 329.473 627.548 323.692Z" fill="#B3CDDD"/>
</g>
<g opacity="0.69">
<path opacity="0.69" d="M620.858 177.576C613.711 177.236 605.543 176.045 601.799 169.981C599.757 166.637 599.643 162.556 599.587 158.702C599.416 142.945 600.381 127.189 602.366 111.546C602.65 109.562 602.99 107.408 604.351 105.935C605.543 104.631 607.301 104.121 609.003 103.611C618.929 100.89 629.31 99.7003 639.577 99.9837C644.682 100.154 650.411 101.004 653.53 105.085C655.686 107.918 656.026 111.716 656.253 115.23C657.331 132.403 659.316 152.014 656.423 169.074C653.928 183.64 631.976 178.142 620.858 177.576Z" fill="#9FB18F"/>
</g>
<g opacity="0.69">
<path opacity="0.69" d="M577.463 373.171C575.477 373.171 573.435 373.171 571.45 373.171C570.826 373.171 570.202 373.171 569.691 372.775C569.238 372.435 569.011 371.811 568.841 371.244C567.649 367.22 567.025 363.026 566.912 358.832C566.742 352.087 578.54 352.824 581.263 357.472C584.326 362.686 585.063 373.171 577.463 373.171Z" fill="#F1F1F2"/>
</g>
<path opacity="0.69" d="M561.015 357.755C556.364 353.957 550.578 355.204 545.36 356.508C539.404 357.981 533.788 357.018 527.719 357.755C527.946 361.212 528.116 364.613 528.343 368.07C528.399 368.864 528.456 369.77 528.967 370.394C529.704 371.301 531.009 371.414 532.143 371.414C535.206 371.414 538.326 371.187 541.389 370.791C541.389 366.88 541.276 362.969 540.879 359.058L546.04 359.455C545.19 362.742 546.267 367.277 547.175 370.507C547.459 371.527 547.912 372.661 548.933 373.115C549.614 373.455 550.465 373.341 551.202 373.284C556.137 372.661 564.078 373.681 565.043 367.787C565.553 364.499 563.511 359.795 561.015 357.755Z" fill="#F1F1F2"/>
<g opacity="0.69">
<path opacity="0.69" d="M509.795 373.681C508.888 373.284 507.98 372.774 507.526 371.867C507.129 371.13 507.073 370.28 507.073 369.43C506.959 366.709 506.846 363.932 506.789 361.212C506.506 352.937 518.474 355.487 520.97 361.098C521.821 363.025 523.466 369.6 522.672 371.584C520.913 376.005 513.653 375.325 509.795 373.681Z" fill="#F1F1F2"/>
</g>
<g opacity="0.69">
<path opacity="0.69" d="M501.058 375.041C496.123 375.891 491.018 375.721 486.139 374.644C485.686 374.531 485.232 374.418 484.892 374.135C484.551 373.794 484.381 373.284 484.268 372.831C482.963 367.9 482.453 362.799 482.736 357.755C482.793 356.451 498.165 356.337 499.583 357.641C502.703 360.362 501.341 371.244 501.058 375.041Z" fill="#F1F1F2"/>
</g>
<g opacity="0.69">
<path opacity="0.69" d="M477.343 369.714C477.513 371.018 477.683 372.491 477.059 373.682C475.925 375.892 472.862 376.175 470.366 376.119C467.133 376.062 463.843 376.006 460.609 375.949C459.135 375.949 457.49 375.835 456.582 374.702C456.128 374.135 455.901 373.398 455.788 372.661C454.824 368.127 454.483 363.423 454.88 358.775C455.051 356.905 474.847 358.775 476.776 359.229C475.017 361.723 476.946 366.71 477.343 369.714Z" fill="#F1F1F2"/>
</g>
</g>
<path d="M635.765 723.978C642.742 723.411 649.776 723.695 656.696 724.885C662.028 728.852 667.87 732.14 673.996 734.634C675.812 735.37 677.683 736.051 678.988 737.467C680.293 738.884 680.86 741.208 679.612 742.738C678.534 744.042 676.606 744.155 674.961 744.212C662.085 744.326 649.152 743.249 636.446 740.925C635.708 740.811 634.857 740.641 634.347 740.074C633.893 739.621 633.723 738.998 633.553 738.431C632.191 733.557 633.042 728.172 635.765 723.978Z" fill="#808080"/>
<path d="M612.455 727.434C605.478 726.867 598.444 727.151 591.524 728.341C586.192 732.309 580.35 735.596 574.223 738.09C572.408 738.826 570.536 739.507 569.232 740.923C567.927 742.34 567.36 744.664 568.608 746.194C569.686 747.498 571.614 747.611 573.259 747.668C586.135 747.781 599.068 746.705 611.774 744.381C612.512 744.267 613.363 744.098 613.873 743.531C614.327 743.077 614.497 742.51 614.667 741.887C615.972 737.013 615.121 731.628 612.455 727.434Z" fill="#808080"/>
<path d="M583.583 600.079C581.882 561.708 580.804 523.337 581.087 484.909C579.953 471.647 581.768 458.101 586.476 445.632C586.76 444.838 587.1 444.045 587.667 443.478C589.482 441.664 592.546 442.628 594.871 443.591C617.674 453 644.561 450.789 665.378 437.527C669.462 443.761 670.654 451.413 671.675 458.837C673.32 470.796 675.078 482.756 675.532 494.771V494.828C675.645 497.435 675.702 499.986 675.645 502.593C675.362 517.556 672.469 532.349 670.2 547.085C668.725 556.72 667.42 566.412 667.307 576.161C667.193 584.152 668.328 591.464 666.513 599.285C662.088 618.556 662.088 639.527 660.216 659.194C658.231 680.278 656.246 701.362 654.601 722.446C654.544 723.296 654.487 724.147 654.431 724.94C653.353 725.223 637.13 728.964 637.13 724.77C635.825 683.792 634.521 642.814 633.216 601.893C632.649 584.663 632.082 567.149 627.714 550.712C613.306 552.129 615.632 599.739 615.065 611.811C613.306 650.409 611.605 689.006 609.846 727.604C604.344 727.604 598.842 727.66 593.396 727.66C590.277 718.705 589.653 709.127 589.085 699.662C587.043 666.449 585.058 633.292 583.583 600.079Z" fill="#DDD2C5"/>
<path d="M649.835 266.134C630.322 267.664 611.66 271.405 594.189 261.203C554.313 306.998 573.939 303.711 569.571 348.373C568.664 357.725 581.426 379.376 580.746 388.785C577.342 434.41 559.531 509.395 561.12 555.191C561.573 568 562.254 581.036 565.487 593.051C566.451 596.565 567.699 600.136 569.912 602.234C572.521 604.671 575.868 604.614 578.987 604.387C613.759 602.347 640.192 585.797 681.77 609.545C690.392 527.929 671.39 444.839 667.249 388.785C664.413 350.074 679.331 336.074 671.56 296.06C669.745 286.708 667.646 277.129 663.165 269.818C661.917 267.777 656.585 265.397 658.57 265C661.52 264.49 656.868 265.623 649.835 266.134Z" fill="#AA6A64"/>
<path d="M674.339 117.977C674.169 117.013 673.999 116.106 673.602 115.256C672.581 113.159 673.205 111.458 671.219 110.325C669.234 109.191 667.079 107.775 666.511 105.564C666.341 104.941 668.1 102.787 667.929 102.163C667.532 100.69 664.696 101.03 664.072 99.6126C662.541 96.2686 663.732 92.0178 666.625 89.7507C669.518 87.4836 673.715 87.2004 677.005 88.844C679.387 90.0343 681.203 92.1311 682.791 94.2849C683.869 95.8152 684.89 97.4025 685.514 99.2162C687.953 106.301 683.755 114.292 685.854 121.491C686.138 122.511 686.535 123.757 685.74 124.494C685.457 124.778 685.117 124.891 684.776 125.005C683.301 125.515 676.721 127.555 675.814 125.854C675.247 124.891 675.303 123.134 675.133 122.057C674.793 120.697 674.566 119.337 674.339 117.977Z" fill="#DDD2C5"/>
<path d="M665.434 102.899C665.378 102.503 665.434 102.106 665.434 101.709C665.434 101.483 665.378 101.199 665.434 100.973C665.548 100.236 666.285 99.839 666.966 99.5556C667.476 99.3855 668.044 99.2721 668.554 99.1588C668.894 99.1021 669.292 99.1022 669.575 99.2155C669.859 99.3289 670.086 99.4987 670.256 99.7254C670.71 100.179 671.163 100.632 671.617 101.086C671.958 101.426 672.241 101.823 672.468 102.276C673.035 103.523 672.468 105.11 671.447 105.96C670.596 106.697 668.611 107.66 667.533 106.81C667.023 106.413 666.682 105.733 666.342 105.28C665.888 104.6 665.491 103.806 665.434 102.899Z" fill="#DDD2C5"/>
<path d="M585.399 189.619C586.704 185.991 588.235 182.477 590.221 179.19C597.198 167.798 616.03 153.912 629.246 163.944C632.309 166.267 634.522 169.555 636.564 172.842C638.662 176.243 640.591 179.7 642.009 183.384C644.675 190.355 645.526 198.517 643.768 205.885C642.123 212.686 637.982 219.148 634.125 224.872C629.02 232.467 622.553 240.119 613.591 242.272C601.679 245.163 589.143 236.661 584.378 225.382C579.67 214.217 581.315 201.181 585.399 189.619Z" fill="#DDD2C5"/>
<path d="M673.716 216.314C670.823 232.92 666.172 249.47 667.42 266.304C667.704 270.101 668.952 274.692 672.639 275.599C676.042 276.449 679.219 273.559 681.261 270.668C683.643 267.267 685.458 263.527 686.706 259.616C688.181 254.912 688.861 250.037 689.485 245.106C694.307 207.642 699.128 169.611 693.059 132.317C692.322 127.84 691.244 123.079 687.727 120.188C684.664 117.694 680.239 117.127 676.439 117.694C670.37 118.544 671.447 119.905 672.525 125.459C674.511 135.491 675.929 145.637 676.723 155.839C678.197 176.016 677.176 196.363 673.716 216.314Z" fill="#67302D"/>
<path d="M669.068 374.048C652.108 378.186 634.353 377.336 616.883 378.696C604.403 379.659 592.095 381.813 579.559 382.096C579.332 382.096 579.048 382.096 578.878 382.323C578.708 382.493 578.708 382.72 578.708 382.947C578.538 386.801 579.672 386.347 583.189 386.064C586.592 385.781 589.939 385.554 593.342 385.27C600.036 384.76 606.786 384.25 613.479 383.74C618.641 383.343 623.859 382.947 629.021 382.777C640.82 382.323 652.675 383.003 664.473 382.607C665.608 382.55 666.856 382.493 667.707 381.813C668.784 380.963 669.068 379.489 669.011 378.129C669.011 376.712 668.784 375.352 669.068 374.048Z" fill="#6D6D6D"/>
<path d="M644.842 372.744C645.75 376.825 646.147 381.076 646.034 385.27C644.672 385.667 643.311 386.007 641.95 386.404C641.779 386.46 641.552 386.517 641.382 386.46C641.042 386.347 640.928 385.893 640.928 385.553C640.645 382.379 639.624 378.582 639.964 375.408C640.134 373.708 639.454 373.594 640.758 372.744C641.042 372.517 644.842 372.801 644.842 372.744Z" fill="#4C4C4B"/>
<path d="M613.475 384.931C612.738 382.154 613.021 379.093 612.227 376.316C611.49 373.765 609.164 374.729 606.895 374.956C606.782 374.956 606.612 375.013 606.498 375.069C606.385 375.183 606.385 375.353 606.385 375.523C606.385 377.223 606.838 378.866 607.122 380.51C607.519 382.664 607.633 384.874 607.519 387.085C609.278 387.765 611.263 386.858 612.965 385.951C613.135 385.838 613.305 385.781 613.418 385.611C613.532 385.384 613.475 385.158 613.475 384.931Z" fill="#4C4C4B"/>
<path d="M523.116 357.158C521.527 355.571 519.826 353.984 518.918 351.944C518.124 350.187 517.897 348.146 517.784 346.219C517.727 345.483 517.67 344.689 517.954 344.009C518.181 343.442 518.634 343.045 519.145 342.649C520.79 341.345 523.116 340.495 525.044 341.402C527.256 342.422 528.221 345.426 530.603 346.05C532.248 346.446 534.347 345.766 535.311 347.126C535.708 347.693 535.708 348.373 535.708 349.053C535.595 353.871 534.517 359.029 536.843 363.279C537.296 364.186 537.92 365.206 537.41 366.057C537.126 366.453 536.672 366.68 536.219 366.907C532.305 368.494 531.454 368.097 529.298 364.81C527.483 362.033 525.385 359.482 523.116 357.158Z" fill="#DDD2C5"/>
<path d="M530.15 375.917C532.476 379.431 534.745 382.888 537.071 386.402C539.793 390.54 543.027 395.017 547.848 396.038C553.917 397.285 559.476 392.58 563.674 388.103C569.346 382.038 574.735 375.407 577.287 367.529C578.308 364.411 578.819 361.181 579.5 357.95C583.073 340.21 590.107 323.32 598.389 307.223C600.828 302.462 603.437 296.568 600.601 291.977C598.162 288.009 592.546 287.103 588.235 288.803C583.924 290.56 580.861 294.301 578.365 298.212C566.34 317.199 568.155 342.534 555.336 361.011C553.35 363.901 551.932 371.213 548.699 372.573C545.466 373.933 540.701 363.504 538.602 360.67C537.808 359.65 537.354 358.404 536.503 357.383C535.653 356.363 530.774 360.444 529.583 361.067C523.344 364.355 527.598 372.063 530.15 375.917Z" fill="#67302D"/>
<path d="M563.615 259.843C566.167 256.782 569.401 254.118 570.535 250.321C571.386 247.317 570.762 244.143 570.875 241.026C570.989 237.908 572.18 234.395 575.13 233.318C577.966 232.297 580.632 233.998 583.128 236.038C584.489 235.415 586.02 234.961 587.382 234.395C594.869 231.334 599.918 223.909 602.016 216.144C604.115 208.323 603.718 200.104 603.094 192.056C602.64 186.785 602.073 181.401 600.655 176.356C593.735 171.085 589.537 162.13 596.004 154.479C603.321 145.864 617.105 142.52 627.712 145.524C640.135 149.038 665.433 163.264 666.114 176.186C666.568 185.708 664.752 195.74 668.496 204.468C671.843 212.29 662.484 214.274 669.404 219.205C670.822 220.225 672.24 221.359 673.034 222.945C673.998 225.043 673.771 227.706 675.416 229.293C676.211 230.087 677.288 230.427 678.366 230.767C684.095 232.581 691.185 235.471 691.412 241.479C691.469 243.746 690.562 246.24 691.866 248.054C692.547 249.017 693.681 249.471 694.532 250.264C696.631 252.361 696.177 255.876 695.043 258.596C693.908 261.317 692.15 263.924 692.15 266.928C692.15 269.025 693.057 271.065 693.171 273.219C693.398 277.073 690.788 280.87 687.158 282.06C683.698 283.194 678.82 282.627 677.402 285.971C676.948 286.991 677.005 288.238 676.324 289.145C675.757 289.995 674.736 290.392 673.771 290.619C666.568 292.319 657.775 286.198 652.16 291.016C648.303 294.303 648.757 300.934 644.786 304.108C640.191 307.849 632.477 304.732 627.939 308.529C626.578 309.606 625.67 311.193 624.252 312.1C620.622 314.367 615.914 311.306 613.645 307.679C611.376 304.052 610.185 299.631 606.838 296.967C600.825 292.206 592.147 295.72 584.432 296.003C579.214 296.173 573.938 294.643 569.684 291.696C568.209 290.676 566.791 289.485 566.054 287.898C564.069 283.704 566.791 278.263 564.352 274.352C563.558 273.049 562.253 272.085 561.459 270.782C559.19 267.324 561.119 262.903 563.615 259.843Z" fill="#7C6C61"/>
<path d="M353.637 324.372C353.694 327.262 353.921 330.38 355.679 332.703C357.438 335.027 361.295 335.934 363.28 333.78C364.471 332.477 364.585 330.493 364.641 328.679C364.868 315.813 364.358 302.891 363.167 290.082C362.713 285.264 362.316 279.879 365.322 276.082C367.081 273.872 369.803 272.681 371.902 270.811C374.058 268.941 375.646 265.823 374.284 263.386C373.661 262.253 372.583 261.402 372.356 260.156C372.016 258.399 373.604 256.982 374.568 255.508C375.589 254.035 375.532 251.371 373.774 251.201C372.016 254.545 369.69 257.548 366.967 260.212C366.23 260.892 365.436 261.629 364.415 261.686C362.826 261.799 361.635 260.326 360.331 259.419C359.026 258.512 356.587 258.569 356.473 260.212C360.614 268.544 357.154 280.56 356.02 289.402C354.602 300.964 353.354 312.639 353.637 324.372Z" fill="#E2D6CF"/>
<path d="M371.217 310.316C369.629 309.352 367.701 309.296 365.829 309.239C360.894 309.126 355.959 309.012 351.081 308.899C349.436 308.842 347.45 309.069 346.77 310.543C345.919 312.356 347.847 314.17 349.152 315.644C353.69 320.745 352.726 328.51 351.478 335.198C351.137 337.068 350.514 339.278 348.755 339.902C346.032 340.865 343.877 337.578 342.856 334.858C339.566 325.789 336.276 316.72 333.043 307.652C331.625 303.741 330.207 299.774 327.711 296.43C318.011 283.507 298.555 294.276 306.496 309.012C315.345 325.336 329.185 340.412 340.076 355.431C344.557 361.553 350.343 368.354 357.888 367.957C358.625 367.901 359.476 367.787 359.986 367.277C360.724 366.597 365.659 363.65 365.715 362.686C366.339 351.011 366.68 341.035 367.304 329.36C367.474 326.016 366.112 321.708 367.644 318.761C369.175 315.814 369.459 314.51 372.749 315.077C373.77 313.546 372.806 311.28 371.217 310.316Z" fill="#537082"/>
<path d="M230.435 411.824C233.328 389.833 240.985 368.805 246.09 347.268C249.834 331.511 252.16 315.415 254.939 299.488C256.471 290.59 258.172 281.692 259.874 272.793C260.044 271.83 260.328 270.696 261.179 270.129C261.86 269.676 262.824 269.676 263.675 269.732C273.771 270.469 283.811 271.773 293.738 273.757C301.396 275.287 309.11 277.214 315.803 281.238C317.618 282.372 319.434 283.675 320.511 285.546C321.589 287.416 321.873 289.626 322.1 291.78C324.595 311.334 331.062 330.208 334.125 349.648C336.11 362.344 336.677 375.153 337.245 387.963C337.812 401.679 338.436 415.338 339.003 429.054C339.344 437.102 339.797 447.984 328.736 445.49C319.207 443.337 310.074 443.507 300.375 442.77C278.082 441.126 255.79 435.685 236.334 424.463C234.405 423.386 232.477 422.139 231.342 420.269C229.811 417.775 230.038 414.714 230.435 411.824Z" fill="#F9F9F9"/>
<path d="M279.275 193.446C285.798 192.595 292.321 192.085 298.901 191.802C306.162 199.057 310.643 208.692 313.082 218.667C315.011 226.659 315.635 235.104 313.763 243.152C311.891 251.2 307.353 258.739 300.433 263.273C289.996 270.131 275.305 268.771 265.151 261.459C254.998 254.091 249.269 241.678 248.304 229.209C247.51 218.724 249.836 208.182 253.806 198.377C261.464 195.316 271.618 194.466 279.275 193.446Z" fill="#E2D6CF"/>
<path d="M329.982 644.544C331.457 673.903 333.329 687.279 336.278 716.525C332.308 715.958 331.173 715.845 327.203 715.278C322.835 698.331 318.07 696.461 315.064 679.174C312.965 666.932 310.129 654.859 307.293 642.787C299.408 609.007 291.524 575.227 283.639 541.39C280.122 526.427 276.662 511.408 271.16 497.011C265.261 481.652 258.227 459.717 278.761 452.463C290.389 448.382 306.158 450.479 314.1 460.397C323.119 471.676 322.324 489.36 323.005 502.906C324.083 525.18 325.217 547.455 326.295 569.729C327.543 594.724 328.791 619.605 329.982 644.544Z" fill="#E2E2E2"/>
<path d="M281.483 469.41C280.292 466.349 278.761 463.232 276.095 461.361C272.578 458.924 267.983 459.094 263.729 459.434C257.319 460.001 250.909 460.795 244.556 461.928C239.338 462.835 233.722 464.195 230.546 468.446C227.596 472.413 227.539 477.741 227.71 482.672C228.674 519.003 230.149 555.277 232.134 591.551C234.006 624.82 241.437 647.775 244.216 680.932C245.294 693.797 246.201 691.644 248.584 715.505C248.754 717.375 248.584 716.298 249.378 717.319C249.832 717.035 250.342 716.865 250.966 716.808C253.122 716.695 252.725 718.566 254.88 718.452C255.391 718.396 255.788 718.509 256.185 718.622C257.149 716.242 257.716 713.125 257.943 709.894C262.368 644.658 267.359 599.996 279.952 535.723C284.319 513.732 289.425 490.381 281.483 469.41Z" fill="#E2E2E2"/>
<path d="M324.99 448.099C325.16 446.115 325.274 444.018 324.366 442.205C323.175 439.767 320.566 438.294 318.07 437.103C295.778 426.221 270.252 421.29 245.237 422.934C242.798 423.104 240.246 423.387 238.317 424.748C235.708 426.618 234.97 429.905 234.403 432.909C232.588 442.431 230.716 451.953 228.901 461.418C227.653 467.766 226.575 474.681 229.922 480.292C231.794 483.409 234.857 485.733 237.92 487.773C257.66 500.696 283.979 505.57 307.406 500.299C316.312 498.259 321.757 495.142 322.494 486.13C323.402 473.434 323.913 460.738 324.99 448.099Z" fill="#E2E2E2"/>
<path d="M233.382 472.415C235.14 472.415 237.069 472.075 239.224 471.452C242.855 470.375 245.577 468.901 247.563 466.917C250.739 463.857 252.214 459.492 253.519 455.695C255.787 449.007 258.397 441.412 257.943 433.817L256.638 433.874C257.035 441.242 254.71 448.781 252.271 455.299C250.739 459.379 248.924 464.197 246.655 466.01C244.613 467.654 242.231 469.184 238.827 470.204C234.913 471.395 231.794 471.395 229.241 470.318L228.73 471.508C230.149 472.132 231.68 472.415 233.382 472.415Z" fill="#C4C4C4"/>
<path d="M321.075 478.761L321.869 477.798C317.388 474.114 314.098 468.276 312.623 461.361C311.262 454.956 311.432 448.268 311.886 441.977L310.581 441.864C310.184 448.268 309.957 455.07 311.375 461.588C312.907 468.786 316.367 474.907 321.075 478.761Z" fill="#C4C4C4"/>
<path d="M241.211 195.826C242.686 192.312 244.955 189.138 247.678 186.417C255.052 178.992 265.432 174.911 275.926 174.571C286.363 174.175 296.8 177.349 305.762 182.733C309.676 185.113 313.42 187.947 316.029 191.631C320.737 198.319 321.475 206.991 321.078 215.153C320.68 223.201 319.716 236.747 314.214 243.265C314.044 234.82 315.745 229.322 314.044 223.201C312.115 216.23 310.924 209.655 306.556 203.874C304.798 201.55 298.161 200.36 295.325 200.983C295.665 204.781 295.155 208.692 293.794 212.262C289.993 204.667 280.237 202.06 271.785 203.081C267.587 203.591 263.333 204.837 259.986 207.501C254.314 212.035 252.329 219.8 252.329 226.998C252.329 234.253 254.031 241.338 254.257 248.593C248.812 246.326 246.146 240.205 244.388 234.593C243.14 230.626 242.005 226.602 241.098 222.578C238.999 213.793 237.694 204.214 241.211 195.826Z" fill="#BAAEA6"/>
<path d="M223.231 181.486C223.685 177.348 224.876 173.097 227.429 169.81C230.832 165.332 236.448 162.952 242.006 162.045C247.735 161.138 253.975 161.818 258.74 165.049C272.467 174.344 263.164 198.035 250.345 203.59C241.496 207.444 229.754 204.1 225.273 195.598C223.061 191.348 222.664 186.303 223.231 181.486Z" fill="#BAAEA6"/>
<path d="M290.501 276.762C290.501 275.855 290.444 274.892 289.82 274.268C289.423 273.872 288.913 273.702 288.402 273.532C281.936 271.321 275.299 269.678 268.549 268.544C267.755 269.961 267.018 271.435 266.223 272.852C265.94 273.362 265.713 273.871 265.713 274.382C265.713 275.005 266.11 275.515 266.507 275.969C268.379 278.293 270.705 280.22 273.03 282.033C278.022 285.944 284.432 291.952 290.501 293.992C291.409 291.838 290.671 287.871 290.614 285.434C290.558 282.6 290.558 279.71 290.501 276.762Z" fill="#537082"/>
<path d="M293.789 276.422C293.959 275.459 294.129 274.382 294.81 273.702C295.717 272.738 297.249 272.568 298.553 273.021C299.801 273.475 300.879 274.382 301.843 275.232C304.226 277.329 306.665 279.426 309.047 281.523C309.217 281.636 309.387 281.807 309.444 282.033C309.558 282.43 309.217 282.827 308.934 283.11C307.232 284.811 305.474 286.454 303.715 288.098C302.354 289.402 300.936 290.705 299.234 291.442C295.774 292.915 292.654 293.199 292.597 289.005C292.541 284.81 293.165 280.503 293.789 276.422Z" fill="#537082"/>
<path d="M294.871 306.347C295.381 320.063 293.736 333.722 292.091 347.325C292.035 347.892 291.297 348.572 291.127 348.062C291.978 340.127 292.488 332.135 292.659 324.144C292.829 317.173 292.772 310.258 292.432 303.286C292.375 302.323 291.184 295.012 293.793 296.542C295.268 297.392 294.814 304.647 294.871 306.347Z" fill="#333333"/>
<path d="M336.732 711.593C337.583 711.82 338.434 712.104 338.944 712.727C339.398 713.237 339.512 713.974 339.682 714.598C340.76 720.039 341.667 725.536 342.404 731.034C342.745 733.698 343.085 736.418 344.05 738.969C346.092 744.24 350.856 748.094 356.075 750.305C360.216 752.062 364.64 752.855 369.008 753.535C370.426 753.762 372.128 753.648 372.808 755.065C373.546 756.596 372.525 759.09 371.447 760.223C369.632 762.15 366.569 761.753 363.959 761.187C356.699 759.543 349.552 757.332 342.461 755.122C340.816 754.612 339.058 754.045 337.867 752.742C337.243 752.062 336.846 751.268 336.449 750.474C334.917 747.47 333.442 744.41 332.081 741.293C331.514 744.977 330.663 748.661 329.642 752.288C328.961 752.061 328.167 752.062 327.486 752.402C328.224 738.459 328.451 724.459 328.167 710.517C331.06 710.517 333.953 710.857 336.732 711.593Z" fill="#EDDDB2"/>
<path d="M319.373 415.792C304.965 404.683 290.558 393.517 276.207 382.408C275.469 381.841 274.732 381.275 273.824 381.218C272.463 381.105 271.328 382.182 270.421 383.259C269.003 384.845 267.641 386.659 267.471 388.813C267.188 392.554 270.704 395.388 273.881 397.428C288.459 406.95 303.434 416.075 319.77 422.196C327.995 425.257 336.56 427.58 344.104 432.001C345.806 433.022 347.508 434.155 349.436 434.609C351.365 435.062 353.634 434.665 354.825 433.078C356.186 431.321 355.733 428.771 355.165 426.617C354.088 422.31 352.046 417.152 347.621 416.868C345.182 416.698 343.197 418.059 340.985 418.796C338.205 419.759 337.354 418.909 334.802 418.739C332.419 418.569 330.831 419.986 328.335 420.042C324.932 420.099 321.982 417.775 319.373 415.792Z" fill="#E2D6CF"/>
<path d="M232.759 328.792C231.625 334.573 230.263 340.411 230.32 346.305C230.377 350.783 231.228 355.26 232.078 359.681C233.27 365.632 234.518 371.811 238.261 376.628C244.331 384.393 255.108 386.377 263.617 391.308C262.425 393.348 261.234 395.615 261.688 397.939C262.142 400.263 265.205 402.02 266.907 400.433C267.474 399.923 267.757 399.129 268.041 398.449C270.14 393.121 272.976 388.077 276.493 383.486C278.138 381.332 280.01 379.179 280.634 376.515C281.258 373.851 280.123 370.564 277.514 369.827C275.358 372.037 277.287 371.074 275.131 373.284C274.678 373.794 274.167 374.304 273.487 374.474C272.239 374.815 270.991 373.908 269.97 373.058C268.268 371.584 266.566 370.11 264.865 368.693C263.503 367.56 262.142 366.313 261.461 364.726C260.894 363.365 260.894 361.779 261.007 360.305C262.028 344.095 267.587 332.873 271.274 317.06C272.295 312.639 272.806 308.048 271.898 303.627C270.197 295.522 263.957 289.287 258.058 283.563C256.98 282.543 255.846 281.409 254.371 281.069C253.236 280.786 251.988 281.013 250.797 281.296C241.154 283.847 237.921 289.628 237.127 298.639C236.276 308.728 234.801 318.817 232.759 328.792Z" fill="#537082"/>
<path d="M284.372 230.739C279.777 229.152 275.58 226.375 272.233 222.804C270.475 223.994 269.907 226.318 269.681 228.472C268.66 238.447 272.8 248.762 280.458 255.223C277.168 254.94 273.878 254.714 270.588 254.43C270.078 254.373 269.454 254.373 269.113 254.713C268.603 255.167 268.716 255.96 268.886 256.584C269.794 260.041 271.439 263.272 273.708 265.992C267.185 265.539 261.172 262.138 256.464 257.604C251.813 253.07 248.353 247.459 245.29 241.678C242.226 235.953 239.447 229.889 238.426 223.484C237.405 217.079 238.199 210.108 241.886 204.724C246.254 198.262 254.025 194.918 261.626 193.218C266.334 192.141 271.269 191.631 275.977 192.651C278.87 193.275 284.031 195.032 285.506 197.922C287.095 200.983 283.861 204.157 282.84 207.161C280.061 214.812 280.571 223.597 284.372 230.739Z" fill="#BAAEA6"/>
<path d="M263.73 727.237C264.524 731.374 264.751 735.681 266.622 739.422C269.629 745.373 276.265 748.604 282.675 750.474C283.356 750.701 284.093 750.928 284.547 751.495C284.887 751.948 284.944 752.572 284.944 753.138C285.058 755.066 285.171 756.936 285.284 758.863C285.284 759.146 285.341 759.486 285.171 759.713C284.887 760.11 284.377 760.11 283.866 760.11C276.776 759.826 269.742 759.94 262.652 760.507C261.574 760.62 260.383 760.677 259.419 760.11C258.001 759.26 257.603 757.333 257.774 755.689C257.944 754.045 258.454 752.345 258.114 750.701C257.774 749.058 256.185 747.527 254.597 748.037C254.087 751.665 254.257 755.405 255.108 758.976C253.689 759.486 252.215 759.656 250.74 759.43C251.364 749.738 252.045 739.932 250.343 730.297C249.776 726.953 247.507 722.306 248.981 719.018C250.343 715.958 253.916 715.788 256.809 715.674C260.326 715.561 260.553 716.921 261.744 720.038C262.595 722.419 263.276 724.8 263.73 727.237Z" fill="#EDDDB2"/>
<path d="M451.995 720.72C454.831 721.003 457.895 721.343 460.107 723.213C463.794 726.274 463.567 731.885 463.056 736.646C462.943 737.666 462.829 738.686 462.376 739.537C461.752 740.67 460.617 741.464 459.483 742.03C454.775 744.354 449.273 744.298 443.997 744.184C430.554 743.901 417.11 743.561 403.667 743.278C393.514 743.051 377.518 745.828 368.499 740.557C361.011 736.193 360.33 723.95 369.009 720.436C374.398 718.282 382.566 719.246 388.238 719.019C394.932 718.793 401.625 718.679 408.262 718.679C422.783 718.679 437.417 720.72 451.995 720.72Z" fill="#C7C7C7"/>
<path d="M398.785 714.371C399.692 712.331 402.358 711.821 404.627 711.651C410.526 711.254 416.426 711.311 422.325 711.367C423.232 711.367 424.14 711.367 424.934 711.764C426.182 712.274 427.033 713.578 427.373 714.881C427.714 716.185 427.657 717.602 427.657 718.962C427.6 720.095 427.43 721.399 426.466 721.909C426.012 722.136 425.501 722.193 424.991 722.193C418.808 722.419 412.625 722.362 406.442 722.079C404.117 721.966 400.203 722.419 398.898 720.719C398.218 719.755 398.274 715.505 398.785 714.371Z" fill="#D3E4EA"/>
<path d="M401.961 708.251C407.86 707.968 413.816 707.911 419.715 708.024C420.963 708.081 422.325 708.138 423.232 708.988C421.984 710.235 420.793 711.425 419.545 712.672C419.148 713.069 418.751 713.466 418.241 713.636C417.617 713.806 416.993 713.692 416.369 713.579C413.306 712.955 409.562 713.579 406.669 712.729C404.003 712.049 403.549 710.745 401.961 708.251Z" fill="#ADADAD"/>
</g>
<defs>
<linearGradient id="paint0_linear_1831_4444" x1="242.933" y1="750.261" x2="629.565" y2="750.261" gradientUnits="userSpaceOnUse">
<stop stop-color="#4D4D4D"/>
<stop offset="1"/>
</linearGradient>
<linearGradient id="paint1_linear_1831_4444" x1="242.933" y1="750.262" x2="629.565" y2="750.262" gradientUnits="userSpaceOnUse">
<stop/>
<stop offset="1"/>
</linearGradient>
<clipPath id="clip0_1831_4444">
<rect width="565" height="688" fill="white" transform="translate(131 82)"/>
</clipPath>
</defs>
</svg>
