<svg width="826" height="775" viewBox="0 0 826 775" fill="none" xmlns="http://www.w3.org/2000/svg">
<path d="M90.1865 495.498V482.587H91.6279V483.8C91.9678 483.325 92.3516 482.971 92.7793 482.736C93.207 482.496 93.7256 482.376 94.335 482.376C95.1318 482.376 95.835 482.581 96.4443 482.991C97.0537 483.401 97.5137 483.981 97.8242 484.731C98.1348 485.476 98.29 486.293 98.29 487.184C98.29 488.139 98.1172 489 97.7715 489.768C97.4316 490.529 96.9336 491.115 96.2773 491.525C95.627 491.93 94.9414 492.132 94.2207 492.132C93.6934 492.132 93.2188 492.021 92.7969 491.798C92.3809 491.575 92.0381 491.294 91.7686 490.954V495.498H90.1865ZM91.6191 487.307C91.6191 488.508 91.8623 489.396 92.3486 489.97C92.835 490.544 93.4238 490.831 94.1152 490.831C94.8184 490.831 95.4189 490.535 95.917 489.943C96.4209 489.346 96.6729 488.423 96.6729 487.175C96.6729 485.985 96.4268 485.095 95.9346 484.503C95.4482 483.911 94.8652 483.615 94.1855 483.615C93.5117 483.615 92.9141 483.932 92.3926 484.564C91.877 485.191 91.6191 486.105 91.6191 487.307ZM100.188 491.921V482.587H101.612V484.002C101.976 483.34 102.31 482.903 102.614 482.692C102.925 482.481 103.265 482.376 103.634 482.376C104.167 482.376 104.709 482.546 105.26 482.886L104.715 484.354C104.328 484.125 103.941 484.011 103.555 484.011C103.209 484.011 102.898 484.116 102.623 484.327C102.348 484.532 102.151 484.819 102.034 485.188C101.858 485.751 101.771 486.366 101.771 487.034V491.921H100.188ZM106.209 480.855V479.036H107.791V480.855H106.209ZM106.209 491.921V482.587H107.791V491.921H106.209ZM110.208 491.921V482.587H111.623V483.896C111.916 483.439 112.306 483.073 112.792 482.798C113.278 482.517 113.832 482.376 114.453 482.376C115.145 482.376 115.71 482.52 116.149 482.807C116.595 483.094 116.908 483.495 117.09 484.011C117.828 482.921 118.789 482.376 119.973 482.376C120.898 482.376 121.61 482.634 122.108 483.149C122.606 483.659 122.855 484.447 122.855 485.514V491.921H121.282V486.041C121.282 485.408 121.229 484.954 121.124 484.679C121.024 484.397 120.84 484.172 120.57 484.002C120.301 483.832 119.984 483.747 119.621 483.747C118.965 483.747 118.42 483.967 117.986 484.406C117.553 484.84 117.336 485.537 117.336 486.498V491.921H115.754V485.856C115.754 485.153 115.625 484.626 115.367 484.274C115.109 483.923 114.688 483.747 114.102 483.747C113.656 483.747 113.243 483.864 112.862 484.099C112.487 484.333 112.215 484.676 112.045 485.127C111.875 485.578 111.79 486.229 111.79 487.078V491.921H110.208ZM131.293 490.77C130.707 491.268 130.142 491.619 129.597 491.824C129.058 492.029 128.478 492.132 127.856 492.132C126.831 492.132 126.043 491.883 125.492 491.385C124.941 490.881 124.666 490.239 124.666 489.46C124.666 489.003 124.769 488.587 124.974 488.212C125.185 487.831 125.457 487.526 125.791 487.298C126.131 487.069 126.512 486.896 126.934 486.779C127.244 486.697 127.713 486.618 128.34 486.542C129.617 486.39 130.558 486.208 131.161 485.997C131.167 485.78 131.17 485.643 131.17 485.584C131.17 484.939 131.021 484.485 130.722 484.222C130.317 483.864 129.717 483.686 128.92 483.686C128.176 483.686 127.625 483.817 127.268 484.081C126.916 484.339 126.655 484.799 126.485 485.461L124.938 485.25C125.079 484.588 125.311 484.055 125.633 483.65C125.955 483.24 126.421 482.927 127.03 482.71C127.64 482.487 128.346 482.376 129.148 482.376C129.945 482.376 130.593 482.47 131.091 482.657C131.589 482.845 131.955 483.082 132.189 483.369C132.424 483.65 132.588 484.008 132.682 484.441C132.734 484.711 132.761 485.197 132.761 485.9V488.01C132.761 489.48 132.793 490.412 132.857 490.805C132.928 491.191 133.062 491.563 133.262 491.921H131.609C131.445 491.593 131.34 491.209 131.293 490.77ZM131.161 487.236C130.587 487.471 129.726 487.67 128.577 487.834C127.927 487.928 127.467 488.033 127.197 488.15C126.928 488.268 126.72 488.44 126.573 488.669C126.427 488.892 126.354 489.141 126.354 489.416C126.354 489.838 126.512 490.189 126.828 490.471C127.15 490.752 127.619 490.893 128.234 490.893C128.844 490.893 129.386 490.761 129.86 490.497C130.335 490.228 130.684 489.861 130.906 489.398C131.076 489.041 131.161 488.514 131.161 487.816V487.236ZM135.204 491.921V482.587H136.628V484.002C136.991 483.34 137.325 482.903 137.63 482.692C137.94 482.481 138.28 482.376 138.649 482.376C139.183 482.376 139.725 482.546 140.275 482.886L139.73 484.354C139.344 484.125 138.957 484.011 138.57 484.011C138.225 484.011 137.914 484.116 137.639 484.327C137.363 484.532 137.167 484.819 137.05 485.188C136.874 485.751 136.786 486.366 136.786 487.034V491.921H135.204ZM141.146 495.516L140.97 494.03C141.315 494.124 141.617 494.171 141.875 494.171C142.227 494.171 142.508 494.112 142.719 493.995C142.93 493.878 143.103 493.714 143.237 493.503C143.337 493.345 143.498 492.952 143.721 492.325C143.75 492.237 143.797 492.108 143.861 491.938L140.319 482.587H142.024L143.967 487.992C144.219 488.678 144.444 489.398 144.644 490.154C144.825 489.428 145.042 488.719 145.294 488.027L147.289 482.587H148.871L145.32 492.079C144.939 493.104 144.644 493.811 144.433 494.197C144.151 494.719 143.829 495.1 143.466 495.34C143.103 495.586 142.669 495.709 142.165 495.709C141.86 495.709 141.521 495.645 141.146 495.516ZM149.601 488.054V486.463H154.461V488.054H149.601ZM164.085 490.4V491.921H155.568C155.557 491.54 155.618 491.174 155.753 490.822C155.97 490.242 156.315 489.671 156.79 489.108C157.271 488.546 157.962 487.896 158.864 487.157C160.265 486.009 161.211 485.101 161.703 484.433C162.195 483.759 162.441 483.123 162.441 482.525C162.441 481.898 162.216 481.371 161.765 480.943C161.319 480.51 160.736 480.293 160.016 480.293C159.254 480.293 158.645 480.521 158.188 480.979C157.73 481.436 157.499 482.068 157.493 482.877L155.867 482.71C155.979 481.497 156.397 480.574 157.124 479.941C157.851 479.303 158.826 478.983 160.051 478.983C161.287 478.983 162.266 479.326 162.986 480.012C163.707 480.697 164.067 481.547 164.067 482.561C164.067 483.076 163.962 483.583 163.751 484.081C163.54 484.579 163.188 485.104 162.696 485.654C162.21 486.205 161.398 486.961 160.262 487.922C159.312 488.719 158.703 489.261 158.434 489.548C158.164 489.829 157.941 490.113 157.766 490.4H164.085Z" fill="black"/>
<path d="M182.905 492.141L183.67 488.396H182.185V487.087H183.934L184.584 483.896H182.185V482.587H184.848L185.612 478.816H186.931L186.166 482.587H188.935L189.699 478.816H191.026L190.262 482.587H191.782V483.896H189.998L189.339 487.087H191.782V488.396H189.075L188.311 492.141H186.992L187.748 488.396H184.988L184.224 492.141H182.905ZM185.252 487.087H188.012L188.671 483.896H185.902L185.252 487.087ZM193.443 491.921V479.036H202.76V480.557H195.148V484.503H202.276V486.015H195.148V490.4H203.059V491.921H193.443ZM210.731 491.921H209.149V481.84C208.769 482.203 208.268 482.566 207.646 482.93C207.031 483.293 206.478 483.565 205.985 483.747V482.218C206.87 481.802 207.644 481.298 208.306 480.706C208.968 480.114 209.437 479.54 209.712 478.983H210.731V491.921ZM215.469 491.921V479.036H224.785V480.557H217.174V484.503H224.302V486.015H217.174V490.4H225.084V491.921H215.469ZM227.527 491.921V479.036H236.22V480.557H229.232V484.547H235.279V486.067H229.232V491.921H227.527ZM238.479 491.921V479.036H247.795V480.557H240.184V484.503H247.312V486.015H240.184V490.4H248.094V491.921H238.479ZM250.537 491.921V479.036H259.229V480.557H252.242V484.547H258.289V486.067H252.242V491.921H250.537Z" fill="black"/>
<rect x="89" y="506.921" width="216" height="64" fill="#E1EFEF"/>
<path d="M306.187 495.498V482.587H307.628V483.8C307.968 483.325 308.352 482.971 308.779 482.736C309.207 482.496 309.726 482.376 310.335 482.376C311.132 482.376 311.835 482.581 312.444 482.991C313.054 483.401 313.514 483.981 313.824 484.731C314.135 485.476 314.29 486.293 314.29 487.184C314.29 488.139 314.117 489 313.771 489.768C313.432 490.529 312.934 491.115 312.277 491.525C311.627 491.93 310.941 492.132 310.221 492.132C309.693 492.132 309.219 492.021 308.797 491.798C308.381 491.575 308.038 491.294 307.769 490.954V495.498H306.187ZM307.619 487.307C307.619 488.508 307.862 489.396 308.349 489.97C308.835 490.544 309.424 490.831 310.115 490.831C310.818 490.831 311.419 490.535 311.917 489.943C312.421 489.346 312.673 488.423 312.673 487.175C312.673 485.985 312.427 485.095 311.935 484.503C311.448 483.911 310.865 483.615 310.186 483.615C309.512 483.615 308.914 483.932 308.393 484.564C307.877 485.191 307.619 486.105 307.619 487.307ZM316.188 491.921V482.587H317.612V484.002C317.976 483.34 318.31 482.903 318.614 482.692C318.925 482.481 319.265 482.376 319.634 482.376C320.167 482.376 320.709 482.546 321.26 482.886L320.715 484.354C320.328 484.125 319.941 484.011 319.555 484.011C319.209 484.011 318.898 484.116 318.623 484.327C318.348 484.532 318.151 484.819 318.034 485.188C317.858 485.751 317.771 486.366 317.771 487.034V491.921H316.188ZM322.209 480.855V479.036H323.791V480.855H322.209ZM322.209 491.921V482.587H323.791V491.921H322.209ZM326.208 491.921V482.587H327.623V483.896C327.916 483.439 328.306 483.073 328.792 482.798C329.278 482.517 329.832 482.376 330.453 482.376C331.145 482.376 331.71 482.52 332.149 482.807C332.595 483.094 332.908 483.495 333.09 484.011C333.828 482.921 334.789 482.376 335.973 482.376C336.898 482.376 337.61 482.634 338.108 483.149C338.606 483.659 338.855 484.447 338.855 485.514V491.921H337.282V486.041C337.282 485.408 337.229 484.954 337.124 484.679C337.024 484.397 336.84 484.172 336.57 484.002C336.301 483.832 335.984 483.747 335.621 483.747C334.965 483.747 334.42 483.967 333.986 484.406C333.553 484.84 333.336 485.537 333.336 486.498V491.921H331.754V485.856C331.754 485.153 331.625 484.626 331.367 484.274C331.109 483.923 330.688 483.747 330.102 483.747C329.656 483.747 329.243 483.864 328.862 484.099C328.487 484.333 328.215 484.676 328.045 485.127C327.875 485.578 327.79 486.229 327.79 487.078V491.921H326.208ZM347.293 490.77C346.707 491.268 346.142 491.619 345.597 491.824C345.058 492.029 344.478 492.132 343.856 492.132C342.831 492.132 342.043 491.883 341.492 491.385C340.941 490.881 340.666 490.239 340.666 489.46C340.666 489.003 340.769 488.587 340.974 488.212C341.185 487.831 341.457 487.526 341.791 487.298C342.131 487.069 342.512 486.896 342.934 486.779C343.244 486.697 343.713 486.618 344.34 486.542C345.617 486.39 346.558 486.208 347.161 485.997C347.167 485.78 347.17 485.643 347.17 485.584C347.17 484.939 347.021 484.485 346.722 484.222C346.317 483.864 345.717 483.686 344.92 483.686C344.176 483.686 343.625 483.817 343.268 484.081C342.916 484.339 342.655 484.799 342.485 485.461L340.938 485.25C341.079 484.588 341.311 484.055 341.633 483.65C341.955 483.24 342.421 482.927 343.03 482.71C343.64 482.487 344.346 482.376 345.148 482.376C345.945 482.376 346.593 482.47 347.091 482.657C347.589 482.845 347.955 483.082 348.189 483.369C348.424 483.65 348.588 484.008 348.682 484.441C348.734 484.711 348.761 485.197 348.761 485.9V488.01C348.761 489.48 348.793 490.412 348.857 490.805C348.928 491.191 349.062 491.563 349.262 491.921H347.609C347.445 491.593 347.34 491.209 347.293 490.77ZM347.161 487.236C346.587 487.471 345.726 487.67 344.577 487.834C343.927 487.928 343.467 488.033 343.197 488.15C342.928 488.268 342.72 488.44 342.573 488.669C342.427 488.892 342.354 489.141 342.354 489.416C342.354 489.838 342.512 490.189 342.828 490.471C343.15 490.752 343.619 490.893 344.234 490.893C344.844 490.893 345.386 490.761 345.86 490.497C346.335 490.228 346.684 489.861 346.906 489.398C347.076 489.041 347.161 488.514 347.161 487.816V487.236ZM351.204 491.921V482.587H352.628V484.002C352.991 483.34 353.325 482.903 353.63 482.692C353.94 482.481 354.28 482.376 354.649 482.376C355.183 482.376 355.725 482.546 356.275 482.886L355.73 484.354C355.344 484.125 354.957 484.011 354.57 484.011C354.225 484.011 353.914 484.116 353.639 484.327C353.363 484.532 353.167 484.819 353.05 485.188C352.874 485.751 352.786 486.366 352.786 487.034V491.921H351.204ZM357.146 495.516L356.97 494.03C357.315 494.124 357.617 494.171 357.875 494.171C358.227 494.171 358.508 494.112 358.719 493.995C358.93 493.878 359.103 493.714 359.237 493.503C359.337 493.345 359.498 492.952 359.721 492.325C359.75 492.237 359.797 492.108 359.861 491.938L356.319 482.587H358.024L359.967 487.992C360.219 488.678 360.444 489.398 360.644 490.154C360.825 489.428 361.042 488.719 361.294 488.027L363.289 482.587H364.871L361.32 492.079C360.939 493.104 360.644 493.811 360.433 494.197C360.151 494.719 359.829 495.1 359.466 495.34C359.103 495.586 358.669 495.709 358.165 495.709C357.86 495.709 357.521 495.645 357.146 495.516ZM365.601 488.054V486.463H370.461V488.054H365.601ZM377.729 491.921H376.147V481.84C375.767 482.203 375.266 482.566 374.645 482.93C374.029 483.293 373.476 483.565 372.983 483.747V482.218C373.868 481.802 374.642 481.298 375.304 480.706C375.966 480.114 376.435 479.54 376.71 478.983H377.729V491.921Z" fill="black"/>
<path d="M398.905 492.141L399.67 488.396H398.185V487.087H399.934L400.584 483.896H398.185V482.587H400.848L401.612 478.816H402.931L402.166 482.587H404.935L405.699 478.816H407.026L406.262 482.587H407.782V483.896H405.998L405.339 487.087H407.782V488.396H405.075L404.311 492.141H402.992L403.748 488.396H400.988L400.224 492.141H398.905ZM401.252 487.087H404.012L404.671 483.896H401.902L401.252 487.087ZM409.496 491.921V479.036H418.188V480.557H411.201V484.547H417.248V486.067H411.201V491.921H409.496ZM424.842 491.921V488.836H419.252V487.386L425.132 479.036H426.424V487.386H428.164V488.836H426.424V491.921H424.842ZM424.842 487.386V481.576L420.808 487.386H424.842ZM430.52 491.921V479.036H439.212V480.557H432.225V484.547H438.271V486.067H432.225V491.921H430.52ZM443.229 484.934C442.572 484.693 442.086 484.351 441.77 483.905C441.453 483.46 441.295 482.927 441.295 482.306C441.295 481.368 441.632 480.58 442.306 479.941C442.979 479.303 443.876 478.983 444.995 478.983C446.12 478.983 447.025 479.312 447.711 479.968C448.396 480.618 448.739 481.412 448.739 482.35C448.739 482.947 448.581 483.469 448.265 483.914C447.954 484.354 447.479 484.693 446.841 484.934C447.632 485.191 448.232 485.607 448.643 486.182C449.059 486.756 449.267 487.441 449.267 488.238C449.267 489.34 448.877 490.266 448.098 491.016C447.318 491.766 446.293 492.141 445.021 492.141C443.75 492.141 442.725 491.766 441.945 491.016C441.166 490.26 440.776 489.319 440.776 488.194C440.776 487.356 440.987 486.656 441.409 486.094C441.837 485.525 442.443 485.139 443.229 484.934ZM442.912 482.253C442.912 482.862 443.108 483.36 443.501 483.747C443.894 484.134 444.403 484.327 445.03 484.327C445.64 484.327 446.138 484.137 446.524 483.756C446.917 483.369 447.113 482.897 447.113 482.341C447.113 481.761 446.911 481.274 446.507 480.882C446.108 480.483 445.61 480.284 445.013 480.284C444.409 480.284 443.908 480.478 443.51 480.864C443.111 481.251 442.912 481.714 442.912 482.253ZM442.402 488.203C442.402 488.654 442.508 489.091 442.719 489.513C442.936 489.935 443.255 490.263 443.677 490.497C444.099 490.726 444.553 490.84 445.039 490.84C445.795 490.84 446.419 490.597 446.911 490.11C447.403 489.624 447.649 489.006 447.649 488.256C447.649 487.494 447.395 486.864 446.885 486.366C446.381 485.868 445.748 485.619 444.986 485.619C444.242 485.619 443.624 485.865 443.132 486.357C442.646 486.85 442.402 487.465 442.402 488.203ZM451.543 491.921V479.036H460.235V480.557H453.248V484.547H459.295V486.067H453.248V491.921H451.543ZM460.042 491.921L464.99 479.036H466.827L472.101 491.921H470.158L468.655 488.019H463.268L461.853 491.921H460.042ZM463.76 486.63H468.128L466.783 483.062C466.373 481.978 466.068 481.087 465.869 480.39C465.705 481.216 465.474 482.036 465.175 482.851L463.76 486.63Z" fill="black"/>
<rect x="305" y="506.921" width="216" height="64" fill="#F4F8FA"/>
<path d="M522.187 495.498V482.587H523.628V483.8C523.968 483.325 524.352 482.971 524.779 482.736C525.207 482.496 525.726 482.376 526.335 482.376C527.132 482.376 527.835 482.581 528.444 482.991C529.054 483.401 529.514 483.981 529.824 484.731C530.135 485.476 530.29 486.293 530.29 487.184C530.29 488.139 530.117 489 529.771 489.768C529.432 490.529 528.934 491.115 528.277 491.525C527.627 491.93 526.941 492.132 526.221 492.132C525.693 492.132 525.219 492.021 524.797 491.798C524.381 491.575 524.038 491.294 523.769 490.954V495.498H522.187ZM523.619 487.307C523.619 488.508 523.862 489.396 524.349 489.97C524.835 490.544 525.424 490.831 526.115 490.831C526.818 490.831 527.419 490.535 527.917 489.943C528.421 489.346 528.673 488.423 528.673 487.175C528.673 485.985 528.427 485.095 527.935 484.503C527.448 483.911 526.865 483.615 526.186 483.615C525.512 483.615 524.914 483.932 524.393 484.564C523.877 485.191 523.619 486.105 523.619 487.307ZM532.188 491.921V482.587H533.612V484.002C533.976 483.34 534.31 482.903 534.614 482.692C534.925 482.481 535.265 482.376 535.634 482.376C536.167 482.376 536.709 482.546 537.26 482.886L536.715 484.354C536.328 484.125 535.941 484.011 535.555 484.011C535.209 484.011 534.898 484.116 534.623 484.327C534.348 484.532 534.151 484.819 534.034 485.188C533.858 485.751 533.771 486.366 533.771 487.034V491.921H532.188ZM538.209 480.855V479.036H539.791V480.855H538.209ZM538.209 491.921V482.587H539.791V491.921H538.209ZM542.208 491.921V482.587H543.623V483.896C543.916 483.439 544.306 483.073 544.792 482.798C545.278 482.517 545.832 482.376 546.453 482.376C547.145 482.376 547.71 482.52 548.149 482.807C548.595 483.094 548.908 483.495 549.09 484.011C549.828 482.921 550.789 482.376 551.973 482.376C552.898 482.376 553.61 482.634 554.108 483.149C554.606 483.659 554.855 484.447 554.855 485.514V491.921H553.282V486.041C553.282 485.408 553.229 484.954 553.124 484.679C553.024 484.397 552.84 484.172 552.57 484.002C552.301 483.832 551.984 483.747 551.621 483.747C550.965 483.747 550.42 483.967 549.986 484.406C549.553 484.84 549.336 485.537 549.336 486.498V491.921H547.754V485.856C547.754 485.153 547.625 484.626 547.367 484.274C547.109 483.923 546.688 483.747 546.102 483.747C545.656 483.747 545.243 483.864 544.862 484.099C544.487 484.333 544.215 484.676 544.045 485.127C543.875 485.578 543.79 486.229 543.79 487.078V491.921H542.208ZM563.293 490.77C562.707 491.268 562.142 491.619 561.597 491.824C561.058 492.029 560.478 492.132 559.856 492.132C558.831 492.132 558.043 491.883 557.492 491.385C556.941 490.881 556.666 490.239 556.666 489.46C556.666 489.003 556.769 488.587 556.974 488.212C557.185 487.831 557.457 487.526 557.791 487.298C558.131 487.069 558.512 486.896 558.934 486.779C559.244 486.697 559.713 486.618 560.34 486.542C561.617 486.39 562.558 486.208 563.161 485.997C563.167 485.78 563.17 485.643 563.17 485.584C563.17 484.939 563.021 484.485 562.722 484.222C562.317 483.864 561.717 483.686 560.92 483.686C560.176 483.686 559.625 483.817 559.268 484.081C558.916 484.339 558.655 484.799 558.485 485.461L556.938 485.25C557.079 484.588 557.311 484.055 557.633 483.65C557.955 483.24 558.421 482.927 559.03 482.71C559.64 482.487 560.346 482.376 561.148 482.376C561.945 482.376 562.593 482.47 563.091 482.657C563.589 482.845 563.955 483.082 564.189 483.369C564.424 483.65 564.588 484.008 564.682 484.441C564.734 484.711 564.761 485.197 564.761 485.9V488.01C564.761 489.48 564.793 490.412 564.857 490.805C564.928 491.191 565.062 491.563 565.262 491.921H563.609C563.445 491.593 563.34 491.209 563.293 490.77ZM563.161 487.236C562.587 487.471 561.726 487.67 560.577 487.834C559.927 487.928 559.467 488.033 559.197 488.15C558.928 488.268 558.72 488.44 558.573 488.669C558.427 488.892 558.354 489.141 558.354 489.416C558.354 489.838 558.512 490.189 558.828 490.471C559.15 490.752 559.619 490.893 560.234 490.893C560.844 490.893 561.386 490.761 561.86 490.497C562.335 490.228 562.684 489.861 562.906 489.398C563.076 489.041 563.161 488.514 563.161 487.816V487.236ZM567.204 491.921V482.587H568.628V484.002C568.991 483.34 569.325 482.903 569.63 482.692C569.94 482.481 570.28 482.376 570.649 482.376C571.183 482.376 571.725 482.546 572.275 482.886L571.73 484.354C571.344 484.125 570.957 484.011 570.57 484.011C570.225 484.011 569.914 484.116 569.639 484.327C569.363 484.532 569.167 484.819 569.05 485.188C568.874 485.751 568.786 486.366 568.786 487.034V491.921H567.204ZM573.146 495.516L572.97 494.03C573.315 494.124 573.617 494.171 573.875 494.171C574.227 494.171 574.508 494.112 574.719 493.995C574.93 493.878 575.103 493.714 575.237 493.503C575.337 493.345 575.498 492.952 575.721 492.325C575.75 492.237 575.797 492.108 575.861 491.938L572.319 482.587H574.024L575.967 487.992C576.219 488.678 576.444 489.398 576.644 490.154C576.825 489.428 577.042 488.719 577.294 488.027L579.289 482.587H580.871L577.32 492.079C576.939 493.104 576.644 493.811 576.433 494.197C576.151 494.719 575.829 495.1 575.466 495.34C575.103 495.586 574.669 495.709 574.165 495.709C573.86 495.709 573.521 495.645 573.146 495.516ZM581.601 488.054V486.463H586.461V488.054H581.601ZM593.729 491.921H592.147V481.84C591.767 482.203 591.266 482.566 590.645 482.93C590.029 483.293 589.476 483.565 588.983 483.747V482.218C589.868 481.802 590.642 481.298 591.304 480.706C591.966 480.114 592.435 479.54 592.71 478.983H593.729V491.921Z" fill="black"/>
<path d="M614.905 492.141L615.67 488.396H614.185V487.087H615.934L616.584 483.896H614.185V482.587H616.848L617.612 478.816H618.931L618.166 482.587H620.935L621.699 478.816H623.026L622.262 482.587H623.782V483.896H621.998L621.339 487.087H623.782V488.396H621.075L620.311 492.141H618.992L619.748 488.396H616.988L616.224 492.141H614.905ZM617.252 487.087H620.012L620.671 483.896H617.902L617.252 487.087ZM624.767 485.566C624.767 484.043 624.922 482.818 625.232 481.893C625.549 480.961 626.015 480.243 626.63 479.739C627.251 479.235 628.03 478.983 628.968 478.983C629.659 478.983 630.266 479.124 630.787 479.405C631.309 479.681 631.739 480.082 632.079 480.609C632.419 481.131 632.686 481.77 632.879 482.525C633.072 483.275 633.169 484.289 633.169 485.566C633.169 487.078 633.014 488.3 632.703 489.231C632.393 490.157 631.927 490.875 631.306 491.385C630.69 491.889 629.911 492.141 628.968 492.141C627.726 492.141 626.75 491.695 626.041 490.805C625.191 489.732 624.767 487.986 624.767 485.566ZM626.393 485.566C626.393 487.682 626.639 489.091 627.131 489.794C627.629 490.491 628.241 490.84 628.968 490.84C629.694 490.84 630.304 490.488 630.796 489.785C631.294 489.082 631.543 487.676 631.543 485.566C631.543 483.445 631.294 482.036 630.796 481.339C630.304 480.642 629.688 480.293 628.95 480.293C628.224 480.293 627.644 480.601 627.21 481.216C626.665 482.001 626.393 483.451 626.393 485.566ZM634.786 485.566C634.786 484.043 634.941 482.818 635.252 481.893C635.568 480.961 636.034 480.243 636.649 479.739C637.271 479.235 638.05 478.983 638.987 478.983C639.679 478.983 640.285 479.124 640.807 479.405C641.328 479.681 641.759 480.082 642.099 480.609C642.438 481.131 642.705 481.77 642.898 482.525C643.092 483.275 643.188 484.289 643.188 485.566C643.188 487.078 643.033 488.3 642.723 489.231C642.412 490.157 641.946 490.875 641.325 491.385C640.71 491.889 639.931 492.141 638.987 492.141C637.745 492.141 636.77 491.695 636.061 490.805C635.211 489.732 634.786 487.986 634.786 485.566ZM636.412 485.566C636.412 487.682 636.658 489.091 637.15 489.794C637.648 490.491 638.261 490.84 638.987 490.84C639.714 490.84 640.323 490.488 640.815 489.785C641.313 489.082 641.562 487.676 641.562 485.566C641.562 483.445 641.313 482.036 640.815 481.339C640.323 480.642 639.708 480.293 638.97 480.293C638.243 480.293 637.663 480.601 637.229 481.216C636.685 482.001 636.412 483.451 636.412 485.566ZM644.032 491.921L648.98 479.036H650.817L656.091 491.921H654.148L652.646 488.019H647.258L645.843 491.921H644.032ZM647.75 486.63H652.118L650.773 483.062C650.363 481.978 650.059 481.087 649.859 480.39C649.695 481.216 649.464 482.036 649.165 482.851L647.75 486.63ZM662.771 491.921H661.188V481.84C660.808 482.203 660.307 482.566 659.686 482.93C659.07 483.293 658.517 483.565 658.024 483.747V482.218C658.909 481.802 659.683 481.298 660.345 480.706C661.007 480.114 661.476 479.54 661.751 478.983H662.771V491.921ZM667.068 488.941L668.589 488.801C668.718 489.516 668.964 490.034 669.327 490.356C669.69 490.679 670.156 490.84 670.725 490.84C671.211 490.84 671.636 490.729 671.999 490.506C672.368 490.283 672.67 489.987 672.904 489.618C673.139 489.243 673.335 488.739 673.493 488.106C673.651 487.474 673.73 486.829 673.73 486.173C673.73 486.103 673.728 485.997 673.722 485.856C673.405 486.36 672.972 486.771 672.421 487.087C671.876 487.397 671.284 487.553 670.646 487.553C669.579 487.553 668.677 487.166 667.938 486.393C667.2 485.619 666.831 484.6 666.831 483.334C666.831 482.027 667.215 480.976 667.982 480.179C668.756 479.382 669.723 478.983 670.883 478.983C671.721 478.983 672.485 479.209 673.177 479.66C673.874 480.111 674.401 480.756 674.759 481.594C675.122 482.426 675.304 483.633 675.304 485.215C675.304 486.861 675.125 488.174 674.768 489.152C674.41 490.125 673.877 490.866 673.168 491.376C672.465 491.886 671.639 492.141 670.689 492.141C669.682 492.141 668.858 491.862 668.22 491.306C667.581 490.743 667.197 489.955 667.068 488.941ZM673.546 483.255C673.546 482.347 673.303 481.626 672.816 481.093C672.336 480.56 671.756 480.293 671.076 480.293C670.373 480.293 669.761 480.58 669.239 481.154C668.718 481.729 668.457 482.473 668.457 483.387C668.457 484.207 668.703 484.875 669.195 485.391C669.693 485.9 670.306 486.155 671.032 486.155C671.765 486.155 672.365 485.9 672.834 485.391C673.309 484.875 673.546 484.163 673.546 483.255ZM677.422 491.921V479.036H682.256C683.24 479.036 684.028 479.168 684.62 479.432C685.218 479.689 685.684 480.091 686.018 480.636C686.357 481.175 686.527 481.74 686.527 482.332C686.527 482.883 686.378 483.401 686.079 483.888C685.78 484.374 685.329 484.767 684.726 485.065C685.505 485.294 686.103 485.684 686.519 486.234C686.94 486.785 687.151 487.436 687.151 488.186C687.151 488.789 687.022 489.352 686.765 489.873C686.513 490.389 686.199 490.787 685.824 491.068C685.449 491.35 684.978 491.563 684.409 491.71C683.847 491.851 683.155 491.921 682.335 491.921H677.422ZM679.127 484.45H681.913C682.669 484.45 683.211 484.4 683.539 484.301C683.973 484.172 684.298 483.958 684.515 483.659C684.737 483.36 684.849 482.985 684.849 482.534C684.849 482.106 684.746 481.731 684.541 481.409C684.336 481.081 684.043 480.858 683.662 480.741C683.281 480.618 682.628 480.557 681.702 480.557H679.127V484.45ZM679.127 490.4H682.335C682.886 490.4 683.272 490.38 683.495 490.339C683.888 490.269 684.216 490.151 684.479 489.987C684.743 489.823 684.96 489.586 685.13 489.275C685.3 488.959 685.385 488.596 685.385 488.186C685.385 487.705 685.262 487.289 685.016 486.938C684.77 486.58 684.427 486.331 683.987 486.19C683.554 486.044 682.927 485.971 682.106 485.971H679.127V490.4Z" fill="black"/>
<rect x="521" y="506.921" width="216" height="64" fill="#00A19B"/>
<path d="M560.818 366.628V296.235C560.818 290.843 559.722 286.167 557.532 282.207C555.426 278.163 552.224 275.045 547.927 272.855C543.63 270.664 538.322 269.569 532.003 269.569C526.106 269.569 520.924 270.58 516.459 272.602C512.077 274.624 508.623 277.278 506.095 280.564C503.652 283.85 502.43 287.388 502.43 291.18H479.05C479.05 286.293 480.314 281.448 482.842 276.646C485.369 271.844 488.992 267.505 493.71 263.629C498.513 259.669 504.242 256.552 510.898 254.277C517.638 251.918 525.137 250.738 533.393 250.738C543.335 250.738 552.098 252.423 559.68 255.793C567.347 259.164 573.329 264.261 577.626 271.085C582.007 277.826 584.198 286.293 584.198 296.488V360.183C584.198 364.733 584.577 369.577 585.335 374.717C586.178 379.856 587.4 384.279 589 387.986V390.008H564.609C563.43 387.312 562.503 383.732 561.829 379.266C561.155 374.717 560.818 370.504 560.818 366.628ZM564.862 307.104L565.115 323.533H541.482C534.826 323.533 528.886 324.08 523.662 325.176C518.439 326.187 514.057 327.745 510.519 329.852C506.98 331.958 504.284 334.612 502.43 337.814C500.577 340.931 499.65 344.596 499.65 348.809C499.65 353.106 500.619 357.023 502.557 360.562C504.495 364.101 507.401 366.923 511.277 369.029C515.237 371.052 520.081 372.063 525.811 372.063C532.972 372.063 539.291 370.546 544.768 367.513C550.244 364.48 554.583 360.773 557.785 356.392C561.071 352.01 562.84 347.756 563.093 343.627L573.077 354.875C572.487 358.414 570.886 362.331 568.274 366.628C565.662 370.925 562.166 375.054 557.785 379.013C553.488 382.889 548.348 386.133 542.366 388.745C536.469 391.272 529.813 392.536 522.398 392.536C513.131 392.536 505 390.725 498.007 387.102C491.098 383.479 485.706 378.634 481.831 372.568C478.039 366.418 476.144 359.551 476.144 351.968C476.144 344.638 477.576 338.193 480.44 332.632C483.305 326.987 487.433 322.311 492.826 318.604C498.218 314.813 504.705 311.948 512.288 310.01C519.871 308.072 528.338 307.104 537.69 307.104H564.862Z" fill="black"/>
<path d="M383.001 222.303L322.086 390.008H297.189L367.33 206H383.38L383.001 222.303ZM434.058 390.008L373.017 222.303L372.638 206H388.688L459.082 390.008H434.058ZM430.899 321.89V341.858H327.521V321.89H430.899Z" fill="black"/>
<rect x="236.998" y="346.871" width="113.05" height="113.05" rx="56.525" fill="#00A19B"/>
<path d="M313.196 349.846C320.634 352.48 327.355 356.628 332.991 361.918L322.881 389.755H297.984L313.196 349.846Z" fill="white"/>
</svg>
