<svg width="1280" height="671" viewBox="0 0 1280 671" fill="none" xmlns="http://www.w3.org/2000/svg">
<g clip-path="url(#clip0_1824_4708)">
<rect width="1280" height="671" fill="url(#paint0_linear_1824_4708)"/>
<path opacity="0.4" fill-rule="evenodd" clip-rule="evenodd" d="M112.309 651.92L3.40039 681.148V657.185C3.40039 657.185 21.1924 665.166 32.1106 662.887C43.0288 660.608 46.5072 648.828 60.1574 645.559C72.718 642.552 87.5712 649.984 109.804 650.435L112.309 651.92Z" fill="#0053A6" fill-opacity="0.4"/>
<path d="M166.613 622.19L192.127 615.332C212.828 609.765 217.199 623.782 217.221 623.854L170.932 636.243L149.318 670.656L138.401 673.205L145.278 643.11L106.115 653.594L90.1611 633.894C90.1611 633.894 93.1977 632.715 97.7266 633.226C102.239 633.734 107.913 637.928 107.955 637.959L141.894 628.835L120.907 606.864L132.072 603.8L166.613 622.19Z" fill="#0053A6" fill-opacity="0.3"/>
<path d="M47.4521 113.391L72.9658 106.532C93.6669 100.965 98.0374 114.982 98.0596 115.054L51.7705 127.443L30.1572 161.856L19.2402 164.405L26.1172 134.311L-13.0459 144.794L-29 125.094C-29 125.094 -25.9635 123.915 -21.4346 124.426C-16.9226 124.934 -11.2484 129.128 -11.2061 129.159L22.7324 120.035L1.74609 98.0645L12.9111 95L47.4521 113.391Z" fill="#0053A6" fill-opacity="0.3"/>
<path opacity="0.4" fill-rule="evenodd" clip-rule="evenodd" d="M143.677 552.269L-7 593.749V559.741C-7 559.741 12.8031 573.468 32.721 567.834C52.6389 562.2 52.6389 547.881 71.5241 543.242C88.9019 538.974 110.371 553.265 140.211 550.162L143.677 552.269Z" fill="white"/>
<path fill-rule="evenodd" clip-rule="evenodd" d="M161.321 483.571L194.905 518.727L233.035 508.316L177.975 479L161.321 483.571Z" fill="#CBDCEB"/>
<path fill-rule="evenodd" clip-rule="evenodd" d="M115.466 523.883L139.261 553.265L304.969 508.909C304.969 508.909 298.496 487.875 267.543 496.199L142.005 529.947C142.005 529.947 133.504 523.648 126.749 522.887C119.995 522.126 115.466 523.883 115.466 523.883Z" fill="white"/>
<path fill-rule="evenodd" clip-rule="evenodd" d="M200.381 530.7L187.414 587.44L203.696 583.638L244.467 518.728L200.381 530.7Z" fill="url(#paint1_linear_1824_4708)"/>
<g filter="url(#filter0_d_1824_4708)">
<path fill-rule="evenodd" clip-rule="evenodd" d="M305.956 569.125C304.317 567.247 305.208 563.528 305.555 562.731C307.895 557.357 311.835 553.438 317.376 550.972C326.921 546.726 337.615 551.885 339.443 550.18C341.271 548.475 340.23 540.409 349.657 532.525C359.085 524.641 371.913 528.661 374.78 528.317C377.647 527.974 382.661 514.324 403.752 510.56C416.013 508.372 427.463 512.593 438.102 523.223C439.663 524.783 441.294 526.552 440.764 529.245C440.234 531.938 436.538 532.974 436.538 532.974L311.059 569.945C311.059 569.945 307.595 571.003 305.956 569.125Z" fill="white"/>
</g>
<path fill-rule="evenodd" clip-rule="evenodd" d="M273.704 615.124C272.497 613.754 273.153 611.042 273.409 610.46C275.131 606.541 278.031 603.682 282.109 601.884C289.135 598.786 297.005 602.55 298.351 601.306C299.697 600.062 298.93 594.179 305.869 588.429C312.807 582.678 322.249 585.611 324.359 585.36C326.469 585.109 330.16 575.154 345.683 572.409C354.708 570.813 363.135 573.891 370.965 581.644C372.115 582.782 373.315 584.072 372.925 586.037C372.535 588.001 369.814 588.757 369.814 588.757L277.459 615.722C277.459 615.722 274.91 616.494 273.704 615.124Z" fill="#2B89D6"/>
<g filter="url(#filter1_d_1824_4708)">
<path fill-rule="evenodd" clip-rule="evenodd" d="M502.556 137.258C501.502 135.712 502.208 133.077 502.556 132.279C504.895 126.905 508.835 122.986 514.376 120.521C523.922 116.274 534.615 121.434 536.443 119.728C538.272 118.023 528.25 106.581 543.381 95.4087C558.512 84.2364 590.399 95.7524 593.266 95.4087C596.133 95.0649 590.851 83.6603 610.876 79.7757C630.901 75.8912 648.035 87.757 649.877 89.7439C651.718 91.7308 652.318 93.1554 651.718 95.2394C651.118 97.3234 647.802 98.3341 647.802 98.3341L506.282 138.145C506.282 138.145 503.609 138.804 502.556 137.258Z" fill="white"/>
</g>
<g filter="url(#filter2_d_1824_4708)">
<path fill-rule="evenodd" clip-rule="evenodd" d="M498.37 178.269C497.668 177.227 498.139 175.451 498.37 174.914C499.931 171.291 502.559 168.649 506.254 166.988C512.62 164.125 519.752 167.603 520.971 166.454C522.19 165.304 515.506 157.591 525.598 150.06C535.689 142.53 556.955 150.292 558.867 150.06C560.779 149.829 557.257 142.141 570.612 139.523C583.967 136.904 595.394 144.903 596.622 146.242C597.85 147.581 598.251 148.542 597.85 149.946C597.45 151.351 595.238 152.032 595.238 152.032L500.856 178.867C500.856 178.867 499.073 179.311 498.37 178.269Z" fill="white"/>
</g>
<path fill-rule="evenodd" clip-rule="evenodd" d="M386.892 141.581L405.854 161.431L427.384 155.553L396.295 139L386.892 141.581Z" fill="#CBDCEB"/>
<path fill-rule="evenodd" clip-rule="evenodd" d="M361 164.342L374.435 180.932L468 155.888C468 155.888 464.345 144.011 446.868 148.711L375.985 167.766C375.985 167.766 371.185 164.21 367.371 163.78C363.557 163.35 361 164.342 361 164.342Z" fill="white"/>
<path fill-rule="evenodd" clip-rule="evenodd" d="M408.946 168.191L401.624 200.229L410.817 198.082L433.838 161.432L408.946 168.191Z" fill="url(#paint2_linear_1824_4708)"/>
</g>
<defs>
<filter id="filter0_d_1824_4708" x="301" y="510" width="139.866" height="70.2422" filterUnits="userSpaceOnUse" color-interpolation-filters="sRGB">
<feFlood flood-opacity="0" result="BackgroundImageFix"/>
<feColorMatrix in="SourceAlpha" type="matrix" values="0 0 0 0 0 0 0 0 0 0 0 0 0 0 0 0 0 0 127 0" result="hardAlpha"/>
<feOffset dx="-4" dy="10"/>
<feColorMatrix type="matrix" values="0 0 0 0 0 0 0 0 0 0.323921 0 0 0 0 0.6509 0 0 0 0.2 0"/>
<feBlend mode="normal" in2="BackgroundImageFix" result="effect1_dropShadow_1824_4708"/>
<feBlend mode="normal" in="SourceGraphic" in2="effect1_dropShadow_1824_4708" result="shape"/>
</filter>
<filter id="filter1_d_1824_4708" x="498" y="79" width="153.942" height="69.2842" filterUnits="userSpaceOnUse" color-interpolation-filters="sRGB">
<feFlood flood-opacity="0" result="BackgroundImageFix"/>
<feColorMatrix in="SourceAlpha" type="matrix" values="0 0 0 0 0 0 0 0 0 0 0 0 0 0 0 0 0 0 127 0" result="hardAlpha"/>
<feOffset dx="-4" dy="10"/>
<feColorMatrix type="matrix" values="0 0 0 0 0 0 0 0 0 0.323921 0 0 0 0 0.6509 0 0 0 0.2 0"/>
<feBlend mode="normal" in2="BackgroundImageFix" result="effect1_dropShadow_1824_4708"/>
<feBlend mode="normal" in="SourceGraphic" in2="effect1_dropShadow_1824_4708" result="shape"/>
</filter>
<filter id="filter2_d_1824_4708" x="494" y="139" width="104" height="49.9614" filterUnits="userSpaceOnUse" color-interpolation-filters="sRGB">
<feFlood flood-opacity="0" result="BackgroundImageFix"/>
<feColorMatrix in="SourceAlpha" type="matrix" values="0 0 0 0 0 0 0 0 0 0 0 0 0 0 0 0 0 0 127 0" result="hardAlpha"/>
<feOffset dx="-4" dy="10"/>
<feColorMatrix type="matrix" values="0 0 0 0 0 0 0 0 0 0.323921 0 0 0 0 0.6509 0 0 0 0.2 0"/>
<feBlend mode="normal" in2="BackgroundImageFix" result="effect1_dropShadow_1824_4708"/>
<feBlend mode="normal" in="SourceGraphic" in2="effect1_dropShadow_1824_4708" result="shape"/>
</filter>
<linearGradient id="paint0_linear_1824_4708" x1="0" y1="335.5" x2="1280" y2="335.5" gradientUnits="userSpaceOnUse">
<stop stop-color="#3495E1"/>
<stop offset="0.775" stop-color="#ACE0F9"/>
</linearGradient>
<linearGradient id="paint1_linear_1824_4708" x1="191.898" y1="512.216" x2="162.706" y2="566.04" gradientUnits="userSpaceOnUse">
<stop stop-color="#DBE5E8"/>
<stop offset="1" stop-color="#91D3FF"/>
</linearGradient>
<linearGradient id="paint2_linear_1824_4708" x1="404.156" y1="157.755" x2="387.673" y2="188.146" gradientUnits="userSpaceOnUse">
<stop stop-color="#DBE5E8"/>
<stop offset="1" stop-color="#91D3FF"/>
</linearGradient>
<clipPath id="clip0_1824_4708">
<rect width="1280" height="671" fill="white"/>
</clipPath>
</defs>
</svg>
