<svg width="424" height="343" viewBox="0 0 424 343" fill="none" xmlns="http://www.w3.org/2000/svg">
<path d="M45.9716 63.2727V72H44.9148V64.3807H44.8636L42.733 65.7955V64.7216L44.9148 63.2727H45.9716ZM51.3281 72.1193C50.6861 72.1193 50.1392 71.9446 49.6875 71.5952C49.2358 71.2429 48.8906 70.733 48.652 70.0653C48.4134 69.3949 48.294 68.5852 48.294 67.6364C48.294 66.6932 48.4134 65.8878 48.652 65.2202C48.8935 64.5497 49.2401 64.0384 49.6918 63.6861C50.1463 63.331 50.6918 63.1534 51.3281 63.1534C51.9645 63.1534 52.5085 63.331 52.9602 63.6861C53.4148 64.0384 53.7614 64.5497 54 65.2202C54.2415 65.8878 54.3622 66.6932 54.3622 67.6364C54.3622 68.5852 54.2429 69.3949 54.0043 70.0653C53.7656 70.733 53.4205 71.2429 52.9688 71.5952C52.517 71.9446 51.9702 72.1193 51.3281 72.1193ZM51.3281 71.1818C51.9645 71.1818 52.4588 70.875 52.8111 70.2614C53.1634 69.6477 53.3395 68.7727 53.3395 67.6364C53.3395 66.8807 53.2585 66.2372 53.0966 65.706C52.9375 65.1747 52.7074 64.7699 52.4062 64.4915C52.108 64.2131 51.7486 64.0739 51.3281 64.0739C50.6974 64.0739 50.2045 64.3849 49.8494 65.0071C49.4943 65.6264 49.3168 66.5028 49.3168 67.6364C49.3168 68.392 49.3963 69.0341 49.5554 69.5625C49.7145 70.0909 49.9432 70.4929 50.2415 70.7685C50.5426 71.044 50.9048 71.1818 51.3281 71.1818ZM58.8281 72.1193C58.1861 72.1193 57.6392 71.9446 57.1875 71.5952C56.7358 71.2429 56.3906 70.733 56.152 70.0653C55.9134 69.3949 55.794 68.5852 55.794 67.6364C55.794 66.6932 55.9134 65.8878 56.152 65.2202C56.3935 64.5497 56.7401 64.0384 57.1918 63.6861C57.6463 63.331 58.1918 63.1534 58.8281 63.1534C59.4645 63.1534 60.0085 63.331 60.4602 63.6861C60.9148 64.0384 61.2614 64.5497 61.5 65.2202C61.7415 65.8878 61.8622 66.6932 61.8622 67.6364C61.8622 68.5852 61.7429 69.3949 61.5043 70.0653C61.2656 70.733 60.9205 71.2429 60.4688 71.5952C60.017 71.9446 59.4702 72.1193 58.8281 72.1193ZM58.8281 71.1818C59.4645 71.1818 59.9588 70.875 60.3111 70.2614C60.6634 69.6477 60.8395 68.7727 60.8395 67.6364C60.8395 66.8807 60.7585 66.2372 60.5966 65.706C60.4375 65.1747 60.2074 64.7699 59.9062 64.4915C59.608 64.2131 59.2486 64.0739 58.8281 64.0739C58.1974 64.0739 57.7045 64.3849 57.3494 65.0071C56.9943 65.6264 56.8168 66.5028 56.8168 67.6364C56.8168 68.392 56.8963 69.0341 57.0554 69.5625C57.2145 70.0909 57.4432 70.4929 57.7415 70.7685C58.0426 71.044 58.4048 71.1818 58.8281 71.1818Z" fill="black" fill-opacity="0.7"/>
<path d="M51.6989 114.664C51.1136 114.664 50.5966 114.561 50.1477 114.353C49.7017 114.143 49.3537 113.855 49.1037 113.488C48.8537 113.119 48.7301 112.698 48.733 112.227C48.7301 111.857 48.8026 111.517 48.9503 111.204C49.098 110.889 49.2997 110.626 49.5554 110.416C49.8139 110.203 50.1023 110.068 50.4205 110.011V109.96C50.0028 109.852 49.6705 109.617 49.4233 109.257C49.1761 108.893 49.054 108.48 49.0568 108.017C49.054 107.573 49.1662 107.177 49.3935 106.828C49.6207 106.478 49.9332 106.203 50.331 106.001C50.7315 105.799 51.1875 105.698 51.6989 105.698C52.2045 105.698 52.6563 105.799 53.054 106.001C53.4517 106.203 53.7642 106.478 53.9915 106.828C54.2216 107.177 54.3381 107.573 54.3409 108.017C54.3381 108.48 54.2116 108.893 53.9616 109.257C53.7145 109.617 53.3864 109.852 52.9773 109.96V110.011C53.2926 110.068 53.5767 110.203 53.8295 110.416C54.0824 110.626 54.2841 110.889 54.4347 111.204C54.5852 111.517 54.6619 111.857 54.6648 112.227C54.6619 112.698 54.5341 113.119 54.2812 113.488C54.0312 113.855 53.6832 114.143 53.2372 114.353C52.794 114.561 52.2813 114.664 51.6989 114.664ZM51.6989 113.727C52.0938 113.727 52.4347 113.663 52.7216 113.535C53.0085 113.407 53.2301 113.227 53.3864 112.994C53.5426 112.761 53.6222 112.488 53.625 112.176C53.6222 111.846 53.5369 111.555 53.3693 111.302C53.2017 111.049 52.973 110.85 52.6832 110.705C52.3963 110.561 52.0682 110.488 51.6989 110.488C51.3267 110.488 50.9943 110.561 50.7017 110.705C50.4119 110.85 50.1832 111.049 50.0156 111.302C49.8509 111.555 49.7699 111.846 49.7727 112.176C49.7699 112.488 49.8452 112.761 49.9986 112.994C50.1548 113.227 50.3778 113.407 50.6676 113.535C50.9574 113.663 51.3011 113.727 51.6989 113.727ZM51.6989 109.585C52.0114 109.585 52.2884 109.522 52.5298 109.397C52.7741 109.272 52.9659 109.097 53.1051 108.873C53.2443 108.649 53.3153 108.386 53.3182 108.085C53.3153 107.789 53.2457 107.532 53.1094 107.313C52.973 107.092 52.7841 106.921 52.5426 106.802C52.3011 106.68 52.0199 106.619 51.6989 106.619C51.3722 106.619 51.0866 106.68 50.8423 106.802C50.598 106.921 50.4091 107.092 50.2756 107.313C50.142 107.532 50.0767 107.789 50.0795 108.085C50.0767 108.386 50.1435 108.649 50.2798 108.873C50.419 109.097 50.6108 109.272 50.8551 109.397C51.0994 109.522 51.3807 109.585 51.6989 109.585ZM59.1445 114.664C58.5025 114.664 57.9556 114.49 57.5039 114.14C57.0522 113.788 56.707 113.278 56.4684 112.61C56.2298 111.94 56.1104 111.13 56.1104 110.181C56.1104 109.238 56.2298 108.433 56.4684 107.765C56.7099 107.095 57.0565 106.583 57.5082 106.231C57.9627 105.876 58.5082 105.698 59.1445 105.698C59.7809 105.698 60.3249 105.876 60.7766 106.231C61.2312 106.583 61.5778 107.095 61.8164 107.765C62.0579 108.433 62.1786 109.238 62.1786 110.181C62.1786 111.13 62.0593 111.94 61.8207 112.61C61.582 113.278 61.2369 113.788 60.7852 114.14C60.3335 114.49 59.7866 114.664 59.1445 114.664ZM59.1445 113.727C59.7809 113.727 60.2752 113.42 60.6275 112.806C60.9798 112.193 61.1559 111.318 61.1559 110.181C61.1559 109.426 61.0749 108.782 60.913 108.251C60.7539 107.72 60.5238 107.315 60.2227 107.036C59.9244 106.758 59.565 106.619 59.1445 106.619C58.5138 106.619 58.021 106.93 57.6658 107.552C57.3107 108.171 57.1332 109.048 57.1332 110.181C57.1332 110.937 57.2127 111.579 57.3718 112.107C57.5309 112.636 57.7596 113.038 58.0579 113.313C58.359 113.589 58.7212 113.727 59.1445 113.727Z" fill="black" fill-opacity="0.7"/>
<path d="M51.8011 157.209C51.4432 157.203 51.0852 157.135 50.7273 157.005C50.3693 156.874 50.0426 156.654 49.7472 156.344C49.4517 156.032 49.2145 155.61 49.0355 155.078C48.8565 154.544 48.767 153.874 48.767 153.067C48.767 152.294 48.8395 151.61 48.9844 151.013C49.1293 150.414 49.3395 149.909 49.6151 149.5C49.8906 149.088 50.223 148.776 50.6122 148.563C51.0043 148.35 51.446 148.243 51.9375 148.243C52.4261 148.243 52.8608 148.341 53.2415 148.537C53.625 148.73 53.9375 149 54.179 149.347C54.4205 149.694 54.5767 150.093 54.6477 150.544H53.608C53.5114 150.152 53.3239 149.827 53.0455 149.569C52.767 149.31 52.3977 149.181 51.9375 149.181C51.2614 149.181 50.7287 149.475 50.3395 150.063C49.9531 150.651 49.7585 151.476 49.7557 152.539H49.8239C49.983 152.297 50.1719 152.091 50.3906 151.921C50.6122 151.748 50.8565 151.614 51.1236 151.52C51.3906 151.426 51.6733 151.38 51.9716 151.38C52.4716 151.38 52.929 151.505 53.3438 151.755C53.7585 152.002 54.0909 152.344 54.3409 152.782C54.5909 153.216 54.7159 153.715 54.7159 154.277C54.7159 154.817 54.5952 155.311 54.3537 155.76C54.1122 156.206 53.7727 156.561 53.3352 156.826C52.9006 157.087 52.3892 157.215 51.8011 157.209ZM51.8011 156.272C52.1591 156.272 52.4801 156.182 52.7642 156.003C53.0511 155.824 53.277 155.584 53.4418 155.283C53.6094 154.982 53.6932 154.647 53.6932 154.277C53.6932 153.917 53.6122 153.588 53.4503 153.293C53.2912 152.995 53.071 152.757 52.7898 152.581C52.5114 152.405 52.1932 152.317 51.8352 152.317C51.5653 152.317 51.3139 152.371 51.081 152.479C50.848 152.584 50.6435 152.729 50.4673 152.914C50.294 153.098 50.1577 153.31 50.0582 153.549C49.9588 153.784 49.9091 154.033 49.9091 154.294C49.9091 154.641 49.9901 154.965 50.152 155.266C50.3168 155.567 50.5412 155.81 50.8253 155.995C51.1122 156.179 51.4375 156.272 51.8011 156.272ZM59.2383 157.209C58.5962 157.209 58.0494 157.034 57.5977 156.685C57.146 156.333 56.8008 155.823 56.5621 155.155C56.3235 154.485 56.2042 153.675 56.2042 152.726C56.2042 151.783 56.3235 150.978 56.5621 150.31C56.8036 149.64 57.1502 149.128 57.6019 148.776C58.0565 148.421 58.6019 148.243 59.2383 148.243C59.8746 148.243 60.4187 148.421 60.8704 148.776C61.3249 149.128 61.6715 149.64 61.9102 150.31C62.1516 150.978 62.2724 151.783 62.2724 152.726C62.2724 153.675 62.1531 154.485 61.9144 155.155C61.6758 155.823 61.3306 156.333 60.8789 156.685C60.4272 157.034 59.8803 157.209 59.2383 157.209ZM59.2383 156.272C59.8746 156.272 60.369 155.965 60.7212 155.351C61.0735 154.738 61.2496 153.863 61.2496 152.726C61.2496 151.971 61.1687 151.327 61.0067 150.796C60.8477 150.265 60.6175 149.86 60.3164 149.581C60.0181 149.303 59.6587 149.164 59.2383 149.164C58.6076 149.164 58.1147 149.475 57.7596 150.097C57.4045 150.716 57.2269 151.593 57.2269 152.726C57.2269 153.482 57.3065 154.124 57.4656 154.652C57.6246 155.181 57.8533 155.583 58.1516 155.858C58.4528 156.134 58.815 156.272 59.2383 156.272Z" fill="black" fill-opacity="0.7"/>
<path d="M47.6989 197.845V196.976L51.5341 190.907H52.1648V192.254H51.7386L48.8409 196.839V196.907H54.0057V197.845H47.6989ZM51.8068 199.635V197.581V197.176V190.907H52.8125V199.635H51.8068ZM58.4492 199.754C57.8072 199.754 57.2603 199.579 56.8086 199.23C56.3569 198.878 56.0117 198.368 55.7731 197.7C55.5344 197.03 55.4151 196.22 55.4151 195.271C55.4151 194.328 55.5344 193.523 55.7731 192.855C56.0146 192.184 56.3612 191.673 56.8129 191.321C57.2674 190.966 57.8129 190.788 58.4492 190.788C59.0856 190.788 59.6296 190.966 60.0813 191.321C60.5359 191.673 60.8825 192.184 61.1211 192.855C61.3626 193.523 61.4833 194.328 61.4833 195.271C61.4833 196.22 61.364 197.03 61.1254 197.7C60.8867 198.368 60.5415 198.878 60.0898 199.23C59.6381 199.579 59.0913 199.754 58.4492 199.754ZM58.4492 198.817C59.0856 198.817 59.5799 198.51 59.9322 197.896C60.2844 197.282 60.4606 196.407 60.4606 195.271C60.4606 194.515 60.3796 193.872 60.2177 193.341C60.0586 192.809 59.8285 192.405 59.5273 192.126C59.229 191.848 58.8697 191.709 58.4492 191.709C57.8185 191.709 57.3256 192.02 56.9705 192.642C56.6154 193.261 56.4379 194.138 56.4379 195.271C56.4379 196.027 56.5174 196.669 56.6765 197.197C56.8356 197.726 57.0643 198.128 57.3626 198.403C57.6637 198.679 58.0259 198.817 58.4492 198.817Z" fill="black" fill-opacity="0.7"/>
<path d="M48.9034 242.18V241.413L51.7841 238.259C52.1222 237.89 52.4006 237.569 52.6193 237.296C52.8381 237.021 53 236.762 53.1051 236.521C53.2131 236.276 53.267 236.021 53.267 235.754C53.267 235.447 53.1932 235.181 53.0455 234.957C52.9006 234.732 52.7017 234.559 52.4489 234.437C52.196 234.315 51.9119 234.254 51.5966 234.254C51.2614 234.254 50.9688 234.323 50.7188 234.462C50.4716 234.599 50.2798 234.79 50.1435 235.038C50.0099 235.285 49.9432 235.575 49.9432 235.907H48.9375C48.9375 235.396 49.0554 234.947 49.2912 234.56C49.527 234.174 49.848 233.873 50.2543 233.657C50.6634 233.441 51.1222 233.333 51.6307 233.333C52.142 233.333 52.5952 233.441 52.9901 233.657C53.3849 233.873 53.6946 234.164 53.919 234.531C54.1435 234.897 54.2557 235.305 54.2557 235.754C54.2557 236.075 54.1974 236.388 54.081 236.695C53.9673 236.999 53.7685 237.339 53.4844 237.714C53.2031 238.086 52.8125 238.54 52.3125 239.077L50.3523 241.174V241.242H54.4091V242.18H48.9034ZM59.0156 242.299C58.3736 242.299 57.8267 242.124 57.375 241.775C56.9233 241.423 56.5781 240.913 56.3395 240.245C56.1009 239.575 55.9815 238.765 55.9815 237.816C55.9815 236.873 56.1009 236.067 56.3395 235.4C56.581 234.729 56.9276 234.218 57.3793 233.866C57.8338 233.511 58.3793 233.333 59.0156 233.333C59.652 233.333 60.196 233.511 60.6477 233.866C61.1023 234.218 61.4489 234.729 61.6875 235.4C61.929 236.067 62.0497 236.873 62.0497 237.816C62.0497 238.765 61.9304 239.575 61.6918 240.245C61.4531 240.913 61.108 241.423 60.6562 241.775C60.2045 242.124 59.6577 242.299 59.0156 242.299ZM59.0156 241.362C59.652 241.362 60.1463 241.055 60.4986 240.441C60.8509 239.827 61.027 238.952 61.027 237.816C61.027 237.06 60.946 236.417 60.7841 235.886C60.625 235.354 60.3949 234.95 60.0938 234.671C59.7955 234.393 59.4361 234.254 59.0156 234.254C58.3849 234.254 57.892 234.565 57.5369 235.187C57.1818 235.806 57.0043 236.683 57.0043 237.816C57.0043 238.572 57.0838 239.214 57.2429 239.742C57.402 240.271 57.6307 240.673 57.929 240.948C58.2301 241.224 58.5923 241.362 59.0156 241.362Z" fill="black" fill-opacity="0.7"/>
<path d="M58.75 284.843C58.108 284.843 57.5611 284.669 57.1094 284.319C56.6577 283.967 56.3125 283.457 56.0739 282.789C55.8352 282.119 55.7159 281.309 55.7159 280.36C55.7159 279.417 55.8352 278.612 56.0739 277.944C56.3153 277.274 56.6619 276.762 57.1136 276.41C57.5682 276.055 58.1136 275.878 58.75 275.878C59.3864 275.878 59.9304 276.055 60.3821 276.41C60.8366 276.762 61.1832 277.274 61.4219 277.944C61.6634 278.612 61.7841 279.417 61.7841 280.36C61.7841 281.309 61.6648 282.119 61.4261 282.789C61.1875 283.457 60.8423 283.967 60.3906 284.319C59.9389 284.669 59.392 284.843 58.75 284.843ZM58.75 283.906C59.3864 283.906 59.8807 283.599 60.233 282.985C60.5852 282.372 60.7614 281.497 60.7614 280.36C60.7614 279.605 60.6804 278.961 60.5185 278.43C60.3594 277.899 60.1293 277.494 59.8281 277.216C59.5298 276.937 59.1705 276.798 58.75 276.798C58.1193 276.798 57.6264 277.109 57.2713 277.731C56.9162 278.351 56.7386 279.227 56.7386 280.36C56.7386 281.116 56.8182 281.758 56.9773 282.287C57.1364 282.815 57.3651 283.217 57.6634 283.493C57.9645 283.768 58.3267 283.906 58.75 283.906Z" fill="black" fill-opacity="0.7"/>
<line x1="68" y1="65.5" x2="385" y2="65.5" stroke="#00001A" stroke-opacity="0.15" stroke-dasharray="2"/>
<line x1="68" y1="108.7" x2="385" y2="108.7" stroke="#00001A" stroke-opacity="0.15" stroke-dasharray="2"/>
<line x1="68" y1="151.9" x2="385" y2="151.9" stroke="#00001A" stroke-opacity="0.15" stroke-dasharray="2"/>
<line x1="68" y1="195.1" x2="385" y2="195.1" stroke="#00001A" stroke-opacity="0.15" stroke-dasharray="2"/>
<line x1="68" y1="238.3" x2="385" y2="238.3" stroke="#00001A" stroke-opacity="0.15" stroke-dasharray="2"/>
<line x1="68" y1="281.5" x2="385" y2="281.5" stroke="#00001A" stroke-opacity="0.3"/>
<line x1="67.5" y1="282" x2="67.5" y2="66" stroke="#00001A" stroke-opacity="0.15" stroke-dasharray="2"/>
<line x1="120.333" y1="282" x2="120.333" y2="66" stroke="#00001A" stroke-opacity="0.15" stroke-dasharray="2"/>
<line x1="173.167" y1="282" x2="173.167" y2="66" stroke="#00001A" stroke-opacity="0.15" stroke-dasharray="2"/>
<line x1="226" y1="282" x2="226" y2="66" stroke="#00001A" stroke-opacity="0.15" stroke-dasharray="2"/>
<line x1="278.833" y1="282" x2="278.833" y2="66" stroke="#00001A" stroke-opacity="0.15" stroke-dasharray="2"/>
<line x1="331.667" y1="282" x2="331.667" y2="66" stroke="#00001A" stroke-opacity="0.15" stroke-dasharray="2"/>
<line x1="384.5" y1="282" x2="384.5" y2="66" stroke="#00001A" stroke-opacity="0.15" stroke-dasharray="2"/>
<g opacity="0.2">
<rect opacity="0.6" x="78" y="66" width="27" height="215.362" fill="#5EACE8"/>
<rect x="78" y="66" width="27" height="3" fill="#5EACE8"/>
</g>
<rect opacity="0.6" x="78" y="216.307" width="27" height="64.4173" fill="#5EACE8"/>
<rect x="78" y="216.307" width="27" height="3" fill="#5EACE8"/>
<path d="M87.3782 214.407C86.9094 214.407 86.4916 214.326 86.1246 214.165C85.7601 214.004 85.4701 213.78 85.2546 213.494C85.0415 213.205 84.9255 212.87 84.9066 212.489H85.8015C85.8204 212.723 85.9009 212.926 86.043 213.096C86.185 213.264 86.3709 213.394 86.6005 213.487C86.8301 213.579 87.0846 213.625 87.364 213.625C87.6765 213.625 87.9535 213.571 88.195 213.462C88.4364 213.353 88.6258 213.202 88.7631 213.007C88.9004 212.813 88.9691 212.588 88.9691 212.333C88.9691 212.065 88.9028 211.83 88.7702 211.626C88.6377 211.42 88.4435 211.259 88.1879 211.143C87.9322 211.027 87.6197 210.969 87.2504 210.969H86.668V210.188H87.2504C87.5392 210.188 87.7925 210.136 88.0103 210.032C88.2305 209.927 88.4021 209.781 88.5252 209.591C88.6507 209.402 88.7134 209.179 88.7134 208.924C88.7134 208.677 88.659 208.463 88.5501 208.281C88.4412 208.099 88.2873 207.957 88.0884 207.855C87.8919 207.753 87.6599 207.702 87.3924 207.702C87.1415 207.702 86.9047 207.748 86.6822 207.841C86.462 207.93 86.2821 208.062 86.1424 208.235C86.0027 208.405 85.927 208.611 85.9151 208.853H85.0629C85.0771 208.471 85.1919 208.138 85.4073 207.851C85.6228 207.562 85.9045 207.337 86.2525 207.176C86.6029 207.015 86.9876 206.935 87.4066 206.935C87.8564 206.935 88.2423 207.026 88.5643 207.208C88.8862 207.388 89.1336 207.626 89.3065 207.922C89.4793 208.218 89.5657 208.538 89.5657 208.881C89.5657 209.291 89.458 209.64 89.2425 209.929C89.0295 210.217 88.7395 210.417 88.3725 210.529V210.586C88.8318 210.661 89.1905 210.857 89.4485 211.171C89.7066 211.484 89.8356 211.871 89.8356 212.333C89.8356 212.728 89.7279 213.083 89.5124 213.398C89.2994 213.711 89.0082 213.957 88.6388 214.137C88.2695 214.317 87.8493 214.407 87.3782 214.407ZM93.6602 214.407C93.1251 214.407 92.6694 214.261 92.293 213.97C91.9165 213.676 91.6289 213.251 91.43 212.695C91.2312 212.136 91.1317 211.461 91.1317 210.671C91.1317 209.885 91.2312 209.214 91.43 208.657C91.6313 208.099 91.9201 207.672 92.2965 207.379C92.6753 207.083 93.1299 206.935 93.6602 206.935C94.1905 206.935 94.6438 207.083 95.0202 207.379C95.399 207.672 95.6879 208.099 95.8867 208.657C96.0879 209.214 96.1886 209.885 96.1886 210.671C96.1886 211.461 96.0891 212.136 95.8903 212.695C95.6914 213.251 95.4038 213.676 95.0273 213.97C94.6509 214.261 94.1952 214.407 93.6602 214.407ZM93.6602 213.625C94.1905 213.625 94.6024 213.37 94.896 212.858C95.1895 212.347 95.3363 211.618 95.3363 210.671C95.3363 210.041 95.2688 209.505 95.1339 209.062C95.0013 208.619 94.8095 208.282 94.5586 208.05C94.31 207.818 94.0105 207.702 93.6602 207.702C93.1346 207.702 92.7238 207.961 92.4279 208.48C92.132 208.996 91.984 209.726 91.984 210.671C91.984 211.3 92.0503 211.836 92.1829 212.276C92.3155 212.716 92.506 213.051 92.7546 213.281C93.0056 213.51 93.3074 213.625 93.6602 213.625Z" fill="black" fill-opacity="0.7"/>
<g opacity="0.2">
<rect opacity="0.6" x="106.777" y="66" width="27" height="215.362" fill="#FF928A"/>
<rect x="106.777" y="66" width="27" height="3" fill="#FF928A"/>
</g>
<rect opacity="0.6" x="106.777" y="218.454" width="27" height="62.2701" fill="#FF928A"/>
<rect x="106.777" y="218.454" width="27" height="3" fill="#FF928A"/>
<path d="M113.698 216.454V215.815L116.099 213.187C116.38 212.879 116.612 212.612 116.795 212.384C116.977 212.155 117.112 211.939 117.2 211.738C117.29 211.535 117.335 211.322 117.335 211.099C117.335 210.843 117.273 210.622 117.15 210.435C117.029 210.248 116.863 210.103 116.653 210.002C116.442 209.9 116.205 209.849 115.942 209.849C115.663 209.849 115.419 209.907 115.211 210.023C115.005 210.137 114.845 210.296 114.732 210.502C114.62 210.708 114.565 210.95 114.565 211.227H113.727C113.727 210.801 113.825 210.427 114.021 210.105C114.218 209.783 114.485 209.532 114.824 209.352C115.165 209.172 115.547 209.082 115.971 209.082C116.397 209.082 116.775 209.172 117.104 209.352C117.433 209.532 117.691 209.774 117.878 210.08C118.065 210.385 118.158 210.725 118.158 211.099C118.158 211.367 118.11 211.628 118.013 211.884C117.918 212.137 117.752 212.42 117.516 212.733C117.281 213.043 116.956 213.421 116.539 213.869L114.906 215.616V215.673H118.286V216.454H113.698ZM122.068 209.082C122.366 209.084 122.665 209.141 122.963 209.252C123.261 209.364 123.534 209.548 123.78 209.806C124.026 210.062 124.224 210.411 124.373 210.854C124.522 211.297 124.597 211.852 124.597 212.519C124.597 213.166 124.535 213.74 124.412 214.242C124.291 214.741 124.116 215.163 123.886 215.506C123.659 215.849 123.382 216.11 123.055 216.287C122.731 216.465 122.364 216.554 121.955 216.554C121.547 216.554 121.184 216.473 120.864 216.312C120.547 216.149 120.287 215.923 120.083 215.634C119.882 215.343 119.753 215.005 119.696 214.622H120.562C120.641 214.956 120.796 215.231 121.028 215.449C121.262 215.665 121.571 215.772 121.955 215.772C122.516 215.772 122.958 215.527 123.283 215.037C123.609 214.547 123.773 213.855 123.773 212.96H123.716C123.583 213.159 123.426 213.33 123.244 213.475C123.061 213.619 122.859 213.73 122.636 213.809C122.414 213.887 122.177 213.926 121.926 213.926C121.509 213.926 121.127 213.823 120.779 213.617C120.433 213.408 120.156 213.123 119.948 212.761C119.742 212.396 119.639 211.98 119.639 211.511C119.639 211.066 119.739 210.659 119.938 210.289C120.139 209.918 120.42 209.622 120.783 209.402C121.147 209.181 121.576 209.075 122.068 209.082ZM122.068 209.863C121.77 209.863 121.501 209.938 121.262 210.087C121.025 210.234 120.837 210.433 120.697 210.684C120.56 210.932 120.491 211.208 120.491 211.511C120.491 211.814 120.558 212.09 120.69 212.338C120.825 212.585 121.009 212.781 121.241 212.928C121.475 213.072 121.741 213.144 122.04 213.144C122.265 213.144 122.474 213.101 122.668 213.013C122.862 212.923 123.032 212.801 123.176 212.647C123.323 212.491 123.438 212.315 123.521 212.118C123.603 211.919 123.645 211.712 123.645 211.497C123.645 211.213 123.576 210.946 123.439 210.698C123.304 210.449 123.117 210.248 122.878 210.094C122.641 209.94 122.371 209.863 122.068 209.863Z" fill="black" fill-opacity="0.7"/>
<g opacity="0.2">
<rect opacity="0.6" x="135.556" y="66" width="27" height="215.362" fill="#3CC3DF"/>
<rect x="135.556" y="66" width="27" height="3" fill="#3CC3DF"/>
</g>
<rect opacity="0.6" x="135.556" y="186.246" width="27" height="94.4787" fill="#3CC3DF"/>
<rect x="135.556" y="186.246" width="27" height="3" fill="#3CC3DF"/>
<path d="M142.306 182.754V182.03L145.502 176.973H146.028V178.095H145.672L143.258 181.916V181.973H147.562V182.754H142.306ZM145.729 184.246V182.534V182.197V176.973H146.567V184.246H145.729ZM148.722 182.754V182.03L151.918 176.973H152.444V178.095H152.089L149.674 181.916V181.973H153.978V182.754H148.722ZM152.145 184.246V182.534V182.197V176.973H152.983V184.246H152.145Z" fill="black" fill-opacity="0.7"/>
<g opacity="0.2">
<rect opacity="0.6" x="184.333" y="66" width="27" height="215.362" fill="#5EACE8"/>
<rect x="184.333" y="66" width="27" height="3" fill="#5EACE8"/>
</g>
<rect opacity="0.6" x="184.333" y="111.092" width="27" height="169.632" fill="#5EACE8"/>
<rect x="184.333" y="111.092" width="27" height="3" fill="#5EACE8"/>
<path d="M192.96 109.092L196.212 102.658V102.601H192.462V101.82H197.122V102.643L193.883 109.092H192.96ZM200.663 101.72C200.961 101.722 201.259 101.779 201.558 101.891C201.856 102.002 202.128 102.187 202.375 102.445C202.621 102.7 202.818 103.049 202.968 103.492C203.117 103.935 203.191 104.49 203.191 105.158C203.191 105.804 203.13 106.378 203.007 106.88C202.886 107.379 202.711 107.801 202.481 108.144C202.254 108.487 201.977 108.748 201.65 108.925C201.326 109.103 200.959 109.192 200.549 109.192C200.142 109.192 199.779 109.111 199.459 108.95C199.142 108.787 198.881 108.561 198.678 108.272C198.477 107.981 198.348 107.643 198.291 107.26H199.157C199.235 107.594 199.39 107.87 199.622 108.087C199.857 108.303 200.166 108.41 200.549 108.41C201.11 108.41 201.553 108.165 201.877 107.675C202.204 107.185 202.367 106.493 202.367 105.598H202.311C202.178 105.797 202.021 105.968 201.838 106.113C201.656 106.257 201.454 106.369 201.231 106.447C201.009 106.525 200.772 106.564 200.521 106.564C200.104 106.564 199.722 106.461 199.374 106.255C199.028 106.047 198.751 105.761 198.543 105.399C198.337 105.035 198.234 104.618 198.234 104.149C198.234 103.704 198.333 103.297 198.532 102.928C198.733 102.556 199.015 102.26 199.377 102.04C199.742 101.82 200.17 101.713 200.663 101.72ZM200.663 102.501C200.365 102.501 200.096 102.576 199.857 102.725C199.62 102.872 199.432 103.071 199.292 103.322C199.155 103.57 199.086 103.846 199.086 104.149C199.086 104.452 199.152 104.728 199.285 104.977C199.42 105.223 199.603 105.419 199.835 105.566C200.07 105.71 200.336 105.783 200.634 105.783C200.859 105.783 201.069 105.739 201.263 105.651C201.457 105.561 201.626 105.439 201.771 105.285C201.918 105.129 202.032 104.953 202.115 104.756C202.198 104.557 202.24 104.35 202.24 104.135C202.24 103.851 202.171 103.584 202.034 103.336C201.899 103.087 201.712 102.886 201.473 102.732C201.236 102.578 200.966 102.501 200.663 102.501Z" fill="black" fill-opacity="0.7"/>
<g opacity="0.2">
<rect opacity="0.6" x="213.11" y="66" width="27" height="215.362" fill="#FF928A"/>
<rect x="213.11" y="66" width="27" height="3" fill="#FF928A"/>
</g>
<rect opacity="0.6" x="213.11" y="169.068" width="27" height="111.657" fill="#FF928A"/>
<rect x="213.11" y="169.068" width="27" height="3" fill="#FF928A"/>
<path d="M222.304 167.167C221.887 167.167 221.512 167.084 221.178 166.919C220.844 166.753 220.577 166.526 220.376 166.237C220.174 165.948 220.064 165.619 220.045 165.25H220.898C220.931 165.579 221.08 165.851 221.345 166.066C221.613 166.28 221.932 166.386 222.304 166.386C222.602 166.386 222.867 166.316 223.099 166.177C223.334 166.037 223.517 165.845 223.65 165.601C223.785 165.355 223.852 165.077 223.852 164.767C223.852 164.449 223.782 164.167 223.643 163.918C223.505 163.667 223.316 163.469 223.074 163.325C222.833 163.181 222.557 163.107 222.247 163.105C222.025 163.102 221.796 163.137 221.562 163.208C221.327 163.276 221.134 163.365 220.983 163.474L220.159 163.375L220.599 159.795H224.378V160.576H221.338L221.082 162.721H221.125C221.274 162.603 221.461 162.505 221.686 162.427C221.911 162.348 222.145 162.309 222.389 162.309C222.834 162.309 223.231 162.416 223.579 162.629C223.929 162.84 224.204 163.128 224.403 163.495C224.604 163.862 224.704 164.281 224.704 164.753C224.704 165.217 224.6 165.631 224.392 165.995C224.186 166.358 223.902 166.644 223.54 166.855C223.177 167.063 222.766 167.167 222.304 167.167ZM226.115 167.068V166.429L228.516 163.801C228.797 163.493 229.029 163.226 229.212 162.998C229.394 162.769 229.529 162.553 229.617 162.352C229.707 162.148 229.752 161.935 229.752 161.713C229.752 161.457 229.69 161.236 229.567 161.049C229.446 160.862 229.28 160.717 229.07 160.615C228.859 160.514 228.622 160.463 228.359 160.463C228.08 160.463 227.836 160.521 227.628 160.637C227.422 160.75 227.262 160.91 227.149 161.116C227.037 161.322 226.982 161.564 226.982 161.841H226.144C226.144 161.414 226.242 161.04 226.438 160.718C226.635 160.396 226.902 160.146 227.241 159.966C227.582 159.786 227.964 159.696 228.388 159.696C228.814 159.696 229.192 159.786 229.521 159.966C229.85 160.146 230.108 160.388 230.295 160.694C230.482 160.999 230.575 161.339 230.575 161.713C230.575 161.98 230.527 162.242 230.43 162.498C230.335 162.751 230.169 163.034 229.933 163.346C229.698 163.656 229.373 164.035 228.956 164.483L227.323 166.23V166.287H230.703V167.068H226.115Z" fill="black" fill-opacity="0.7"/>
<g opacity="0.2">
<rect opacity="0.6" x="241.889" y="66" width="27" height="215.362" fill="#3CC3DF"/>
<rect x="241.889" y="66" width="27" height="3" fill="#3CC3DF"/>
</g>
<rect opacity="0.6" x="241.889" y="171.215" width="27" height="109.509" fill="#3CC3DF"/>
<rect x="241.889" y="171.215" width="27" height="3" fill="#3CC3DF"/>
<path d="M252.039 169.314C251.623 169.314 251.247 169.231 250.914 169.066C250.58 168.9 250.312 168.673 250.111 168.384C249.91 168.095 249.8 167.766 249.781 167.397H250.633C250.666 167.726 250.815 167.998 251.08 168.213C251.348 168.426 251.668 168.533 252.039 168.533C252.338 168.533 252.603 168.463 252.835 168.324C253.069 168.184 253.253 167.992 253.385 167.748C253.52 167.502 253.588 167.224 253.588 166.914C253.588 166.596 253.518 166.314 253.378 166.065C253.241 165.814 253.051 165.616 252.81 165.472C252.568 165.328 252.293 165.254 251.982 165.252C251.76 165.249 251.531 165.284 251.297 165.355C251.063 165.423 250.87 165.512 250.718 165.621L249.894 165.522L250.335 161.942H254.113V162.723H251.073L250.818 164.868H250.86C251.009 164.75 251.196 164.652 251.421 164.574C251.646 164.495 251.881 164.456 252.124 164.456C252.57 164.456 252.966 164.563 253.314 164.776C253.664 164.987 253.939 165.275 254.138 165.642C254.339 166.009 254.44 166.428 254.44 166.9C254.44 167.364 254.336 167.778 254.127 168.142C253.921 168.505 253.637 168.791 253.275 169.002C252.913 169.21 252.501 169.314 252.039 169.314ZM258.407 161.942V169.215H257.527V162.865H257.484L255.708 164.044V163.15L257.527 161.942H258.407Z" fill="black" fill-opacity="0.7"/>
<g opacity="0.2">
<rect opacity="0.6" x="290.667" y="66" width="27" height="215.362" fill="#5EACE8"/>
<rect x="290.667" y="66" width="27" height="3" fill="#5EACE8"/>
</g>
<rect opacity="0.6" x="290.667" y="175.509" width="27" height="105.215" fill="#5EACE8"/>
<rect x="290.667" y="175.509" width="27" height="3" fill="#5EACE8"/>
<path d="M297.417 172.018V171.293L300.613 166.237H301.139V167.359H300.784L298.369 171.18V171.237H302.673V172.018H297.417ZM300.841 173.509V171.798V171.46V166.237H301.679V173.509H300.841ZM306.319 166.137C306.617 166.139 306.916 166.196 307.214 166.308C307.512 166.419 307.785 166.604 308.031 166.862C308.277 167.117 308.475 167.466 308.624 167.909C308.773 168.352 308.848 168.907 308.848 169.575C308.848 170.221 308.786 170.795 308.663 171.297C308.542 171.796 308.367 172.218 308.137 172.561C307.91 172.904 307.633 173.165 307.306 173.342C306.982 173.52 306.615 173.609 306.206 173.609C305.798 173.609 305.435 173.528 305.115 173.367C304.798 173.204 304.538 172.978 304.334 172.689C304.133 172.398 304.004 172.06 303.947 171.677H304.813C304.892 172.011 305.047 172.287 305.279 172.504C305.513 172.72 305.822 172.827 306.206 172.827C306.767 172.827 307.209 172.582 307.534 172.092C307.86 171.602 308.024 170.91 308.024 170.015H307.967C307.834 170.214 307.677 170.385 307.495 170.53C307.312 170.674 307.11 170.786 306.887 170.864C306.665 170.942 306.428 170.981 306.177 170.981C305.76 170.981 305.378 170.878 305.03 170.672C304.684 170.464 304.407 170.178 304.199 169.816C303.993 169.452 303.89 169.035 303.89 168.566C303.89 168.121 303.99 167.714 304.188 167.345C304.39 166.973 304.671 166.677 305.034 166.457C305.398 166.237 305.827 166.13 306.319 166.137ZM306.319 166.918C306.021 166.918 305.752 166.993 305.513 167.142C305.276 167.289 305.088 167.488 304.948 167.739C304.811 167.987 304.742 168.263 304.742 168.566C304.742 168.869 304.809 169.145 304.941 169.394C305.076 169.64 305.26 169.836 305.492 169.983C305.726 170.127 305.992 170.2 306.291 170.2C306.516 170.2 306.725 170.156 306.919 170.068C307.113 169.978 307.283 169.856 307.427 169.702C307.574 169.546 307.689 169.37 307.772 169.173C307.854 168.974 307.896 168.767 307.896 168.552C307.896 168.268 307.827 168.001 307.69 167.753C307.555 167.504 307.368 167.303 307.129 167.149C306.892 166.995 306.622 166.918 306.319 166.918Z" fill="black" fill-opacity="0.7"/>
<g opacity="0.2">
<rect opacity="0.6" x="319.444" y="66" width="27" height="215.362" fill="#FF928A"/>
<rect x="319.444" y="66" width="27" height="3" fill="#FF928A"/>
</g>
<rect opacity="0.6" x="319.444" y="212.013" width="27" height="68.7118" fill="#FF928A"/>
<rect x="319.444" y="212.013" width="27" height="3" fill="#FF928A"/>
<path d="M328.823 210.112C328.354 210.112 327.936 210.032 327.569 209.871C327.204 209.71 326.914 209.486 326.699 209.199C326.486 208.911 326.37 208.576 326.351 208.195H327.246C327.265 208.429 327.345 208.631 327.487 208.802C327.629 208.97 327.815 209.1 328.045 209.192C328.274 209.285 328.529 209.331 328.808 209.331C329.121 209.331 329.398 209.276 329.639 209.168C329.881 209.059 330.07 208.907 330.207 208.713C330.345 208.519 330.413 208.294 330.413 208.038C330.413 207.771 330.347 207.535 330.215 207.332C330.082 207.126 329.888 206.965 329.632 206.849C329.377 206.733 329.064 206.675 328.695 206.675H328.112V205.893H328.695C328.984 205.893 329.237 205.841 329.455 205.737C329.675 205.633 329.846 205.486 329.97 205.297C330.095 205.107 330.158 204.885 330.158 204.629C330.158 204.383 330.103 204.169 329.994 203.986C329.886 203.804 329.732 203.662 329.533 203.56C329.336 203.458 329.104 203.408 328.837 203.408C328.586 203.408 328.349 203.454 328.127 203.546C327.906 203.636 327.726 203.767 327.587 203.94C327.447 204.111 327.371 204.317 327.359 204.558H326.507C326.521 204.177 326.636 203.843 326.852 203.557C327.067 203.268 327.349 203.043 327.697 202.882C328.047 202.721 328.432 202.641 328.851 202.641C329.301 202.641 329.687 202.732 330.009 202.914C330.331 203.094 330.578 203.332 330.751 203.628C330.924 203.924 331.01 204.243 331.01 204.587C331.01 204.996 330.902 205.345 330.687 205.634C330.474 205.923 330.184 206.123 329.817 206.234V206.291C330.276 206.367 330.635 206.562 330.893 206.877C331.151 207.19 331.28 207.577 331.28 208.038C331.28 208.434 331.172 208.789 330.957 209.104C330.744 209.416 330.453 209.662 330.083 209.842C329.714 210.022 329.294 210.112 328.823 210.112ZM332.732 210.013V209.373L335.133 206.746C335.415 206.438 335.647 206.17 335.829 205.943C336.011 205.713 336.146 205.498 336.234 205.297C336.324 205.093 336.369 204.88 336.369 204.658C336.369 204.402 336.307 204.181 336.184 203.994C336.063 203.806 335.898 203.662 335.687 203.56C335.476 203.458 335.239 203.408 334.977 203.408C334.697 203.408 334.453 203.466 334.245 203.582C334.039 203.695 333.879 203.855 333.766 204.061C333.654 204.267 333.599 204.508 333.599 204.785H332.761C332.761 204.359 332.859 203.985 333.055 203.663C333.252 203.341 333.52 203.09 333.858 202.91C334.199 202.73 334.581 202.641 335.005 202.641C335.431 202.641 335.809 202.73 336.138 202.91C336.467 203.09 336.725 203.333 336.912 203.638C337.099 203.944 337.193 204.284 337.193 204.658C337.193 204.925 337.144 205.187 337.047 205.442C336.952 205.696 336.787 205.979 336.55 206.291C336.315 206.601 335.99 206.98 335.573 207.427L333.94 209.175V209.231H337.32V210.013H332.732Z" fill="black" fill-opacity="0.7"/>
<g opacity="0.2">
<rect opacity="0.6" x="348.223" y="66" width="27" height="215.362" fill="#3CC3DF"/>
<rect x="348.223" y="66" width="27" height="3" fill="#3CC3DF"/>
</g>
<rect opacity="0.6" x="348.223" y="186.246" width="27" height="94.4787" fill="#3CC3DF"/>
<rect x="348.223" y="186.246" width="27" height="3" fill="#3CC3DF"/>
<path d="M354.973 182.754V182.03L358.169 176.973H358.695V178.095H358.339L355.925 181.916V181.973H360.229V182.754H354.973ZM358.396 184.246V182.534V182.197V176.973H359.234V184.246H358.396ZM361.389 182.754V182.03L364.585 176.973H365.111V178.095H364.756L362.341 181.916V181.973H366.645V182.754H361.389ZM364.812 184.246V182.534V182.197V176.973H365.65V184.246H364.812Z" fill="black" fill-opacity="0.7"/>
</svg>
