<svg width="214" height="181" viewBox="0 0 214 181" fill="none" xmlns="http://www.w3.org/2000/svg">
<g clip-path="url(#clip0_1826_5020)">
<path d="M145.887 102.847L145.677 104.769L144.288 105.736L145.939 106.111L146.855 107.814L147.064 105.892L148.454 104.925L146.803 104.55L145.887 102.847Z" fill="#3CC3DF"/>
<path d="M109.847 123.961L109.637 125.884L108.248 126.851L109.899 127.225L110.815 128.928L111.024 127.006L112.414 126.039L110.763 125.664L109.847 123.961Z" fill="#3CC3DF"/>
<path d="M130.114 35.9493L128.61 37.8519L126.489 37.9528L127.994 39.4514L127.831 41.8713L129.335 39.9686L131.456 39.8678L129.952 38.3691L130.114 35.9493Z" fill="#3CC3DF"/>
<path d="M63.2841 21.3913L63.2329 23.0685L62.0961 23.999L63.5497 24.2114L64.4571 25.6229L64.5083 23.9457L65.6451 23.0152L64.1915 22.8028L63.2841 21.3913Z" fill="#3CC3DF"/>
<path d="M41.4413 68.718L41.3901 70.3952L40.2533 71.3257L41.7069 71.5381L42.6143 72.9495L42.6655 71.2724L43.8023 70.3418L42.3487 70.1295L41.4413 68.718Z" fill="#3CC3DF"/>
<path d="M138.346 16.6545L138.294 18.3317L137.158 19.2622L138.611 19.4746L139.519 20.8861L139.57 19.2089L140.707 18.2784L139.253 18.066L138.346 16.6545Z" fill="#3CC3DF"/>
<path d="M184.892 56.3609L184.965 57.7189L184.11 58.5475L185.298 58.6204L186.127 59.6988L186.054 58.3408L186.909 57.5122L185.721 57.4393L184.892 56.3609Z" fill="#3CC3DF"/>
<path d="M22.0454 91.4035C19.063 81.6528 24.677 71.3557 34.4886 68.5803V68.5803C41.2184 66.6766 48.4437 68.8 53.0734 74.0421L70.2769 93.5212L31.3012 121.664L22.0454 91.4035Z" fill="#007AFF" fill-opacity="0.15"/>
<path d="M49.2682 94.6209C53.2645 89.5335 53.9817 82.6024 51.112 76.8045V76.8045C50.2421 75.0471 52.5766 73.4789 53.8747 74.9486L70.2778 93.5214L30.4343 118.597L49.2682 94.6209Z" fill="#5EACE8"/>
<ellipse cx="178.17" cy="86.4701" rx="22.5822" ry="15.4091" transform="rotate(-15.7946 178.17 86.4701)" fill="#C86709"/>
<path d="M182.772 85.1686C185.088 93.3574 181.871 103.922 171 106.997C160.128 110.072 158.501 100.878 156.185 92.6892C153.868 84.5003 150.077 74.5379 160.948 71.4627C171.82 68.3875 180.455 76.9797 182.772 85.1686Z" fill="#C86709"/>
<path d="M63.0464 88.5989C93.7288 72.7369 126.713 64.8742 146.203 62.4524C155.857 61.2527 165.775 64.2841 171.474 72.169C175.038 77.1009 177.233 82.3602 178.457 87.545C182.744 105.706 165.865 119.764 147.47 122.901C118.633 127.818 91.8175 128.975 70.4038 127.978C41.5548 126.634 37.3917 101.862 63.0464 88.5989Z" fill="#007AFF" fill-opacity="0.15"/>
<path d="M65.0505 101.285L64.9325 103.707L63.2652 105.022L65.3604 105.367L66.6347 107.431L66.7527 105.009L68.42 103.694L66.3248 103.349L65.0505 101.285Z" fill="#FEC091"/>
<path d="M99.2837 115.639L99.365 117.307L100.513 118.212L99.0705 118.449L98.1934 119.87L98.1122 118.202L96.9646 117.297L98.4067 117.06L99.2837 115.639Z" fill="#FEC091"/>
<path d="M153.757 121.883C131.529 126.145 110.567 128.101 92.2278 128.484C64.6191 129.061 66.4233 122.423 94.0324 121.866C114.757 121.448 139.424 116.38 156.204 114.057C170.067 112.138 167.502 119.248 153.757 121.883Z" fill="#007AFF" fill-opacity="0.15"/>
<path d="M159.075 117.548L155.387 104.511L145.926 121.82L159.075 117.548Z" fill="#007AFF" fill-opacity="0.15"/>
<path d="M171.931 72.2215C168.251 55.4679 169.259 48.6806 173.083 47.599C177.686 46.297 186.37 62.7532 192.481 84.3548C198.591 105.957 199.814 124.524 195.211 125.826C191.387 126.907 185.449 118.219 179.808 102.021" stroke="#25223A" stroke-width="2.91914"/>
<path d="M189.196 84.4553C194.308 102.527 196.047 117.858 193.08 118.697C191.296 119.202 188.525 115.441 185.411 108.166M174.568 53.2527C176.186 52.795 178.869 56.7409 181.803 63.3543" stroke="#25223A" stroke-width="0.729785" stroke-linecap="round" stroke-dasharray="58.38 58.38"/>
<path d="M190.247 112.872C191.224 112.596 191.096 108.833 189.846 102.369M174.772 58.1649C173.885 58.4157 174.12 62.2823 175.21 68.1962" stroke="#25223A" stroke-width="0.729785" stroke-linecap="round" stroke-dasharray="58.38 58.38"/>
<path d="M113.803 114.432C115.571 109.208 119.798 105.191 125.104 103.69V103.69C139.373 99.6534 151.458 114.789 144.363 127.81L134.962 145.062C131.908 150.668 126.559 154.661 120.317 155.996L110.683 158.056C105.147 159.241 100.429 153.943 102.244 148.58L113.803 114.432Z" fill="#5EACE8"/>
<path d="M99.1737 157.701C99.4459 156.81 100.128 156.101 101.008 155.795L125.968 147.122C130.05 145.703 132.834 151.242 129.26 153.671V153.671C128.932 153.894 128.57 154.063 128.188 154.171L102.762 161.364C100.538 161.993 98.499 159.912 99.1737 157.701V157.701Z" fill="#007AFF" fill-opacity="0.15"/>
<path d="M30.7751 123.832C31.7954 119.734 34.9322 116.496 38.9957 115.347L52.2814 111.589C58.7531 109.758 63.8726 117.161 59.8754 122.57L59.1116 123.604C52.1744 132.991 42.3159 139.808 31.0842 142.986V142.986C28.6509 143.674 26.3822 141.476 26.9932 139.022L30.7751 123.832Z" fill="#5EACE8"/>
<path d="M43.8739 100.714C47.3745 97.1468 57.6495 91.2402 65.923 86.912" stroke="white" stroke-width="1.45957" stroke-linecap="round"/>
<path d="M140.484 68.416C141.882 73.3576 134.087 79.8888 123.075 83.004C112.062 86.1191 102.002 84.6385 100.604 79.6969C99.2059 74.7554 107.796 71.0362 118.808 67.9211C129.821 64.8059 139.086 63.4744 140.484 68.416Z" fill="#C86709"/>
<path d="M140.484 68.4162C141.882 73.3577 134.088 79.889 123.075 83.0041C112.062 86.1193 102.002 84.6387 100.604 79.6971C99.2061 74.7556 108.098 80.8904 119.111 77.7752C130.124 74.6601 134.344 72.0859 140.484 68.4162Z" fill="#C86709"/>
<circle cx="171.311" cy="85.6492" r="2.12539" transform="rotate(-15.7946 171.311 85.6492)" fill="#C86709"/>
<circle cx="168.197" cy="76.5907" r="1.59404" transform="rotate(-15.7946 168.197 76.5907)" fill="#C86709"/>
<circle cx="163.326" cy="69.1332" r="1.06269" transform="rotate(-15.7946 163.326 69.1332)" fill="#C86709"/>
<circle cx="173.548" cy="95.5082" r="1.59404" transform="rotate(-15.7946 173.548 95.5082)" fill="#C86709"/>
<circle cx="174.328" cy="104.122" r="1.06269" transform="rotate(-15.7946 174.328 104.122)" fill="#C86709"/>
<circle cx="157.79" cy="65.1772" r="0.531347" transform="rotate(-15.7946 157.79 65.1772)" fill="#C86709"/>
<circle cx="173.363" cy="110.47" r="0.531347" transform="rotate(-15.7946 173.363 110.47)" fill="#C86709"/>
<path opacity="0.6" d="M130.036 141.777L148.746 104.457" stroke="white" stroke-width="2.91914" stroke-linecap="round"/>
<path d="M27.7373 77.2488C27.7285 76.2935 28.9863 75.9377 29.4793 76.756V76.756C29.7957 77.2814 30.5228 77.3668 30.9525 76.9292V76.9292C31.6218 76.2476 32.7627 76.8854 32.5327 77.8126V77.8126C32.385 78.4078 32.8387 78.9824 33.452 78.9768V78.9768C34.4072 78.968 34.763 80.2258 33.9447 80.7188V80.7188C33.4194 81.0352 33.3339 81.7623 33.7715 82.192V82.192C34.4531 82.8613 33.8153 84.0022 32.8882 83.7722V83.7722C32.2929 83.6245 31.7183 84.0782 31.724 84.6915V84.6915C31.7327 85.6467 30.4749 86.0025 29.982 85.1842V85.1842C29.6655 84.6589 28.9384 84.5734 28.5087 85.011V85.011C27.8395 85.6926 26.6985 85.0548 26.9285 84.1277V84.1277C27.0762 83.5324 26.6225 82.9578 26.0093 82.9635V82.9635C25.054 82.9722 24.6983 81.7144 25.5165 81.2215V81.2215C26.0419 80.905 26.1273 80.1779 25.6897 79.7482V79.7482C25.0081 79.079 25.6459 77.938 26.5731 78.168V78.168C27.1683 78.3157 27.7429 77.862 27.7373 77.2488V77.2488Z" fill="#33B8E4"/>
<path d="M28.298 78.2963C28.2917 77.6099 29.1956 77.3542 29.5498 77.9422V77.9422C29.7772 78.3197 30.2997 78.3811 30.6084 78.0667V78.0667C31.0893 77.5768 31.9092 78.0352 31.7439 78.7014V78.7014C31.6378 79.1291 31.9638 79.542 32.4045 79.538V79.538C33.0909 79.5317 33.3466 80.4355 32.7585 80.7897V80.7897C32.3811 81.0171 32.3196 81.5396 32.6341 81.8484V81.8484C33.1239 82.3293 32.6656 83.1492 31.9993 82.9839V82.9839C31.5716 82.8777 31.1587 83.2038 31.1628 83.6444V83.6444C31.169 84.3309 30.2652 84.5865 29.911 83.9985V83.9985C29.6836 83.621 29.1611 83.5596 28.8524 83.8741V83.8741C28.3714 84.3639 27.5516 83.9056 27.7169 83.2393V83.2393C27.823 82.8116 27.497 82.3987 27.0563 82.4027V82.4027C26.3699 82.409 26.1142 81.5052 26.7022 81.151V81.151C27.0797 80.9236 27.1412 80.4011 26.8267 80.0923V80.0923C26.3369 79.6114 26.7952 78.7915 27.4614 78.9568V78.9568C27.8892 79.063 28.3021 78.737 28.298 78.2963V78.2963Z" fill="#FFCE08"/>
<path d="M58.6072 118.634C54.8683 124.938 52.0581 133.353 31.9848 139.694" stroke="white" stroke-width="1.45957" stroke-linecap="round"/>
<mask id="mask0_1826_5020" style="mask-type:alpha" maskUnits="userSpaceOnUse" x="100" y="65" width="41" height="20">
<path d="M140.484 68.4165C141.882 73.3581 134.087 79.8893 123.075 83.0044C112.062 86.1196 102.002 84.639 100.604 79.6974C99.2059 74.7559 107.796 71.0367 118.808 67.9215C129.821 64.8064 139.086 63.4749 140.484 68.4165Z" fill="#C86709"/>
</mask>
<g mask="url(#mask0_1826_5020)">
<path d="M104.891 87.044C102.675 64.1861 103.115 58.9416 105.478 53.8463C106.488 51.6665 109.745 51.3284 112.026 50.5739C113.995 49.9229 115.812 49.2592 117.438 50.5452C123.882 55.6409 130.399 68.5303 134.902 81.8679L104.891 87.044Z" fill="#FF5B59"/>
</g>
<path d="M104.297 61.5209C104.493 57.5642 104.71 55.8679 105.533 53.8737C106.45 51.6528 109.745 51.328 112.026 50.5735C113.994 49.9225 115.812 49.2299 117.551 50.3589C123.385 54.1469 127.994 61.9496 132.438 75.1098L121.39 76.8705C112.154 78.3422 103.833 70.8613 104.297 61.5209Z" fill="#FF5B59"/>
<path d="M135.346 68.647L135.075 68.9815L135.994 72.2308L139.757 71.6622C141.243 71.4378 142.614 70.7346 143.664 69.6595L144.243 69.0657C144.747 68.5495 144.937 67.8036 144.74 67.1096C144.486 66.2093 143.645 65.6027 142.71 65.6449L141.16 65.715C138.892 65.8174 136.777 66.8844 135.346 68.647Z" fill="#FCA378"/>
<path d="M141.022 69.7243L139.416 67.5861C138.868 66.8573 139.359 65.8129 140.27 65.7699L142.932 65.6443C143.755 65.6054 144.512 66.0926 144.818 66.8579C145.111 67.5879 144.932 68.4222 144.366 68.9681L143.387 69.9126C142.702 70.5732 141.594 70.4849 141.022 69.7243Z" fill="#E87F0F"/>
<path d="M105.073 67.8664C104.884 62.2792 105.389 56.7959 106.31 53.0341C106.701 51.438 109.015 50.7367 110.657 50.8132C112.351 50.8922 113.116 52.1281 113.253 53.8189L113.626 58.4191C114.304 66.7831 122.638 72.3021 130.603 69.6624L133.725 68.6277C134.348 68.4213 135.017 68.7761 135.195 69.4072C135.972 72.1514 134.622 75.0502 132.022 76.2225L127.221 78.3874C116.996 82.9981 105.451 79.0765 105.073 67.8664Z" fill="#DF1E1C"/>
<path fill-rule="evenodd" clip-rule="evenodd" d="M110.315 27.8121C114.44 27.6501 105.362 30.304 109.357 31.3693C113.596 32.4995 110.574 29.8458 113.1 33.4588C113.513 30.3838 112.702 36.5359 113.1 33.4588C112.509 37.8487 114.152 43.6648 110.567 46.2243C107.048 48.7369 116.353 43.3716 112.309 44.8939C104.162 47.9615 99.9543 60.4809 91.2918 59.525C84.163 58.7384 81.3098 48.518 80.3332 41.3654C79.4398 34.8209 89.6468 50.6701 92.4575 44.7162C94.5545 40.2742 97.0732 36.1515 100.76 32.9277C104.108 29.9996 105.875 27.9864 110.315 27.8121Z" fill="#25223A"/>
<circle cx="108.803" cy="40.4632" r="9.17878" transform="rotate(-15.7946 108.803 40.4632)" fill="#E87F0F"/>
<circle cx="108.803" cy="40.4632" r="9.17878" transform="rotate(-15.7946 108.803 40.4632)" fill="#FCA378"/>
<path d="M110.873 49.4168C100.755 50.835 100.256 41.8122 102.481 37.8313C115.618 30.1595 117.107 30.9904 114.863 35.005C114.051 36.0731 108.043 37.092 107.393 38.4698C106.343 40.6949 106.15 44.4786 107.416 46.913C108.241 48.5012 110.411 49.3291 110.873 49.4168Z" fill="#E87F0F"/>
<rect x="104.616" y="39.9331" width="7.54512" height="1.50902" transform="rotate(-15.7946 104.616 39.9331)" fill="#27A2A1"/>
<path d="M110.679 35.6835C114.185 35.0285 116.583 31.4383 114.254 28.7383C114.188 28.6619 114.121 28.5864 114.053 28.5116C112.534 26.8365 110.592 25.629 108.451 25.0283C106.309 24.4277 104.057 24.4585 101.952 25.117C99.8481 25.7756 97.9777 27.0352 96.5571 28.7504C95.1365 30.4656 94.2235 32.5667 93.9235 34.8111C93.6235 37.0556 93.9487 39.352 94.8616 41.4355C95.7745 43.519 97.2378 45.3046 99.0829 46.5865V46.5865C102.078 48.6673 105.351 45.6887 105.427 42.0426L105.43 41.873C105.493 38.827 107.685 36.2431 110.679 35.6835V35.6835Z" fill="#2AB0AF"/>
<path d="M99.2594 37.6762C96.3572 38.1533 94.3198 41.0225 95.9784 43.4514C96.5314 44.2612 97.1812 45.0055 97.9172 45.6648C98.5753 46.2545 99.2893 46.7645 100.045 47.189C102.69 48.6759 105.357 46.1915 105.415 43.1572L105.418 43.0061C105.481 39.6959 102.526 37.1392 99.2594 37.6762V37.6762Z" fill="#27A2A1"/>
<path d="M117.882 37.3161C118.353 38.9814 117.333 40.7278 115.605 41.2167C113.877 41.7056 112.094 40.7519 111.623 39.0865C111.152 37.4212 112.645 37.3501 114.373 36.8612C116.101 36.3723 117.41 35.6507 117.882 37.3161Z" fill="#45CFCE"/>
<path d="M117.882 37.3159C118.353 38.9812 117.334 40.7276 115.605 41.2165C113.877 41.7054 112.094 40.7516 111.623 39.0863C111.152 37.4209 113.516 40.428 115.244 39.9391C116.972 39.4503 117.411 35.6505 117.882 37.3159Z" fill="#27A2A1"/>
</g>
<defs>
<clipPath id="clip0_1826_5020">
<rect width="214" height="180.576" fill="white"/>
</clipPath>
</defs>
</svg>
