<svg width="423" height="343" viewBox="0 0 423 343" fill="none" xmlns="http://www.w3.org/2000/svg">
<g clip-path="url(#clip0_1828_5087)">
<path d="M34.8935 266.036C22.5071 249.475 13.4964 230.632 8.37588 210.581C3.25536 190.53 2.1253 169.665 5.05022 149.176L98.448 162.57C97.278 170.766 97.73 179.112 99.7782 187.132C101.826 195.153 105.431 202.69 110.385 209.314L34.8935 266.036Z" fill="#3CC3DF"/>
<path d="M4.76622 151.265C8.03502 125.958 17.386 101.825 32.0156 80.9395C46.6451 60.0543 66.1157 43.0419 88.7538 31.3642C111.392 19.6866 136.521 13.693 161.98 13.8987C187.44 14.1043 212.469 20.503 234.917 32.5448C257.364 44.5866 276.558 61.9114 290.85 83.0302C305.142 104.149 314.104 128.43 316.965 153.787C319.827 179.144 316.502 204.818 307.278 228.602C298.053 252.387 283.204 273.571 264.007 290.334L202.031 219.033C209.71 212.328 215.649 203.855 219.339 194.341C223.029 184.827 224.359 174.557 223.214 164.415C222.069 154.272 218.485 144.56 212.768 136.112C207.051 127.664 199.373 120.735 190.395 115.918C181.416 111.101 171.404 108.542 161.22 108.459C151.036 108.377 140.985 110.775 131.929 115.446C122.874 120.117 115.086 126.922 109.234 135.276C103.382 143.63 99.6419 153.283 98.3344 163.406L4.76622 151.265Z" fill="#5EACE8"/>
<path d="M264.428 289.965C248.083 304.34 228.941 315.161 208.211 321.744C187.481 328.328 165.615 330.53 143.993 328.213C122.37 325.895 101.463 319.108 82.5909 308.28C63.7189 297.452 47.2927 282.819 34.3501 265.305L110.168 209.022C115.345 216.027 121.915 221.881 129.464 226.212C137.013 230.543 145.376 233.258 154.025 234.185C162.674 235.112 171.42 234.231 179.712 231.598C188.004 228.964 195.661 224.636 202.199 218.886L264.428 289.965Z" fill="#FF928A"/>
<circle cx="358" cy="197.522" r="3.5" fill="#5EACE8" stroke="#1A1F26"/>
<path d="M375.688 196.682H380.308V197.474H375.688V196.682ZM375.664 193.802H380.86V194.63H375.664V193.802ZM377.884 191.954H378.772V197.15H377.884V191.954ZM375.292 193.802H376.144V196.706C376.144 197.17 376.124 197.674 376.084 198.218C376.044 198.762 375.972 199.318 375.868 199.886C375.772 200.446 375.624 200.994 375.424 201.53C375.232 202.066 374.972 202.554 374.644 202.994C374.596 202.946 374.528 202.89 374.44 202.826C374.352 202.77 374.26 202.714 374.164 202.658C374.068 202.602 373.984 202.558 373.912 202.526C374.232 202.102 374.48 201.642 374.656 201.146C374.84 200.65 374.976 200.146 375.064 199.634C375.16 199.114 375.22 198.602 375.244 198.098C375.276 197.594 375.292 197.126 375.292 196.694V193.802ZM376.936 197.09C377.304 198.33 377.88 199.402 378.664 200.306C379.448 201.21 380.444 201.85 381.652 202.226C381.58 202.29 381.504 202.366 381.424 202.454C381.352 202.55 381.28 202.646 381.208 202.742C381.144 202.838 381.088 202.93 381.04 203.018C379.784 202.554 378.756 201.83 377.956 200.846C377.164 199.862 376.564 198.678 376.156 197.294L376.936 197.09ZM380.596 193.802H380.728L380.884 193.766L381.508 193.91C381.412 194.326 381.296 194.754 381.16 195.194C381.032 195.634 380.904 196.006 380.776 196.31L380.008 196.142C380.112 195.87 380.22 195.526 380.332 195.11C380.444 194.694 380.532 194.306 380.596 193.946V193.802ZM380.116 196.682H380.284L380.44 196.634L381.016 196.85C380.768 197.93 380.4 198.87 379.912 199.67C379.424 200.47 378.848 201.146 378.184 201.698C377.52 202.242 376.804 202.674 376.036 202.994C375.996 202.914 375.944 202.826 375.88 202.73C375.824 202.642 375.764 202.554 375.7 202.466C375.636 202.386 375.568 202.314 375.496 202.25C376.208 201.994 376.872 201.618 377.488 201.122C378.112 200.618 378.652 200.006 379.108 199.286C379.572 198.566 379.908 197.75 380.116 196.838V196.682ZM372.244 197.834L373.096 196.814V202.994H372.244V197.834ZM370.588 194.174H374.116V194.99H370.588V194.174ZM372.208 191.978H373.06V194.63H372.208V191.978ZM373 196.826C373.088 196.906 373.216 197.046 373.384 197.246C373.56 197.438 373.744 197.65 373.936 197.882C374.136 198.114 374.316 198.33 374.476 198.53C374.644 198.73 374.764 198.874 374.836 198.962L374.296 199.574C374.208 199.43 374.084 199.25 373.924 199.034C373.772 198.818 373.604 198.59 373.42 198.35C373.244 198.11 373.072 197.89 372.904 197.69C372.744 197.49 372.616 197.334 372.52 197.222L373 196.826ZM373.9 194.174H374.08L374.236 194.138L374.716 194.462C374.444 195.158 374.096 195.834 373.672 196.49C373.248 197.138 372.784 197.734 372.28 198.278C371.776 198.814 371.272 199.266 370.768 199.634C370.736 199.554 370.692 199.462 370.636 199.358C370.588 199.254 370.532 199.158 370.468 199.07C370.412 198.974 370.356 198.898 370.3 198.842C370.78 198.522 371.252 198.126 371.716 197.654C372.188 197.174 372.616 196.65 373 196.082C373.384 195.514 373.684 194.938 373.9 194.354V194.174ZM374.488 196.322L375.052 196.73C374.868 196.986 374.672 197.246 374.464 197.51C374.256 197.774 374.064 197.998 373.888 198.182L373.432 197.846C373.544 197.71 373.664 197.554 373.792 197.378C373.928 197.194 374.056 197.01 374.176 196.826C374.304 196.634 374.408 196.466 374.488 196.322ZM389.176 196.058H390.076V202.982H389.176V196.058ZM385.672 197.822H393.448V198.65H385.672V197.822ZM390.34 198.158C390.58 198.638 390.884 199.11 391.252 199.574C391.62 200.03 392.024 200.45 392.464 200.834C392.904 201.21 393.34 201.518 393.772 201.758C393.708 201.814 393.632 201.886 393.544 201.974C393.464 202.054 393.388 202.138 393.316 202.226C393.244 202.314 393.184 202.398 393.136 202.478C392.696 202.19 392.256 201.83 391.816 201.398C391.384 200.966 390.98 200.494 390.604 199.982C390.228 199.47 389.908 198.95 389.644 198.422L390.34 198.158ZM388.972 198.086L389.68 198.35C389.408 198.902 389.072 199.442 388.672 199.97C388.272 200.49 387.836 200.966 387.364 201.398C386.9 201.822 386.428 202.174 385.948 202.454C385.9 202.374 385.84 202.29 385.768 202.202C385.696 202.122 385.62 202.042 385.54 201.962C385.468 201.874 385.396 201.802 385.324 201.746C385.796 201.506 386.264 201.194 386.728 200.81C387.192 200.426 387.616 199.998 388 199.526C388.392 199.054 388.716 198.574 388.972 198.086ZM387.424 193.31V195.518H391.888V193.31H387.424ZM386.56 192.506H392.788V196.334H386.56V192.506ZM385.324 191.978L386.164 192.242C385.9 192.914 385.588 193.578 385.228 194.234C384.868 194.89 384.48 195.506 384.064 196.082C383.648 196.658 383.22 197.17 382.78 197.618C382.756 197.546 382.712 197.454 382.648 197.342C382.592 197.23 382.528 197.118 382.456 197.006C382.392 196.894 382.332 196.802 382.276 196.73C382.676 196.346 383.064 195.902 383.44 195.398C383.816 194.886 384.164 194.342 384.484 193.766C384.812 193.182 385.092 192.586 385.324 191.978ZM384.076 195.074L384.916 194.222L384.94 194.234V202.946H384.076V195.074ZM399.376 192.314H400.384C400.368 192.626 400.34 193.038 400.3 193.55C400.26 194.062 400.184 194.642 400.072 195.29C399.968 195.93 399.804 196.598 399.58 197.294C399.356 197.99 399.056 198.678 398.68 199.358C398.304 200.038 397.824 200.682 397.24 201.29C396.664 201.898 395.96 202.426 395.128 202.874C395.056 202.762 394.952 202.642 394.816 202.514C394.68 202.386 394.54 202.274 394.396 202.178C395.22 201.754 395.912 201.258 396.472 200.69C397.032 200.122 397.492 199.514 397.852 198.866C398.212 198.218 398.492 197.566 398.692 196.91C398.892 196.246 399.04 195.614 399.136 195.014C399.232 194.414 399.292 193.882 399.316 193.418C399.348 192.946 399.368 192.578 399.376 192.314ZM400.336 192.554C400.344 192.69 400.36 192.926 400.384 193.262C400.416 193.59 400.472 193.99 400.552 194.462C400.632 194.934 400.748 195.446 400.9 195.998C401.052 196.55 401.256 197.118 401.512 197.702C401.768 198.286 402.084 198.854 402.46 199.406C402.836 199.958 403.288 200.47 403.816 200.942C404.344 201.406 404.964 201.798 405.676 202.118C405.54 202.222 405.408 202.342 405.28 202.478C405.16 202.622 405.06 202.754 404.98 202.874C404.26 202.53 403.624 202.11 403.072 201.614C402.528 201.11 402.06 200.566 401.668 199.982C401.284 199.39 400.96 198.786 400.696 198.17C400.44 197.554 400.232 196.954 400.072 196.37C399.912 195.778 399.792 195.23 399.712 194.726C399.632 194.214 399.576 193.778 399.544 193.418C399.512 193.05 399.492 192.786 399.484 192.626L400.336 192.554ZM411.964 192.326H412.816V193.79C412.816 194.126 412.776 194.486 412.696 194.87C412.616 195.254 412.468 195.626 412.252 195.986C412.036 196.346 411.712 196.67 411.28 196.958C411.24 196.894 411.176 196.826 411.088 196.754C411.008 196.674 410.924 196.598 410.836 196.526C410.756 196.446 410.684 196.39 410.62 196.358C411.004 196.102 411.292 195.83 411.484 195.542C411.676 195.246 411.804 194.946 411.868 194.642C411.932 194.338 411.964 194.046 411.964 193.766V192.326ZM414.88 192.326H415.744V195.266C415.744 195.402 415.756 195.49 415.78 195.53C415.812 195.562 415.876 195.578 415.972 195.578C416.004 195.578 416.06 195.578 416.14 195.578C416.22 195.578 416.304 195.578 416.392 195.578C416.48 195.578 416.544 195.578 416.584 195.578C416.648 195.578 416.696 195.55 416.728 195.494C416.768 195.438 416.796 195.318 416.812 195.134C416.836 194.942 416.848 194.654 416.848 194.27C416.936 194.342 417.056 194.406 417.208 194.462C417.36 194.518 417.496 194.562 417.616 194.594C417.592 195.066 417.544 195.43 417.472 195.686C417.408 195.942 417.312 196.122 417.184 196.226C417.064 196.322 416.896 196.37 416.68 196.37C416.624 196.37 416.54 196.37 416.428 196.37C416.316 196.37 416.2 196.37 416.08 196.37C415.968 196.37 415.888 196.37 415.84 196.37C415.592 196.37 415.396 196.338 415.252 196.274C415.116 196.21 415.02 196.102 414.964 195.95C414.908 195.79 414.88 195.566 414.88 195.278V192.326ZM412.612 197.978C413.02 199.018 413.656 199.906 414.52 200.642C415.392 201.378 416.432 201.898 417.64 202.202C417.576 202.258 417.504 202.334 417.424 202.43C417.352 202.526 417.28 202.622 417.208 202.718C417.144 202.814 417.088 202.898 417.04 202.97C415.8 202.61 414.736 202.026 413.848 201.218C412.968 200.402 412.288 199.41 411.808 198.242L412.612 197.978ZM415.972 197.138H416.14L416.296 197.102L416.884 197.33C416.676 198.122 416.38 198.826 415.996 199.442C415.62 200.05 415.18 200.586 414.676 201.05C414.172 201.514 413.62 201.902 413.02 202.214C412.428 202.534 411.8 202.79 411.136 202.982C411.112 202.902 411.072 202.81 411.016 202.706C410.96 202.61 410.9 202.514 410.836 202.418C410.772 202.322 410.708 202.246 410.644 202.19C411.252 202.03 411.836 201.81 412.396 201.53C412.956 201.25 413.472 200.91 413.944 200.51C414.424 200.102 414.836 199.63 415.18 199.094C415.524 198.558 415.788 197.958 415.972 197.294V197.138ZM411.184 197.138H416.32V197.966H411.184V197.138ZM412.324 192.326H415.324V193.13H412.324V192.326ZM407.032 195.578H410.608V196.286H407.032V195.578ZM407.08 192.362H410.584V193.082H407.08V192.362ZM407.032 197.174H410.608V197.894H407.032V197.174ZM406.456 193.934H411.028V194.69H406.456V193.934ZM407.452 198.794H410.596V202.298H407.452V201.554H409.804V199.55H407.452V198.794ZM407.008 198.794H407.8V202.85H407.008V198.794ZM420.532 195.614H427.54V196.478H420.532V195.614ZM423.988 198.482H428.032V199.322H423.988V198.482ZM423.52 196.046H424.456V202.13L423.52 201.998V196.046ZM420.664 197.498L421.6 197.606C421.432 198.814 421.152 199.874 420.76 200.786C420.368 201.698 419.836 202.45 419.164 203.042C419.116 202.986 419.044 202.918 418.948 202.838C418.86 202.766 418.768 202.69 418.672 202.61C418.576 202.538 418.492 202.478 418.42 202.43C419.084 201.91 419.592 201.23 419.944 200.39C420.304 199.55 420.544 198.586 420.664 197.498ZM421.24 199.046C421.448 199.662 421.72 200.158 422.056 200.534C422.392 200.91 422.78 201.198 423.22 201.398C423.66 201.598 424.144 201.734 424.672 201.806C425.208 201.878 425.784 201.914 426.4 201.914C426.488 201.914 426.632 201.914 426.832 201.914C427.032 201.914 427.256 201.914 427.504 201.914C427.76 201.914 428.02 201.914 428.284 201.914C428.548 201.914 428.788 201.914 429.004 201.914C429.22 201.914 429.384 201.91 429.496 201.902C429.456 201.974 429.412 202.066 429.364 202.178C429.316 202.29 429.272 202.402 429.232 202.514C429.2 202.626 429.176 202.726 429.16 202.814H428.56H426.352C425.64 202.814 424.98 202.766 424.372 202.67C423.772 202.582 423.228 202.414 422.74 202.166C422.26 201.918 421.832 201.566 421.456 201.11C421.08 200.654 420.764 200.062 420.508 199.334L421.24 199.046ZM423.508 191.942H424.456V193.886H423.508V191.942ZM418.984 193.322H429.016V195.938H428.092V194.186H419.872V195.938H418.984V193.322Z" fill="#3C4043"/>
<circle cx="358" cy="224.712" r="3.5" fill="#FF928A" stroke="#1A1F26"/>
<path d="M372.868 223.872V228.12H372.016V224.712H370.54V223.872H372.868ZM372.868 227.76C373.156 228.208 373.56 228.54 374.08 228.756C374.608 228.972 375.224 229.096 375.928 229.128C376.272 229.136 376.688 229.144 377.176 229.152C377.664 229.152 378.176 229.152 378.712 229.152C379.256 229.144 379.776 229.132 380.272 229.116C380.776 229.092 381.212 229.068 381.58 229.044C381.548 229.108 381.512 229.192 381.472 229.296C381.432 229.4 381.396 229.504 381.364 229.608C381.34 229.72 381.32 229.82 381.304 229.908C380.96 229.924 380.552 229.936 380.08 229.944C379.616 229.952 379.128 229.956 378.616 229.956C378.112 229.964 377.624 229.964 377.152 229.956C376.688 229.956 376.288 229.948 375.952 229.932C375.152 229.9 374.472 229.772 373.912 229.548C373.352 229.324 372.884 228.972 372.508 228.492C372.252 228.748 371.988 229.008 371.716 229.272C371.444 229.536 371.164 229.804 370.876 230.076L370.408 229.212C370.664 229.012 370.944 228.784 371.248 228.528C371.552 228.272 371.84 228.016 372.112 227.76H372.868ZM370.6 219.876L371.296 219.42C371.536 219.604 371.776 219.816 372.016 220.056C372.264 220.288 372.488 220.524 372.688 220.764C372.888 220.996 373.044 221.216 373.156 221.424L372.4 221.928C372.288 221.728 372.136 221.508 371.944 221.268C371.752 221.02 371.54 220.776 371.308 220.536C371.076 220.288 370.84 220.068 370.6 219.876ZM373.768 224.208H381.052V224.904H373.768V224.208ZM373.384 226.044H381.424V226.752H373.384V226.044ZM375.544 223.332H376.396V226.392H375.544V223.332ZM378.364 223.332H379.228V226.392H378.364V223.332ZM374.068 221.004H376.18V220.224H373.612V219.6H376.96V221.64H374.068V221.004ZM373.816 221.004H374.584V222.264C374.584 222.376 374.608 222.452 374.656 222.492C374.712 222.524 374.836 222.54 375.028 222.54C375.068 222.54 375.148 222.54 375.268 222.54C375.388 222.54 375.52 222.54 375.664 222.54C375.808 222.54 375.94 222.54 376.06 222.54C376.188 222.54 376.28 222.54 376.336 222.54C376.48 222.54 376.572 222.508 376.612 222.444C376.66 222.372 376.692 222.204 376.708 221.94C376.78 221.996 376.88 222.044 377.008 222.084C377.144 222.124 377.268 222.16 377.38 222.192C377.34 222.576 377.252 222.836 377.116 222.972C376.98 223.108 376.756 223.176 376.444 223.176C376.396 223.176 376.3 223.176 376.156 223.176C376.02 223.176 375.864 223.176 375.688 223.176C375.52 223.176 375.364 223.176 375.22 223.176C375.076 223.176 374.984 223.176 374.944 223.176C374.648 223.176 374.416 223.152 374.248 223.104C374.088 223.048 373.976 222.956 373.912 222.828C373.848 222.692 373.816 222.504 373.816 222.264V221.004ZM378.016 221.004H380.092V220.224H377.536V219.6H380.884V221.64H378.016V221.004ZM377.764 221.004H378.532V222.252C378.532 222.372 378.56 222.452 378.616 222.492C378.672 222.524 378.8 222.54 379 222.54C379.056 222.54 379.144 222.54 379.264 222.54C379.392 222.54 379.532 222.54 379.684 222.54C379.844 222.54 379.992 222.54 380.128 222.54C380.264 222.54 380.364 222.54 380.428 222.54C380.58 222.54 380.676 222.504 380.716 222.432C380.764 222.352 380.8 222.172 380.824 221.892C380.896 221.948 380.996 222 381.124 222.048C381.26 222.088 381.38 222.124 381.484 222.156C381.452 222.556 381.364 222.828 381.22 222.972C381.084 223.108 380.856 223.176 380.536 223.176C380.488 223.176 380.384 223.176 380.224 223.176C380.072 223.176 379.904 223.176 379.72 223.176C379.536 223.176 379.368 223.176 379.216 223.176C379.064 223.176 378.964 223.176 378.916 223.176C378.62 223.176 378.388 223.152 378.22 223.104C378.052 223.048 377.932 222.956 377.86 222.828C377.796 222.692 377.764 222.5 377.764 222.252V221.004ZM378.16 227.304L378.808 226.908C379.096 227.044 379.392 227.196 379.696 227.364C380 227.532 380.284 227.704 380.548 227.88C380.82 228.048 381.052 228.208 381.244 228.36L380.356 228.744C380.108 228.52 379.784 228.276 379.384 228.012C378.984 227.748 378.576 227.512 378.16 227.304ZM375.952 226.884L376.756 227.16C376.444 227.448 376.068 227.732 375.628 228.012C375.188 228.292 374.768 228.524 374.368 228.708C374.32 228.66 374.256 228.6 374.176 228.528C374.096 228.456 374.012 228.384 373.924 228.312C373.844 228.24 373.772 228.184 373.708 228.144C374.116 227.984 374.524 227.796 374.932 227.58C375.348 227.356 375.688 227.124 375.952 226.884ZM391.204 220.272V221.532H392.416V220.272H391.204ZM389.272 220.272V221.532H390.472V220.272H389.272ZM387.412 220.272V221.532H388.552V220.272H387.412ZM386.68 219.624H393.184V222.192H386.68V219.624ZM386.812 222.924H392.944V223.608H386.812V222.924ZM386.2 224.46H393.532V225.18H386.2V224.46ZM386.32 226.32H393.376V227.04H386.32V226.32ZM386.572 227.904H393.112V228.6H386.572V227.904ZM389.392 222.012H390.256V224.76H389.392V222.012ZM389.392 226.632H390.256V230.256H389.392V226.632ZM387.7 225.3L388.456 225.12C388.544 225.288 388.636 225.48 388.732 225.696C388.828 225.904 388.896 226.084 388.936 226.236L388.156 226.452C388.116 226.292 388.052 226.104 387.964 225.888C387.884 225.672 387.796 225.476 387.7 225.3ZM391.288 225.012L392.14 225.228C392.012 225.452 391.884 225.672 391.756 225.888C391.636 226.104 391.524 226.292 391.42 226.452L390.736 226.248C390.832 226.064 390.932 225.856 391.036 225.624C391.148 225.392 391.232 225.188 391.288 225.012ZM382.336 225.36C382.8 225.224 383.36 225.056 384.016 224.856C384.68 224.648 385.352 224.436 386.032 224.22L386.164 225.048C385.54 225.256 384.912 225.464 384.28 225.672C383.648 225.88 383.076 226.064 382.564 226.224L382.336 225.36ZM382.504 221.556H386.14V222.396H382.504V221.556ZM384.004 219.144H384.844V229.128C384.844 229.368 384.812 229.556 384.748 229.692C384.692 229.828 384.588 229.932 384.436 230.004C384.292 230.076 384.1 230.124 383.86 230.148C383.62 230.172 383.308 230.18 382.924 230.172C382.916 230.068 382.884 229.932 382.828 229.764C382.78 229.604 382.728 229.46 382.672 229.332C382.928 229.34 383.16 229.344 383.368 229.344C383.584 229.352 383.728 229.352 383.8 229.344C383.872 229.344 383.924 229.328 383.956 229.296C383.988 229.272 384.004 229.216 384.004 229.128V219.144ZM395.944 223.068H405.424V223.812H395.944V223.068ZM395.32 220.128H404.824V220.86H395.32V220.128ZM398.116 225.048H404.644V225.78H398.116V225.048ZM397.852 226.992H404.356V227.724H397.852V226.992ZM396.772 229.164H405.328V229.92H396.772V229.164ZM399.532 219.144H400.432V220.644H399.532V219.144ZM400.588 224.076H401.464V229.476H400.588V224.076ZM395.488 223.068H396.364V225.012C396.364 225.388 396.348 225.804 396.316 226.26C396.284 226.708 396.22 227.168 396.124 227.64C396.036 228.112 395.908 228.576 395.74 229.032C395.58 229.48 395.364 229.892 395.092 230.268C395.052 230.212 394.988 230.144 394.9 230.064C394.812 229.992 394.72 229.92 394.624 229.848C394.536 229.784 394.456 229.736 394.384 229.704C394.712 229.232 394.952 228.72 395.104 228.168C395.264 227.608 395.368 227.056 395.416 226.512C395.464 225.96 395.488 225.456 395.488 225V223.068ZM398.248 224.04L399.04 224.232C398.856 224.744 398.62 225.236 398.332 225.708C398.044 226.18 397.74 226.58 397.42 226.908C397.372 226.86 397.304 226.808 397.216 226.752C397.128 226.688 397.04 226.628 396.952 226.572C396.872 226.516 396.796 226.468 396.724 226.428C397.044 226.132 397.336 225.776 397.6 225.36C397.864 224.936 398.08 224.496 398.248 224.04ZM397.108 221.292L397.684 220.812C398.156 220.924 398.652 221.056 399.172 221.208C399.692 221.36 400.204 221.52 400.708 221.688C401.22 221.856 401.704 222.024 402.16 222.192C402.616 222.352 403.012 222.504 403.348 222.648L402.784 223.164C402.456 223.02 402.068 222.864 401.62 222.696C401.172 222.52 400.692 222.348 400.18 222.18C399.668 222.004 399.148 221.84 398.62 221.688C398.1 221.536 397.596 221.404 397.108 221.292ZM402.292 220.632L402.94 220.98C402.588 221.228 402.176 221.464 401.704 221.688C401.232 221.904 400.724 222.104 400.18 222.288C399.644 222.472 399.096 222.636 398.536 222.78C397.984 222.924 397.444 223.044 396.916 223.14C396.884 223.06 396.832 222.964 396.76 222.852C396.688 222.732 396.624 222.636 396.568 222.564C397.064 222.476 397.584 222.368 398.128 222.24C398.68 222.104 399.216 221.956 399.736 221.796C400.264 221.628 400.748 221.448 401.188 221.256C401.636 221.056 402.004 220.848 402.292 220.632ZM409.624 220.5V222.78H414.412V220.5H409.624ZM408.748 219.648H415.336V223.644H408.748V219.648ZM406.996 224.928H411.268V230.064H410.368V225.78H407.86V230.172H406.996V224.928ZM412.588 224.928H417.1V230.1H416.188V225.78H413.452V230.172H412.588V224.928ZM407.392 228.648H410.74V229.524H407.392V228.648ZM413.02 228.648H416.584V229.524H413.02V228.648Z" fill="#3C4043"/>
<circle cx="358" cy="251.903" r="3.5" fill="#3CC3DF" stroke="#1A1F26"/>
<path d="M377.752 246.323H378.664V251.027H377.752V246.323ZM376.192 255.935H380.476V256.751H376.192V255.935ZM374.968 248.027H381.532V248.843H374.968V248.027ZM375.352 250.643H381.256V251.483H375.352V250.643ZM375.736 252.779H380.92V257.315H380.056V253.595H376.576V257.351H375.736V252.779ZM372.34 246.323L373.144 246.635C373 246.923 372.84 247.227 372.664 247.547C372.488 247.867 372.316 248.175 372.148 248.471C371.98 248.759 371.816 249.015 371.656 249.239L371.032 248.963C371.184 248.731 371.34 248.463 371.5 248.159C371.66 247.847 371.816 247.531 371.968 247.211C372.12 246.883 372.244 246.587 372.34 246.323ZM373.792 247.691L374.584 248.027C374.304 248.483 373.992 248.963 373.648 249.467C373.312 249.963 372.972 250.447 372.628 250.919C372.284 251.391 371.96 251.799 371.656 252.143L371.08 251.843C371.312 251.571 371.552 251.263 371.8 250.919C372.048 250.575 372.292 250.215 372.532 249.839C372.78 249.463 373.012 249.091 373.228 248.723C373.444 248.355 373.632 248.011 373.792 247.691ZM370.456 248.855L370.9 248.255C371.124 248.439 371.352 248.643 371.584 248.867C371.816 249.091 372.028 249.315 372.22 249.539C372.412 249.755 372.56 249.951 372.664 250.127L372.184 250.823C372.072 250.631 371.92 250.419 371.728 250.187C371.544 249.955 371.34 249.723 371.116 249.491C370.892 249.259 370.672 249.047 370.456 248.855ZM373.408 250.475L374.08 250.187C374.256 250.451 374.424 250.731 374.584 251.027C374.744 251.323 374.884 251.611 375.004 251.891C375.132 252.171 375.224 252.423 375.28 252.647L374.572 252.983C374.508 252.759 374.416 252.503 374.296 252.215C374.176 251.927 374.04 251.631 373.888 251.327C373.736 251.023 373.576 250.739 373.408 250.475ZM370.432 251.687C370.968 251.671 371.604 251.651 372.34 251.627C373.084 251.595 373.848 251.559 374.632 251.519L374.62 252.263C373.876 252.311 373.144 252.359 372.424 252.407C371.704 252.447 371.064 252.479 370.504 252.503L370.432 251.687ZM373.72 253.355L374.392 253.127C374.568 253.495 374.732 253.895 374.884 254.327C375.044 254.759 375.156 255.131 375.22 255.443L374.476 255.695C374.42 255.375 374.32 254.999 374.176 254.567C374.032 254.127 373.88 253.723 373.72 253.355ZM371.092 253.187L371.86 253.319C371.78 253.887 371.668 254.447 371.524 254.999C371.38 255.543 371.212 256.007 371.02 256.391C370.964 256.351 370.892 256.311 370.804 256.271C370.724 256.231 370.636 256.191 370.54 256.151C370.452 256.103 370.372 256.067 370.3 256.043C370.508 255.675 370.672 255.239 370.792 254.735C370.92 254.223 371.02 253.707 371.092 253.187ZM372.472 252.035H373.288V257.387H372.472V252.035ZM384.364 246.335H385.144V257.363H384.364V246.335ZM382.792 248.603H386.44V249.419H383.488V254.891H382.792V248.603ZM386.08 248.603H386.764V253.907C386.764 254.067 386.748 254.207 386.716 254.327C386.684 254.447 386.616 254.547 386.512 254.627C386.408 254.691 386.284 254.735 386.14 254.759C385.996 254.775 385.82 254.783 385.612 254.783C385.604 254.671 385.576 254.543 385.528 254.399C385.48 254.247 385.424 254.115 385.36 254.003C385.512 254.011 385.64 254.015 385.744 254.015C385.848 254.015 385.924 254.015 385.972 254.015C386.044 254.007 386.08 253.963 386.08 253.883V248.603ZM388.192 246.839H392.944V247.595H388.192V246.839ZM388.204 248.519H392.548V249.227H388.204V248.519ZM388.204 250.175H392.548V250.871H388.204V250.175ZM386.92 251.807H393.46V252.587H386.92V251.807ZM386.668 256.403C387.196 256.323 387.836 256.223 388.588 256.103C389.348 255.983 390.12 255.859 390.904 255.731L390.964 256.487C390.228 256.623 389.5 256.751 388.78 256.871C388.06 256.999 387.42 257.115 386.86 257.219L386.668 256.403ZM390.388 252.047C390.54 252.775 390.756 253.439 391.036 254.039C391.316 254.639 391.676 255.159 392.116 255.599C392.556 256.031 393.084 256.363 393.7 256.595C393.636 256.651 393.564 256.723 393.484 256.811C393.412 256.907 393.34 257.003 393.268 257.099C393.204 257.195 393.148 257.283 393.1 257.363C392.452 257.075 391.9 256.687 391.444 256.199C390.988 255.703 390.616 255.115 390.328 254.435C390.04 253.755 389.812 253.003 389.644 252.179L390.388 252.047ZM392.836 252.863L393.436 253.403C393.116 253.699 392.752 253.995 392.344 254.291C391.944 254.579 391.576 254.827 391.24 255.035L390.724 254.507C390.948 254.371 391.188 254.211 391.444 254.027C391.7 253.835 391.952 253.639 392.2 253.439C392.448 253.231 392.66 253.039 392.836 252.863ZM387.832 246.839H388.672V252.191H387.832V246.839ZM387.82 252.167H388.66V256.451L387.82 256.571V252.167ZM397.78 247.883H405.412V248.711H397.78V247.883ZM400.96 246.323H401.872V248.279H400.96V246.323ZM400.96 252.071H401.776V256.847H400.96V252.071ZM398.86 251.999H399.676V253.271C399.676 253.607 399.656 253.951 399.616 254.303C399.584 254.655 399.504 255.011 399.376 255.371C399.256 255.723 399.076 256.067 398.836 256.403C398.596 256.739 398.272 257.051 397.864 257.339C397.824 257.283 397.768 257.215 397.696 257.135C397.624 257.063 397.544 256.991 397.456 256.919C397.376 256.847 397.3 256.791 397.228 256.751C397.724 256.407 398.084 256.035 398.308 255.635C398.54 255.235 398.688 254.831 398.752 254.423C398.824 254.007 398.86 253.615 398.86 253.247V251.999ZM400.432 248.327L401.356 248.615C401.212 248.911 401.052 249.215 400.876 249.527C400.708 249.831 400.54 250.123 400.372 250.403C400.204 250.683 400.044 250.935 399.892 251.159L399.16 250.895C399.312 250.663 399.464 250.399 399.616 250.103C399.776 249.799 399.928 249.491 400.072 249.179C400.216 248.867 400.336 248.583 400.432 248.327ZM402.532 249.503L403.216 249.119C403.504 249.359 403.796 249.627 404.092 249.923C404.388 250.219 404.656 250.515 404.896 250.811C405.144 251.107 405.336 251.379 405.472 251.627L404.74 252.059C404.604 251.819 404.416 251.551 404.176 251.255C403.936 250.951 403.672 250.647 403.384 250.343C403.104 250.031 402.82 249.751 402.532 249.503ZM397.924 250.679C398.444 250.663 399.052 250.643 399.748 250.619C400.444 250.595 401.18 250.571 401.956 250.547C402.74 250.515 403.524 250.483 404.308 250.451L404.284 251.219C403.532 251.259 402.78 251.299 402.028 251.339C401.276 251.379 400.56 251.415 399.88 251.447C399.2 251.479 398.584 251.507 398.032 251.531L397.924 250.679ZM395.092 247.079L395.584 246.431C395.848 246.535 396.116 246.659 396.388 246.803C396.66 246.947 396.916 247.099 397.156 247.259C397.404 247.419 397.604 247.567 397.756 247.703L397.24 248.447C397.088 248.295 396.892 248.139 396.652 247.979C396.412 247.811 396.156 247.647 395.884 247.487C395.612 247.327 395.348 247.191 395.092 247.079ZM394.456 250.331L394.948 249.659C395.204 249.755 395.472 249.875 395.752 250.019C396.032 250.155 396.296 250.295 396.544 250.439C396.792 250.583 396.996 250.723 397.156 250.859L396.64 251.615C396.488 251.479 396.288 251.335 396.04 251.183C395.792 251.023 395.528 250.871 395.248 250.727C394.976 250.575 394.712 250.443 394.456 250.331ZM394.804 256.619C395.012 256.307 395.24 255.935 395.488 255.503C395.736 255.071 395.988 254.615 396.244 254.135C396.5 253.647 396.736 253.175 396.952 252.719L397.636 253.283C397.436 253.707 397.22 254.151 396.988 254.615C396.756 255.071 396.52 255.523 396.28 255.971C396.04 256.411 395.808 256.819 395.584 257.195L394.804 256.619ZM403.096 251.999H403.936V255.971C403.936 256.211 403.96 256.351 404.008 256.391C404.024 256.407 404.048 256.419 404.08 256.427C404.12 256.443 404.16 256.451 404.2 256.451C404.24 256.451 404.292 256.451 404.356 256.451C404.428 256.451 404.488 256.451 404.536 256.451C404.584 256.451 404.632 256.447 404.68 256.439C404.736 256.431 404.776 256.415 404.8 256.391C404.848 256.359 404.888 256.251 404.92 256.067C404.936 255.971 404.944 255.819 404.944 255.611C404.952 255.395 404.96 255.143 404.968 254.855C405.04 254.927 405.136 254.995 405.256 255.059C405.376 255.115 405.492 255.163 405.604 255.203C405.596 255.467 405.58 255.735 405.556 256.007C405.54 256.279 405.516 256.471 405.484 256.583C405.428 256.799 405.32 256.955 405.16 257.051C405.096 257.091 405.008 257.123 404.896 257.147C404.784 257.171 404.68 257.183 404.584 257.183C404.512 257.183 404.408 257.183 404.272 257.183C404.144 257.183 404.048 257.183 403.984 257.183C403.872 257.183 403.756 257.163 403.636 257.123C403.516 257.091 403.412 257.039 403.324 256.967C403.236 256.887 403.176 256.775 403.144 256.631C403.112 256.495 403.096 256.247 403.096 255.887V251.999ZM413.728 251.975H414.616V256.787H413.728V251.975ZM411.1 251.651H417.292V252.443H411.1V251.651ZM410.572 256.247H417.556V257.039H410.572V256.247ZM411.376 253.895H417.028V254.675H411.376V253.895ZM412.384 247.607V249.815H416.008V247.607H412.384ZM411.544 246.827H416.884V250.595H411.544V246.827ZM408.544 247.319H409.432V257.339H408.544V247.319ZM406.588 249.707H410.932V250.547H406.588V249.707ZM408.592 250.031L409.156 250.271C409.036 250.695 408.888 251.135 408.712 251.591C408.536 252.039 408.344 252.487 408.136 252.935C407.936 253.375 407.72 253.791 407.488 254.183C407.264 254.567 407.036 254.895 406.804 255.167C406.756 255.047 406.684 254.907 406.588 254.747C406.5 254.587 406.416 254.451 406.336 254.339C406.56 254.099 406.78 253.811 406.996 253.475C407.212 253.139 407.42 252.775 407.62 252.383C407.828 251.991 408.016 251.595 408.184 251.195C408.352 250.787 408.488 250.399 408.592 250.031ZM410.332 246.491L410.956 247.187C410.588 247.331 410.168 247.467 409.696 247.595C409.224 247.723 408.736 247.835 408.232 247.931C407.736 248.019 407.252 248.095 406.78 248.159C406.764 248.063 406.728 247.951 406.672 247.823C406.616 247.687 406.564 247.571 406.516 247.475C406.964 247.395 407.424 247.307 407.896 247.211C408.376 247.115 408.828 247.007 409.252 246.887C409.676 246.759 410.036 246.627 410.332 246.491ZM409.384 251.243C409.464 251.315 409.58 251.431 409.732 251.591C409.892 251.743 410.064 251.911 410.248 252.095C410.432 252.271 410.596 252.439 410.74 252.599C410.892 252.759 411 252.875 411.064 252.947L410.524 253.655C410.452 253.535 410.348 253.383 410.212 253.199C410.084 253.015 409.94 252.819 409.78 252.611C409.62 252.403 409.468 252.211 409.324 252.035C409.18 251.859 409.06 251.719 408.964 251.615L409.384 251.243Z" fill="#3C4043"/>
<path d="M355.357 173.212V164.485H358.63C359.3 164.485 359.863 164.61 360.317 164.86C360.775 165.11 361.12 165.453 361.353 165.891C361.588 166.326 361.706 166.82 361.706 167.374C361.706 167.934 361.588 168.431 361.353 168.865C361.117 169.3 360.769 169.642 360.309 169.892C359.848 170.139 359.282 170.263 358.608 170.263H356.439V168.963H358.395C358.787 168.963 359.108 168.895 359.358 168.759C359.608 168.622 359.793 168.435 359.912 168.196C360.034 167.958 360.096 167.684 360.096 167.374C360.096 167.064 360.034 166.791 359.912 166.556C359.793 166.32 359.607 166.137 359.354 166.006C359.104 165.872 358.782 165.806 358.387 165.806H356.938V173.212H355.357ZM364.778 173.344C364.363 173.344 363.989 173.27 363.657 173.122C363.327 172.972 363.066 172.75 362.873 172.458C362.683 172.165 362.587 171.804 362.587 171.375C362.587 171.006 362.656 170.701 362.792 170.459C362.928 170.218 363.114 170.024 363.35 169.88C363.586 169.735 363.852 169.625 364.147 169.551C364.445 169.475 364.754 169.419 365.072 169.385C365.455 169.345 365.766 169.31 366.005 169.279C366.244 169.245 366.417 169.193 366.525 169.125C366.636 169.054 366.691 168.945 366.691 168.797V168.772C366.691 168.451 366.596 168.202 366.406 168.026C366.215 167.85 365.941 167.762 365.583 167.762C365.205 167.762 364.906 167.844 364.684 168.009C364.465 168.174 364.317 168.368 364.241 168.593L362.8 168.388C362.914 167.99 363.102 167.658 363.363 167.391C363.624 167.121 363.944 166.919 364.322 166.786C364.7 166.649 365.117 166.581 365.575 166.581C365.89 166.581 366.204 166.618 366.516 166.692C366.829 166.766 367.114 166.888 367.373 167.059C367.631 167.226 367.839 167.455 367.995 167.745C368.154 168.034 368.234 168.397 368.234 168.831V173.212H366.751V172.313H366.7C366.606 172.495 366.474 172.665 366.303 172.824C366.136 172.98 365.924 173.107 365.668 173.203C365.415 173.297 365.119 173.344 364.778 173.344ZM365.178 172.21C365.488 172.21 365.756 172.149 365.984 172.027C366.211 171.902 366.386 171.737 366.508 171.533C366.633 171.328 366.695 171.105 366.695 170.864V170.093C366.647 170.132 366.565 170.169 366.448 170.203C366.335 170.237 366.207 170.267 366.065 170.293C365.923 170.318 365.782 170.341 365.643 170.361C365.504 170.381 365.383 170.398 365.281 170.412C365.05 170.443 364.844 170.495 364.663 170.566C364.481 170.637 364.337 170.736 364.232 170.864C364.127 170.989 364.075 171.151 364.075 171.35C364.075 171.634 364.178 171.848 364.386 171.993C364.593 172.138 364.857 172.21 365.178 172.21ZM372.631 175.803C372.077 175.803 371.602 175.728 371.204 175.577C370.806 175.429 370.487 175.23 370.245 174.98C370.004 174.73 369.836 174.453 369.742 174.149L371.131 173.813C371.194 173.941 371.285 174.067 371.404 174.192C371.523 174.32 371.684 174.425 371.886 174.507C372.09 174.593 372.347 174.635 372.657 174.635C373.094 174.635 373.457 174.529 373.744 174.316C374.031 174.105 374.174 173.759 374.174 173.276V172.036H374.097C374.018 172.195 373.901 172.358 373.748 172.526C373.597 172.693 373.397 172.834 373.147 172.948C372.9 173.061 372.589 173.118 372.214 173.118C371.711 173.118 371.255 173 370.846 172.764C370.44 172.526 370.116 172.171 369.874 171.699C369.636 171.225 369.516 170.631 369.516 169.918C369.516 169.199 369.636 168.593 369.874 168.098C370.116 167.601 370.441 167.225 370.85 166.969C371.259 166.71 371.715 166.581 372.218 166.581C372.602 166.581 372.917 166.647 373.164 166.777C373.414 166.905 373.613 167.06 373.761 167.242C373.908 167.421 374.021 167.59 374.097 167.749H374.183V166.666H375.704V173.318C375.704 173.878 375.57 174.341 375.303 174.708C375.036 175.074 374.671 175.348 374.208 175.53C373.745 175.712 373.219 175.803 372.631 175.803ZM372.644 171.908C372.971 171.908 373.249 171.828 373.479 171.669C373.71 171.51 373.884 171.282 374.004 170.983C374.123 170.685 374.183 170.327 374.183 169.909C374.183 169.497 374.123 169.137 374.004 168.827C373.887 168.517 373.714 168.277 373.484 168.107C373.256 167.934 372.977 167.847 372.644 167.847C372.3 167.847 372.013 167.936 371.783 168.115C371.553 168.294 371.38 168.54 371.263 168.853C371.147 169.162 371.089 169.514 371.089 169.909C371.089 170.31 371.147 170.661 371.263 170.962C371.383 171.26 371.558 171.493 371.788 171.661C372.021 171.826 372.306 171.908 372.644 171.908ZM380.183 173.34C379.526 173.34 378.96 173.203 378.482 172.931C378.008 172.655 377.643 172.266 377.387 171.763C377.131 171.257 377.004 170.662 377.004 169.978C377.004 169.304 377.131 168.713 377.387 168.205C377.646 167.693 378.006 167.296 378.469 167.012C378.933 166.725 379.477 166.581 380.102 166.581C380.505 166.581 380.886 166.647 381.244 166.777C381.604 166.905 381.923 167.104 382.198 167.374C382.477 167.644 382.695 167.987 382.854 168.405C383.013 168.82 383.093 169.314 383.093 169.888V170.361H377.728V169.321H381.614C381.612 169.026 381.548 168.763 381.423 168.533C381.298 168.3 381.123 168.117 380.898 167.983C380.677 167.85 380.418 167.783 380.123 167.783C379.808 167.783 379.531 167.86 379.292 168.013C379.053 168.164 378.867 168.362 378.734 168.61C378.603 168.854 378.536 169.122 378.533 169.415V170.323C378.533 170.703 378.603 171.03 378.742 171.303C378.881 171.573 379.076 171.78 379.326 171.925C379.576 172.067 379.869 172.138 380.204 172.138C380.428 172.138 380.631 172.107 380.813 172.044C380.995 171.979 381.153 171.884 381.286 171.759C381.42 171.634 381.521 171.479 381.589 171.294L383.029 171.456C382.938 171.837 382.765 172.169 382.509 172.453C382.256 172.735 381.933 172.953 381.538 173.11C381.143 173.263 380.691 173.34 380.183 173.34ZM390.4 173.212H387.443V164.485H390.46C391.326 164.485 392.071 164.659 392.693 165.009C393.318 165.355 393.798 165.854 394.133 166.505C394.468 167.155 394.636 167.934 394.636 168.84C394.636 169.749 394.467 170.53 394.129 171.184C393.794 171.837 393.309 172.338 392.676 172.688C392.045 173.037 391.287 173.212 390.4 173.212ZM389.024 171.844H390.324C390.931 171.844 391.439 171.733 391.845 171.512C392.251 171.287 392.556 170.953 392.761 170.51C392.966 170.064 393.068 169.507 393.068 168.84C393.068 168.172 392.966 167.618 392.761 167.178C392.556 166.735 392.254 166.404 391.853 166.185C391.456 165.963 390.961 165.853 390.37 165.853H389.024V171.844ZM396.07 173.212V166.666H397.566V167.757H397.634C397.753 167.38 397.958 167.088 398.248 166.884C398.54 166.676 398.874 166.573 399.249 166.573C399.334 166.573 399.429 166.577 399.534 166.585C399.642 166.591 399.732 166.601 399.803 166.615V168.034C399.738 168.012 399.634 167.992 399.492 167.975C399.353 167.955 399.218 167.945 399.087 167.945C398.806 167.945 398.553 168.006 398.328 168.128C398.107 168.247 397.932 168.414 397.804 168.627C397.676 168.84 397.613 169.085 397.613 169.364V173.212H396.07ZM403.413 173.34C402.774 173.34 402.22 173.199 401.751 172.918C401.283 172.637 400.919 172.243 400.661 171.737C400.405 171.232 400.277 170.641 400.277 169.965C400.277 169.289 400.405 168.696 400.661 168.188C400.919 167.679 401.283 167.284 401.751 167.003C402.22 166.722 402.774 166.581 403.413 166.581C404.053 166.581 404.607 166.722 405.075 167.003C405.544 167.284 405.906 167.679 406.162 168.188C406.42 168.696 406.55 169.289 406.55 169.965C406.55 170.641 406.42 171.232 406.162 171.737C405.906 172.243 405.544 172.637 405.075 172.918C404.607 173.199 404.053 173.34 403.413 173.34ZM403.422 172.104C403.768 172.104 404.058 172.009 404.291 171.818C404.524 171.625 404.697 171.367 404.811 171.043C404.928 170.719 404.986 170.358 404.986 169.96C404.986 169.56 404.928 169.198 404.811 168.874C404.697 168.547 404.524 168.287 404.291 168.094C404.058 167.901 403.768 167.804 403.422 167.804C403.067 167.804 402.771 167.901 402.536 168.094C402.303 168.287 402.128 168.547 402.011 168.874C401.898 169.198 401.841 169.56 401.841 169.96C401.841 170.358 401.898 170.719 402.011 171.043C402.128 171.367 402.303 171.625 402.536 171.818C402.771 172.009 403.067 172.104 403.422 172.104ZM407.859 175.666V166.666H409.376V167.749H409.466C409.545 167.59 409.657 167.421 409.802 167.242C409.947 167.06 410.143 166.905 410.39 166.777C410.637 166.647 410.953 166.581 411.336 166.581C411.842 166.581 412.298 166.71 412.704 166.969C413.113 167.225 413.437 167.604 413.676 168.107C413.917 168.607 414.038 169.22 414.038 169.948C414.038 170.666 413.92 171.277 413.684 171.78C413.449 172.283 413.127 172.666 412.721 172.931C412.315 173.195 411.855 173.327 411.341 173.327C410.966 173.327 410.654 173.264 410.407 173.139C410.16 173.014 409.961 172.864 409.811 172.688C409.663 172.509 409.548 172.34 409.466 172.181H409.402V175.666H407.859ZM409.372 169.939C409.372 170.362 409.431 170.733 409.551 171.051C409.673 171.37 409.848 171.618 410.075 171.797C410.305 171.973 410.583 172.061 410.91 172.061C411.251 172.061 411.537 171.97 411.767 171.789C411.997 171.604 412.17 171.353 412.287 171.034C412.406 170.713 412.466 170.348 412.466 169.939C412.466 169.533 412.407 169.172 412.291 168.857C412.174 168.541 412.001 168.294 411.771 168.115C411.541 167.936 411.254 167.847 410.91 167.847C410.581 167.847 410.301 167.934 410.071 168.107C409.841 168.28 409.666 168.523 409.547 168.835C409.43 169.148 409.372 169.516 409.372 169.939ZM419.326 168.942V170.212H415.397V168.942H419.326ZM423.804 173.34C423.165 173.34 422.611 173.199 422.142 172.918C421.673 172.637 421.31 172.243 421.051 171.737C420.795 171.232 420.668 170.641 420.668 169.965C420.668 169.289 420.795 168.696 421.051 168.188C421.31 167.679 421.673 167.284 422.142 167.003C422.611 166.722 423.165 166.581 423.804 166.581C424.443 166.581 424.997 166.722 425.466 167.003C425.935 167.284 426.297 167.679 426.553 168.188C426.811 168.696 426.94 169.289 426.94 169.965C426.94 170.641 426.811 171.232 426.553 171.737C426.297 172.243 425.935 172.637 425.466 172.918C424.997 173.199 424.443 173.34 423.804 173.34ZM423.812 172.104C424.159 172.104 424.449 172.009 424.682 171.818C424.915 171.625 425.088 171.367 425.202 171.043C425.318 170.719 425.376 170.358 425.376 169.96C425.376 169.56 425.318 169.198 425.202 168.874C425.088 168.547 424.915 168.287 424.682 168.094C424.449 167.901 424.159 167.804 423.812 167.804C423.457 167.804 423.162 167.901 422.926 168.094C422.693 168.287 422.518 168.547 422.402 168.874C422.288 169.198 422.232 169.56 422.232 169.96C422.232 170.358 422.288 170.719 422.402 171.043C422.518 171.367 422.693 171.625 422.926 171.818C423.162 172.009 423.457 172.104 423.812 172.104ZM431.565 166.666V167.86H427.696V166.666H431.565ZM428.663 173.212V166.049C428.663 165.608 428.754 165.242 428.936 164.949C429.12 164.657 429.368 164.438 429.677 164.293C429.987 164.148 430.331 164.076 430.708 164.076C430.975 164.076 431.213 164.097 431.42 164.139C431.627 164.182 431.781 164.22 431.88 164.255L431.574 165.448C431.508 165.428 431.426 165.408 431.326 165.388C431.227 165.365 431.116 165.354 430.994 165.354C430.707 165.354 430.504 165.424 430.385 165.563C430.268 165.699 430.21 165.895 430.21 166.151V173.212H428.663ZM436.088 166.666V167.86H432.219V166.666H436.088ZM433.186 173.212V166.049C433.186 165.608 433.277 165.242 433.459 164.949C433.644 164.657 433.891 164.438 434.201 164.293C434.51 164.148 434.854 164.076 435.232 164.076C435.499 164.076 435.736 164.097 435.944 164.139C436.151 164.182 436.304 164.22 436.404 164.255L436.097 165.448C436.032 165.428 435.949 165.408 435.85 165.388C435.75 165.365 435.64 165.354 435.517 165.354C435.23 165.354 435.027 165.424 434.908 165.563C434.792 165.699 434.733 165.895 434.733 166.151V173.212H433.186Z" fill="#5F6367"/>
</g>
<defs>
<clipPath id="clip0_1828_5087">
<rect width="423" height="343" fill="white"/>
</clipPath>
</defs>
</svg>
