<svg width="208" height="2758" viewBox="0 0 208 2758" fill="none" xmlns="http://www.w3.org/2000/svg">
<path d="M0 42.8905C0 31.4859 -4.76837e-07 25.784 1.49748 21.1689C4.52392 11.8422 11.8266 4.52985 21.141 1.49943C25.7497 4.76837e-07 31.4444 0 42.8337 0L164.706 0C176.095 0 181.79 4.76837e-07 186.399 1.49943C195.713 4.52985 203.016 11.8422 206.042 21.1689C207.54 25.784 207.54 31.4859 207.54 42.8905L207.54 390.097C207.54 401.501 207.54 407.203 206.042 411.818C203.016 421.145 195.713 428.457 186.399 431.487C181.79 432.987 176.095 432.987 164.706 432.987H42.8337C31.4444 432.987 25.7497 432.987 21.141 431.487C11.8266 428.457 4.52392 421.145 1.49748 411.818C-4.76837e-07 407.203 0 401.501 0 390.097L0 42.8905Z" fill="#121515"/>
<path d="M0 507.878C0 496.473 -3.97116e-07 490.771 1.49748 486.156C4.52392 476.83 11.8266 469.517 21.141 466.487C25.7497 464.987 31.4444 464.987 42.8337 464.987H164.706C176.095 464.987 181.79 464.987 186.399 466.487C195.713 469.517 203.016 476.83 206.042 486.156C207.54 490.771 207.54 496.473 207.54 507.878L207.54 855.084C207.54 866.489 207.54 872.191 206.042 876.806C203.016 886.132 195.713 893.445 186.399 896.475C181.79 897.975 176.095 897.975 164.706 897.975H42.8337C31.4444 897.975 25.7497 897.975 21.141 896.475C11.8266 893.445 4.52392 886.132 1.49748 876.806C-3.97116e-07 872.191 0 866.489 0 855.084L0 507.878Z" fill="#121515"/>
<path d="M0 972.865C0 961.461 -3.97116e-07 955.759 1.49748 951.144C4.52392 941.817 11.8266 934.505 21.141 931.474C25.7497 929.975 31.4444 929.975 42.8337 929.975H164.706C176.095 929.975 181.79 929.975 186.399 931.474C195.713 934.505 203.016 941.817 206.042 951.144C207.54 955.759 207.54 961.461 207.54 972.865L207.54 1320.07C207.54 1331.48 207.54 1337.18 206.042 1341.79C203.016 1351.12 195.713 1358.43 186.399 1361.46C181.79 1362.96 176.095 1362.96 164.706 1362.96H42.8337C31.4444 1362.96 25.7497 1362.96 21.141 1361.46C11.8266 1358.43 4.52392 1351.12 1.49748 1341.79C-3.97116e-07 1337.18 0 1331.48 0 1320.07L0 972.865Z" fill="#121515"/>
<path d="M0 1437.85C0 1426.45 -3.97116e-07 1420.75 1.49748 1416.13C4.52392 1406.8 11.8266 1399.49 21.141 1396.46C25.7497 1394.96 31.4444 1394.96 42.8337 1394.96H164.706C176.095 1394.96 181.79 1394.96 186.399 1396.46C195.713 1399.49 203.016 1406.8 206.042 1416.13C207.54 1420.75 207.54 1426.45 207.54 1437.85L207.54 1785.06C207.54 1796.46 207.54 1802.17 206.042 1806.78C203.016 1816.11 195.713 1823.42 186.399 1826.45C181.79 1827.95 176.095 1827.95 164.706 1827.95H42.8337C31.4444 1827.95 25.7497 1827.95 21.141 1826.45C11.8266 1823.42 4.52392 1816.11 1.49748 1806.78C-3.97116e-07 1802.17 0 1796.46 0 1785.06L0 1437.85Z" fill="#121515"/>
<path d="M0 1902.84C0 1891.44 -3.97116e-07 1885.73 1.49748 1881.12C4.52392 1871.79 11.8266 1864.48 21.141 1861.45C25.7497 1859.95 31.4444 1859.95 42.8337 1859.95H164.706C176.095 1859.95 181.79 1859.95 186.399 1861.45C195.713 1864.48 203.016 1871.79 206.042 1881.12C207.54 1885.73 207.54 1891.44 207.54 1902.84L207.54 2250.05C207.54 2261.45 207.54 2267.15 206.042 2271.77C203.016 2281.09 195.713 2288.41 186.399 2291.44C181.79 2292.94 176.095 2292.94 164.706 2292.94H42.8337C31.4444 2292.94 25.7497 2292.94 21.141 2291.44C11.8266 2288.41 4.52392 2281.09 1.49748 2271.77C-3.97116e-07 2267.15 0 2261.45 0 2250.05L0 1902.84Z" fill="#121515"/>
<path d="M0 2367.83C0 2356.42 -3.97116e-07 2350.72 1.49748 2346.11C4.52392 2336.78 11.8266 2329.47 21.141 2326.44C25.7497 2324.94 31.4444 2324.94 42.8337 2324.94H164.706C176.095 2324.94 181.79 2324.94 186.399 2326.44C195.713 2329.47 203.016 2336.78 206.042 2346.11C207.54 2350.72 207.54 2356.42 207.54 2367.83L207.54 2715.03C207.54 2726.44 207.54 2732.14 206.042 2736.76C203.016 2746.08 195.713 2753.39 186.399 2756.42C181.79 2757.92 176.095 2757.92 164.706 2757.92H42.8337C31.4444 2757.92 25.7497 2757.92 21.141 2756.42C11.8266 2753.39 4.52392 2746.08 1.49748 2736.76C-3.97116e-07 2732.14 0 2726.44 0 2715.03L0 2367.83Z" fill="#121515"/>
<path d="M59.5795 278H41.1136L94.5227 132.545H112.705L166.114 278H147.648L104.182 155.557H103.045L59.5795 278ZM66.3977 221.182H140.83V236.807H66.3977V221.182Z" fill="white"/>
<path d="M53.6136 760V614.545H104.466C114.598 614.545 122.955 616.297 129.537 619.801C136.118 623.258 141.019 627.921 144.239 633.793C147.458 639.616 149.068 646.08 149.068 653.182C149.068 659.432 147.955 664.593 145.73 668.665C143.552 672.737 140.664 675.956 137.065 678.324C133.514 680.691 129.655 682.443 125.489 683.58V685C129.939 685.284 134.414 686.847 138.912 689.688C143.41 692.528 147.174 696.6 150.205 701.903C153.235 707.206 154.75 713.693 154.75 721.364C154.75 728.655 153.093 735.213 149.778 741.037C146.464 746.861 141.232 751.477 134.082 754.886C126.933 758.295 117.629 760 106.17 760H53.6136ZM71.2273 744.375H106.17C117.676 744.375 125.844 742.15 130.673 737.699C135.55 733.201 137.989 727.756 137.989 721.364C137.989 716.439 136.734 711.894 134.224 707.727C131.715 703.513 128.14 700.152 123.5 697.642C118.86 695.085 113.367 693.807 107.023 693.807H71.2273V744.375ZM71.2273 678.466H103.898C109.201 678.466 113.983 677.424 118.244 675.341C122.553 673.258 125.962 670.322 128.472 666.534C131.028 662.746 132.307 658.295 132.307 653.182C132.307 646.79 130.081 641.368 125.631 636.918C121.18 632.42 114.125 630.17 104.466 630.17H71.2273V678.466Z" fill="white"/>
<path d="M170.659 1135H153.045C152.004 1129.93 150.181 1125.48 147.577 1121.65C145.02 1117.81 141.895 1114.59 138.202 1111.99C134.556 1109.34 130.508 1107.35 126.057 1106.02C121.606 1104.7 116.966 1104.03 112.136 1104.03C103.33 1104.03 95.3513 1106.26 88.2017 1110.71C81.0994 1115.16 75.4413 1121.72 71.2273 1130.38C67.0606 1139.05 64.9773 1149.68 64.9773 1162.27C64.9773 1174.87 67.0606 1185.5 71.2273 1194.16C75.4413 1202.83 81.0994 1209.38 88.2017 1213.84C95.3513 1218.29 103.33 1220.51 112.136 1220.51C116.966 1220.51 121.606 1219.85 126.057 1218.52C130.508 1217.2 134.556 1215.23 138.202 1212.63C141.895 1209.98 145.02 1206.73 147.577 1202.9C150.181 1199.02 152.004 1194.56 153.045 1189.55H170.659C169.333 1196.98 166.919 1203.63 163.415 1209.5C159.911 1215.37 155.555 1220.37 150.347 1224.49C145.138 1228.56 139.291 1231.66 132.804 1233.79C126.365 1235.92 119.475 1236.99 112.136 1236.99C99.7311 1236.99 88.6989 1233.96 79.0398 1227.9C69.3807 1221.84 61.7813 1213.22 56.2415 1202.05C50.7017 1190.87 47.9318 1177.61 47.9318 1162.27C47.9318 1146.93 50.7017 1133.67 56.2415 1122.5C61.7813 1111.33 69.3807 1102.71 79.0398 1096.65C88.6989 1090.59 99.7311 1087.56 112.136 1087.56C119.475 1087.56 126.365 1088.62 132.804 1090.75C139.291 1092.88 145.138 1096.01 150.347 1100.13C155.555 1104.2 159.911 1109.17 163.415 1115.04C166.919 1120.87 169.333 1127.52 170.659 1135Z" fill="white"/>
<path d="M59.5795 1709H41.1136L94.5227 1563.55H112.705L166.114 1709H147.648L104.182 1586.56H103.045L59.5795 1709ZM66.3977 1652.18H140.83V1667.81H66.3977V1652.18Z" fill="white"/>
<path d="M53.6136 2187V2041.55H104.466C114.598 2041.55 122.955 2043.3 129.537 2046.8C136.118 2050.26 141.019 2054.92 144.239 2060.79C147.458 2066.62 149.068 2073.08 149.068 2080.18C149.068 2086.43 147.955 2091.59 145.73 2095.66C143.552 2099.74 140.664 2102.96 137.065 2105.32C133.514 2107.69 129.655 2109.44 125.489 2110.58V2112C129.939 2112.28 134.414 2113.85 138.912 2116.69C143.41 2119.53 147.174 2123.6 150.205 2128.9C153.235 2134.21 154.75 2140.69 154.75 2148.36C154.75 2155.66 153.093 2162.21 149.778 2168.04C146.464 2173.86 141.232 2178.48 134.082 2181.89C126.933 2185.3 117.629 2187 106.17 2187H53.6136ZM71.2273 2171.38H106.17C117.676 2171.38 125.844 2169.15 130.673 2164.7C135.55 2160.2 137.989 2154.76 137.989 2148.36C137.989 2143.44 136.734 2138.89 134.224 2134.73C131.715 2130.51 128.14 2127.15 123.5 2124.64C118.86 2122.09 113.367 2120.81 107.023 2120.81H71.2273V2171.38ZM71.2273 2105.47H103.898C109.201 2105.47 113.983 2104.42 118.244 2102.34C122.553 2100.26 125.962 2097.32 128.472 2093.53C131.028 2089.75 132.307 2085.3 132.307 2080.18C132.307 2073.79 130.081 2068.37 125.631 2063.92C121.18 2059.42 114.125 2057.17 104.466 2057.17H71.2273V2105.47Z" fill="white"/>
<path d="M170.659 2532H153.045C152.004 2526.93 150.181 2522.48 147.577 2518.65C145.02 2514.81 141.895 2511.59 138.202 2508.99C134.556 2506.34 130.508 2504.35 126.057 2503.02C121.606 2501.7 116.966 2501.03 112.136 2501.03C103.33 2501.03 95.3513 2503.26 88.2017 2507.71C81.0994 2512.16 75.4413 2518.72 71.2273 2527.38C67.0606 2536.05 64.9773 2546.68 64.9773 2559.27C64.9773 2571.87 67.0606 2582.5 71.2273 2591.16C75.4413 2599.83 81.0994 2606.38 88.2017 2610.84C95.3513 2615.29 103.33 2617.51 112.136 2617.51C116.966 2617.51 121.606 2616.85 126.057 2615.52C130.508 2614.2 134.556 2612.23 138.202 2609.63C141.895 2606.98 145.02 2603.73 147.577 2599.9C150.181 2596.02 152.004 2591.56 153.045 2586.55H170.659C169.333 2593.98 166.919 2600.63 163.415 2606.5C159.911 2612.37 155.555 2617.37 150.347 2621.49C145.138 2625.56 139.291 2628.66 132.804 2630.79C126.365 2632.92 119.475 2633.99 112.136 2633.99C99.7311 2633.99 88.6989 2630.96 79.0398 2624.9C69.3807 2618.84 61.7813 2610.22 56.2415 2599.05C50.7017 2587.87 47.9318 2574.61 47.9318 2559.27C47.9318 2543.93 50.7017 2530.67 56.2415 2519.5C61.7813 2508.33 69.3807 2499.71 79.0398 2493.65C88.6989 2487.59 99.7311 2484.56 112.136 2484.56C119.475 2484.56 126.365 2485.62 132.804 2487.75C139.291 2489.88 145.138 2493.01 150.347 2497.13C155.555 2501.2 159.911 2506.17 163.415 2512.04C166.919 2517.87 169.333 2524.52 170.659 2532Z" fill="white"/>
</svg>
