<svg width="216" height="439" viewBox="0 0 216 439" fill="none" xmlns="http://www.w3.org/2000/svg">
<path d="M214.168 122.543H214.933C215.356 122.543 215.698 122.887 215.698 123.309V169.263C215.698 169.686 215.356 170.029 214.933 170.029H214.168V122.543Z" fill="#213744"/>
<path d="M1.52979 180.241H0.764937C0.342452 180.241 0 179.898 0 179.475V150.882C0 150.459 0.342452 150.116 0.764937 150.116H1.52979V180.241Z" fill="#213744"/>
<path d="M1.52979 141.946H0.764937C0.342452 141.946 0 141.603 0 141.18V112.587C0 112.164 0.342452 111.821 0.764937 111.821H1.52979V141.946Z" fill="#213744"/>
<path d="M1.52979 98.5453H0.764937C0.342452 98.5453 0 98.203 0 97.7799V85.0144C0 84.5922 0.342452 84.249 0.764937 84.249H1.52979V98.5453Z" fill="#213744"/>
<path d="M1.5293 46.4645C1.5293 34.1096 1.5293 27.9322 3.15153 22.9329C6.43023 12.829 14.3414 4.90739 24.4321 1.62436C29.4248 1.78716e-06 35.594 0 47.9329 0H167.765C180.104 0 186.273 1.78716e-06 191.266 1.62436C201.356 4.90739 209.267 12.829 212.546 22.9329C214.168 27.9322 214.168 34.1096 214.168 46.4645V391.629C214.168 403.983 214.168 410.161 212.546 415.16C209.267 425.264 201.356 433.186 191.266 436.469C186.273 438.093 180.104 438.093 167.765 438.093H47.9329C35.594 438.093 29.4248 438.093 24.4321 436.469C14.3414 433.186 6.43023 425.264 3.15153 415.16C1.5293 410.161 1.5293 403.983 1.5293 391.629V46.4645Z" fill="#404040"/>
<path fill-rule="evenodd" clip-rule="evenodd" d="M167.968 1.02138H47.7287C35.54 1.02138 29.5668 1.02771 24.747 2.59577C14.9669 5.77769 7.29911 13.4556 4.12134 23.2487C2.55532 28.0748 2.54899 34.0557 2.54899 46.2607V391.833C2.54899 404.038 2.55532 410.019 4.12134 414.845C7.29911 424.638 14.9669 432.316 24.747 435.498C29.5668 437.066 35.54 437.072 47.7287 437.072H167.968C180.157 437.072 186.13 437.066 190.95 435.498C200.73 432.316 208.398 424.638 211.576 414.845C213.142 410.019 213.149 404.038 213.149 391.833V46.2607C213.149 34.0557 213.142 28.0748 211.576 23.2487C208.398 13.4556 200.73 5.77769 190.95 2.59577C186.13 1.02771 180.157 1.02138 167.968 1.02138ZM3.6364 23.0909C2.03906 28.0132 2.03906 34.0957 2.03906 46.2607V391.833C2.03906 403.998 2.03906 410.08 3.6364 415.003C6.86454 424.951 14.6541 432.751 24.5895 435.984C29.5054 437.583 35.5798 437.583 47.7287 437.583H167.968C180.118 437.583 186.192 437.583 191.108 435.984C201.043 432.751 208.833 424.951 212.061 415.003C213.658 410.08 213.658 403.998 213.658 391.833V46.2607C213.658 34.0957 213.658 28.0132 212.061 23.0909C208.833 13.1424 201.043 5.3426 191.108 2.1102C186.192 0.510744 180.118 0.510742 167.968 0.510742H47.7287C35.5798 0.510742 29.5054 0.510744 24.5895 2.1102C14.6541 5.3426 6.86454 13.1424 3.6364 23.0909Z" fill="#EFEFEF"/>
<path d="M4.08008 45.4432C4.08008 34.0386 4.08008 28.3368 5.57756 23.7216C8.604 14.3949 15.9067 7.08258 25.2211 4.05216C29.8298 2.55273 35.5245 2.55273 46.9138 2.55273H168.786C180.175 2.55273 185.87 2.55273 190.479 4.05216C199.793 7.08258 207.096 14.3949 210.123 23.7216C211.62 28.3368 211.62 34.0386 211.62 45.4432V392.65C211.62 404.054 211.62 409.756 210.123 414.371C207.096 423.698 199.793 431.01 190.479 434.04C185.87 435.54 180.175 435.54 168.786 435.54H46.9138C35.5245 435.54 29.8298 435.54 25.2211 434.04C15.9067 431.01 8.604 423.698 5.57756 414.371C4.08008 409.756 4.08008 404.054 4.08008 392.65V45.4432Z" fill="#121515"/>
<path d="M168.785 0H171.845V2.55302H168.785V0Z" fill="#36454C"/>
<path d="M211.619 43.9116H214.168V46.9749H211.619V43.9116Z" fill="#36454C"/>
<path d="M1.5293 43.9116H4.07895V46.9749H1.5293V43.9116Z" fill="#36454C"/>
<path d="M1.5293 391.118H4.07895V394.181H1.5293V391.118Z" fill="#36454C"/>
<path d="M211.619 391.118H214.168V394.181H211.619V391.118Z" fill="#36454C"/>
<path d="M43.8535 435.541H46.9133V438.093H43.8535V435.541Z" fill="#36454C"/>
<path fill-rule="evenodd" clip-rule="evenodd" d="M127.482 18.8921C129.453 18.8921 131.051 17.2919 131.051 15.3179C131.051 13.3439 129.453 11.7437 127.482 11.7437C125.51 11.7437 123.912 13.3439 123.912 15.3179C123.912 17.2919 125.51 18.8921 127.482 18.8921Z" fill="#262C2D"/>
<path fill-rule="evenodd" clip-rule="evenodd" d="M127.48 17.5522C128.713 17.5522 129.711 16.5521 129.711 15.3183C129.711 14.0846 128.713 13.0845 127.48 13.0845C126.249 13.0845 125.25 14.0846 125.25 15.3183C125.25 16.5521 126.249 17.5522 127.48 17.5522Z" fill="#121515"/>
<path opacity="0.4" fill-rule="evenodd" clip-rule="evenodd" d="M127.482 14.871C127.728 14.871 127.928 14.6711 127.928 14.4243C127.928 14.1775 127.728 13.9775 127.482 13.9775C127.235 13.9775 127.035 14.1775 127.035 14.4243C127.035 14.6711 127.235 14.871 127.482 14.871Z" fill="#636F73"/>
<path fill-rule="evenodd" clip-rule="evenodd" d="M96.8867 15.318C96.8867 14.4719 97.5721 13.7861 98.4183 13.7861H117.281C118.128 13.7861 118.814 14.4719 118.814 15.318C118.814 16.1639 118.128 16.8497 117.281 16.8497H98.4183C97.5721 16.8497 96.8867 16.1639 96.8867 15.318Z" fill="#262C2D"/>
</svg>
