<svg width="1276" height="867" viewBox="0 0 1276 867" fill="none" xmlns="http://www.w3.org/2000/svg">
<g clip-path="url(#clip0_1245_8510)">
<path fill-rule="evenodd" clip-rule="evenodd" d="M510.982 563.582C445.841 538.842 372.975 483.666 325.595 429.429C281.334 378.761 267.237 362.573 275.001 299C282.118 240.73 314.016 205.997 356.755 170.32C399.193 134.894 470.225 174.687 522.681 156.081C577.131 136.768 602.951 57.183 662.498 61.8752C720.66 66.4582 774.376 122.49 801.749 178.071C827.335 230.025 785.182 287.177 800.64 342.376C817.092 401.127 909.087 444.366 891.732 499.408C874.492 554.086 783.321 521.713 735.348 549.451C694.434 573.108 686.92 546.402 638.5 549.451C590.465 552.477 557.936 581.415 510.982 563.582Z" fill="#DFF5ED"/>
<path fill-rule="evenodd" clip-rule="evenodd" d="M1349.83 532.233C1287.24 543.778 1228.33 528.066 1166.74 512.756C1096.39 495.267 1003.97 498.067 972.898 438.531C941.814 378.98 1011.95 319.523 1032.98 256.502C1056.48 186.085 1034.44 95.4451 1101.39 53.4539C1172.02 9.16008 1276.06 17.6785 1349.62 57.9077C1415.62 94.0021 1405.56 179.399 1443 240.265C1486.37 310.762 1607 358.639 1582.28 436.104C1557.77 512.891 1436.65 516.218 1349.83 532.233Z" fill="#B3E5ED"/>
<path fill-rule="evenodd" clip-rule="evenodd" d="M38.0667 138.987C71.6444 125.385 98.1485 100.3 134.794 95.6271C182.814 89.5042 243.998 78.5535 275.924 108.659C307.842 138.755 271.174 188.021 275.752 228.543C279.987 266.025 312.095 299.91 301.699 336.791C290.622 376.088 257.109 409.313 218.082 433.133C178.224 457.461 127.483 483.56 81.2887 471.321C33.7538 458.727 20.9349 408.061 -7.02143 373.492C-23.7079 352.858 -29.7901 327.936 -49.6401 309.42C-81.7966 279.425 -158.988 273.864 -157.626 233.009C-156.336 194.32 -85.1865 187.777 -44.9416 168.441C-18.2798 155.631 10.4299 150.184 38.0667 138.987Z" fill="#E7D2D4"/>
</g>
<defs>
<clipPath id="clip0_1245_8510">
<rect width="1276" height="867" fill="white"/>
</clipPath>
</defs>
</svg>
