<svg width="1276" height="867" viewBox="0 0 1276 867" fill="none" xmlns="http://www.w3.org/2000/svg">
<g clip-path="url(#clip0_1245_8510)">
<path fill-rule="evenodd" clip-rule="evenodd" d="M50.441 621.135C-24.9658 671.235 -138.367 706.474 -231.5 715.5C-318.503 723.932 -283.231 715.701 -344.514 659.413C-400.686 607.82 -476.286 558.73 -481.647 486.597C-486.97 414.971 -391.206 370.033 -371.184 300.547C-350.4 228.418 -414.942 140.946 -364.944 81.5908C-316.11 23.6169 -216.289 9.25405 -136.869 22.3793C-62.6336 34.6478 -34.1439 122.406 35.8583 147.829C110.366 174.889 225.627 110.413 270.644 170.379C315.364 229.949 212.206 301.773 205.221 373.432C199.265 434.546 266.858 498.481 233.455 551.938C200.318 604.969 104.795 585.022 50.441 621.135Z" fill="#DFF5ED"/>
<path fill-rule="evenodd" clip-rule="evenodd" d="M831.84 675.164C778.962 705.32 712.206 705.438 643.133 706.746C564.233 708.241 477.049 737.616 409.101 683.172C341.135 628.713 370.682 545.441 350.672 472.407C328.312 390.801 249.197 300.694 286.829 236.909C326.525 169.627 432.13 148.969 528.651 170.743C615.251 190.279 660.113 283.979 735.041 338.02C821.825 400.611 968.54 417.076 994.223 506.527C1019.68 595.195 905.196 633.331 831.84 675.164Z" fill="#F4EC9A"/>
<path fill-rule="evenodd" clip-rule="evenodd" d="M1446.83 554.233C1384.24 565.778 1325.33 550.066 1263.74 534.756C1193.39 517.267 1100.97 520.067 1069.9 460.531C1038.81 400.98 1108.95 341.523 1129.98 278.502C1153.48 208.085 1131.44 117.445 1198.39 75.4539C1269.02 31.1601 1373.06 39.6785 1446.62 79.9077C1512.62 116.002 1502.56 201.399 1540 262.265C1583.37 332.762 1704 380.639 1679.28 458.104C1654.77 534.891 1533.65 538.218 1446.83 554.233Z" fill="#B3E5ED"/>
<path fill-rule="evenodd" clip-rule="evenodd" d="M832.637 479.528C796.725 493.645 768.221 520.07 729.139 524.642C677.929 530.634 612.645 541.623 578.973 509.207C545.311 476.801 584.907 424.735 580.478 381.527C576.381 341.56 542.558 305.117 554.037 265.951C566.268 224.221 602.327 189.204 644.155 164.265C686.873 138.794 741.203 111.556 790.267 125.101C840.755 139.038 853.849 193.141 883.243 230.267C900.787 252.427 906.991 279.037 927.928 298.976C961.845 331.277 1044 338.051 1042.1 381.548C1040.3 422.739 964.445 428.924 921.369 449.074C892.832 462.423 862.195 467.908 832.637 479.528Z" fill="#E7D2D4"/>
</g>
<defs>
<clipPath id="clip0_1245_8510">
<rect width="1276" height="867" fill="white"/>
</clipPath>
</defs>
</svg>
