<svg width="1276" height="1009" viewBox="0 0 1276 1009" fill="none" xmlns="http://www.w3.org/2000/svg">
<g clip-path="url(#clip0_1245_8510)">
<path fill-rule="evenodd" clip-rule="evenodd" d="M140.44 723.135C65.0337 773.235 42.9196 893.174 -50.2133 902.201C-137.216 910.633 -193.231 817.701 -254.515 761.413C-310.687 709.819 -386.287 660.73 -391.648 588.597C-396.971 516.971 -301.207 472.032 -281.184 402.547C-260.4 330.418 -324.942 242.945 -274.945 183.591C-226.111 125.617 -126.29 111.254 -46.8698 124.379C27.3658 136.648 55.8556 224.406 125.858 249.829C200.366 276.889 315.626 212.413 360.644 272.379C405.364 331.949 302.205 403.773 295.221 475.432C289.264 536.545 356.857 600.481 323.454 653.938C290.317 706.969 194.794 687.022 140.44 723.135Z" fill="#DFF5ED"/>
<path fill-rule="evenodd" clip-rule="evenodd" d="M729.078 792.477C668.53 798.759 607.39 771.957 543.651 745.311C470.842 714.874 379.215 706.613 338.979 629.398C298.731 552.163 359.339 487.867 370.466 412.963C382.9 329.267 346.819 214.914 406.97 171.711C470.42 126.139 575.392 149.803 654.947 208.637C726.324 261.424 729.609 365.259 776.396 444.918C830.586 537.181 958.216 611.391 945.662 703.605C933.217 795.012 813.073 783.763 729.078 792.477Z" fill="#F4EC9A"/>
<path fill-rule="evenodd" clip-rule="evenodd" d="M1227.83 551.233C1165.24 562.777 1106.33 547.065 1044.74 531.755C974.388 514.267 881.973 517.067 850.897 457.531C819.813 397.979 889.954 338.523 910.983 275.502C934.481 205.084 912.443 114.445 979.393 72.4535C1050.01 28.1596 1154.05 36.678 1227.62 76.9072C1293.62 113.002 1283.56 198.399 1321 259.265C1364.37 329.762 1485 377.639 1460.27 455.104C1435.77 531.891 1314.65 535.217 1227.83 551.233Z" fill="#B3E5ED"/>
<path fill-rule="evenodd" clip-rule="evenodd" d="M1127.62 751.225C1076.67 771.256 1036.23 808.748 980.776 815.236C908.115 823.738 815.486 839.329 767.711 793.336C719.95 747.356 776.131 673.482 769.847 612.175C764.034 555.468 716.044 503.761 732.331 448.19C749.684 388.98 800.847 339.297 860.195 303.911C920.807 267.771 997.892 229.124 1067.51 248.342C1139.14 268.118 1157.72 344.882 1199.43 397.559C1224.32 429.001 1233.12 466.757 1262.83 495.048C1310.95 540.878 1427.51 550.489 1424.82 612.205C1422.26 670.65 1314.64 679.425 1253.52 708.015C1213.03 726.956 1169.56 734.738 1127.62 751.225Z" fill="#E7D2D4"/>
</g>
<defs>
<clipPath id="clip0_1245_8510">
<rect width="1276" height="1009" fill="white"/>
</clipPath>
</defs>
</svg>
