<svg width="1361" height="766" viewBox="0 0 1361 766" fill="none" xmlns="http://www.w3.org/2000/svg">
<path fill-rule="evenodd" clip-rule="evenodd" d="M1108.58 161.771C1152.37 203.431 1173.16 257.475 1195.75 313.349C1221.55 377.173 1275.26 446.638 1246.83 503.732C1218.41 560.842 1133.58 540.102 1073.42 559.096C1006.19 580.318 948.82 647.818 879.2 619.787C805.763 590.22 754.272 505.507 744.153 426.527C735.075 355.665 806.321 315.761 832.213 253.031C862.201 180.375 831.707 60.9581 905.034 36.745C977.719 12.7438 1047.84 103.978 1108.58 161.771Z" fill="#B3E5ED"/>
<path fill-rule="evenodd" clip-rule="evenodd" d="M1057.13 383.349C1033.58 365.032 1008.06 353.106 987.263 331.318C960.014 302.769 923.775 266.949 922.157 241.933C920.539 216.924 962.872 230.852 980.118 220.873C996.07 211.642 996.185 185.847 1019.25 185.75C1043.82 185.647 1076.82 200.46 1108.06 220.336C1139.97 240.635 1178.24 267.337 1195.7 298.003C1213.66 329.558 1195.69 346.413 1193.15 369.767C1191.63 383.707 1182.67 391.86 1183.78 407.378C1185.56 432.516 1221.93 481.129 1201.52 487.502C1182.19 493.537 1143.03 450.789 1113.34 429.369C1093.67 415.179 1076.51 398.426 1057.13 383.349Z" fill="#E7D2D4"/>
<path fill-rule="evenodd" clip-rule="evenodd" d="M425.562 432.238C386.151 458.423 374.593 521.109 325.917 525.827C280.445 530.234 251.169 481.663 219.139 452.244C189.781 425.279 150.268 399.623 147.467 361.922C144.685 324.487 194.736 301 205.2 264.684C216.063 226.986 182.33 181.268 208.461 150.246C233.985 119.946 286.156 112.44 327.664 119.3C366.464 125.712 381.354 171.578 417.94 184.866C456.882 199.009 517.122 165.31 540.651 196.652C564.024 227.786 510.108 265.324 506.458 302.777C503.345 334.718 538.672 368.134 521.214 396.073C503.895 423.789 453.97 413.364 425.562 432.238Z" fill="#DFF5ED"/>
<path fill-rule="evenodd" clip-rule="evenodd" d="M219.976 420.557C193.441 425.452 168.462 418.79 142.349 412.299C112.521 404.884 73.3383 406.071 60.1626 380.828C46.9834 355.579 76.7223 330.37 85.6385 303.65C95.6012 273.794 86.2575 235.363 114.644 217.56C144.586 198.779 188.698 202.391 219.889 219.448C247.873 234.752 243.607 270.959 259.482 296.766C277.869 326.656 329.014 346.955 318.532 379.799C308.142 412.356 256.787 413.767 219.976 420.557Z" fill="#B3E5ED"/>
</svg>
