<svg width="1487" height="156" viewBox="0 0 1487 156" fill="none" xmlns="http://www.w3.org/2000/svg">
<path fill-rule="evenodd" clip-rule="evenodd" d="M432.972 32.3075C435.151 35.7046 432.396 40.1714 431.81 44.1723C431.307 47.6112 431.17 51.035 429.762 54.2177C428.241 57.6564 426.666 61.4807 423.357 63.2805C420.059 65.0743 415.906 64.7454 412.307 63.7124C409.103 62.7928 407.59 58.928 404.437 57.85C400.147 56.3831 394.835 59.0622 391.122 56.4695C387.324 53.8172 384.76 48.9027 384.994 44.2733C385.228 39.648 388.405 35.21 392.322 32.7096C395.968 30.3826 401.216 33.5788 405.008 31.4991C408.66 29.4965 408.312 22.4975 412.398 21.7007C416.174 20.9641 418.195 26.5045 421.605 28.2624C425.239 30.1361 430.768 28.8706 432.972 32.3075Z" fill="#FFF856"/>
<path d="M393.255 59.4974C392.152 57.0041 391.583 54.3075 391.584 51.5811C391.584 41.0836 399.829 32.5807 410 32.5807C420.172 32.5807 428.417 41.0864 428.417 51.5811C428.418 54.3075 427.848 57.0041 426.745 59.4974M410 22.6641V25.4974M438.334 50.9974H435.5M384.5 50.9974H381.667M430.032 30.9629L428.029 32.9661M391.972 32.9689L389.969 30.9657M417.132 71.7006C419.993 70.7741 421.144 68.1532 421.467 65.5182C421.563 64.7306 420.914 64.0761 420.121 64.0761H400.018C399.825 64.073 399.633 64.1111 399.455 64.1878C399.277 64.2645 399.117 64.3782 398.986 64.5212C398.856 64.6642 398.757 64.8334 398.696 65.0175C398.636 65.2016 398.615 65.3964 398.636 65.5891C398.953 68.2184 399.752 70.1394 402.784 71.6977M417.132 71.7006L402.784 71.6977M417.132 71.7006C416.789 77.2114 415.197 79.3931 410.02 79.3307C404.484 79.4327 403.209 76.7326 402.784 71.6977" stroke="#554F4F" stroke-width="4.25" stroke-linecap="round" stroke-linejoin="round"/>
<path d="M368.747 112.636V133H365.923L355.572 118.065H355.383V133H352.311V112.636H355.154L365.515 127.591H365.704V112.636H368.747ZM380.272 133.308C378.768 133.308 377.472 132.987 376.385 132.344C375.304 131.694 374.469 130.783 373.879 129.609C373.296 128.429 373.004 127.047 373.004 125.463C373.004 123.899 373.296 122.52 373.879 121.327C374.469 120.134 375.291 119.202 376.345 118.533C377.405 117.863 378.645 117.528 380.064 117.528C380.925 117.528 381.761 117.671 382.569 117.956C383.378 118.241 384.104 118.688 384.747 119.298C385.39 119.908 385.897 120.7 386.268 121.675C386.639 122.643 386.825 123.819 386.825 125.205V126.259H374.684V124.031H383.912C383.912 123.249 383.752 122.556 383.434 121.953C383.116 121.343 382.669 120.863 382.092 120.511C381.522 120.16 380.852 119.984 380.083 119.984C379.248 119.984 378.519 120.19 377.896 120.601C377.279 121.005 376.802 121.536 376.464 122.192C376.133 122.841 375.967 123.547 375.967 124.31V126.05C375.967 127.071 376.146 127.939 376.504 128.655C376.868 129.371 377.376 129.918 378.025 130.295C378.675 130.667 379.434 130.852 380.302 130.852C380.866 130.852 381.379 130.773 381.843 130.614C382.307 130.448 382.708 130.203 383.047 129.878C383.385 129.553 383.643 129.152 383.822 128.675L386.636 129.182C386.411 130.01 386.006 130.736 385.423 131.359C384.846 131.976 384.12 132.456 383.245 132.801C382.377 133.139 381.386 133.308 380.272 133.308ZM394.107 133L389.613 117.727H392.685L395.678 128.943H395.827L398.83 117.727H401.903L404.886 128.893H405.035L408.008 117.727H411.08L406.596 133H403.563L400.461 121.973H400.232L397.13 133H394.107ZM425.685 112.636V133H422.712V112.636H425.685ZM430.385 133V117.727H433.358V133H430.385ZM431.886 115.371C431.369 115.371 430.925 115.198 430.554 114.854C430.189 114.502 430.007 114.085 430.007 113.601C430.007 113.11 430.189 112.693 430.554 112.348C430.925 111.997 431.369 111.821 431.886 111.821C432.403 111.821 432.844 111.997 433.208 112.348C433.58 112.693 433.765 113.11 433.765 113.601C433.765 114.085 433.58 114.502 433.208 114.854C432.844 115.198 432.403 115.371 431.886 115.371ZM441.03 123.932V133H438.057V117.727H440.911V120.213H441.1C441.451 119.404 442.001 118.755 442.75 118.264C443.506 117.774 444.457 117.528 445.604 117.528C446.645 117.528 447.556 117.747 448.338 118.185C449.121 118.616 449.727 119.259 450.158 120.114C450.589 120.969 450.804 122.026 450.804 123.286V133H447.831V123.643C447.831 122.536 447.543 121.671 446.966 121.048C446.39 120.419 445.597 120.104 444.59 120.104C443.9 120.104 443.287 120.253 442.75 120.551C442.22 120.849 441.799 121.287 441.488 121.864C441.183 122.434 441.03 123.123 441.03 123.932ZM462.074 133.308C460.569 133.308 459.273 132.987 458.186 132.344C457.106 131.694 456.27 130.783 455.68 129.609C455.097 128.429 454.805 127.047 454.805 125.463C454.805 123.899 455.097 122.52 455.68 121.327C456.27 120.134 457.092 119.202 458.146 118.533C459.207 117.863 460.447 117.528 461.865 117.528C462.727 117.528 463.562 117.671 464.371 117.956C465.18 118.241 465.905 118.688 466.548 119.298C467.191 119.908 467.698 120.7 468.07 121.675C468.441 122.643 468.626 123.819 468.626 125.205V126.259H456.486V124.031H465.713C465.713 123.249 465.554 122.556 465.236 121.953C464.918 121.343 464.47 120.863 463.894 120.511C463.323 120.16 462.654 119.984 461.885 119.984C461.05 119.984 460.321 120.19 459.698 120.601C459.081 121.005 458.604 121.536 458.266 122.192C457.934 122.841 457.769 123.547 457.769 124.31V126.05C457.769 127.071 457.948 127.939 458.305 128.655C458.67 129.371 459.177 129.918 459.827 130.295C460.476 130.667 461.235 130.852 462.104 130.852C462.667 130.852 463.181 130.773 463.645 130.614C464.109 130.448 464.51 130.203 464.848 129.878C465.186 129.553 465.445 129.152 465.624 128.675L468.438 129.182C468.212 130.01 467.808 130.736 467.224 131.359C466.648 131.976 465.922 132.456 465.047 132.801C464.179 133.139 463.188 133.308 462.074 133.308Z" fill="#554F4F"/>
<path d="M540.5 75.5C539.119 75.5 538 76.6193 538 78C538 79.3807 539.119 80.5 540.5 80.5V78V75.5ZM568.268 79.7678C569.244 78.7915 569.244 77.2085 568.268 76.2322L552.358 60.3223C551.382 59.346 549.799 59.346 548.822 60.3223C547.846 61.2986 547.846 62.8816 548.822 63.8579L562.964 78L548.822 92.1421C547.846 93.1184 547.846 94.7014 548.822 95.6777C549.799 96.654 551.382 96.654 552.358 95.6777L568.268 79.7678ZM540.5 78V80.5H566.5V78V75.5H540.5V78Z" fill="#6BB3AF"/>
<path d="M602.912 112L597.265 91.6364H600.496L604.463 107.406H604.652L608.779 91.6364H611.981L616.107 107.416H616.296L620.253 91.6364H623.495L617.837 112H614.745L610.459 96.7472H610.3L606.015 112H602.912ZM626.758 112V96.7273H629.731V112H626.758ZM628.259 94.3707C627.742 94.3707 627.298 94.1984 626.927 93.8537C626.562 93.5024 626.38 93.0848 626.38 92.6009C626.38 92.1103 626.562 91.6927 626.927 91.348C627.298 90.9967 627.742 90.821 628.259 90.821C628.776 90.821 629.217 90.9967 629.581 91.348C629.953 91.6927 630.138 92.1103 630.138 92.6009C630.138 93.0848 629.953 93.5024 629.581 93.8537C629.217 94.1984 628.776 94.3707 628.259 94.3707ZM634.43 112V96.7273H637.304V99.1534H637.463C637.741 98.3314 638.232 97.6851 638.934 97.2145C639.644 96.7372 640.446 96.4986 641.341 96.4986C641.526 96.4986 641.745 96.5052 641.997 96.5185C642.256 96.5317 642.458 96.5483 642.604 96.5682V99.4119C642.484 99.3788 642.272 99.3423 641.967 99.3026C641.662 99.2562 641.357 99.233 641.052 99.233C640.35 99.233 639.723 99.3821 639.173 99.6804C638.63 99.9721 638.199 100.38 637.881 100.903C637.562 101.42 637.403 102.01 637.403 102.673V112H634.43ZM651.912 112.308C650.407 112.308 649.111 111.987 648.024 111.344C646.944 110.694 646.108 109.783 645.518 108.609C644.935 107.429 644.643 106.047 644.643 104.463C644.643 102.899 644.935 101.52 645.518 100.327C646.108 99.1335 646.93 98.2022 647.984 97.5327C649.045 96.8632 650.284 96.5284 651.703 96.5284C652.565 96.5284 653.4 96.6709 654.209 96.956C655.017 97.241 655.743 97.6884 656.386 98.2983C657.029 98.9081 657.536 99.7003 657.908 100.675C658.279 101.643 658.464 102.819 658.464 104.205V105.259H646.324V103.031H655.551C655.551 102.249 655.392 101.556 655.074 100.953C654.756 100.343 654.308 99.8627 653.731 99.5114C653.161 99.16 652.492 98.9844 651.723 98.9844C650.888 98.9844 650.159 99.1899 649.535 99.6009C648.919 100.005 648.442 100.536 648.104 101.192C647.772 101.841 647.606 102.547 647.606 103.31V105.05C647.606 106.071 647.785 106.939 648.143 107.655C648.508 108.371 649.015 108.918 649.665 109.295C650.314 109.667 651.073 109.852 651.942 109.852C652.505 109.852 653.019 109.773 653.483 109.614C653.947 109.448 654.348 109.203 654.686 108.878C655.024 108.553 655.283 108.152 655.462 107.675L658.275 108.182C658.05 109.01 657.646 109.736 657.062 110.359C656.486 110.976 655.76 111.456 654.885 111.801C654.016 112.139 653.025 112.308 651.912 112.308ZM669.731 96.7273V99.1136H661.101V96.7273H669.731ZM663.467 112V94.9574C663.467 94.0028 663.676 93.2107 664.094 92.581C664.511 91.9446 665.065 91.4706 665.754 91.1591C666.444 90.8409 667.193 90.6818 668.001 90.6818C668.598 90.6818 669.108 90.7315 669.533 90.831C669.957 90.9238 670.272 91.0099 670.477 91.0895L669.781 93.4957C669.642 93.456 669.463 93.4096 669.244 93.3565C669.026 93.2969 668.76 93.267 668.449 93.267C667.726 93.267 667.209 93.446 666.898 93.804C666.593 94.1619 666.44 94.679 666.44 95.3551V112H663.467ZM673.499 112V96.7273H676.373V99.1534H676.532C676.81 98.3314 677.301 97.6851 678.003 97.2145C678.713 96.7372 679.515 96.4986 680.409 96.4986C680.595 96.4986 680.814 96.5052 681.066 96.5185C681.324 96.5317 681.526 96.5483 681.672 96.5682V99.4119C681.553 99.3788 681.341 99.3423 681.036 99.3026C680.731 99.2562 680.426 99.233 680.121 99.233C679.418 99.233 678.792 99.3821 678.242 99.6804C677.698 99.9721 677.267 100.38 676.949 100.903C676.631 101.42 676.472 102.01 676.472 102.673V112H673.499ZM689.253 112.338C688.285 112.338 687.41 112.159 686.628 111.801C685.846 111.437 685.226 110.91 684.769 110.22C684.318 109.531 684.092 108.686 684.092 107.685C684.092 106.823 684.258 106.114 684.59 105.557C684.921 105 685.368 104.559 685.932 104.234C686.495 103.91 687.125 103.664 687.821 103.499C688.517 103.333 689.226 103.207 689.949 103.121C690.864 103.015 691.606 102.929 692.176 102.862C692.746 102.789 693.161 102.673 693.419 102.514C693.678 102.355 693.807 102.097 693.807 101.739V101.669C693.807 100.801 693.562 100.128 693.071 99.6506C692.587 99.1733 691.865 98.9347 690.904 98.9347C689.903 98.9347 689.114 99.1567 688.537 99.6009C687.967 100.038 687.573 100.526 687.354 101.062L684.56 100.426C684.891 99.4981 685.375 98.7491 686.011 98.179C686.654 97.6023 687.394 97.1847 688.229 96.9261C689.064 96.661 689.942 96.5284 690.864 96.5284C691.474 96.5284 692.12 96.6013 692.803 96.7472C693.492 96.8864 694.135 97.1449 694.732 97.5227C695.335 97.9006 695.829 98.4408 696.213 99.1435C696.598 99.8395 696.79 100.744 696.79 101.858V112H693.886V109.912H693.767C693.575 110.296 693.287 110.674 692.902 111.045C692.518 111.417 692.024 111.725 691.421 111.97C690.817 112.215 690.095 112.338 689.253 112.338ZM689.899 109.952C690.721 109.952 691.424 109.789 692.007 109.464C692.597 109.14 693.045 108.715 693.35 108.192C693.661 107.661 693.817 107.095 693.817 106.491V104.523C693.711 104.629 693.505 104.728 693.2 104.821C692.902 104.907 692.561 104.983 692.176 105.05C691.792 105.109 691.417 105.166 691.053 105.219C690.688 105.265 690.383 105.305 690.138 105.338C689.561 105.411 689.034 105.534 688.557 105.706C688.086 105.878 687.708 106.127 687.423 106.452C687.145 106.77 687.006 107.194 687.006 107.724C687.006 108.46 687.278 109.017 687.821 109.395C688.365 109.766 689.057 109.952 689.899 109.952ZM701.45 112V96.7273H704.303V99.2131H704.492C704.811 98.3712 705.331 97.715 706.053 97.2443C706.776 96.767 707.641 96.5284 708.649 96.5284C709.669 96.5284 710.525 96.767 711.214 97.2443C711.91 97.7216 712.424 98.3778 712.755 99.2131H712.914C713.279 98.3977 713.859 97.7481 714.654 97.2642C715.45 96.7737 716.398 96.5284 717.498 96.5284C718.883 96.5284 720.014 96.9626 720.889 97.831C721.77 98.6993 722.211 100.009 722.211 101.759V112H719.238V102.037C719.238 101.003 718.956 100.254 718.393 99.7898C717.829 99.3258 717.157 99.0938 716.374 99.0938C715.407 99.0938 714.654 99.392 714.117 99.9886C713.58 100.579 713.312 101.338 713.312 102.266V112H710.349V101.848C710.349 101.019 710.09 100.353 709.573 99.8494C709.056 99.3456 708.383 99.0938 707.555 99.0938C706.991 99.0938 706.471 99.2429 705.994 99.5412C705.523 99.8329 705.142 100.241 704.85 100.764C704.565 101.288 704.423 101.894 704.423 102.584V112H701.45ZM733.478 112.308C731.974 112.308 730.678 111.987 729.59 111.344C728.51 110.694 727.675 109.783 727.085 108.609C726.501 107.429 726.21 106.047 726.21 104.463C726.21 102.899 726.501 101.52 727.085 100.327C727.675 99.1335 728.497 98.2022 729.551 97.5327C730.611 96.8632 731.851 96.5284 733.269 96.5284C734.131 96.5284 734.966 96.6709 735.775 96.956C736.584 97.241 737.31 97.6884 737.953 98.2983C738.596 98.9081 739.103 99.7003 739.474 100.675C739.845 101.643 740.031 102.819 740.031 104.205V105.259H727.89V103.031H737.117C737.117 102.249 736.958 101.556 736.64 100.953C736.322 100.343 735.875 99.8627 735.298 99.5114C734.728 99.16 734.058 98.9844 733.289 98.9844C732.454 98.9844 731.725 99.1899 731.102 99.6009C730.485 100.005 730.008 100.536 729.67 101.192C729.339 101.841 729.173 102.547 729.173 103.31V105.05C729.173 106.071 729.352 106.939 729.71 107.655C730.074 108.371 730.581 108.918 731.231 109.295C731.881 109.667 732.64 109.852 733.508 109.852C734.072 109.852 734.585 109.773 735.049 109.614C735.513 109.448 735.914 109.203 736.252 108.878C736.59 108.553 736.849 108.152 737.028 107.675L739.842 108.182C739.617 109.01 739.212 109.736 738.629 110.359C738.052 110.976 737.326 111.456 736.451 111.801C735.583 112.139 734.592 112.308 733.478 112.308ZM751.785 90.6818L745.223 115.062H742.568L749.13 90.6818H751.785ZM644.242 148V127.636H656.87V130.281H647.314V136.486H655.965V139.121H647.314V148H644.242ZM664.083 127.636V148H661.11V127.636H664.083ZM675.215 148.308C673.784 148.308 672.534 147.98 671.467 147.324C670.4 146.668 669.571 145.75 668.981 144.57C668.391 143.39 668.096 142.011 668.096 140.433C668.096 138.849 668.391 137.464 668.981 136.277C669.571 135.09 670.4 134.169 671.467 133.513C672.534 132.857 673.784 132.528 675.215 132.528C676.647 132.528 677.897 132.857 678.964 133.513C680.031 134.169 680.86 135.09 681.45 136.277C682.04 137.464 682.335 138.849 682.335 140.433C682.335 142.011 682.04 143.39 681.45 144.57C680.86 145.75 680.031 146.668 678.964 147.324C677.897 147.98 676.647 148.308 675.215 148.308ZM675.225 145.812C676.153 145.812 676.922 145.567 677.532 145.077C678.142 144.586 678.593 143.933 678.884 143.118C679.183 142.303 679.332 141.404 679.332 140.423C679.332 139.449 679.183 138.554 678.884 137.739C678.593 136.917 678.142 136.257 677.532 135.76C676.922 135.263 676.153 135.014 675.225 135.014C674.291 135.014 673.515 135.263 672.899 135.76C672.289 136.257 671.835 136.917 671.536 137.739C671.245 138.554 671.099 139.449 671.099 140.423C671.099 141.404 671.245 142.303 671.536 143.118C671.835 143.933 672.289 144.586 672.899 145.077C673.515 145.567 674.291 145.812 675.225 145.812ZM689.2 148L684.705 132.727H687.778L690.771 143.943H690.92L693.923 132.727H696.995L699.978 143.893H700.127L703.1 132.727H706.173L701.688 148H698.655L695.553 136.973H695.325L692.222 148H689.2Z" fill="#554F4F"/>
<g clip-path="url(#clip0_3130_5307)">
<mask id="mask0_3130_5307" style="mask-type:luminance" maskUnits="userSpaceOnUse" x="642" y="0" width="65" height="64">
<path d="M706.5 0H642.5V64H706.5V0Z" fill="white"/>
</mask>
<g mask="url(#mask0_3130_5307)">
<path d="M655.833 42.0002C654.74 42.0002 653.833 41.0935 653.833 40.0002V21.3335C653.833 20.2402 654.74 19.3335 655.833 19.3335C656.927 19.3335 657.833 20.2402 657.833 21.3335V40.0002C657.833 41.0935 656.927 42.0002 655.833 42.0002Z" fill="#554F4F"/>
<path d="M656.5 60.6668C650.606 60.6668 645.833 55.8935 645.833 50.0002C645.833 44.1068 650.606 39.3335 656.5 39.3335C662.393 39.3335 667.166 44.1068 667.166 50.0002C667.166 55.8935 662.393 60.6668 656.5 60.6668ZM656.5 43.3335C652.82 43.3335 649.833 46.3202 649.833 50.0002C649.833 53.6802 652.82 56.6668 656.5 56.6668C660.18 56.6668 663.166 53.6802 663.166 50.0002C663.166 46.3202 660.18 43.3335 656.5 43.3335Z" fill="#554F4F"/>
<path d="M655.833 23.3335C650.313 23.3335 645.833 18.8535 645.833 13.3335C645.833 7.8135 650.313 3.3335 655.833 3.3335C661.353 3.3335 665.833 7.8135 665.833 13.3335C665.833 18.8535 661.353 23.3335 655.833 23.3335ZM655.833 7.3335C652.526 7.3335 649.833 10.0268 649.833 13.3335C649.833 16.6402 652.526 19.3335 655.833 19.3335C659.14 19.3335 661.833 16.6402 661.833 13.3335C661.833 10.0268 659.14 7.3335 655.833 7.3335Z" fill="#554F4F"/>
<path d="M693.167 23.3335C687.647 23.3335 683.167 18.8535 683.167 13.3335C683.167 7.8135 687.647 3.3335 693.167 3.3335C698.687 3.3335 703.167 7.8135 703.167 13.3335C703.167 18.8535 698.687 23.3335 693.167 23.3335ZM693.167 7.3335C689.86 7.3335 687.167 10.0268 687.167 13.3335C687.167 16.6402 689.86 19.3335 693.167 19.3335C696.474 19.3335 699.167 16.6402 699.167 13.3335C699.167 10.0268 696.474 7.3335 693.167 7.3335Z" fill="#554F4F"/>
<path d="M656.182 42.0011C656.022 42.0011 655.862 41.9745 655.676 41.9478C654.609 41.6811 653.969 40.5878 654.236 39.5211C655.702 33.8678 660.796 29.9211 666.636 29.9211C666.662 29.9211 666.662 29.9211 666.689 29.9211L675.836 29.9478C675.862 29.9478 675.862 29.9478 675.889 29.9478C681.809 29.9478 687.116 26.1877 689.062 20.5877C689.436 19.5477 690.556 18.9877 691.596 19.361C692.636 19.7344 693.196 20.8543 692.822 21.8943C690.316 29.1209 683.409 33.8678 675.809 33.9478L666.662 33.9211H666.636C662.609 33.9211 659.116 36.6411 658.102 40.5345C657.889 41.4145 657.062 42.0011 656.182 42.0011Z" fill="#554F4F"/>
</g>
</g>
<path d="M782.5 75.5C781.119 75.5 780 76.6193 780 78C780 79.3807 781.119 80.5 782.5 80.5V78V75.5ZM810.268 79.7678C811.244 78.7915 811.244 77.2085 810.268 76.2322L794.358 60.3223C793.382 59.346 791.799 59.346 790.822 60.3223C789.846 61.2986 789.846 62.8816 790.822 63.8579L804.964 78L790.822 92.1421C789.846 93.1184 789.846 94.7014 790.822 95.6777C791.799 96.654 793.382 96.654 794.358 95.6777L810.268 79.7678ZM782.5 78V80.5H808.5V78V75.5H782.5V78Z" fill="#6BB3AF"/>
<path d="M840.888 130V109.636H848.147C849.731 109.636 851.044 109.925 852.084 110.501C853.125 111.078 853.904 111.867 854.421 112.868C854.938 113.862 855.197 114.982 855.197 116.229C855.197 117.482 854.935 118.608 854.411 119.609C853.894 120.604 853.112 121.393 852.065 121.976C851.024 122.553 849.715 122.841 848.137 122.841H843.145V120.236H847.859C848.86 120.236 849.672 120.063 850.295 119.719C850.918 119.367 851.375 118.89 851.667 118.287C851.958 117.684 852.104 116.998 852.104 116.229C852.104 115.46 851.958 114.777 851.667 114.18C851.375 113.584 850.914 113.116 850.285 112.778C849.662 112.44 848.84 112.271 847.819 112.271H843.961V130H840.888ZM859.26 130V114.727H862.133V117.153H862.293C862.571 116.331 863.062 115.685 863.764 115.214C864.473 114.737 865.276 114.499 866.17 114.499C866.356 114.499 866.575 114.505 866.827 114.518C867.085 114.532 867.287 114.548 867.433 114.568V117.412C867.314 117.379 867.102 117.342 866.797 117.303C866.492 117.256 866.187 117.233 865.882 117.233C865.179 117.233 864.553 117.382 864.003 117.68C863.459 117.972 863.028 118.38 862.71 118.903C862.392 119.42 862.233 120.01 862.233 120.673V130H859.26ZM876.592 130.308C875.161 130.308 873.911 129.98 872.844 129.324C871.777 128.668 870.948 127.75 870.358 126.57C869.768 125.39 869.473 124.011 869.473 122.433C869.473 120.849 869.768 119.464 870.358 118.277C870.948 117.09 871.777 116.169 872.844 115.513C873.911 114.857 875.161 114.528 876.592 114.528C878.024 114.528 879.274 114.857 880.341 115.513C881.408 116.169 882.237 117.09 882.827 118.277C883.417 119.464 883.712 120.849 883.712 122.433C883.712 124.011 883.417 125.39 882.827 126.57C882.237 127.75 881.408 128.668 880.341 129.324C879.274 129.98 878.024 130.308 876.592 130.308ZM876.602 127.812C877.53 127.812 878.299 127.567 878.909 127.077C879.519 126.586 879.97 125.933 880.261 125.118C880.56 124.303 880.709 123.404 880.709 122.423C880.709 121.449 880.56 120.554 880.261 119.739C879.97 118.917 879.519 118.257 878.909 117.76C878.299 117.263 877.53 117.014 876.602 117.014C875.668 117.014 874.892 117.263 874.276 117.76C873.666 118.257 873.212 118.917 872.913 119.739C872.622 120.554 872.476 121.449 872.476 122.423C872.476 123.404 872.622 124.303 872.913 125.118C873.212 125.933 873.666 126.586 874.276 127.077C874.892 127.567 875.668 127.812 876.602 127.812ZM894.859 114.727V117.114H886.517V114.727H894.859ZM888.754 111.068H891.727V125.516C891.727 126.092 891.814 126.527 891.986 126.818C892.158 127.103 892.38 127.299 892.652 127.405C892.93 127.504 893.232 127.554 893.557 127.554C893.796 127.554 894.004 127.537 894.183 127.504C894.362 127.471 894.502 127.445 894.601 127.425L895.138 129.881C894.966 129.947 894.72 130.013 894.402 130.08C894.084 130.152 893.686 130.192 893.209 130.199C892.427 130.212 891.698 130.073 891.021 129.781C890.345 129.49 889.798 129.039 889.381 128.429C888.963 127.819 888.754 127.054 888.754 126.132V111.068ZM905.117 130.308C903.686 130.308 902.436 129.98 901.369 129.324C900.302 128.668 899.473 127.75 898.883 126.57C898.293 125.39 897.998 124.011 897.998 122.433C897.998 120.849 898.293 119.464 898.883 118.277C899.473 117.09 900.302 116.169 901.369 115.513C902.436 114.857 903.686 114.528 905.117 114.528C906.549 114.528 907.799 114.857 908.866 115.513C909.933 116.169 910.762 117.09 911.352 118.277C911.942 119.464 912.237 120.849 912.237 122.433C912.237 124.011 911.942 125.39 911.352 126.57C910.762 127.75 909.933 128.668 908.866 129.324C907.799 129.98 906.549 130.308 905.117 130.308ZM905.127 127.812C906.055 127.812 906.824 127.567 907.434 127.077C908.044 126.586 908.495 125.933 908.786 125.118C909.085 124.303 909.234 123.404 909.234 122.423C909.234 121.449 909.085 120.554 908.786 119.739C908.495 118.917 908.044 118.257 907.434 117.76C906.824 117.263 906.055 117.014 905.127 117.014C904.193 117.014 903.417 117.263 902.801 117.76C902.191 118.257 901.737 118.917 901.438 119.739C901.147 120.554 901.001 121.449 901.001 122.423C901.001 123.404 901.147 124.303 901.438 125.118C901.737 125.933 902.191 126.586 902.801 127.077C903.417 127.567 904.193 127.812 905.127 127.812ZM923.384 114.727V117.114H915.042V114.727H923.384ZM917.279 111.068H920.252V125.516C920.252 126.092 920.339 126.527 920.511 126.818C920.683 127.103 920.905 127.299 921.177 127.405C921.456 127.504 921.757 127.554 922.082 127.554C922.321 127.554 922.529 127.537 922.708 127.504C922.887 127.471 923.027 127.445 923.126 127.425L923.663 129.881C923.491 129.947 923.245 130.013 922.927 130.08C922.609 130.152 922.211 130.192 921.734 130.199C920.952 130.212 920.223 130.073 919.546 129.781C918.87 129.49 918.323 129.039 917.906 128.429C917.488 127.819 917.279 127.054 917.279 126.132V111.068ZM929.252 135.727C928.808 135.727 928.404 135.691 928.039 135.618C927.675 135.552 927.403 135.479 927.224 135.399L927.94 132.963C928.484 133.109 928.967 133.172 929.392 133.152C929.816 133.132 930.19 132.973 930.515 132.675C930.847 132.376 931.138 131.889 931.39 131.213L931.758 130.199L926.17 114.727H929.352L933.22 126.58H933.379L937.247 114.727H940.439L934.144 132.038C933.853 132.834 933.482 133.507 933.031 134.057C932.58 134.614 932.043 135.031 931.42 135.31C930.797 135.588 930.074 135.727 929.252 135.727ZM943.933 135.727V114.727H946.836V117.203H947.085C947.257 116.885 947.505 116.517 947.83 116.099C948.155 115.682 948.606 115.317 949.183 115.006C949.759 114.688 950.522 114.528 951.469 114.528C952.702 114.528 953.803 114.84 954.771 115.463C955.738 116.086 956.497 116.984 957.048 118.158C957.604 119.331 957.883 120.743 957.883 122.393C957.883 124.044 957.608 125.459 957.058 126.639C956.507 127.812 955.752 128.717 954.791 129.354C953.829 129.983 952.732 130.298 951.499 130.298C950.571 130.298 949.812 130.143 949.222 129.831C948.639 129.519 948.182 129.155 947.85 128.737C947.519 128.32 947.264 127.948 947.085 127.624H946.906V135.727H943.933ZM946.846 122.364C946.846 123.437 947.002 124.379 947.313 125.188C947.625 125.996 948.076 126.629 948.666 127.087C949.255 127.537 949.978 127.763 950.833 127.763C951.721 127.763 952.464 127.527 953.06 127.057C953.657 126.58 954.108 125.933 954.413 125.118C954.724 124.303 954.88 123.384 954.88 122.364C954.88 121.356 954.728 120.451 954.423 119.649C954.124 118.847 953.674 118.214 953.07 117.75C952.474 117.286 951.728 117.054 950.833 117.054C949.971 117.054 949.242 117.276 948.646 117.72C948.056 118.164 947.608 118.784 947.303 119.58C946.998 120.375 946.846 121.303 946.846 122.364ZM968.496 130.308C966.991 130.308 965.696 129.987 964.608 129.344C963.528 128.694 962.693 127.783 962.103 126.609C961.519 125.429 961.228 124.047 961.228 122.463C961.228 120.899 961.519 119.52 962.103 118.327C962.693 117.134 963.515 116.202 964.569 115.533C965.629 114.863 966.869 114.528 968.287 114.528C969.149 114.528 969.984 114.671 970.793 114.956C971.602 115.241 972.328 115.688 972.971 116.298C973.614 116.908 974.121 117.7 974.492 118.675C974.863 119.643 975.049 120.819 975.049 122.205V123.259H962.908V121.031H972.135C972.135 120.249 971.976 119.556 971.658 118.953C971.34 118.343 970.893 117.863 970.316 117.511C969.746 117.16 969.076 116.984 968.307 116.984C967.472 116.984 966.743 117.19 966.12 117.601C965.503 118.005 965.026 118.536 964.688 119.192C964.357 119.841 964.191 120.547 964.191 121.31V123.05C964.191 124.071 964.37 124.939 964.728 125.655C965.092 126.371 965.599 126.918 966.249 127.295C966.899 127.667 967.658 127.852 968.526 127.852C969.089 127.852 969.603 127.773 970.067 127.614C970.531 127.448 970.932 127.203 971.27 126.878C971.608 126.553 971.867 126.152 972.046 125.675L974.86 126.182C974.634 127.01 974.23 127.736 973.647 128.359C973.07 128.976 972.344 129.456 971.469 129.801C970.601 130.139 969.61 130.308 968.496 130.308Z" fill="#554F4F"/>
<path d="M952.273 23.2783C953.881 23.2783 955.422 23.9039 956.559 25.0176C957.696 26.1312 958.335 27.6416 958.335 29.2165V70.1237C958.335 71.6986 957.696 73.209 956.559 74.3226C955.422 75.4362 953.881 76.0618 952.273 76.0618H932.067C930.459 76.0618 928.917 75.4362 927.78 74.3226C926.644 73.209 926.005 71.6986 926.005 70.1237V29.2165C926.005 27.6416 926.644 26.1312 927.78 25.0176C928.917 23.9039 930.459 23.2783 932.067 23.2783H952.273ZM952.273 27.2371H932.067C931.531 27.2371 931.017 27.4456 930.638 27.8168C930.259 28.188 930.046 28.6915 930.046 29.2165V70.1237C930.046 71.2163 930.951 72.1031 932.067 72.1031H952.273C952.809 72.1031 953.323 71.8945 953.702 71.5233C954.081 71.1521 954.294 70.6486 954.294 70.1237V29.2165C954.294 28.6915 954.081 28.188 953.702 27.8168C953.323 27.4456 952.809 27.2371 952.273 27.2371ZM945.535 64.1855C946.071 64.1848 946.585 64.3927 946.964 64.7634C947.344 65.1341 947.557 65.6373 947.558 66.1623C947.559 66.6872 947.347 67.191 946.968 67.5627C946.59 67.9344 946.076 68.1436 945.54 68.1443L938.805 68.1549C938.269 68.1556 937.755 67.9477 937.375 67.577C936.996 67.2063 936.782 66.7031 936.782 66.1781C936.781 65.6531 936.993 65.1494 937.371 64.7777C937.75 64.406 938.264 64.1968 938.799 64.1961L945.535 64.1855Z" fill="#554F4F"/>
<path d="M886.833 71.3335C888.306 71.3335 889.5 72.5274 889.5 74.0002C889.5 75.4729 888.306 76.6668 886.833 76.6668H860.167C858.694 76.6668 857.5 75.4729 857.5 74.0002C857.5 72.5274 858.694 71.3335 860.167 71.3335H886.833Z" fill="#554F4F"/>
<path d="M870.481 72.7421V64.6918C870.481 63.5803 871.833 62.6792 873.5 62.6792C875.167 62.6792 876.519 63.5803 876.519 64.6918V72.7421C876.519 73.8536 875.167 74.7547 873.5 74.7547C871.833 74.7547 870.481 73.8536 870.481 72.7421Z" fill="#554F4F"/>
<path d="M897.502 28.6665C898.974 28.6665 900.168 29.8604 900.168 31.3332V63.3332C900.168 64.8059 898.974 65.9998 897.502 65.9998H849.502C848.029 65.9998 846.835 64.8059 846.835 63.3332V31.3332C846.835 29.8604 848.029 28.6665 849.502 28.6665H897.502ZM850.557 62.0753H896.447V32.9222H874.104H850.557V62.0753Z" fill="#554F4F"/>
<path d="M1006.5 75.5C1005.12 75.5 1004 76.6193 1004 78C1004 79.3807 1005.12 80.5 1006.5 80.5V78V75.5ZM1034.27 79.7678C1035.24 78.7915 1035.24 77.2085 1034.27 76.2322L1018.36 60.3223C1017.38 59.346 1015.8 59.346 1014.82 60.3223C1013.85 61.2986 1013.85 62.8816 1014.82 63.8579L1028.96 78L1014.82 92.1421C1013.85 93.1184 1013.85 94.7014 1014.82 95.6777C1015.8 96.654 1017.38 96.654 1018.36 95.6777L1034.27 79.7678ZM1006.5 78V80.5H1032.5V78V75.5H1006.5V78Z" fill="#6BB3AF"/>
<path d="M1082.22 130V109.636H1089.48C1091.06 109.636 1092.38 109.925 1093.42 110.501C1094.46 111.078 1095.24 111.867 1095.75 112.868C1096.27 113.862 1096.53 114.982 1096.53 116.229C1096.53 117.482 1096.27 118.608 1095.74 119.609C1095.23 120.604 1094.44 121.393 1093.4 121.976C1092.36 122.553 1091.05 122.841 1089.47 122.841H1084.48V120.236H1089.19C1090.19 120.236 1091 120.063 1091.63 119.719C1092.25 119.367 1092.71 118.89 1093 118.287C1093.29 117.684 1093.44 116.998 1093.44 116.229C1093.44 115.46 1093.29 114.777 1093 114.18C1092.71 113.584 1092.25 113.116 1091.62 112.778C1090.99 112.44 1090.17 112.271 1089.15 112.271H1085.29V130H1082.22ZM1100.59 130V114.727H1103.47V117.153H1103.62C1103.9 116.331 1104.39 115.685 1105.1 115.214C1105.81 114.737 1106.61 114.499 1107.5 114.499C1107.69 114.499 1107.91 114.505 1108.16 114.518C1108.42 114.532 1108.62 114.548 1108.76 114.568V117.412C1108.65 117.379 1108.43 117.342 1108.13 117.303C1107.82 117.256 1107.52 117.233 1107.21 117.233C1106.51 117.233 1105.88 117.382 1105.33 117.68C1104.79 117.972 1104.36 118.38 1104.04 118.903C1103.72 119.42 1103.56 120.01 1103.56 120.673V130H1100.59ZM1117.92 130.308C1116.49 130.308 1115.24 129.98 1114.18 129.324C1113.11 128.668 1112.28 127.75 1111.69 126.57C1111.1 125.39 1110.8 124.011 1110.8 122.433C1110.8 120.849 1111.1 119.464 1111.69 118.277C1112.28 117.09 1113.11 116.169 1114.18 115.513C1115.24 114.857 1116.49 114.528 1117.92 114.528C1119.36 114.528 1120.61 114.857 1121.67 115.513C1122.74 116.169 1123.57 117.09 1124.16 118.277C1124.75 119.464 1125.04 120.849 1125.04 122.433C1125.04 124.011 1124.75 125.39 1124.16 126.57C1123.57 127.75 1122.74 128.668 1121.67 129.324C1120.61 129.98 1119.36 130.308 1117.92 130.308ZM1117.93 127.812C1118.86 127.812 1119.63 127.567 1120.24 127.077C1120.85 126.586 1121.3 125.933 1121.59 125.118C1121.89 124.303 1122.04 123.404 1122.04 122.423C1122.04 121.449 1121.89 120.554 1121.59 119.739C1121.3 118.917 1120.85 118.257 1120.24 117.76C1119.63 117.263 1118.86 117.014 1117.93 117.014C1117 117.014 1116.22 117.263 1115.61 117.76C1115 118.257 1114.54 118.917 1114.25 119.739C1113.95 120.554 1113.81 121.449 1113.81 122.423C1113.81 123.404 1113.95 124.303 1114.25 125.118C1114.54 125.933 1115 126.586 1115.61 127.077C1116.22 127.567 1117 127.812 1117.93 127.812ZM1141.61 114.727L1136.07 130H1132.89L1127.34 114.727H1130.53L1134.4 126.48H1134.56L1138.42 114.727H1141.61ZM1151.16 130.308C1149.66 130.308 1148.36 129.987 1147.28 129.344C1146.2 128.694 1145.36 127.783 1144.77 126.609C1144.19 125.429 1143.9 124.047 1143.9 122.463C1143.9 120.899 1144.19 119.52 1144.77 118.327C1145.36 117.134 1146.18 116.202 1147.24 115.533C1148.3 114.863 1149.54 114.528 1150.96 114.528C1151.82 114.528 1152.65 114.671 1153.46 114.956C1154.27 115.241 1155 115.688 1155.64 116.298C1156.28 116.908 1156.79 117.7 1157.16 118.675C1157.53 119.643 1157.72 120.819 1157.72 122.205V123.259H1145.58V121.031H1154.8C1154.8 120.249 1154.64 119.556 1154.33 118.953C1154.01 118.343 1153.56 117.863 1152.98 117.511C1152.41 117.16 1151.74 116.984 1150.98 116.984C1150.14 116.984 1149.41 117.19 1148.79 117.601C1148.17 118.005 1147.69 118.536 1147.36 119.192C1147.02 119.841 1146.86 120.547 1146.86 121.31V123.05C1146.86 124.071 1147.04 124.939 1147.4 125.655C1147.76 126.371 1148.27 126.918 1148.92 127.295C1149.57 127.667 1150.33 127.852 1151.19 127.852C1151.76 127.852 1152.27 127.773 1152.74 127.614C1153.2 127.448 1153.6 127.203 1153.94 126.878C1154.28 126.553 1154.54 126.152 1154.71 125.675L1157.53 126.182C1157.3 127.01 1156.9 127.736 1156.32 128.359C1155.74 128.976 1155.01 129.456 1154.14 129.801C1153.27 130.139 1152.28 130.308 1151.16 130.308Z" fill="#554F4F"/>
<path d="M1146.17 66C1147.64 66 1148.83 67.1939 1148.83 68.6666C1148.83 70.1394 1147.64 71.3333 1146.17 71.3333H1114.17C1112.69 71.3333 1111.5 70.1394 1111.5 68.6666C1111.5 67.1939 1112.69 66 1114.17 66H1146.17ZM1146.17 47.3333C1147.64 47.3333 1148.83 48.5272 1148.83 50C1148.83 51.4727 1147.64 52.6666 1146.17 52.6666H1114.17C1112.69 52.6666 1111.5 51.4727 1111.5 50C1111.5 48.5272 1112.69 47.3333 1114.17 47.3333H1146.17ZM1100.28 25.4476C1101.32 24.4062 1103.01 24.4062 1104.05 25.4476C1105.09 26.489 1105.09 28.1776 1104.05 29.219L1101.94 31.3333L1104.05 33.4476L1104.15 33.5472C1105.09 34.594 1105.06 36.2102 1104.05 37.219C1103.04 38.2279 1101.43 38.2593 1100.38 37.3134L1100.28 37.219L1098.17 35.1048L1096.05 37.219C1095.01 38.2604 1093.32 38.2604 1092.28 37.219C1091.24 36.1776 1091.24 34.4889 1092.28 33.4476L1094.4 31.3333L1092.28 29.219L1092.19 29.1194C1091.24 28.0726 1091.27 26.4564 1092.28 25.4476C1093.29 24.4387 1094.91 24.4073 1095.95 25.3532L1096.05 25.4476L1098.17 27.5618L1100.28 25.4476ZM1146.17 28.6666C1147.64 28.6666 1148.83 29.8605 1148.83 31.3333C1148.83 32.8061 1147.64 34 1146.17 34H1114.17C1112.69 34 1111.5 32.8061 1111.5 31.3333C1111.5 29.8605 1112.69 28.6666 1114.17 28.6666H1146.17Z" fill="#554F4F"/>
<path d="M1100.83 50C1100.83 48.5272 1099.64 47.3333 1098.17 47.3333C1096.69 47.3333 1095.5 48.5272 1095.5 50C1095.5 51.4728 1096.69 52.6667 1098.17 52.6667C1099.64 52.6667 1100.83 51.4728 1100.83 50ZM1106.17 50C1106.17 54.4183 1102.58 58 1098.17 58C1093.75 58 1090.17 54.4183 1090.17 50C1090.17 45.5817 1093.75 42 1098.17 42C1102.58 42 1106.17 45.5817 1106.17 50Z" fill="#554F4F"/>
<path d="M1100.83 68.6665C1100.83 67.1937 1099.64 65.9998 1098.17 65.9998C1096.69 65.9998 1095.5 67.1937 1095.5 68.6665C1095.5 70.1393 1096.69 71.3332 1098.17 71.3332C1099.64 71.3332 1100.83 70.1393 1100.83 68.6665ZM1106.17 68.6665C1106.17 73.0848 1102.58 76.6665 1098.17 76.6665C1093.75 76.6665 1090.17 73.0848 1090.17 68.6665C1090.17 64.2482 1093.75 60.6665 1098.17 60.6665C1102.58 60.6665 1106.17 64.2482 1106.17 68.6665Z" fill="#554F4F"/>
<defs>
<clipPath id="clip0_3130_5307">
<rect width="64" height="64" fill="white" transform="translate(642.5)"/>
</clipPath>
</defs>
</svg>
