<svg width="595" height="161" viewBox="0 0 595 161" fill="none" xmlns="http://www.w3.org/2000/svg">
<rect x="162" y="45" width="198" height="116" rx="14" fill="#83C9D7"/>
<path d="M185.674 88.3027V88.9092C185.674 89.8818 185.543 90.7549 185.279 91.5283C185.015 92.3018 184.643 92.9609 184.163 93.5059C183.682 94.0449 183.108 94.458 182.44 94.7451C181.778 95.0322 181.043 95.1758 180.234 95.1758C179.431 95.1758 178.696 95.0322 178.028 94.7451C177.366 94.458 176.792 94.0449 176.305 93.5059C175.819 92.9609 175.441 92.3018 175.171 91.5283C174.908 90.7549 174.776 89.8818 174.776 88.9092V88.3027C174.776 87.3242 174.908 86.4512 175.171 85.6836C175.435 84.9102 175.807 84.251 176.288 83.7061C176.774 83.1611 177.348 82.7451 178.01 82.458C178.678 82.1709 179.414 82.0273 180.216 82.0273C181.025 82.0273 181.76 82.1709 182.422 82.458C183.09 82.7451 183.665 83.1611 184.145 83.7061C184.631 84.251 185.006 84.9102 185.27 85.6836C185.54 86.4512 185.674 87.3242 185.674 88.3027ZM183.011 88.9092V88.2852C183.011 87.6055 182.95 87.0078 182.827 86.4922C182.704 85.9766 182.522 85.543 182.282 85.1914C182.042 84.8398 181.749 84.5762 181.403 84.4004C181.057 84.2188 180.662 84.1279 180.216 84.1279C179.771 84.1279 179.376 84.2188 179.03 84.4004C178.69 84.5762 178.4 84.8398 178.16 85.1914C177.925 85.543 177.747 85.9766 177.624 86.4922C177.501 87.0078 177.439 87.6055 177.439 88.2852V88.9092C177.439 89.583 177.501 90.1807 177.624 90.7021C177.747 91.2178 177.928 91.6543 178.169 92.0117C178.409 92.3633 178.702 92.6299 179.047 92.8115C179.393 92.9932 179.789 93.084 180.234 93.084C180.679 93.084 181.075 92.9932 181.42 92.8115C181.766 92.6299 182.056 92.3633 182.291 92.0117C182.525 91.6543 182.704 91.2178 182.827 90.7021C182.95 90.1807 183.011 89.583 183.011 88.9092ZM198.308 82.2031V95H195.671L190.53 86.4219V95H187.893V82.2031H190.53L195.68 90.79V82.2031H198.308ZM209.509 92.9434V95H202.697V92.9434H209.509ZM203.559 82.2031V95H200.922V82.2031H203.559ZM208.621 87.415V89.4189H202.697V87.415H208.621ZM209.5 82.2031V84.2686H202.697V82.2031H209.5ZM224.396 92.9434V95H217.953V92.9434H224.396ZM218.806 82.2031V95H216.169V82.2031H218.806ZM231.606 84.3916L228.126 95H225.322L230.077 82.2031H231.861L231.606 84.3916ZM234.498 95L231.009 84.3916L230.728 82.2031H232.529L237.311 95H234.498ZM234.34 90.2363V92.3018H227.581V90.2363H234.34ZM249.232 82.2031V95H246.595L241.454 86.4219V95H238.817V82.2031H241.454L246.604 90.79V82.2031H249.232ZM255.775 95H252.989L253.006 92.9434H255.775C256.466 92.9434 257.049 92.7881 257.524 92.4775C257.998 92.1611 258.356 91.7012 258.596 91.0977C258.842 90.4941 258.965 89.7646 258.965 88.9092V88.2852C258.965 87.6289 258.895 87.0518 258.754 86.5537C258.619 86.0557 258.417 85.6367 258.148 85.2969C257.878 84.957 257.547 84.7021 257.155 84.5322C256.762 84.3564 256.311 84.2686 255.801 84.2686H252.936V82.2031H255.801C256.657 82.2031 257.439 82.3496 258.148 82.6426C258.863 82.9297 259.481 83.3428 260.002 83.8818C260.524 84.4209 260.925 85.0654 261.206 85.8154C261.493 86.5596 261.637 87.3887 261.637 88.3027V88.9092C261.637 89.8174 261.493 90.6465 261.206 91.3965C260.925 92.1465 260.524 92.791 260.002 93.3301C259.487 93.8633 258.868 94.2764 258.148 94.5693C257.433 94.8564 256.642 95 255.775 95ZM254.483 82.2031V95H251.846V82.2031H254.483ZM266.677 82.2031V95H264.049V82.2031H266.677ZM279.882 82.2031V95H277.245L272.103 86.4219V95H269.466V82.2031H272.103L277.254 90.79V82.2031H279.882ZM292.638 88.3115V93.3828C292.439 93.623 292.131 93.8838 291.715 94.165C291.299 94.4404 290.763 94.6777 290.107 94.877C289.451 95.0762 288.657 95.1758 287.725 95.1758C286.899 95.1758 286.146 95.041 285.466 94.7715C284.786 94.4961 284.201 94.0947 283.708 93.5674C283.222 93.04 282.847 92.3955 282.583 91.6338C282.32 90.8662 282.188 89.9902 282.188 89.0059V88.2061C282.188 87.2217 282.314 86.3457 282.566 85.5781C282.824 84.8105 283.19 84.1631 283.664 83.6357C284.139 83.1084 284.704 82.707 285.361 82.4316C286.017 82.1562 286.746 82.0186 287.549 82.0186C288.662 82.0186 289.577 82.2002 290.291 82.5635C291.006 82.9209 291.551 83.4189 291.926 84.0576C292.307 84.6904 292.541 85.417 292.629 86.2373H290.072C290.007 85.8037 289.884 85.4258 289.702 85.1035C289.521 84.7812 289.26 84.5293 288.92 84.3477C288.586 84.166 288.153 84.0752 287.619 84.0752C287.18 84.0752 286.787 84.166 286.442 84.3477C286.102 84.5234 285.815 84.7842 285.58 85.1299C285.346 85.4756 285.167 85.9033 285.044 86.4131C284.921 86.9229 284.86 87.5146 284.86 88.1885V89.0059C284.86 89.6738 284.924 90.2656 285.053 90.7812C285.182 91.291 285.372 91.7217 285.624 92.0732C285.882 92.4189 286.199 92.6797 286.574 92.8555C286.949 93.0312 287.385 93.1191 287.883 93.1191C288.299 93.1191 288.645 93.084 288.92 93.0137C289.202 92.9434 289.427 92.8584 289.597 92.7588C289.773 92.6533 289.908 92.5537 290.001 92.46V90.1924H287.593V88.3115H292.638ZM304.871 90.4385H301.61V88.3818H304.871C305.375 88.3818 305.785 88.2998 306.101 88.1357C306.418 87.9658 306.649 87.7314 306.796 87.4326C306.942 87.1338 307.015 86.7969 307.015 86.4219C307.015 86.041 306.942 85.6865 306.796 85.3584C306.649 85.0303 306.418 84.7666 306.101 84.5674C305.785 84.3682 305.375 84.2686 304.871 84.2686H302.524V95H299.887V82.2031H304.871C305.873 82.2031 306.731 82.3848 307.446 82.748C308.167 83.1055 308.717 83.6006 309.098 84.2334C309.479 84.8662 309.67 85.5898 309.67 86.4043C309.67 87.2305 309.479 87.9453 309.098 88.5488C308.717 89.1523 308.167 89.6182 307.446 89.9463C306.731 90.2744 305.873 90.4385 304.871 90.4385ZM315.553 84.3916L312.073 95H309.269L314.024 82.2031H315.808L315.553 84.3916ZM318.445 95L314.955 84.3916L314.674 82.2031H316.476L321.257 95H318.445ZM318.287 90.2363V92.3018H311.528V90.2363H318.287ZM332.748 88.3115V93.3828C332.549 93.623 332.241 93.8838 331.825 94.165C331.409 94.4404 330.873 94.6777 330.217 94.877C329.561 95.0762 328.767 95.1758 327.835 95.1758C327.009 95.1758 326.256 95.041 325.576 94.7715C324.897 94.4961 324.311 94.0947 323.818 93.5674C323.332 93.04 322.957 92.3955 322.693 91.6338C322.43 90.8662 322.298 89.9902 322.298 89.0059V88.2061C322.298 87.2217 322.424 86.3457 322.676 85.5781C322.934 84.8105 323.3 84.1631 323.774 83.6357C324.249 83.1084 324.815 82.707 325.471 82.4316C326.127 82.1562 326.857 82.0186 327.659 82.0186C328.773 82.0186 329.687 82.2002 330.401 82.5635C331.116 82.9209 331.661 83.4189 332.036 84.0576C332.417 84.6904 332.651 85.417 332.739 86.2373H330.182C330.117 85.8037 329.994 85.4258 329.813 85.1035C329.631 84.7812 329.37 84.5293 329.03 84.3477C328.696 84.166 328.263 84.0752 327.73 84.0752C327.29 84.0752 326.898 84.166 326.552 84.3477C326.212 84.5234 325.925 84.7842 325.691 85.1299C325.456 85.4756 325.277 85.9033 325.154 86.4131C325.031 86.9229 324.97 87.5146 324.97 88.1885V89.0059C324.97 89.6738 325.034 90.2656 325.163 90.7812C325.292 91.291 325.482 91.7217 325.734 92.0732C325.992 92.4189 326.309 92.6797 326.684 92.8555C327.059 93.0312 327.495 93.1191 327.993 93.1191C328.409 93.1191 328.755 93.084 329.03 93.0137C329.312 92.9434 329.537 92.8584 329.707 92.7588C329.883 92.6533 330.018 92.5537 330.111 92.46V90.1924H327.703V88.3115H332.748ZM343.782 92.9434V95H336.97V92.9434H343.782ZM337.832 82.2031V95H335.195V82.2031H337.832ZM342.894 87.415V89.4189H336.97V87.415H342.894ZM343.773 82.2031V84.2686H336.97V82.2031H343.773ZM211.411 112.392L207.93 123H205.127L209.881 110.203H211.666L211.411 112.392ZM214.302 123L210.813 112.392L210.532 110.203H212.334L217.115 123H214.302ZM214.144 118.236V120.302H207.385V118.236H214.144ZM226.848 120.943V123H220.406V120.943H226.848ZM221.258 110.203V123H218.621V110.203H221.258ZM236.906 120.943V123H230.464V120.943H236.906ZM231.316 110.203V123H228.68V110.203H231.316ZM244.744 110.203H246.977L250.264 119.599L253.551 110.203H255.784L251.16 123H249.368L244.744 110.203ZM243.54 110.203H245.764L246.168 119.361V123H243.54V110.203ZM254.764 110.203H256.996V123H254.36V119.361L254.764 110.203ZM262.432 110.203V123H259.804V110.203H262.432ZM271.883 119.651C271.883 119.423 271.848 119.218 271.778 119.036C271.714 118.849 271.591 118.679 271.409 118.526C271.227 118.368 270.972 118.213 270.644 118.061C270.316 117.908 269.891 117.75 269.37 117.586C268.79 117.398 268.239 117.188 267.717 116.953C267.202 116.719 266.745 116.446 266.346 116.136C265.954 115.819 265.643 115.453 265.415 115.037C265.192 114.621 265.081 114.138 265.081 113.587C265.081 113.054 265.198 112.57 265.432 112.137C265.667 111.697 265.995 111.322 266.417 111.012C266.839 110.695 267.337 110.452 267.911 110.282C268.491 110.112 269.127 110.027 269.818 110.027C270.761 110.027 271.585 110.197 272.288 110.537C272.991 110.877 273.536 111.343 273.923 111.935C274.315 112.526 274.511 113.203 274.511 113.965H271.892C271.892 113.59 271.813 113.262 271.655 112.98C271.503 112.693 271.268 112.468 270.952 112.304C270.641 112.14 270.249 112.058 269.774 112.058C269.317 112.058 268.936 112.128 268.632 112.269C268.327 112.403 268.098 112.588 267.946 112.822C267.794 113.051 267.717 113.309 267.717 113.596C267.717 113.812 267.77 114.009 267.876 114.185C267.987 114.36 268.151 114.524 268.368 114.677C268.585 114.829 268.851 114.973 269.168 115.107C269.484 115.242 269.85 115.374 270.266 115.503C270.964 115.714 271.576 115.951 272.103 116.215C272.636 116.479 273.082 116.774 273.439 117.103C273.797 117.431 274.066 117.803 274.248 118.219C274.429 118.635 274.52 119.106 274.52 119.634C274.52 120.19 274.412 120.688 274.195 121.128C273.978 121.567 273.665 121.939 273.255 122.244C272.844 122.549 272.355 122.78 271.787 122.938C271.218 123.097 270.583 123.176 269.88 123.176C269.247 123.176 268.623 123.094 268.007 122.93C267.392 122.76 266.833 122.505 266.329 122.165C265.831 121.825 265.432 121.392 265.133 120.864C264.835 120.337 264.685 119.713 264.685 118.992H267.331C267.331 119.391 267.392 119.728 267.515 120.003C267.638 120.278 267.811 120.501 268.034 120.671C268.262 120.841 268.532 120.964 268.842 121.04C269.159 121.116 269.505 121.154 269.88 121.154C270.337 121.154 270.712 121.09 271.005 120.961C271.303 120.832 271.523 120.653 271.664 120.425C271.81 120.196 271.883 119.938 271.883 119.651ZM283.295 119.651C283.295 119.423 283.26 119.218 283.19 119.036C283.125 118.849 283.002 118.679 282.821 118.526C282.639 118.368 282.384 118.213 282.056 118.061C281.728 117.908 281.303 117.75 280.782 117.586C280.202 117.398 279.651 117.188 279.129 116.953C278.614 116.719 278.157 116.446 277.758 116.136C277.366 115.819 277.055 115.453 276.827 115.037C276.604 114.621 276.493 114.138 276.493 113.587C276.493 113.054 276.61 112.57 276.844 112.137C277.078 111.697 277.407 111.322 277.828 111.012C278.25 110.695 278.748 110.452 279.323 110.282C279.903 110.112 280.538 110.027 281.23 110.027C282.173 110.027 282.996 110.197 283.7 110.537C284.403 110.877 284.948 111.343 285.334 111.935C285.727 112.526 285.923 113.203 285.923 113.965H283.304C283.304 113.59 283.225 113.262 283.067 112.98C282.914 112.693 282.68 112.468 282.364 112.304C282.053 112.14 281.661 112.058 281.186 112.058C280.729 112.058 280.348 112.128 280.043 112.269C279.739 112.403 279.51 112.588 279.358 112.822C279.205 113.051 279.129 113.309 279.129 113.596C279.129 113.812 279.182 114.009 279.287 114.185C279.399 114.36 279.563 114.524 279.78 114.677C279.996 114.829 280.263 114.973 280.579 115.107C280.896 115.242 281.262 115.374 281.678 115.503C282.375 115.714 282.988 115.951 283.515 116.215C284.048 116.479 284.494 116.774 284.851 117.103C285.208 117.431 285.478 117.803 285.66 118.219C285.841 118.635 285.932 119.106 285.932 119.634C285.932 120.19 285.824 120.688 285.607 121.128C285.39 121.567 285.077 121.939 284.666 122.244C284.256 122.549 283.767 122.78 283.199 122.938C282.63 123.097 281.994 123.176 281.291 123.176C280.659 123.176 280.035 123.094 279.419 122.93C278.804 122.76 278.244 122.505 277.741 122.165C277.243 121.825 276.844 121.392 276.545 120.864C276.246 120.337 276.097 119.713 276.097 118.992H278.743C278.743 119.391 278.804 119.728 278.927 120.003C279.05 120.278 279.223 120.501 279.446 120.671C279.674 120.841 279.944 120.964 280.254 121.04C280.571 121.116 280.916 121.154 281.291 121.154C281.748 121.154 282.123 121.09 282.416 120.961C282.715 120.832 282.935 120.653 283.076 120.425C283.222 120.196 283.295 119.938 283.295 119.651ZM290.849 110.203V123H288.221V110.203H290.849ZM304.15 116.303V116.909C304.15 117.882 304.018 118.755 303.755 119.528C303.491 120.302 303.119 120.961 302.638 121.506C302.158 122.045 301.584 122.458 300.916 122.745C300.254 123.032 299.518 123.176 298.71 123.176C297.907 123.176 297.172 123.032 296.504 122.745C295.842 122.458 295.267 122.045 294.781 121.506C294.295 120.961 293.917 120.302 293.647 119.528C293.384 118.755 293.252 117.882 293.252 116.909V116.303C293.252 115.324 293.384 114.451 293.647 113.684C293.911 112.91 294.283 112.251 294.763 111.706C295.25 111.161 295.824 110.745 296.486 110.458C297.154 110.171 297.889 110.027 298.692 110.027C299.501 110.027 300.236 110.171 300.898 110.458C301.566 110.745 302.14 111.161 302.621 111.706C303.107 112.251 303.482 112.91 303.746 113.684C304.015 114.451 304.15 115.324 304.15 116.303ZM301.487 116.909V116.285C301.487 115.605 301.426 115.008 301.302 114.492C301.179 113.977 300.998 113.543 300.758 113.191C300.517 112.84 300.224 112.576 299.879 112.4C299.533 112.219 299.137 112.128 298.692 112.128C298.247 112.128 297.851 112.219 297.506 112.4C297.166 112.576 296.876 112.84 296.635 113.191C296.401 113.543 296.222 113.977 296.099 114.492C295.976 115.008 295.915 115.605 295.915 116.285V116.909C295.915 117.583 295.976 118.181 296.099 118.702C296.222 119.218 296.404 119.654 296.644 120.012C296.884 120.363 297.177 120.63 297.523 120.812C297.869 120.993 298.264 121.084 298.71 121.084C299.155 121.084 299.551 120.993 299.896 120.812C300.242 120.63 300.532 120.363 300.766 120.012C301.001 119.654 301.179 119.218 301.302 118.702C301.426 118.181 301.487 117.583 301.487 116.909ZM316.784 110.203V123H314.147L309.005 114.422V123H306.369V110.203H309.005L314.156 118.79V110.203H316.784Z" fill="#383737"/>
<g clip-path="url(#clip0_3108_6785)">
<path d="M28.0625 52.5235L26.1042 49.1316L49.8477 35.4232L51.806 38.8152L28.0625 52.5235ZM24.6354 46.5876L14.6153 34.2259C14.5587 34.2586 14.4991 34.3028 14.4363 34.3586C14.3736 34.4144 14.3142 34.4578 14.2581 34.4886C13.5515 34.8966 12.8082 34.9956 12.0282 34.7857C11.2481 34.5757 10.6539 34.1183 10.2454 33.4134C9.83699 32.7086 9.73797 31.9652 9.94841 31.1834C10.1588 30.4016 10.6163 29.8074 11.3206 29.4007C12.025 28.994 12.7689 28.8947 13.5523 29.1027C14.3357 29.3107 14.9294 29.7684 15.3333 30.4759C15.4476 30.6738 15.5322 30.8699 15.5871 31.0643C15.6421 31.2587 15.6827 31.4426 15.7089 31.6159L22.3796 30.9304L23.4935 20.6202C23.0521 20.5736 22.6263 20.4237 22.2163 20.1705C21.8063 19.9172 21.4789 19.5786 21.2341 19.1546C20.8261 18.448 20.7268 17.7041 20.9361 16.9229C21.1454 16.1418 21.6031 15.5481 22.3093 15.1419C23.0155 14.7357 23.7593 14.6364 24.541 14.8439C25.3226 15.0514 25.9163 15.5092 26.322 16.2171C26.5668 16.6411 26.6963 17.094 26.7106 17.5757C26.7249 18.0574 26.6419 18.501 26.4615 18.9067L35.9473 23.097L39.8764 17.6628C39.7382 17.5541 39.5987 17.4273 39.4579 17.2826C39.317 17.1378 39.19 16.9661 39.0769 16.7676C38.6689 16.0609 38.5696 15.317 38.7789 14.5359C38.9882 13.7548 39.4459 13.1611 40.1521 12.7549C40.8583 12.3487 41.6021 12.2494 42.3838 12.4569C43.1654 12.6644 43.7591 13.1221 44.1648 13.8301C44.5705 14.5381 44.6704 15.2816 44.4645 16.0608C44.2586 16.84 43.8003 17.434 43.0896 17.8428C43.033 17.8754 42.9658 17.9052 42.8879 17.9321C42.8099 17.959 42.7418 17.9885 42.6835 18.0207L48.379 32.8793L24.6354 46.5876Z" fill="#D9AA2A"/>
</g>
<rect x="38" y="45" width="97" height="48" rx="8" fill="#83C9D7"/>
<path d="M59.6808 68.3027V68.9092C59.6808 69.8818 59.5489 70.7549 59.2853 71.5283C59.0216 72.3018 58.6495 72.9609 58.1691 73.5059C57.6886 74.0449 57.1144 74.458 56.4464 74.7451C55.7843 75.0322 55.0489 75.1758 54.2404 75.1758C53.4376 75.1758 52.7023 75.0322 52.0343 74.7451C51.3722 74.458 50.798 74.0449 50.3116 73.5059C49.8253 72.9609 49.4474 72.3018 49.1779 71.5283C48.9142 70.7549 48.7823 69.8818 48.7823 68.9092V68.3027C48.7823 67.3242 48.9142 66.4512 49.1779 65.6836C49.4415 64.9102 49.8136 64.251 50.2941 63.7061C50.7804 63.1611 51.3546 62.7451 52.0167 62.458C52.6847 62.1709 53.42 62.0273 54.2228 62.0273C55.0314 62.0273 55.7667 62.1709 56.4288 62.458C57.0968 62.7451 57.671 63.1611 58.1515 63.7061C58.6378 64.251 59.0128 64.9102 59.2765 65.6836C59.546 66.4512 59.6808 67.3242 59.6808 68.3027ZM57.0177 68.9092V68.2852C57.0177 67.6055 56.9562 67.0078 56.8331 66.4922C56.7101 65.9766 56.5284 65.543 56.2882 65.1914C56.048 64.8398 55.755 64.5762 55.4093 64.4004C55.0636 64.2188 54.6681 64.1279 54.2228 64.1279C53.7775 64.1279 53.382 64.2188 53.0363 64.4004C52.6964 64.5762 52.4064 64.8398 52.1661 65.1914C51.9318 65.543 51.753 65.9766 51.63 66.4922C51.507 67.0078 51.4454 67.6055 51.4454 68.2852V68.9092C51.4454 69.583 51.507 70.1807 51.63 70.7021C51.753 71.2178 51.9347 71.6543 52.1749 72.0117C52.4152 72.3633 52.7081 72.6299 53.0538 72.8115C53.3995 72.9932 53.795 73.084 54.2404 73.084C54.6857 73.084 55.0812 72.9932 55.4269 72.8115C55.7726 72.6299 56.0626 72.3633 56.297 72.0117C56.5314 71.6543 56.7101 71.2178 56.8331 70.7021C56.9562 70.1807 57.0177 69.583 57.0177 68.9092ZM64.9754 73.1543L67.0848 65.4902H69.7303L66.5223 75H64.9227L64.9754 73.1543ZM63.5252 65.4902L65.6434 73.1631L65.6873 75H64.0789L60.8709 65.4902H63.5252ZM75.438 75.1758C74.6997 75.1758 74.0376 75.0586 73.4516 74.8242C72.8657 74.584 72.3677 74.2529 71.9575 73.8311C71.5532 73.4092 71.2427 72.9199 71.0259 72.3633C70.8091 71.8008 70.7007 71.2031 70.7007 70.5703V70.2188C70.7007 69.498 70.8032 68.8389 71.0083 68.2412C71.2134 67.6436 71.5063 67.125 71.8872 66.6855C72.2739 66.2461 72.7427 65.9092 73.2934 65.6748C73.8442 65.4346 74.4653 65.3145 75.1567 65.3145C75.8305 65.3145 76.4282 65.4258 76.9497 65.6484C77.4712 65.8711 77.9077 66.1875 78.2593 66.5977C78.6167 67.0078 78.8862 67.5 79.0679 68.0742C79.2495 68.6426 79.3403 69.2754 79.3403 69.9727V71.0273H71.7817V69.3398H76.853V69.1465C76.853 68.7949 76.7886 68.4814 76.6596 68.2061C76.5366 67.9248 76.3491 67.7021 76.0971 67.5381C75.8452 67.374 75.5229 67.292 75.1304 67.292C74.7964 67.292 74.5093 67.3652 74.269 67.5117C74.0288 67.6582 73.8325 67.8633 73.6802 68.127C73.5337 68.3906 73.4223 68.7012 73.3462 69.0586C73.2759 69.4102 73.2407 69.7969 73.2407 70.2188V70.5703C73.2407 70.9512 73.2934 71.3027 73.3989 71.625C73.5102 71.9473 73.6655 72.2256 73.8647 72.46C74.0698 72.6943 74.3159 72.876 74.603 73.0049C74.896 73.1338 75.227 73.1982 75.5962 73.1982C76.0532 73.1982 76.478 73.1104 76.8706 72.9346C77.269 72.7529 77.6118 72.4805 77.8989 72.1172L79.1294 73.4531C78.9302 73.7402 78.6577 74.0156 78.312 74.2793C77.9721 74.543 77.562 74.7598 77.0815 74.9297C76.6011 75.0938 76.0532 75.1758 75.438 75.1758ZM83.633 67.5645V75H81.1017V65.4902H83.4836L83.633 67.5645ZM86.4982 65.4287L86.4543 67.7754C86.3312 67.7578 86.1818 67.7432 86.006 67.7314C85.8361 67.7139 85.6808 67.7051 85.5402 67.7051C85.1828 67.7051 84.8722 67.752 84.6086 67.8457C84.3507 67.9336 84.1339 68.0654 83.9582 68.2412C83.7882 68.417 83.6593 68.6309 83.5714 68.8828C83.4894 69.1348 83.4425 69.4219 83.4308 69.7441L82.9211 69.5859C82.9211 68.9707 82.9826 68.4053 83.1056 67.8896C83.2287 67.3682 83.4074 66.9141 83.6418 66.5273C83.882 66.1406 84.175 65.8418 84.5207 65.6309C84.8664 65.4199 85.2619 65.3145 85.7072 65.3145C85.8478 65.3145 85.9914 65.3262 86.1379 65.3496C86.2843 65.3672 86.4045 65.3936 86.4982 65.4287ZM91.4061 73.1543L93.5155 65.4902H96.161L92.953 75H91.3534L91.4061 73.1543ZM89.9559 65.4902L92.0741 73.1631L92.118 75H90.5096L87.3016 65.4902H89.9559ZM100.287 65.4902V75H97.7466V65.4902H100.287ZM97.5884 63.0117C97.5884 62.6426 97.7173 62.3379 97.9751 62.0977C98.2329 61.8574 98.5786 61.7373 99.0122 61.7373C99.44 61.7373 99.7827 61.8574 100.041 62.0977C100.304 62.3379 100.436 62.6426 100.436 63.0117C100.436 63.3809 100.304 63.6855 100.041 63.9258C99.7827 64.166 99.44 64.2861 99.0122 64.2861C98.5786 64.2861 98.2329 64.166 97.9751 63.9258C97.7173 63.6855 97.5884 63.3809 97.5884 63.0117ZM107.075 75.1758C106.337 75.1758 105.675 75.0586 105.089 74.8242C104.503 74.584 104.005 74.2529 103.595 73.8311C103.191 73.4092 102.88 72.9199 102.663 72.3633C102.446 71.8008 102.338 71.2031 102.338 70.5703V70.2188C102.338 69.498 102.441 68.8389 102.646 68.2412C102.851 67.6436 103.144 67.125 103.525 66.6855C103.911 66.2461 104.38 65.9092 104.931 65.6748C105.482 65.4346 106.103 65.3145 106.794 65.3145C107.468 65.3145 108.066 65.4258 108.587 65.6484C109.109 65.8711 109.545 66.1875 109.897 66.5977C110.254 67.0078 110.524 67.5 110.705 68.0742C110.887 68.6426 110.978 69.2754 110.978 69.9727V71.0273H103.419V69.3398H108.49V69.1465C108.49 68.7949 108.426 68.4814 108.297 68.2061C108.174 67.9248 107.987 67.7021 107.735 67.5381C107.483 67.374 107.16 67.292 106.768 67.292C106.434 67.292 106.147 67.3652 105.906 67.5117C105.666 67.6582 105.47 67.8633 105.318 68.127C105.171 68.3906 105.06 68.7012 104.984 69.0586C104.913 69.4102 104.878 69.7969 104.878 70.2188V70.5703C104.878 70.9512 104.931 71.3027 105.036 71.625C105.148 71.9473 105.303 72.2256 105.502 72.46C105.707 72.6943 105.953 72.876 106.24 73.0049C106.533 73.1338 106.864 73.1982 107.234 73.1982C107.691 73.1982 108.115 73.1104 108.508 72.9346C108.906 72.7529 109.249 72.4805 109.536 72.1172L110.767 73.4531C110.568 73.7402 110.295 74.0156 109.949 74.2793C109.61 74.543 109.199 74.7598 108.719 74.9297C108.238 75.0938 107.691 75.1758 107.075 75.1758ZM115.455 72.5391L117.433 65.4902H119.041L118.522 68.2588L116.545 75H115.2L115.455 72.5391ZM114.453 65.4902L115.868 72.5303L116 75H114.418L112.01 65.4902H114.453ZM120.851 72.416L122.231 65.4902H124.683L122.275 75H120.702L120.851 72.416ZM119.261 65.4902L121.229 72.4863L121.502 75H120.148L118.171 68.2676L117.67 65.4902H119.261Z" fill="#383737"/>
<rect x="397" y="45" width="198" height="116" rx="14" fill="#83C9D7"/>
<path d="M487.729 112.943V115H480.918V112.943H487.729ZM481.779 102.203V115H479.143V102.203H481.779ZM486.842 107.415V109.419H480.918V107.415H486.842ZM487.721 102.203V104.269H480.918V102.203H487.721ZM500.003 102.203V115H497.366L492.224 106.422V115H489.588V102.203H492.224L497.375 110.79V102.203H500.003ZM506.545 115H503.759L503.777 112.943H506.545C507.237 112.943 507.82 112.788 508.294 112.478C508.769 112.161 509.126 111.701 509.367 111.098C509.613 110.494 509.736 109.765 509.736 108.909V108.285C509.736 107.629 509.665 107.052 509.525 106.554C509.39 106.056 509.188 105.637 508.918 105.297C508.649 104.957 508.318 104.702 507.925 104.532C507.533 104.356 507.081 104.269 506.572 104.269H503.706V102.203H506.572C507.427 102.203 508.209 102.35 508.918 102.643C509.633 102.93 510.251 103.343 510.773 103.882C511.294 104.421 511.696 105.065 511.977 105.815C512.264 106.56 512.408 107.389 512.408 108.303V108.909C512.408 109.817 512.264 110.646 511.977 111.396C511.696 112.146 511.294 112.791 510.773 113.33C510.257 113.863 509.639 114.276 508.918 114.569C508.203 114.856 507.412 115 506.545 115ZM505.253 102.203V115H502.617V102.203H505.253Z" fill="#383737"/>
<path d="M360 100C358.333 100 357 101.333 357 103C357 104.667 358.333 106 360 106C361.667 106 363 104.667 363 103C363 101.333 361.667 100 360 100Z" fill="white"/>
<path d="M397.707 103.707C398.098 103.317 398.098 102.683 397.707 102.293L391.343 95.9289C390.953 95.5384 390.319 95.5384 389.929 95.9289C389.538 96.3195 389.538 96.9526 389.929 97.3431L395.586 103L389.929 108.657C389.538 109.047 389.538 109.681 389.929 110.071C390.319 110.462 390.953 110.462 391.343 110.071L397.707 103.707ZM357 103H358C358 101.886 358.886 101 360 101V100V99C357.781 99 356 100.781 356 103H357ZM360 100V101C361.114 101 362 101.886 362 103H363H364C364 100.781 362.219 99 360 99V100ZM363 103H362C362 104.114 361.114 105 360 105V106V107C362.219 107 364 105.219 364 103H363ZM360 106V105C358.886 105 358 104.114 358 103H357H356C356 105.219 357.781 107 360 107V106ZM363 103V104H397V103V102H363V103Z" fill="black"/>
<defs>
<clipPath id="clip0_3108_6785">
<rect width="47" height="47" fill="white" transform="translate(0 23.5) rotate(-30)"/>
</clipPath>
</defs>
</svg>
