<svg width="72" height="72" viewBox="0 0 72 72" fill="none" xmlns="http://www.w3.org/2000/svg">
<path fill-rule="evenodd" clip-rule="evenodd" d="M36.2732 9.84669C39.8461 10.9359 42.9007 12.9902 46.0981 14.9089C49.0521 16.6815 52.7379 17.7879 54.4546 20.7569C56.1648 23.7145 53.7594 27.7714 55.2985 30.8199C57.5001 35.1807 65.387 36.7553 64.9852 41.615C64.6152 46.0901 57.0216 45.8126 53.798 48.9687C51.0453 51.6638 50.5632 56.0222 47.6696 58.5684C44.4335 61.416 40.5735 63.9038 36.2732 64.3895C31.88 64.8857 27.256 63.6861 23.5529 61.2921C19.9554 58.9664 17.3771 55.2154 15.9004 51.2189C14.562 47.5964 17.0097 43.3946 15.6101 39.7948C13.8841 35.3552 7.71571 33.2346 7.07512 28.5194C6.46871 24.0559 9.65045 19.8467 12.4142 16.271C15.2018 12.6645 18.6058 9.06828 23.0303 7.87694C27.3925 6.70236 31.9526 8.52962 36.2732 9.84669Z" fill="#E6AEA8"/>
<path d="M47.1875 36.5C47.1875 33.2677 45.9035 30.1677 43.6179 27.8821C41.3323 25.5965 38.2323 24.3125 35 24.3125C31.7677 24.3125 28.6677 25.5965 26.3821 27.8821C24.0965 30.1677 22.8125 33.2677 22.8125 36.5C22.8125 39.7323 24.0965 42.8323 26.3821 45.1179C28.6677 47.4035 31.7677 48.6875 35 48.6875C38.2323 48.6875 41.3323 47.4035 43.6179 45.1179C45.9035 42.8323 47.1875 39.7323 47.1875 36.5ZM20 36.5C20 32.5218 21.5804 28.7064 24.3934 25.8934C27.2064 23.0804 31.0218 21.5 35 21.5C38.9782 21.5 42.7936 23.0804 45.6066 25.8934C48.4196 28.7064 50 32.5218 50 36.5C50 40.4782 48.4196 44.2936 45.6066 47.1066C42.7936 49.9196 38.9782 51.5 35 51.5C31.0218 51.5 27.2064 49.9196 24.3934 47.1066C21.5804 44.2936 20 40.4782 20 36.5ZM30.3418 40.2676C31.4902 39.2012 33.1133 38.375 35 38.375C36.8867 38.375 38.5098 39.2012 39.6582 40.2676C40.7715 41.3105 41.5625 42.7109 41.5625 44C41.5625 44.3164 41.4043 44.6094 41.1406 44.7852C40.877 44.9609 40.543 44.9844 40.25 44.8613L39.2422 44.4219C37.9062 43.8359 36.459 43.5371 35 43.5371C33.541 43.5371 32.0938 43.8418 30.7578 44.4219L29.75 44.8613C29.4629 44.9902 29.123 44.9609 28.8594 44.7852C28.5957 44.6094 28.4375 44.3164 28.4375 44C28.4375 42.7109 29.2285 41.3105 30.3418 40.2676ZM27.8223 30.0957L33.0898 32.9023C33.7168 33.2363 33.7168 34.1387 33.0898 34.4727L27.8223 37.2793C27.3594 37.5254 26.7969 37.1914 26.7969 36.6641C26.7969 36.5 26.8555 36.3418 26.9609 36.2187L29.0703 33.6875L26.9609 31.1563C26.8555 31.0332 26.7969 30.875 26.7969 30.7109C26.7969 30.1836 27.3594 29.8496 27.8223 30.0957ZM43.2031 30.7051C43.2031 30.8691 43.1445 31.0273 43.0391 31.1504L40.9297 33.6816L43.0391 36.2129C43.1445 36.3359 43.2031 36.4941 43.2031 36.6582C43.2031 37.1855 42.6406 37.5195 42.1777 37.2734L36.9102 34.4668C36.2832 34.1328 36.2832 33.2305 36.9102 32.8965L42.1777 30.0898C42.6406 29.8438 43.2031 30.1777 43.2031 30.7051Z" fill="#4A4040"/>
</svg>
