<svg width="429" height="343" viewBox="0 0 429 343" fill="none" xmlns="http://www.w3.org/2000/svg">
<path d="M34.8974 266.036C19.0274 244.818 8.75555 219.929 5.03297 193.675C1.3104 167.421 4.25747 140.649 13.6013 115.84C22.9451 91.0305 38.3836 68.9852 58.4872 51.7453C78.5907 34.5054 102.709 22.6283 128.61 17.2138L147.874 109.785C137.514 111.951 127.867 116.702 119.825 123.598C111.784 130.494 105.608 139.312 101.871 149.236C98.1332 159.16 96.9544 169.868 98.4434 180.37C99.9325 190.872 104.041 200.827 110.389 209.314L34.8974 266.036Z" fill="#3CC3DF"/>
<path d="M127.03 17.5526C167.767 8.59791 210.384 16.2294 245.507 38.7682C280.629 61.307 305.38 96.9069 314.315 137.736C323.249 178.566 315.635 221.28 293.147 256.483C270.66 291.685 235.141 316.493 194.404 325.447L174.192 233.079C190.486 229.497 204.694 219.574 213.689 205.493C222.684 191.412 225.73 174.326 222.156 157.994C218.582 141.663 208.682 127.423 194.633 118.407C180.584 109.392 163.537 106.339 147.242 109.921L127.03 17.5526Z" fill="#00ADB5"/>
<path d="M194.174 325.498C164.694 331.931 133.991 329.729 105.726 319.155C77.4608 308.58 52.8276 290.079 34.7649 265.858L110.336 209.243C117.561 218.931 127.415 226.332 138.721 230.562C150.027 234.792 162.308 235.672 174.1 233.099L194.174 325.498Z" fill="#FF9F98"/>
<circle cx="358" cy="197.521" r="3.5" fill="#009D97" stroke="#1A1F26"/>
<path d="M373.54 199.406V200.414H378.4V199.406H373.54ZM373.54 197.798V198.782H378.4V197.798H373.54ZM372.652 197.15H379.336V201.062H372.652V197.15ZM370.684 193.466H381.328V194.258H370.684V193.466ZM375.52 191.942H376.408V196.778H375.52V191.942ZM375.004 193.706L375.748 194.006C375.484 194.39 375.172 194.766 374.812 195.134C374.452 195.494 374.06 195.834 373.636 196.154C373.22 196.466 372.788 196.75 372.34 197.006C371.9 197.262 371.46 197.478 371.02 197.654C370.98 197.574 370.924 197.494 370.852 197.414C370.78 197.326 370.708 197.238 370.636 197.15C370.564 197.062 370.496 196.99 370.432 196.934C370.856 196.782 371.288 196.594 371.728 196.37C372.168 196.138 372.592 195.882 373 195.602C373.408 195.314 373.784 195.01 374.128 194.69C374.472 194.37 374.764 194.042 375.004 193.706ZM376.912 193.706C377.152 194.034 377.444 194.354 377.788 194.666C378.14 194.978 378.524 195.27 378.94 195.542C379.356 195.814 379.788 196.062 380.236 196.286C380.684 196.502 381.128 196.678 381.568 196.814C381.504 196.87 381.432 196.942 381.352 197.03C381.28 197.118 381.208 197.21 381.136 197.306C381.072 197.394 381.016 197.478 380.968 197.558C380.52 197.39 380.072 197.182 379.624 196.934C379.176 196.686 378.74 196.41 378.316 196.106C377.892 195.794 377.496 195.462 377.128 195.11C376.768 194.75 376.452 194.382 376.18 194.006L376.912 193.706ZM370.888 201.782H381.16V202.598H370.888V201.782ZM382.408 198.29C382.768 198.202 383.176 198.098 383.632 197.978C384.096 197.85 384.584 197.714 385.096 197.57C385.608 197.426 386.12 197.278 386.632 197.126L386.74 197.954C386.036 198.17 385.324 198.386 384.604 198.602C383.892 198.81 383.248 198.998 382.672 199.166L382.408 198.29ZM382.552 194.366H386.608V195.218H382.552V194.366ZM384.268 191.942H385.144V201.842C385.144 202.09 385.112 202.282 385.048 202.418C384.984 202.554 384.872 202.658 384.712 202.73C384.56 202.794 384.352 202.834 384.088 202.85C383.824 202.874 383.484 202.886 383.068 202.886C383.052 202.774 383.016 202.638 382.96 202.478C382.912 202.318 382.86 202.178 382.804 202.058C383.084 202.066 383.34 202.07 383.572 202.07C383.804 202.07 383.96 202.07 384.04 202.07C384.128 202.062 384.188 202.042 384.22 202.01C384.252 201.978 384.268 201.922 384.268 201.842V191.942ZM386.752 195.338L393.196 194.666L393.292 195.506L386.848 196.19L386.752 195.338ZM390.112 192.686L390.796 192.23C390.996 192.39 391.2 192.574 391.408 192.782C391.624 192.99 391.824 193.198 392.008 193.406C392.192 193.606 392.34 193.786 392.452 193.946L391.732 194.474C391.628 194.298 391.484 194.106 391.3 193.898C391.124 193.69 390.932 193.478 390.724 193.262C390.516 193.046 390.312 192.854 390.112 192.686ZM388.372 191.978H389.284C389.324 193.058 389.396 194.086 389.5 195.062C389.604 196.03 389.74 196.922 389.908 197.738C390.076 198.546 390.272 199.254 390.496 199.862C390.728 200.47 390.988 200.95 391.276 201.302C391.572 201.646 391.9 201.834 392.26 201.866C392.42 201.882 392.548 201.726 392.644 201.398C392.748 201.07 392.828 200.574 392.884 199.91C392.948 199.974 393.028 200.042 393.124 200.114C393.22 200.178 393.316 200.238 393.412 200.294C393.508 200.342 393.588 200.378 393.652 200.402C393.564 201.05 393.452 201.562 393.316 201.938C393.188 202.314 393.036 202.574 392.86 202.718C392.684 202.87 392.496 202.938 392.296 202.922C391.76 202.882 391.288 202.674 390.88 202.298C390.48 201.922 390.132 201.406 389.836 200.75C389.54 200.094 389.292 199.318 389.092 198.422C388.9 197.526 388.744 196.534 388.624 195.446C388.512 194.358 388.428 193.202 388.372 191.978ZM391.948 196.442L392.692 196.886C392.332 197.67 391.864 198.43 391.288 199.166C390.712 199.894 390.064 200.554 389.344 201.146C388.632 201.738 387.884 202.21 387.1 202.562C387.02 202.442 386.912 202.318 386.776 202.19C386.648 202.062 386.524 201.954 386.404 201.866C386.996 201.626 387.572 201.318 388.132 200.942C388.692 200.558 389.212 200.126 389.692 199.646C390.172 199.166 390.604 198.654 390.988 198.11C391.38 197.566 391.7 197.01 391.948 196.442ZM395.104 193.106H404.932V193.862H395.104V193.106ZM395.488 201.89H404.584V202.658H395.488V201.89ZM397.468 194.666H402.52V195.338H397.468V194.666ZM397.468 196.178H402.52V196.862H397.468V196.178ZM394.552 197.714H405.46V198.482H394.552V197.714ZM397.06 199.874H402.952V200.618H397.06V199.874ZM396.94 191.942H397.84V198.146H396.94V191.942ZM402.208 191.954H403.12V198.146H402.208V191.954ZM399.52 198.866H400.432V202.31H399.52V198.866ZM397.576 197.93L398.32 198.206C398.08 198.622 397.78 199.018 397.42 199.394C397.068 199.77 396.684 200.114 396.268 200.426C395.86 200.73 395.444 200.982 395.02 201.182C394.98 201.11 394.924 201.034 394.852 200.954C394.78 200.866 394.708 200.782 394.636 200.702C394.564 200.614 394.496 200.542 394.432 200.486C394.832 200.326 395.232 200.114 395.632 199.85C396.032 199.586 396.4 199.286 396.736 198.95C397.072 198.614 397.352 198.274 397.576 197.93ZM402.484 197.93C402.692 198.266 402.96 198.59 403.288 198.902C403.616 199.214 403.98 199.494 404.38 199.742C404.788 199.982 405.196 200.178 405.604 200.33C405.548 200.386 405.48 200.458 405.4 200.546C405.32 200.626 405.248 200.71 405.184 200.798C405.12 200.886 405.06 200.966 405.004 201.038C404.588 200.854 404.172 200.614 403.756 200.318C403.348 200.022 402.972 199.694 402.628 199.334C402.292 198.966 402.004 198.586 401.764 198.194L402.484 197.93ZM411.952 192.806C411.624 193.278 411.2 193.77 410.68 194.282C410.168 194.786 409.596 195.27 408.964 195.734C408.34 196.198 407.688 196.61 407.008 196.97C406.968 196.898 406.916 196.818 406.852 196.73C406.788 196.642 406.72 196.558 406.648 196.478C406.584 196.39 406.516 196.314 406.444 196.25C407.14 195.906 407.808 195.494 408.448 195.014C409.096 194.526 409.68 194.014 410.2 193.478C410.72 192.942 411.136 192.426 411.448 191.93H412.36C412.68 192.354 413.044 192.774 413.452 193.19C413.86 193.606 414.292 193.998 414.748 194.366C415.212 194.726 415.684 195.054 416.164 195.35C416.652 195.646 417.132 195.898 417.604 196.106C417.492 196.218 417.384 196.346 417.28 196.49C417.176 196.634 417.084 196.774 417.004 196.91C416.548 196.67 416.08 196.394 415.6 196.082C415.12 195.762 414.652 195.422 414.196 195.062C413.748 194.694 413.332 194.322 412.948 193.946C412.564 193.562 412.232 193.182 411.952 192.806ZM408.988 195.602H415V196.406H408.988V195.602ZM407.428 198.014H416.56V198.806H407.428V198.014ZM406.876 201.806H417.136V202.598H406.876V201.806ZM411.472 195.914H412.42V202.214H411.472V195.914ZM408.424 199.418L409.156 199.13C409.324 199.346 409.484 199.586 409.636 199.85C409.796 200.106 409.936 200.362 410.056 200.618C410.176 200.866 410.26 201.09 410.308 201.29L409.528 201.626C409.48 201.426 409.4 201.198 409.288 200.942C409.176 200.686 409.044 200.426 408.892 200.162C408.74 199.898 408.584 199.65 408.424 199.418ZM414.712 199.106L415.564 199.442C415.332 199.818 415.084 200.21 414.82 200.618C414.564 201.018 414.32 201.354 414.088 201.626L413.416 201.338C413.56 201.138 413.712 200.91 413.872 200.654C414.032 200.39 414.184 200.122 414.328 199.85C414.48 199.578 414.608 199.33 414.712 199.106Z" fill="#3C4043"/>
<circle cx="358" cy="224.712" r="3.5" fill="#FF9F98" stroke="#1A1F26"/>
<path d="M376.66 222.192H379.984V222.948H376.66V222.192ZM375.904 225.48H377.86V226.116H375.904V225.48ZM375.904 227.124H377.86V227.808H375.904V227.124ZM378.868 224.124H379.54V228.348H378.868V224.124ZM378.328 220.02C378.136 220.364 377.888 220.724 377.584 221.1C377.28 221.476 376.944 221.836 376.576 222.18C376.208 222.524 375.82 222.828 375.412 223.092C375.356 222.98 375.284 222.852 375.196 222.708C375.116 222.564 375.036 222.444 374.956 222.348C375.364 222.108 375.756 221.816 376.132 221.472C376.508 221.12 376.848 220.744 377.152 220.344C377.456 219.944 377.7 219.556 377.884 219.18H378.712C378.96 219.588 379.252 219.984 379.588 220.368C379.924 220.752 380.28 221.104 380.656 221.424C381.032 221.736 381.408 221.996 381.784 222.204C381.704 222.308 381.62 222.436 381.532 222.588C381.444 222.732 381.368 222.864 381.304 222.984C380.936 222.752 380.564 222.472 380.188 222.144C379.82 221.816 379.476 221.468 379.156 221.1C378.836 220.732 378.56 220.372 378.328 220.02ZM375.496 223.86H377.74V224.544H376.156V230.136H375.496V223.86ZM377.524 223.86H378.196V229.392C378.196 229.56 378.176 229.692 378.136 229.788C378.104 229.892 378.036 229.976 377.932 230.04C377.836 230.096 377.708 230.128 377.548 230.136C377.396 230.152 377.212 230.16 376.996 230.16C376.988 230.072 376.964 229.964 376.924 229.836C376.884 229.716 376.844 229.608 376.804 229.512C376.948 229.512 377.072 229.512 377.176 229.512C377.288 229.512 377.364 229.512 377.404 229.512C377.484 229.512 377.524 229.468 377.524 229.38V223.86ZM380.488 223.668H381.22V229.284C381.22 229.484 381.196 229.64 381.148 229.752C381.1 229.864 381.008 229.952 380.872 230.016C380.736 230.072 380.552 230.104 380.32 230.112C380.096 230.128 379.808 230.136 379.456 230.136C379.44 230.04 379.408 229.924 379.36 229.788C379.32 229.66 379.272 229.548 379.216 229.452C379.472 229.46 379.7 229.464 379.9 229.464C380.1 229.464 380.232 229.46 380.296 229.452C380.424 229.444 380.488 229.388 380.488 229.284V223.668ZM370.612 220.416H375.184V221.22H370.612V220.416ZM370.468 227.28H375.148V228.084H370.468V227.28ZM372.448 219.12H373.252V222.432H372.448V219.12ZM372.556 222.468H373.156V225.96H373.252V230.184H372.46V225.96H372.556V222.468ZM371.464 224.532V225.636H374.236V224.532H371.464ZM371.464 222.804V223.884H374.236V222.804H371.464ZM370.804 222.132H374.932V226.308H370.804V222.132ZM384.736 219.864H388.132V220.776H384.736V219.864ZM387.676 219.864H388.588C388.588 220.216 388.604 220.632 388.636 221.112C388.668 221.592 388.736 222.108 388.84 222.66C388.944 223.204 389.104 223.772 389.32 224.364C389.536 224.956 389.828 225.548 390.196 226.14C390.564 226.724 391.024 227.292 391.576 227.844C392.136 228.396 392.812 228.904 393.604 229.368C393.54 229.424 393.456 229.496 393.352 229.584C393.256 229.68 393.164 229.776 393.076 229.872C392.996 229.976 392.928 230.064 392.872 230.136C392.072 229.648 391.384 229.112 390.808 228.528C390.24 227.936 389.764 227.32 389.38 226.68C389.004 226.04 388.7 225.4 388.468 224.76C388.244 224.112 388.072 223.488 387.952 222.888C387.84 222.28 387.764 221.716 387.724 221.196C387.692 220.676 387.676 220.232 387.676 219.864ZM387.328 222.216L388.348 222.396C388.06 223.612 387.684 224.708 387.22 225.684C386.764 226.66 386.208 227.52 385.552 228.264C384.904 229 384.136 229.628 383.248 230.148C383.2 230.084 383.124 230.008 383.02 229.92C382.924 229.832 382.82 229.74 382.708 229.644C382.604 229.556 382.512 229.484 382.432 229.428C383.768 228.724 384.828 227.772 385.612 226.572C386.396 225.364 386.968 223.912 387.328 222.216ZM395.152 220.02L395.56 219.396C395.84 219.468 396.136 219.56 396.448 219.672C396.76 219.776 397.06 219.888 397.348 220.008C397.644 220.12 397.888 220.224 398.08 220.32L397.684 221.028C397.492 220.916 397.252 220.8 396.964 220.68C396.676 220.56 396.372 220.44 396.052 220.32C395.732 220.2 395.432 220.1 395.152 220.02ZM394.552 222.552C394.984 222.44 395.5 222.3 396.1 222.132C396.708 221.964 397.32 221.796 397.936 221.628L398.032 222.348C397.496 222.524 396.952 222.7 396.4 222.876C395.856 223.044 395.36 223.196 394.912 223.332L394.552 222.552ZM399.712 220.008H404.524V220.692H399.184L399.712 220.008ZM404.296 220.008H404.44L404.584 219.972L405.196 220.152C405.028 220.464 404.836 220.776 404.62 221.088C404.412 221.4 404.2 221.66 403.984 221.868L403.264 221.616C403.448 221.424 403.636 221.196 403.828 220.932C404.02 220.66 404.176 220.396 404.296 220.14V220.008ZM401.2 220.26H402.028C401.956 220.684 401.848 221.064 401.704 221.4C401.568 221.728 401.368 222.02 401.104 222.276C400.848 222.532 400.512 222.752 400.096 222.936C399.68 223.112 399.168 223.26 398.56 223.38C398.52 223.284 398.456 223.172 398.368 223.044C398.28 222.916 398.2 222.812 398.128 222.732C398.68 222.644 399.14 222.528 399.508 222.384C399.884 222.24 400.184 222.072 400.408 221.88C400.64 221.68 400.816 221.448 400.936 221.184C401.064 220.912 401.152 220.604 401.2 220.26ZM401.992 220.464C402.048 220.72 402.136 220.972 402.256 221.22C402.384 221.46 402.572 221.688 402.82 221.904C403.068 222.12 403.404 222.308 403.828 222.468C404.26 222.628 404.812 222.756 405.484 222.852C405.404 222.94 405.316 223.06 405.22 223.212C405.124 223.356 405.056 223.484 405.016 223.596C404.304 223.468 403.72 223.3 403.264 223.092C402.808 222.876 402.448 222.632 402.184 222.36C401.92 222.08 401.716 221.788 401.572 221.484C401.436 221.172 401.328 220.86 401.248 220.548L401.992 220.464ZM399.904 219.132L400.708 219.252C400.508 219.692 400.248 220.128 399.928 220.56C399.616 220.984 399.228 221.376 398.764 221.736C398.684 221.656 398.576 221.572 398.44 221.484C398.312 221.396 398.192 221.332 398.08 221.292C398.528 220.98 398.904 220.632 399.208 220.248C399.512 219.856 399.744 219.484 399.904 219.132ZM397.048 225.396V226.224H403.096V225.396H397.048ZM397.048 226.8V227.64H403.096V226.8H397.048ZM397.048 224.004V224.808H403.096V224.004H397.048ZM396.172 223.392H403.996V228.24H396.172V223.392ZM401.008 228.864L401.74 228.408C402.18 228.544 402.624 228.688 403.072 228.84C403.52 228.992 403.944 229.144 404.344 229.296C404.744 229.456 405.088 229.604 405.376 229.74L404.368 230.196C404.12 230.068 403.816 229.928 403.456 229.776C403.096 229.624 402.708 229.468 402.292 229.308C401.876 229.156 401.448 229.008 401.008 228.864ZM398.176 228.372L399.004 228.744C398.676 228.936 398.3 229.124 397.876 229.308C397.46 229.492 397.028 229.66 396.58 229.812C396.132 229.964 395.708 230.096 395.308 230.208C395.26 230.144 395.196 230.068 395.116 229.98C395.036 229.9 394.952 229.816 394.864 229.728C394.784 229.648 394.708 229.584 394.636 229.536C395.052 229.448 395.476 229.344 395.908 229.224C396.348 229.104 396.764 228.972 397.156 228.828C397.548 228.684 397.888 228.532 398.176 228.372ZM408.496 219.168H409.336V230.16H408.496V219.168ZM406.564 223.164H411.304V224.004H406.564V223.164ZM408.376 223.608L408.916 223.836C408.812 224.252 408.68 224.684 408.52 225.132C408.368 225.572 408.2 226.008 408.016 226.44C407.832 226.872 407.64 227.28 407.44 227.664C407.24 228.04 407.04 228.364 406.84 228.636C406.808 228.548 406.764 228.452 406.708 228.348C406.66 228.244 406.604 228.14 406.54 228.036C406.484 227.924 406.428 227.832 406.372 227.76C406.628 227.448 406.884 227.056 407.14 226.584C407.404 226.112 407.644 225.616 407.86 225.096C408.076 224.568 408.248 224.072 408.376 223.608ZM409.324 224.16C409.388 224.232 409.48 224.348 409.6 224.508C409.728 224.668 409.868 224.848 410.02 225.048C410.18 225.248 410.336 225.448 410.488 225.648C410.64 225.848 410.776 226.032 410.896 226.2C411.016 226.36 411.1 226.48 411.148 226.56L410.548 227.268C410.476 227.108 410.368 226.904 410.224 226.656C410.08 226.4 409.92 226.136 409.744 225.864C409.576 225.584 409.412 225.324 409.252 225.084C409.1 224.844 408.976 224.66 408.88 224.532L409.324 224.16ZM406.648 220.068L407.308 219.888C407.428 220.168 407.532 220.468 407.62 220.788C407.716 221.108 407.8 221.42 407.872 221.724C407.944 222.028 407.992 222.304 408.016 222.552L407.296 222.732C407.288 222.492 407.248 222.22 407.176 221.916C407.112 221.604 407.032 221.288 406.936 220.968C406.848 220.64 406.752 220.34 406.648 220.068ZM410.524 219.852L411.316 220.056C411.22 220.352 411.112 220.668 410.992 221.004C410.88 221.332 410.764 221.652 410.644 221.964C410.532 222.268 410.424 222.536 410.32 222.768L409.732 222.576C409.828 222.336 409.924 222.056 410.02 221.736C410.124 221.408 410.22 221.08 410.308 220.752C410.404 220.416 410.476 220.116 410.524 219.852ZM415.18 219.132H416.044V230.16H415.18V219.132ZM411.28 226.776L417.448 225.66L417.592 226.488L411.436 227.604L411.28 226.776ZM412.192 220.608L412.648 219.984C412.88 220.12 413.116 220.276 413.356 220.452C413.604 220.62 413.836 220.792 414.052 220.968C414.268 221.144 414.44 221.308 414.568 221.46L414.088 222.144C413.968 221.992 413.8 221.824 413.584 221.64C413.376 221.456 413.148 221.272 412.9 221.088C412.66 220.904 412.424 220.744 412.192 220.608ZM411.58 223.632L412 222.996C412.24 223.116 412.488 223.256 412.744 223.416C413 223.568 413.244 223.728 413.476 223.896C413.708 224.056 413.892 224.208 414.028 224.352L413.584 225.072C413.44 224.928 413.256 224.772 413.032 224.604C412.808 224.428 412.568 224.256 412.312 224.088C412.064 223.912 411.82 223.76 411.58 223.632Z" fill="#3C4043"/>
<circle cx="358" cy="251.903" r="3.5" fill="#3CC3DF" stroke="#1A1F26"/>
<path d="M370.66 247.211H381.352V248.111H370.66V247.211ZM375.292 247.919H376.24V257.351H375.292V247.919ZM375.808 250.763L376.408 250.079C376.768 250.247 377.148 250.439 377.548 250.655C377.948 250.871 378.344 251.095 378.736 251.327C379.128 251.551 379.492 251.771 379.828 251.987C380.172 252.203 380.464 252.403 380.704 252.587L380.068 253.403C379.836 253.219 379.552 253.015 379.216 252.791C378.888 252.559 378.528 252.327 378.136 252.095C377.752 251.855 377.36 251.623 376.96 251.399C376.56 251.167 376.176 250.955 375.808 250.763ZM387.496 250.163H388.432V257.363H387.496V250.163ZM384.784 252.179V253.223H391.312V252.179H384.784ZM384.784 250.463V251.495H391.312V250.463H384.784ZM383.896 249.743H392.224V253.955H383.896V249.743ZM382.696 254.867H393.34V255.671H382.696V254.867ZM384.4 247.403V248.531H386.692V247.403H384.4ZM383.572 246.791H387.544V249.131H383.572V246.791ZM389.32 247.403V248.531H391.66V247.403H389.32ZM388.516 246.791H392.512V249.131H388.516V246.791Z" fill="#3C4043"/>
<path d="M351.313 151V149.858L354.343 146.888C354.632 146.595 354.874 146.335 355.067 146.108C355.26 145.881 355.405 145.661 355.502 145.447C355.598 145.234 355.646 145.007 355.646 144.766C355.646 144.49 355.584 144.254 355.459 144.058C355.334 143.859 355.162 143.706 354.943 143.598C354.725 143.49 354.476 143.436 354.198 143.436C353.911 143.436 353.659 143.496 353.443 143.615C353.227 143.732 353.06 143.898 352.941 144.114C352.824 144.33 352.766 144.587 352.766 144.885H351.262C351.262 144.331 351.388 143.849 351.641 143.44C351.894 143.031 352.242 142.714 352.685 142.49C353.131 142.266 353.642 142.153 354.219 142.153C354.804 142.153 355.318 142.263 355.762 142.482C356.205 142.7 356.548 143 356.793 143.381C357.04 143.761 357.164 144.196 357.164 144.685C357.164 145.011 357.101 145.332 356.976 145.648C356.851 145.963 356.631 146.312 356.316 146.696C356.003 147.08 355.564 147.544 354.999 148.089L353.494 149.619V149.679H357.296V151H351.313ZM361.992 151.166C361.29 151.166 360.688 150.989 360.185 150.634C359.685 150.276 359.3 149.76 359.03 149.087C358.763 148.411 358.629 147.597 358.629 146.645C358.632 145.693 358.767 144.884 359.034 144.216C359.304 143.545 359.689 143.034 360.189 142.682C360.692 142.33 361.293 142.153 361.992 142.153C362.691 142.153 363.291 142.33 363.794 142.682C364.297 143.034 364.682 143.545 364.949 144.216C365.219 144.886 365.354 145.696 365.354 146.645C365.354 147.599 365.219 148.415 364.949 149.091C364.682 149.764 364.297 150.278 363.794 150.634C363.294 150.989 362.693 151.166 361.992 151.166ZM361.992 149.832C362.537 149.832 362.968 149.564 363.283 149.027C363.601 148.487 363.76 147.693 363.76 146.645C363.76 145.952 363.688 145.369 363.543 144.898C363.398 144.426 363.193 144.071 362.929 143.832C362.665 143.591 362.352 143.47 361.992 143.47C361.449 143.47 361.02 143.74 360.705 144.28C360.389 144.817 360.23 145.605 360.227 146.645C360.225 147.341 360.294 147.926 360.436 148.401C360.581 148.875 360.786 149.233 361.05 149.474C361.314 149.713 361.628 149.832 361.992 149.832ZM366.77 151V149.858L369.8 146.888C370.089 146.595 370.331 146.335 370.524 146.108C370.717 145.881 370.862 145.661 370.959 145.447C371.055 145.234 371.104 145.007 371.104 144.766C371.104 144.49 371.041 144.254 370.916 144.058C370.791 143.859 370.619 143.706 370.4 143.598C370.182 143.49 369.933 143.436 369.655 143.436C369.368 143.436 369.116 143.496 368.9 143.615C368.684 143.732 368.517 143.898 368.398 144.114C368.281 144.33 368.223 144.587 368.223 144.885H366.719C366.719 144.331 366.845 143.849 367.098 143.44C367.351 143.031 367.699 142.714 368.142 142.49C368.588 142.266 369.099 142.153 369.676 142.153C370.261 142.153 370.775 142.263 371.219 142.482C371.662 142.7 372.006 143 372.25 143.381C372.497 143.761 372.621 144.196 372.621 144.685C372.621 145.011 372.558 145.332 372.433 145.648C372.308 145.963 372.088 146.312 371.773 146.696C371.46 147.08 371.021 147.544 370.456 148.089L368.952 149.619V149.679H372.753V151H366.77ZM377.449 151.166C376.747 151.166 376.145 150.989 375.642 150.634C375.142 150.276 374.757 149.76 374.487 149.087C374.22 148.411 374.086 147.597 374.086 146.645C374.089 145.693 374.224 144.884 374.491 144.216C374.761 143.545 375.146 143.034 375.646 142.682C376.149 142.33 376.75 142.153 377.449 142.153C378.148 142.153 378.748 142.33 379.251 142.682C379.754 143.034 380.139 143.545 380.406 144.216C380.676 144.886 380.811 145.696 380.811 146.645C380.811 147.599 380.676 148.415 380.406 149.091C380.139 149.764 379.754 150.278 379.251 150.634C378.751 150.989 378.15 151.166 377.449 151.166ZM377.449 149.832C377.994 149.832 378.425 149.564 378.74 149.027C379.058 148.487 379.217 147.693 379.217 146.645C379.217 145.952 379.145 145.369 379 144.898C378.855 144.426 378.65 144.071 378.386 143.832C378.122 143.591 377.809 143.47 377.449 143.47C376.906 143.47 376.477 143.74 376.162 144.28C375.846 144.817 375.687 145.605 375.684 146.645C375.682 147.341 375.751 147.926 375.893 148.401C376.038 148.875 376.243 149.233 376.507 149.474C376.771 149.713 377.085 149.832 377.449 149.832ZM386.211 146.001V147.271H382.282V146.001H386.211ZM387.512 151V149.858L390.542 146.888C390.831 146.595 391.073 146.335 391.266 146.108C391.459 145.881 391.604 145.661 391.701 145.447C391.797 145.234 391.846 145.007 391.846 144.766C391.846 144.49 391.783 144.254 391.658 144.058C391.533 143.859 391.361 143.706 391.143 143.598C390.924 143.49 390.675 143.436 390.397 143.436C390.11 143.436 389.858 143.496 389.643 143.615C389.427 143.732 389.259 143.898 389.14 144.114C389.023 144.33 388.965 144.587 388.965 144.885H387.461C387.461 144.331 387.587 143.849 387.84 143.44C388.093 143.031 388.441 142.714 388.884 142.49C389.33 142.266 389.841 142.153 390.418 142.153C391.003 142.153 391.518 142.263 391.961 142.482C392.404 142.7 392.748 143 392.992 143.381C393.239 143.761 393.363 144.196 393.363 144.685C393.363 145.011 393.3 145.332 393.175 145.648C393.05 145.963 392.83 146.312 392.515 146.696C392.202 147.08 391.763 147.544 391.198 148.089L389.694 149.619V149.679H393.495V151H387.512ZM398.191 151.166C397.489 151.166 396.887 150.989 396.384 150.634C395.884 150.276 395.499 149.76 395.229 149.087C394.962 148.411 394.829 147.597 394.829 146.645C394.831 145.693 394.966 144.884 395.233 144.216C395.503 143.545 395.888 143.034 396.388 142.682C396.891 142.33 397.492 142.153 398.191 142.153C398.89 142.153 399.491 142.33 399.993 142.682C400.496 143.034 400.881 143.545 401.148 144.216C401.418 144.886 401.553 145.696 401.553 146.645C401.553 147.599 401.418 148.415 401.148 149.091C400.881 149.764 400.496 150.278 399.993 150.634C399.493 150.989 398.893 151.166 398.191 151.166ZM398.191 149.832C398.736 149.832 399.167 149.564 399.482 149.027C399.8 148.487 399.959 147.693 399.959 146.645C399.959 145.952 399.887 145.369 399.742 144.898C399.597 144.426 399.393 144.071 399.128 143.832C398.864 143.591 398.552 143.47 398.191 143.47C397.648 143.47 397.219 143.74 396.904 144.28C396.589 144.817 396.43 145.605 396.427 146.645C396.424 147.341 396.493 147.926 396.635 148.401C396.78 148.875 396.985 149.233 397.249 149.474C397.513 149.713 397.827 149.832 398.191 149.832ZM402.969 151V149.858L405.999 146.888C406.289 146.595 406.53 146.335 406.723 146.108C406.916 145.881 407.061 145.661 407.158 145.447C407.254 145.234 407.303 145.007 407.303 144.766C407.303 144.49 407.24 144.254 407.115 144.058C406.99 143.859 406.818 143.706 406.6 143.598C406.381 143.49 406.132 143.436 405.854 143.436C405.567 143.436 405.316 143.496 405.1 143.615C404.884 143.732 404.716 143.898 404.597 144.114C404.48 144.33 404.422 144.587 404.422 144.885H402.918C402.918 144.331 403.044 143.849 403.297 143.44C403.55 143.031 403.898 142.714 404.341 142.49C404.787 142.266 405.298 142.153 405.875 142.153C406.46 142.153 406.975 142.263 407.418 142.482C407.861 142.7 408.205 143 408.449 143.381C408.696 143.761 408.82 144.196 408.82 144.685C408.82 145.011 408.757 145.332 408.632 145.648C408.507 145.963 408.287 146.312 407.972 146.696C407.659 147.08 407.22 147.544 406.655 148.089L405.151 149.619V149.679H408.952V151H402.969ZM413.554 151.119C412.941 151.119 412.395 151.014 411.918 150.804C411.443 150.594 411.068 150.301 410.793 149.926C410.517 149.551 410.371 149.118 410.354 148.626H411.956C411.97 148.862 412.048 149.068 412.191 149.244C412.333 149.418 412.521 149.553 412.757 149.649C412.993 149.746 413.257 149.794 413.55 149.794C413.862 149.794 414.139 149.74 414.381 149.632C414.622 149.521 414.811 149.368 414.948 149.172C415.084 148.976 415.151 148.75 415.148 148.494C415.151 148.23 415.083 147.997 414.943 147.795C414.804 147.594 414.602 147.436 414.338 147.322C414.077 147.209 413.762 147.152 413.392 147.152H412.621V145.933H413.392C413.696 145.933 413.962 145.881 414.189 145.776C414.419 145.67 414.6 145.523 414.73 145.332C414.861 145.139 414.925 144.916 414.922 144.663C414.925 144.416 414.869 144.202 414.756 144.02C414.645 143.835 414.487 143.692 414.283 143.589C414.081 143.487 413.844 143.436 413.571 143.436C413.304 143.436 413.057 143.484 412.83 143.581C412.602 143.678 412.419 143.815 412.28 143.994C412.141 144.17 412.067 144.381 412.058 144.625H410.537C410.548 144.136 410.689 143.707 410.959 143.338C411.232 142.966 411.595 142.676 412.05 142.469C412.504 142.259 413.014 142.153 413.58 142.153C414.162 142.153 414.668 142.263 415.097 142.482C415.529 142.697 415.862 142.989 416.098 143.355C416.334 143.722 416.452 144.126 416.452 144.57C416.455 145.061 416.31 145.473 416.017 145.805C415.727 146.138 415.347 146.355 414.875 146.457V146.526C415.489 146.611 415.959 146.838 416.286 147.207C416.615 147.574 416.779 148.03 416.776 148.575C416.776 149.064 416.637 149.501 416.358 149.888C416.083 150.271 415.702 150.572 415.216 150.791C414.733 151.01 414.179 151.119 413.554 151.119ZM351.936 157.252H359.532V158.536H351.936V157.252ZM354.864 155.8H356.328V157.864H354.864V155.8ZM354.864 161.728H356.124V166.552H354.864V161.728ZM352.872 161.608H354.156V162.796C354.156 163.132 354.136 163.484 354.096 163.852C354.064 164.22 353.984 164.592 353.856 164.968C353.736 165.344 353.556 165.704 353.316 166.048C353.076 166.4 352.752 166.728 352.344 167.032C352.28 166.936 352.188 166.828 352.068 166.708C351.948 166.588 351.82 166.472 351.684 166.36C351.556 166.248 351.436 166.16 351.324 166.096C351.788 165.76 352.128 165.4 352.344 165.016C352.56 164.632 352.7 164.244 352.764 163.852C352.836 163.46 352.872 163.092 352.872 162.748V161.608ZM354.18 157.96L355.692 158.392C355.54 158.672 355.384 158.956 355.224 159.244C355.064 159.532 354.908 159.808 354.756 160.072C354.604 160.328 354.46 160.556 354.324 160.756L353.16 160.348C353.288 160.132 353.416 159.884 353.544 159.604C353.672 159.324 353.792 159.04 353.904 158.752C354.024 158.464 354.116 158.2 354.18 157.96ZM356.544 159.172L357.648 158.596C357.912 158.836 358.176 159.108 358.44 159.412C358.712 159.708 358.96 160.004 359.184 160.3C359.416 160.596 359.596 160.872 359.724 161.128L358.512 161.776C358.408 161.536 358.248 161.264 358.032 160.96C357.816 160.656 357.576 160.348 357.312 160.036C357.056 159.724 356.8 159.436 356.544 159.172ZM352.008 159.964C352.536 159.956 353.144 159.944 353.832 159.928C354.52 159.904 355.248 159.884 356.016 159.868C356.784 159.844 357.548 159.816 358.308 159.784L358.272 160.996C357.552 161.036 356.824 161.076 356.088 161.116C355.36 161.156 354.66 161.192 353.988 161.224C353.316 161.256 352.704 161.284 352.152 161.308L352.008 159.964ZM349.032 156.916L349.812 155.86C350.06 155.956 350.32 156.072 350.592 156.208C350.872 156.344 351.136 156.484 351.384 156.628C351.64 156.772 351.844 156.916 351.996 157.06L351.168 158.236C351.024 158.092 350.832 157.94 350.592 157.78C350.352 157.62 350.092 157.464 349.812 157.312C349.54 157.16 349.28 157.028 349.032 156.916ZM348.336 160.192L349.104 159.1C349.36 159.188 349.628 159.296 349.908 159.424C350.188 159.552 350.456 159.688 350.712 159.832C350.968 159.976 351.176 160.116 351.336 160.252L350.508 161.452C350.364 161.316 350.168 161.172 349.92 161.02C349.672 160.86 349.408 160.708 349.128 160.564C348.856 160.42 348.592 160.296 348.336 160.192ZM348.684 166.012C348.884 165.7 349.108 165.336 349.356 164.92C349.604 164.496 349.856 164.048 350.112 163.576C350.368 163.104 350.608 162.632 350.832 162.16L351.924 163.06C351.724 163.484 351.512 163.92 351.288 164.368C351.072 164.816 350.848 165.256 350.616 165.688C350.392 166.112 350.168 166.52 349.944 166.912L348.684 166.012ZM356.844 161.608H358.176V165.352C358.176 165.552 358.188 165.668 358.212 165.7C358.228 165.716 358.244 165.732 358.26 165.748C358.284 165.756 358.308 165.76 358.332 165.76C358.364 165.76 358.396 165.76 358.428 165.76C358.468 165.76 358.5 165.76 358.524 165.76C358.556 165.76 358.588 165.756 358.62 165.748C358.652 165.74 358.672 165.728 358.68 165.712C358.72 165.688 358.752 165.584 358.776 165.4C358.784 165.304 358.788 165.156 358.788 164.956C358.796 164.756 358.804 164.52 358.812 164.248C358.924 164.352 359.072 164.456 359.256 164.56C359.448 164.656 359.624 164.732 359.784 164.788C359.776 165.052 359.756 165.32 359.724 165.592C359.7 165.864 359.672 166.064 359.64 166.192C359.56 166.448 359.424 166.632 359.232 166.744C359.152 166.792 359.048 166.828 358.92 166.852C358.8 166.884 358.684 166.9 358.572 166.9C358.484 166.9 358.376 166.9 358.248 166.9C358.128 166.9 358.028 166.9 357.948 166.9C357.812 166.9 357.668 166.876 357.516 166.828C357.364 166.78 357.24 166.704 357.144 166.6C357.04 166.496 356.964 166.356 356.916 166.18C356.868 166.012 356.844 165.724 356.844 165.316V161.608ZM367.512 161.584H368.952V166.42H367.512V161.584ZM365.124 161.056H371.364V162.292H365.124V161.056ZM364.656 165.556H371.628V166.816H364.656V165.556ZM365.412 163.288H371.076V164.5H365.412V163.288ZM366.84 157.468V159.124H369.648V157.468H366.84ZM365.508 156.256H371.04V160.336H365.508V156.256ZM362.22 156.928H363.612V167.068H362.22V156.928ZM360.492 159.184H364.896V160.516H360.492V159.184ZM362.292 159.724L363.132 160.084C363.02 160.516 362.884 160.964 362.724 161.428C362.564 161.892 362.388 162.352 362.196 162.808C362.004 163.256 361.8 163.68 361.584 164.08C361.368 164.48 361.144 164.828 360.912 165.124C360.84 164.916 360.736 164.684 360.6 164.428C360.472 164.164 360.352 163.94 360.24 163.756C360.448 163.516 360.652 163.236 360.852 162.916C361.06 162.588 361.256 162.24 361.44 161.872C361.624 161.504 361.788 161.136 361.932 160.768C362.076 160.4 362.196 160.052 362.292 159.724ZM364.08 155.932L365.052 157.036C364.644 157.188 364.196 157.328 363.708 157.456C363.22 157.584 362.72 157.696 362.208 157.792C361.704 157.88 361.22 157.956 360.756 158.02C360.724 157.86 360.668 157.676 360.588 157.468C360.508 157.252 360.428 157.068 360.348 156.916C360.788 156.844 361.236 156.76 361.692 156.664C362.156 156.56 362.592 156.444 363 156.316C363.416 156.188 363.776 156.06 364.08 155.932ZM363.588 160.852C363.66 160.908 363.768 161.012 363.912 161.164C364.064 161.308 364.224 161.468 364.392 161.644C364.568 161.82 364.724 161.984 364.86 162.136C364.996 162.28 365.096 162.384 365.16 162.448L364.332 163.588C364.26 163.436 364.164 163.264 364.044 163.072C363.932 162.88 363.808 162.68 363.672 162.472C363.544 162.264 363.416 162.068 363.288 161.884C363.16 161.692 363.048 161.536 362.952 161.416L363.588 160.852ZM372.624 157H377.124V158.212H372.624V157ZM377.568 159.868L382.98 159.028L383.196 160.3L377.784 161.164L377.568 159.868ZM377.34 162.544L383.472 161.62L383.652 162.892L377.532 163.84L377.34 162.544ZM381.84 155.812L383.016 156.772C382.544 157.044 382.016 157.3 381.432 157.54C380.848 157.772 380.244 157.98 379.62 158.164C379.004 158.348 378.396 158.512 377.796 158.656C377.756 158.504 377.688 158.324 377.592 158.116C377.504 157.9 377.416 157.72 377.328 157.576C377.888 157.44 378.448 157.28 379.008 157.096C379.568 156.904 380.092 156.7 380.58 156.484C381.076 156.268 381.496 156.044 381.84 155.812ZM379.392 157.756H380.784V165.064C380.784 165.336 380.804 165.512 380.844 165.592C380.892 165.664 381 165.7 381.168 165.7C381.2 165.7 381.256 165.7 381.336 165.7C381.424 165.7 381.516 165.7 381.612 165.7C381.716 165.7 381.808 165.7 381.888 165.7C381.976 165.7 382.04 165.7 382.08 165.7C382.192 165.7 382.276 165.656 382.332 165.568C382.388 165.472 382.428 165.304 382.452 165.064C382.476 164.824 382.496 164.476 382.512 164.02C382.664 164.132 382.856 164.244 383.088 164.356C383.328 164.46 383.54 164.536 383.724 164.584C383.684 165.16 383.612 165.62 383.508 165.964C383.404 166.308 383.248 166.552 383.04 166.696C382.84 166.84 382.56 166.912 382.2 166.912C382.144 166.912 382.056 166.912 381.936 166.912C381.816 166.912 381.688 166.912 381.552 166.912C381.424 166.912 381.3 166.912 381.18 166.912C381.068 166.912 380.984 166.912 380.928 166.912C380.52 166.912 380.204 166.856 379.98 166.744C379.764 166.64 379.612 166.452 379.524 166.18C379.436 165.908 379.392 165.532 379.392 165.052V157.756ZM372.456 160.984H377.4V162.22H372.456V160.984ZM372.828 158.98H376.896V160.18H372.828V158.98ZM374.352 155.8H375.684V167.068H374.352V155.8ZM374.4 161.44L375.312 161.872C375.136 162.32 374.92 162.788 374.664 163.276C374.408 163.764 374.128 164.224 373.824 164.656C373.52 165.088 373.204 165.448 372.876 165.736C372.812 165.544 372.716 165.32 372.588 165.064C372.468 164.808 372.356 164.592 372.252 164.416C372.532 164.184 372.808 163.9 373.08 163.564C373.36 163.228 373.616 162.876 373.848 162.508C374.08 162.132 374.264 161.776 374.4 161.44ZM375.564 161.884C375.652 161.964 375.784 162.1 375.96 162.292C376.144 162.476 376.336 162.684 376.536 162.916C376.744 163.14 376.932 163.348 377.1 163.54C377.268 163.724 377.388 163.864 377.46 163.96L376.56 165.052C376.456 164.884 376.324 164.688 376.164 164.464C376.012 164.232 375.848 163.996 375.672 163.756C375.504 163.516 375.34 163.292 375.18 163.084C375.02 162.868 374.88 162.688 374.76 162.544L375.564 161.884ZM389.136 157.084H395.28V158.332H389.136V157.084ZM388.74 159.388H395.628V160.648H388.74V159.388ZM388.764 161.668H395.544V162.928H388.764V161.668ZM391.452 155.788H392.88V160.204H391.452V155.788ZM392.976 160.588H394.392V165.556C394.392 165.9 394.348 166.168 394.26 166.36C394.172 166.56 394.012 166.716 393.78 166.828C393.548 166.932 393.264 166.996 392.928 167.02C392.6 167.052 392.212 167.068 391.764 167.068C391.732 166.868 391.672 166.636 391.584 166.372C391.496 166.116 391.404 165.896 391.308 165.712C391.604 165.72 391.892 165.728 392.172 165.736C392.452 165.736 392.64 165.736 392.736 165.736C392.824 165.736 392.884 165.724 392.916 165.7C392.956 165.668 392.976 165.608 392.976 165.52V160.588ZM389.244 163.744L390.384 163.084C390.576 163.268 390.768 163.476 390.96 163.708C391.152 163.94 391.328 164.172 391.488 164.404C391.648 164.636 391.772 164.848 391.86 165.04L390.612 165.772C390.548 165.58 390.44 165.368 390.288 165.136C390.136 164.896 389.968 164.656 389.784 164.416C389.608 164.168 389.428 163.944 389.244 163.744ZM385.44 156.544H388.524V164.752H385.44V163.468H387.192V157.828H385.44V156.544ZM385.512 159.952H387.84V161.212H385.512V159.952ZM384.756 156.544H386.088V165.82H384.756V156.544ZM398.784 159.376H401.808V160.78H398.784V159.376ZM397.908 155.944H399.408V165.676L397.908 166.024V155.944ZM396.396 165.328C396.876 165.248 397.42 165.152 398.028 165.04C398.636 164.92 399.276 164.792 399.948 164.656C400.62 164.512 401.284 164.372 401.94 164.236L402.072 165.64C401.472 165.776 400.86 165.916 400.236 166.06C399.612 166.204 399.008 166.336 398.424 166.456C397.84 166.584 397.3 166.704 396.804 166.816L396.396 165.328ZM406.476 158.428L407.472 159.688C407.064 159.904 406.632 160.116 406.176 160.324C405.72 160.524 405.256 160.716 404.784 160.9C404.32 161.084 403.868 161.256 403.428 161.416C403.388 161.248 403.32 161.056 403.224 160.84C403.128 160.616 403.032 160.428 402.936 160.276C403.352 160.108 403.772 159.924 404.196 159.724C404.628 159.516 405.04 159.3 405.432 159.076C405.824 158.852 406.172 158.636 406.476 158.428ZM402.492 155.944H403.98V164.704C403.98 165.056 404.008 165.276 404.064 165.364C404.128 165.452 404.272 165.496 404.496 165.496C404.552 165.496 404.636 165.496 404.748 165.496C404.868 165.496 404.996 165.496 405.132 165.496C405.276 165.496 405.408 165.496 405.528 165.496C405.656 165.496 405.748 165.496 405.804 165.496C405.964 165.496 406.08 165.44 406.152 165.328C406.232 165.208 406.288 165 406.32 164.704C406.36 164.408 406.392 163.988 406.416 163.444C406.592 163.564 406.808 163.684 407.064 163.804C407.328 163.924 407.56 164.012 407.76 164.068C407.712 164.748 407.628 165.296 407.508 165.712C407.388 166.128 407.204 166.428 406.956 166.612C406.716 166.804 406.376 166.9 405.936 166.9C405.88 166.9 405.796 166.9 405.684 166.9C405.572 166.9 405.448 166.9 405.312 166.9C405.176 166.9 405.04 166.9 404.904 166.9C404.768 166.9 404.644 166.9 404.532 166.9C404.428 166.9 404.344 166.9 404.28 166.9C403.816 166.9 403.452 166.836 403.188 166.708C402.932 166.58 402.752 166.352 402.648 166.024C402.544 165.704 402.492 165.26 402.492 164.692V155.944ZM411.732 156.328H416.004V157.588H411.732V156.328ZM412.944 158.884H414.984V160.132H412.56L412.944 158.884ZM412.212 162.196L412.824 161.116C412.984 161.22 413.148 161.34 413.316 161.476C413.492 161.612 413.656 161.748 413.808 161.884C413.96 162.012 414.08 162.132 414.168 162.244L413.532 163.444C413.452 163.324 413.336 163.192 413.184 163.048C413.032 162.896 412.872 162.748 412.704 162.604C412.536 162.452 412.372 162.316 412.212 162.196ZM415.92 157.204H417.192V164.224H415.92V157.204ZM417.936 156.04H419.28V165.448C419.28 165.824 419.236 166.116 419.148 166.324C419.068 166.532 418.916 166.692 418.692 166.804C418.476 166.916 418.196 166.992 417.852 167.032C417.516 167.072 417.108 167.092 416.628 167.092C416.604 166.9 416.548 166.664 416.46 166.384C416.38 166.112 416.292 165.876 416.196 165.676C416.516 165.692 416.816 165.704 417.096 165.712C417.384 165.712 417.576 165.708 417.672 165.7C417.768 165.692 417.836 165.672 417.876 165.64C417.916 165.6 417.936 165.532 417.936 165.436V156.04ZM412.62 156.784L413.988 156.964C413.9 157.516 413.792 158.088 413.664 158.68C413.544 159.264 413.392 159.84 413.208 160.408C413.032 160.968 412.816 161.5 412.56 162.004C412.312 162.5 412.02 162.948 411.684 163.348C411.628 163.244 411.548 163.128 411.444 163C411.348 162.872 411.244 162.748 411.132 162.628C411.028 162.508 410.932 162.408 410.844 162.328C411.116 161.992 411.352 161.604 411.552 161.164C411.76 160.716 411.932 160.24 412.068 159.736C412.212 159.232 412.328 158.728 412.416 158.224C412.504 157.72 412.572 157.24 412.62 156.784ZM414.444 158.884H414.708L414.936 158.848L415.764 159.088C415.548 161.04 415.132 162.692 414.516 164.044C413.908 165.388 413.14 166.4 412.212 167.08C412.156 166.968 412.072 166.84 411.96 166.696C411.856 166.552 411.744 166.412 411.624 166.276C411.512 166.148 411.408 166.048 411.312 165.976C412.184 165.384 412.884 164.516 413.412 163.372C413.94 162.22 414.284 160.816 414.444 159.16V158.884ZM410.52 155.824L411.852 156.22C411.628 156.916 411.356 157.62 411.036 158.332C410.724 159.036 410.38 159.708 410.004 160.348C409.636 160.98 409.244 161.536 408.828 162.016C408.796 161.896 408.74 161.74 408.66 161.548C408.58 161.348 408.492 161.148 408.396 160.948C408.3 160.748 408.216 160.584 408.144 160.456C408.464 160.072 408.772 159.636 409.068 159.148C409.372 158.652 409.648 158.12 409.896 157.552C410.144 156.984 410.352 156.408 410.52 155.824ZM409.56 159.124L410.856 157.828L410.88 157.852V167.068H409.56V159.124Z" fill="#5F6367"/>
</svg>
