<svg width="423" height="344" viewBox="0 0 423 344" fill="none" xmlns="http://www.w3.org/2000/svg">
<path d="M34.8935 266.321C19.0235 245.103 8.75164 220.214 5.02907 193.96C1.30649 167.706 4.25356 140.934 13.5974 116.125C22.9412 91.3156 38.3797 69.2703 58.4832 52.0305C78.5868 34.7906 102.705 22.9135 128.606 17.499L147.87 110.071C137.51 112.236 127.863 116.987 119.821 123.883C111.78 130.779 105.604 139.597 101.867 149.521C98.1293 159.445 96.9505 170.153 98.4395 180.655C99.9286 191.157 104.037 201.112 110.385 209.599L34.8935 266.321Z" fill="#3CC3DF"/>
<path d="M127.026 17.8377C167.763 8.88307 210.38 16.5146 245.503 39.0534C280.625 61.5922 305.376 97.1921 314.311 138.021C323.245 178.851 315.631 221.565 293.143 256.768C270.656 291.97 235.137 316.778 194.4 325.732L174.188 233.364C190.483 229.782 204.69 219.859 213.685 205.778C222.68 191.697 225.726 174.611 222.152 158.28C218.578 141.948 208.678 127.708 194.629 118.692C180.58 109.677 163.533 106.624 147.238 110.206L127.026 17.8377Z" fill="#00ADB5"/>
<path d="M194.17 325.783C164.691 332.216 133.987 330.015 105.722 319.44C77.4569 308.865 52.8237 290.364 34.761 266.143L110.332 209.528C117.557 219.217 127.411 226.617 138.717 230.847C150.023 235.077 162.304 235.958 174.096 233.384L194.17 325.783Z" fill="#FF9F98"/>
<circle cx="358" cy="197.807" r="3.5" fill="#009D97" stroke="#1A1F26"/>
<path d="M370.903 202.307V201.54L373.784 198.387C374.122 198.017 374.401 197.696 374.619 197.424C374.838 197.148 375 196.89 375.105 196.648C375.213 196.404 375.267 196.148 375.267 195.881C375.267 195.574 375.193 195.309 375.045 195.084C374.901 194.86 374.702 194.686 374.449 194.564C374.196 194.442 373.912 194.381 373.597 194.381C373.261 194.381 372.969 194.451 372.719 194.59C372.472 194.726 372.28 194.918 372.143 195.165C372.01 195.412 371.943 195.702 371.943 196.034H370.938C370.938 195.523 371.055 195.074 371.291 194.688C371.527 194.301 371.848 194 372.254 193.784C372.663 193.568 373.122 193.461 373.631 193.461C374.142 193.461 374.595 193.568 374.99 193.784C375.385 194 375.695 194.292 375.919 194.658C376.143 195.024 376.256 195.432 376.256 195.881C376.256 196.202 376.197 196.516 376.081 196.823C375.967 197.127 375.768 197.466 375.484 197.841C375.203 198.213 374.812 198.668 374.312 199.205L372.352 201.301V201.37H376.409V202.307H370.903ZM378.169 202.307V201.54L381.05 198.387C381.388 198.017 381.666 197.696 381.885 197.424C382.104 197.148 382.266 196.89 382.371 196.648C382.479 196.404 382.533 196.148 382.533 195.881C382.533 195.574 382.459 195.309 382.311 195.084C382.166 194.86 381.967 194.686 381.714 194.564C381.462 194.442 381.178 194.381 380.862 194.381C380.527 194.381 380.234 194.451 379.984 194.59C379.737 194.726 379.545 194.918 379.409 195.165C379.276 195.412 379.209 195.702 379.209 196.034H378.203C378.203 195.523 378.321 195.074 378.557 194.688C378.793 194.301 379.114 194 379.52 193.784C379.929 193.568 380.388 193.461 380.896 193.461C381.408 193.461 381.861 193.568 382.256 193.784C382.651 194 382.96 194.292 383.185 194.658C383.409 195.024 383.521 195.432 383.521 195.881C383.521 196.202 383.463 196.516 383.347 196.823C383.233 197.127 383.034 197.466 382.75 197.841C382.469 198.213 382.078 198.668 381.578 199.205L379.618 201.301V201.37H383.675V202.307H378.169ZM389.202 197.475V198.412H385.384V197.475H389.202ZM390.544 202.307V201.54L393.425 198.387C393.763 198.017 394.041 197.696 394.26 197.424C394.479 197.148 394.641 196.89 394.746 196.648C394.854 196.404 394.908 196.148 394.908 195.881C394.908 195.574 394.834 195.309 394.686 195.084C394.541 194.86 394.342 194.686 394.089 194.564C393.837 194.442 393.553 194.381 393.237 194.381C392.902 194.381 392.609 194.451 392.359 194.59C392.112 194.726 391.92 194.918 391.784 195.165C391.651 195.412 391.584 195.702 391.584 196.034H390.578C390.578 195.523 390.696 195.074 390.932 194.688C391.168 194.301 391.489 194 391.895 193.784C392.304 193.568 392.763 193.461 393.271 193.461C393.783 193.461 394.236 193.568 394.631 193.784C395.026 194 395.335 194.292 395.56 194.658C395.784 195.024 395.896 195.432 395.896 195.881C395.896 196.202 395.838 196.516 395.722 196.823C395.608 197.127 395.409 197.466 395.125 197.841C394.844 198.213 394.453 198.668 393.953 199.205L391.993 201.301V201.37H396.05V202.307H390.544ZM397.418 200.517V199.648L401.253 193.58H401.884V194.926H401.457L398.56 199.512V199.58H403.724V200.517H397.418ZM401.526 202.307V200.253V199.848V193.58H402.531V202.307H401.526Z" fill="#3C4043"/>
<circle cx="358" cy="224.998" r="3.5" fill="#FF9F98" stroke="#1A1F26"/>
<path d="M370.903 229.498V228.731L373.784 225.577C374.122 225.208 374.401 224.887 374.619 224.614C374.838 224.338 375 224.08 375.105 223.838C375.213 223.594 375.267 223.338 375.267 223.071C375.267 222.765 375.193 222.499 375.045 222.275C374.901 222.05 374.702 221.877 374.449 221.755C374.196 221.633 373.912 221.571 373.597 221.571C373.261 221.571 372.969 221.641 372.719 221.78C372.472 221.917 372.28 222.108 372.143 222.356C372.01 222.603 371.943 222.892 371.943 223.225H370.938C370.938 222.713 371.055 222.265 371.291 221.878C371.527 221.492 371.848 221.191 372.254 220.975C372.663 220.759 373.122 220.651 373.631 220.651C374.142 220.651 374.595 220.759 374.99 220.975C375.385 221.191 375.695 221.482 375.919 221.848C376.143 222.215 376.256 222.623 376.256 223.071C376.256 223.392 376.197 223.706 376.081 224.013C375.967 224.317 375.768 224.657 375.484 225.032C375.203 225.404 374.812 225.858 374.312 226.395L372.352 228.492V228.56H376.409V229.498H370.903ZM377.777 227.708V226.838L381.612 220.77H382.243V222.117H381.817L378.919 226.702V226.77H384.084V227.708H377.777ZM381.885 229.498V227.444V227.039V220.77H382.891V229.498H381.885ZM389.448 224.665V225.603H385.63V224.665H389.448ZM394.009 229.617C393.446 229.617 392.945 229.52 392.504 229.327C392.067 229.134 391.719 228.865 391.46 228.522C391.205 228.175 391.065 227.773 391.043 227.316H392.116C392.139 227.597 392.236 227.84 392.406 228.044C392.577 228.246 392.8 228.402 393.075 228.513C393.351 228.624 393.656 228.679 393.991 228.679C394.366 228.679 394.699 228.614 394.989 228.483C395.278 228.353 395.506 228.171 395.67 227.938C395.835 227.705 395.918 227.435 395.918 227.128C395.918 226.807 395.838 226.525 395.679 226.28C395.52 226.033 395.287 225.84 394.98 225.701C394.673 225.561 394.298 225.492 393.855 225.492H393.156V224.554H393.855C394.202 224.554 394.506 224.492 394.767 224.367C395.031 224.242 395.237 224.066 395.385 223.838C395.536 223.611 395.611 223.344 395.611 223.037C395.611 222.742 395.545 222.485 395.415 222.266C395.284 222.047 395.099 221.877 394.861 221.755C394.625 221.633 394.347 221.571 394.026 221.571C393.724 221.571 393.44 221.627 393.173 221.738C392.909 221.846 392.693 222.003 392.526 222.211C392.358 222.415 392.267 222.662 392.253 222.952H391.23C391.247 222.495 391.385 222.094 391.643 221.75C391.902 221.404 392.24 221.134 392.658 220.941C393.078 220.748 393.54 220.651 394.043 220.651C394.582 220.651 395.045 220.76 395.432 220.979C395.818 221.195 396.115 221.481 396.322 221.836C396.53 222.191 396.634 222.574 396.634 222.986C396.634 223.478 396.504 223.897 396.246 224.243C395.99 224.59 395.642 224.83 395.202 224.963V225.032C395.753 225.123 396.183 225.357 396.493 225.735C396.803 226.11 396.957 226.574 396.957 227.128C396.957 227.603 396.828 228.029 396.57 228.407C396.314 228.782 395.964 229.077 395.521 229.293C395.078 229.509 394.574 229.617 394.009 229.617ZM401.547 229.617C400.905 229.617 400.358 229.442 399.906 229.093C399.455 228.74 399.109 228.231 398.871 227.563C398.632 226.892 398.513 226.083 398.513 225.134C398.513 224.191 398.632 223.385 398.871 222.718C399.112 222.047 399.459 221.536 399.911 221.184C400.365 220.829 400.911 220.651 401.547 220.651C402.183 220.651 402.727 220.829 403.179 221.184C403.634 221.536 403.98 222.047 404.219 222.718C404.46 223.385 404.581 224.191 404.581 225.134C404.581 226.083 404.462 226.892 404.223 227.563C403.984 228.231 403.639 228.74 403.188 229.093C402.736 229.442 402.189 229.617 401.547 229.617ZM401.547 228.679C402.183 228.679 402.678 228.373 403.03 227.759C403.382 227.145 403.558 226.27 403.558 225.134C403.558 224.378 403.477 223.735 403.315 223.204C403.156 222.672 402.926 222.267 402.625 221.989C402.327 221.711 401.967 221.571 401.547 221.571C400.916 221.571 400.423 221.883 400.068 222.505C399.713 223.124 399.536 224 399.536 225.134C399.536 225.89 399.615 226.532 399.774 227.06C399.933 227.588 400.162 227.99 400.46 228.266C400.761 228.542 401.124 228.679 401.547 228.679Z" fill="#3C4043"/>
<circle cx="358" cy="252.188" r="3.5" fill="#3CC3DF" stroke="#1A1F26"/>
<path d="M373.852 256.808C373.29 256.808 372.788 256.711 372.348 256.518C371.911 256.325 371.563 256.056 371.304 255.713C371.048 255.366 370.909 254.964 370.886 254.507H371.96C371.983 254.788 372.08 255.031 372.25 255.235C372.42 255.437 372.643 255.593 372.919 255.704C373.195 255.815 373.5 255.87 373.835 255.87C374.21 255.87 374.543 255.805 374.832 255.674C375.122 255.544 375.349 255.362 375.514 255.129C375.679 254.896 375.761 254.626 375.761 254.319C375.761 253.998 375.682 253.715 375.523 253.471C375.364 253.224 375.131 253.031 374.824 252.892C374.517 252.752 374.142 252.683 373.699 252.683H373V251.745H373.699C374.045 251.745 374.349 251.683 374.611 251.558C374.875 251.433 375.081 251.257 375.229 251.029C375.379 250.802 375.455 250.535 375.455 250.228C375.455 249.933 375.389 249.676 375.259 249.457C375.128 249.238 374.943 249.068 374.705 248.946C374.469 248.823 374.19 248.762 373.869 248.762C373.568 248.762 373.284 248.818 373.017 248.929C372.753 249.036 372.537 249.194 372.369 249.402C372.202 249.606 372.111 249.853 372.097 250.143H371.074C371.091 249.686 371.229 249.285 371.487 248.941C371.746 248.595 372.084 248.325 372.501 248.132C372.922 247.938 373.384 247.842 373.886 247.842C374.426 247.842 374.889 247.951 375.276 248.17C375.662 248.386 375.959 248.671 376.166 249.027C376.374 249.382 376.477 249.765 376.477 250.177C376.477 250.669 376.348 251.088 376.089 251.434C375.834 251.781 375.486 252.021 375.045 252.154V252.223C375.597 252.313 376.027 252.548 376.337 252.926C376.646 253.301 376.801 253.765 376.801 254.319C376.801 254.794 376.672 255.22 376.413 255.598C376.158 255.973 375.808 256.268 375.365 256.484C374.922 256.7 374.418 256.808 373.852 256.808ZM381.391 256.808C380.749 256.808 380.202 256.633 379.75 256.284C379.298 255.931 378.953 255.421 378.714 254.754C378.476 254.083 378.357 253.274 378.357 252.325C378.357 251.382 378.476 250.576 378.714 249.909C378.956 249.238 379.303 248.727 379.754 248.375C380.209 248.019 380.754 247.842 381.391 247.842C382.027 247.842 382.571 248.019 383.023 248.375C383.477 248.727 383.824 249.238 384.062 249.909C384.304 250.576 384.425 251.382 384.425 252.325C384.425 253.274 384.305 254.083 384.067 254.754C383.828 255.421 383.483 255.931 383.031 256.284C382.58 256.633 382.033 256.808 381.391 256.808ZM381.391 255.87C382.027 255.87 382.521 255.563 382.874 254.95C383.226 254.336 383.402 253.461 383.402 252.325C383.402 251.569 383.321 250.926 383.159 250.394C383 249.863 382.77 249.458 382.469 249.18C382.17 248.902 381.811 248.762 381.391 248.762C380.76 248.762 380.267 249.073 379.912 249.696C379.557 250.315 379.379 251.191 379.379 252.325C379.379 253.081 379.459 253.723 379.618 254.251C379.777 254.779 380.006 255.181 380.304 255.457C380.605 255.733 380.967 255.87 381.391 255.87ZM389.811 251.856V252.794H385.993V251.856H389.811ZM391.359 254.899V254.029L395.194 247.961H395.825V249.308H395.399L392.501 253.893V253.961H397.666V254.899H391.359ZM395.467 256.688V254.634V254.23V247.961H396.473V256.688H395.467ZM401.99 256.808C401.49 256.808 401.04 256.708 400.639 256.509C400.239 256.311 399.918 256.038 399.676 255.691C399.435 255.345 399.303 254.95 399.28 254.507H400.303C400.342 254.902 400.521 255.228 400.839 255.487C401.161 255.742 401.544 255.87 401.99 255.87C402.348 255.87 402.666 255.786 402.945 255.619C403.226 255.451 403.446 255.221 403.605 254.929C403.767 254.633 403.848 254.299 403.848 253.927C403.848 253.546 403.764 253.207 403.597 252.909C403.432 252.608 403.205 252.37 402.915 252.197C402.625 252.024 402.294 251.936 401.922 251.933C401.655 251.93 401.381 251.971 401.099 252.056C400.818 252.139 400.587 252.245 400.405 252.376L399.416 252.257L399.945 247.961H404.479V248.899H400.831L400.524 251.473H400.575C400.754 251.331 400.979 251.213 401.249 251.119C401.518 251.025 401.8 250.978 402.092 250.978C402.626 250.978 403.102 251.106 403.52 251.362C403.94 251.615 404.27 251.961 404.509 252.402C404.75 252.842 404.871 253.345 404.871 253.91C404.871 254.467 404.746 254.964 404.496 255.402C404.249 255.836 403.908 256.18 403.473 256.433C403.038 256.683 402.544 256.808 401.99 256.808Z" fill="#3C4043"/>
<path d="M372.564 137.077L373.86 137.485C373.068 138.913 371.748 140.185 370.428 140.977C370.236 140.701 369.78 140.149 369.492 139.897C370.74 139.273 371.928 138.241 372.564 137.077ZM372.72 132.049L373.968 132.697C373.332 133.453 372.6 134.257 372.024 134.785L371.04 134.221C371.604 133.645 372.324 132.733 372.72 132.049ZM374.964 132.937L376.248 133.645C374.964 135.001 373.272 136.537 371.928 137.509L370.98 136.885C372.312 135.865 373.968 134.233 374.964 132.937ZM369.9 134.293L370.764 133.357C371.64 133.909 372.768 134.725 373.284 135.349L372.372 136.381C371.88 135.769 370.8 134.881 369.9 134.293ZM374.832 135.625L375.948 135.025C376.656 135.805 377.46 136.897 377.784 137.653L376.572 138.337C376.284 137.605 375.54 136.453 374.832 135.625ZM369.66 136.477C371.4 136.465 374.1 136.429 376.632 136.381L376.584 137.533C374.148 137.617 371.568 137.701 369.768 137.749L369.66 136.477ZM372.156 139.057C373.128 140.677 375.156 141.769 377.784 142.177C377.484 142.477 377.112 143.029 376.932 143.401C374.172 142.849 372.192 141.529 370.992 139.429L372.156 139.057ZM372.456 138.337H375.684V139.417H371.496L372.456 138.337ZM375.216 138.337H375.492L375.72 138.289L376.62 138.685C375.552 141.385 373.092 142.765 370.176 143.425C370.056 143.065 369.744 142.501 369.492 142.213C372.132 141.757 374.424 140.533 375.216 138.541V138.337ZM368.868 134.677L370.14 135.145C369.36 136.609 368.112 138.145 366.936 139.117C366.804 138.805 366.42 138.085 366.18 137.773C367.2 137.029 368.244 135.865 368.868 134.677ZM368.652 132.097L369.924 132.601C369.18 133.645 368.052 134.809 367.044 135.553C366.864 135.265 366.516 134.761 366.288 134.497C367.152 133.897 368.16 132.889 368.652 132.097ZM367.884 137.269L369.108 136.045L369.228 136.105V143.389H367.884V137.269ZM380.628 141.481H387.252V142.873H380.628V141.481ZM379.98 138.037H388.008V143.353H386.46V139.417H381.456V143.353H379.98V138.037ZM382.332 132.001L383.976 132.541C383.196 134.029 382.176 135.637 381.36 136.681L380.064 136.165C380.868 135.073 381.816 133.345 382.332 132.001ZM385.212 134.149L386.352 133.309C387.54 134.269 388.98 135.661 389.604 136.693L388.344 137.653C387.78 136.645 386.412 135.181 385.212 134.149ZM378.708 135.493C381.132 135.433 384.852 135.289 388.152 135.145L388.08 136.537C384.756 136.717 381.156 136.861 378.792 136.957L378.708 135.493ZM345.588 157.285V156.143L348.618 153.173C348.908 152.88 349.149 152.62 349.342 152.393C349.536 152.166 349.68 151.946 349.777 151.733C349.874 151.52 349.922 151.292 349.922 151.051C349.922 150.775 349.859 150.539 349.734 150.343C349.609 150.145 349.438 149.991 349.219 149.883C349 149.775 348.751 149.721 348.473 149.721C348.186 149.721 347.935 149.781 347.719 149.9C347.503 150.017 347.335 150.183 347.216 150.399C347.099 150.615 347.041 150.872 347.041 151.17H345.537C345.537 150.616 345.663 150.135 345.916 149.725C346.169 149.316 346.517 149 346.96 148.775C347.406 148.551 347.918 148.439 348.494 148.439C349.08 148.439 349.594 148.548 350.037 148.767C350.48 148.985 350.824 149.285 351.068 149.666C351.315 150.047 351.439 150.481 351.439 150.97C351.439 151.297 351.376 151.618 351.251 151.933C351.126 152.248 350.906 152.598 350.591 152.981C350.278 153.365 349.839 153.829 349.274 154.375L347.77 155.904V155.964H351.571V157.285H345.588ZM356.267 157.451C355.565 157.451 354.963 157.274 354.46 156.919C353.96 156.561 353.575 156.045 353.305 155.372C353.038 154.696 352.905 153.882 352.905 152.93C352.908 151.978 353.043 151.169 353.31 150.501C353.58 149.831 353.964 149.319 354.464 148.967C354.967 148.615 355.568 148.439 356.267 148.439C356.966 148.439 357.567 148.615 358.07 148.967C358.572 149.319 358.957 149.831 359.224 150.501C359.494 151.172 359.629 151.981 359.629 152.93C359.629 153.885 359.494 154.7 359.224 155.376C358.957 156.049 358.572 156.564 358.07 156.919C357.57 157.274 356.969 157.451 356.267 157.451ZM356.267 156.118C356.813 156.118 357.243 155.849 357.558 155.312C357.876 154.772 358.036 153.978 358.036 152.93C358.036 152.237 357.963 151.654 357.818 151.183C357.673 150.711 357.469 150.356 357.205 150.118C356.94 149.876 356.628 149.755 356.267 149.755C355.724 149.755 355.295 150.025 354.98 150.565C354.665 151.102 354.506 151.89 354.503 152.93C354.5 153.626 354.57 154.211 354.712 154.686C354.857 155.16 355.061 155.518 355.325 155.76C355.589 155.998 355.903 156.118 356.267 156.118ZM361.045 157.285V156.143L364.075 153.173C364.365 152.88 364.606 152.62 364.799 152.393C364.993 152.166 365.137 151.946 365.234 151.733C365.331 151.52 365.379 151.292 365.379 151.051C365.379 150.775 365.316 150.539 365.191 150.343C365.066 150.145 364.895 149.991 364.676 149.883C364.457 149.775 364.208 149.721 363.93 149.721C363.643 149.721 363.392 149.781 363.176 149.9C362.96 150.017 362.792 150.183 362.673 150.399C362.556 150.615 362.498 150.872 362.498 151.17H360.994C360.994 150.616 361.12 150.135 361.373 149.725C361.626 149.316 361.974 149 362.417 148.775C362.863 148.551 363.375 148.439 363.951 148.439C364.537 148.439 365.051 148.548 365.494 148.767C365.937 148.985 366.281 149.285 366.525 149.666C366.772 150.047 366.896 150.481 366.896 150.97C366.896 151.297 366.833 151.618 366.708 151.933C366.583 152.248 366.363 152.598 366.048 152.981C365.735 153.365 365.297 153.829 364.731 154.375L363.227 155.904V155.964H367.028V157.285H361.045ZM368.498 157.285V156.143L371.528 153.173C371.818 152.88 372.059 152.62 372.252 152.393C372.446 152.166 372.591 151.946 372.687 151.733C372.784 151.52 372.832 151.292 372.832 151.051C372.832 150.775 372.77 150.539 372.645 150.343C372.52 150.145 372.348 149.991 372.129 149.883C371.91 149.775 371.662 149.721 371.383 149.721C371.096 149.721 370.845 149.781 370.629 149.9C370.413 150.017 370.245 150.183 370.126 150.399C370.01 150.615 369.951 150.872 369.951 151.17H368.447C368.447 150.616 368.574 150.135 368.826 149.725C369.079 149.316 369.427 149 369.87 148.775C370.316 148.551 370.828 148.439 371.404 148.439C371.99 148.439 372.504 148.548 372.947 148.767C373.39 148.985 373.734 149.285 373.978 149.666C374.225 150.047 374.349 150.481 374.349 150.97C374.349 151.297 374.287 151.618 374.162 151.933C374.037 152.248 373.816 152.598 373.501 152.981C373.189 153.365 372.75 153.829 372.184 154.375L370.68 155.904V155.964H374.481V157.285H368.498ZM379.936 152.287V153.556H376.007V152.287H379.936ZM381.237 157.285V156.143L384.266 153.173C384.556 152.88 384.798 152.62 384.991 152.393C385.184 152.166 385.329 151.946 385.425 151.733C385.522 151.52 385.57 151.292 385.57 151.051C385.57 150.775 385.508 150.539 385.383 150.343C385.258 150.145 385.086 149.991 384.867 149.883C384.648 149.775 384.4 149.721 384.121 149.721C383.835 149.721 383.583 149.781 383.367 149.9C383.151 150.017 382.984 150.183 382.864 150.399C382.748 150.615 382.69 150.872 382.69 151.17H381.185C381.185 150.616 381.312 150.135 381.565 149.725C381.817 149.316 382.165 149 382.609 148.775C383.055 148.551 383.566 148.439 384.143 148.439C384.728 148.439 385.242 148.548 385.685 148.767C386.129 148.985 386.472 149.285 386.717 149.666C386.964 150.047 387.087 150.481 387.087 150.97C387.087 151.297 387.025 151.618 386.9 151.933C386.775 152.248 386.555 152.598 386.239 152.981C385.927 153.365 385.488 153.829 384.923 154.375L383.418 155.904V155.964H387.219V157.285H381.237ZM391.915 157.451C391.214 157.451 390.612 157.274 390.109 156.919C389.609 156.561 389.224 156.045 388.954 155.372C388.687 154.696 388.553 153.882 388.553 152.93C388.556 151.978 388.691 151.169 388.958 150.501C389.228 149.831 389.613 149.319 390.113 148.967C390.616 148.615 391.217 148.439 391.915 148.439C392.614 148.439 393.215 148.615 393.718 148.967C394.221 149.319 394.606 149.831 394.873 150.501C395.143 151.172 395.278 151.981 395.278 152.93C395.278 153.885 395.143 154.7 394.873 155.376C394.606 156.049 394.221 156.564 393.718 156.919C393.218 157.274 392.617 157.451 391.915 157.451ZM391.915 156.118C392.461 156.118 392.891 155.849 393.207 155.312C393.525 154.772 393.684 153.978 393.684 152.93C393.684 152.237 393.612 151.654 393.467 151.183C393.322 150.711 393.117 150.356 392.853 150.118C392.589 149.876 392.276 149.755 391.915 149.755C391.373 149.755 390.944 150.025 390.629 150.565C390.313 151.102 390.154 151.89 390.151 152.93C390.148 153.626 390.218 154.211 390.36 154.686C390.505 155.16 390.71 155.518 390.974 155.76C391.238 155.998 391.552 156.118 391.915 156.118ZM396.694 157.285V156.143L399.723 153.173C400.013 152.88 400.255 152.62 400.448 152.393C400.641 152.166 400.786 151.946 400.882 151.733C400.979 151.52 401.027 151.292 401.027 151.051C401.027 150.775 400.965 150.539 400.84 150.343C400.715 150.145 400.543 149.991 400.324 149.883C400.105 149.775 399.857 149.721 399.578 149.721C399.292 149.721 399.04 149.781 398.824 149.9C398.608 150.017 398.441 150.183 398.321 150.399C398.205 150.615 398.147 150.872 398.147 151.17H396.642C396.642 150.616 396.769 150.135 397.022 149.725C397.275 149.316 397.623 149 398.066 148.775C398.512 148.551 399.023 148.439 399.6 148.439C400.185 148.439 400.699 148.548 401.142 148.767C401.586 148.985 401.929 149.285 402.174 149.666C402.421 150.047 402.544 150.481 402.544 150.97C402.544 151.297 402.482 151.618 402.357 151.933C402.232 152.248 402.012 152.598 401.696 152.981C401.384 153.365 400.945 153.829 400.38 154.375L398.875 155.904V155.964H402.676V157.285H396.694ZM407.279 157.404C406.665 157.404 406.12 157.299 405.642 157.089C405.168 156.879 404.793 156.586 404.517 156.211C404.242 155.836 404.096 155.403 404.078 154.912H405.681C405.695 155.147 405.773 155.353 405.915 155.529C406.057 155.703 406.246 155.838 406.482 155.934C406.718 156.031 406.982 156.079 407.275 156.079C407.587 156.079 407.864 156.025 408.105 155.917C408.347 155.806 408.536 155.653 408.672 155.457C408.809 155.261 408.875 155.035 408.873 154.779C408.875 154.515 408.807 154.282 408.668 154.081C408.529 153.879 408.327 153.721 408.063 153.608C407.801 153.494 407.486 153.437 407.117 153.437H406.346V152.218H407.117C407.421 152.218 407.686 152.166 407.914 152.061C408.144 151.956 408.324 151.808 408.455 151.618C408.586 151.424 408.65 151.201 408.647 150.949C408.65 150.701 408.594 150.487 408.48 150.305C408.37 150.12 408.212 149.977 408.007 149.875C407.806 149.772 407.569 149.721 407.296 149.721C407.029 149.721 406.782 149.77 406.554 149.866C406.327 149.963 406.144 150.1 406.005 150.279C405.865 150.456 405.792 150.666 405.783 150.91H404.262C404.273 150.422 404.414 149.993 404.684 149.623C404.956 149.251 405.32 148.961 405.775 148.754C406.229 148.544 406.739 148.439 407.304 148.439C407.887 148.439 408.392 148.548 408.821 148.767C409.253 148.983 409.587 149.274 409.823 149.64C410.059 150.007 410.176 150.412 410.176 150.855C410.179 151.346 410.034 151.758 409.742 152.091C409.452 152.423 409.071 152.64 408.6 152.743V152.811C409.213 152.896 409.684 153.123 410.01 153.493C410.34 153.859 410.503 154.315 410.5 154.86C410.5 155.349 410.361 155.787 410.083 156.173C409.807 156.556 409.426 156.858 408.941 157.076C408.458 157.295 407.904 157.404 407.279 157.404ZM357.696 163.558H359.277V169.26C359.277 169.885 359.129 170.434 358.834 170.909C358.541 171.383 358.129 171.754 357.598 172.021C357.067 172.285 356.446 172.417 355.736 172.417C355.023 172.417 354.401 172.285 353.869 172.021C353.338 171.754 352.926 171.383 352.634 170.909C352.341 170.434 352.195 169.885 352.195 169.26V163.558H353.776V169.127C353.776 169.491 353.855 169.815 354.014 170.099C354.176 170.383 354.404 170.606 354.696 170.768C354.989 170.927 355.335 171.007 355.736 171.007C356.137 171.007 356.483 170.927 356.776 170.768C357.071 170.606 357.298 170.383 357.458 170.099C357.617 169.815 357.696 169.491 357.696 169.127V163.558ZM366.101 167.47L364.694 167.623C364.655 167.481 364.585 167.348 364.486 167.223C364.389 167.098 364.258 166.997 364.094 166.92C363.929 166.843 363.727 166.805 363.488 166.805C363.167 166.805 362.898 166.875 362.679 167.014C362.463 167.153 362.356 167.333 362.359 167.555C362.356 167.745 362.426 167.9 362.568 168.02C362.713 168.139 362.952 168.237 363.284 168.314L364.4 168.552C365.02 168.686 365.48 168.897 365.781 169.187C366.085 169.477 366.238 169.856 366.241 170.325C366.238 170.737 366.118 171.1 365.879 171.416C365.643 171.728 365.315 171.973 364.895 172.149C364.474 172.325 363.991 172.413 363.446 172.413C362.645 172.413 362 172.245 361.511 171.91C361.023 171.572 360.731 171.102 360.638 170.5L362.142 170.355C362.21 170.65 362.355 170.873 362.577 171.024C362.798 171.174 363.086 171.25 363.442 171.25C363.808 171.25 364.102 171.174 364.324 171.024C364.548 170.873 364.66 170.687 364.66 170.466C364.66 170.278 364.588 170.123 364.443 170.001C364.301 169.879 364.079 169.785 363.778 169.72L362.662 169.485C362.034 169.355 361.569 169.135 361.268 168.825C360.967 168.512 360.818 168.118 360.821 167.64C360.818 167.237 360.927 166.887 361.149 166.592C361.373 166.294 361.684 166.064 362.082 165.902C362.483 165.737 362.944 165.654 363.467 165.654C364.234 165.654 364.838 165.818 365.278 166.145C365.721 166.471 365.996 166.913 366.101 167.47ZM370.411 172.413C369.755 172.413 369.188 172.277 368.711 172.004C368.236 171.728 367.871 171.339 367.616 170.836C367.36 170.331 367.232 169.735 367.232 169.051C367.232 168.377 367.36 167.787 367.616 167.278C367.874 166.767 368.235 166.369 368.698 166.085C369.161 165.798 369.705 165.654 370.33 165.654C370.733 165.654 371.114 165.72 371.472 165.85C371.833 165.978 372.151 166.177 372.427 166.447C372.705 166.717 372.924 167.061 373.083 167.478C373.242 167.893 373.322 168.387 373.322 168.961V169.434H367.956V168.395H371.843C371.84 168.099 371.776 167.836 371.651 167.606C371.526 167.373 371.351 167.19 371.127 167.056C370.905 166.923 370.647 166.856 370.351 166.856C370.036 166.856 369.759 166.933 369.52 167.086C369.282 167.237 369.096 167.436 368.962 167.683C368.831 167.927 368.765 168.196 368.762 168.488V169.396C368.762 169.777 368.831 170.103 368.971 170.376C369.11 170.646 369.305 170.853 369.555 170.998C369.805 171.14 370.097 171.211 370.432 171.211C370.657 171.211 370.86 171.18 371.042 171.118C371.224 171.052 371.381 170.957 371.515 170.832C371.648 170.707 371.749 170.552 371.817 170.368L373.258 170.529C373.167 170.91 372.993 171.243 372.738 171.527C372.485 171.808 372.161 172.027 371.766 172.183C371.371 172.336 370.92 172.413 370.411 172.413ZM374.627 172.285V165.74H376.122V166.831H376.191C376.31 166.453 376.514 166.162 376.804 165.957C377.097 165.75 377.431 165.646 377.806 165.646C377.891 165.646 377.986 165.65 378.091 165.659C378.199 165.664 378.289 165.674 378.36 165.689V167.108C378.294 167.085 378.191 167.065 378.048 167.048C377.909 167.028 377.774 167.018 377.644 167.018C377.362 167.018 377.11 167.079 376.885 167.201C376.664 167.321 376.489 167.487 376.361 167.7C376.233 167.913 376.169 168.159 376.169 168.437V172.285H374.627ZM383.55 172.285H381.862L384.935 163.558H386.887L389.963 172.285H388.276L385.945 165.348H385.877L383.55 172.285ZM383.605 168.863H388.208V170.133H383.605V168.863ZM393.692 174.876C393.138 174.876 392.662 174.801 392.264 174.65C391.867 174.502 391.547 174.304 391.306 174.054C391.064 173.804 390.896 173.527 390.803 173.223L392.192 172.886C392.254 173.014 392.345 173.14 392.465 173.265C392.584 173.393 392.744 173.498 392.946 173.581C393.151 173.666 393.408 173.708 393.718 173.708C394.155 173.708 394.517 173.602 394.804 173.389C395.091 173.179 395.235 172.832 395.235 172.349V171.109H395.158C395.078 171.268 394.962 171.431 394.808 171.599C394.658 171.767 394.458 171.907 394.208 172.021C393.96 172.135 393.649 172.191 393.274 172.191C392.771 172.191 392.316 172.074 391.906 171.838C391.5 171.599 391.176 171.244 390.935 170.772C390.696 170.298 390.577 169.704 390.577 168.991C390.577 168.272 390.696 167.666 390.935 167.172C391.176 166.674 391.502 166.298 391.911 166.042C392.32 165.784 392.776 165.654 393.279 165.654C393.662 165.654 393.977 165.72 394.225 165.85C394.475 165.978 394.673 166.133 394.821 166.315C394.969 166.494 395.081 166.663 395.158 166.822H395.243V165.74H396.764V172.392C396.764 172.951 396.631 173.414 396.364 173.781C396.097 174.147 395.732 174.422 395.269 174.603C394.806 174.785 394.28 174.876 393.692 174.876ZM393.705 170.981C394.031 170.981 394.31 170.902 394.54 170.743C394.77 170.583 394.945 170.355 395.064 170.056C395.183 169.758 395.243 169.4 395.243 168.983C395.243 168.571 395.183 168.21 395.064 167.9C394.948 167.591 394.774 167.35 394.544 167.18C394.317 167.007 394.037 166.92 393.705 166.92C393.361 166.92 393.074 167.01 392.844 167.189C392.614 167.368 392.441 167.613 392.324 167.926C392.208 168.235 392.149 168.588 392.149 168.983C392.149 169.383 392.208 169.734 392.324 170.035C392.443 170.333 392.618 170.566 392.848 170.734C393.081 170.899 393.367 170.981 393.705 170.981ZM401.243 172.413C400.587 172.413 400.02 172.277 399.543 172.004C399.068 171.728 398.703 171.339 398.448 170.836C398.192 170.331 398.064 169.735 398.064 169.051C398.064 168.377 398.192 167.787 398.448 167.278C398.706 166.767 399.067 166.369 399.53 166.085C399.993 165.798 400.537 165.654 401.162 165.654C401.566 165.654 401.946 165.72 402.304 165.85C402.665 165.978 402.983 166.177 403.259 166.447C403.537 166.717 403.756 167.061 403.915 167.478C404.074 167.893 404.154 168.387 404.154 168.961V169.434H398.789V168.395H402.675C402.672 168.099 402.608 167.836 402.483 167.606C402.358 167.373 402.183 167.19 401.959 167.056C401.737 166.923 401.479 166.856 401.183 166.856C400.868 166.856 400.591 166.933 400.352 167.086C400.114 167.237 399.928 167.436 399.794 167.683C399.664 167.927 399.597 168.196 399.594 168.488V169.396C399.594 169.777 399.664 170.103 399.803 170.376C399.942 170.646 400.137 170.853 400.387 170.998C400.637 171.14 400.929 171.211 401.264 171.211C401.489 171.211 401.692 171.18 401.874 171.118C402.056 171.052 402.213 170.957 402.347 170.832C402.48 170.707 402.581 170.552 402.649 170.368L404.09 170.529C403.999 170.91 403.825 171.243 403.57 171.527C403.317 171.808 402.993 172.027 402.598 172.183C402.203 172.336 401.752 172.413 401.243 172.413Z" fill="#5F6367"/>
</svg>
