<svg width="1487" height="163" viewBox="0 0 1487 163" fill="none" xmlns="http://www.w3.org/2000/svg">
<g clip-path="url(#clip0_3130_5246)">
<path fill-rule="evenodd" clip-rule="evenodd" d="M231.422 25.5099C234.634 30.517 230.573 37.1006 229.709 42.9977C228.966 48.0664 228.766 53.1128 226.691 57.8039C224.448 62.8723 222.127 68.509 217.249 71.1618C212.389 73.8057 206.267 73.3209 200.963 71.7983C196.24 70.4429 194.011 64.7465 189.363 63.1576C183.039 60.9955 175.211 64.9443 169.738 61.1228C164.14 57.2136 160.361 49.9699 160.706 43.1465C161.05 36.3292 165.733 29.7879 171.507 26.1025C176.881 22.6728 184.615 27.3836 190.204 24.3185C195.587 21.3667 195.074 11.0507 201.096 9.87627C206.663 8.79067 209.641 16.9568 214.667 19.5477C220.024 22.3094 228.172 20.4442 231.422 25.5099Z" fill="#81B1CF"/>
<path d="M201.344 53.0957V61.0957H193.344V69.0957H185.344V73.0957H197.344V65.0957H205.344V57.0957H213.344V53.0957H201.344ZM169.344 21.0957H185.344V33.0957C185.344 35.3017 187.138 37.0957 189.344 37.0957H201.344V45.0957H205.344V33.0957C205.344 32.5653 205.133 32.0567 204.758 31.6817L190.758 17.6817C190.383 17.3066 189.875 17.0958 189.344 17.0957H169.344C167.138 17.0957 165.344 18.8897 165.344 21.0957V69.0957C165.344 71.3017 167.138 73.0957 169.344 73.0957H177.344V69.0957H169.344V21.0957ZM200.516 33.0957H189.344V21.9237L200.516 33.0957Z" fill="#554F4F"/>
<path d="M142.92 118.191V97.8278H150.179C151.763 97.8278 153.075 98.1161 154.116 98.6928C155.157 99.2695 155.936 100.058 156.453 101.059C156.97 102.054 157.228 103.174 157.228 104.42C157.228 105.673 156.966 106.8 156.443 107.801C155.926 108.795 155.144 109.584 154.096 110.167C153.055 110.744 151.746 111.032 150.169 111.032H145.177V108.427H149.89C150.891 108.427 151.703 108.255 152.326 107.91C152.949 107.559 153.407 107.082 153.698 106.478C153.99 105.875 154.136 105.189 154.136 104.42C154.136 103.651 153.99 102.968 153.698 102.372C153.407 101.775 152.946 101.308 152.316 100.97C151.693 100.632 150.871 100.463 149.85 100.463H145.992V118.191H142.92ZM161.292 118.191V102.919H164.165V105.345H164.324C164.603 104.523 165.093 103.877 165.796 103.406C166.505 102.929 167.307 102.69 168.202 102.69C168.388 102.69 168.606 102.697 168.858 102.71C169.117 102.723 169.319 102.74 169.465 102.76V105.603C169.346 105.57 169.133 105.534 168.828 105.494C168.524 105.448 168.219 105.424 167.914 105.424C167.211 105.424 166.585 105.574 166.034 105.872C165.491 106.163 165.06 106.571 164.742 107.095C164.424 107.612 164.265 108.202 164.265 108.865V118.191H161.292ZM178.624 118.5C177.192 118.5 175.943 118.172 174.875 117.515C173.808 116.859 172.98 115.941 172.39 114.761C171.8 113.581 171.505 112.202 171.505 110.625C171.505 109.04 171.8 107.655 172.39 106.468C172.98 105.282 173.808 104.36 174.875 103.704C175.943 103.048 177.192 102.72 178.624 102.72C180.056 102.72 181.305 103.048 182.373 103.704C183.44 104.36 184.268 105.282 184.858 106.468C185.448 107.655 185.743 109.04 185.743 110.625C185.743 112.202 185.448 113.581 184.858 114.761C184.268 115.941 183.44 116.859 182.373 117.515C181.305 118.172 180.056 118.5 178.624 118.5ZM178.634 116.004C179.562 116.004 180.331 115.759 180.941 115.268C181.551 114.778 182.001 114.125 182.293 113.309C182.591 112.494 182.74 111.596 182.74 110.615C182.74 109.64 182.591 108.745 182.293 107.93C182.001 107.108 181.551 106.449 180.941 105.951C180.331 105.454 179.562 105.206 178.634 105.206C177.699 105.206 176.924 105.454 176.307 105.951C175.697 106.449 175.243 107.108 174.945 107.93C174.653 108.745 174.508 109.64 174.508 110.615C174.508 111.596 174.653 112.494 174.945 113.309C175.243 114.125 175.697 114.778 176.307 115.268C176.924 115.759 177.699 116.004 178.634 116.004ZM196.195 118.5C194.717 118.5 193.444 118.165 192.377 117.495C191.316 116.819 190.501 115.888 189.931 114.701C189.361 113.515 189.076 112.156 189.076 110.625C189.076 109.074 189.367 107.705 189.951 106.518C190.534 105.325 191.356 104.394 192.417 103.724C193.477 103.055 194.727 102.72 196.165 102.72C197.325 102.72 198.359 102.935 199.268 103.366C200.176 103.79 200.908 104.387 201.465 105.156C202.028 105.925 202.363 106.823 202.469 107.85H199.576C199.417 107.135 199.052 106.518 198.482 106.001C197.919 105.484 197.163 105.225 196.215 105.225C195.386 105.225 194.661 105.444 194.037 105.882C193.421 106.313 192.94 106.929 192.596 107.731C192.251 108.527 192.079 109.468 192.079 110.555C192.079 111.669 192.248 112.63 192.586 113.439C192.924 114.247 193.401 114.874 194.018 115.318C194.641 115.762 195.373 115.984 196.215 115.984C196.778 115.984 197.289 115.881 197.746 115.676C198.21 115.464 198.598 115.162 198.91 114.771C199.228 114.38 199.45 113.909 199.576 113.359H202.469C202.363 114.347 202.042 115.228 201.505 116.004C200.968 116.779 200.249 117.389 199.347 117.833C198.452 118.278 197.402 118.5 196.195 118.5ZM212.931 118.5C211.426 118.5 210.13 118.178 209.043 117.535C207.963 116.886 207.127 115.974 206.537 114.801C205.954 113.621 205.662 112.239 205.662 110.654C205.662 109.09 205.954 107.711 206.537 106.518C207.127 105.325 207.949 104.394 209.003 103.724C210.064 103.055 211.304 102.72 212.722 102.72C213.584 102.72 214.419 102.862 215.228 103.147C216.037 103.432 216.762 103.88 217.405 104.49C218.048 105.1 218.555 105.892 218.927 106.866C219.298 107.834 219.484 109.011 219.484 110.396V111.45H207.343V109.223H216.57C216.57 108.44 216.411 107.748 216.093 107.145C215.775 106.535 215.327 106.054 214.751 105.703C214.18 105.351 213.511 105.176 212.742 105.176C211.907 105.176 211.178 105.381 210.555 105.792C209.938 106.197 209.461 106.727 209.123 107.383C208.791 108.033 208.626 108.739 208.626 109.501V111.241C208.626 112.262 208.805 113.13 209.162 113.846C209.527 114.562 210.034 115.109 210.684 115.487C211.333 115.858 212.092 116.044 212.961 116.044C213.524 116.044 214.038 115.964 214.502 115.805C214.966 115.639 215.367 115.394 215.705 115.069C216.043 114.744 216.302 114.343 216.481 113.866L219.295 114.373C219.069 115.202 218.665 115.928 218.082 116.551C217.505 117.167 216.779 117.648 215.904 117.993C215.036 118.331 214.045 118.5 212.931 118.5ZM234.927 106.647L232.232 107.125C232.119 106.78 231.941 106.452 231.695 106.14C231.457 105.829 231.132 105.574 230.721 105.375C230.31 105.176 229.796 105.076 229.18 105.076C228.338 105.076 227.635 105.265 227.072 105.643C226.508 106.014 226.226 106.495 226.226 107.085C226.226 107.595 226.415 108.006 226.793 108.318C227.171 108.629 227.781 108.885 228.623 109.083L231.049 109.64C232.454 109.965 233.502 110.466 234.191 111.142C234.88 111.818 235.225 112.696 235.225 113.777C235.225 114.691 234.96 115.507 234.43 116.223C233.906 116.932 233.173 117.489 232.232 117.893C231.298 118.297 230.214 118.5 228.981 118.5C227.271 118.5 225.875 118.135 224.795 117.406C223.714 116.67 223.051 115.626 222.806 114.274L225.68 113.836C225.859 114.585 226.226 115.152 226.783 115.537C227.34 115.914 228.066 116.103 228.961 116.103C229.935 116.103 230.714 115.901 231.298 115.497C231.881 115.086 232.173 114.585 232.173 113.995C232.173 113.518 231.994 113.117 231.636 112.792C231.284 112.467 230.744 112.222 230.015 112.056L227.43 111.49C226.004 111.165 224.95 110.648 224.268 109.939C223.592 109.229 223.253 108.331 223.253 107.244C223.253 106.342 223.505 105.554 224.009 104.877C224.513 104.201 225.209 103.674 226.097 103.297C226.985 102.912 228.003 102.72 229.15 102.72C230.8 102.72 232.1 103.078 233.048 103.794C233.995 104.503 234.622 105.454 234.927 106.647ZM250.638 106.647L247.944 107.125C247.831 106.78 247.652 106.452 247.407 106.14C247.168 105.829 246.844 105.574 246.433 105.375C246.022 105.176 245.508 105.076 244.891 105.076C244.049 105.076 243.347 105.265 242.783 105.643C242.22 106.014 241.938 106.495 241.938 107.085C241.938 107.595 242.127 108.006 242.505 108.318C242.883 108.629 243.493 108.885 244.335 109.083L246.761 109.64C248.166 109.965 249.213 110.466 249.903 111.142C250.592 111.818 250.937 112.696 250.937 113.777C250.937 114.691 250.672 115.507 250.141 116.223C249.618 116.932 248.885 117.489 247.944 117.893C247.009 118.297 245.925 118.5 244.692 118.5C242.982 118.5 241.587 118.135 240.506 117.406C239.426 116.67 238.763 115.626 238.518 114.274L241.391 113.836C241.57 114.585 241.938 115.152 242.495 115.537C243.052 115.914 243.778 116.103 244.673 116.103C245.647 116.103 246.426 115.901 247.009 115.497C247.593 115.086 247.884 114.585 247.884 113.995C247.884 113.518 247.705 113.117 247.347 112.792C246.996 112.467 246.456 112.222 245.727 112.056L243.141 111.49C241.716 111.165 240.662 110.648 239.979 109.939C239.303 109.229 238.965 108.331 238.965 107.244C238.965 106.342 239.217 105.554 239.721 104.877C240.225 104.201 240.921 103.674 241.809 103.297C242.697 102.912 243.715 102.72 244.862 102.72C246.512 102.72 247.811 103.078 248.759 103.794C249.707 104.503 250.334 105.454 250.638 106.647ZM122.258 154.5C120.826 154.5 119.576 154.172 118.509 153.515C117.442 152.859 116.613 151.941 116.023 150.761C115.433 149.581 115.138 148.202 115.138 146.625C115.138 145.04 115.433 143.655 116.023 142.468C116.613 141.282 117.442 140.36 118.509 139.704C119.576 139.048 120.826 138.72 122.258 138.72C123.689 138.72 124.939 139.048 126.006 139.704C127.073 140.36 127.902 141.282 128.492 142.468C129.082 143.655 129.377 145.04 129.377 146.625C129.377 148.202 129.082 149.581 128.492 150.761C127.902 151.941 127.073 152.859 126.006 153.515C124.939 154.172 123.689 154.5 122.258 154.5ZM122.268 152.004C123.196 152.004 123.965 151.759 124.574 151.268C125.184 150.778 125.635 150.125 125.927 149.309C126.225 148.494 126.374 147.596 126.374 146.615C126.374 145.64 126.225 144.745 125.927 143.93C125.635 143.108 125.184 142.449 124.574 141.951C123.965 141.454 123.196 141.206 122.268 141.206C121.333 141.206 120.557 141.454 119.941 141.951C119.331 142.449 118.877 143.108 118.579 143.93C118.287 144.745 118.141 145.64 118.141 146.615C118.141 147.596 118.287 148.494 118.579 149.309C118.877 150.125 119.331 150.778 119.941 151.268C120.557 151.759 121.333 152.004 122.268 152.004ZM133.395 159.919V138.919H136.299V141.395H136.547C136.72 141.076 136.968 140.708 137.293 140.291C137.618 139.873 138.069 139.509 138.645 139.197C139.222 138.879 139.984 138.72 140.932 138.72C142.165 138.72 143.266 139.031 144.234 139.654C145.201 140.278 145.96 141.176 146.511 142.349C147.067 143.522 147.346 144.934 147.346 146.585C147.346 148.235 147.071 149.651 146.52 150.831C145.97 152.004 145.215 152.909 144.253 153.545C143.292 154.175 142.195 154.49 140.962 154.49C140.034 154.49 139.275 154.334 138.685 154.022C138.102 153.711 137.645 153.346 137.313 152.929C136.982 152.511 136.726 152.14 136.547 151.815H136.368V159.919H133.395ZM136.309 146.555C136.309 147.629 136.465 148.57 136.776 149.379C137.088 150.188 137.538 150.821 138.128 151.278C138.718 151.729 139.441 151.954 140.296 151.954C141.184 151.954 141.927 151.719 142.523 151.248C143.12 150.771 143.571 150.125 143.876 149.309C144.187 148.494 144.343 147.576 144.343 146.555C144.343 145.547 144.19 144.643 143.886 143.841C143.587 143.038 143.136 142.405 142.533 141.941C141.937 141.477 141.191 141.245 140.296 141.245C139.434 141.245 138.705 141.467 138.109 141.912C137.519 142.356 137.071 142.975 136.766 143.771C136.461 144.566 136.309 145.494 136.309 146.555ZM158.506 138.919V141.305H150.164V138.919H158.506ZM152.401 135.26H155.374V149.707C155.374 150.284 155.46 150.718 155.632 151.01C155.805 151.295 156.027 151.49 156.299 151.596C156.577 151.696 156.879 151.745 157.203 151.745C157.442 151.745 157.651 151.729 157.83 151.696C158.009 151.663 158.148 151.636 158.247 151.616L158.784 154.072C158.612 154.138 158.367 154.205 158.049 154.271C157.73 154.344 157.333 154.384 156.855 154.39C156.073 154.404 155.344 154.264 154.668 153.973C153.992 153.681 153.445 153.23 153.027 152.62C152.61 152.011 152.401 151.245 152.401 150.324V135.26ZM162.495 154.191V138.919H165.468V154.191H162.495ZM163.996 136.562C163.479 136.562 163.035 136.39 162.664 136.045C162.299 135.694 162.117 135.276 162.117 134.792C162.117 134.302 162.299 133.884 162.664 133.539C163.035 133.188 163.479 133.012 163.996 133.012C164.513 133.012 164.954 133.188 165.319 133.539C165.69 133.884 165.875 134.302 165.875 134.792C165.875 135.276 165.69 135.694 165.319 136.045C164.954 136.39 164.513 136.562 163.996 136.562ZM170.167 154.191V138.919H173.021V141.404H173.21C173.528 140.563 174.048 139.906 174.771 139.436C175.494 138.958 176.359 138.72 177.366 138.72C178.387 138.72 179.242 138.958 179.932 139.436C180.628 139.913 181.141 140.569 181.473 141.404H181.632C181.996 140.589 182.576 139.94 183.372 139.456C184.167 138.965 185.115 138.72 186.216 138.72C187.601 138.72 188.731 139.154 189.606 140.022C190.488 140.891 190.929 142.2 190.929 143.95V154.191H187.956V144.228C187.956 143.194 187.674 142.445 187.111 141.981C186.547 141.517 185.874 141.285 185.092 141.285C184.124 141.285 183.372 141.583 182.835 142.18C182.298 142.77 182.03 143.529 182.03 144.457V154.191H179.066V144.039C179.066 143.211 178.808 142.545 178.291 142.041C177.774 141.537 177.101 141.285 176.272 141.285C175.709 141.285 175.189 141.434 174.711 141.733C174.241 142.024 173.86 142.432 173.568 142.956C173.283 143.479 173.14 144.086 173.14 144.775V154.191H170.167ZM195.613 154.191V138.919H198.586V154.191H195.613ZM197.115 136.562C196.598 136.562 196.154 136.39 195.782 136.045C195.418 135.694 195.236 135.276 195.236 134.792C195.236 134.302 195.418 133.884 195.782 133.539C196.154 133.188 196.598 133.012 197.115 133.012C197.632 133.012 198.073 133.188 198.437 133.539C198.809 133.884 198.994 134.302 198.994 134.792C198.994 135.276 198.809 135.694 198.437 136.045C198.073 136.39 197.632 136.562 197.115 136.562ZM202.968 154.191V152.153L211.241 141.643V141.504H203.236V138.919H214.949V141.086L206.995 151.467V151.606H215.228V154.191H202.968ZM223.88 154.529C222.912 154.529 222.037 154.35 221.255 153.993C220.473 153.628 219.853 153.101 219.396 152.412C218.945 151.722 218.719 150.877 218.719 149.876C218.719 149.014 218.885 148.305 219.217 147.748C219.548 147.191 219.995 146.751 220.559 146.426C221.122 146.101 221.752 145.856 222.448 145.69C223.144 145.524 223.853 145.398 224.576 145.312C225.491 145.206 226.233 145.12 226.803 145.054C227.373 144.981 227.788 144.865 228.046 144.706C228.305 144.547 228.434 144.288 228.434 143.93V143.86C228.434 142.992 228.189 142.319 227.698 141.842C227.214 141.365 226.492 141.126 225.53 141.126C224.53 141.126 223.741 141.348 223.164 141.792C222.594 142.23 222.2 142.717 221.981 143.254L219.187 142.618C219.518 141.69 220.002 140.94 220.638 140.37C221.281 139.794 222.021 139.376 222.856 139.118C223.691 138.852 224.569 138.72 225.491 138.72C226.101 138.72 226.747 138.793 227.43 138.939C228.119 139.078 228.762 139.336 229.359 139.714C229.962 140.092 230.456 140.632 230.84 141.335C231.225 142.031 231.417 142.936 231.417 144.049V154.191H228.513V152.103H228.394C228.202 152.488 227.914 152.866 227.529 153.237C227.145 153.608 226.651 153.916 226.048 154.162C225.444 154.407 224.722 154.529 223.88 154.529ZM224.526 152.143C225.348 152.143 226.051 151.981 226.634 151.656C227.224 151.331 227.672 150.907 227.976 150.383C228.288 149.853 228.444 149.286 228.444 148.683V146.714C228.338 146.82 228.132 146.92 227.827 147.012C227.529 147.099 227.188 147.175 226.803 147.241C226.419 147.301 226.044 147.357 225.68 147.41C225.315 147.457 225.01 147.496 224.765 147.529C224.188 147.602 223.661 147.725 223.184 147.897C222.713 148.07 222.335 148.318 222.05 148.643C221.772 148.961 221.633 149.386 221.633 149.916C221.633 150.652 221.905 151.208 222.448 151.586C222.992 151.958 223.684 152.143 224.526 152.143ZM243.206 138.919V141.305H234.864V138.919H243.206ZM237.101 135.26H240.074V149.707C240.074 150.284 240.16 150.718 240.332 151.01C240.505 151.295 240.727 151.49 240.999 151.596C241.277 151.696 241.579 151.745 241.903 151.745C242.142 151.745 242.351 151.729 242.53 151.696C242.709 151.663 242.848 151.636 242.947 151.616L243.484 154.072C243.312 154.138 243.067 154.205 242.749 154.271C242.43 154.344 242.033 154.384 241.555 154.39C240.773 154.404 240.044 154.264 239.368 153.973C238.692 153.681 238.145 153.23 237.727 152.62C237.31 152.011 237.101 151.245 237.101 150.324V135.26ZM247.195 154.191V138.919H250.168V154.191H247.195ZM248.696 136.562C248.179 136.562 247.735 136.39 247.364 136.045C246.999 135.694 246.817 135.276 246.817 134.792C246.817 134.302 246.999 133.884 247.364 133.539C247.735 133.188 248.179 133.012 248.696 133.012C249.213 133.012 249.654 133.188 250.019 133.539C250.39 133.884 250.575 134.302 250.575 134.792C250.575 135.276 250.39 135.694 250.019 136.045C249.654 136.39 249.213 136.562 248.696 136.562ZM261.301 154.5C259.869 154.5 258.619 154.172 257.552 153.515C256.485 152.859 255.656 151.941 255.066 150.761C254.476 149.581 254.181 148.202 254.181 146.625C254.181 145.04 254.476 143.655 255.066 142.468C255.656 141.282 256.485 140.36 257.552 139.704C258.619 139.048 259.869 138.72 261.301 138.72C262.732 138.72 263.982 139.048 265.049 139.704C266.116 140.36 266.945 141.282 267.535 142.468C268.125 143.655 268.42 145.04 268.42 146.625C268.42 148.202 268.125 149.581 267.535 150.761C266.945 151.941 266.116 152.859 265.049 153.515C263.982 154.172 262.732 154.5 261.301 154.5ZM261.311 152.004C262.239 152.004 263.007 151.759 263.617 151.268C264.227 150.778 264.678 150.125 264.97 149.309C265.268 148.494 265.417 147.596 265.417 146.615C265.417 145.64 265.268 144.745 264.97 143.93C264.678 143.108 264.227 142.449 263.617 141.951C263.007 141.454 262.239 141.206 261.311 141.206C260.376 141.206 259.6 141.454 258.984 141.951C258.374 142.449 257.92 143.108 257.622 143.93C257.33 144.745 257.184 145.64 257.184 146.615C257.184 147.596 257.33 148.494 257.622 149.309C257.92 150.125 258.374 150.778 258.984 151.268C259.6 151.759 260.376 152.004 261.311 152.004ZM275.411 145.123V154.191H272.438V138.919H275.292V141.404H275.481C275.832 140.596 276.383 139.946 277.132 139.456C277.887 138.965 278.839 138.72 279.985 138.72C281.026 138.72 281.937 138.939 282.72 139.376C283.502 139.807 284.108 140.45 284.539 141.305C284.97 142.16 285.186 143.217 285.186 144.477V154.191H282.213V144.835C282.213 143.728 281.924 142.863 281.348 142.24C280.771 141.61 279.979 141.295 278.971 141.295C278.282 141.295 277.669 141.444 277.132 141.743C276.601 142.041 276.18 142.478 275.869 143.055C275.564 143.625 275.411 144.315 275.411 145.123Z" fill="#303030"/>
<path d="M329.5 78.5957C328.119 78.5957 327 79.715 327 81.0957C327 82.4764 328.119 83.5957 329.5 83.5957V81.0957V78.5957ZM357.268 82.8635C358.244 81.8872 358.244 80.3042 357.268 79.3279L341.358 63.418C340.382 62.4417 338.799 62.4417 337.822 63.418C336.846 64.3943 336.846 65.9773 337.822 66.9536L351.964 81.0957L337.822 95.2378C336.846 96.2141 336.846 97.7971 337.822 98.7734C338.799 99.7497 340.382 99.7497 341.358 98.7734L357.268 82.8635ZM329.5 81.0957V83.5957H355.5V81.0957V78.5957H329.5V81.0957Z" fill="#6BB3AF"/>
<path d="M391.912 115.096L386.265 94.7321H389.496L393.463 110.502H393.652L397.779 94.7321H400.981L405.107 110.512H405.296L409.253 94.7321H412.495L406.837 115.096H403.745L399.459 99.8429H399.3L395.015 115.096H391.912ZM415.758 115.096V99.823H418.731V115.096H415.758ZM417.259 97.4664C416.742 97.4664 416.298 97.2941 415.927 96.9494C415.562 96.5981 415.38 96.1805 415.38 95.6966C415.38 95.206 415.562 94.7884 415.927 94.4437C416.298 94.0924 416.742 93.9167 417.259 93.9167C417.776 93.9167 418.217 94.0924 418.581 94.4437C418.953 94.7884 419.138 95.206 419.138 95.6966C419.138 96.1805 418.953 96.5981 418.581 96.9494C418.217 97.2941 417.776 97.4664 417.259 97.4664ZM423.43 115.096V99.823H426.304V102.249H426.463C426.741 101.427 427.232 100.781 427.934 100.31C428.644 99.8329 429.446 99.5943 430.341 99.5943C430.526 99.5943 430.745 99.6009 430.997 99.6142C431.256 99.6274 431.458 99.644 431.604 99.6639V102.508C431.484 102.474 431.272 102.438 430.967 102.398C430.662 102.352 430.357 102.329 430.052 102.329C429.35 102.329 428.723 102.478 428.173 102.776C427.63 103.068 427.199 103.475 426.881 103.999C426.562 104.516 426.403 105.106 426.403 105.769V115.096H423.43ZM440.912 115.404C439.407 115.404 438.111 115.082 437.024 114.439C435.944 113.79 435.108 112.878 434.518 111.705C433.935 110.525 433.643 109.143 433.643 107.559C433.643 105.994 433.935 104.616 434.518 103.422C435.108 102.229 435.93 101.298 436.984 100.628C438.045 99.9589 439.284 99.6241 440.703 99.6241C441.565 99.6241 442.4 99.7666 443.209 100.052C444.017 100.337 444.743 100.784 445.386 101.394C446.029 102.004 446.536 102.796 446.908 103.77C447.279 104.738 447.464 105.915 447.464 107.3V108.354H435.324V106.127H444.551C444.551 105.345 444.392 104.652 444.074 104.049C443.756 103.439 443.308 102.958 442.731 102.607C442.161 102.256 441.492 102.08 440.723 102.08C439.888 102.08 439.159 102.286 438.535 102.697C437.919 103.101 437.442 103.631 437.104 104.287C436.772 104.937 436.606 105.643 436.606 106.405V108.145C436.606 109.166 436.785 110.035 437.143 110.751C437.508 111.466 438.015 112.013 438.665 112.391C439.314 112.762 440.073 112.948 440.942 112.948C441.505 112.948 442.019 112.868 442.483 112.709C442.947 112.544 443.348 112.298 443.686 111.974C444.024 111.649 444.283 111.248 444.462 110.77L447.275 111.278C447.05 112.106 446.646 112.832 446.062 113.455C445.486 114.072 444.76 114.552 443.885 114.897C443.016 115.235 442.025 115.404 440.912 115.404ZM458.731 99.823V102.209H450.101V99.823H458.731ZM452.467 115.096V98.0531C452.467 97.0985 452.676 96.3064 453.094 95.6767C453.511 95.0403 454.065 94.5663 454.754 94.2548C455.444 93.9366 456.193 93.7775 457.001 93.7775C457.598 93.7775 458.108 93.8272 458.533 93.9267C458.957 94.0195 459.272 94.1056 459.477 94.1852L458.781 96.5914C458.642 96.5517 458.463 96.5053 458.244 96.4522C458.026 96.3926 457.76 96.3627 457.449 96.3627C456.726 96.3627 456.209 96.5417 455.898 96.8997C455.593 97.2576 455.44 97.7747 455.44 98.4508V115.096H452.467ZM462.499 115.096V99.823H465.373V102.249H465.532C465.81 101.427 466.301 100.781 467.003 100.31C467.713 99.8329 468.515 99.5943 469.409 99.5943C469.595 99.5943 469.814 99.6009 470.066 99.6142C470.324 99.6274 470.526 99.644 470.672 99.6639V102.508C470.553 102.474 470.341 102.438 470.036 102.398C469.731 102.352 469.426 102.329 469.121 102.329C468.418 102.329 467.792 102.478 467.242 102.776C466.698 103.068 466.267 103.475 465.949 103.999C465.631 104.516 465.472 105.106 465.472 105.769V115.096H462.499ZM478.253 115.434C477.285 115.434 476.41 115.255 475.628 114.897C474.846 114.532 474.226 114.005 473.769 113.316C473.318 112.626 473.092 111.781 473.092 110.78C473.092 109.919 473.258 109.209 473.59 108.653C473.921 108.096 474.368 107.655 474.932 107.33C475.495 107.005 476.125 106.76 476.821 106.594C477.517 106.429 478.226 106.303 478.949 106.216C479.864 106.11 480.606 106.024 481.176 105.958C481.746 105.885 482.161 105.769 482.419 105.61C482.678 105.451 482.807 105.192 482.807 104.834V104.765C482.807 103.896 482.562 103.224 482.071 102.746C481.587 102.269 480.865 102.03 479.904 102.03C478.903 102.03 478.114 102.252 477.537 102.697C476.967 103.134 476.573 103.621 476.354 104.158L473.56 103.522C473.891 102.594 474.375 101.845 475.011 101.275C475.654 100.698 476.394 100.28 477.229 100.022C478.064 99.7567 478.942 99.6241 479.864 99.6241C480.474 99.6241 481.12 99.697 481.803 99.8429C482.492 99.9821 483.135 100.241 483.732 100.618C484.335 100.996 484.829 101.537 485.213 102.239C485.598 102.935 485.79 103.84 485.79 104.954V115.096H482.886V113.008H482.767C482.575 113.392 482.287 113.77 481.902 114.141C481.518 114.512 481.024 114.821 480.421 115.066C479.817 115.311 479.095 115.434 478.253 115.434ZM478.899 113.047C479.721 113.047 480.424 112.885 481.007 112.56C481.597 112.235 482.045 111.811 482.35 111.287C482.661 110.757 482.817 110.19 482.817 109.587V107.618C482.711 107.724 482.505 107.824 482.2 107.917C481.902 108.003 481.561 108.079 481.176 108.145C480.792 108.205 480.417 108.261 480.053 108.314C479.688 108.361 479.383 108.401 479.138 108.434C478.561 108.507 478.034 108.629 477.557 108.802C477.086 108.974 476.708 109.223 476.423 109.547C476.145 109.866 476.006 110.29 476.006 110.82C476.006 111.556 476.278 112.113 476.821 112.491C477.365 112.862 478.057 113.047 478.899 113.047ZM490.45 115.096V99.823H493.303V102.309H493.492C493.811 101.467 494.331 100.811 495.053 100.34C495.776 99.8627 496.641 99.6241 497.649 99.6241C498.669 99.6241 499.525 99.8627 500.214 100.34C500.91 100.817 501.424 101.474 501.755 102.309H501.914C502.279 101.493 502.859 100.844 503.654 100.36C504.45 99.8694 505.398 99.6241 506.498 99.6241C507.883 99.6241 509.014 100.058 509.889 100.927C510.77 101.795 511.211 103.104 511.211 104.854V115.096H508.238V105.133C508.238 104.099 507.956 103.349 507.393 102.885C506.829 102.421 506.157 102.189 505.374 102.189C504.407 102.189 503.654 102.488 503.117 103.084C502.58 103.674 502.312 104.433 502.312 105.361V115.096H499.349V104.944C499.349 104.115 499.09 103.449 498.573 102.945C498.056 102.441 497.383 102.189 496.555 102.189C495.991 102.189 495.471 102.339 494.994 102.637C494.523 102.929 494.142 103.336 493.85 103.86C493.565 104.384 493.423 104.99 493.423 105.68V115.096H490.45ZM522.478 115.404C520.974 115.404 519.678 115.082 518.59 114.439C517.51 113.79 516.675 112.878 516.085 111.705C515.501 110.525 515.21 109.143 515.21 107.559C515.21 105.994 515.501 104.616 516.085 103.422C516.675 102.229 517.497 101.298 518.551 100.628C519.611 99.9589 520.851 99.6241 522.269 99.6241C523.131 99.6241 523.966 99.7666 524.775 100.052C525.584 100.337 526.31 100.784 526.953 101.394C527.596 102.004 528.103 102.796 528.474 103.77C528.845 104.738 529.031 105.915 529.031 107.3V108.354H516.89V106.127H526.117C526.117 105.345 525.958 104.652 525.64 104.049C525.322 103.439 524.875 102.958 524.298 102.607C523.728 102.256 523.058 102.08 522.289 102.08C521.454 102.08 520.725 102.286 520.102 102.697C519.485 103.101 519.008 103.631 518.67 104.287C518.339 104.937 518.173 105.643 518.173 106.405V108.145C518.173 109.166 518.352 110.035 518.71 110.751C519.074 111.466 519.581 112.013 520.231 112.391C520.881 112.762 521.64 112.948 522.508 112.948C523.072 112.948 523.585 112.868 524.049 112.709C524.513 112.544 524.914 112.298 525.252 111.974C525.59 111.649 525.849 111.248 526.028 110.77L528.842 111.278C528.617 112.106 528.212 112.832 527.629 113.455C527.052 114.072 526.326 114.552 525.451 114.897C524.583 115.235 523.592 115.404 522.478 115.404ZM540.785 93.7775L534.223 118.158H531.568L538.13 93.7775H540.785ZM433.242 151.096V130.732H445.87V133.377H436.314V139.581H444.965V142.216H436.314V151.096H433.242ZM453.083 130.732V151.096H450.11V130.732H453.083ZM464.215 151.404C462.784 151.404 461.534 151.076 460.467 150.42C459.4 149.763 458.571 148.845 457.981 147.665C457.391 146.485 457.096 145.107 457.096 143.529C457.096 141.945 457.391 140.559 457.981 139.373C458.571 138.186 459.4 137.265 460.467 136.608C461.534 135.952 462.784 135.624 464.215 135.624C465.647 135.624 466.897 135.952 467.964 136.608C469.031 137.265 469.86 138.186 470.45 139.373C471.04 140.559 471.335 141.945 471.335 143.529C471.335 145.107 471.04 146.485 470.45 147.665C469.86 148.845 469.031 149.763 467.964 150.42C466.897 151.076 465.647 151.404 464.215 151.404ZM464.225 148.908C465.153 148.908 465.922 148.663 466.532 148.172C467.142 147.682 467.593 147.029 467.884 146.214C468.183 145.398 468.332 144.5 468.332 143.519C468.332 142.545 468.183 141.65 467.884 140.834C467.593 140.012 467.142 139.353 466.532 138.856C465.922 138.358 465.153 138.11 464.225 138.11C463.291 138.11 462.515 138.358 461.899 138.856C461.289 139.353 460.835 140.012 460.536 140.834C460.245 141.65 460.099 142.545 460.099 143.519C460.099 144.5 460.245 145.398 460.536 146.214C460.835 147.029 461.289 147.682 461.899 148.172C462.515 148.663 463.291 148.908 464.225 148.908ZM478.2 151.096L473.705 135.823H476.778L479.771 147.039H479.92L482.923 135.823H485.995L488.978 146.989H489.127L492.1 135.823H495.173L490.688 151.096H487.655L484.553 140.069H484.325L481.222 151.096H478.2Z" fill="#554F4F"/>
<g clip-path="url(#clip1_3130_5246)">
<mask id="mask0_3130_5246" style="mask-type:luminance" maskUnits="userSpaceOnUse" x="431" y="3" width="65" height="65">
<path d="M495.5 3.0957H431.5V67.0957H495.5V3.0957Z" fill="white"/>
</mask>
<g mask="url(#mask0_3130_5246)">
<path d="M444.833 45.0959C443.74 45.0959 442.833 44.1892 442.833 43.0959V24.4292C442.833 23.3359 443.74 22.4292 444.833 22.4292C445.927 22.4292 446.833 23.3359 446.833 24.4292V43.0959C446.833 44.1892 445.927 45.0959 444.833 45.0959Z" fill="#554F4F"/>
<path d="M445.5 63.7625C439.606 63.7625 434.833 58.9892 434.833 53.0959C434.833 47.2025 439.606 42.4292 445.5 42.4292C451.393 42.4292 456.166 47.2025 456.166 53.0959C456.166 58.9892 451.393 63.7625 445.5 63.7625ZM445.5 46.4292C441.82 46.4292 438.833 49.4159 438.833 53.0959C438.833 56.7759 441.82 59.7625 445.5 59.7625C449.18 59.7625 452.166 56.7759 452.166 53.0959C452.166 49.4159 449.18 46.4292 445.5 46.4292Z" fill="#554F4F"/>
<path d="M444.833 26.4292C439.313 26.4292 434.833 21.9492 434.833 16.4292C434.833 10.9092 439.313 6.4292 444.833 6.4292C450.353 6.4292 454.833 10.9092 454.833 16.4292C454.833 21.9492 450.353 26.4292 444.833 26.4292ZM444.833 10.4292C441.526 10.4292 438.833 13.1225 438.833 16.4292C438.833 19.7359 441.526 22.4292 444.833 22.4292C448.14 22.4292 450.833 19.7359 450.833 16.4292C450.833 13.1225 448.14 10.4292 444.833 10.4292Z" fill="#554F4F"/>
<path d="M482.167 26.4292C476.647 26.4292 472.167 21.9492 472.167 16.4292C472.167 10.9092 476.647 6.4292 482.167 6.4292C487.687 6.4292 492.167 10.9092 492.167 16.4292C492.167 21.9492 487.687 26.4292 482.167 26.4292ZM482.167 10.4292C478.86 10.4292 476.167 13.1225 476.167 16.4292C476.167 19.7359 478.86 22.4292 482.167 22.4292C485.474 22.4292 488.167 19.7359 488.167 16.4292C488.167 13.1225 485.474 10.4292 482.167 10.4292Z" fill="#554F4F"/>
<path d="M445.182 45.0968C445.022 45.0968 444.862 45.0702 444.676 45.0435C443.609 44.7768 442.969 43.6835 443.236 42.6168C444.702 36.9635 449.796 33.0168 455.636 33.0168C455.662 33.0168 455.662 33.0168 455.689 33.0168L464.836 33.0435C464.862 33.0435 464.862 33.0435 464.889 33.0435C470.809 33.0435 476.116 29.2834 478.062 23.6834C478.436 22.6434 479.556 22.0834 480.596 22.4567C481.636 22.8301 482.196 23.95 481.822 24.99C479.316 32.2166 472.409 36.9635 464.809 37.0435L455.662 37.0168H455.636C451.609 37.0168 448.116 39.7368 447.102 43.6302C446.889 44.5102 446.062 45.0968 445.182 45.0968Z" fill="#554F4F"/>
</g>
</g>
<path d="M571.5 78.5957C570.119 78.5957 569 79.715 569 81.0957C569 82.4764 570.119 83.5957 571.5 83.5957V81.0957V78.5957ZM599.268 82.8635C600.244 81.8872 600.244 80.3042 599.268 79.3279L583.358 63.418C582.382 62.4417 580.799 62.4417 579.822 63.418C578.846 64.3943 578.846 65.9773 579.822 66.9536L593.964 81.0957L579.822 95.2378C578.846 96.2141 578.846 97.7971 579.822 98.7734C580.799 99.7497 582.382 99.7497 583.358 98.7734L599.268 82.8635ZM571.5 81.0957V83.5957H597.5V81.0957V78.5957H571.5V81.0957Z" fill="#6BB3AF"/>
<path d="M629.888 133.096V112.732H637.147C638.731 112.732 640.044 113.02 641.084 113.597C642.125 114.174 642.904 114.963 643.421 115.964C643.938 116.958 644.197 118.078 644.197 119.324C644.197 120.577 643.935 121.704 643.411 122.705C642.894 123.699 642.112 124.488 641.065 125.072C640.024 125.648 638.715 125.937 637.137 125.937H632.145V123.331H636.859C637.86 123.331 638.672 123.159 639.295 122.814C639.918 122.463 640.375 121.986 640.667 121.383C640.958 120.779 641.104 120.093 641.104 119.324C641.104 118.555 640.958 117.873 640.667 117.276C640.375 116.68 639.914 116.212 639.285 115.874C638.662 115.536 637.84 115.367 636.819 115.367H632.961V133.096H629.888ZM648.26 133.096V117.823H651.133V120.249H651.293C651.571 119.427 652.062 118.781 652.764 118.31C653.473 117.833 654.276 117.594 655.17 117.594C655.356 117.594 655.575 117.601 655.827 117.614C656.085 117.627 656.287 117.644 656.433 117.664V120.508C656.314 120.474 656.102 120.438 655.797 120.398C655.492 120.352 655.187 120.329 654.882 120.329C654.179 120.329 653.553 120.478 653.003 120.776C652.459 121.068 652.028 121.475 651.71 121.999C651.392 122.516 651.233 123.106 651.233 123.769V133.096H648.26ZM665.592 133.404C664.161 133.404 662.911 133.076 661.844 132.42C660.777 131.763 659.948 130.845 659.358 129.665C658.768 128.485 658.473 127.107 658.473 125.529C658.473 123.945 658.768 122.559 659.358 121.373C659.948 120.186 660.777 119.265 661.844 118.608C662.911 117.952 664.161 117.624 665.592 117.624C667.024 117.624 668.274 117.952 669.341 118.608C670.408 119.265 671.237 120.186 671.827 121.373C672.417 122.559 672.712 123.945 672.712 125.529C672.712 127.107 672.417 128.485 671.827 129.665C671.237 130.845 670.408 131.763 669.341 132.42C668.274 133.076 667.024 133.404 665.592 133.404ZM665.602 130.908C666.53 130.908 667.299 130.663 667.909 130.172C668.519 129.682 668.97 129.029 669.261 128.214C669.56 127.398 669.709 126.5 669.709 125.519C669.709 124.545 669.56 123.65 669.261 122.834C668.97 122.012 668.519 121.353 667.909 120.856C667.299 120.358 666.53 120.11 665.602 120.11C664.668 120.11 663.892 120.358 663.276 120.856C662.666 121.353 662.212 122.012 661.913 122.834C661.622 123.65 661.476 124.545 661.476 125.519C661.476 126.5 661.622 127.398 661.913 128.214C662.212 129.029 662.666 129.682 663.276 130.172C663.892 130.663 664.668 130.908 665.602 130.908ZM683.859 117.823V120.209H675.517V117.823H683.859ZM677.754 114.164H680.727V128.611C680.727 129.188 680.814 129.622 680.986 129.914C681.158 130.199 681.38 130.394 681.652 130.501C681.93 130.6 682.232 130.65 682.557 130.65C682.796 130.65 683.004 130.633 683.183 130.6C683.362 130.567 683.502 130.54 683.601 130.52L684.138 132.976C683.966 133.043 683.72 133.109 683.402 133.175C683.084 133.248 682.686 133.288 682.209 133.295C681.427 133.308 680.698 133.169 680.021 132.877C679.345 132.585 678.798 132.135 678.381 131.525C677.963 130.915 677.754 130.149 677.754 129.228V114.164ZM694.117 133.404C692.686 133.404 691.436 133.076 690.369 132.42C689.302 131.763 688.473 130.845 687.883 129.665C687.293 128.485 686.998 127.107 686.998 125.529C686.998 123.945 687.293 122.559 687.883 121.373C688.473 120.186 689.302 119.265 690.369 118.608C691.436 117.952 692.686 117.624 694.117 117.624C695.549 117.624 696.799 117.952 697.866 118.608C698.933 119.265 699.762 120.186 700.352 121.373C700.942 122.559 701.237 123.945 701.237 125.529C701.237 127.107 700.942 128.485 700.352 129.665C699.762 130.845 698.933 131.763 697.866 132.42C696.799 133.076 695.549 133.404 694.117 133.404ZM694.127 130.908C695.055 130.908 695.824 130.663 696.434 130.172C697.044 129.682 697.495 129.029 697.786 128.214C698.085 127.398 698.234 126.5 698.234 125.519C698.234 124.545 698.085 123.65 697.786 122.834C697.495 122.012 697.044 121.353 696.434 120.856C695.824 120.358 695.055 120.11 694.127 120.11C693.193 120.11 692.417 120.358 691.801 120.856C691.191 121.353 690.737 122.012 690.438 122.834C690.147 123.65 690.001 124.545 690.001 125.519C690.001 126.5 690.147 127.398 690.438 128.214C690.737 129.029 691.191 129.682 691.801 130.172C692.417 130.663 693.193 130.908 694.127 130.908ZM712.384 117.823V120.209H704.042V117.823H712.384ZM706.279 114.164H709.252V128.611C709.252 129.188 709.339 129.622 709.511 129.914C709.683 130.199 709.905 130.394 710.177 130.501C710.456 130.6 710.757 130.65 711.082 130.65C711.321 130.65 711.529 130.633 711.708 130.6C711.887 130.567 712.027 130.54 712.126 130.52L712.663 132.976C712.491 133.043 712.245 133.109 711.927 133.175C711.609 133.248 711.211 133.288 710.734 133.295C709.952 133.308 709.223 133.169 708.546 132.877C707.87 132.585 707.323 132.135 706.906 131.525C706.488 130.915 706.279 130.149 706.279 129.228V114.164ZM718.252 138.823C717.808 138.823 717.404 138.787 717.039 138.714C716.675 138.647 716.403 138.574 716.224 138.495L716.94 136.059C717.484 136.205 717.967 136.268 718.392 136.248C718.816 136.228 719.19 136.069 719.515 135.77C719.847 135.472 720.138 134.985 720.39 134.309L720.758 133.295L715.17 117.823H718.352L722.22 129.675H722.379L726.247 117.823H729.439L723.144 135.134C722.853 135.93 722.482 136.602 722.031 137.153C721.58 137.709 721.043 138.127 720.42 138.405C719.797 138.684 719.074 138.823 718.252 138.823ZM732.933 138.823V117.823H735.836V120.299H736.085C736.257 119.981 736.505 119.613 736.83 119.195C737.155 118.778 737.606 118.413 738.183 118.101C738.759 117.783 739.522 117.624 740.469 117.624C741.702 117.624 742.803 117.936 743.771 118.559C744.738 119.182 745.497 120.08 746.048 121.253C746.604 122.427 746.883 123.839 746.883 125.489C746.883 127.14 746.608 128.555 746.058 129.735C745.507 130.908 744.752 131.813 743.791 132.449C742.829 133.079 741.732 133.394 740.499 133.394C739.571 133.394 738.812 133.238 738.222 132.927C737.639 132.615 737.182 132.251 736.85 131.833C736.519 131.415 736.264 131.044 736.085 130.719H735.906V138.823H732.933ZM735.846 125.459C735.846 126.533 736.002 127.474 736.313 128.283C736.625 129.092 737.076 129.725 737.666 130.182C738.255 130.633 738.978 130.858 739.833 130.858C740.721 130.858 741.464 130.623 742.06 130.153C742.657 129.675 743.108 129.029 743.413 128.214C743.724 127.398 743.88 126.48 743.88 125.459C743.88 124.452 743.728 123.547 743.423 122.745C743.124 121.943 742.674 121.31 742.07 120.846C741.474 120.382 740.728 120.15 739.833 120.15C738.971 120.15 738.242 120.372 737.646 120.816C737.056 121.26 736.608 121.88 736.303 122.675C735.998 123.471 735.846 124.399 735.846 125.459ZM757.496 133.404C755.991 133.404 754.696 133.082 753.608 132.439C752.528 131.79 751.693 130.878 751.103 129.705C750.519 128.525 750.228 127.143 750.228 125.559C750.228 123.994 750.519 122.616 751.103 121.422C751.693 120.229 752.515 119.298 753.569 118.628C754.629 117.959 755.869 117.624 757.287 117.624C758.149 117.624 758.984 117.767 759.793 118.052C760.602 118.337 761.328 118.784 761.971 119.394C762.614 120.004 763.121 120.796 763.492 121.77C763.863 122.738 764.049 123.915 764.049 125.3V126.354H751.908V124.127H761.135C761.135 123.345 760.976 122.652 760.658 122.049C760.34 121.439 759.893 120.958 759.316 120.607C758.746 120.256 758.076 120.08 757.307 120.08C756.472 120.08 755.743 120.286 755.12 120.697C754.503 121.101 754.026 121.631 753.688 122.287C753.357 122.937 753.191 123.643 753.191 124.405V126.145C753.191 127.166 753.37 128.035 753.728 128.751C754.092 129.466 754.599 130.013 755.249 130.391C755.899 130.762 756.658 130.948 757.526 130.948C758.089 130.948 758.603 130.868 759.067 130.709C759.531 130.544 759.932 130.298 760.27 129.974C760.608 129.649 760.867 129.248 761.046 128.77L763.86 129.278C763.634 130.106 763.23 130.832 762.647 131.455C762.07 132.072 761.344 132.552 760.469 132.897C759.601 133.235 758.61 133.404 757.496 133.404Z" fill="#554F4F"/>
<path d="M741.273 26.374C742.881 26.374 744.422 26.9996 745.559 28.1133C746.696 29.2269 747.335 30.7373 747.335 32.3122V73.2194C747.335 74.7943 746.696 76.3047 745.559 77.4183C744.422 78.5319 742.881 79.1575 741.273 79.1575H721.067C719.459 79.1575 717.917 78.5319 716.78 77.4183C715.644 76.3047 715.005 74.7943 715.005 73.2194V32.3122C715.005 30.7373 715.644 29.2269 716.78 28.1133C717.917 26.9996 719.459 26.374 721.067 26.374H741.273ZM741.273 30.3328H721.067C720.531 30.3328 720.017 30.5413 719.638 30.9125C719.259 31.2837 719.046 31.7872 719.046 32.3122V73.2194C719.046 74.312 719.951 75.1988 721.067 75.1988H741.273C741.809 75.1988 742.323 74.9902 742.702 74.619C743.081 74.2478 743.294 73.7443 743.294 73.2194V32.3122C743.294 31.7872 743.081 31.2837 742.702 30.9125C742.323 30.5413 741.809 30.3328 741.273 30.3328ZM734.535 67.2812C735.071 67.2805 735.585 67.4884 735.964 67.8591C736.344 68.2298 736.557 68.733 736.558 69.258C736.559 69.7829 736.347 70.2867 735.968 70.6584C735.59 71.0301 735.076 71.2393 734.54 71.24L727.805 71.2506C727.269 71.2513 726.755 71.0434 726.375 70.6727C725.996 70.302 725.782 69.7988 725.782 69.2738C725.781 68.7488 725.993 68.2451 726.371 67.8734C726.75 67.5017 727.264 67.2925 727.799 67.2918L734.535 67.2812Z" fill="#554F4F"/>
<path d="M675.833 74.4292C677.306 74.4292 678.5 75.6231 678.5 77.0959C678.5 78.5686 677.306 79.7625 675.833 79.7625H649.167C647.694 79.7625 646.5 78.5686 646.5 77.0959C646.5 75.6231 647.694 74.4292 649.167 74.4292H675.833Z" fill="#554F4F"/>
<path d="M659.481 75.8378V67.7875C659.481 66.676 660.833 65.7749 662.5 65.7749C664.167 65.7749 665.519 66.676 665.519 67.7875V75.8378C665.519 76.9493 664.167 77.8504 662.5 77.8504C660.833 77.8504 659.481 76.9493 659.481 75.8378Z" fill="#554F4F"/>
<path d="M686.502 31.7622C687.974 31.7622 689.168 32.9561 689.168 34.4289V66.4289C689.168 67.9016 687.974 69.0955 686.502 69.0955H638.502C637.029 69.0955 635.835 67.9016 635.835 66.4289V34.4289C635.835 32.9561 637.029 31.7622 638.502 31.7622H686.502ZM639.557 65.171H685.447V36.0179H663.104H639.557V65.171Z" fill="#554F4F"/>
<path d="M795.5 78.5957C794.119 78.5957 793 79.715 793 81.0957C793 82.4764 794.119 83.5957 795.5 83.5957V81.0957V78.5957ZM823.268 82.8635C824.244 81.8872 824.244 80.3042 823.268 79.3279L807.358 63.418C806.382 62.4417 804.799 62.4417 803.822 63.418C802.846 64.3943 802.846 65.9773 803.822 66.9536L817.964 81.0957L803.822 95.2378C802.846 96.2141 802.846 97.7971 803.822 98.7734C804.799 99.7497 806.382 99.7497 807.358 98.7734L823.268 82.8635ZM795.5 81.0957V83.5957H821.5V81.0957V78.5957H795.5V81.0957Z" fill="#6BB3AF"/>
<path d="M871.22 133.096V112.732H878.479C880.063 112.732 881.375 113.02 882.416 113.597C883.457 114.174 884.236 114.963 884.753 115.964C885.27 116.958 885.528 118.078 885.528 119.324C885.528 120.577 885.266 121.704 884.743 122.705C884.226 123.699 883.444 124.488 882.396 125.072C881.355 125.648 880.046 125.937 878.469 125.937H873.477V123.331H878.19C879.191 123.331 880.003 123.159 880.626 122.814C881.249 122.463 881.707 121.986 881.998 121.383C882.29 120.779 882.436 120.093 882.436 119.324C882.436 118.555 882.29 117.873 881.998 117.276C881.707 116.68 881.246 116.212 880.616 115.874C879.993 115.536 879.171 115.367 878.15 115.367H874.292V133.096H871.22ZM889.592 133.096V117.823H892.465V120.249H892.624C892.903 119.427 893.393 118.781 894.096 118.31C894.805 117.833 895.607 117.594 896.502 117.594C896.688 117.594 896.906 117.601 897.158 117.614C897.417 117.627 897.619 117.644 897.765 117.664V120.508C897.646 120.474 897.433 120.438 897.128 120.398C896.824 120.352 896.519 120.329 896.214 120.329C895.511 120.329 894.885 120.478 894.334 120.776C893.791 121.068 893.36 121.475 893.042 121.999C892.724 122.516 892.565 123.106 892.565 123.769V133.096H889.592ZM906.924 133.404C905.492 133.404 904.243 133.076 903.175 132.42C902.108 131.763 901.28 130.845 900.69 129.665C900.1 128.485 899.805 127.107 899.805 125.529C899.805 123.945 900.1 122.559 900.69 121.373C901.28 120.186 902.108 119.265 903.175 118.608C904.243 117.952 905.492 117.624 906.924 117.624C908.356 117.624 909.605 117.952 910.673 118.608C911.74 119.265 912.568 120.186 913.158 121.373C913.748 122.559 914.043 123.945 914.043 125.529C914.043 127.107 913.748 128.485 913.158 129.665C912.568 130.845 911.74 131.763 910.673 132.42C909.605 133.076 908.356 133.404 906.924 133.404ZM906.934 130.908C907.862 130.908 908.631 130.663 909.241 130.172C909.851 129.682 910.301 129.029 910.593 128.214C910.891 127.398 911.04 126.5 911.04 125.519C911.04 124.545 910.891 123.65 910.593 122.834C910.301 122.012 909.851 121.353 909.241 120.856C908.631 120.358 907.862 120.11 906.934 120.11C905.999 120.11 905.224 120.358 904.607 120.856C903.997 121.353 903.543 122.012 903.245 122.834C902.953 123.65 902.808 124.545 902.808 125.519C902.808 126.5 902.953 127.398 903.245 128.214C903.543 129.029 903.997 129.682 904.607 130.172C905.224 130.663 905.999 130.908 906.934 130.908ZM930.608 117.823L925.069 133.096H921.887L916.339 117.823H919.531L923.399 129.576H923.558L927.416 117.823H930.608ZM940.165 133.404C938.66 133.404 937.364 133.082 936.277 132.439C935.196 131.79 934.361 130.878 933.771 129.705C933.188 128.525 932.896 127.143 932.896 125.559C932.896 123.994 933.188 122.616 933.771 121.422C934.361 120.229 935.183 119.298 936.237 118.628C937.298 117.959 938.537 117.624 939.956 117.624C940.817 117.624 941.653 117.767 942.461 118.052C943.27 118.337 943.996 118.784 944.639 119.394C945.282 120.004 945.789 120.796 946.16 121.77C946.532 122.738 946.717 123.915 946.717 125.3V126.354H934.576V124.127H943.804C943.804 123.345 943.645 122.652 943.326 122.049C943.008 121.439 942.561 120.958 941.984 120.607C941.414 120.256 940.745 120.08 939.976 120.08C939.14 120.08 938.411 120.286 937.788 120.697C937.172 121.101 936.694 121.631 936.356 122.287C936.025 122.937 935.859 123.643 935.859 124.405V126.145C935.859 127.166 936.038 128.035 936.396 128.751C936.761 129.466 937.268 130.013 937.917 130.391C938.567 130.762 939.326 130.948 940.194 130.948C940.758 130.948 941.272 130.868 941.736 130.709C942.2 130.544 942.601 130.298 942.939 129.974C943.277 129.649 943.535 129.248 943.714 128.77L946.528 129.278C946.303 130.106 945.898 130.832 945.315 131.455C944.738 132.072 944.013 132.552 943.138 132.897C942.269 133.235 941.278 133.404 940.165 133.404Z" fill="#554F4F"/>
<path d="M935.167 69.0957C936.64 69.0957 937.833 70.2896 937.833 71.7623C937.833 73.2351 936.64 74.429 935.167 74.429H903.167C901.694 74.429 900.5 73.2351 900.5 71.7623C900.5 70.2896 901.694 69.0957 903.167 69.0957H935.167ZM935.167 50.429C936.64 50.429 937.833 51.6229 937.833 53.0957C937.833 54.5684 936.64 55.7623 935.167 55.7623H903.167C901.694 55.7623 900.5 54.5684 900.5 53.0957C900.5 51.6229 901.694 50.429 903.167 50.429H935.167ZM889.281 28.5433C890.322 27.5019 892.011 27.5019 893.053 28.5433C894.094 29.5847 894.094 31.2733 893.053 32.3147L890.938 34.429L893.053 36.5433L893.147 36.6429C894.093 37.6897 894.061 39.3059 893.053 40.3147C892.044 41.3236 890.427 41.355 889.381 40.4091L889.281 40.3147L887.167 38.2005L885.053 40.3147C884.011 41.3561 882.322 41.3561 881.281 40.3147C880.24 39.2733 880.24 37.5847 881.281 36.5433L883.395 34.429L881.281 32.3147L881.187 32.2151C880.241 31.1683 880.272 29.5521 881.281 28.5433C882.29 27.5344 883.906 27.503 884.953 28.4489L885.053 28.5433L887.167 30.6575L889.281 28.5433ZM935.167 31.7623C936.64 31.7623 937.833 32.9562 937.833 34.429C937.833 35.9018 936.64 37.0957 935.167 37.0957H903.167C901.694 37.0957 900.5 35.9018 900.5 34.429C900.5 32.9562 901.694 31.7623 903.167 31.7623H935.167Z" fill="#554F4F"/>
<path d="M889.833 53.0957C889.833 51.6229 888.639 50.429 887.167 50.429C885.694 50.429 884.5 51.6229 884.5 53.0957C884.5 54.5685 885.694 55.7624 887.167 55.7624C888.639 55.7624 889.833 54.5685 889.833 53.0957ZM895.167 53.0957C895.167 57.514 891.585 61.0957 887.167 61.0957C882.748 61.0957 879.167 57.514 879.167 53.0957C879.167 48.6774 882.748 45.0957 887.167 45.0957C891.585 45.0957 895.167 48.6774 895.167 53.0957Z" fill="#554F4F"/>
<path d="M889.833 71.7622C889.833 70.2894 888.639 69.0955 887.167 69.0955C885.694 69.0955 884.5 70.2894 884.5 71.7622C884.5 73.235 885.694 74.4289 887.167 74.4289C888.639 74.4289 889.833 73.235 889.833 71.7622ZM895.167 71.7622C895.167 76.1805 891.585 79.7622 887.167 79.7622C882.748 79.7622 879.167 76.1805 879.167 71.7622C879.167 67.3439 882.748 63.7622 887.167 63.7622C891.585 63.7622 895.167 67.3439 895.167 71.7622Z" fill="#554F4F"/>
<path d="M996.5 78.5957C995.119 78.5957 994 79.715 994 81.0957C994 82.4764 995.119 83.5957 996.5 83.5957V81.0957V78.5957ZM1024.27 82.8635C1025.24 81.8872 1025.24 80.3042 1024.27 79.3279L1008.36 63.418C1007.38 62.4417 1005.8 62.4417 1004.82 63.418C1003.85 64.3943 1003.85 65.9773 1004.82 66.9536L1018.96 81.0957L1004.82 95.2378C1003.85 96.2141 1003.85 97.7971 1004.82 98.7734C1005.8 99.7497 1007.38 99.7497 1008.36 98.7734L1024.27 82.8635ZM996.5 81.0957V83.5957H1022.5V81.0957V78.5957H996.5V81.0957Z" fill="#6BB3AF"/>
<path d="M1054.78 107.732H1058.51L1065 123.562H1065.23L1071.72 107.732H1075.45V128.096H1072.52V113.36H1072.33L1066.33 128.066H1063.9L1057.9 113.35H1057.71V128.096H1054.78V107.732ZM1086.81 128.404C1085.38 128.404 1084.13 128.076 1083.06 127.42C1081.99 126.763 1081.16 125.845 1080.57 124.665C1079.98 123.485 1079.69 122.107 1079.69 120.529C1079.69 118.945 1079.98 117.559 1080.57 116.373C1081.16 115.186 1081.99 114.265 1083.06 113.608C1084.13 112.952 1085.38 112.624 1086.81 112.624C1088.24 112.624 1089.49 112.952 1090.56 113.608C1091.62 114.265 1092.45 115.186 1093.04 116.373C1093.63 117.559 1093.93 118.945 1093.93 120.529C1093.93 122.107 1093.63 123.485 1093.04 124.665C1092.45 125.845 1091.62 126.763 1090.56 127.42C1089.49 128.076 1088.24 128.404 1086.81 128.404ZM1086.82 125.908C1087.75 125.908 1088.51 125.663 1089.12 125.172C1089.73 124.682 1090.18 124.029 1090.48 123.214C1090.77 122.398 1090.92 121.5 1090.92 120.519C1090.92 119.545 1090.77 118.65 1090.48 117.834C1090.18 117.012 1089.73 116.353 1089.12 115.856C1088.51 115.358 1087.75 115.11 1086.82 115.11C1085.88 115.11 1085.11 115.358 1084.49 115.856C1083.88 116.353 1083.43 117.012 1083.13 117.834C1082.84 118.65 1082.69 119.545 1082.69 120.519C1082.69 121.5 1082.84 122.398 1083.13 123.214C1083.43 124.029 1083.88 124.682 1084.49 125.172C1085.11 125.663 1085.88 125.908 1086.82 125.908ZM1104.38 128.404C1102.9 128.404 1101.63 128.069 1100.56 127.4C1099.5 126.724 1098.68 125.792 1098.11 124.606C1097.54 123.419 1097.26 122.06 1097.26 120.529C1097.26 118.978 1097.55 117.609 1098.13 116.422C1098.72 115.229 1099.54 114.298 1100.6 113.628C1101.66 112.959 1102.91 112.624 1104.35 112.624C1105.51 112.624 1106.54 112.84 1107.45 113.27C1108.36 113.695 1109.09 114.291 1109.65 115.06C1110.21 115.829 1110.55 116.727 1110.65 117.755H1107.76C1107.6 117.039 1107.24 116.422 1106.67 115.905C1106.1 115.388 1105.35 115.13 1104.4 115.13C1103.57 115.13 1102.84 115.349 1102.22 115.786C1101.6 116.217 1101.12 116.833 1100.78 117.635C1100.43 118.431 1100.26 119.372 1100.26 120.459C1100.26 121.573 1100.43 122.534 1100.77 123.343C1101.11 124.152 1101.58 124.778 1102.2 125.222C1102.82 125.666 1103.56 125.888 1104.4 125.888C1104.96 125.888 1105.47 125.786 1105.93 125.58C1106.39 125.368 1106.78 125.066 1107.09 124.675C1107.41 124.284 1107.63 123.814 1107.76 123.263H1110.65C1110.55 124.251 1110.23 125.133 1109.69 125.908C1109.15 126.684 1108.43 127.294 1107.53 127.738C1106.64 128.182 1105.59 128.404 1104.38 128.404ZM1117.27 122.915L1117.25 119.286H1117.76L1123.85 112.823H1127.41L1120.47 120.181H1120L1117.27 122.915ZM1114.53 128.096V107.732H1117.51V128.096H1114.53ZM1124.18 128.096L1118.71 120.837L1120.76 118.759L1127.83 128.096H1124.18ZM1140.49 121.762V112.823H1143.48V128.096H1140.55V125.451H1140.39C1140.04 126.266 1139.48 126.946 1138.7 127.489C1137.93 128.026 1136.98 128.295 1135.83 128.295C1134.85 128.295 1133.98 128.079 1133.22 127.648C1132.48 127.211 1131.89 126.564 1131.45 125.709C1131.03 124.854 1130.82 123.797 1130.82 122.537V112.823H1133.79V122.18C1133.79 123.22 1134.08 124.049 1134.66 124.665C1135.23 125.282 1135.98 125.59 1136.9 125.59C1137.46 125.59 1138.01 125.451 1138.56 125.172C1139.12 124.894 1139.58 124.473 1139.95 123.91C1140.32 123.346 1140.5 122.63 1140.49 121.762ZM1148.17 133.823V112.823H1151.07V115.299H1151.32C1151.49 114.981 1151.74 114.613 1152.07 114.195C1152.39 113.778 1152.84 113.413 1153.42 113.101C1154 112.783 1154.76 112.624 1155.71 112.624C1156.94 112.624 1158.04 112.936 1159.01 113.559C1159.98 114.182 1160.74 115.08 1161.29 116.253C1161.84 117.427 1162.12 118.839 1162.12 120.489C1162.12 122.14 1161.85 123.555 1161.3 124.735C1160.75 125.908 1159.99 126.813 1159.03 127.449C1158.07 128.079 1156.97 128.394 1155.74 128.394C1154.81 128.394 1154.05 128.238 1153.46 127.927C1152.88 127.615 1152.42 127.251 1152.09 126.833C1151.76 126.415 1151.5 126.044 1151.32 125.719H1151.14V133.823H1148.17ZM1151.08 120.459C1151.08 121.533 1151.24 122.474 1151.55 123.283C1151.86 124.092 1152.31 124.725 1152.9 125.182C1153.49 125.633 1154.22 125.858 1155.07 125.858C1155.96 125.858 1156.7 125.623 1157.3 125.153C1157.89 124.675 1158.35 124.029 1158.65 123.214C1158.96 122.398 1159.12 121.48 1159.12 120.459C1159.12 119.452 1158.97 118.547 1158.66 117.745C1158.36 116.943 1157.91 116.31 1157.31 115.846C1156.71 115.382 1155.97 115.15 1155.07 115.15C1154.21 115.15 1153.48 115.372 1152.88 115.816C1152.29 116.26 1151.85 116.88 1151.54 117.675C1151.24 118.471 1151.08 119.399 1151.08 120.459Z" fill="#554F4F"/>
<rect x="1079.5" y="28.0957" width="24" height="22" rx="3" stroke="#554F4F" stroke-width="4"/>
<rect x="1079.5" y="58.0957" width="24" height="20" rx="3" stroke="#554F4F" stroke-width="4"/>
<rect x="1113.5" y="28.0957" width="24" height="50" rx="3" stroke="#554F4F" stroke-width="4"/>
<circle cx="1097.5" cy="35.0957" r="2" fill="#554F4F"/>
<circle cx="1125.5" cy="71.0957" r="2" fill="#554F4F"/>
<path d="M1086.13 39.5957C1086.52 38.929 1087.48 38.929 1087.87 39.5957L1092.63 47.8457C1093.01 48.5124 1092.53 49.3457 1091.76 49.3457H1082.24C1081.47 49.3457 1080.99 48.5124 1081.37 47.8457L1086.13 39.5957Z" fill="#554F4F"/>
<path d="M1193.5 78.5957C1192.12 78.5957 1191 79.715 1191 81.0957C1191 82.4764 1192.12 83.5957 1193.5 83.5957V81.0957V78.5957ZM1221.27 82.8635C1222.24 81.8872 1222.24 80.3042 1221.27 79.3279L1205.36 63.418C1204.38 62.4417 1202.8 62.4417 1201.82 63.418C1200.85 64.3943 1200.85 65.9773 1201.82 66.9536L1215.96 81.0957L1201.82 95.2378C1200.85 96.2141 1200.85 97.7971 1201.82 98.7734C1202.8 99.7497 1204.38 99.7497 1205.36 98.7734L1221.27 82.8635ZM1193.5 81.0957V83.5957H1219.5V81.0957V78.5957H1193.5V81.0957Z" fill="#6BB3AF"/>
<path d="M1278.26 107.187H1271.67V86.8229H1278.47C1280.46 86.8229 1282.18 87.2306 1283.61 88.0459C1285.04 88.8546 1286.14 90.018 1286.9 91.536C1287.67 93.0473 1288.05 94.8603 1288.05 96.9749C1288.05 99.0961 1287.67 100.919 1286.89 102.444C1286.12 103.968 1285.01 105.142 1283.55 105.964C1282.09 106.779 1280.33 107.187 1278.26 107.187ZM1274.74 104.502H1278.09C1279.64 104.502 1280.93 104.21 1281.96 103.627C1282.99 103.037 1283.75 102.185 1284.26 101.071C1284.78 99.9512 1285.03 98.5857 1285.03 96.9749C1285.03 95.3773 1284.78 94.0218 1284.26 92.9081C1283.76 91.7945 1283.01 90.9493 1282.01 90.3726C1281.01 89.7959 1279.76 89.5075 1278.28 89.5075H1274.74V104.502ZM1298.92 107.495C1297.41 107.495 1296.12 107.173 1295.03 106.53C1293.95 105.881 1293.11 104.969 1292.52 103.796C1291.94 102.616 1291.65 101.234 1291.65 99.6496C1291.65 98.0852 1291.94 96.7064 1292.52 95.5132C1293.11 94.32 1293.94 93.3887 1294.99 92.7192C1296.05 92.0497 1297.29 91.7149 1298.71 91.7149C1299.57 91.7149 1300.41 91.8575 1301.21 92.1425C1302.02 92.4275 1302.75 92.875 1303.39 93.4848C1304.04 94.0947 1304.54 94.8868 1304.91 95.8612C1305.28 96.829 1305.47 98.0057 1305.47 99.3911V100.445H1293.33V98.2178H1302.56C1302.56 97.4356 1302.4 96.7429 1302.08 96.1396C1301.76 95.5298 1301.31 95.0492 1300.74 94.6979C1300.17 94.3466 1299.5 94.1709 1298.73 94.1709C1297.89 94.1709 1297.16 94.3764 1296.54 94.7874C1295.92 95.1917 1295.45 95.722 1295.11 96.3783C1294.78 97.0279 1294.61 97.7339 1294.61 98.4962V100.236C1294.61 101.257 1294.79 102.125 1295.15 102.841C1295.51 103.557 1296.02 104.104 1296.67 104.482C1297.32 104.853 1298.08 105.039 1298.95 105.039C1299.51 105.039 1300.02 104.959 1300.49 104.8C1300.95 104.634 1301.35 104.389 1301.69 104.064C1302.03 103.74 1302.29 103.339 1302.47 102.861L1305.28 103.368C1305.06 104.197 1304.65 104.923 1304.07 105.546C1303.49 106.162 1302.77 106.643 1301.89 106.988C1301.02 107.326 1300.03 107.495 1298.92 107.495ZM1320.91 95.6425L1318.22 96.1198C1318.11 95.7751 1317.93 95.4469 1317.68 95.1354C1317.44 94.8238 1317.12 94.5686 1316.71 94.3698C1316.3 94.1709 1315.78 94.0715 1315.17 94.0715C1314.32 94.0715 1313.62 94.2604 1313.06 94.6382C1312.49 95.0094 1312.21 95.49 1312.21 96.08C1312.21 96.5904 1312.4 97.0014 1312.78 97.3129C1313.16 97.6245 1313.77 97.8797 1314.61 98.0786L1317.04 98.6354C1318.44 98.9602 1319.49 99.4607 1320.18 100.137C1320.87 100.813 1321.21 101.691 1321.21 102.772C1321.21 103.687 1320.95 104.502 1320.42 105.218C1319.89 105.927 1319.16 106.484 1318.22 106.888C1317.28 107.293 1316.2 107.495 1314.97 107.495C1313.26 107.495 1311.86 107.13 1310.78 106.401C1309.7 105.665 1309.04 104.621 1308.79 103.269L1311.67 102.831C1311.85 103.58 1312.21 104.147 1312.77 104.532C1313.33 104.91 1314.05 105.098 1314.95 105.098C1315.92 105.098 1316.7 104.896 1317.28 104.492C1317.87 104.081 1318.16 103.58 1318.16 102.991C1318.16 102.513 1317.98 102.112 1317.62 101.787C1317.27 101.463 1316.73 101.217 1316 101.052L1313.42 100.485C1311.99 100.16 1310.94 99.643 1310.25 98.9337C1309.58 98.2244 1309.24 97.3262 1309.24 96.2391C1309.24 95.3376 1309.49 94.5487 1310 93.8726C1310.5 93.1965 1311.2 92.6695 1312.08 92.2916C1312.97 91.9072 1313.99 91.7149 1315.14 91.7149C1316.79 91.7149 1318.09 92.0729 1319.03 92.7888C1319.98 93.4981 1320.61 94.4493 1320.91 95.6425ZM1325.18 107.187V91.9138H1328.15V107.187H1325.18ZM1326.68 89.5573C1326.16 89.5573 1325.72 89.3849 1325.35 89.0402C1324.99 88.6889 1324.8 88.2713 1324.8 87.7874C1324.8 87.2968 1324.99 86.8792 1325.35 86.5345C1325.72 86.1832 1326.16 86.0075 1326.68 86.0075C1327.2 86.0075 1327.64 86.1832 1328 86.5345C1328.38 86.8792 1328.56 87.2968 1328.56 87.7874C1328.56 88.2713 1328.38 88.6889 1328 89.0402C1327.64 89.3849 1327.2 89.5573 1326.68 89.5573ZM1339.26 113.232C1338.04 113.232 1337 113.073 1336.12 112.755C1335.26 112.437 1334.55 112.016 1334 111.492C1333.45 110.968 1333.04 110.395 1332.76 109.772L1335.32 108.718C1335.5 109.009 1335.74 109.318 1336.04 109.642C1336.34 109.974 1336.75 110.256 1337.27 110.488C1337.79 110.72 1338.46 110.836 1339.29 110.836C1340.41 110.836 1341.34 110.561 1342.08 110.01C1342.82 109.467 1343.18 108.598 1343.18 107.405V104.402H1343C1342.82 104.727 1342.56 105.089 1342.22 105.486C1341.89 105.884 1341.43 106.229 1340.85 106.52C1340.26 106.812 1339.51 106.958 1338.57 106.958C1337.36 106.958 1336.28 106.676 1335.31 106.113C1334.35 105.543 1333.59 104.704 1333.02 103.597C1332.47 102.483 1332.19 101.115 1332.19 99.4905C1332.19 97.8664 1332.46 96.4744 1333.01 95.3144C1333.57 94.1543 1334.33 93.2661 1335.3 92.6496C1336.27 92.0265 1337.36 91.7149 1338.59 91.7149C1339.54 91.7149 1340.3 91.874 1340.89 92.1922C1341.47 92.5038 1341.92 92.8683 1342.25 93.286C1342.58 93.7036 1342.84 94.0715 1343.02 94.3896H1343.23V91.9138H1346.15V107.525C1346.15 108.837 1345.84 109.914 1345.23 110.756C1344.62 111.598 1343.8 112.221 1342.76 112.625C1341.72 113.03 1340.56 113.232 1339.26 113.232ZM1339.23 104.492C1340.08 104.492 1340.8 104.293 1341.39 103.895C1341.99 103.491 1342.44 102.914 1342.75 102.165C1343.06 101.41 1343.21 100.505 1343.21 99.4507C1343.21 98.4233 1343.06 97.5184 1342.76 96.7362C1342.45 95.954 1342 95.3442 1341.41 94.9067C1340.82 94.4626 1340.1 94.2405 1339.23 94.2405C1338.33 94.2405 1337.59 94.4725 1336.99 94.9365C1336.39 95.3939 1335.94 96.017 1335.64 96.8058C1335.34 97.5947 1335.19 98.4763 1335.19 99.4507C1335.19 100.452 1335.34 101.33 1335.65 102.086C1335.95 102.841 1336.4 103.431 1337 103.856C1337.6 104.28 1338.35 104.492 1339.23 104.492ZM1353.81 98.1183V107.187H1350.83V91.9138H1353.69V94.3996H1353.88C1354.23 93.5909 1354.78 92.9413 1355.53 92.4507C1356.28 91.9602 1357.23 91.7149 1358.38 91.7149C1359.42 91.7149 1360.33 91.9337 1361.12 92.3712C1361.9 92.8021 1362.5 93.445 1362.94 94.3002C1363.37 95.1553 1363.58 96.2126 1363.58 97.472V107.187H1360.61V97.83C1360.61 96.723 1360.32 95.8579 1359.74 95.2348C1359.17 94.6051 1358.37 94.2902 1357.37 94.2902C1356.68 94.2902 1356.06 94.4394 1355.53 94.7377C1355 95.036 1354.58 95.4735 1354.26 96.0502C1353.96 96.6202 1353.81 97.3096 1353.81 98.1183ZM1266.17 149.232C1264.95 149.232 1263.91 149.073 1263.03 148.755C1262.17 148.437 1261.46 148.016 1260.91 147.492C1260.36 146.968 1259.95 146.395 1259.67 145.772L1262.23 144.718C1262.41 145.009 1262.65 145.318 1262.95 145.642C1263.25 145.974 1263.66 146.256 1264.18 146.488C1264.7 146.72 1265.37 146.836 1266.2 146.836C1267.32 146.836 1268.25 146.561 1268.99 146.01C1269.73 145.467 1270.09 144.598 1270.09 143.405V140.402H1269.91C1269.73 140.727 1269.47 141.089 1269.13 141.486C1268.8 141.884 1268.34 142.229 1267.76 142.52C1267.17 142.812 1266.42 142.958 1265.48 142.958C1264.27 142.958 1263.19 142.676 1262.22 142.113C1261.26 141.543 1260.5 140.704 1259.93 139.597C1259.38 138.483 1259.1 137.115 1259.1 135.491C1259.1 133.866 1259.37 132.474 1259.92 131.314C1260.48 130.154 1261.24 129.266 1262.21 128.65C1263.18 128.026 1264.27 127.715 1265.5 127.715C1266.45 127.715 1267.21 127.874 1267.8 128.192C1268.38 128.504 1268.83 128.868 1269.16 129.286C1269.49 129.704 1269.75 130.071 1269.93 130.39H1270.14V127.914H1273.06V143.525C1273.06 144.837 1272.75 145.914 1272.14 146.756C1271.53 147.598 1270.71 148.221 1269.67 148.625C1268.63 149.03 1267.47 149.232 1266.17 149.232ZM1266.14 140.492C1266.99 140.492 1267.71 140.293 1268.3 139.895C1268.9 139.491 1269.35 138.914 1269.66 138.165C1269.97 137.41 1270.12 136.505 1270.12 135.451C1270.12 134.423 1269.97 133.518 1269.67 132.736C1269.36 131.954 1268.91 131.344 1268.32 130.907C1267.73 130.463 1267.01 130.241 1266.14 130.241C1265.24 130.241 1264.5 130.473 1263.9 130.937C1263.3 131.394 1262.85 132.017 1262.55 132.806C1262.25 133.595 1262.1 134.476 1262.1 135.451C1262.1 136.452 1262.25 137.33 1262.56 138.086C1262.86 138.841 1263.31 139.431 1263.91 139.856C1264.51 140.28 1265.26 140.492 1266.14 140.492ZM1287.42 136.853V127.914H1290.4V143.187H1287.48V140.542H1287.32C1286.97 141.357 1286.41 142.036 1285.63 142.58C1284.86 143.117 1283.9 143.385 1282.76 143.385C1281.77 143.385 1280.91 143.17 1280.15 142.739C1279.4 142.302 1278.81 141.655 1278.38 140.8C1277.96 139.945 1277.74 138.888 1277.74 137.628V127.914H1280.72V137.27C1280.72 138.311 1281.01 139.14 1281.58 139.756C1282.16 140.373 1282.91 140.681 1283.83 140.681C1284.39 140.681 1284.94 140.542 1285.49 140.263C1286.05 139.985 1286.51 139.564 1286.87 139C1287.24 138.437 1287.43 137.721 1287.42 136.853ZM1295.1 143.187V127.914H1298.07V143.187H1295.1ZM1296.6 125.557C1296.08 125.557 1295.64 125.385 1295.27 125.04C1294.9 124.689 1294.72 124.271 1294.72 123.787C1294.72 123.297 1294.9 122.879 1295.27 122.535C1295.64 122.183 1296.08 122.008 1296.6 122.008C1297.12 122.008 1297.56 122.183 1297.92 122.535C1298.29 122.879 1298.48 123.297 1298.48 123.787C1298.48 124.271 1298.29 124.689 1297.92 125.04C1297.56 125.385 1297.12 125.557 1296.6 125.557ZM1308.49 143.485C1307.25 143.485 1306.15 143.17 1305.19 142.54C1304.22 141.904 1303.47 140.999 1302.92 139.826C1302.38 138.646 1302.1 137.231 1302.1 135.58C1302.1 133.929 1302.38 132.517 1302.93 131.344C1303.49 130.171 1304.25 129.273 1305.22 128.65C1306.18 128.026 1307.28 127.715 1308.51 127.715C1309.45 127.715 1310.22 127.874 1310.79 128.192C1311.38 128.504 1311.83 128.868 1312.15 129.286C1312.47 129.704 1312.72 130.071 1312.9 130.39H1313.08V122.823H1316.05V143.187H1313.15V140.81H1312.9C1312.72 141.135 1312.46 141.506 1312.13 141.924C1311.79 142.341 1311.34 142.706 1310.75 143.017C1310.17 143.329 1309.42 143.485 1308.49 143.485ZM1309.14 140.949C1310 140.949 1310.72 140.724 1311.31 140.273C1311.91 139.816 1312.36 139.183 1312.66 138.374C1312.97 137.565 1313.13 136.624 1313.13 135.55C1313.13 134.49 1312.98 133.562 1312.67 132.766C1312.37 131.971 1311.92 131.351 1311.33 130.907C1310.74 130.463 1310.01 130.241 1309.14 130.241C1308.25 130.241 1307.5 130.473 1306.91 130.937C1306.31 131.401 1305.86 132.034 1305.55 132.836C1305.26 133.638 1305.11 134.543 1305.11 135.55C1305.11 136.571 1305.26 137.489 1305.56 138.304C1305.87 139.12 1306.32 139.766 1306.92 140.243C1307.52 140.714 1308.26 140.949 1309.14 140.949ZM1327.58 143.495C1326.07 143.495 1324.78 143.173 1323.69 142.53C1322.61 141.881 1321.78 140.969 1321.19 139.796C1320.6 138.616 1320.31 137.234 1320.31 135.65C1320.31 134.085 1320.6 132.706 1321.19 131.513C1321.78 130.32 1322.6 129.389 1323.65 128.719C1324.71 128.05 1325.95 127.715 1327.37 127.715C1328.23 127.715 1329.07 127.857 1329.88 128.142C1330.68 128.428 1331.41 128.875 1332.05 129.485C1332.7 130.095 1333.2 130.887 1333.58 131.861C1333.95 132.829 1334.13 134.006 1334.13 135.391V136.445H1321.99V134.218H1331.22C1331.22 133.436 1331.06 132.743 1330.74 132.14C1330.42 131.53 1329.98 131.049 1329.4 130.698C1328.83 130.347 1328.16 130.171 1327.39 130.171C1326.56 130.171 1325.83 130.376 1325.2 130.787C1324.59 131.192 1324.11 131.722 1323.77 132.378C1323.44 133.028 1323.27 133.734 1323.27 134.496V136.236C1323.27 137.257 1323.45 138.125 1323.81 138.841C1324.18 139.557 1324.68 140.104 1325.33 140.482C1325.98 140.853 1326.74 141.039 1327.61 141.039C1328.17 141.039 1328.69 140.959 1329.15 140.8C1329.61 140.634 1330.02 140.389 1330.35 140.064C1330.69 139.74 1330.95 139.339 1331.13 138.861L1333.94 139.368C1333.72 140.197 1333.31 140.923 1332.73 141.546C1332.15 142.162 1331.43 142.643 1330.55 142.988C1329.68 143.326 1328.69 143.495 1327.58 143.495ZM1341.1 122.823V143.187H1338.13V122.823H1341.1ZM1345.8 143.187V127.914H1348.78V143.187H1345.8ZM1347.3 125.557C1346.79 125.557 1346.34 125.385 1345.97 125.04C1345.61 124.689 1345.43 124.271 1345.43 123.787C1345.43 123.297 1345.61 122.879 1345.97 122.535C1346.34 122.183 1346.79 122.008 1347.3 122.008C1347.82 122.008 1348.26 122.183 1348.63 122.535C1349 122.879 1349.18 123.297 1349.18 123.787C1349.18 124.271 1349 124.689 1348.63 125.04C1348.26 125.385 1347.82 125.557 1347.3 125.557ZM1356.45 134.118V143.187H1353.48V127.914H1356.33V130.4H1356.52C1356.87 129.591 1357.42 128.941 1358.17 128.451C1358.92 127.96 1359.88 127.715 1361.02 127.715C1362.06 127.715 1362.97 127.934 1363.76 128.371C1364.54 128.802 1365.15 129.445 1365.58 130.3C1366.01 131.155 1366.22 132.213 1366.22 133.472V143.187H1363.25V133.83C1363.25 132.723 1362.96 131.858 1362.39 131.235C1361.81 130.605 1361.02 130.29 1360.01 130.29C1359.32 130.29 1358.71 130.439 1358.17 130.738C1357.64 131.036 1357.22 131.473 1356.91 132.05C1356.6 132.62 1356.45 133.31 1356.45 134.118ZM1377.49 143.495C1375.99 143.495 1374.69 143.173 1373.6 142.53C1372.52 141.881 1371.69 140.969 1371.1 139.796C1370.52 138.616 1370.22 137.234 1370.22 135.65C1370.22 134.085 1370.52 132.706 1371.1 131.513C1371.69 130.32 1372.51 129.389 1373.57 128.719C1374.63 128.05 1375.87 127.715 1377.28 127.715C1378.15 127.715 1378.98 127.857 1379.79 128.142C1380.6 128.428 1381.32 128.875 1381.97 129.485C1382.61 130.095 1383.12 130.887 1383.49 131.861C1383.86 132.829 1384.05 134.006 1384.05 135.391V136.445H1371.9V134.218H1381.13C1381.13 133.436 1380.97 132.743 1380.65 132.14C1380.34 131.53 1379.89 131.049 1379.31 130.698C1378.74 130.347 1378.07 130.171 1377.3 130.171C1376.47 130.171 1375.74 130.376 1375.12 130.787C1374.5 131.192 1374.02 131.722 1373.68 132.378C1373.35 133.028 1373.19 133.734 1373.19 134.496V136.236C1373.19 137.257 1373.37 138.125 1373.72 138.841C1374.09 139.557 1374.6 140.104 1375.25 140.482C1375.9 140.853 1376.65 141.039 1377.52 141.039C1378.09 141.039 1378.6 140.959 1379.06 140.8C1379.53 140.634 1379.93 140.389 1380.27 140.064C1380.6 139.74 1380.86 139.339 1381.04 138.861L1383.86 139.368C1383.63 140.197 1383.23 140.923 1382.64 141.546C1382.07 142.162 1381.34 142.643 1380.47 142.988C1379.6 143.326 1378.61 143.495 1377.49 143.495Z" fill="#554F4F"/>
<path d="M1290.5 12.3189C1290.5 11.5932 1291.09 11.0049 1291.81 11.0049H1342.19C1342.91 11.0049 1343.5 11.5932 1343.5 12.3189V48.2363C1343.5 48.962 1342.91 49.5503 1342.19 49.5503H1291.81C1291.09 49.5503 1290.5 48.962 1290.5 48.2363V12.3189ZM1296.63 15.8231C1295.91 15.8231 1295.32 16.4114 1295.32 17.1371V43.4181C1295.32 44.1438 1295.91 44.7322 1296.63 44.7322H1337.37C1338.09 44.7322 1338.68 44.1438 1338.68 43.4181V17.1371C1338.68 16.4114 1338.09 15.8231 1337.37 15.8231H1296.63ZM1323.3 21.7776C1323.81 21.2644 1324.64 21.2644 1325.16 21.7776L1332.73 29.3484C1333.24 29.8616 1333.24 30.6936 1332.73 31.2068L1325.16 38.7776C1324.64 39.2908 1323.81 39.2908 1323.3 38.7776L1321.75 37.2295C1321.24 36.7163 1321.24 35.8843 1321.75 35.3712L1325.91 31.2068C1326.43 30.6936 1326.43 29.8616 1325.91 29.3484L1321.75 25.1841C1321.24 24.6709 1321.24 23.8389 1321.75 23.3257L1323.3 21.7776ZM1312.25 23.3257C1312.76 23.8389 1312.76 24.6709 1312.25 25.1841L1308.09 29.3484C1307.57 29.8616 1307.57 30.6936 1308.09 31.2068L1312.25 35.3712C1312.76 35.8843 1312.76 36.7163 1312.25 37.2295L1310.7 38.7776C1310.19 39.2908 1309.36 39.2908 1308.84 38.7776L1301.27 31.2068C1300.76 30.6936 1300.76 29.8616 1301.27 29.3484L1308.84 21.7776C1309.36 21.2644 1310.19 21.2644 1310.7 21.7776L1312.25 23.3257ZM1295.32 55.6826C1295.32 54.9568 1295.91 54.3685 1296.63 54.3685H1337.37C1338.09 54.3685 1338.68 54.9568 1338.68 55.6826V57.8727C1338.68 58.5984 1338.09 59.1867 1337.37 59.1867H1296.63C1295.91 59.1867 1295.32 58.5984 1295.32 57.8727V55.6826Z" fill="#554F4F"/>
</g>
<defs>
<clipPath id="clip0_3130_5246">
<rect width="1487" height="162.191" fill="white"/>
</clipPath>
<clipPath id="clip1_3130_5246">
<rect width="64" height="64" fill="white" transform="translate(431.5 3.0957)"/>
</clipPath>
</defs>
</svg>
