<svg width="326" height="454" viewBox="0 0 326 454" fill="none" xmlns="http://www.w3.org/2000/svg">
<g clip-path="url(#clip0_1938_6471)">
<path d="M316.794 177.063H317.897C318.506 177.063 319 177.558 319 178.17V244.568C319 245.179 318.506 245.675 317.897 245.675H316.794V177.063Z" fill="#213744"/>
<path d="M10.2051 260.43L9.10224 260.43C8.49316 260.43 7.9994 259.935 7.9994 259.324L7.9994 218.009C7.9994 217.398 8.49316 216.902 9.10224 216.902L10.2051 216.902L10.2051 260.43Z" fill="#213744"/>
<path d="M10.2051 205.098L9.10224 205.098C8.49316 205.098 7.9994 204.603 7.9994 203.992L7.9994 162.677C7.9994 162.066 8.49316 161.57 9.10224 161.57L10.2051 161.57L10.2051 205.098Z" fill="#213744"/>
<path d="M10.2051 142.388L9.10224 142.388C8.49316 142.388 7.9994 141.893 7.9994 141.282L7.9994 122.837C7.9994 122.226 8.49316 121.731 9.10224 121.731L10.2051 121.731L10.2051 142.388Z" fill="#213744"/>
<path d="M10.2061 67.1364C10.2061 49.285 10.2061 40.3593 12.545 33.1358C17.2723 18.5366 28.6789 7.09062 43.2279 2.34706C50.4265 0 59.3215 0 77.1115 0H249.889C267.679 0 276.574 0 283.773 2.34706C298.322 7.09062 309.728 18.5366 314.456 33.1358C316.795 40.3593 316.795 49.285 316.795 67.1364V565.864C316.795 583.715 316.795 592.641 314.456 599.864C309.728 614.463 298.322 625.909 283.773 630.653C276.574 633 267.679 633 249.889 633H77.1115C59.3215 633 50.4265 633 43.2279 630.653C28.6789 625.909 17.2723 614.463 12.545 599.864C10.2061 592.641 10.2061 583.715 10.2061 565.864V67.1364Z" fill="#404040"/>
<path fill-rule="evenodd" clip-rule="evenodd" d="M250.183 1.47556H76.8166C59.243 1.47556 50.6307 1.48466 43.6814 3.7504C29.5801 8.34801 18.5245 19.4418 13.9427 33.5918C11.6847 40.565 11.6757 49.2071 11.6757 66.8413V566.159C11.6757 583.793 11.6847 592.435 13.9427 599.408C18.5245 613.558 29.5801 624.652 43.6814 629.25C50.6307 631.515 59.243 631.525 76.8166 631.525H250.183C267.756 631.525 276.368 631.515 283.318 629.25C297.419 624.652 308.475 613.558 313.056 599.408C315.314 592.435 315.323 583.793 315.323 566.159V66.8413C315.323 49.2071 315.314 40.565 313.056 33.5918C308.475 19.4418 297.419 8.34801 283.318 3.7504C276.368 1.48466 267.756 1.47556 250.183 1.47556ZM13.2434 33.3638C10.9404 40.4762 10.9404 49.2645 10.9404 66.8413V566.159C10.9404 583.736 10.9404 592.524 13.2434 599.636C17.898 614.011 29.1291 625.281 43.4542 629.951C50.5421 632.262 59.3003 632.262 76.8166 632.262H250.183C267.699 632.262 276.457 632.262 283.545 629.951C297.87 625.281 309.101 614.011 313.756 599.636C316.059 592.524 316.059 583.736 316.059 566.159V66.8413C316.059 49.2646 316.059 40.4762 313.756 33.3638C309.101 18.9892 297.87 7.71933 283.545 3.04875C276.457 0.737793 267.699 0.737793 250.183 0.737793H76.8166C59.3003 0.737793 50.5421 0.737793 43.4542 3.04875C29.1291 7.71933 17.898 18.9892 13.2434 33.3638Z" fill="#EFEFEF"/>
<path d="M13.8818 65.6608C13.8818 49.1826 13.8818 40.9435 16.0409 34.2756C20.4045 20.7994 30.9337 10.2339 44.3635 5.85524C51.0084 3.68872 59.2192 3.68872 75.6407 3.68872H251.359C267.781 3.68872 275.992 3.68872 282.637 5.85524C296.066 10.2339 306.596 20.7994 310.959 34.2756C313.118 40.9435 313.118 49.1826 313.118 65.6608V567.339C313.118 583.817 313.118 592.056 310.959 598.724C306.596 612.2 296.066 622.766 282.637 627.145C275.992 629.311 267.781 629.311 251.359 629.311H75.6407C59.2192 629.311 51.0084 629.311 44.3635 627.145C30.9337 622.766 20.4045 612.2 16.0409 598.724C13.8818 592.056 13.8818 583.817 13.8818 567.339V65.6608Z" fill="#121515"/>
<path d="M251.359 0H255.771V3.68881H251.359V0Z" fill="#36454C"/>
<path d="M313.118 63.4475H316.794V67.8741H313.118V63.4475Z" fill="#36454C"/>
<path d="M10.2061 63.4475H13.8822V67.8741H10.2061V63.4475Z" fill="#36454C"/>
<path fill-rule="evenodd" clip-rule="evenodd" d="M191.806 27.2972C194.648 27.2972 196.952 24.985 196.952 22.1328C196.952 19.2807 194.648 16.9685 191.806 16.9685C188.963 16.9685 186.659 19.2807 186.659 22.1328C186.659 24.985 188.963 27.2972 191.806 27.2972Z" fill="#262C2D"/>
<path fill-rule="evenodd" clip-rule="evenodd" d="M191.805 25.3604C193.582 25.3604 195.022 23.9154 195.022 22.1327C195.022 20.3501 193.582 18.905 191.805 18.905C190.029 18.905 188.589 20.3501 188.589 22.1327C188.589 23.9154 190.029 25.3604 191.805 25.3604Z" fill="#121515"/>
<path opacity="0.4" fill-rule="evenodd" clip-rule="evenodd" d="M191.805 21.4874C192.161 21.4874 192.449 21.1984 192.449 20.8418C192.449 20.4853 192.161 20.1963 191.805 20.1963C191.45 20.1963 191.162 20.4853 191.162 20.8418C191.162 21.1984 191.45 21.4874 191.805 21.4874Z" fill="#636F73"/>
<path fill-rule="evenodd" clip-rule="evenodd" d="M147.692 22.133C147.692 20.9106 148.683 19.9197 149.906 19.9197H177.094C178.316 19.9197 179.307 20.9106 179.307 22.133V22.133C179.307 23.3553 178.316 24.3463 177.094 24.3463H149.906C148.683 24.3463 147.692 23.3553 147.692 22.133V22.133Z" fill="#262C2D"/>
</g>
<defs>
<clipPath id="clip0_1938_6471">
<rect width="326" height="454" fill="white"/>
</clipPath>
</defs>
</svg>
