<svg width="205" height="205" viewBox="0 0 205 205" fill="none" xmlns="http://www.w3.org/2000/svg">
<rect width="205" height="205" fill="white"/>
<path d="M22.7777 18.2222H18.2222V22.7777H22.7777V18.2222Z" fill="black"/>
<path d="M27.3334 18.2222H22.7778V22.7777H27.3334V18.2222Z" fill="black"/>
<path d="M31.8891 18.2222H27.3335V22.7777H31.8891V18.2222Z" fill="black"/>
<path d="M36.4442 18.2222H31.8887V22.7777H36.4442V18.2222Z" fill="black"/>
<path d="M40.9999 18.2222H36.4443V22.7777H40.9999V18.2222Z" fill="black"/>
<path d="M45.5556 18.2222H41V22.7777H45.5556V18.2222Z" fill="black"/>
<path d="M50.1112 18.2222H45.5557V22.7777H50.1112V18.2222Z" fill="black"/>
<path d="M63.7777 18.2222H59.2222V22.7777H63.7777V18.2222Z" fill="black"/>
<path d="M68.3334 18.2222H63.7778V22.7777H68.3334V18.2222Z" fill="black"/>
<path d="M81.9999 18.2222H77.4443V22.7777H81.9999V18.2222Z" fill="black"/>
<path d="M95.6664 18.2222H91.1108V22.7777H95.6664V18.2222Z" fill="black"/>
<path d="M118.444 18.2222H113.889V22.7777H118.444V18.2222Z" fill="black"/>
<path d="M159.444 18.2222H154.889V22.7777H159.444V18.2222Z" fill="black"/>
<path d="M164 18.2222H159.444V22.7777H164V18.2222Z" fill="black"/>
<path d="M168.556 18.2222H164V22.7777H168.556V18.2222Z" fill="black"/>
<path d="M173.111 18.2222H168.556V22.7777H173.111V18.2222Z" fill="black"/>
<path d="M177.666 18.2222H173.111V22.7777H177.666V18.2222Z" fill="black"/>
<path d="M182.222 18.2222H177.667V22.7777H182.222V18.2222Z" fill="black"/>
<path d="M186.778 18.2222H182.222V22.7777H186.778V18.2222Z" fill="black"/>
<path d="M22.7777 22.7778H18.2222V27.3334H22.7777V22.7778Z" fill="black"/>
<path d="M50.1112 22.7778H45.5557V27.3334H50.1112V22.7778Z" fill="black"/>
<path d="M63.7777 22.7778H59.2222V27.3334H63.7777V22.7778Z" fill="black"/>
<path d="M68.3334 22.7778H63.7778V27.3334H68.3334V22.7778Z" fill="black"/>
<path d="M81.9999 22.7778H77.4443V27.3334H81.9999V22.7778Z" fill="black"/>
<path d="M86.5556 22.7778H82V27.3334H86.5556V22.7778Z" fill="black"/>
<path d="M95.6664 22.7778H91.1108V27.3334H95.6664V22.7778Z" fill="black"/>
<path d="M113.889 22.7778H109.333V27.3334H113.889V22.7778Z" fill="black"/>
<path d="M127.556 22.7778H123V27.3334H127.556V22.7778Z" fill="black"/>
<path d="M132.111 22.7778H127.556V27.3334H132.111V22.7778Z" fill="black"/>
<path d="M141.222 22.7778H136.667V27.3334H141.222V22.7778Z" fill="black"/>
<path d="M145.778 22.7778H141.222V27.3334H145.778V22.7778Z" fill="black"/>
<path d="M150.333 22.7778H145.778V27.3334H150.333V22.7778Z" fill="black"/>
<path d="M159.444 22.7778H154.889V27.3334H159.444V22.7778Z" fill="black"/>
<path d="M186.778 22.7778H182.222V27.3334H186.778V22.7778Z" fill="black"/>
<path d="M22.7777 27.3333H18.2222V31.8888H22.7777V27.3333Z" fill="black"/>
<path d="M31.8891 27.3333H27.3335V31.8888H31.8891V27.3333Z" fill="black"/>
<path d="M36.4442 27.3333H31.8887V31.8888H36.4442V27.3333Z" fill="black"/>
<path d="M40.9999 27.3333H36.4443V31.8888H40.9999V27.3333Z" fill="black"/>
<path d="M50.1112 27.3333H45.5557V31.8888H50.1112V27.3333Z" fill="black"/>
<path d="M59.2221 27.3333H54.6665V31.8888H59.2221V27.3333Z" fill="black"/>
<path d="M77.4442 27.3333H72.8887V31.8888H77.4442V27.3333Z" fill="black"/>
<path d="M86.5556 27.3333H82V31.8888H86.5556V27.3333Z" fill="black"/>
<path d="M91.1112 27.3333H86.5557V31.8888H91.1112V27.3333Z" fill="black"/>
<path d="M95.6664 27.3333H91.1108V31.8888H95.6664V27.3333Z" fill="black"/>
<path d="M118.444 27.3333H113.889V31.8888H118.444V27.3333Z" fill="black"/>
<path d="M123 27.3333H118.444V31.8888H123V27.3333Z" fill="black"/>
<path d="M127.556 27.3333H123V31.8888H127.556V27.3333Z" fill="black"/>
<path d="M159.444 27.3333H154.889V31.8888H159.444V27.3333Z" fill="black"/>
<path d="M168.556 27.3333H164V31.8888H168.556V27.3333Z" fill="black"/>
<path d="M173.111 27.3333H168.556V31.8888H173.111V27.3333Z" fill="black"/>
<path d="M177.666 27.3333H173.111V31.8888H177.666V27.3333Z" fill="black"/>
<path d="M186.778 27.3333H182.222V31.8888H186.778V27.3333Z" fill="black"/>
<path d="M22.7777 31.8889H18.2222V36.4445H22.7777V31.8889Z" fill="black"/>
<path d="M31.8891 31.8889H27.3335V36.4445H31.8891V31.8889Z" fill="black"/>
<path d="M36.4442 31.8889H31.8887V36.4445H36.4442V31.8889Z" fill="black"/>
<path d="M40.9999 31.8889H36.4443V36.4445H40.9999V31.8889Z" fill="black"/>
<path d="M50.1112 31.8889H45.5557V36.4445H50.1112V31.8889Z" fill="black"/>
<path d="M59.2221 31.8889H54.6665V36.4445H59.2221V31.8889Z" fill="black"/>
<path d="M63.7777 31.8889H59.2222V36.4445H63.7777V31.8889Z" fill="black"/>
<path d="M72.8891 31.8889H68.3335V36.4445H72.8891V31.8889Z" fill="black"/>
<path d="M77.4442 31.8889H72.8887V36.4445H77.4442V31.8889Z" fill="black"/>
<path d="M81.9999 31.8889H77.4443V36.4445H81.9999V31.8889Z" fill="black"/>
<path d="M91.1112 31.8889H86.5557V36.4445H91.1112V31.8889Z" fill="black"/>
<path d="M95.6664 31.8889H91.1108V36.4445H95.6664V31.8889Z" fill="black"/>
<path d="M100.222 31.8889H95.6665V36.4445H100.222V31.8889Z" fill="black"/>
<path d="M113.889 31.8889H109.333V36.4445H113.889V31.8889Z" fill="black"/>
<path d="M123 31.8889H118.444V36.4445H123V31.8889Z" fill="black"/>
<path d="M127.556 31.8889H123V36.4445H127.556V31.8889Z" fill="black"/>
<path d="M132.111 31.8889H127.556V36.4445H132.111V31.8889Z" fill="black"/>
<path d="M136.666 31.8889H132.111V36.4445H136.666V31.8889Z" fill="black"/>
<path d="M141.222 31.8889H136.667V36.4445H141.222V31.8889Z" fill="black"/>
<path d="M145.778 31.8889H141.222V36.4445H145.778V31.8889Z" fill="black"/>
<path d="M159.444 31.8889H154.889V36.4445H159.444V31.8889Z" fill="black"/>
<path d="M168.556 31.8889H164V36.4445H168.556V31.8889Z" fill="black"/>
<path d="M173.111 31.8889H168.556V36.4445H173.111V31.8889Z" fill="black"/>
<path d="M177.666 31.8889H173.111V36.4445H177.666V31.8889Z" fill="black"/>
<path d="M186.778 31.8889H182.222V36.4445H186.778V31.8889Z" fill="black"/>
<path d="M22.7777 36.4443H18.2222V40.9999H22.7777V36.4443Z" fill="black"/>
<path d="M31.8891 36.4443H27.3335V40.9999H31.8891V36.4443Z" fill="black"/>
<path d="M36.4442 36.4443H31.8887V40.9999H36.4442V36.4443Z" fill="black"/>
<path d="M40.9999 36.4443H36.4443V40.9999H40.9999V36.4443Z" fill="black"/>
<path d="M50.1112 36.4443H45.5557V40.9999H50.1112V36.4443Z" fill="black"/>
<path d="M59.2221 36.4443H54.6665V40.9999H59.2221V36.4443Z" fill="black"/>
<path d="M63.7777 36.4443H59.2222V40.9999H63.7777V36.4443Z" fill="black"/>
<path d="M72.8891 36.4443H68.3335V40.9999H72.8891V36.4443Z" fill="black"/>
<path d="M77.4442 36.4443H72.8887V40.9999H77.4442V36.4443Z" fill="black"/>
<path d="M86.5556 36.4443H82V40.9999H86.5556V36.4443Z" fill="black"/>
<path d="M95.6664 36.4443H91.1108V40.9999H95.6664V36.4443Z" fill="black"/>
<path d="M100.222 36.4443H95.6665V40.9999H100.222V36.4443Z" fill="black"/>
<path d="M104.778 36.4443H100.222V40.9999H104.778V36.4443Z" fill="black"/>
<path d="M109.333 36.4443H104.778V40.9999H109.333V36.4443Z" fill="black"/>
<path d="M113.889 36.4443H109.333V40.9999H113.889V36.4443Z" fill="black"/>
<path d="M118.444 36.4443H113.889V40.9999H118.444V36.4443Z" fill="black"/>
<path d="M127.556 36.4443H123V40.9999H127.556V36.4443Z" fill="black"/>
<path d="M136.666 36.4443H132.111V40.9999H136.666V36.4443Z" fill="black"/>
<path d="M150.333 36.4443H145.778V40.9999H150.333V36.4443Z" fill="black"/>
<path d="M159.444 36.4443H154.889V40.9999H159.444V36.4443Z" fill="black"/>
<path d="M168.556 36.4443H164V40.9999H168.556V36.4443Z" fill="black"/>
<path d="M173.111 36.4443H168.556V40.9999H173.111V36.4443Z" fill="black"/>
<path d="M177.666 36.4443H173.111V40.9999H177.666V36.4443Z" fill="black"/>
<path d="M186.778 36.4443H182.222V40.9999H186.778V36.4443Z" fill="black"/>
<path d="M22.7777 41H18.2222V45.5556H22.7777V41Z" fill="black"/>
<path d="M50.1112 41H45.5557V45.5556H50.1112V41Z" fill="black"/>
<path d="M59.2221 41H54.6665V45.5556H59.2221V41Z" fill="black"/>
<path d="M68.3334 41H63.7778V45.5556H68.3334V41Z" fill="black"/>
<path d="M81.9999 41H77.4443V45.5556H81.9999V41Z" fill="black"/>
<path d="M86.5556 41H82V45.5556H86.5556V41Z" fill="black"/>
<path d="M100.222 41H95.6665V45.5556H100.222V41Z" fill="black"/>
<path d="M118.444 41H113.889V45.5556H118.444V41Z" fill="black"/>
<path d="M132.111 41H127.556V45.5556H132.111V41Z" fill="black"/>
<path d="M136.666 41H132.111V45.5556H136.666V41Z" fill="black"/>
<path d="M141.222 41H136.667V45.5556H141.222V41Z" fill="black"/>
<path d="M145.778 41H141.222V45.5556H145.778V41Z" fill="black"/>
<path d="M159.444 41H154.889V45.5556H159.444V41Z" fill="black"/>
<path d="M186.778 41H182.222V45.5556H186.778V41Z" fill="black"/>
<path d="M22.7777 45.5554H18.2222V50.111H22.7777V45.5554Z" fill="black"/>
<path d="M27.3334 45.5554H22.7778V50.111H27.3334V45.5554Z" fill="black"/>
<path d="M31.8891 45.5554H27.3335V50.111H31.8891V45.5554Z" fill="black"/>
<path d="M36.4442 45.5554H31.8887V50.111H36.4442V45.5554Z" fill="black"/>
<path d="M40.9999 45.5554H36.4443V50.111H40.9999V45.5554Z" fill="black"/>
<path d="M45.5556 45.5554H41V50.111H45.5556V45.5554Z" fill="black"/>
<path d="M50.1112 45.5554H45.5557V50.111H50.1112V45.5554Z" fill="black"/>
<path d="M59.2221 45.5554H54.6665V50.111H59.2221V45.5554Z" fill="black"/>
<path d="M68.3334 45.5554H63.7778V50.111H68.3334V45.5554Z" fill="black"/>
<path d="M77.4442 45.5554H72.8887V50.111H77.4442V45.5554Z" fill="black"/>
<path d="M86.5556 45.5554H82V50.111H86.5556V45.5554Z" fill="black"/>
<path d="M95.6664 45.5554H91.1108V50.111H95.6664V45.5554Z" fill="black"/>
<path d="M104.778 45.5554H100.222V50.111H104.778V45.5554Z" fill="black"/>
<path d="M113.889 45.5554H109.333V50.111H113.889V45.5554Z" fill="black"/>
<path d="M123 45.5554H118.444V50.111H123V45.5554Z" fill="black"/>
<path d="M132.111 45.5554H127.556V50.111H132.111V45.5554Z" fill="black"/>
<path d="M141.222 45.5554H136.667V50.111H141.222V45.5554Z" fill="black"/>
<path d="M150.333 45.5554H145.778V50.111H150.333V45.5554Z" fill="black"/>
<path d="M159.444 45.5554H154.889V50.111H159.444V45.5554Z" fill="black"/>
<path d="M164 45.5554H159.444V50.111H164V45.5554Z" fill="black"/>
<path d="M168.556 45.5554H164V50.111H168.556V45.5554Z" fill="black"/>
<path d="M173.111 45.5554H168.556V50.111H173.111V45.5554Z" fill="black"/>
<path d="M177.666 45.5554H173.111V50.111H177.666V45.5554Z" fill="black"/>
<path d="M182.222 45.5554H177.667V50.111H182.222V45.5554Z" fill="black"/>
<path d="M186.778 45.5554H182.222V50.111H186.778V45.5554Z" fill="black"/>
<path d="M59.2221 50.1111H54.6665V54.6666H59.2221V50.1111Z" fill="black"/>
<path d="M63.7777 50.1111H59.2222V54.6666H63.7777V50.1111Z" fill="black"/>
<path d="M68.3334 50.1111H63.7778V54.6666H68.3334V50.1111Z" fill="black"/>
<path d="M81.9999 50.1111H77.4443V54.6666H81.9999V50.1111Z" fill="black"/>
<path d="M86.5556 50.1111H82V54.6666H86.5556V50.1111Z" fill="black"/>
<path d="M95.6664 50.1111H91.1108V54.6666H95.6664V50.1111Z" fill="black"/>
<path d="M100.222 50.1111H95.6665V54.6666H100.222V50.1111Z" fill="black"/>
<path d="M104.778 50.1111H100.222V54.6666H104.778V50.1111Z" fill="black"/>
<path d="M109.333 50.1111H104.778V54.6666H109.333V50.1111Z" fill="black"/>
<path d="M113.889 50.1111H109.333V54.6666H113.889V50.1111Z" fill="black"/>
<path d="M118.444 50.1111H113.889V54.6666H118.444V50.1111Z" fill="black"/>
<path d="M123 50.1111H118.444V54.6666H123V50.1111Z" fill="black"/>
<path d="M127.556 50.1111H123V54.6666H127.556V50.1111Z" fill="black"/>
<path d="M150.333 50.1111H145.778V54.6666H150.333V50.1111Z" fill="black"/>
<path d="M22.7777 54.6665H18.2222V59.2221H22.7777V54.6665Z" fill="black"/>
<path d="M31.8891 54.6665H27.3335V59.2221H31.8891V54.6665Z" fill="black"/>
<path d="M36.4442 54.6665H31.8887V59.2221H36.4442V54.6665Z" fill="black"/>
<path d="M40.9999 54.6665H36.4443V59.2221H40.9999V54.6665Z" fill="black"/>
<path d="M45.5556 54.6665H41V59.2221H45.5556V54.6665Z" fill="black"/>
<path d="M50.1112 54.6665H45.5557V59.2221H50.1112V54.6665Z" fill="black"/>
<path d="M63.7777 54.6665H59.2222V59.2221H63.7777V54.6665Z" fill="black"/>
<path d="M68.3334 54.6665H63.7778V59.2221H68.3334V54.6665Z" fill="black"/>
<path d="M77.4442 54.6665H72.8887V59.2221H77.4442V54.6665Z" fill="black"/>
<path d="M95.6664 54.6665H91.1108V59.2221H95.6664V54.6665Z" fill="black"/>
<path d="M118.444 54.6665H113.889V59.2221H118.444V54.6665Z" fill="black"/>
<path d="M127.556 54.6665H123V59.2221H127.556V54.6665Z" fill="black"/>
<path d="M132.111 54.6665H127.556V59.2221H132.111V54.6665Z" fill="black"/>
<path d="M136.666 54.6665H132.111V59.2221H136.666V54.6665Z" fill="black"/>
<path d="M150.333 54.6665H145.778V59.2221H150.333V54.6665Z" fill="black"/>
<path d="M159.444 54.6665H154.889V59.2221H159.444V54.6665Z" fill="black"/>
<path d="M164 54.6665H159.444V59.2221H164V54.6665Z" fill="black"/>
<path d="M168.556 54.6665H164V59.2221H168.556V54.6665Z" fill="black"/>
<path d="M173.111 54.6665H168.556V59.2221H173.111V54.6665Z" fill="black"/>
<path d="M177.666 54.6665H173.111V59.2221H177.666V54.6665Z" fill="black"/>
<path d="M36.4442 59.2222H31.8887V63.7777H36.4442V59.2222Z" fill="black"/>
<path d="M45.5556 59.2222H41V63.7777H45.5556V59.2222Z" fill="black"/>
<path d="M54.6664 59.2222H50.1108V63.7777H54.6664V59.2222Z" fill="black"/>
<path d="M63.7777 59.2222H59.2222V63.7777H63.7777V59.2222Z" fill="black"/>
<path d="M72.8891 59.2222H68.3335V63.7777H72.8891V59.2222Z" fill="black"/>
<path d="M77.4442 59.2222H72.8887V63.7777H77.4442V59.2222Z" fill="black"/>
<path d="M91.1112 59.2222H86.5557V63.7777H91.1112V59.2222Z" fill="black"/>
<path d="M100.222 59.2222H95.6665V63.7777H100.222V59.2222Z" fill="black"/>
<path d="M104.778 59.2222H100.222V63.7777H104.778V59.2222Z" fill="black"/>
<path d="M113.889 59.2222H109.333V63.7777H113.889V59.2222Z" fill="black"/>
<path d="M123 59.2222H118.444V63.7777H123V59.2222Z" fill="black"/>
<path d="M132.111 59.2222H127.556V63.7777H132.111V59.2222Z" fill="black"/>
<path d="M141.222 59.2222H136.667V63.7777H141.222V59.2222Z" fill="black"/>
<path d="M154.889 59.2222H150.333V63.7777H154.889V59.2222Z" fill="black"/>
<path d="M177.666 59.2222H173.111V63.7777H177.666V59.2222Z" fill="black"/>
<path d="M182.222 59.2222H177.667V63.7777H182.222V59.2222Z" fill="black"/>
<path d="M22.7777 63.7778H18.2222V68.3334H22.7777V63.7778Z" fill="black"/>
<path d="M27.3334 63.7778H22.7778V68.3334H27.3334V63.7778Z" fill="black"/>
<path d="M31.8891 63.7778H27.3335V68.3334H31.8891V63.7778Z" fill="black"/>
<path d="M45.5556 63.7778H41V68.3334H45.5556V63.7778Z" fill="black"/>
<path d="M50.1112 63.7778H45.5557V68.3334H50.1112V63.7778Z" fill="black"/>
<path d="M63.7777 63.7778H59.2222V68.3334H63.7777V63.7778Z" fill="black"/>
<path d="M68.3334 63.7778H63.7778V68.3334H68.3334V63.7778Z" fill="black"/>
<path d="M72.8891 63.7778H68.3335V68.3334H72.8891V63.7778Z" fill="black"/>
<path d="M77.4442 63.7778H72.8887V68.3334H77.4442V63.7778Z" fill="black"/>
<path d="M81.9999 63.7778H77.4443V68.3334H81.9999V63.7778Z" fill="black"/>
<path d="M86.5556 63.7778H82V68.3334H86.5556V63.7778Z" fill="black"/>
<path d="M91.1112 63.7778H86.5557V68.3334H91.1112V63.7778Z" fill="black"/>
<path d="M95.6664 63.7778H91.1108V68.3334H95.6664V63.7778Z" fill="black"/>
<path d="M109.333 63.7778H104.778V68.3334H109.333V63.7778Z" fill="black"/>
<path d="M123 63.7778H118.444V68.3334H123V63.7778Z" fill="black"/>
<path d="M132.111 63.7778H127.556V68.3334H132.111V63.7778Z" fill="black"/>
<path d="M136.666 63.7778H132.111V68.3334H136.666V63.7778Z" fill="black"/>
<path d="M141.222 63.7778H136.667V68.3334H141.222V63.7778Z" fill="black"/>
<path d="M145.778 63.7778H141.222V68.3334H145.778V63.7778Z" fill="black"/>
<path d="M154.889 63.7778H150.333V68.3334H154.889V63.7778Z" fill="black"/>
<path d="M159.444 63.7778H154.889V68.3334H159.444V63.7778Z" fill="black"/>
<path d="M168.556 63.7778H164V68.3334H168.556V63.7778Z" fill="black"/>
<path d="M177.666 63.7778H173.111V68.3334H177.666V63.7778Z" fill="black"/>
<path d="M182.222 63.7778H177.667V68.3334H182.222V63.7778Z" fill="black"/>
<path d="M186.778 63.7778H182.222V68.3334H186.778V63.7778Z" fill="black"/>
<path d="M27.3334 68.3333H22.7778V72.8888H27.3334V68.3333Z" fill="black"/>
<path d="M31.8891 68.3333H27.3335V72.8888H31.8891V68.3333Z" fill="black"/>
<path d="M45.5556 68.3333H41V72.8888H45.5556V68.3333Z" fill="black"/>
<path d="M54.6664 68.3333H50.1108V72.8888H54.6664V68.3333Z" fill="black"/>
<path d="M59.2221 68.3333H54.6665V72.8888H59.2221V68.3333Z" fill="black"/>
<path d="M77.4442 68.3333H72.8887V72.8888H77.4442V68.3333Z" fill="black"/>
<path d="M91.1112 68.3333H86.5557V72.8888H91.1112V68.3333Z" fill="black"/>
<path d="M104.778 68.3333H100.222V72.8888H104.778V68.3333Z" fill="black"/>
<path d="M109.333 68.3333H104.778V72.8888H109.333V68.3333Z" fill="black"/>
<path d="M113.889 68.3333H109.333V72.8888H113.889V68.3333Z" fill="black"/>
<path d="M118.444 68.3333H113.889V72.8888H118.444V68.3333Z" fill="black"/>
<path d="M123 68.3333H118.444V72.8888H123V68.3333Z" fill="black"/>
<path d="M132.111 68.3333H127.556V72.8888H132.111V68.3333Z" fill="black"/>
<path d="M154.889 68.3333H150.333V72.8888H154.889V68.3333Z" fill="black"/>
<path d="M173.111 68.3333H168.556V72.8888H173.111V68.3333Z" fill="black"/>
<path d="M186.778 68.3333H182.222V72.8888H186.778V68.3333Z" fill="black"/>
<path d="M27.3334 72.8889H22.7778V77.4445H27.3334V72.8889Z" fill="black"/>
<path d="M31.8891 72.8889H27.3335V77.4445H31.8891V72.8889Z" fill="black"/>
<path d="M36.4442 72.8889H31.8887V77.4445H36.4442V72.8889Z" fill="black"/>
<path d="M50.1112 72.8889H45.5557V77.4445H50.1112V72.8889Z" fill="black"/>
<path d="M68.3334 72.8889H63.7778V77.4445H68.3334V72.8889Z" fill="black"/>
<path d="M91.1112 72.8889H86.5557V77.4445H91.1112V72.8889Z" fill="black"/>
<path d="M95.6664 72.8889H91.1108V77.4445H95.6664V72.8889Z" fill="black"/>
<path d="M100.222 72.8889H95.6665V77.4445H100.222V72.8889Z" fill="black"/>
<path d="M109.333 72.8889H104.778V77.4445H109.333V72.8889Z" fill="black"/>
<path d="M123 72.8889H118.444V77.4445H123V72.8889Z" fill="black"/>
<path d="M127.556 72.8889H123V77.4445H127.556V72.8889Z" fill="black"/>
<path d="M132.111 72.8889H127.556V77.4445H132.111V72.8889Z" fill="black"/>
<path d="M136.666 72.8889H132.111V77.4445H136.666V72.8889Z" fill="black"/>
<path d="M141.222 72.8889H136.667V77.4445H141.222V72.8889Z" fill="black"/>
<path d="M145.778 72.8889H141.222V77.4445H145.778V72.8889Z" fill="black"/>
<path d="M154.889 72.8889H150.333V77.4445H154.889V72.8889Z" fill="black"/>
<path d="M159.444 72.8889H154.889V77.4445H159.444V72.8889Z" fill="black"/>
<path d="M164 72.8889H159.444V77.4445H164V72.8889Z" fill="black"/>
<path d="M168.556 72.8889H164V77.4445H168.556V72.8889Z" fill="black"/>
<path d="M177.666 72.8889H173.111V77.4445H177.666V72.8889Z" fill="black"/>
<path d="M182.222 72.8889H177.667V77.4445H182.222V72.8889Z" fill="black"/>
<path d="M186.778 72.8889H182.222V77.4445H186.778V72.8889Z" fill="black"/>
<path d="M27.3334 77.4443H22.7778V81.9999H27.3334V77.4443Z" fill="black"/>
<path d="M31.8891 77.4443H27.3335V81.9999H31.8891V77.4443Z" fill="black"/>
<path d="M45.5556 77.4443H41V81.9999H45.5556V77.4443Z" fill="black"/>
<path d="M68.3334 77.4443H63.7778V81.9999H68.3334V77.4443Z" fill="black"/>
<path d="M86.5556 77.4443H82V81.9999H86.5556V77.4443Z" fill="black"/>
<path d="M104.778 77.4443H100.222V81.9999H104.778V77.4443Z" fill="black"/>
<path d="M109.333 77.4443H104.778V81.9999H109.333V77.4443Z" fill="black"/>
<path d="M113.889 77.4443H109.333V81.9999H113.889V77.4443Z" fill="black"/>
<path d="M127.556 77.4443H123V81.9999H127.556V77.4443Z" fill="black"/>
<path d="M132.111 77.4443H127.556V81.9999H132.111V77.4443Z" fill="black"/>
<path d="M150.333 77.4443H145.778V81.9999H150.333V77.4443Z" fill="black"/>
<path d="M154.889 77.4443H150.333V81.9999H154.889V77.4443Z" fill="black"/>
<path d="M164 77.4443H159.444V81.9999H164V77.4443Z" fill="black"/>
<path d="M36.4442 82H31.8887V86.5556H36.4442V82Z" fill="black"/>
<path d="M40.9999 82H36.4443V86.5556H40.9999V82Z" fill="black"/>
<path d="M50.1112 82H45.5557V86.5556H50.1112V82Z" fill="black"/>
<path d="M63.7777 82H59.2222V86.5556H63.7777V82Z" fill="black"/>
<path d="M77.4442 82H72.8887V86.5556H77.4442V82Z" fill="black"/>
<path d="M86.5556 82H82V86.5556H86.5556V82Z" fill="black"/>
<path d="M91.1112 82H86.5557V86.5556H91.1112V82Z" fill="black"/>
<path d="M95.6664 82H91.1108V86.5556H95.6664V82Z" fill="black"/>
<path d="M104.778 82H100.222V86.5556H104.778V82Z" fill="black"/>
<path d="M113.889 82H109.333V86.5556H113.889V82Z" fill="black"/>
<path d="M123 82H118.444V86.5556H123V82Z" fill="black"/>
<path d="M136.666 82H132.111V86.5556H136.666V82Z" fill="black"/>
<path d="M145.778 82H141.222V86.5556H145.778V82Z" fill="black"/>
<path d="M150.333 82H145.778V86.5556H150.333V82Z" fill="black"/>
<path d="M154.889 82H150.333V86.5556H154.889V82Z" fill="black"/>
<path d="M159.444 82H154.889V86.5556H159.444V82Z" fill="black"/>
<path d="M164 82H159.444V86.5556H164V82Z" fill="black"/>
<path d="M168.556 82H164V86.5556H168.556V82Z" fill="black"/>
<path d="M173.111 82H168.556V86.5556H173.111V82Z" fill="black"/>
<path d="M186.778 82H182.222V86.5556H186.778V82Z" fill="black"/>
<path d="M36.4442 86.5554H31.8887V91.111H36.4442V86.5554Z" fill="black"/>
<path d="M45.5556 86.5554H41V91.111H45.5556V86.5554Z" fill="black"/>
<path d="M63.7777 86.5554H59.2222V91.111H63.7777V86.5554Z" fill="black"/>
<path d="M72.8891 86.5554H68.3335V91.111H72.8891V86.5554Z" fill="black"/>
<path d="M81.9999 86.5554H77.4443V91.111H81.9999V86.5554Z" fill="black"/>
<path d="M91.1112 86.5554H86.5557V91.111H91.1112V86.5554Z" fill="black"/>
<path d="M109.333 86.5554H104.778V91.111H109.333V86.5554Z" fill="black"/>
<path d="M113.889 86.5554H109.333V91.111H113.889V86.5554Z" fill="black"/>
<path d="M145.778 86.5554H141.222V91.111H145.778V86.5554Z" fill="black"/>
<path d="M154.889 86.5554H150.333V91.111H154.889V86.5554Z" fill="black"/>
<path d="M164 86.5554H159.444V91.111H164V86.5554Z" fill="black"/>
<path d="M168.556 86.5554H164V91.111H168.556V86.5554Z" fill="black"/>
<path d="M186.778 86.5554H182.222V91.111H186.778V86.5554Z" fill="black"/>
<path d="M22.7777 91.1111H18.2222V95.6666H22.7777V91.1111Z" fill="black"/>
<path d="M27.3334 91.1111H22.7778V95.6666H27.3334V91.1111Z" fill="black"/>
<path d="M40.9999 91.1111H36.4443V95.6666H40.9999V91.1111Z" fill="black"/>
<path d="M45.5556 91.1111H41V95.6666H45.5556V91.1111Z" fill="black"/>
<path d="M50.1112 91.1111H45.5557V95.6666H50.1112V91.1111Z" fill="black"/>
<path d="M68.3334 91.1111H63.7778V95.6666H68.3334V91.1111Z" fill="black"/>
<path d="M72.8891 91.1111H68.3335V95.6666H72.8891V91.1111Z" fill="black"/>
<path d="M81.9999 91.1111H77.4443V95.6666H81.9999V91.1111Z" fill="black"/>
<path d="M91.1112 91.1111H86.5557V95.6666H91.1112V91.1111Z" fill="black"/>
<path d="M104.778 91.1111H100.222V95.6666H104.778V91.1111Z" fill="black"/>
<path d="M109.333 91.1111H104.778V95.6666H109.333V91.1111Z" fill="black"/>
<path d="M113.889 91.1111H109.333V95.6666H113.889V91.1111Z" fill="black"/>
<path d="M118.444 91.1111H113.889V95.6666H118.444V91.1111Z" fill="black"/>
<path d="M123 91.1111H118.444V95.6666H123V91.1111Z" fill="black"/>
<path d="M136.666 91.1111H132.111V95.6666H136.666V91.1111Z" fill="black"/>
<path d="M145.778 91.1111H141.222V95.6666H145.778V91.1111Z" fill="black"/>
<path d="M150.333 91.1111H145.778V95.6666H150.333V91.1111Z" fill="black"/>
<path d="M159.444 91.1111H154.889V95.6666H159.444V91.1111Z" fill="black"/>
<path d="M164 91.1111H159.444V95.6666H164V91.1111Z" fill="black"/>
<path d="M168.556 91.1111H164V95.6666H168.556V91.1111Z" fill="black"/>
<path d="M177.666 91.1111H173.111V95.6666H177.666V91.1111Z" fill="black"/>
<path d="M186.778 91.1111H182.222V95.6666H186.778V91.1111Z" fill="black"/>
<path d="M22.7777 95.6665H18.2222V100.222H22.7777V95.6665Z" fill="black"/>
<path d="M31.8891 95.6665H27.3335V100.222H31.8891V95.6665Z" fill="black"/>
<path d="M36.4442 95.6665H31.8887V100.222H36.4442V95.6665Z" fill="black"/>
<path d="M54.6664 95.6665H50.1108V100.222H54.6664V95.6665Z" fill="black"/>
<path d="M63.7777 95.6665H59.2222V100.222H63.7777V95.6665Z" fill="black"/>
<path d="M77.4442 95.6665H72.8887V100.222H77.4442V95.6665Z" fill="black"/>
<path d="M81.9999 95.6665H77.4443V100.222H81.9999V95.6665Z" fill="black"/>
<path d="M86.5556 95.6665H82V100.222H86.5556V95.6665Z" fill="black"/>
<path d="M91.1112 95.6665H86.5557V100.222H91.1112V95.6665Z" fill="black"/>
<path d="M95.6664 95.6665H91.1108V100.222H95.6664V95.6665Z" fill="black"/>
<path d="M100.222 95.6665H95.6665V100.222H100.222V95.6665Z" fill="black"/>
<path d="M127.556 95.6665H123V100.222H127.556V95.6665Z" fill="black"/>
<path d="M132.111 95.6665H127.556V100.222H132.111V95.6665Z" fill="black"/>
<path d="M136.666 95.6665H132.111V100.222H136.666V95.6665Z" fill="black"/>
<path d="M141.222 95.6665H136.667V100.222H141.222V95.6665Z" fill="black"/>
<path d="M154.889 95.6665H150.333V100.222H154.889V95.6665Z" fill="black"/>
<path d="M173.111 95.6665H168.556V100.222H173.111V95.6665Z" fill="black"/>
<path d="M182.222 95.6665H177.667V100.222H182.222V95.6665Z" fill="black"/>
<path d="M22.7777 100.222H18.2222V104.778H22.7777V100.222Z" fill="black"/>
<path d="M27.3334 100.222H22.7778V104.778H27.3334V100.222Z" fill="black"/>
<path d="M31.8891 100.222H27.3335V104.778H31.8891V100.222Z" fill="black"/>
<path d="M36.4442 100.222H31.8887V104.778H36.4442V100.222Z" fill="black"/>
<path d="M45.5556 100.222H41V104.778H45.5556V100.222Z" fill="black"/>
<path d="M50.1112 100.222H45.5557V104.778H50.1112V100.222Z" fill="black"/>
<path d="M59.2221 100.222H54.6665V104.778H59.2221V100.222Z" fill="black"/>
<path d="M63.7777 100.222H59.2222V104.778H63.7777V100.222Z" fill="black"/>
<path d="M68.3334 100.222H63.7778V104.778H68.3334V100.222Z" fill="black"/>
<path d="M81.9999 100.222H77.4443V104.778H81.9999V100.222Z" fill="black"/>
<path d="M86.5556 100.222H82V104.778H86.5556V100.222Z" fill="black"/>
<path d="M113.889 100.222H109.333V104.778H113.889V100.222Z" fill="black"/>
<path d="M118.444 100.222H113.889V104.778H118.444V100.222Z" fill="black"/>
<path d="M123 100.222H118.444V104.778H123V100.222Z" fill="black"/>
<path d="M136.666 100.222H132.111V104.778H136.666V100.222Z" fill="black"/>
<path d="M141.222 100.222H136.667V104.778H141.222V100.222Z" fill="black"/>
<path d="M145.778 100.222H141.222V104.778H145.778V100.222Z" fill="black"/>
<path d="M154.889 100.222H150.333V104.778H154.889V100.222Z" fill="black"/>
<path d="M159.444 100.222H154.889V104.778H159.444V100.222Z" fill="black"/>
<path d="M182.222 100.222H177.667V104.778H182.222V100.222Z" fill="black"/>
<path d="M186.778 100.222H182.222V104.778H186.778V100.222Z" fill="black"/>
<path d="M22.7777 104.778H18.2222V109.333H22.7777V104.778Z" fill="black"/>
<path d="M45.5556 104.778H41V109.333H45.5556V104.778Z" fill="black"/>
<path d="M54.6664 104.778H50.1108V109.333H54.6664V104.778Z" fill="black"/>
<path d="M63.7777 104.778H59.2222V109.333H63.7777V104.778Z" fill="black"/>
<path d="M68.3334 104.778H63.7778V109.333H68.3334V104.778Z" fill="black"/>
<path d="M86.5556 104.778H82V109.333H86.5556V104.778Z" fill="black"/>
<path d="M95.6664 104.778H91.1108V109.333H95.6664V104.778Z" fill="black"/>
<path d="M104.778 104.778H100.222V109.333H104.778V104.778Z" fill="black"/>
<path d="M118.444 104.778H113.889V109.333H118.444V104.778Z" fill="black"/>
<path d="M123 104.778H118.444V109.333H123V104.778Z" fill="black"/>
<path d="M132.111 104.778H127.556V109.333H132.111V104.778Z" fill="black"/>
<path d="M141.222 104.778H136.667V109.333H141.222V104.778Z" fill="black"/>
<path d="M145.778 104.778H141.222V109.333H145.778V104.778Z" fill="black"/>
<path d="M154.889 104.778H150.333V109.333H154.889V104.778Z" fill="black"/>
<path d="M173.111 104.778H168.556V109.333H173.111V104.778Z" fill="black"/>
<path d="M186.778 104.778H182.222V109.333H186.778V104.778Z" fill="black"/>
<path d="M22.7777 109.333H18.2222V113.889H22.7777V109.333Z" fill="black"/>
<path d="M31.8891 109.333H27.3335V113.889H31.8891V109.333Z" fill="black"/>
<path d="M36.4442 109.333H31.8887V113.889H36.4442V109.333Z" fill="black"/>
<path d="M50.1112 109.333H45.5557V113.889H50.1112V109.333Z" fill="black"/>
<path d="M63.7777 109.333H59.2222V113.889H63.7777V109.333Z" fill="black"/>
<path d="M68.3334 109.333H63.7778V113.889H68.3334V109.333Z" fill="black"/>
<path d="M77.4442 109.333H72.8887V113.889H77.4442V109.333Z" fill="black"/>
<path d="M86.5556 109.333H82V113.889H86.5556V109.333Z" fill="black"/>
<path d="M95.6664 109.333H91.1108V113.889H95.6664V109.333Z" fill="black"/>
<path d="M100.222 109.333H95.6665V113.889H100.222V109.333Z" fill="black"/>
<path d="M104.778 109.333H100.222V113.889H104.778V109.333Z" fill="black"/>
<path d="M132.111 109.333H127.556V113.889H132.111V109.333Z" fill="black"/>
<path d="M136.666 109.333H132.111V113.889H136.666V109.333Z" fill="black"/>
<path d="M141.222 109.333H136.667V113.889H141.222V109.333Z" fill="black"/>
<path d="M145.778 109.333H141.222V113.889H145.778V109.333Z" fill="black"/>
<path d="M154.889 109.333H150.333V113.889H154.889V109.333Z" fill="black"/>
<path d="M159.444 109.333H154.889V113.889H159.444V109.333Z" fill="black"/>
<path d="M168.556 109.333H164V113.889H168.556V109.333Z" fill="black"/>
<path d="M177.666 109.333H173.111V113.889H177.666V109.333Z" fill="black"/>
<path d="M31.8891 113.889H27.3335V118.444H31.8891V113.889Z" fill="black"/>
<path d="M36.4442 113.889H31.8887V118.444H36.4442V113.889Z" fill="black"/>
<path d="M40.9999 113.889H36.4443V118.444H40.9999V113.889Z" fill="black"/>
<path d="M45.5556 113.889H41V118.444H45.5556V113.889Z" fill="black"/>
<path d="M54.6664 113.889H50.1108V118.444H54.6664V113.889Z" fill="black"/>
<path d="M59.2221 113.889H54.6665V118.444H59.2221V113.889Z" fill="black"/>
<path d="M68.3334 113.889H63.7778V118.444H68.3334V113.889Z" fill="black"/>
<path d="M86.5556 113.889H82V118.444H86.5556V113.889Z" fill="black"/>
<path d="M100.222 113.889H95.6665V118.444H100.222V113.889Z" fill="black"/>
<path d="M104.778 113.889H100.222V118.444H104.778V113.889Z" fill="black"/>
<path d="M109.333 113.889H104.778V118.444H109.333V113.889Z" fill="black"/>
<path d="M118.444 113.889H113.889V118.444H118.444V113.889Z" fill="black"/>
<path d="M127.556 113.889H123V118.444H127.556V113.889Z" fill="black"/>
<path d="M150.333 113.889H145.778V118.444H150.333V113.889Z" fill="black"/>
<path d="M154.889 113.889H150.333V118.444H154.889V113.889Z" fill="black"/>
<path d="M173.111 113.889H168.556V118.444H173.111V113.889Z" fill="black"/>
<path d="M182.222 113.889H177.667V118.444H182.222V113.889Z" fill="black"/>
<path d="M36.4442 118.444H31.8887V123H36.4442V118.444Z" fill="black"/>
<path d="M50.1112 118.444H45.5557V123H50.1112V118.444Z" fill="black"/>
<path d="M54.6664 118.444H50.1108V123H54.6664V118.444Z" fill="black"/>
<path d="M59.2221 118.444H54.6665V123H59.2221V118.444Z" fill="black"/>
<path d="M72.8891 118.444H68.3335V123H72.8891V118.444Z" fill="black"/>
<path d="M81.9999 118.444H77.4443V123H81.9999V118.444Z" fill="black"/>
<path d="M91.1112 118.444H86.5557V123H91.1112V118.444Z" fill="black"/>
<path d="M100.222 118.444H95.6665V123H100.222V118.444Z" fill="black"/>
<path d="M113.889 118.444H109.333V123H113.889V118.444Z" fill="black"/>
<path d="M118.444 118.444H113.889V123H118.444V118.444Z" fill="black"/>
<path d="M132.111 118.444H127.556V123H132.111V118.444Z" fill="black"/>
<path d="M145.778 118.444H141.222V123H145.778V118.444Z" fill="black"/>
<path d="M159.444 118.444H154.889V123H159.444V118.444Z" fill="black"/>
<path d="M164 118.444H159.444V123H164V118.444Z" fill="black"/>
<path d="M168.556 118.444H164V123H168.556V118.444Z" fill="black"/>
<path d="M173.111 118.444H168.556V123H173.111V118.444Z" fill="black"/>
<path d="M186.778 118.444H182.222V123H186.778V118.444Z" fill="black"/>
<path d="M22.7777 123H18.2222V127.556H22.7777V123Z" fill="black"/>
<path d="M36.4442 123H31.8887V127.556H36.4442V123Z" fill="black"/>
<path d="M45.5556 123H41V127.556H45.5556V123Z" fill="black"/>
<path d="M54.6664 123H50.1108V127.556H54.6664V123Z" fill="black"/>
<path d="M59.2221 123H54.6665V127.556H59.2221V123Z" fill="black"/>
<path d="M81.9999 123H77.4443V127.556H81.9999V123Z" fill="black"/>
<path d="M86.5556 123H82V127.556H86.5556V123Z" fill="black"/>
<path d="M95.6664 123H91.1108V127.556H95.6664V123Z" fill="black"/>
<path d="M100.222 123H95.6665V127.556H100.222V123Z" fill="black"/>
<path d="M104.778 123H100.222V127.556H104.778V123Z" fill="black"/>
<path d="M118.444 123H113.889V127.556H118.444V123Z" fill="black"/>
<path d="M123 123H118.444V127.556H123V123Z" fill="black"/>
<path d="M127.556 123H123V127.556H127.556V123Z" fill="black"/>
<path d="M141.222 123H136.667V127.556H141.222V123Z" fill="black"/>
<path d="M145.778 123H141.222V127.556H145.778V123Z" fill="black"/>
<path d="M150.333 123H145.778V127.556H150.333V123Z" fill="black"/>
<path d="M164 123H159.444V127.556H164V123Z" fill="black"/>
<path d="M168.556 123H164V127.556H168.556V123Z" fill="black"/>
<path d="M186.778 123H182.222V127.556H186.778V123Z" fill="black"/>
<path d="M22.7777 127.555H18.2222V132.111H22.7777V127.555Z" fill="black"/>
<path d="M27.3334 127.555H22.7778V132.111H27.3334V127.555Z" fill="black"/>
<path d="M40.9999 127.555H36.4443V132.111H40.9999V127.555Z" fill="black"/>
<path d="M50.1112 127.555H45.5557V132.111H50.1112V127.555Z" fill="black"/>
<path d="M54.6664 127.555H50.1108V132.111H54.6664V127.555Z" fill="black"/>
<path d="M95.6664 127.555H91.1108V132.111H95.6664V127.555Z" fill="black"/>
<path d="M109.333 127.555H104.778V132.111H109.333V127.555Z" fill="black"/>
<path d="M118.444 127.555H113.889V132.111H118.444V127.555Z" fill="black"/>
<path d="M127.556 127.555H123V132.111H127.556V127.555Z" fill="black"/>
<path d="M136.666 127.555H132.111V132.111H136.666V127.555Z" fill="black"/>
<path d="M145.778 127.555H141.222V132.111H145.778V127.555Z" fill="black"/>
<path d="M150.333 127.555H145.778V132.111H150.333V127.555Z" fill="black"/>
<path d="M159.444 127.555H154.889V132.111H159.444V127.555Z" fill="black"/>
<path d="M164 127.555H159.444V132.111H164V127.555Z" fill="black"/>
<path d="M168.556 127.555H164V132.111H168.556V127.555Z" fill="black"/>
<path d="M177.666 127.555H173.111V132.111H177.666V127.555Z" fill="black"/>
<path d="M31.8891 132.111H27.3335V136.667H31.8891V132.111Z" fill="black"/>
<path d="M40.9999 132.111H36.4443V136.667H40.9999V132.111Z" fill="black"/>
<path d="M68.3334 132.111H63.7778V136.667H68.3334V132.111Z" fill="black"/>
<path d="M81.9999 132.111H77.4443V136.667H81.9999V132.111Z" fill="black"/>
<path d="M91.1112 132.111H86.5557V136.667H91.1112V132.111Z" fill="black"/>
<path d="M100.222 132.111H95.6665V136.667H100.222V132.111Z" fill="black"/>
<path d="M104.778 132.111H100.222V136.667H104.778V132.111Z" fill="black"/>
<path d="M113.889 132.111H109.333V136.667H113.889V132.111Z" fill="black"/>
<path d="M123 132.111H118.444V136.667H123V132.111Z" fill="black"/>
<path d="M127.556 132.111H123V136.667H127.556V132.111Z" fill="black"/>
<path d="M132.111 132.111H127.556V136.667H132.111V132.111Z" fill="black"/>
<path d="M136.666 132.111H132.111V136.667H136.666V132.111Z" fill="black"/>
<path d="M141.222 132.111H136.667V136.667H141.222V132.111Z" fill="black"/>
<path d="M27.3334 136.667H22.7778V141.222H27.3334V136.667Z" fill="black"/>
<path d="M36.4442 136.667H31.8887V141.222H36.4442V136.667Z" fill="black"/>
<path d="M50.1112 136.667H45.5557V141.222H50.1112V136.667Z" fill="black"/>
<path d="M54.6664 136.667H50.1108V141.222H54.6664V136.667Z" fill="black"/>
<path d="M59.2221 136.667H54.6665V141.222H59.2221V136.667Z" fill="black"/>
<path d="M68.3334 136.667H63.7778V141.222H68.3334V136.667Z" fill="black"/>
<path d="M86.5556 136.667H82V141.222H86.5556V136.667Z" fill="black"/>
<path d="M91.1112 136.667H86.5557V141.222H91.1112V136.667Z" fill="black"/>
<path d="M95.6664 136.667H91.1108V141.222H95.6664V136.667Z" fill="black"/>
<path d="M100.222 136.667H95.6665V141.222H100.222V136.667Z" fill="black"/>
<path d="M109.333 136.667H104.778V141.222H109.333V136.667Z" fill="black"/>
<path d="M123 136.667H118.444V141.222H123V136.667Z" fill="black"/>
<path d="M132.111 136.667H127.556V141.222H132.111V136.667Z" fill="black"/>
<path d="M136.666 136.667H132.111V141.222H136.666V136.667Z" fill="black"/>
<path d="M141.222 136.667H136.667V141.222H141.222V136.667Z" fill="black"/>
<path d="M145.778 136.667H141.222V141.222H145.778V136.667Z" fill="black"/>
<path d="M154.889 136.667H150.333V141.222H154.889V136.667Z" fill="black"/>
<path d="M159.444 136.667H154.889V141.222H159.444V136.667Z" fill="black"/>
<path d="M177.666 136.667H173.111V141.222H177.666V136.667Z" fill="black"/>
<path d="M182.222 136.667H177.667V141.222H182.222V136.667Z" fill="black"/>
<path d="M186.778 136.667H182.222V141.222H186.778V136.667Z" fill="black"/>
<path d="M27.3334 141.222H22.7778V145.778H27.3334V141.222Z" fill="black"/>
<path d="M36.4442 141.222H31.8887V145.778H36.4442V141.222Z" fill="black"/>
<path d="M45.5556 141.222H41V145.778H45.5556V141.222Z" fill="black"/>
<path d="M63.7777 141.222H59.2222V145.778H63.7777V141.222Z" fill="black"/>
<path d="M68.3334 141.222H63.7778V145.778H68.3334V141.222Z" fill="black"/>
<path d="M72.8891 141.222H68.3335V145.778H72.8891V141.222Z" fill="black"/>
<path d="M77.4442 141.222H72.8887V145.778H77.4442V141.222Z" fill="black"/>
<path d="M86.5556 141.222H82V145.778H86.5556V141.222Z" fill="black"/>
<path d="M91.1112 141.222H86.5557V145.778H91.1112V141.222Z" fill="black"/>
<path d="M109.333 141.222H104.778V145.778H109.333V141.222Z" fill="black"/>
<path d="M113.889 141.222H109.333V145.778H113.889V141.222Z" fill="black"/>
<path d="M118.444 141.222H113.889V145.778H118.444V141.222Z" fill="black"/>
<path d="M123 141.222H118.444V145.778H123V141.222Z" fill="black"/>
<path d="M132.111 141.222H127.556V145.778H132.111V141.222Z" fill="black"/>
<path d="M154.889 141.222H150.333V145.778H154.889V141.222Z" fill="black"/>
<path d="M168.556 141.222H164V145.778H168.556V141.222Z" fill="black"/>
<path d="M173.111 141.222H168.556V145.778H173.111V141.222Z" fill="black"/>
<path d="M27.3334 145.778H22.7778V150.333H27.3334V145.778Z" fill="black"/>
<path d="M36.4442 145.778H31.8887V150.333H36.4442V145.778Z" fill="black"/>
<path d="M45.5556 145.778H41V150.333H45.5556V145.778Z" fill="black"/>
<path d="M50.1112 145.778H45.5557V150.333H50.1112V145.778Z" fill="black"/>
<path d="M59.2221 145.778H54.6665V150.333H59.2221V145.778Z" fill="black"/>
<path d="M72.8891 145.778H68.3335V150.333H72.8891V145.778Z" fill="black"/>
<path d="M81.9999 145.778H77.4443V150.333H81.9999V145.778Z" fill="black"/>
<path d="M86.5556 145.778H82V150.333H86.5556V145.778Z" fill="black"/>
<path d="M91.1112 145.778H86.5557V150.333H91.1112V145.778Z" fill="black"/>
<path d="M100.222 145.778H95.6665V150.333H100.222V145.778Z" fill="black"/>
<path d="M104.778 145.778H100.222V150.333H104.778V145.778Z" fill="black"/>
<path d="M109.333 145.778H104.778V150.333H109.333V145.778Z" fill="black"/>
<path d="M123 145.778H118.444V150.333H123V145.778Z" fill="black"/>
<path d="M132.111 145.778H127.556V150.333H132.111V145.778Z" fill="black"/>
<path d="M136.666 145.778H132.111V150.333H136.666V145.778Z" fill="black"/>
<path d="M141.222 145.778H136.667V150.333H141.222V145.778Z" fill="black"/>
<path d="M145.778 145.778H141.222V150.333H145.778V145.778Z" fill="black"/>
<path d="M150.333 145.778H145.778V150.333H150.333V145.778Z" fill="black"/>
<path d="M154.889 145.778H150.333V150.333H154.889V145.778Z" fill="black"/>
<path d="M159.444 145.778H154.889V150.333H159.444V145.778Z" fill="black"/>
<path d="M164 145.778H159.444V150.333H164V145.778Z" fill="black"/>
<path d="M168.556 145.778H164V150.333H168.556V145.778Z" fill="black"/>
<path d="M177.666 145.778H173.111V150.333H177.666V145.778Z" fill="black"/>
<path d="M186.778 145.778H182.222V150.333H186.778V145.778Z" fill="black"/>
<path d="M59.2221 150.333H54.6665V154.889H59.2221V150.333Z" fill="black"/>
<path d="M63.7777 150.333H59.2222V154.889H63.7777V150.333Z" fill="black"/>
<path d="M72.8891 150.333H68.3335V154.889H72.8891V150.333Z" fill="black"/>
<path d="M77.4442 150.333H72.8887V154.889H77.4442V150.333Z" fill="black"/>
<path d="M81.9999 150.333H77.4443V154.889H81.9999V150.333Z" fill="black"/>
<path d="M86.5556 150.333H82V154.889H86.5556V150.333Z" fill="black"/>
<path d="M109.333 150.333H104.778V154.889H109.333V150.333Z" fill="black"/>
<path d="M113.889 150.333H109.333V154.889H113.889V150.333Z" fill="black"/>
<path d="M127.556 150.333H123V154.889H127.556V150.333Z" fill="black"/>
<path d="M136.666 150.333H132.111V154.889H136.666V150.333Z" fill="black"/>
<path d="M150.333 150.333H145.778V154.889H150.333V150.333Z" fill="black"/>
<path d="M168.556 150.333H164V154.889H168.556V150.333Z" fill="black"/>
<path d="M173.111 150.333H168.556V154.889H173.111V150.333Z" fill="black"/>
<path d="M182.222 150.333H177.667V154.889H182.222V150.333Z" fill="black"/>
<path d="M22.7777 154.889H18.2222V159.444H22.7777V154.889Z" fill="black"/>
<path d="M27.3334 154.889H22.7778V159.444H27.3334V154.889Z" fill="black"/>
<path d="M31.8891 154.889H27.3335V159.444H31.8891V154.889Z" fill="black"/>
<path d="M36.4442 154.889H31.8887V159.444H36.4442V154.889Z" fill="black"/>
<path d="M40.9999 154.889H36.4443V159.444H40.9999V154.889Z" fill="black"/>
<path d="M45.5556 154.889H41V159.444H45.5556V154.889Z" fill="black"/>
<path d="M50.1112 154.889H45.5557V159.444H50.1112V154.889Z" fill="black"/>
<path d="M72.8891 154.889H68.3335V159.444H72.8891V154.889Z" fill="black"/>
<path d="M77.4442 154.889H72.8887V159.444H77.4442V154.889Z" fill="black"/>
<path d="M81.9999 154.889H77.4443V159.444H81.9999V154.889Z" fill="black"/>
<path d="M91.1112 154.889H86.5557V159.444H91.1112V154.889Z" fill="black"/>
<path d="M104.778 154.889H100.222V159.444H104.778V154.889Z" fill="black"/>
<path d="M113.889 154.889H109.333V159.444H113.889V154.889Z" fill="black"/>
<path d="M123 154.889H118.444V159.444H123V154.889Z" fill="black"/>
<path d="M150.333 154.889H145.778V159.444H150.333V154.889Z" fill="black"/>
<path d="M159.444 154.889H154.889V159.444H159.444V154.889Z" fill="black"/>
<path d="M168.556 154.889H164V159.444H168.556V154.889Z" fill="black"/>
<path d="M177.666 154.889H173.111V159.444H177.666V154.889Z" fill="black"/>
<path d="M186.778 154.889H182.222V159.444H186.778V154.889Z" fill="black"/>
<path d="M22.7777 159.444H18.2222V164H22.7777V159.444Z" fill="black"/>
<path d="M50.1112 159.444H45.5557V164H50.1112V159.444Z" fill="black"/>
<path d="M59.2221 159.444H54.6665V164H59.2221V159.444Z" fill="black"/>
<path d="M63.7777 159.444H59.2222V164H63.7777V159.444Z" fill="black"/>
<path d="M86.5556 159.444H82V164H86.5556V159.444Z" fill="black"/>
<path d="M91.1112 159.444H86.5557V164H91.1112V159.444Z" fill="black"/>
<path d="M109.333 159.444H104.778V164H109.333V159.444Z" fill="black"/>
<path d="M113.889 159.444H109.333V164H113.889V159.444Z" fill="black"/>
<path d="M132.111 159.444H127.556V164H132.111V159.444Z" fill="black"/>
<path d="M141.222 159.444H136.667V164H141.222V159.444Z" fill="black"/>
<path d="M150.333 159.444H145.778V164H150.333V159.444Z" fill="black"/>
<path d="M168.556 159.444H164V164H168.556V159.444Z" fill="black"/>
<path d="M173.111 159.444H168.556V164H173.111V159.444Z" fill="black"/>
<path d="M186.778 159.444H182.222V164H186.778V159.444Z" fill="black"/>
<path d="M22.7777 164H18.2222V168.556H22.7777V164Z" fill="black"/>
<path d="M31.8891 164H27.3335V168.556H31.8891V164Z" fill="black"/>
<path d="M36.4442 164H31.8887V168.556H36.4442V164Z" fill="black"/>
<path d="M40.9999 164H36.4443V168.556H40.9999V164Z" fill="black"/>
<path d="M50.1112 164H45.5557V168.556H50.1112V164Z" fill="black"/>
<path d="M59.2221 164H54.6665V168.556H59.2221V164Z" fill="black"/>
<path d="M77.4442 164H72.8887V168.556H77.4442V164Z" fill="black"/>
<path d="M91.1112 164H86.5557V168.556H91.1112V164Z" fill="black"/>
<path d="M104.778 164H100.222V168.556H104.778V164Z" fill="black"/>
<path d="M109.333 164H104.778V168.556H109.333V164Z" fill="black"/>
<path d="M113.889 164H109.333V168.556H113.889V164Z" fill="black"/>
<path d="M118.444 164H113.889V168.556H118.444V164Z" fill="black"/>
<path d="M123 164H118.444V168.556H123V164Z" fill="black"/>
<path d="M127.556 164H123V168.556H127.556V164Z" fill="black"/>
<path d="M136.666 164H132.111V168.556H136.666V164Z" fill="black"/>
<path d="M145.778 164H141.222V168.556H145.778V164Z" fill="black"/>
<path d="M150.333 164H145.778V168.556H150.333V164Z" fill="black"/>
<path d="M154.889 164H150.333V168.556H154.889V164Z" fill="black"/>
<path d="M159.444 164H154.889V168.556H159.444V164Z" fill="black"/>
<path d="M164 164H159.444V168.556H164V164Z" fill="black"/>
<path d="M168.556 164H164V168.556H168.556V164Z" fill="black"/>
<path d="M177.666 164H173.111V168.556H177.666V164Z" fill="black"/>
<path d="M186.778 164H182.222V168.556H186.778V164Z" fill="black"/>
<path d="M22.7777 168.555H18.2222V173.111H22.7777V168.555Z" fill="black"/>
<path d="M31.8891 168.555H27.3335V173.111H31.8891V168.555Z" fill="black"/>
<path d="M36.4442 168.555H31.8887V173.111H36.4442V168.555Z" fill="black"/>
<path d="M40.9999 168.555H36.4443V173.111H40.9999V168.555Z" fill="black"/>
<path d="M50.1112 168.555H45.5557V173.111H50.1112V168.555Z" fill="black"/>
<path d="M59.2221 168.555H54.6665V173.111H59.2221V168.555Z" fill="black"/>
<path d="M77.4442 168.555H72.8887V173.111H77.4442V168.555Z" fill="black"/>
<path d="M91.1112 168.555H86.5557V173.111H91.1112V168.555Z" fill="black"/>
<path d="M95.6664 168.555H91.1108V173.111H95.6664V168.555Z" fill="black"/>
<path d="M118.444 168.555H113.889V173.111H118.444V168.555Z" fill="black"/>
<path d="M127.556 168.555H123V173.111H127.556V168.555Z" fill="black"/>
<path d="M132.111 168.555H127.556V173.111H132.111V168.555Z" fill="black"/>
<path d="M136.666 168.555H132.111V173.111H136.666V168.555Z" fill="black"/>
<path d="M141.222 168.555H136.667V173.111H141.222V168.555Z" fill="black"/>
<path d="M145.778 168.555H141.222V173.111H145.778V168.555Z" fill="black"/>
<path d="M150.333 168.555H145.778V173.111H150.333V168.555Z" fill="black"/>
<path d="M159.444 168.555H154.889V173.111H159.444V168.555Z" fill="black"/>
<path d="M168.556 168.555H164V173.111H168.556V168.555Z" fill="black"/>
<path d="M186.778 168.555H182.222V173.111H186.778V168.555Z" fill="black"/>
<path d="M22.7777 173.111H18.2222V177.667H22.7777V173.111Z" fill="black"/>
<path d="M31.8891 173.111H27.3335V177.667H31.8891V173.111Z" fill="black"/>
<path d="M36.4442 173.111H31.8887V177.667H36.4442V173.111Z" fill="black"/>
<path d="M40.9999 173.111H36.4443V177.667H40.9999V173.111Z" fill="black"/>
<path d="M50.1112 173.111H45.5557V177.667H50.1112V173.111Z" fill="black"/>
<path d="M59.2221 173.111H54.6665V177.667H59.2221V173.111Z" fill="black"/>
<path d="M63.7777 173.111H59.2222V177.667H63.7777V173.111Z" fill="black"/>
<path d="M72.8891 173.111H68.3335V177.667H72.8891V173.111Z" fill="black"/>
<path d="M86.5556 173.111H82V177.667H86.5556V173.111Z" fill="black"/>
<path d="M104.778 173.111H100.222V177.667H104.778V173.111Z" fill="black"/>
<path d="M113.889 173.111H109.333V177.667H113.889V173.111Z" fill="black"/>
<path d="M118.444 173.111H113.889V177.667H118.444V173.111Z" fill="black"/>
<path d="M123 173.111H118.444V177.667H123V173.111Z" fill="black"/>
<path d="M141.222 173.111H136.667V177.667H141.222V173.111Z" fill="black"/>
<path d="M150.333 173.111H145.778V177.667H150.333V173.111Z" fill="black"/>
<path d="M173.111 173.111H168.556V177.667H173.111V173.111Z" fill="black"/>
<path d="M182.222 173.111H177.667V177.667H182.222V173.111Z" fill="black"/>
<path d="M186.778 173.111H182.222V177.667H186.778V173.111Z" fill="black"/>
<path d="M22.7777 177.667H18.2222V182.222H22.7777V177.667Z" fill="black"/>
<path d="M50.1112 177.667H45.5557V182.222H50.1112V177.667Z" fill="black"/>
<path d="M63.7777 177.667H59.2222V182.222H63.7777V177.667Z" fill="black"/>
<path d="M72.8891 177.667H68.3335V182.222H72.8891V177.667Z" fill="black"/>
<path d="M81.9999 177.667H77.4443V182.222H81.9999V177.667Z" fill="black"/>
<path d="M86.5556 177.667H82V182.222H86.5556V177.667Z" fill="black"/>
<path d="M95.6664 177.667H91.1108V182.222H95.6664V177.667Z" fill="black"/>
<path d="M118.444 177.667H113.889V182.222H118.444V177.667Z" fill="black"/>
<path d="M132.111 177.667H127.556V182.222H132.111V177.667Z" fill="black"/>
<path d="M150.333 177.667H145.778V182.222H150.333V177.667Z" fill="black"/>
<path d="M154.889 177.667H150.333V182.222H154.889V177.667Z" fill="black"/>
<path d="M168.556 177.667H164V182.222H168.556V177.667Z" fill="black"/>
<path d="M173.111 177.667H168.556V182.222H173.111V177.667Z" fill="black"/>
<path d="M186.778 177.667H182.222V182.222H186.778V177.667Z" fill="black"/>
<path d="M22.7777 182.222H18.2222V186.778H22.7777V182.222Z" fill="black"/>
<path d="M27.3334 182.222H22.7778V186.778H27.3334V182.222Z" fill="black"/>
<path d="M31.8891 182.222H27.3335V186.778H31.8891V182.222Z" fill="black"/>
<path d="M36.4442 182.222H31.8887V186.778H36.4442V182.222Z" fill="black"/>
<path d="M40.9999 182.222H36.4443V186.778H40.9999V182.222Z" fill="black"/>
<path d="M45.5556 182.222H41V186.778H45.5556V182.222Z" fill="black"/>
<path d="M50.1112 182.222H45.5557V186.778H50.1112V182.222Z" fill="black"/>
<path d="M59.2221 182.222H54.6665V186.778H59.2221V182.222Z" fill="black"/>
<path d="M72.8891 182.222H68.3335V186.778H72.8891V182.222Z" fill="black"/>
<path d="M86.5556 182.222H82V186.778H86.5556V182.222Z" fill="black"/>
<path d="M95.6664 182.222H91.1108V186.778H95.6664V182.222Z" fill="black"/>
<path d="M100.222 182.222H95.6665V186.778H100.222V182.222Z" fill="black"/>
<path d="M104.778 182.222H100.222V186.778H104.778V182.222Z" fill="black"/>
<path d="M123 182.222H118.444V186.778H123V182.222Z" fill="black"/>
<path d="M127.556 182.222H123V186.778H127.556V182.222Z" fill="black"/>
<path d="M132.111 182.222H127.556V186.778H132.111V182.222Z" fill="black"/>
<path d="M136.666 182.222H132.111V186.778H136.666V182.222Z" fill="black"/>
<path d="M141.222 182.222H136.667V186.778H141.222V182.222Z" fill="black"/>
<path d="M145.778 182.222H141.222V186.778H145.778V182.222Z" fill="black"/>
<path d="M168.556 182.222H164V186.778H168.556V182.222Z" fill="black"/>
<path d="M177.666 182.222H173.111V186.778H177.666V182.222Z" fill="black"/>
<path d="M182.222 182.222H177.667V186.778H182.222V182.222Z" fill="black"/>
<path d="M186.778 182.222H182.222V186.778H186.778V182.222Z" fill="black"/>
</svg>
