<svg width="33" height="23" viewBox="0 0 33 23" fill="none" xmlns="http://www.w3.org/2000/svg">
<g clip-path="url(#clip0_2574_378)">
<path d="M22.0486 14.3099C23.3628 13.8718 24.0929 12.8497 24.0929 11.3895V8.90717H23.8008C21.3185 8.90717 19.4203 6.8629 19.4203 4.38058C19.4203 1.89825 21.3185 0 23.8008 0H28.4735C30.9558 0 33.0001 1.89825 33.0001 4.38058V11.3895C33.0001 16.2081 30.0797 20.5887 25.5531 22.487C23.2168 23.5091 20.7344 22.3409 19.7123 20.1507C18.6902 17.8143 19.8583 15.332 22.0486 14.3099Z" fill="black"/>
<path d="M2.71048 14.3099C4.02465 13.8718 4.75475 12.8497 4.75475 11.3895V8.90717H4.46271C1.98038 8.90717 0.0821361 6.8629 0.0821361 4.38058C0.0821361 1.89825 1.98038 0 4.46271 0H9.13532C11.6177 0 13.6619 1.89825 13.6619 4.38058V11.3895C13.6619 16.2081 10.7415 20.5887 6.21494 22.487C3.87864 23.5091 1.39631 22.3409 0.374174 20.1507C-0.64796 17.8143 0.520194 15.332 2.71048 14.3099Z" fill="black"/>
</g>
<defs>
<clipPath id="clip0_2574_378">
<rect width="33.0001" height="22.8611" fill="white"/>
</clipPath>
</defs>
</svg>
