<svg width="408" height="145" viewBox="0 0 408 145" fill="none" xmlns="http://www.w3.org/2000/svg">
<g clip-path="url(#clip0_2800_2937)">
<circle cx="18.5" cy="32.5" r="15.5" fill="#D9D9D9"/>
<path d="M22.7529 25.5854C23.3387 24.9997 24.2882 24.9997 24.874 25.5854C25.4598 26.1712 25.4598 27.1208 24.874 27.7065L20.2783 32.3022L25.1523 37.1763C25.7381 37.762 25.7379 38.7116 25.1523 39.2974C24.5666 39.8832 23.617 39.8832 23.0312 39.2974L18.1562 34.4233L13.5605 39.02C12.9748 39.6058 12.0252 39.6058 11.4395 39.02C10.8537 38.4342 10.8537 37.4847 11.4395 36.8989L16.0352 32.3022L11.7168 27.9839C11.1314 27.3982 11.1314 26.4485 11.7168 25.8628C12.3026 25.277 13.2531 25.277 13.8389 25.8628L18.1572 30.1812L22.7529 25.5854Z" fill="#FF928A"/>
<path d="M44.4157 77.9999C44.0162 77.0089 44.4164 75.8785 45.3478 75.3563L49.6091 72.9674C50.4475 72.5005 51.4949 72.6478 52.1661 73.3298C61.4532 82.7675 61.3311 97.9496 51.8934 107.237C51.2113 107.908 50.1617 108.038 49.3309 107.558L45.1086 105.101C44.1848 104.563 43.8032 103.425 44.2205 102.44L46.3825 97.3064C46.7466 96.4409 47.6388 95.9143 48.5702 96.0195L51.9641 96.3845L51.9758 96.3853L51.9801 96.3743C53.4178 92.4553 53.4526 88.1339 52.0781 84.1923L52.074 84.1812L52.0623 84.1818L48.6663 84.4956C47.7297 84.582 46.8506 84.0453 46.5003 83.1744L44.4212 78.0068L44.4066 78.0129L44.4219 78.0061L44.4157 77.9999Z" fill="#A0A0A0" stroke="#A0A0A0" stroke-width="0.03125"/>
<path d="M23.5662 98.4903C24.8266 98.4903 26.0746 98.2421 27.239 97.7598C28.4034 97.2774 29.4614 96.5705 30.3526 95.6793C31.2438 94.7881 31.9508 93.7301 32.4331 92.5657C32.9154 91.4012 33.1637 90.1532 33.1637 88.8929C33.1637 87.6325 32.9154 86.3845 32.4331 85.2201C31.9508 84.0557 31.2438 82.9976 30.3526 82.1064C29.4614 81.2152 28.4034 80.5083 27.239 80.026C26.0746 79.5437 24.8266 79.2954 23.5662 79.2954C21.0208 79.2954 18.5797 80.3066 16.7798 82.1064C14.9799 83.9063 13.9688 86.3475 13.9688 88.8929C13.9688 91.4383 14.9799 93.8794 16.7798 95.6793C18.5797 97.4792 21.0208 98.4903 23.5662 98.4903Z" fill="#A0A0A0" stroke="#A0A0A0" stroke-width="2" stroke-linecap="round" stroke-linejoin="round"/>
<path d="M3 127.009V128.654H44.1319V127.009C44.1319 120.866 44.1319 117.795 42.9364 115.448C41.8848 113.384 40.2069 111.706 38.1431 110.655C35.7959 109.459 32.7247 109.459 26.5823 109.459H20.5496C14.4073 109.459 11.3361 109.459 8.98881 110.655C6.92504 111.706 5.24714 113.384 4.19557 115.448C3 117.795 3 120.866 3 127.009Z" fill="#A0A0A0" stroke="#A0A0A0" stroke-width="2" stroke-linecap="round" stroke-linejoin="round"/>
<path d="M135.853 30.9685C159.162 42.9225 171.233 69.0483 160.522 89.933C149.812 110.818 121.552 116.261 98.2422 104.307C97.1918 103.768 96.167 103.204 95.1677 102.615C92.8063 101.223 90.066 100.484 87.3051 100.792L74.33 102.239C73.4599 102.336 72.5786 102.174 71.7981 101.773C71.0177 101.371 70.3732 100.749 69.9462 99.9847C69.5192 99.2205 69.3283 98.3488 69.3979 97.4799C69.4675 96.6112 69.7943 95.7837 70.3363 95.1022L72.283 92.6588C75.3967 88.7507 75.4814 83.3735 73.474 78.8979C68.6221 68.0817 68.1162 55.982 73.5726 45.3422C84.2831 24.4574 112.543 19.0145 135.853 30.9685Z" fill="#A0A0A0" stroke="#A0A0A0"/>
<path d="M131.88 79.1646V81.2538H98.9746V79.1646L102.631 74.9861V62.4506C102.631 55.974 106.342 50.2704 111.771 48.4318V47.8259C111.771 46.7177 112.156 45.6549 112.842 44.8713C113.528 44.0877 114.458 43.6475 115.427 43.6475C116.397 43.6475 117.327 44.0877 118.013 44.8713C118.698 45.6549 119.084 46.7177 119.084 47.8259V48.4318C124.513 50.2704 128.224 55.974 128.224 62.4506V74.9861L131.88 79.1646ZM119.084 83.3431C119.084 84.4513 118.698 85.5141 118.013 86.2977C117.327 87.0813 116.397 87.5215 115.427 87.5215C114.458 87.5215 113.528 87.0813 112.842 86.2977C112.156 85.5141 111.771 84.4513 111.771 83.3431" fill="#FFEB66"/>
</g>
<circle cx="195.5" cy="32.5" r="15.5" fill="#D9D9D9"/>
<path d="M199.51 28.4395C200.096 27.8537 201.046 27.8537 201.632 28.4395C202.217 29.0252 202.217 29.9749 201.632 30.5605L194.561 37.6318C193.975 38.2174 193.025 38.2173 192.439 37.6318C192.346 37.5389 192.27 37.4355 192.206 37.3271L188.439 33.5605C187.854 32.9748 187.854 32.0252 188.439 31.4395C189.025 30.8537 189.975 30.8537 190.561 31.4395L193.535 34.4141L199.51 28.4395Z" fill="#45B19D"/>
<rect x="227" y="17" width="51" height="27" rx="2" fill="#858080"/>
<rect x="227" y="34.4307" width="174" height="100" fill="#45B19D"/>
<rect x="281" y="17" width="51" height="27" rx="2" fill="#45B19D"/>
<path d="M284.929 28.4339V28.8134H279.357V28.4339L279.976 27.6748V25.3974C279.976 24.2208 280.605 23.1846 281.524 22.8506V22.7406C281.524 22.5392 281.589 22.3461 281.705 22.2038C281.821 22.0614 281.979 21.9814 282.143 21.9814C282.307 21.9814 282.465 22.0614 282.581 22.2038C282.697 22.3461 282.762 22.5392 282.762 22.7406V22.8506C283.681 23.1846 284.31 24.2208 284.31 25.3974V27.6748L284.929 28.4339ZM282.762 29.193C282.762 29.3943 282.697 29.5874 282.581 29.7298C282.465 29.8721 282.307 29.9521 282.143 29.9521C281.979 29.9521 281.821 29.8721 281.705 29.7298C281.589 29.5874 281.524 29.3943 281.524 29.193" fill="#FFEB66"/>
<path d="M301.024 27.708C301.024 28.22 300.9 28.656 300.652 29.016C300.404 29.368 300.048 29.64 299.584 29.832C299.128 30.024 298.588 30.12 297.964 30.12C297.644 30.12 297.336 30.104 297.04 30.072C296.752 30.04 296.488 29.996 296.248 29.94C296.008 29.876 295.796 29.8 295.612 29.712V28.68C295.9 28.808 296.256 28.924 296.68 29.028C297.112 29.132 297.556 29.184 298.012 29.184C298.436 29.184 298.792 29.128 299.08 29.016C299.368 28.904 299.584 28.744 299.728 28.536C299.872 28.328 299.944 28.084 299.944 27.804C299.944 27.524 299.884 27.288 299.764 27.096C299.644 26.904 299.436 26.728 299.14 26.568C298.852 26.4 298.448 26.224 297.928 26.04C297.56 25.904 297.236 25.76 296.956 25.608C296.684 25.448 296.456 25.268 296.272 25.068C296.088 24.868 295.948 24.64 295.852 24.384C295.764 24.128 295.72 23.832 295.72 23.496C295.72 23.04 295.836 22.652 296.068 22.332C296.3 22.004 296.62 21.752 297.028 21.576C297.444 21.4 297.92 21.312 298.456 21.312C298.928 21.312 299.36 21.356 299.752 21.444C300.144 21.532 300.5 21.648 300.82 21.792L300.484 22.716C300.188 22.588 299.864 22.48 299.512 22.392C299.168 22.304 298.808 22.26 298.432 22.26C298.072 22.26 297.772 22.312 297.532 22.416C297.292 22.52 297.112 22.668 296.992 22.86C296.872 23.044 296.812 23.26 296.812 23.508C296.812 23.796 296.872 24.036 296.992 24.228C297.112 24.42 297.308 24.592 297.58 24.744C297.852 24.896 298.22 25.06 298.684 25.236C299.188 25.42 299.612 25.62 299.956 25.836C300.308 26.044 300.572 26.296 300.748 26.592C300.932 26.888 301.024 27.26 301.024 27.708ZM305.186 30.12C304.618 30.12 304.11 30.004 303.662 29.772C303.222 29.54 302.874 29.18 302.618 28.692C302.37 28.204 302.246 27.58 302.246 26.82C302.246 26.028 302.378 25.384 302.642 24.888C302.906 24.392 303.262 24.028 303.71 23.796C304.166 23.564 304.682 23.448 305.258 23.448C305.586 23.448 305.902 23.484 306.206 23.556C306.51 23.62 306.758 23.7 306.95 23.796L306.626 24.672C306.434 24.6 306.21 24.532 305.954 24.468C305.698 24.404 305.458 24.372 305.234 24.372C304.802 24.372 304.446 24.464 304.166 24.648C303.886 24.832 303.678 25.104 303.542 25.464C303.406 25.824 303.338 26.272 303.338 26.808C303.338 27.32 303.406 27.756 303.542 28.116C303.678 28.476 303.882 28.748 304.154 28.932C304.426 29.116 304.766 29.208 305.174 29.208C305.526 29.208 305.834 29.172 306.098 29.1C306.37 29.028 306.618 28.94 306.842 28.836V29.772C306.626 29.884 306.386 29.968 306.122 30.024C305.866 30.088 305.554 30.12 305.186 30.12ZM313.964 26.772C313.964 27.308 313.892 27.784 313.748 28.2C313.612 28.608 313.412 28.956 313.148 29.244C312.892 29.532 312.576 29.752 312.2 29.904C311.832 30.048 311.42 30.12 310.964 30.12C310.54 30.12 310.148 30.048 309.788 29.904C309.428 29.752 309.116 29.532 308.852 29.244C308.588 28.956 308.38 28.608 308.228 28.2C308.084 27.784 308.012 27.308 308.012 26.772C308.012 26.06 308.132 25.46 308.372 24.972C308.612 24.476 308.956 24.1 309.404 23.844C309.852 23.58 310.384 23.448 311 23.448C311.584 23.448 312.096 23.58 312.536 23.844C312.984 24.1 313.332 24.476 313.58 24.972C313.836 25.46 313.964 26.06 313.964 26.772ZM309.104 26.772C309.104 27.276 309.168 27.716 309.296 28.092C309.432 28.46 309.64 28.744 309.92 28.944C310.2 29.144 310.556 29.244 310.988 29.244C311.42 29.244 311.776 29.144 312.056 28.944C312.336 28.744 312.54 28.46 312.668 28.092C312.804 27.716 312.872 27.276 312.872 26.772C312.872 26.26 312.804 25.824 312.668 25.464C312.532 25.104 312.324 24.828 312.044 24.636C311.772 24.436 311.416 24.336 310.976 24.336C310.32 24.336 309.844 24.552 309.548 24.984C309.252 25.416 309.104 26.012 309.104 26.772ZM318.637 23.448C318.757 23.448 318.885 23.456 319.021 23.472C319.165 23.48 319.289 23.496 319.393 23.52L319.261 24.492C319.157 24.468 319.041 24.448 318.913 24.432C318.793 24.416 318.677 24.408 318.565 24.408C318.317 24.408 318.081 24.46 317.857 24.564C317.633 24.668 317.433 24.816 317.257 25.008C317.081 25.192 316.941 25.416 316.837 25.68C316.741 25.944 316.693 26.24 316.693 26.568V30H315.637V23.568H316.501L316.621 24.744H316.669C316.805 24.504 316.969 24.288 317.161 24.096C317.353 23.896 317.573 23.74 317.821 23.628C318.069 23.508 318.341 23.448 318.637 23.448ZM322.844 23.448C323.396 23.448 323.868 23.568 324.26 23.808C324.66 24.048 324.964 24.388 325.172 24.828C325.388 25.26 325.496 25.768 325.496 26.352V26.988H321.092C321.108 27.716 321.292 28.272 321.644 28.656C322.004 29.032 322.504 29.22 323.144 29.22C323.552 29.22 323.912 29.184 324.224 29.112C324.544 29.032 324.872 28.92 325.208 28.776V29.7C324.88 29.844 324.556 29.948 324.236 30.012C323.916 30.084 323.536 30.12 323.096 30.12C322.488 30.12 321.948 29.996 321.476 29.748C321.012 29.5 320.648 29.132 320.384 28.644C320.128 28.148 320 27.544 320 26.832C320 26.128 320.116 25.524 320.348 25.02C320.588 24.516 320.92 24.128 321.344 23.856C321.776 23.584 322.276 23.448 322.844 23.448ZM322.832 24.312C322.328 24.312 321.928 24.476 321.632 24.804C321.344 25.124 321.172 25.572 321.116 26.148H324.392C324.392 25.78 324.336 25.46 324.224 25.188C324.112 24.916 323.94 24.704 323.708 24.552C323.484 24.392 323.192 24.312 322.832 24.312Z" fill="black"/>
<path d="M232.528 21.432C233.24 21.432 233.824 21.524 234.28 21.708C234.744 21.884 235.088 22.152 235.312 22.512C235.536 22.872 235.648 23.324 235.648 23.868C235.648 24.324 235.564 24.704 235.396 25.008C235.228 25.312 235.012 25.556 234.748 25.74C234.492 25.916 234.22 26.056 233.932 26.16L236.284 30H235.024L232.948 26.46H231.244V30H230.164V21.432H232.528ZM232.468 22.368H231.244V25.548H232.528C232.992 25.548 233.372 25.488 233.668 25.368C233.964 25.24 234.18 25.056 234.316 24.816C234.46 24.576 234.532 24.276 234.532 23.916C234.532 23.54 234.456 23.24 234.304 23.016C234.16 22.792 233.936 22.628 233.632 22.524C233.328 22.42 232.94 22.368 232.468 22.368ZM239.969 23.448C240.521 23.448 240.993 23.568 241.385 23.808C241.785 24.048 242.089 24.388 242.297 24.828C242.513 25.26 242.621 25.768 242.621 26.352V26.988H238.217C238.233 27.716 238.417 28.272 238.769 28.656C239.129 29.032 239.629 29.22 240.269 29.22C240.677 29.22 241.037 29.184 241.349 29.112C241.669 29.032 241.997 28.92 242.333 28.776V29.7C242.005 29.844 241.681 29.948 241.361 30.012C241.041 30.084 240.661 30.12 240.221 30.12C239.613 30.12 239.073 29.996 238.601 29.748C238.137 29.5 237.773 29.132 237.509 28.644C237.253 28.148 237.125 27.544 237.125 26.832C237.125 26.128 237.241 25.524 237.473 25.02C237.713 24.516 238.045 24.128 238.469 23.856C238.901 23.584 239.401 23.448 239.969 23.448ZM239.957 24.312C239.453 24.312 239.053 24.476 238.757 24.804C238.469 25.124 238.297 25.572 238.241 26.148H241.517C241.517 25.78 241.461 25.46 241.349 25.188C241.237 24.916 241.065 24.704 240.833 24.552C240.609 24.392 240.317 24.312 239.957 24.312ZM248.446 28.224C248.446 28.64 248.342 28.988 248.134 29.268C247.926 29.548 247.63 29.76 247.246 29.904C246.862 30.048 246.406 30.12 245.878 30.12C245.43 30.12 245.042 30.084 244.714 30.012C244.394 29.94 244.11 29.84 243.862 29.712V28.752C244.118 28.88 244.426 29 244.786 29.112C245.154 29.216 245.526 29.268 245.902 29.268C246.438 29.268 246.826 29.184 247.066 29.016C247.306 28.84 247.426 28.608 247.426 28.32C247.426 28.16 247.382 28.016 247.294 27.888C247.206 27.76 247.046 27.632 246.814 27.504C246.59 27.376 246.266 27.232 245.842 27.072C245.426 26.912 245.07 26.752 244.774 26.592C244.478 26.432 244.25 26.24 244.09 26.016C243.93 25.792 243.85 25.504 243.85 25.152C243.85 24.608 244.07 24.188 244.51 23.892C244.958 23.596 245.542 23.448 246.262 23.448C246.654 23.448 247.018 23.488 247.354 23.568C247.698 23.64 248.018 23.744 248.314 23.88L247.954 24.72C247.778 24.64 247.59 24.572 247.39 24.516C247.198 24.452 247.002 24.404 246.802 24.372C246.602 24.332 246.398 24.312 246.19 24.312C245.758 24.312 245.426 24.384 245.194 24.528C244.97 24.664 244.858 24.852 244.858 25.092C244.858 25.268 244.91 25.42 245.014 25.548C245.118 25.668 245.29 25.788 245.53 25.908C245.778 26.02 246.106 26.156 246.514 26.316C246.922 26.468 247.27 26.624 247.558 26.784C247.846 26.944 248.066 27.14 248.218 27.372C248.37 27.596 248.446 27.88 248.446 28.224ZM255.376 23.568V30H254.512L254.356 29.148H254.308C254.172 29.372 253.996 29.556 253.78 29.7C253.564 29.844 253.328 29.948 253.072 30.012C252.816 30.084 252.548 30.12 252.268 30.12C251.756 30.12 251.324 30.04 250.972 29.88C250.628 29.712 250.368 29.456 250.192 29.112C250.016 28.768 249.928 28.324 249.928 27.78V23.568H250.996V27.708C250.996 28.22 251.112 28.604 251.344 28.86C251.576 29.116 251.936 29.244 252.424 29.244C252.904 29.244 253.28 29.156 253.552 28.98C253.832 28.796 254.028 28.532 254.14 28.188C254.26 27.836 254.32 27.412 254.32 26.916V23.568H255.376ZM264.474 23.448C265.202 23.448 265.746 23.636 266.106 24.012C266.466 24.38 266.646 24.98 266.646 25.812V30H265.602V25.86C265.602 25.356 265.494 24.976 265.278 24.72C265.07 24.464 264.742 24.336 264.294 24.336C263.67 24.336 263.222 24.516 262.95 24.876C262.686 25.236 262.554 25.76 262.554 26.448V30H261.51V25.86C261.51 25.524 261.462 25.244 261.366 25.02C261.27 24.788 261.126 24.616 260.934 24.504C260.742 24.392 260.494 24.336 260.19 24.336C259.758 24.336 259.418 24.428 259.17 24.612C258.922 24.788 258.742 25.048 258.63 25.392C258.526 25.736 258.474 26.16 258.474 26.664V30H257.418V23.568H258.27L258.426 24.444H258.486C258.622 24.22 258.786 24.036 258.978 23.892C259.178 23.74 259.398 23.628 259.638 23.556C259.878 23.484 260.126 23.448 260.382 23.448C260.878 23.448 261.29 23.536 261.618 23.712C261.954 23.888 262.198 24.16 262.35 24.528H262.41C262.626 24.16 262.918 23.888 263.286 23.712C263.662 23.536 264.058 23.448 264.474 23.448ZM271.117 23.448C271.669 23.448 272.141 23.568 272.533 23.808C272.933 24.048 273.237 24.388 273.445 24.828C273.661 25.26 273.769 25.768 273.769 26.352V26.988H269.365C269.381 27.716 269.565 28.272 269.917 28.656C270.277 29.032 270.777 29.22 271.417 29.22C271.825 29.22 272.185 29.184 272.497 29.112C272.817 29.032 273.145 28.92 273.481 28.776V29.7C273.153 29.844 272.829 29.948 272.509 30.012C272.189 30.084 271.809 30.12 271.369 30.12C270.761 30.12 270.221 29.996 269.749 29.748C269.285 29.5 268.921 29.132 268.657 28.644C268.401 28.148 268.273 27.544 268.273 26.832C268.273 26.128 268.389 25.524 268.621 25.02C268.861 24.516 269.193 24.128 269.617 23.856C270.049 23.584 270.549 23.448 271.117 23.448ZM271.105 24.312C270.601 24.312 270.201 24.476 269.905 24.804C269.617 25.124 269.445 25.572 269.389 26.148H272.665C272.665 25.78 272.609 25.46 272.497 25.188C272.385 24.916 272.213 24.704 271.981 24.552C271.757 24.392 271.465 24.312 271.105 24.312Z" fill="black"/>
<g clip-path="url(#clip1_2800_2937)">
<rect width="160" height="28" transform="translate(234 45)" fill="white"/>
<line x1="233" y1="58.75" x2="394" y2="58.75" stroke="black" stroke-width="0.5"/>
<line x1="256.25" y1="45" x2="256.25" y2="73" stroke="black" stroke-width="0.5"/>
<line x1="291.25" y1="45" x2="291.25" y2="73" stroke="black" stroke-width="0.5"/>
<line x1="326.25" y1="45" x2="326.25" y2="73" stroke="black" stroke-width="0.5"/>
<line x1="362.25" y1="45" x2="362.25" y2="73" stroke="black" stroke-width="0.5"/>
<path d="M244.13 68H243.614V65.006C243.614 64.89 243.614 64.792 243.614 64.712C243.618 64.632 243.622 64.558 243.626 64.49C243.63 64.418 243.634 64.344 243.638 64.268C243.574 64.332 243.516 64.386 243.464 64.43C243.412 64.474 243.346 64.53 243.266 64.598L242.81 64.97L242.534 64.616L243.692 63.716H244.13V68Z" fill="black"/>
<path d="M268.014 65.816C268.014 66.296 267.924 66.698 267.744 67.022C267.568 67.346 267.314 67.59 266.982 67.754C266.65 67.918 266.248 68 265.776 68H264.582V63.716H265.902C266.334 63.716 266.708 63.796 267.024 63.956C267.34 64.116 267.584 64.352 267.756 64.664C267.928 64.972 268.014 65.356 268.014 65.816ZM267.444 65.834C267.444 65.454 267.38 65.142 267.252 64.898C267.128 64.654 266.944 64.474 266.7 64.358C266.46 64.238 266.168 64.178 265.824 64.178H265.122V67.538H265.704C266.284 67.538 266.718 67.396 267.006 67.112C267.298 66.824 267.444 66.398 267.444 65.834ZM270.111 64.73C270.503 64.73 270.793 64.816 270.981 64.988C271.169 65.16 271.263 65.434 271.263 65.81V68H270.879L270.777 67.544H270.753C270.661 67.66 270.565 67.758 270.465 67.838C270.369 67.914 270.257 67.97 270.129 68.006C270.005 68.042 269.853 68.06 269.673 68.06C269.481 68.06 269.307 68.026 269.151 67.958C268.999 67.89 268.879 67.786 268.791 67.646C268.703 67.502 268.659 67.322 268.659 67.106C268.659 66.786 268.785 66.54 269.037 66.368C269.289 66.192 269.677 66.096 270.201 66.08L270.747 66.062V65.87C270.747 65.602 270.689 65.416 270.573 65.312C270.457 65.208 270.293 65.156 270.081 65.156C269.913 65.156 269.753 65.182 269.601 65.234C269.449 65.282 269.307 65.338 269.175 65.402L269.013 65.006C269.153 64.93 269.319 64.866 269.511 64.814C269.703 64.758 269.903 64.73 270.111 64.73ZM270.267 66.446C269.867 66.462 269.589 66.526 269.433 66.638C269.281 66.75 269.205 66.908 269.205 67.112C269.205 67.292 269.259 67.424 269.367 67.508C269.479 67.592 269.621 67.634 269.793 67.634C270.065 67.634 270.291 67.56 270.471 67.412C270.651 67.26 270.741 67.028 270.741 66.716V66.428L270.267 66.446ZM273.804 64.724C274.188 64.724 274.478 64.818 274.674 65.006C274.87 65.19 274.968 65.49 274.968 65.906V68H274.446V65.942C274.446 65.682 274.388 65.488 274.272 65.36C274.156 65.232 273.974 65.168 273.726 65.168C273.37 65.168 273.124 65.268 272.988 65.468C272.852 65.668 272.784 65.956 272.784 66.332V68H272.256V64.784H272.682L272.76 65.222H272.79C272.862 65.11 272.95 65.018 273.054 64.946C273.162 64.87 273.28 64.814 273.408 64.778C273.536 64.742 273.668 64.724 273.804 64.724ZM277.513 64.724C277.897 64.724 278.187 64.818 278.383 65.006C278.579 65.19 278.677 65.49 278.677 65.906V68H278.155V65.942C278.155 65.682 278.097 65.488 277.981 65.36C277.865 65.232 277.683 65.168 277.435 65.168C277.079 65.168 276.833 65.268 276.697 65.468C276.561 65.668 276.493 65.956 276.493 66.332V68H275.965V64.784H276.391L276.469 65.222H276.499C276.571 65.11 276.659 65.018 276.763 64.946C276.871 64.87 276.989 64.814 277.117 64.778C277.245 64.742 277.377 64.724 277.513 64.724ZM279.17 64.784H279.734L280.43 66.614C280.47 66.722 280.506 66.826 280.538 66.926C280.574 67.026 280.606 67.124 280.634 67.22C280.662 67.312 280.684 67.402 280.7 67.49H280.724C280.748 67.39 280.786 67.26 280.838 67.1C280.89 66.936 280.944 66.772 281 66.608L281.654 64.784H282.224L280.838 68.444C280.762 68.644 280.672 68.818 280.568 68.966C280.468 69.118 280.344 69.234 280.196 69.314C280.052 69.398 279.876 69.44 279.668 69.44C279.572 69.44 279.488 69.434 279.416 69.422C279.344 69.414 279.282 69.404 279.23 69.392V68.972C279.274 68.98 279.326 68.988 279.386 68.996C279.45 69.004 279.516 69.008 279.584 69.008C279.708 69.008 279.814 68.984 279.902 68.936C279.994 68.892 280.072 68.826 280.136 68.738C280.2 68.654 280.254 68.554 280.298 68.438L280.466 68.012L279.17 64.784Z" fill="black"/>
<path d="M267.978 55H267.348L265.056 51.442H265.032C265.036 51.514 265.04 51.594 265.044 51.682C265.052 51.77 265.058 51.866 265.062 51.97C265.066 52.07 265.07 52.174 265.074 52.282C265.078 52.39 265.08 52.498 265.08 52.606V55H264.582V50.716H265.206L267.492 54.262H267.516C267.512 54.214 267.508 54.148 267.504 54.064C267.5 53.976 267.496 53.88 267.492 53.776C267.488 53.668 267.484 53.558 267.48 53.446C267.476 53.334 267.474 53.23 267.474 53.134V50.716H267.978V55ZM270.287 51.73C270.679 51.73 270.969 51.816 271.157 51.988C271.345 52.16 271.439 52.434 271.439 52.81V55H271.055L270.953 54.544H270.929C270.837 54.66 270.741 54.758 270.641 54.838C270.545 54.914 270.433 54.97 270.305 55.006C270.181 55.042 270.029 55.06 269.849 55.06C269.657 55.06 269.483 55.026 269.327 54.958C269.175 54.89 269.055 54.786 268.967 54.646C268.879 54.502 268.835 54.322 268.835 54.106C268.835 53.786 268.961 53.54 269.213 53.368C269.465 53.192 269.853 53.096 270.377 53.08L270.923 53.062V52.87C270.923 52.602 270.865 52.416 270.749 52.312C270.633 52.208 270.469 52.156 270.257 52.156C270.089 52.156 269.929 52.182 269.777 52.234C269.625 52.282 269.483 52.338 269.351 52.402L269.189 52.006C269.329 51.93 269.495 51.866 269.687 51.814C269.879 51.758 270.079 51.73 270.287 51.73ZM270.443 53.446C270.043 53.462 269.765 53.526 269.609 53.638C269.457 53.75 269.381 53.908 269.381 54.112C269.381 54.292 269.435 54.424 269.543 54.508C269.655 54.592 269.797 54.634 269.969 54.634C270.241 54.634 270.467 54.56 270.647 54.412C270.827 54.26 270.917 54.028 270.917 53.716V53.428L270.443 53.446ZM275.96 51.724C276.324 51.724 276.596 51.818 276.776 52.006C276.956 52.19 277.046 52.49 277.046 52.906V55H276.524V52.93C276.524 52.678 276.47 52.488 276.362 52.36C276.258 52.232 276.094 52.168 275.87 52.168C275.558 52.168 275.334 52.258 275.198 52.438C275.066 52.618 275 52.88 275 53.224V55H274.478V52.93C274.478 52.762 274.454 52.622 274.406 52.51C274.358 52.394 274.286 52.308 274.19 52.252C274.094 52.196 273.97 52.168 273.818 52.168C273.602 52.168 273.432 52.214 273.308 52.306C273.184 52.394 273.094 52.524 273.038 52.696C272.986 52.868 272.96 53.08 272.96 53.332V55H272.432V51.784H272.858L272.936 52.222H272.966C273.034 52.11 273.116 52.018 273.212 51.946C273.312 51.87 273.422 51.814 273.542 51.778C273.662 51.742 273.786 51.724 273.914 51.724C274.162 51.724 274.368 51.768 274.532 51.856C274.7 51.944 274.822 52.08 274.898 52.264H274.928C275.036 52.08 275.182 51.944 275.366 51.856C275.554 51.768 275.752 51.724 275.96 51.724ZM279.281 51.724C279.557 51.724 279.793 51.784 279.989 51.904C280.189 52.024 280.341 52.194 280.445 52.414C280.553 52.63 280.607 52.884 280.607 53.176V53.494H278.405C278.413 53.858 278.505 54.136 278.681 54.328C278.861 54.516 279.111 54.61 279.431 54.61C279.635 54.61 279.815 54.592 279.971 54.556C280.131 54.516 280.295 54.46 280.463 54.388V54.85C280.299 54.922 280.137 54.974 279.977 55.006C279.817 55.042 279.627 55.06 279.407 55.06C279.103 55.06 278.833 54.998 278.597 54.874C278.365 54.75 278.183 54.566 278.051 54.322C277.923 54.074 277.859 53.772 277.859 53.416C277.859 53.064 277.917 52.762 278.033 52.51C278.153 52.258 278.319 52.064 278.531 51.928C278.747 51.792 278.997 51.724 279.281 51.724ZM279.275 52.156C279.023 52.156 278.823 52.238 278.675 52.402C278.531 52.562 278.445 52.786 278.417 53.074H280.055C280.055 52.89 280.027 52.73 279.971 52.594C279.915 52.458 279.829 52.352 279.713 52.276C279.601 52.196 279.455 52.156 279.275 52.156Z" fill="black"/>
<path d="M303.012 53.854C303.012 54.11 302.95 54.328 302.826 54.508C302.702 54.684 302.524 54.82 302.292 54.916C302.064 55.012 301.794 55.06 301.482 55.06C301.322 55.06 301.168 55.052 301.02 55.036C300.876 55.02 300.744 54.998 300.624 54.97C300.504 54.938 300.398 54.9 300.306 54.856V54.34C300.45 54.404 300.628 54.462 300.84 54.514C301.056 54.566 301.278 54.592 301.506 54.592C301.718 54.592 301.896 54.564 302.04 54.508C302.184 54.452 302.292 54.372 302.364 54.268C302.436 54.164 302.472 54.042 302.472 53.902C302.472 53.762 302.442 53.644 302.382 53.548C302.322 53.452 302.218 53.364 302.07 53.284C301.926 53.2 301.724 53.112 301.464 53.02C301.28 52.952 301.118 52.88 300.978 52.804C300.842 52.724 300.728 52.634 300.636 52.534C300.544 52.434 300.474 52.32 300.426 52.192C300.382 52.064 300.36 51.916 300.36 51.748C300.36 51.52 300.418 51.326 300.534 51.166C300.65 51.002 300.81 50.876 301.014 50.788C301.222 50.7 301.46 50.656 301.728 50.656C301.964 50.656 302.18 50.678 302.376 50.722C302.572 50.766 302.75 50.824 302.91 50.896L302.742 51.358C302.594 51.294 302.432 51.24 302.256 51.196C302.084 51.152 301.904 51.13 301.716 51.13C301.536 51.13 301.386 51.156 301.266 51.208C301.146 51.26 301.056 51.334 300.996 51.43C300.936 51.522 300.906 51.63 300.906 51.754C300.906 51.898 300.936 52.018 300.996 52.114C301.056 52.21 301.154 52.296 301.29 52.372C301.426 52.448 301.61 52.53 301.842 52.618C302.094 52.71 302.306 52.81 302.478 52.918C302.654 53.022 302.786 53.148 302.874 53.296C302.966 53.444 303.012 53.63 303.012 53.854ZM305.093 55.06C304.809 55.06 304.555 55.002 304.331 54.886C304.111 54.77 303.937 54.59 303.809 54.346C303.685 54.102 303.623 53.79 303.623 53.41C303.623 53.014 303.689 52.692 303.821 52.444C303.953 52.196 304.131 52.014 304.355 51.898C304.583 51.782 304.841 51.724 305.129 51.724C305.293 51.724 305.451 51.742 305.603 51.778C305.755 51.81 305.879 51.85 305.975 51.898L305.813 52.336C305.717 52.3 305.605 52.266 305.477 52.234C305.349 52.202 305.229 52.186 305.117 52.186C304.901 52.186 304.723 52.232 304.583 52.324C304.443 52.416 304.339 52.552 304.271 52.732C304.203 52.912 304.169 53.136 304.169 53.404C304.169 53.66 304.203 53.878 304.271 54.058C304.339 54.238 304.441 54.374 304.577 54.466C304.713 54.558 304.883 54.604 305.087 54.604C305.263 54.604 305.417 54.586 305.549 54.55C305.685 54.514 305.809 54.47 305.921 54.418V54.886C305.813 54.942 305.693 54.984 305.561 55.012C305.433 55.044 305.277 55.06 305.093 55.06ZM309.482 53.386C309.482 53.654 309.446 53.892 309.374 54.1C309.306 54.304 309.206 54.478 309.074 54.622C308.946 54.766 308.788 54.876 308.6 54.952C308.416 55.024 308.21 55.06 307.982 55.06C307.77 55.06 307.574 55.024 307.394 54.952C307.214 54.876 307.058 54.766 306.926 54.622C306.794 54.478 306.69 54.304 306.614 54.1C306.542 53.892 306.506 53.654 306.506 53.386C306.506 53.03 306.566 52.73 306.686 52.486C306.806 52.238 306.978 52.05 307.202 51.922C307.426 51.79 307.692 51.724 308 51.724C308.292 51.724 308.548 51.79 308.768 51.922C308.992 52.05 309.166 52.238 309.29 52.486C309.418 52.73 309.482 53.03 309.482 53.386ZM307.052 53.386C307.052 53.638 307.084 53.858 307.148 54.046C307.216 54.23 307.32 54.372 307.46 54.472C307.6 54.572 307.778 54.622 307.994 54.622C308.21 54.622 308.388 54.572 308.528 54.472C308.668 54.372 308.77 54.23 308.834 54.046C308.902 53.858 308.936 53.638 308.936 53.386C308.936 53.13 308.902 52.912 308.834 52.732C308.766 52.552 308.662 52.414 308.522 52.318C308.386 52.218 308.208 52.168 307.988 52.168C307.66 52.168 307.422 52.276 307.274 52.492C307.126 52.708 307.052 53.006 307.052 53.386ZM311.819 51.724C311.879 51.724 311.943 51.728 312.011 51.736C312.083 51.74 312.145 51.748 312.197 51.76L312.131 52.246C312.079 52.234 312.021 52.224 311.957 52.216C311.897 52.208 311.839 52.204 311.783 52.204C311.659 52.204 311.541 52.23 311.429 52.282C311.317 52.334 311.217 52.408 311.129 52.504C311.041 52.596 310.971 52.708 310.919 52.84C310.871 52.972 310.847 53.12 310.847 53.284V55H310.319V51.784H310.751L310.811 52.372H310.835C310.903 52.252 310.985 52.144 311.081 52.048C311.177 51.948 311.287 51.87 311.411 51.814C311.535 51.754 311.671 51.724 311.819 51.724ZM313.922 51.724C314.198 51.724 314.434 51.784 314.63 51.904C314.83 52.024 314.982 52.194 315.086 52.414C315.194 52.63 315.248 52.884 315.248 53.176V53.494H313.046C313.054 53.858 313.146 54.136 313.322 54.328C313.502 54.516 313.752 54.61 314.072 54.61C314.276 54.61 314.456 54.592 314.612 54.556C314.772 54.516 314.936 54.46 315.104 54.388V54.85C314.94 54.922 314.778 54.974 314.618 55.006C314.458 55.042 314.268 55.06 314.048 55.06C313.744 55.06 313.474 54.998 313.238 54.874C313.006 54.75 312.824 54.566 312.692 54.322C312.564 54.074 312.5 53.772 312.5 53.416C312.5 53.064 312.558 52.762 312.674 52.51C312.794 52.258 312.96 52.064 313.172 51.928C313.388 51.792 313.638 51.724 313.922 51.724ZM313.916 52.156C313.664 52.156 313.464 52.238 313.316 52.402C313.172 52.562 313.086 52.786 313.058 53.074H314.696C314.696 52.89 314.668 52.73 314.612 52.594C314.556 52.458 314.47 52.352 314.354 52.276C314.242 52.196 314.096 52.156 313.916 52.156Z" fill="black"/>
<path d="M338.472 55L337.062 51.244H337.038C337.046 51.324 337.052 51.426 337.056 51.55C337.064 51.674 337.07 51.81 337.074 51.958C337.078 52.102 337.08 52.25 337.08 52.402V55H336.582V50.716H337.38L338.7 54.226H338.724L340.068 50.716H340.86V55H340.326V52.366C340.326 52.226 340.328 52.088 340.332 51.952C340.336 51.812 340.342 51.682 340.35 51.562C340.358 51.438 340.364 51.334 340.368 51.25H340.344L338.916 55H338.472ZM343.195 51.724C343.471 51.724 343.707 51.784 343.903 51.904C344.103 52.024 344.255 52.194 344.359 52.414C344.467 52.63 344.521 52.884 344.521 53.176V53.494H342.319C342.327 53.858 342.419 54.136 342.595 54.328C342.775 54.516 343.025 54.61 343.345 54.61C343.549 54.61 343.729 54.592 343.885 54.556C344.045 54.516 344.209 54.46 344.377 54.388V54.85C344.213 54.922 344.051 54.974 343.891 55.006C343.731 55.042 343.541 55.06 343.321 55.06C343.017 55.06 342.747 54.998 342.511 54.874C342.279 54.75 342.097 54.566 341.965 54.322C341.837 54.074 341.773 53.772 341.773 53.416C341.773 53.064 341.831 52.762 341.947 52.51C342.067 52.258 342.233 52.064 342.445 51.928C342.661 51.792 342.911 51.724 343.195 51.724ZM343.189 52.156C342.937 52.156 342.737 52.238 342.589 52.402C342.445 52.562 342.359 52.786 342.331 53.074H343.969C343.969 52.89 343.941 52.73 343.885 52.594C343.829 52.458 343.743 52.352 343.627 52.276C343.515 52.196 343.369 52.156 343.189 52.156ZM348.868 51.724C349.232 51.724 349.504 51.818 349.684 52.006C349.864 52.19 349.954 52.49 349.954 52.906V55H349.432V52.93C349.432 52.678 349.378 52.488 349.27 52.36C349.166 52.232 349.002 52.168 348.778 52.168C348.466 52.168 348.242 52.258 348.106 52.438C347.974 52.618 347.908 52.88 347.908 53.224V55H347.386V52.93C347.386 52.762 347.362 52.622 347.314 52.51C347.266 52.394 347.194 52.308 347.098 52.252C347.002 52.196 346.878 52.168 346.726 52.168C346.51 52.168 346.34 52.214 346.216 52.306C346.092 52.394 346.002 52.524 345.946 52.696C345.894 52.868 345.868 53.08 345.868 53.332V55H345.34V51.784H345.766L345.844 52.222H345.874C345.942 52.11 346.024 52.018 346.12 51.946C346.22 51.87 346.33 51.814 346.45 51.778C346.57 51.742 346.694 51.724 346.822 51.724C347.07 51.724 347.276 51.768 347.44 51.856C347.608 51.944 347.73 52.08 347.806 52.264H347.836C347.944 52.08 348.09 51.944 348.274 51.856C348.462 51.768 348.66 51.724 348.868 51.724ZM353.743 53.386C353.743 53.654 353.708 53.892 353.636 54.1C353.568 54.304 353.468 54.478 353.336 54.622C353.208 54.766 353.05 54.876 352.862 54.952C352.678 55.024 352.472 55.06 352.244 55.06C352.032 55.06 351.836 55.024 351.656 54.952C351.476 54.876 351.32 54.766 351.188 54.622C351.056 54.478 350.952 54.304 350.876 54.1C350.804 53.892 350.768 53.654 350.768 53.386C350.768 53.03 350.828 52.73 350.948 52.486C351.068 52.238 351.24 52.05 351.464 51.922C351.688 51.79 351.954 51.724 352.262 51.724C352.554 51.724 352.81 51.79 353.03 51.922C353.254 52.05 353.428 52.238 353.552 52.486C353.68 52.73 353.743 53.03 353.743 53.386ZM351.314 53.386C351.314 53.638 351.346 53.858 351.41 54.046C351.478 54.23 351.582 54.372 351.722 54.472C351.862 54.572 352.04 54.622 352.256 54.622C352.472 54.622 352.65 54.572 352.79 54.472C352.93 54.372 353.032 54.23 353.096 54.046C353.164 53.858 353.198 53.638 353.198 53.386C353.198 53.13 353.164 52.912 353.096 52.732C353.028 52.552 352.924 52.414 352.784 52.318C352.648 52.218 352.47 52.168 352.25 52.168C351.922 52.168 351.684 52.276 351.536 52.492C351.388 52.708 351.314 53.006 351.314 53.386Z" fill="black"/>
<path d="M369.764 50.716C370.12 50.716 370.412 50.762 370.64 50.854C370.872 50.942 371.044 51.076 371.156 51.256C371.268 51.436 371.324 51.662 371.324 51.934C371.324 52.162 371.282 52.352 371.198 52.504C371.114 52.656 371.006 52.778 370.874 52.87C370.746 52.958 370.61 53.028 370.466 53.08L371.642 55H371.012L369.974 53.23H369.122V55H368.582V50.716H369.764ZM369.734 51.184H369.122V52.774H369.764C369.996 52.774 370.186 52.744 370.334 52.684C370.482 52.62 370.59 52.528 370.658 52.408C370.73 52.288 370.766 52.138 370.766 51.958C370.766 51.77 370.728 51.62 370.652 51.508C370.58 51.396 370.468 51.314 370.316 51.262C370.164 51.21 369.97 51.184 369.734 51.184ZM373.484 51.724C373.76 51.724 373.996 51.784 374.192 51.904C374.392 52.024 374.544 52.194 374.648 52.414C374.756 52.63 374.81 52.884 374.81 53.176V53.494H372.608C372.616 53.858 372.708 54.136 372.884 54.328C373.064 54.516 373.314 54.61 373.634 54.61C373.838 54.61 374.018 54.592 374.174 54.556C374.334 54.516 374.498 54.46 374.666 54.388V54.85C374.502 54.922 374.34 54.974 374.18 55.006C374.02 55.042 373.83 55.06 373.61 55.06C373.306 55.06 373.036 54.998 372.8 54.874C372.568 54.75 372.386 54.566 372.254 54.322C372.126 54.074 372.062 53.772 372.062 53.416C372.062 53.064 372.12 52.762 372.236 52.51C372.356 52.258 372.522 52.064 372.734 51.928C372.95 51.792 373.2 51.724 373.484 51.724ZM373.478 52.156C373.226 52.156 373.026 52.238 372.878 52.402C372.734 52.562 372.648 52.786 372.62 53.074H374.258C374.258 52.89 374.23 52.73 374.174 52.594C374.118 52.458 374.032 52.352 373.916 52.276C373.804 52.196 373.658 52.156 373.478 52.156ZM377.723 54.112C377.723 54.32 377.671 54.494 377.567 54.634C377.463 54.774 377.315 54.88 377.123 54.952C376.931 55.024 376.703 55.06 376.439 55.06C376.215 55.06 376.021 55.042 375.857 55.006C375.697 54.97 375.555 54.92 375.431 54.856V54.376C375.559 54.44 375.713 54.5 375.893 54.556C376.077 54.608 376.263 54.634 376.451 54.634C376.719 54.634 376.913 54.592 377.033 54.508C377.153 54.42 377.213 54.304 377.213 54.16C377.213 54.08 377.191 54.008 377.147 53.944C377.103 53.88 377.023 53.816 376.907 53.752C376.795 53.688 376.633 53.616 376.421 53.536C376.213 53.456 376.035 53.376 375.887 53.296C375.739 53.216 375.625 53.12 375.545 53.008C375.465 52.896 375.425 52.752 375.425 52.576C375.425 52.304 375.535 52.094 375.755 51.946C375.979 51.798 376.271 51.724 376.631 51.724C376.827 51.724 377.009 51.744 377.177 51.784C377.349 51.82 377.509 51.872 377.657 51.94L377.477 52.36C377.389 52.32 377.295 52.286 377.195 52.258C377.099 52.226 377.001 52.202 376.901 52.186C376.801 52.166 376.699 52.156 376.595 52.156C376.379 52.156 376.213 52.192 376.097 52.264C375.985 52.332 375.929 52.426 375.929 52.546C375.929 52.634 375.955 52.71 376.007 52.774C376.059 52.834 376.145 52.894 376.265 52.954C376.389 53.01 376.553 53.078 376.757 53.158C376.961 53.234 377.135 53.312 377.279 53.392C377.423 53.472 377.533 53.57 377.609 53.686C377.685 53.798 377.723 53.94 377.723 54.112ZM381.188 51.784V55H380.756L380.678 54.574H380.654C380.586 54.686 380.498 54.778 380.39 54.85C380.282 54.922 380.164 54.974 380.036 55.006C379.908 55.042 379.774 55.06 379.634 55.06C379.378 55.06 379.162 55.02 378.986 54.94C378.814 54.856 378.684 54.728 378.596 54.556C378.508 54.384 378.464 54.162 378.464 53.89V51.784H378.998V53.854C378.998 54.11 379.056 54.302 379.172 54.43C379.288 54.558 379.468 54.622 379.712 54.622C379.952 54.622 380.14 54.578 380.276 54.49C380.416 54.398 380.514 54.266 380.57 54.094C380.63 53.918 380.66 53.706 380.66 53.458V51.784H381.188ZM385.737 51.724C386.101 51.724 386.373 51.818 386.553 52.006C386.733 52.19 386.823 52.49 386.823 52.906V55H386.301V52.93C386.301 52.678 386.247 52.488 386.139 52.36C386.035 52.232 385.871 52.168 385.647 52.168C385.335 52.168 385.111 52.258 384.975 52.438C384.843 52.618 384.777 52.88 384.777 53.224V55H384.255V52.93C384.255 52.762 384.231 52.622 384.183 52.51C384.135 52.394 384.063 52.308 383.967 52.252C383.871 52.196 383.747 52.168 383.595 52.168C383.379 52.168 383.209 52.214 383.085 52.306C382.961 52.394 382.871 52.524 382.815 52.696C382.763 52.868 382.737 53.08 382.737 53.332V55H382.209V51.784H382.635L382.713 52.222H382.743C382.811 52.11 382.893 52.018 382.989 51.946C383.089 51.87 383.199 51.814 383.319 51.778C383.439 51.742 383.563 51.724 383.691 51.724C383.939 51.724 384.145 51.768 384.309 51.856C384.477 51.944 384.599 52.08 384.675 52.264H384.705C384.813 52.08 384.959 51.944 385.143 51.856C385.331 51.768 385.529 51.724 385.737 51.724ZM389.059 51.724C389.335 51.724 389.571 51.784 389.767 51.904C389.967 52.024 390.119 52.194 390.223 52.414C390.331 52.63 390.385 52.884 390.385 53.176V53.494H388.183C388.191 53.858 388.283 54.136 388.459 54.328C388.639 54.516 388.889 54.61 389.209 54.61C389.413 54.61 389.593 54.592 389.749 54.556C389.909 54.516 390.073 54.46 390.241 54.388V54.85C390.077 54.922 389.915 54.974 389.755 55.006C389.595 55.042 389.405 55.06 389.185 55.06C388.881 55.06 388.611 54.998 388.375 54.874C388.143 54.75 387.961 54.566 387.829 54.322C387.701 54.074 387.637 53.772 387.637 53.416C387.637 53.064 387.695 52.762 387.811 52.51C387.931 52.258 388.097 52.064 388.309 51.928C388.525 51.792 388.775 51.724 389.059 51.724ZM389.053 52.156C388.801 52.156 388.601 52.238 388.453 52.402C388.309 52.562 388.223 52.786 388.195 53.074H389.833C389.833 52.89 389.805 52.73 389.749 52.594C389.693 52.458 389.607 52.352 389.491 52.276C389.379 52.196 389.233 52.156 389.053 52.156Z" fill="black"/>
<path d="M340.012 66.854C340.012 67.11 339.95 67.328 339.826 67.508C339.702 67.684 339.524 67.82 339.292 67.916C339.064 68.012 338.794 68.06 338.482 68.06C338.322 68.06 338.168 68.052 338.02 68.036C337.876 68.02 337.744 67.998 337.624 67.97C337.504 67.938 337.398 67.9 337.306 67.856V67.34C337.45 67.404 337.628 67.462 337.84 67.514C338.056 67.566 338.278 67.592 338.506 67.592C338.718 67.592 338.896 67.564 339.04 67.508C339.184 67.452 339.292 67.372 339.364 67.268C339.436 67.164 339.472 67.042 339.472 66.902C339.472 66.762 339.442 66.644 339.382 66.548C339.322 66.452 339.218 66.364 339.07 66.284C338.926 66.2 338.724 66.112 338.464 66.02C338.28 65.952 338.118 65.88 337.978 65.804C337.842 65.724 337.728 65.634 337.636 65.534C337.544 65.434 337.474 65.32 337.426 65.192C337.382 65.064 337.36 64.916 337.36 64.748C337.36 64.52 337.418 64.326 337.534 64.166C337.65 64.002 337.81 63.876 338.014 63.788C338.222 63.7 338.46 63.656 338.728 63.656C338.964 63.656 339.18 63.678 339.376 63.722C339.572 63.766 339.75 63.824 339.91 63.896L339.742 64.358C339.594 64.294 339.432 64.24 339.256 64.196C339.084 64.152 338.904 64.13 338.716 64.13C338.536 64.13 338.386 64.156 338.266 64.208C338.146 64.26 338.056 64.334 337.996 64.43C337.936 64.522 337.906 64.63 337.906 64.754C337.906 64.898 337.936 65.018 337.996 65.114C338.056 65.21 338.154 65.296 338.29 65.372C338.426 65.448 338.61 65.53 338.842 65.618C339.094 65.71 339.306 65.81 339.478 65.918C339.654 66.022 339.786 66.148 339.874 66.296C339.966 66.444 340.012 66.63 340.012 66.854ZM343.599 66.386C343.599 66.654 343.563 66.892 343.491 67.1C343.423 67.304 343.323 67.478 343.191 67.622C343.063 67.766 342.905 67.876 342.717 67.952C342.533 68.024 342.327 68.06 342.099 68.06C341.887 68.06 341.691 68.024 341.511 67.952C341.331 67.876 341.175 67.766 341.043 67.622C340.911 67.478 340.807 67.304 340.731 67.1C340.659 66.892 340.623 66.654 340.623 66.386C340.623 66.03 340.683 65.73 340.803 65.486C340.923 65.238 341.095 65.05 341.319 64.922C341.543 64.79 341.809 64.724 342.117 64.724C342.409 64.724 342.665 64.79 342.885 64.922C343.109 65.05 343.283 65.238 343.407 65.486C343.535 65.73 343.599 66.03 343.599 66.386ZM341.169 66.386C341.169 66.638 341.201 66.858 341.265 67.046C341.333 67.23 341.437 67.372 341.577 67.472C341.717 67.572 341.895 67.622 342.111 67.622C342.327 67.622 342.505 67.572 342.645 67.472C342.785 67.372 342.887 67.23 342.951 67.046C343.019 66.858 343.053 66.638 343.053 66.386C343.053 66.13 343.019 65.912 342.951 65.732C342.883 65.552 342.779 65.414 342.639 65.318C342.503 65.218 342.325 65.168 342.105 65.168C341.777 65.168 341.539 65.276 341.391 65.492C341.243 65.708 341.169 66.006 341.169 66.386ZM348.496 66.854C348.496 67.11 348.434 67.328 348.31 67.508C348.186 67.684 348.008 67.82 347.776 67.916C347.548 68.012 347.278 68.06 346.966 68.06C346.806 68.06 346.652 68.052 346.504 68.036C346.36 68.02 346.228 67.998 346.108 67.97C345.988 67.938 345.882 67.9 345.79 67.856V67.34C345.934 67.404 346.112 67.462 346.324 67.514C346.54 67.566 346.762 67.592 346.99 67.592C347.202 67.592 347.38 67.564 347.524 67.508C347.668 67.452 347.776 67.372 347.848 67.268C347.92 67.164 347.956 67.042 347.956 66.902C347.956 66.762 347.926 66.644 347.866 66.548C347.806 66.452 347.702 66.364 347.554 66.284C347.41 66.2 347.208 66.112 346.948 66.02C346.764 65.952 346.602 65.88 346.462 65.804C346.326 65.724 346.212 65.634 346.12 65.534C346.028 65.434 345.958 65.32 345.91 65.192C345.866 65.064 345.844 64.916 345.844 64.748C345.844 64.52 345.902 64.326 346.018 64.166C346.134 64.002 346.294 63.876 346.498 63.788C346.706 63.7 346.944 63.656 347.212 63.656C347.448 63.656 347.664 63.678 347.86 63.722C348.056 63.766 348.234 63.824 348.394 63.896L348.226 64.358C348.078 64.294 347.916 64.24 347.74 64.196C347.568 64.152 347.388 64.13 347.2 64.13C347.02 64.13 346.87 64.156 346.75 64.208C346.63 64.26 346.54 64.334 346.48 64.43C346.42 64.522 346.39 64.63 346.39 64.754C346.39 64.898 346.42 65.018 346.48 65.114C346.54 65.21 346.638 65.296 346.774 65.372C346.91 65.448 347.094 65.53 347.326 65.618C347.578 65.71 347.79 65.81 347.962 65.918C348.138 66.022 348.27 66.148 348.358 66.296C348.45 66.444 348.496 66.63 348.496 66.854ZM352.083 66.386C352.083 66.654 352.047 66.892 351.975 67.1C351.907 67.304 351.807 67.478 351.675 67.622C351.547 67.766 351.389 67.876 351.201 67.952C351.017 68.024 350.811 68.06 350.583 68.06C350.371 68.06 350.175 68.024 349.995 67.952C349.815 67.876 349.659 67.766 349.527 67.622C349.395 67.478 349.291 67.304 349.215 67.1C349.143 66.892 349.107 66.654 349.107 66.386C349.107 66.03 349.167 65.73 349.287 65.486C349.407 65.238 349.579 65.05 349.803 64.922C350.027 64.79 350.293 64.724 350.601 64.724C350.893 64.724 351.149 64.79 351.369 64.922C351.593 65.05 351.767 65.238 351.891 65.486C352.019 65.73 352.083 66.03 352.083 66.386ZM349.653 66.386C349.653 66.638 349.685 66.858 349.749 67.046C349.817 67.23 349.921 67.372 350.061 67.472C350.201 67.572 350.379 67.622 350.595 67.622C350.811 67.622 350.989 67.572 351.129 67.472C351.269 67.372 351.371 67.23 351.435 67.046C351.503 66.858 351.537 66.638 351.537 66.386C351.537 66.13 351.503 65.912 351.435 65.732C351.367 65.552 351.263 65.414 351.123 65.318C350.987 65.218 350.809 65.168 350.589 65.168C350.261 65.168 350.023 65.276 349.875 65.492C349.727 65.708 349.653 66.006 349.653 66.386Z" fill="black"/>
<path d="M305.122 68H304.582V63.716H306.976V64.19H305.122V65.708H306.862V66.182H305.122V68ZM308.839 64.73C309.231 64.73 309.521 64.816 309.709 64.988C309.897 65.16 309.991 65.434 309.991 65.81V68H309.607L309.505 67.544H309.481C309.389 67.66 309.293 67.758 309.193 67.838C309.097 67.914 308.985 67.97 308.857 68.006C308.733 68.042 308.581 68.06 308.401 68.06C308.209 68.06 308.035 68.026 307.879 67.958C307.727 67.89 307.607 67.786 307.519 67.646C307.431 67.502 307.387 67.322 307.387 67.106C307.387 66.786 307.513 66.54 307.765 66.368C308.017 66.192 308.405 66.096 308.929 66.08L309.475 66.062V65.87C309.475 65.602 309.417 65.416 309.301 65.312C309.185 65.208 309.021 65.156 308.809 65.156C308.641 65.156 308.481 65.182 308.329 65.234C308.177 65.282 308.035 65.338 307.903 65.402L307.741 65.006C307.881 64.93 308.047 64.866 308.239 64.814C308.431 64.758 308.631 64.73 308.839 64.73ZM308.995 66.446C308.595 66.462 308.317 66.526 308.161 66.638C308.009 66.75 307.933 66.908 307.933 67.112C307.933 67.292 307.987 67.424 308.095 67.508C308.207 67.592 308.349 67.634 308.521 67.634C308.793 67.634 309.019 67.56 309.199 67.412C309.379 67.26 309.469 67.028 309.469 66.716V66.428L308.995 66.446ZM311.513 64.784V68H310.985V64.784H311.513ZM311.255 63.578C311.335 63.578 311.405 63.606 311.465 63.662C311.529 63.714 311.561 63.798 311.561 63.914C311.561 64.026 311.529 64.11 311.465 64.166C311.405 64.222 311.335 64.25 311.255 64.25C311.167 64.25 311.093 64.222 311.033 64.166C310.973 64.11 310.943 64.026 310.943 63.914C310.943 63.798 310.973 63.714 311.033 63.662C311.093 63.606 311.167 63.578 311.255 63.578ZM313.059 68H312.531V63.44H313.059V68Z" fill="#D43030"/>
<path d="M377.183 68.306L377.811 68.9342C377.858 68.9808 377.922 69.007 377.988 69.007C378.054 69.007 378.117 68.9808 378.164 68.9342C378.188 68.9109 378.206 68.8832 378.219 68.8527C378.232 68.8222 378.238 68.7895 378.238 68.7565C378.238 68.7234 378.232 68.6907 378.219 68.6602C378.206 68.6297 378.188 68.602 378.164 68.5788L377.539 67.9531C377.53 67.9419 377.526 67.9283 377.526 67.9143C377.526 67.9003 377.53 67.8867 377.539 67.8755C377.66 67.6839 377.733 67.4653 377.749 67.239C377.766 67.0127 377.727 66.7858 377.634 66.5785C377.542 66.3712 377.4 66.1898 377.221 66.0506C377.042 65.9115 376.831 65.8187 376.607 65.7807C376.384 65.7427 376.154 65.7605 375.939 65.8327C375.724 65.9048 375.53 66.0291 375.374 66.1943C375.219 66.3595 375.106 66.5606 375.047 66.7797C374.988 66.9988 374.984 67.229 375.036 67.45C375.092 67.7001 375.218 67.9293 375.399 68.1112C375.579 68.2931 375.807 68.4205 376.057 68.4787C376.237 68.5204 376.423 68.526 376.604 68.495C376.786 68.4641 376.96 68.3973 377.116 68.2985C377.126 68.2927 377.139 68.2904 377.151 68.2917C377.163 68.2931 377.174 68.298 377.183 68.306ZM376.37 68.0056C376.196 68.0056 376.027 67.9541 375.882 67.8575C375.738 67.7609 375.626 67.6236 375.56 67.4631C375.494 67.3026 375.477 67.1261 375.511 66.956C375.546 66.7859 375.63 66.6298 375.753 66.5076C375.876 66.3854 376.033 66.3026 376.204 66.2696C376.374 66.2367 376.55 66.2551 376.71 66.3226C376.87 66.39 377.007 66.5035 377.102 66.6485C377.197 66.7935 377.247 66.9636 377.246 67.1372C377.244 67.3682 377.151 67.5891 376.987 67.7517C376.823 67.9144 376.601 68.0057 376.37 68.0056Z" fill="black"/>
<path d="M381 67.6301V64.1037C381 63.9712 380.946 63.8443 380.852 63.7508L380.249 63.1477C380.156 63.0537 380.029 63.0006 379.896 63H376.996C376.863 63 376.736 63.0527 376.642 63.1466C376.548 63.2405 376.495 63.3678 376.495 63.5006V65.3276C376.495 65.3427 376.501 65.3572 376.511 65.3684C376.521 65.3795 376.535 65.3864 376.55 65.3876C376.674 65.4021 376.796 65.428 376.916 65.4652C376.925 65.4685 376.934 65.4694 376.944 65.4681C376.954 65.4667 376.963 65.463 376.971 65.4574C376.979 65.4517 376.985 65.4443 376.989 65.4356C376.994 65.4269 376.996 65.4174 376.996 65.4077V63.6257C376.996 63.5925 377.009 63.5607 377.032 63.5372C377.056 63.5137 377.088 63.5006 377.121 63.5006H379.844C379.86 63.5004 379.877 63.5036 379.892 63.5101C379.907 63.5165 379.92 63.5261 379.931 63.5381L380.462 64.0687C380.474 64.0799 380.484 64.0934 380.49 64.1085C380.497 64.1236 380.5 64.1399 380.5 64.1563V67.505C380.5 67.5382 380.486 67.57 380.463 67.5935C380.439 67.6169 380.408 67.6301 380.374 67.6301H378.092C378.079 67.6305 378.067 67.6348 378.056 67.6424C378.046 67.65 378.038 67.6606 378.034 67.6727C378.007 67.7591 377.972 67.8429 377.929 67.923C377.922 67.9423 377.922 67.9637 377.929 67.983L378.044 68.0956C378.064 68.1146 378.09 68.1261 378.117 68.1282H380.5C380.632 68.1282 380.759 68.0758 380.853 67.9825C380.946 67.8891 380.999 67.7625 381 67.6301Z" fill="black"/>
</g>
<rect width="160" height="37" transform="translate(234 83)" fill="#FFF4AE"/>
<path d="M251 105.714V106.286H241V105.714L242.111 104.571V101.143C242.111 99.3714 243.239 97.8114 244.889 97.3086V97.1429C244.889 96.8398 245.006 96.5491 245.214 96.3347C245.423 96.1204 245.705 96 246 96C246.295 96 246.577 96.1204 246.786 96.3347C246.994 96.5491 247.111 96.8398 247.111 97.1429V97.3086C248.761 97.8114 249.889 99.3714 249.889 101.143V104.571L251 105.714ZM247.111 106.857C247.111 107.16 246.994 107.451 246.786 107.665C246.577 107.88 246.295 108 246 108C245.705 108 245.423 107.88 245.214 107.665C245.006 107.451 244.889 107.16 244.889 106.857" fill="#8E8E8E"/>
<path d="M259.232 104H258.692V100.19H257.354V99.716H260.564V100.19H259.232V104ZM261.666 100.778C261.666 100.854 261.662 100.932 261.654 101.012C261.65 101.092 261.644 101.164 261.636 101.228H261.672C261.74 101.116 261.826 101.024 261.93 100.952C262.034 100.88 262.15 100.826 262.278 100.79C262.406 100.75 262.538 100.73 262.674 100.73C262.934 100.73 263.15 100.772 263.322 100.856C263.498 100.936 263.63 101.062 263.718 101.234C263.806 101.406 263.85 101.63 263.85 101.906V104H263.328V101.942C263.328 101.682 263.27 101.488 263.154 101.36C263.038 101.232 262.856 101.168 262.608 101.168C262.368 101.168 262.18 101.214 262.044 101.306C261.908 101.394 261.81 101.526 261.75 101.702C261.694 101.874 261.666 102.086 261.666 102.338V104H261.138V99.44H261.666V100.778ZM266.089 100.724C266.365 100.724 266.601 100.784 266.797 100.904C266.997 101.024 267.149 101.194 267.253 101.414C267.361 101.63 267.415 101.884 267.415 102.176V102.494H265.213C265.221 102.858 265.313 103.136 265.489 103.328C265.669 103.516 265.919 103.61 266.239 103.61C266.443 103.61 266.623 103.592 266.779 103.556C266.939 103.516 267.103 103.46 267.271 103.388V103.85C267.107 103.922 266.945 103.974 266.785 104.006C266.625 104.042 266.435 104.06 266.215 104.06C265.911 104.06 265.641 103.998 265.405 103.874C265.173 103.75 264.991 103.566 264.859 103.322C264.731 103.074 264.667 102.772 264.667 102.416C264.667 102.064 264.725 101.762 264.841 101.51C264.961 101.258 265.127 101.064 265.339 100.928C265.555 100.792 265.805 100.724 266.089 100.724ZM266.083 101.156C265.831 101.156 265.631 101.238 265.483 101.402C265.339 101.562 265.253 101.786 265.225 102.074H266.863C266.863 101.89 266.835 101.73 266.779 101.594C266.723 101.458 266.637 101.352 266.521 101.276C266.409 101.196 266.263 101.156 266.083 101.156ZM271.274 101.192H270.464V104H269.936V101.192H269.372V100.946L269.936 100.766V100.58C269.936 100.304 269.976 100.08 270.056 99.908C270.14 99.736 270.26 99.61 270.416 99.53C270.572 99.45 270.76 99.41 270.98 99.41C271.108 99.41 271.224 99.422 271.328 99.446C271.436 99.466 271.528 99.49 271.604 99.518L271.466 99.932C271.402 99.912 271.328 99.892 271.244 99.872C271.16 99.852 271.074 99.842 270.986 99.842C270.81 99.842 270.678 99.902 270.59 100.022C270.506 100.138 270.464 100.322 270.464 100.574V100.784H271.274V101.192ZM273.097 100.724C273.373 100.724 273.609 100.784 273.805 100.904C274.005 101.024 274.157 101.194 274.261 101.414C274.369 101.63 274.423 101.884 274.423 102.176V102.494H272.221C272.229 102.858 272.321 103.136 272.497 103.328C272.677 103.516 272.927 103.61 273.247 103.61C273.451 103.61 273.631 103.592 273.787 103.556C273.947 103.516 274.111 103.46 274.279 103.388V103.85C274.115 103.922 273.953 103.974 273.793 104.006C273.633 104.042 273.443 104.06 273.223 104.06C272.919 104.06 272.649 103.998 272.413 103.874C272.181 103.75 271.999 103.566 271.867 103.322C271.739 103.074 271.675 102.772 271.675 102.416C271.675 102.064 271.733 101.762 271.849 101.51C271.969 101.258 272.135 101.064 272.347 100.928C272.563 100.792 272.813 100.724 273.097 100.724ZM273.091 101.156C272.839 101.156 272.639 101.238 272.491 101.402C272.347 101.562 272.261 101.786 272.233 102.074H273.871C273.871 101.89 273.843 101.73 273.787 101.594C273.731 101.458 273.645 101.352 273.529 101.276C273.417 101.196 273.271 101.156 273.091 101.156ZM276.483 100.724C276.759 100.724 276.995 100.784 277.191 100.904C277.391 101.024 277.543 101.194 277.647 101.414C277.755 101.63 277.809 101.884 277.809 102.176V102.494H275.607C275.615 102.858 275.707 103.136 275.883 103.328C276.063 103.516 276.313 103.61 276.633 103.61C276.837 103.61 277.017 103.592 277.173 103.556C277.333 103.516 277.497 103.46 277.665 103.388V103.85C277.501 103.922 277.339 103.974 277.179 104.006C277.019 104.042 276.829 104.06 276.609 104.06C276.305 104.06 276.035 103.998 275.799 103.874C275.567 103.75 275.385 103.566 275.253 103.322C275.125 103.074 275.061 102.772 275.061 102.416C275.061 102.064 275.119 101.762 275.235 101.51C275.355 101.258 275.521 101.064 275.733 100.928C275.949 100.792 276.199 100.724 276.483 100.724ZM276.477 101.156C276.225 101.156 276.025 101.238 275.877 101.402C275.733 101.562 275.647 101.786 275.619 102.074H277.257C277.257 101.89 277.229 101.73 277.173 101.594C277.117 101.458 277.031 101.352 276.915 101.276C276.803 101.196 276.657 101.156 276.477 101.156ZM279.768 104.06C279.368 104.06 279.048 103.922 278.808 103.646C278.568 103.366 278.448 102.95 278.448 102.398C278.448 101.846 278.568 101.43 278.808 101.15C279.052 100.866 279.374 100.724 279.774 100.724C279.942 100.724 280.088 100.746 280.212 100.79C280.336 100.83 280.444 100.886 280.536 100.958C280.628 101.03 280.706 101.11 280.77 101.198H280.806C280.802 101.146 280.794 101.07 280.782 100.97C280.774 100.866 280.77 100.784 280.77 100.724V99.44H281.298V104H280.872L280.794 103.568H280.77C280.706 103.66 280.628 103.744 280.536 103.82C280.444 103.892 280.334 103.95 280.206 103.994C280.082 104.038 279.936 104.06 279.768 104.06ZM279.852 103.622C280.192 103.622 280.43 103.53 280.566 103.346C280.706 103.158 280.776 102.876 280.776 102.5V102.404C280.776 102.004 280.71 101.698 280.578 101.486C280.446 101.27 280.202 101.162 279.846 101.162C279.562 101.162 279.348 101.276 279.204 101.504C279.064 101.728 278.994 102.03 278.994 102.41C278.994 102.794 279.064 103.092 279.204 103.304C279.348 103.516 279.564 103.622 279.852 103.622ZM282.848 100.55C282.848 100.686 282.844 100.814 282.836 100.934C282.832 101.05 282.826 101.142 282.818 101.21H282.848C282.94 101.074 283.066 100.96 283.226 100.868C283.386 100.776 283.592 100.73 283.844 100.73C284.244 100.73 284.564 100.87 284.804 101.15C285.048 101.426 285.17 101.84 285.17 102.392C285.17 102.76 285.114 103.068 285.002 103.316C284.894 103.564 284.74 103.75 284.54 103.874C284.34 103.998 284.108 104.06 283.844 104.06C283.592 104.06 283.386 104.014 283.226 103.922C283.066 103.83 282.94 103.72 282.848 103.592H282.806L282.698 104H282.32V99.44H282.848V100.55ZM283.754 101.168C283.526 101.168 283.346 101.212 283.214 101.3C283.082 101.384 282.988 101.516 282.932 101.696C282.876 101.872 282.848 102.098 282.848 102.374V102.398C282.848 102.794 282.912 103.098 283.04 103.31C283.172 103.518 283.414 103.622 283.766 103.622C284.054 103.622 284.268 103.516 284.408 103.304C284.552 103.092 284.624 102.786 284.624 102.386C284.624 101.982 284.552 101.678 284.408 101.474C284.268 101.27 284.05 101.168 283.754 101.168ZM287.229 100.73C287.621 100.73 287.911 100.816 288.099 100.988C288.287 101.16 288.381 101.434 288.381 101.81V104H287.997L287.895 103.544H287.871C287.779 103.66 287.683 103.758 287.583 103.838C287.487 103.914 287.375 103.97 287.247 104.006C287.123 104.042 286.971 104.06 286.791 104.06C286.599 104.06 286.425 104.026 286.269 103.958C286.117 103.89 285.997 103.786 285.909 103.646C285.821 103.502 285.777 103.322 285.777 103.106C285.777 102.786 285.903 102.54 286.155 102.368C286.407 102.192 286.795 102.096 287.319 102.08L287.865 102.062V101.87C287.865 101.602 287.807 101.416 287.691 101.312C287.575 101.208 287.411 101.156 287.199 101.156C287.031 101.156 286.871 101.182 286.719 101.234C286.567 101.282 286.425 101.338 286.293 101.402L286.131 101.006C286.271 100.93 286.437 100.866 286.629 100.814C286.821 100.758 287.021 100.73 287.229 100.73ZM287.385 102.446C286.985 102.462 286.707 102.526 286.551 102.638C286.399 102.75 286.323 102.908 286.323 103.112C286.323 103.292 286.377 103.424 286.485 103.508C286.597 103.592 286.739 103.634 286.911 103.634C287.183 103.634 287.409 103.56 287.589 103.412C287.769 103.26 287.859 103.028 287.859 102.716V102.428L287.385 102.446ZM290.664 104.06C290.38 104.06 290.126 104.002 289.902 103.886C289.682 103.77 289.508 103.59 289.38 103.346C289.256 103.102 289.194 102.79 289.194 102.41C289.194 102.014 289.26 101.692 289.392 101.444C289.524 101.196 289.702 101.014 289.926 100.898C290.154 100.782 290.412 100.724 290.7 100.724C290.864 100.724 291.022 100.742 291.174 100.778C291.326 100.81 291.45 100.85 291.546 100.898L291.384 101.336C291.288 101.3 291.176 101.266 291.048 101.234C290.92 101.202 290.8 101.186 290.688 101.186C290.472 101.186 290.294 101.232 290.154 101.324C290.014 101.416 289.91 101.552 289.842 101.732C289.774 101.912 289.74 102.136 289.74 102.404C289.74 102.66 289.774 102.878 289.842 103.058C289.91 103.238 290.012 103.374 290.148 103.466C290.284 103.558 290.454 103.604 290.658 103.604C290.834 103.604 290.988 103.586 291.12 103.55C291.256 103.514 291.38 103.47 291.492 103.418V103.886C291.384 103.942 291.264 103.984 291.132 104.012C291.004 104.044 290.848 104.06 290.664 104.06ZM292.779 101.822C292.779 101.886 292.775 101.97 292.767 102.074C292.763 102.178 292.759 102.268 292.755 102.344H292.779C292.803 102.312 292.839 102.266 292.887 102.206C292.935 102.146 292.983 102.086 293.031 102.026C293.083 101.962 293.127 101.91 293.163 101.87L294.189 100.784H294.807L293.505 102.158L294.897 104H294.261L293.145 102.5L292.779 102.818V104H292.257V99.44H292.779V101.822ZM297.549 100.784V104H297.021V100.784H297.549ZM297.291 99.578C297.371 99.578 297.441 99.606 297.501 99.662C297.565 99.714 297.597 99.798 297.597 99.914C297.597 100.026 297.565 100.11 297.501 100.166C297.441 100.222 297.371 100.25 297.291 100.25C297.203 100.25 297.129 100.222 297.069 100.166C297.009 100.11 296.979 100.026 296.979 99.914C296.979 99.798 297.009 99.714 297.069 99.662C297.129 99.606 297.203 99.578 297.291 99.578ZM300.662 103.112C300.662 103.32 300.61 103.494 300.506 103.634C300.402 103.774 300.254 103.88 300.062 103.952C299.87 104.024 299.642 104.06 299.378 104.06C299.154 104.06 298.96 104.042 298.796 104.006C298.636 103.97 298.494 103.92 298.37 103.856V103.376C298.498 103.44 298.652 103.5 298.832 103.556C299.016 103.608 299.202 103.634 299.39 103.634C299.658 103.634 299.852 103.592 299.972 103.508C300.092 103.42 300.152 103.304 300.152 103.16C300.152 103.08 300.13 103.008 300.086 102.944C300.042 102.88 299.962 102.816 299.846 102.752C299.734 102.688 299.572 102.616 299.36 102.536C299.152 102.456 298.974 102.376 298.826 102.296C298.678 102.216 298.564 102.12 298.484 102.008C298.404 101.896 298.364 101.752 298.364 101.576C298.364 101.304 298.474 101.094 298.694 100.946C298.918 100.798 299.21 100.724 299.57 100.724C299.766 100.724 299.948 100.744 300.116 100.784C300.288 100.82 300.448 100.872 300.596 100.94L300.416 101.36C300.328 101.32 300.234 101.286 300.134 101.258C300.038 101.226 299.94 101.202 299.84 101.186C299.74 101.166 299.638 101.156 299.534 101.156C299.318 101.156 299.152 101.192 299.036 101.264C298.924 101.332 298.868 101.426 298.868 101.546C298.868 101.634 298.894 101.71 298.946 101.774C298.998 101.834 299.084 101.894 299.204 101.954C299.328 102.01 299.492 102.078 299.696 102.158C299.9 102.234 300.074 102.312 300.218 102.392C300.362 102.472 300.472 102.57 300.548 102.686C300.624 102.798 300.662 102.94 300.662 103.112ZM304.071 103.628C304.151 103.628 304.233 103.622 304.317 103.61C304.401 103.594 304.469 103.578 304.521 103.562V103.964C304.465 103.992 304.385 104.014 304.281 104.03C304.177 104.05 304.077 104.06 303.981 104.06C303.813 104.06 303.657 104.032 303.513 103.976C303.373 103.916 303.259 103.814 303.171 103.67C303.083 103.526 303.039 103.324 303.039 103.064V101.192H302.583V100.94L303.045 100.73L303.255 100.046H303.567V100.784H304.497V101.192H303.567V103.052C303.567 103.248 303.613 103.394 303.705 103.49C303.801 103.582 303.923 103.628 304.071 103.628ZM307.961 102.386C307.961 102.654 307.925 102.892 307.853 103.1C307.785 103.304 307.685 103.478 307.553 103.622C307.425 103.766 307.267 103.876 307.079 103.952C306.895 104.024 306.689 104.06 306.461 104.06C306.249 104.06 306.053 104.024 305.873 103.952C305.693 103.876 305.537 103.766 305.405 103.622C305.273 103.478 305.169 103.304 305.093 103.1C305.021 102.892 304.985 102.654 304.985 102.386C304.985 102.03 305.045 101.73 305.165 101.486C305.285 101.238 305.457 101.05 305.681 100.922C305.905 100.79 306.171 100.724 306.479 100.724C306.771 100.724 307.027 100.79 307.247 100.922C307.471 101.05 307.645 101.238 307.769 101.486C307.897 101.73 307.961 102.03 307.961 102.386ZM305.531 102.386C305.531 102.638 305.563 102.858 305.627 103.046C305.695 103.23 305.799 103.372 305.939 103.472C306.079 103.572 306.257 103.622 306.473 103.622C306.689 103.622 306.867 103.572 307.007 103.472C307.147 103.372 307.249 103.23 307.313 103.046C307.381 102.858 307.415 102.638 307.415 102.386C307.415 102.13 307.381 101.912 307.313 101.732C307.245 101.552 307.141 101.414 307.001 101.318C306.865 101.218 306.687 101.168 306.467 101.168C306.139 101.168 305.901 101.276 305.753 101.492C305.605 101.708 305.531 102.006 305.531 102.386ZM311.594 102.386C311.594 102.654 311.558 102.892 311.486 103.1C311.418 103.304 311.318 103.478 311.186 103.622C311.058 103.766 310.9 103.876 310.712 103.952C310.528 104.024 310.322 104.06 310.094 104.06C309.882 104.06 309.686 104.024 309.506 103.952C309.326 103.876 309.17 103.766 309.038 103.622C308.906 103.478 308.802 103.304 308.726 103.1C308.654 102.892 308.618 102.654 308.618 102.386C308.618 102.03 308.678 101.73 308.798 101.486C308.918 101.238 309.09 101.05 309.314 100.922C309.538 100.79 309.804 100.724 310.112 100.724C310.404 100.724 310.66 100.79 310.88 100.922C311.104 101.05 311.278 101.238 311.402 101.486C311.53 101.73 311.594 102.03 311.594 102.386ZM309.164 102.386C309.164 102.638 309.196 102.858 309.26 103.046C309.328 103.23 309.432 103.372 309.572 103.472C309.712 103.572 309.89 103.622 310.106 103.622C310.322 103.622 310.5 103.572 310.64 103.472C310.78 103.372 310.882 103.23 310.946 103.046C311.014 102.858 311.048 102.638 311.048 102.386C311.048 102.13 311.014 101.912 310.946 101.732C310.878 101.552 310.774 101.414 310.634 101.318C310.498 101.218 310.32 101.168 310.1 101.168C309.772 101.168 309.534 101.276 309.386 101.492C309.238 101.708 309.164 102.006 309.164 102.386ZM316.083 103.112C316.083 103.32 316.031 103.494 315.927 103.634C315.823 103.774 315.675 103.88 315.483 103.952C315.291 104.024 315.063 104.06 314.799 104.06C314.575 104.06 314.381 104.042 314.217 104.006C314.057 103.97 313.915 103.92 313.791 103.856V103.376C313.919 103.44 314.073 103.5 314.253 103.556C314.437 103.608 314.623 103.634 314.811 103.634C315.079 103.634 315.273 103.592 315.393 103.508C315.513 103.42 315.573 103.304 315.573 103.16C315.573 103.08 315.551 103.008 315.507 102.944C315.463 102.88 315.383 102.816 315.267 102.752C315.155 102.688 314.993 102.616 314.781 102.536C314.573 102.456 314.395 102.376 314.247 102.296C314.099 102.216 313.985 102.12 313.905 102.008C313.825 101.896 313.785 101.752 313.785 101.576C313.785 101.304 313.895 101.094 314.115 100.946C314.339 100.798 314.631 100.724 314.991 100.724C315.187 100.724 315.369 100.744 315.537 100.784C315.709 100.82 315.869 100.872 316.017 100.94L315.837 101.36C315.749 101.32 315.655 101.286 315.555 101.258C315.459 101.226 315.361 101.202 315.261 101.186C315.161 101.166 315.059 101.156 314.955 101.156C314.739 101.156 314.573 101.192 314.457 101.264C314.345 101.332 314.289 101.426 314.289 101.546C314.289 101.634 314.315 101.71 314.367 101.774C314.419 101.834 314.505 101.894 314.625 101.954C314.749 102.01 314.913 102.078 315.117 102.158C315.321 102.234 315.495 102.312 315.639 102.392C315.783 102.472 315.893 102.57 315.969 102.686C316.045 102.798 316.083 102.94 316.083 103.112ZM317.389 100.778C317.389 100.854 317.385 100.932 317.377 101.012C317.373 101.092 317.367 101.164 317.359 101.228H317.395C317.463 101.116 317.549 101.024 317.653 100.952C317.757 100.88 317.873 100.826 318.001 100.79C318.129 100.75 318.261 100.73 318.397 100.73C318.657 100.73 318.873 100.772 319.045 100.856C319.221 100.936 319.353 101.062 319.441 101.234C319.529 101.406 319.573 101.63 319.573 101.906V104H319.051V101.942C319.051 101.682 318.993 101.488 318.877 101.36C318.761 101.232 318.579 101.168 318.331 101.168C318.091 101.168 317.903 101.214 317.767 101.306C317.631 101.394 317.533 101.526 317.473 101.702C317.417 101.874 317.389 102.086 317.389 102.338V104H316.861V99.44H317.389V100.778ZM323.366 102.386C323.366 102.654 323.33 102.892 323.258 103.1C323.19 103.304 323.09 103.478 322.958 103.622C322.83 103.766 322.672 103.876 322.484 103.952C322.3 104.024 322.094 104.06 321.866 104.06C321.654 104.06 321.458 104.024 321.278 103.952C321.098 103.876 320.942 103.766 320.81 103.622C320.678 103.478 320.574 103.304 320.498 103.1C320.426 102.892 320.39 102.654 320.39 102.386C320.39 102.03 320.45 101.73 320.57 101.486C320.69 101.238 320.862 101.05 321.086 100.922C321.31 100.79 321.576 100.724 321.884 100.724C322.176 100.724 322.432 100.79 322.652 100.922C322.876 101.05 323.05 101.238 323.174 101.486C323.302 101.73 323.366 102.03 323.366 102.386ZM320.936 102.386C320.936 102.638 320.968 102.858 321.032 103.046C321.1 103.23 321.204 103.372 321.344 103.472C321.484 103.572 321.662 103.622 321.878 103.622C322.094 103.622 322.272 103.572 322.412 103.472C322.552 103.372 322.654 103.23 322.718 103.046C322.786 102.858 322.82 102.638 322.82 102.386C322.82 102.13 322.786 101.912 322.718 101.732C322.65 101.552 322.546 101.414 322.406 101.318C322.27 101.218 322.092 101.168 321.872 101.168C321.544 101.168 321.306 101.276 321.158 101.492C321.01 101.708 320.936 102.006 320.936 102.386ZM325.702 100.724C325.762 100.724 325.826 100.728 325.894 100.736C325.966 100.74 326.028 100.748 326.08 100.76L326.014 101.246C325.962 101.234 325.904 101.224 325.84 101.216C325.78 101.208 325.722 101.204 325.666 101.204C325.542 101.204 325.424 101.23 325.312 101.282C325.2 101.334 325.1 101.408 325.012 101.504C324.924 101.596 324.854 101.708 324.802 101.84C324.754 101.972 324.73 102.12 324.73 102.284V104H324.202V100.784H324.634L324.694 101.372H324.718C324.786 101.252 324.868 101.144 324.964 101.048C325.06 100.948 325.17 100.87 325.294 100.814C325.418 100.754 325.554 100.724 325.702 100.724ZM327.755 103.628C327.835 103.628 327.917 103.622 328.001 103.61C328.085 103.594 328.153 103.578 328.205 103.562V103.964C328.149 103.992 328.069 104.014 327.965 104.03C327.861 104.05 327.761 104.06 327.665 104.06C327.497 104.06 327.341 104.032 327.197 103.976C327.057 103.916 326.943 103.814 326.855 103.67C326.767 103.526 326.723 103.324 326.723 103.064V101.192H326.267V100.94L326.729 100.73L326.939 100.046H327.251V100.784H328.181V101.192H327.251V103.052C327.251 103.248 327.297 103.394 327.389 103.49C327.485 103.582 327.607 103.628 327.755 103.628Z" fill="black"/>
<defs>
<clipPath id="clip0_2800_2937">
<rect width="210" height="128.006" fill="white" transform="translate(3 8)"/>
</clipPath>
<clipPath id="clip1_2800_2937">
<rect width="160" height="28" fill="white" transform="translate(234 45)"/>
</clipPath>
</defs>
</svg>
