<svg width="354" height="581" viewBox="0 0 354 581" fill="none" xmlns="http://www.w3.org/2000/svg">
<g clip-path="url(#clip0_3158_5808)">
<path d="M293.571 222.576H243.451V302.102H293.571V222.576Z" fill="#B2B2B2"/>
<path d="M243.648 222.576H193.528V302.102H243.648V222.576Z" fill="#D1D1D1"/>
<path d="M217.391 126.139L215.255 168.887L205.208 200.234H223.295L232.69 173.225L235.625 142.53L217.391 126.139Z" fill="#F7EBE7"/>
<path d="M216.887 275.55L220.524 292.496L208.308 293.947L204.834 277.263L216.887 275.55Z" fill="#FCC9A7"/>
<path d="M221.256 290.964C220.946 290.05 219.968 289.724 219.299 290.311C217.994 291.469 215.646 292.888 212.172 292.546C208.567 292.187 207.214 290.067 206.692 288.533C206.415 287.734 205.648 287.327 204.963 287.669L183.092 298.662C181.771 299.33 180.727 300.57 180.205 302.119C179.716 303.571 180.694 305.137 182.064 305.104L219.854 304.06C221.338 304.028 222.479 302.56 222.349 300.863L221.729 292.546C221.713 292.415 221.697 292.268 221.648 292.138L221.256 290.964Z" fill="#1F252A"/>
<path d="M216.673 193.611H188.311C188.311 193.611 171.039 192.649 170.012 206.822C168.984 220.995 195.34 261.541 199.467 283.2L223.181 281.243L206.105 222.349L248.575 222.593C251.723 222.61 254.854 222.153 257.822 221.126C266.091 218.255 278.715 214.145 271.832 191.377L216.673 193.611Z" fill="#01928E"/>
<path d="M238.561 275.616L244.334 295.873L232.118 297.324L226.508 277.329L238.561 275.616Z" fill="#FCC9A7"/>
<path d="M245.068 294.339C244.758 293.425 243.779 293.099 243.111 293.686C241.806 294.844 239.457 296.263 235.983 295.921C232.379 295.562 231.025 293.442 230.503 291.909C230.226 291.11 229.459 290.702 228.774 291.044L206.903 302.037C205.582 302.706 204.538 303.945 204.016 305.495C203.527 306.946 204.506 308.512 205.876 308.479L244.318 307.435C245.802 307.403 246.943 305.935 246.813 304.239L245.524 295.921C245.508 295.79 245.492 295.644 245.443 295.513L245.068 294.339Z" fill="#1F252A"/>
<path d="M250.561 109.339C251.197 109.959 279.657 117.217 279.657 117.217L273.574 133.379L242.455 131.031L250.561 109.339Z" fill="#F7EBE7"/>
<path d="M238.821 113.238C238.821 113.238 220.277 120.006 217.391 126.139C218.386 134.799 221.435 143.133 226.459 150.261C232.624 159.002 240.24 174.024 238.838 193.611H292.447C292.447 193.611 289.561 138.501 273.691 117.348L238.821 113.238Z" fill="#F7EBE7"/>
<path d="M244.907 121.979C250.175 120.903 253.567 115.765 252.491 110.497L249.343 95.0845L230.277 98.9825L233.425 114.395C234.502 119.663 239.639 123.055 244.907 121.979Z" fill="#FCC9A7"/>
<path d="M250.651 100.467C250.651 100.467 248.645 112.96 238.924 113.711C230.411 114.363 231.226 102.049 231.226 102.049L250.651 100.467Z" fill="#F4BE9A"/>
<path d="M239.686 106.861L241.366 106.469C249.798 104.512 255.05 96.0964 253.093 87.6806L250.875 78.0743C248.918 69.6422 240.502 64.3905 232.086 66.3477L230.406 66.7391C221.974 68.6963 216.723 77.112 218.68 85.5278L220.898 95.1341C222.855 103.566 231.271 108.818 239.686 106.861Z" fill="#FCC9A7"/>
<path d="M247.81 91.6753C247.419 92.344 247.044 93.3552 246.913 94.8883C246.766 96.8291 245.788 98.6721 244.157 99.7485C239.476 102.847 235.904 95.0024 228.989 96.3888C228.989 96.3888 226.282 96.7965 225.743 99.8138C225.205 102.815 221.438 97.563 220.606 93.9749C219.774 90.3868 219.35 111.736 236.377 109.926C236.377 109.926 244.972 109.648 250.762 100.89C251.398 99.9279 251.773 98.8026 251.806 97.6446C251.855 95.9321 251.61 93.3389 249.979 91.4796C249.409 90.7946 248.267 90.8924 247.81 91.6753Z" fill="#C5CACC"/>
<path d="M247.825 86.8322C247.825 86.8322 240.469 84.402 241.709 73.654C241.709 73.654 223.442 90.9422 209.905 78.2533C209.905 78.2533 215.956 76.6387 218.452 72.496C223.002 64.9447 236.082 54.5392 246.553 66.5757C246.553 66.5757 259.291 64.6022 255.637 84.2226L247.825 86.8322Z" fill="#C5CACC"/>
<path d="M247.823 86.8328C248.524 89.8338 251.525 91.7094 254.526 91.0244C257.543 90.3231 259.403 87.3221 258.718 84.3212C258.016 81.3202 255.015 79.4446 252.014 80.1296C248.997 80.8309 247.121 83.8319 247.823 86.8328Z" fill="#FCC9A7"/>
<path d="M238.529 121.375L246.406 121.522L240.893 132.939L234.94 121.995L238.529 121.375Z" fill="#00A09B"/>
<path d="M253.159 109.845L243.015 121.686L249.62 129.27L261.771 112.569C261.771 112.569 258.655 107.562 253.159 109.845Z" fill="#FFF7F3"/>
<path d="M238.531 121.375L232.692 127.964L228.582 117.689C228.582 117.689 229.659 113.074 233.018 113.954L238.531 121.375Z" fill="#FFF7F3"/>
<path d="M240.682 129.254C240.682 129.254 233.065 149.119 234.957 177.302L242.46 184.152L251.218 175.72L241.775 127.966L240.682 129.254Z" fill="#00A09B"/>
<path d="M254.919 176.42L238.61 181.786L237.533 191.36L259.16 184.901L254.919 176.42Z" fill="#FCC9A7"/>
<path d="M241.041 188.113C241.041 193.707 236.507 198.258 230.896 198.258C225.302 198.258 220.752 193.724 220.752 188.113C220.752 182.519 225.286 177.969 230.896 177.969C236.491 177.969 241.041 182.503 241.041 188.113Z" fill="#FCC9A7"/>
<path d="M238.822 193.611H210.476C210.476 193.611 193.204 192.649 192.177 206.822C191.149 220.995 219.446 264.15 223.573 285.793L247.287 283.836L228.27 222.332L270.74 222.577C273.888 222.593 277.019 222.137 279.987 221.109C288.256 218.239 300.88 214.129 293.997 191.36L238.822 193.611Z" fill="#048581"/>
<path d="M153.31 143.492H202.32C203.935 143.492 205.321 144.618 205.664 146.2L214.895 189.485C215.351 191.606 213.721 193.612 211.551 193.612H161.726C160.095 193.612 158.692 192.454 158.382 190.855L149.966 147.57C149.542 145.45 151.157 143.492 153.31 143.492Z" fill="#B2B2B2"/>
<path d="M150.49 143.492H199.484C201.098 143.492 202.484 144.618 202.827 146.2L212.058 189.485C212.515 191.606 210.9 193.612 208.715 193.612H158.905C157.274 193.612 155.872 192.454 155.562 190.855L147.146 147.57C146.722 145.45 148.337 143.492 150.49 143.492Z" fill="#D1D1D1"/>
<path d="M213.56 189.909H247.043C248.071 189.909 248.886 190.74 248.886 191.752C248.886 192.779 248.054 193.595 247.043 193.595H212.907L213.56 189.909Z" fill="#B2B2B2"/>
<path d="M180.825 167.418C180.825 170.37 178.443 172.751 175.491 172.751C172.539 172.751 170.158 170.354 170.158 167.418C170.158 164.466 172.556 162.085 175.491 162.085C178.443 162.085 180.825 164.466 180.825 167.418Z" fill="white"/>
<path d="M267.968 132.613L285.876 161.53L243.015 176.828L248.886 189.517C248.886 189.517 285.534 185.407 303.246 171.756C304.877 170.5 305.692 168.462 305.415 166.423C304.583 159.899 301.028 144.062 285.876 121.555C282.794 116.972 276.661 115.586 271.883 118.359C266.908 121.229 265.163 127.59 267.968 132.613Z" fill="#F7EBE7"/>
<path d="M254.411 172.751L285.872 161.53L270.133 136.103" stroke="#EADDD8" stroke-width="0.7599" stroke-miterlimit="10" stroke-linecap="round" stroke-linejoin="round"/>
<path d="M233.112 163.177L225.365 142.725" stroke="#EADDD8" stroke-width="0.7599" stroke-miterlimit="10" stroke-linecap="round" stroke-linejoin="round"/>
<path d="M254.917 188.654C254.917 188.654 278.99 185.636 291.124 178.688" stroke="#EADDD8" stroke-width="0.7599" stroke-miterlimit="10" stroke-linecap="round" stroke-linejoin="round"/>
<path d="M105.079 95.6738C106.585 99.7801 108.121 103.945 110.721 107.431C113.321 110.917 117.22 113.724 121.592 113.96C123.424 114.049 125.403 113.635 126.733 112.335C128.151 110.888 132.257 106.9 132.848 104.979C136.363 93.4581 136.215 84.8024 135.359 76.4422C134.738 70.3566 133.35 65.3937 132.611 59.3081C132.08 55.1132 130.248 51.2137 128.86 47.2256C127.56 47.3733 125.58 48.0232 124.428 48.614C126.496 58.7173 127.235 69.0864 126.614 79.3669C126.378 83.5322 125.905 87.7271 124.369 91.597C123.749 93.2218 122.744 94.9352 121.031 95.3783C119.554 95.7624 117.988 95.0239 116.954 93.9308C115.92 92.8083 115.33 91.3903 114.768 89.9723C112.346 84.0344 109.923 78.0966 107.501 72.1587C106.881 70.6225 106.172 68.9682 104.754 68.1115C103.158 67.1071 101.002 67.4024 99.4657 68.4955C97.9591 69.5885 97.0433 71.3906 96.6888 73.2221C96.4229 74.6401 97.6046 75.7036 98.1954 76.8853C99.1407 78.835 99.7316 81.0507 100.47 83.089C102.006 87.2839 103.542 91.4789 105.079 95.6738Z" fill="#01928E"/>
<path d="M128.062 50.0912C128.417 49.8844 128.771 49.6185 128.949 49.2344C129.126 48.8799 129.096 48.4663 129.096 48.0823C129.037 45.6303 129.008 43.1784 128.949 40.7265C128.919 38.7176 128.86 36.7088 128.505 34.7295C128.328 33.8137 128.033 32.8389 127.294 32.248C126.526 31.6572 125.492 31.6277 124.517 31.6277C123.217 31.6277 121.888 31.6276 120.677 32.1298C120.47 32.2185 120.234 32.3366 120.086 32.5139C119.938 32.7207 119.879 32.957 119.82 33.2229C119.643 34.1977 119.672 35.1727 119.702 36.1475C119.732 38.2155 119.791 40.3129 119.909 42.3808C120.086 44.9509 120.411 47.5801 121.652 49.8548C122.243 50.9478 123.395 50.8592 124.488 50.9478C125.758 51.0069 126.999 50.7115 128.062 50.0912Z" fill="#BFBFBF"/>
<path d="M122.51 48.2008C122.54 48.3485 122.569 48.4962 122.658 48.6144C122.806 48.8212 123.101 48.8507 123.337 48.8803C124.046 48.9098 124.785 48.8802 125.494 48.7325C126.232 48.5848 127.001 48.319 127.414 47.6986C127.798 47.1078 127.828 46.3693 127.798 45.6603C127.739 42.0266 127.65 38.393 127.178 34.7889C127.148 34.5821 127.119 34.3754 126.971 34.2277C126.853 34.1095 126.676 34.0504 126.498 34.0209C125.73 33.9027 124.962 33.9618 124.194 34.0209C123.337 34.1095 122.392 34.2277 121.86 34.8776C121.447 35.3798 121.388 36.0887 121.358 36.7386C121.151 40.6677 121.831 44.3604 122.51 48.2008Z" fill="white"/>
<path d="M59.3185 302.14C56.3053 302.406 53.233 301.638 50.6924 299.954C55.035 290.117 59.4071 280.279 63.7498 270.442C65.1382 267.34 66.4971 264.209 67.3243 260.9C68.3287 256.853 68.4764 252.628 68.6241 248.463C69.1559 232.245 69.6876 216.056 70.2489 199.837C70.308 198.479 70.3375 197.09 70.9284 195.849C72.6122 192.334 77.398 192.009 81.2975 192.186C82.1542 192.216 83.0995 192.304 83.7199 192.895C84.4289 193.575 84.4879 194.668 84.5175 195.643C84.7538 208.434 86.9399 196.883 87.1762 209.645C87.2649 214.136 85.3742 243.027 84.4584 247.429C82.8336 255.198 80.4112 263.322 76.2163 270.087C69.7762 280.486 65.6995 289.88 59.3185 302.14Z" fill="black"/>
<path d="M93.7626 202.585C99.1687 201.905 104.545 201.226 109.951 200.546C110.217 199.808 108.888 200.546 108.977 201.344C111.753 225.804 111.99 250.56 109.686 275.05C108.681 285.626 107.234 296.231 108.238 306.778C106.022 306.984 103.807 307.221 101.591 307.428C97.5735 274.489 93.5263 241.55 89.5086 208.581C89.3018 206.927 89.1837 205.007 90.3653 203.796C91.222 202.939 92.5219 202.732 93.7626 202.585Z" fill="black"/>
<path d="M107.236 311.918C108.24 312.598 107.029 313.336 106.438 313.454C105.345 313.661 104.193 313.72 103.1 313.573C102.804 313.543 102.509 313.484 102.273 313.307C102.066 313.189 101.918 313.011 101.771 312.834C101.357 312.332 100.441 311.593 100.264 311.002C100.116 310.5 100.353 309.998 100.559 309.496C100.973 308.462 101.741 307.369 101.564 306.217C103.957 306.246 106.172 305.183 108.211 305.655C108.447 306.453 109.156 307.074 108.92 307.753C109.067 307.31 114.946 308.196 115.655 308.255C116.778 308.373 117.9 308.432 119.023 308.432C119.909 308.432 121.504 307.871 122.095 308.669C122.302 308.964 122.391 309.319 122.45 309.673C122.509 309.939 122.538 310.205 122.45 310.471C122.331 310.914 121.977 311.268 121.563 311.475C116.984 313.661 112.021 311.387 107.236 311.918Z" fill="#191919"/>
<path d="M54.4737 307.073C55.1532 308.196 53.6761 308.403 53.0262 308.255C51.8741 307.989 50.722 307.546 49.688 306.926C49.4221 306.748 49.1563 306.571 48.979 306.305C48.8313 306.099 48.7722 305.862 48.7131 305.626C48.5359 304.976 47.9451 303.824 48.0041 303.144C48.0632 302.583 48.5359 302.199 48.9495 301.785C49.8062 300.958 51.2833 299.422 51.6378 298.211C54.0011 299.274 57.5461 300.456 59.3481 301.785C58.4914 302.554 58.4619 303.115 57.9597 303.706C58.3142 303.322 63.7203 306.748 64.3702 307.132C65.4337 307.723 66.4972 308.285 67.6198 308.757C68.4765 309.141 70.3376 309.289 70.5444 310.323C70.633 310.707 70.5444 311.091 70.4557 311.446C70.3967 311.741 70.308 312.007 70.1308 312.243C69.8354 312.657 69.3036 312.834 68.8014 312.834C63.3362 313.041 59.4367 308.639 54.4737 307.073Z" fill="#191919"/>
<path d="M95.0929 52.543C94.0294 51.3318 93.025 50.0616 91.5183 49.0867C85.7873 45.3645 81.9173 47.5801 78.1951 52.6612C72.8185 60.0171 69.9234 68.7318 67.1465 77.1807C65.0786 83.4435 63.0107 89.7358 61.3564 96.0873C50.7214 136.943 57.2205 179.838 55.448 221.905C67.2647 223.5 79.0813 225.095 90.8979 226.691C97.7811 227.606 105.403 228.581 112.286 228.02C114.118 227.872 130.247 223.618 128.682 220.487C125.462 214.017 124.014 206.898 122.803 199.837C117.722 170.03 116.481 139.632 119.11 109.558C119.937 100.135 121.119 90.5926 119.553 81.2574C118.519 75.1128 116.186 68.9681 112.109 64.0642C107.766 58.8058 102.656 58.5991 97.5153 54.8768C96.5404 54.1383 95.8019 53.3406 95.0929 52.543Z" fill="#F7EBE7"/>
<path d="M102.539 12.9571C98.167 16.7975 95.3901 22.2036 93.8539 27.8165C92.17 33.9316 91.9041 40.7262 94.6515 46.4572C97.3989 52.1883 103.662 56.4719 109.954 55.5561C114.149 54.9357 117.753 52.1588 120.5 48.9387C127.531 40.608 129.511 28.4664 126.054 18.1859C124.636 14.0206 122.45 8.88035 117.901 7.78731C112.997 6.60565 106.084 9.85522 102.539 12.9571Z" fill="#F9E9DE"/>
<path d="M130.808 17.1816C131.842 16.2954 132.67 15.0546 132.64 13.6957C132.61 12.5436 131.99 11.4801 131.34 10.5348C126.554 3.79928 118.253 -0.306995 109.982 0.0179625C107.973 0.106587 105.964 0.402018 104.103 1.14056C99.4057 2.94259 95.9198 6.98983 93.2315 11.2438C88.3572 18.8655 85.2258 28.4369 88.2981 36.9154C88.7412 38.1561 89.3616 39.3969 90.4251 40.1945C91.4886 40.9626 93.1134 41.1398 94.0882 40.2536C94.6495 39.7514 94.9154 38.9834 95.1813 38.2744C96.8947 33.4 98.6376 28.437 100.824 23.7694C102.242 20.7562 104.014 17.5952 107.648 17.2998C115.329 16.6204 123.718 23.3854 130.808 17.1816Z" fill="#D9AC7C"/>
<path d="M128.297 125.511C130.927 125.541 133.733 125.629 135.89 126.841C139.346 128.79 138.312 132.719 138.548 136.117C139.346 147.402 141.325 158.539 140.941 169.824C140.912 170.798 140.794 171.862 139.878 172.512C139.316 172.925 138.548 173.073 137.81 173.191C117.987 176.766 97.6038 178.361 77.2792 177.948C76.5702 177.918 75.8021 177.918 75.1817 177.623C74.1182 177.12 73.7933 176.057 73.5569 175.082C70.4255 162.468 70.0415 149.794 69.0666 136.973C68.9484 135.319 68.8598 133.606 69.7165 132.099C71.4595 129.056 74.5909 129.44 78.1359 128.908C83.3943 128.111 91.4001 127.461 96.688 126.959C107.146 125.925 117.722 125.423 128.297 125.511Z" fill="#D1D1D1"/>
<path d="M83.3065 105.659C81.5931 99.3961 80.0274 93.0447 79.6138 86.5751C79.2002 80.1055 79.9388 73.4291 82.6566 67.5503C84.0746 64.4484 86.9697 61.1988 90.2783 62.0259C93.3802 62.794 94.5323 66.5458 95.0936 69.7068C97.6046 83.9458 99.0522 98.3916 100.352 112.808C100.884 118.746 101.386 124.684 102.42 130.562C104.813 144.093 110.042 157.032 116.629 169.114C114.739 170.384 112.257 171.655 110.367 170.414C108.83 169.38 108.683 167.401 107.708 165.983C106.526 164.299 105.285 163.117 104.311 161.168C102.154 156.884 100.145 152.541 98.225 148.14C94.3551 139.277 90.9282 130.208 87.915 121.02C86.2311 115.91 84.7245 110.799 83.3065 105.659Z" fill="#01928E"/>
<path d="M113.26 177.386C113.319 177.77 113.407 178.184 113.703 178.45C113.939 178.627 114.235 178.686 114.5 178.716C115.653 178.863 116.834 179.011 117.957 178.745C119.079 178.479 120.143 177.682 120.409 176.559C120.527 176.116 120.497 175.643 120.409 175.171C119.936 172.719 117.839 170.946 115.859 169.41C114.471 168.317 111.901 168.051 112.078 170.474C112.255 172.719 112.905 175.112 113.26 177.386Z" fill="#F9E9DE"/>
<path d="M125.018 49.4408C125.284 49.2931 125.787 49.1159 126.082 49.2636C126.318 49.4113 126.259 49.5885 126.052 49.7067C125.846 49.8248 125.521 49.8544 125.255 49.8544C124.93 49.8839 124.575 49.6771 125.018 49.4408Z" fill="white"/>
<path d="M92.28 452.512C86.652 452.512 81.486 451.504 76.782 449.488C72.162 447.388 68.466 444.28 65.694 440.164C63.006 435.964 61.578 430.714 61.41 424.414H74.01C74.094 427.606 74.85 430.504 76.278 433.108C77.706 435.712 79.764 437.812 82.452 439.408C85.224 440.92 88.5 441.676 92.28 441.676C96.06 441.676 99.21 440.962 101.73 439.534C104.334 438.106 106.266 436.174 107.526 433.738C108.87 431.302 109.542 428.572 109.542 425.548C109.542 421.768 108.618 418.702 106.77 416.35C105.006 413.914 102.57 412.108 99.462 410.932C96.438 409.672 93.036 409.042 89.256 409.042H82.704V398.584H89.256C94.464 398.584 98.622 397.366 101.73 394.93C104.838 392.494 106.392 389.092 106.392 384.724C106.392 381.028 105.174 378.004 102.738 375.652C100.386 373.3 96.9 372.124 92.28 372.124C87.66 372.124 84.006 373.468 81.318 376.156C78.63 378.844 77.118 382.246 76.782 386.362H64.182C64.434 381.406 65.736 377.038 68.088 373.258C70.524 369.394 73.8 366.454 77.916 364.438C82.032 362.338 86.82 361.288 92.28 361.288C98.076 361.288 102.948 362.338 106.896 364.438C110.844 366.454 113.826 369.184 115.842 372.628C117.942 376.072 118.992 379.81 118.992 383.842C118.992 386.95 118.404 389.848 117.228 392.536C116.052 395.14 114.414 397.408 112.314 399.34C110.214 401.272 107.61 402.616 104.502 403.372C107.862 404.044 110.844 405.388 113.448 407.404C116.136 409.336 118.236 411.856 119.748 414.964C121.344 418.072 122.142 421.642 122.142 425.674C122.142 430.462 121.008 434.914 118.74 439.03C116.472 443.062 113.112 446.338 108.66 448.858C104.292 451.294 98.832 452.512 92.28 452.512ZM166.463 452.512C158.483 452.512 151.637 450.622 145.925 446.842C140.213 442.978 135.803 437.644 132.695 430.84C129.671 423.952 128.159 415.972 128.159 406.9C128.159 397.828 129.671 389.89 132.695 383.086C135.803 376.198 140.213 370.864 145.925 367.084C151.637 363.22 158.483 361.288 166.463 361.288C174.443 361.288 181.247 363.22 186.875 367.084C192.587 370.864 196.955 376.198 199.979 383.086C203.087 389.89 204.641 397.828 204.641 406.9C204.641 415.972 203.087 423.952 199.979 430.84C196.955 437.644 192.587 442.978 186.875 446.842C181.247 450.622 174.443 452.512 166.463 452.512ZM166.463 441.298C171.335 441.298 175.661 439.912 179.441 437.14C183.305 434.368 186.287 430.42 188.387 425.296C190.571 420.172 191.663 414.04 191.663 406.9C191.663 399.76 190.571 393.628 188.387 388.504C186.287 383.38 183.305 379.474 179.441 376.786C175.661 374.014 171.335 372.628 166.463 372.628C161.507 372.628 157.097 374.014 153.233 376.786C149.453 379.474 146.471 383.38 144.287 388.504C142.103 393.628 141.011 399.76 141.011 406.9C141.011 414.04 142.103 420.172 144.287 425.296C146.471 430.42 149.453 434.368 153.233 437.14C157.097 439.912 161.507 441.298 166.463 441.298ZM225.275 451L276.053 362.8H288.527L237.749 451H225.275ZM282.605 452.512C278.657 452.512 275.129 451.63 272.021 449.866C268.913 448.102 266.435 445.624 264.587 442.432C262.739 439.156 261.815 435.334 261.815 430.966C261.815 426.43 262.739 422.566 264.587 419.374C266.435 416.182 268.913 413.704 272.021 411.94C275.129 410.176 278.615 409.294 282.479 409.294C286.511 409.294 290.039 410.176 293.063 411.94C296.171 413.704 298.607 416.182 300.371 419.374C302.219 422.566 303.143 426.43 303.143 430.966C303.143 435.334 302.219 439.156 300.371 442.432C298.607 445.624 296.171 448.102 293.063 449.866C289.955 451.63 286.469 452.512 282.605 452.512ZM282.353 443.188C284.285 443.188 286.007 442.726 287.519 441.802C289.115 440.878 290.375 439.534 291.299 437.77C292.307 435.922 292.811 433.612 292.811 430.84C292.811 428.068 292.349 425.8 291.425 424.036C290.501 422.188 289.241 420.802 287.645 419.878C286.133 418.954 284.411 418.492 282.479 418.492C280.715 418.492 279.035 418.954 277.439 419.878C275.843 420.802 274.541 422.188 273.533 424.036C272.609 425.8 272.147 428.068 272.147 430.84C272.147 433.612 272.609 435.922 273.533 437.77C274.541 439.534 275.801 440.878 277.313 441.802C278.909 442.726 280.589 443.188 282.353 443.188ZM232.079 404.632C228.131 404.632 224.603 403.75 221.495 401.986C218.387 400.222 215.909 397.744 214.061 394.552C212.213 391.276 211.289 387.412 211.289 382.96C211.289 378.508 212.213 374.686 214.061 371.494C215.909 368.302 218.387 365.824 221.495 364.06C224.687 362.296 228.215 361.414 232.079 361.414C236.027 361.414 239.513 362.296 242.537 364.06C245.645 365.824 248.123 368.302 249.971 371.494C251.819 374.686 252.743 378.508 252.743 382.96C252.743 387.412 251.819 391.276 249.971 394.552C248.123 397.744 245.645 400.222 242.537 401.986C239.429 403.75 235.943 404.632 232.079 404.632ZM231.953 395.308C233.885 395.308 235.607 394.846 237.119 393.922C238.715 392.998 239.975 391.654 240.899 389.89C241.823 388.042 242.285 385.732 242.285 382.96C242.285 380.188 241.823 377.878 240.899 376.03C239.975 374.182 238.715 372.796 237.119 371.872C235.607 370.948 233.927 370.486 232.079 370.486C230.231 370.486 228.509 370.948 226.913 371.872C225.317 372.796 224.015 374.182 223.007 376.03C222.083 377.878 221.621 380.188 221.621 382.96C221.621 385.648 222.083 387.916 223.007 389.764C224.015 391.612 225.317 392.998 226.913 393.922C228.509 394.846 230.189 395.308 231.953 395.308Z" fill="#306032"/>
<path d="M89.7154 526V492.4H101.091C103.747 492.4 105.923 492.848 107.619 493.744C109.315 494.64 110.563 495.84 111.363 497.344C112.195 498.816 112.611 500.496 112.611 502.384C112.611 504.176 112.195 505.84 111.363 507.376C110.563 508.88 109.299 510.096 107.571 511.024C105.843 511.92 103.635 512.368 100.947 512.368H94.5154V526H89.7154ZM107.379 526L100.131 511.072H105.411L112.947 526H107.379ZM94.5154 508.72H100.755C103.155 508.72 104.899 508.144 105.987 506.992C107.107 505.808 107.667 504.304 107.667 502.48C107.667 500.624 107.123 499.152 106.035 498.064C104.947 496.976 103.187 496.432 100.755 496.432H94.5154V508.72ZM125.48 526.576C123.143 526.576 121.079 526.064 119.287 525.04C117.495 523.984 116.087 522.528 115.063 520.672C114.039 518.816 113.527 516.64 113.527 514.144C113.527 511.648 114.023 509.472 115.015 507.616C116.039 505.728 117.447 504.256 119.239 503.2C121.063 502.144 123.159 501.616 125.527 501.616C127.895 501.616 129.927 502.144 131.623 503.2C133.319 504.224 134.632 505.584 135.56 507.28C136.519 508.976 136.999 510.864 136.999 512.944C136.999 513.264 136.999 513.616 136.999 514C136.999 514.384 136.967 514.784 136.904 515.2H117.031V511.84H132.2C132.104 509.792 131.431 508.208 130.183 507.088C128.935 505.936 127.367 505.36 125.48 505.36C124.2 505.36 123 505.648 121.88 506.224C120.791 506.8 119.911 507.664 119.239 508.816C118.567 509.968 118.231 511.424 118.231 513.184V514.528C118.231 516.288 118.567 517.776 119.239 518.992C119.911 520.176 120.791 521.072 121.88 521.68C123 522.288 124.183 522.592 125.431 522.592C126.967 522.592 128.232 522.256 129.224 521.584C130.247 520.88 130.999 519.936 131.48 518.752H136.327C135.88 520.256 135.16 521.6 134.168 522.784C133.176 523.936 131.944 524.864 130.472 525.568C129.031 526.24 127.367 526.576 125.48 526.576ZM145.267 526L137.011 502.192H142.051L148.484 522.448H148.724L155.203 502.192H160.148L151.844 526H145.267ZM162.077 526V502.192H166.877V526H162.077ZM164.477 497.968C163.549 497.968 162.78 497.68 162.173 497.104C161.565 496.528 161.261 495.792 161.261 494.896C161.261 494.032 161.565 493.312 162.173 492.736C162.78 492.128 163.549 491.824 164.477 491.824C165.373 491.824 166.125 492.128 166.733 492.736C167.341 493.312 167.645 494.032 167.645 494.896C167.645 495.76 167.341 496.496 166.733 497.104C166.125 497.68 165.373 497.968 164.477 497.968ZM181.655 526.576C179.319 526.576 177.255 526.064 175.463 525.04C173.671 523.984 172.263 522.528 171.239 520.672C170.215 518.816 169.703 516.64 169.703 514.144C169.703 511.648 170.199 509.472 171.191 507.616C172.215 505.728 173.623 504.256 175.415 503.2C177.239 502.144 179.335 501.616 181.703 501.616C184.071 501.616 186.103 502.144 187.799 503.2C189.495 504.224 190.807 505.584 191.735 507.28C192.695 508.976 193.175 510.864 193.175 512.944C193.175 513.264 193.175 513.616 193.175 514C193.175 514.384 193.143 514.784 193.079 515.2H173.207V511.84H188.375C188.279 509.792 187.607 508.208 186.359 507.088C185.111 505.936 183.543 505.36 181.655 505.36C180.375 505.36 179.175 505.648 178.055 506.224C176.967 506.8 176.087 507.664 175.415 508.816C174.743 509.968 174.407 511.424 174.407 513.184V514.528C174.407 516.288 174.743 517.776 175.415 518.992C176.087 520.176 176.967 521.072 178.055 521.68C179.175 522.288 180.359 522.592 181.607 522.592C183.143 522.592 184.407 522.256 185.399 521.584C186.423 520.88 187.175 519.936 187.655 518.752H192.503C192.055 520.256 191.335 521.6 190.343 522.784C189.351 523.936 188.119 524.864 186.647 525.568C185.207 526.24 183.543 526.576 181.655 526.576ZM199.149 526L192.765 502.192H197.517L202.221 521.872H202.413L207.357 502.192H213.117L218.205 521.872H218.397L222.957 502.192H227.757L221.229 526H215.373L210.333 506.224H210.141L204.957 526H199.149ZM239.262 526.576C236.926 526.576 234.862 526.064 233.07 525.04C231.278 523.984 229.87 522.528 228.846 520.672C227.822 518.816 227.31 516.64 227.31 514.144C227.31 511.648 227.806 509.472 228.798 507.616C229.822 505.728 231.23 504.256 233.022 503.2C234.846 502.144 236.942 501.616 239.31 501.616C241.678 501.616 243.71 502.144 245.406 503.2C247.102 504.224 248.414 505.584 249.342 507.28C250.302 508.976 250.782 510.864 250.782 512.944C250.782 513.264 250.782 513.616 250.782 514C250.782 514.384 250.75 514.784 250.686 515.2H230.814V511.84H245.982C245.886 509.792 245.214 508.208 243.966 507.088C242.718 505.936 241.15 505.36 239.262 505.36C237.982 505.36 236.782 505.648 235.662 506.224C234.574 506.8 233.694 507.664 233.022 508.816C232.35 509.968 232.014 511.424 232.014 513.184V514.528C232.014 516.288 232.35 517.776 233.022 518.992C233.694 520.176 234.574 521.072 235.662 521.68C236.782 522.288 237.966 522.592 239.214 522.592C240.75 522.592 242.014 522.256 243.006 521.584C244.03 520.88 244.782 519.936 245.262 518.752H250.11C249.662 520.256 248.942 521.6 247.95 522.784C246.958 523.936 245.726 524.864 244.254 525.568C242.814 526.24 241.15 526.576 239.262 526.576ZM252.615 526V502.192H256.791L257.223 507.376H257.415C258.183 505.68 258.951 504.432 259.719 503.632C260.519 502.8 261.431 502.256 262.455 502C263.511 501.744 264.759 501.616 266.199 501.616V506.656H264.951C263.703 506.656 262.599 506.816 261.639 507.136C260.711 507.424 259.927 507.872 259.287 508.48C258.679 509.088 258.215 509.872 257.895 510.832C257.575 511.76 257.415 512.864 257.415 514.144V526H252.615Z" fill="#306032"/>
<rect x="30" y="552" width="72" height="29" rx="14.5" fill="white"/>
<path d="M43.889 573.189C42.953 573.189 42.146 573.042 41.468 572.748C40.796 572.454 40.274 572.01 39.902 571.416C39.536 570.816 39.353 570.075 39.353 569.193C39.353 569.079 39.353 568.98 39.353 568.896C39.353 568.812 39.353 568.716 39.353 568.608H41.306C41.306 568.71 41.306 568.8 41.306 568.878C41.306 568.95 41.306 569.043 41.306 569.157C41.306 569.973 41.525 570.573 41.963 570.957C42.401 571.335 43.04 571.524 43.88 571.524C44.738 571.524 45.392 571.38 45.842 571.092C46.292 570.798 46.517 570.327 46.517 569.679C46.517 569.217 46.376 568.83 46.094 568.518C45.818 568.2 45.434 567.927 44.942 567.699C44.456 567.471 43.895 567.258 43.259 567.06C42.545 566.838 41.9 566.556 41.324 566.214C40.748 565.866 40.289 565.434 39.947 564.918C39.611 564.396 39.443 563.76 39.443 563.01C39.443 562.272 39.629 561.645 40.001 561.129C40.373 560.613 40.889 560.223 41.549 559.959C42.209 559.689 42.965 559.554 43.817 559.554C44.723 559.554 45.512 559.695 46.184 559.977C46.862 560.253 47.387 560.673 47.759 561.237C48.137 561.795 48.326 562.5 48.326 563.352C48.326 563.472 48.326 563.577 48.326 563.667C48.326 563.751 48.326 563.856 48.326 563.982H46.364C46.364 563.88 46.364 563.787 46.364 563.703C46.364 563.619 46.364 563.529 46.364 563.433C46.364 562.653 46.151 562.089 45.725 561.741C45.305 561.393 44.681 561.219 43.853 561.219C43.049 561.219 42.428 561.36 41.99 561.642C41.558 561.924 41.342 562.38 41.342 563.01C41.342 563.478 41.48 563.868 41.756 564.18C42.038 564.492 42.422 564.759 42.908 564.981C43.4 565.203 43.958 565.419 44.582 565.629C45.374 565.893 46.055 566.19 46.625 566.52C47.201 566.85 47.645 567.261 47.957 567.753C48.269 568.245 48.425 568.866 48.425 569.616C48.425 570.372 48.239 571.017 47.867 571.551C47.495 572.085 46.97 572.493 46.292 572.775C45.614 573.051 44.813 573.189 43.889 573.189ZM50.0114 576.933V563.442H51.9644V576.933H50.0114ZM55.0424 573.189C54.2984 573.189 53.6084 573.003 52.9724 572.631C52.3364 572.253 51.8204 571.737 51.4244 571.083C51.0344 570.429 50.8394 569.688 50.8394 568.86C50.8394 568.836 50.8394 568.818 50.8394 568.806C50.8394 568.788 50.8394 568.77 50.8394 568.752L51.9734 568.725C51.9734 568.737 51.9734 568.752 51.9734 568.77C51.9734 568.782 51.9734 568.797 51.9734 568.815C51.9734 569.307 52.0994 569.751 52.3514 570.147C52.6094 570.537 52.9424 570.846 53.3504 571.074C53.7584 571.302 54.1964 571.416 54.6644 571.416C55.4324 571.416 56.0774 571.155 56.5994 570.633C57.1274 570.105 57.3914 569.295 57.3914 568.203C57.3914 567.105 57.1304 566.298 56.6084 565.782C56.0864 565.26 55.4384 564.999 54.6644 564.999C54.1964 564.999 53.7584 565.113 53.3504 565.341C52.9424 565.563 52.6094 565.869 52.3514 566.259C52.0994 566.643 51.9734 567.084 51.9734 567.582L50.8394 567.537C50.8394 566.703 51.0344 565.968 51.4244 565.332C51.8204 564.69 52.3364 564.189 52.9724 563.829C53.6084 563.469 54.2984 563.289 55.0424 563.289C55.8164 563.289 56.5334 563.481 57.1934 563.865C57.8534 564.243 58.3844 564.798 58.7864 565.53C59.1944 566.262 59.3984 567.153 59.3984 568.203C59.3984 569.277 59.2004 570.186 58.8044 570.93C58.4084 571.674 57.8804 572.238 57.2204 572.622C56.5604 573 55.8344 573.189 55.0424 573.189ZM61.7132 568.905V567.384H68.7512L68.4812 567.834C68.4812 567.798 68.4812 567.762 68.4812 567.726C68.4812 567.684 68.4812 567.648 68.4812 567.618C68.4812 567.132 68.3762 566.685 68.1662 566.277C67.9562 565.863 67.6412 565.533 67.2212 565.287C66.8072 565.035 66.2882 564.909 65.6642 564.909C65.0402 564.909 64.4912 565.044 64.0172 565.314C63.5492 565.578 63.1832 565.956 62.9192 566.448C62.6612 566.934 62.5322 567.519 62.5322 568.203C62.5322 568.899 62.6582 569.499 62.9102 570.003C63.1622 570.501 63.5252 570.885 63.9992 571.155C64.4732 571.425 65.0402 571.56 65.7002 571.56C66.1622 571.56 66.5612 571.515 66.8972 571.425C67.2392 571.329 67.5182 571.203 67.7342 571.047C67.9562 570.891 68.1242 570.723 68.2382 570.543C68.3522 570.357 68.4182 570.174 68.4362 569.994H70.3802C70.3442 570.384 70.2152 570.771 69.9932 571.155C69.7772 571.533 69.4682 571.878 69.0662 572.19C68.6702 572.496 68.1842 572.742 67.6082 572.928C67.0382 573.108 66.3812 573.198 65.6372 573.198C64.6412 573.198 63.7682 572.988 63.0182 572.568C62.2682 572.148 61.6832 571.566 61.2632 570.822C60.8432 570.072 60.6332 569.214 60.6332 568.248C60.6332 567.264 60.8462 566.4 61.2722 565.656C61.6982 564.912 62.2892 564.333 63.0452 563.919C63.8012 563.499 64.6682 563.289 65.6462 563.289C66.6422 563.289 67.5032 563.499 68.2292 563.919C68.9612 564.339 69.5252 564.918 69.9212 565.656C70.3172 566.394 70.5152 567.243 70.5152 568.203C70.5152 568.317 70.5122 568.449 70.5062 568.599C70.5002 568.749 70.4912 568.851 70.4792 568.905H61.7132ZM72.8451 568.905V567.384H79.8831L79.6131 567.834C79.6131 567.798 79.6131 567.762 79.6131 567.726C79.6131 567.684 79.6131 567.648 79.6131 567.618C79.6131 567.132 79.5081 566.685 79.2981 566.277C79.0881 565.863 78.7731 565.533 78.3531 565.287C77.9391 565.035 77.4201 564.909 76.7961 564.909C76.1721 564.909 75.6231 565.044 75.1491 565.314C74.6811 565.578 74.3151 565.956 74.0511 566.448C73.7931 566.934 73.6641 567.519 73.6641 568.203C73.6641 568.899 73.7901 569.499 74.0421 570.003C74.2941 570.501 74.6571 570.885 75.1311 571.155C75.6051 571.425 76.1721 571.56 76.8321 571.56C77.2941 571.56 77.6931 571.515 78.0291 571.425C78.3711 571.329 78.6501 571.203 78.8661 571.047C79.0881 570.891 79.2561 570.723 79.3701 570.543C79.4841 570.357 79.5501 570.174 79.5681 569.994H81.5121C81.4761 570.384 81.3471 570.771 81.1251 571.155C80.9091 571.533 80.6001 571.878 80.1981 572.19C79.8021 572.496 79.3161 572.742 78.7401 572.928C78.1701 573.108 77.5131 573.198 76.7691 573.198C75.7731 573.198 74.9001 572.988 74.1501 572.568C73.4001 572.148 72.8151 571.566 72.3951 570.822C71.9751 570.072 71.7651 569.214 71.7651 568.248C71.7651 567.264 71.9781 566.4 72.4041 565.656C72.8301 564.912 73.4211 564.333 74.1771 563.919C74.9331 563.499 75.8001 563.289 76.7781 563.289C77.7741 563.289 78.6351 563.499 79.3611 563.919C80.0931 564.339 80.6571 564.918 81.0531 565.656C81.4491 566.394 81.6471 567.243 81.6471 568.203C81.6471 568.317 81.6441 568.449 81.6381 568.599C81.6321 568.749 81.6231 568.851 81.6111 568.905H72.8451ZM87.2439 573.189C86.4579 573.189 85.7349 573 85.0749 572.622C84.4149 572.238 83.8869 571.674 83.4909 570.93C83.0949 570.186 82.8969 569.277 82.8969 568.203C82.8969 567.153 83.0979 566.262 83.4999 565.53C83.9019 564.798 84.4329 564.243 85.0929 563.865C85.7529 563.481 86.4699 563.289 87.2439 563.289C87.9879 563.289 88.6779 563.469 89.3139 563.829C89.9559 564.189 90.4719 564.69 90.8619 565.332C91.2519 565.968 91.4469 566.703 91.4469 567.537C91.4469 567.561 91.4469 567.585 91.4469 567.609C91.4469 567.627 91.4469 567.645 91.4469 567.663L90.3129 567.699C90.3129 567.681 90.3129 567.663 90.3129 567.645C90.3129 567.621 90.3129 567.6 90.3129 567.582C90.3129 567.084 90.1869 566.643 89.9349 566.259C89.6829 565.869 89.3499 565.563 88.9359 565.341C88.5279 565.113 88.0929 564.999 87.6309 564.999C86.8569 564.999 86.2089 565.26 85.6869 565.782C85.1649 566.298 84.9039 567.105 84.9039 568.203C84.9039 569.295 85.1649 570.105 85.6869 570.633C86.2149 571.155 86.8629 571.416 87.6309 571.416C88.1109 571.416 88.5549 571.302 88.9629 571.074C89.3709 570.84 89.6979 570.522 89.9439 570.12C90.1899 569.718 90.3129 569.259 90.3129 568.743L91.4469 568.788C91.4469 569.616 91.2579 570.363 90.8799 571.029C90.5079 571.695 90.0039 572.223 89.3679 572.613C88.7379 572.997 88.0299 573.189 87.2439 573.189ZM90.3129 573V558.933H92.2749V573H90.3129Z" fill="black"/>
<rect x="114" y="552" width="98" height="29" rx="14.5" fill="white"/>
<path d="M127.842 573.189C126.906 573.189 126.099 573.042 125.421 572.748C124.749 572.454 124.227 572.01 123.855 571.416C123.489 570.816 123.306 570.075 123.306 569.193C123.306 569.079 123.306 568.98 123.306 568.896C123.306 568.812 123.306 568.716 123.306 568.608H125.259C125.259 568.71 125.259 568.8 125.259 568.878C125.259 568.95 125.259 569.043 125.259 569.157C125.259 569.973 125.478 570.573 125.916 570.957C126.354 571.335 126.993 571.524 127.833 571.524C128.691 571.524 129.345 571.38 129.795 571.092C130.245 570.798 130.47 570.327 130.47 569.679C130.47 569.217 130.329 568.83 130.047 568.518C129.771 568.2 129.387 567.927 128.895 567.699C128.409 567.471 127.848 567.258 127.212 567.06C126.498 566.838 125.853 566.556 125.277 566.214C124.701 565.866 124.242 565.434 123.9 564.918C123.564 564.396 123.396 563.76 123.396 563.01C123.396 562.272 123.582 561.645 123.954 561.129C124.326 560.613 124.842 560.223 125.502 559.959C126.162 559.689 126.918 559.554 127.77 559.554C128.676 559.554 129.465 559.695 130.137 559.977C130.815 560.253 131.34 560.673 131.712 561.237C132.09 561.795 132.279 562.5 132.279 563.352C132.279 563.472 132.279 563.577 132.279 563.667C132.279 563.751 132.279 563.856 132.279 563.982H130.317C130.317 563.88 130.317 563.787 130.317 563.703C130.317 563.619 130.317 563.529 130.317 563.433C130.317 562.653 130.104 562.089 129.678 561.741C129.258 561.393 128.634 561.219 127.806 561.219C127.002 561.219 126.381 561.36 125.943 561.642C125.511 561.924 125.295 562.38 125.295 563.01C125.295 563.478 125.433 563.868 125.709 564.18C125.991 564.492 126.375 564.759 126.861 564.981C127.353 565.203 127.911 565.419 128.535 565.629C129.327 565.893 130.008 566.19 130.578 566.52C131.154 566.85 131.598 567.261 131.91 567.753C132.222 568.245 132.378 568.866 132.378 569.616C132.378 570.372 132.192 571.017 131.82 571.551C131.448 572.085 130.923 572.493 130.245 572.775C129.567 573.051 128.766 573.189 127.842 573.189ZM133.992 573V563.442H135.918V573H133.992ZM134.964 561.462C134.628 561.462 134.337 561.372 134.091 561.192C133.851 561.006 133.731 560.751 133.731 560.427C133.731 560.109 133.851 559.86 134.091 559.68C134.337 559.494 134.628 559.401 134.964 559.401C135.294 559.401 135.579 559.494 135.819 559.68C136.065 559.86 136.188 560.109 136.188 560.427C136.188 560.751 136.065 561.006 135.819 561.192C135.579 561.372 135.294 561.462 134.964 561.462ZM143.891 573V568.95C143.891 568.584 143.891 568.269 143.891 568.005C143.891 567.735 143.891 567.507 143.891 567.321C143.891 567.087 143.873 566.838 143.837 566.574C143.807 566.31 143.735 566.064 143.621 565.836C143.513 565.602 143.342 565.413 143.108 565.269C142.874 565.125 142.553 565.053 142.145 565.053C141.737 565.053 141.392 565.134 141.11 565.296C140.828 565.458 140.6 565.674 140.426 565.944C140.252 566.208 140.126 566.505 140.048 566.835C139.97 567.159 139.931 567.486 139.931 567.816L139.103 567.366C139.103 566.616 139.25 565.935 139.544 565.323C139.844 564.705 140.264 564.213 140.804 563.847C141.35 563.475 141.992 563.289 142.73 563.289C143.48 563.289 144.08 563.445 144.53 563.757C144.986 564.063 145.316 564.483 145.52 565.017C145.724 565.545 145.826 566.145 145.826 566.817C145.826 567.063 145.826 567.384 145.826 567.78C145.826 568.176 145.826 568.635 145.826 569.157V573H143.891ZM137.978 573V563.442H139.931V573H137.978ZM149.777 573V568.959C149.777 568.563 149.777 568.233 149.777 567.969C149.777 567.699 149.777 567.474 149.777 567.294C149.777 567.048 149.762 566.796 149.732 566.538C149.702 566.274 149.63 566.031 149.516 565.809C149.402 565.587 149.225 565.407 148.985 565.269C148.751 565.125 148.424 565.053 148.004 565.053C147.59 565.053 147.242 565.134 146.96 565.296C146.684 565.452 146.462 565.662 146.294 565.926C146.126 566.184 146.006 566.469 145.934 566.781C145.862 567.093 145.826 567.402 145.826 567.708L144.998 567.276C144.998 566.556 145.142 565.893 145.43 565.287C145.724 564.681 146.138 564.198 146.672 563.838C147.212 563.472 147.851 563.289 148.589 563.289C149.309 563.289 149.9 563.433 150.362 563.721C150.824 564.009 151.166 564.408 151.388 564.918C151.61 565.428 151.721 566.019 151.721 566.691C151.721 566.949 151.721 567.273 151.721 567.663C151.721 568.053 151.721 568.506 151.721 569.022V573H149.777ZM153.662 576.933V563.442H155.615V576.933H153.662ZM158.693 573.189C157.949 573.189 157.259 573.003 156.623 572.631C155.987 572.253 155.471 571.737 155.075 571.083C154.685 570.429 154.49 569.688 154.49 568.86C154.49 568.836 154.49 568.818 154.49 568.806C154.49 568.788 154.49 568.77 154.49 568.752L155.624 568.725C155.624 568.737 155.624 568.752 155.624 568.77C155.624 568.782 155.624 568.797 155.624 568.815C155.624 569.307 155.75 569.751 156.002 570.147C156.26 570.537 156.593 570.846 157.001 571.074C157.409 571.302 157.847 571.416 158.315 571.416C159.083 571.416 159.728 571.155 160.25 570.633C160.778 570.105 161.042 569.295 161.042 568.203C161.042 567.105 160.781 566.298 160.259 565.782C159.737 565.26 159.089 564.999 158.315 564.999C157.847 564.999 157.409 565.113 157.001 565.341C156.593 565.563 156.26 565.869 156.002 566.259C155.75 566.643 155.624 567.084 155.624 567.582L154.49 567.537C154.49 566.703 154.685 565.968 155.075 565.332C155.471 564.69 155.987 564.189 156.623 563.829C157.259 563.469 157.949 563.289 158.693 563.289C159.467 563.289 160.184 563.481 160.844 563.865C161.504 564.243 162.035 564.798 162.437 565.53C162.845 566.262 163.049 567.153 163.049 568.203C163.049 569.277 162.851 570.186 162.455 570.93C162.059 571.674 161.531 572.238 160.871 572.622C160.211 573 159.485 573.189 158.693 573.189ZM167.236 573.144C166.954 573.144 166.663 573.12 166.363 573.072C166.063 573.024 165.784 572.919 165.526 572.757C165.274 572.595 165.067 572.349 164.905 572.019C164.749 571.689 164.671 571.245 164.671 570.687C164.671 570.579 164.671 570.471 164.671 570.363C164.671 570.249 164.671 570.129 164.671 570.003V558.933H166.624V569.823C166.624 569.907 166.624 569.988 166.624 570.066C166.624 570.138 166.624 570.207 166.624 570.273C166.624 570.621 166.657 570.888 166.723 571.074C166.795 571.254 166.894 571.377 167.02 571.443C167.146 571.509 167.299 571.542 167.479 571.542C167.647 571.542 167.803 571.53 167.947 571.506C168.097 571.476 168.217 571.446 168.307 571.416V573C168.187 573.042 168.04 573.075 167.866 573.099C167.698 573.129 167.488 573.144 167.236 573.144ZM169.256 573V563.442H171.182V573H169.256ZM170.228 561.462C169.892 561.462 169.601 561.372 169.355 561.192C169.115 561.006 168.995 560.751 168.995 560.427C168.995 560.109 169.115 559.86 169.355 559.68C169.601 559.494 169.892 559.401 170.228 559.401C170.558 559.401 170.843 559.494 171.083 559.68C171.329 559.86 171.452 560.109 171.452 560.427C171.452 560.751 171.329 561.006 171.083 561.192C170.843 561.372 170.558 561.462 170.228 561.462ZM177.876 573.189C176.916 573.189 176.055 572.988 175.293 572.586C174.537 572.178 173.94 571.599 173.502 570.849C173.07 570.099 172.854 569.217 172.854 568.203C172.854 567.189 173.07 566.316 173.502 565.584C173.94 564.846 174.537 564.279 175.293 563.883C176.055 563.487 176.916 563.289 177.876 563.289C178.602 563.289 179.247 563.4 179.811 563.622C180.375 563.838 180.852 564.126 181.242 564.486C181.632 564.846 181.929 565.242 182.133 565.674C182.337 566.106 182.439 566.538 182.439 566.97C182.439 566.976 182.439 566.985 182.439 566.997C182.439 567.009 182.439 567.021 182.439 567.033H180.504C180.504 567.003 180.501 566.97 180.495 566.934C180.489 566.892 180.483 566.853 180.477 566.817C180.429 566.463 180.291 566.148 180.063 565.872C179.835 565.596 179.535 565.377 179.163 565.215C178.791 565.053 178.356 564.972 177.858 564.972C177.312 564.972 176.808 565.092 176.346 565.332C175.89 565.566 175.524 565.923 175.248 566.403C174.972 566.883 174.834 567.483 174.834 568.203C174.834 568.923 174.969 569.529 175.239 570.021C175.515 570.507 175.881 570.876 176.337 571.128C176.799 571.38 177.306 571.506 177.858 571.506C178.452 571.506 178.938 571.416 179.316 571.236C179.694 571.05 179.979 570.804 180.171 570.498C180.363 570.186 180.474 569.85 180.504 569.49H182.439C182.439 569.922 182.34 570.36 182.142 570.804C181.944 571.242 181.653 571.641 181.269 572.001C180.885 572.361 180.408 572.649 179.838 572.865C179.274 573.081 178.62 573.189 177.876 573.189ZM184.084 573V563.442H186.01V573H184.084ZM185.056 561.462C184.72 561.462 184.429 561.372 184.183 561.192C183.943 561.006 183.823 560.751 183.823 560.427C183.823 560.109 183.943 559.86 184.183 559.68C184.429 559.494 184.72 559.401 185.056 559.401C185.386 559.401 185.671 559.494 185.911 559.68C186.157 559.86 186.28 560.109 186.28 560.427C186.28 560.751 186.157 561.006 185.911 561.192C185.671 561.372 185.386 561.462 185.056 561.462ZM189.33 573V565.062H187.188V563.442H188.196C188.472 563.442 188.685 563.43 188.835 563.406C188.991 563.376 189.105 563.319 189.177 563.235C189.249 563.145 189.291 563.013 189.303 562.839C189.321 562.659 189.33 562.419 189.33 562.119V560.913H191.283V563.442H193.893V565.062H191.283V573H189.33ZM195.67 577.068C195.412 577.068 195.175 577.053 194.959 577.023C194.749 576.999 194.62 576.975 194.572 576.951V575.358C194.65 575.394 194.779 575.424 194.959 575.448C195.145 575.472 195.337 575.484 195.535 575.484C195.889 575.484 196.192 575.412 196.444 575.268C196.702 575.124 196.918 574.923 197.092 574.665C197.272 574.413 197.416 574.125 197.524 573.801L197.767 573.081L194.473 563.442H196.507L198.964 571.542H198.712L201.106 563.442H203.113L199.684 573.702C199.474 574.344 199.216 574.917 198.91 575.421C198.604 575.931 198.196 576.333 197.686 576.627C197.176 576.921 196.504 577.068 195.67 577.068Z" fill="black"/>
<rect x="224" y="552" width="100" height="29" rx="14.5" fill="white"/>
<path d="M243.577 568.302C243.577 568.854 243.475 569.415 243.271 569.985C243.067 570.555 242.758 571.083 242.344 571.569C241.93 572.055 241.408 572.448 240.778 572.748C240.148 573.042 239.407 573.189 238.555 573.189C237.397 573.189 236.41 572.898 235.594 572.316C234.784 571.728 234.166 570.921 233.74 569.895C233.314 568.869 233.101 567.693 233.101 566.367C233.101 565.035 233.314 563.859 233.74 562.839C234.166 561.813 234.784 561.009 235.594 560.427C236.41 559.845 237.397 559.554 238.555 559.554C239.521 559.554 240.343 559.743 241.021 560.121C241.705 560.499 242.248 560.985 242.65 561.579C243.058 562.173 243.328 562.791 243.46 563.433C243.538 563.781 243.577 564.111 243.577 564.423H241.615C241.615 564.255 241.6 564.072 241.57 563.874C241.504 563.394 241.342 562.953 241.084 562.551C240.832 562.149 240.493 561.828 240.067 561.588C239.647 561.348 239.143 561.228 238.555 561.228C237.871 561.228 237.268 561.42 236.746 561.804C236.224 562.182 235.816 562.752 235.522 563.514C235.234 564.276 235.09 565.227 235.09 566.367C235.09 567.501 235.234 568.452 235.522 569.22C235.816 569.982 236.224 570.558 236.746 570.948C237.268 571.332 237.871 571.524 238.555 571.524C239.053 571.524 239.491 571.434 239.869 571.254C240.247 571.074 240.565 570.831 240.823 570.525C241.081 570.219 241.276 569.874 241.408 569.49C241.546 569.106 241.615 568.71 241.615 568.302H243.577ZM249.783 573.18C248.799 573.18 247.929 572.967 247.173 572.541C246.423 572.115 245.835 571.53 245.409 570.786C244.989 570.036 244.779 569.178 244.779 568.212C244.779 567.252 244.989 566.403 245.409 565.665C245.835 564.921 246.423 564.342 247.173 563.928C247.929 563.508 248.799 563.298 249.783 563.298C250.767 563.298 251.634 563.508 252.384 563.928C253.14 564.342 253.728 564.921 254.148 565.665C254.574 566.403 254.787 567.252 254.787 568.212C254.787 569.178 254.574 570.036 254.148 570.786C253.728 571.53 253.14 572.115 252.384 572.541C251.634 572.967 250.767 573.18 249.783 573.18ZM249.783 571.506C250.383 571.506 250.911 571.371 251.367 571.101C251.823 570.831 252.18 570.45 252.438 569.958C252.696 569.46 252.825 568.878 252.825 568.212C252.825 567.552 252.696 566.979 252.438 566.493C252.18 566.007 251.823 565.632 251.367 565.368C250.911 565.104 250.383 564.972 249.783 564.972C249.189 564.972 248.661 565.104 248.199 565.368C247.743 565.632 247.386 566.007 247.128 566.493C246.87 566.979 246.741 567.552 246.741 568.212C246.741 568.878 246.87 569.46 247.128 569.958C247.386 570.45 247.743 570.831 248.199 571.101C248.661 571.371 249.189 571.506 249.783 571.506ZM262.334 573V568.95C262.334 568.584 262.334 568.269 262.334 568.005C262.334 567.735 262.334 567.507 262.334 567.321C262.334 567.087 262.316 566.838 262.28 566.574C262.25 566.31 262.178 566.064 262.064 565.836C261.956 565.602 261.785 565.413 261.551 565.269C261.317 565.125 260.996 565.053 260.588 565.053C260.18 565.053 259.835 565.134 259.553 565.296C259.271 565.458 259.043 565.674 258.869 565.944C258.695 566.208 258.569 566.505 258.491 566.835C258.413 567.159 258.374 567.486 258.374 567.816L257.546 567.366C257.546 566.616 257.693 565.935 257.987 565.323C258.287 564.705 258.707 564.213 259.247 563.847C259.793 563.475 260.435 563.289 261.173 563.289C261.923 563.289 262.523 563.445 262.973 563.757C263.429 564.063 263.759 564.483 263.963 565.017C264.167 565.545 264.269 566.145 264.269 566.817C264.269 567.063 264.269 567.384 264.269 567.78C264.269 568.176 264.269 568.635 264.269 569.157V573H262.334ZM256.421 573V563.442H258.374V573H256.421ZM268.22 573V568.959C268.22 568.563 268.22 568.233 268.22 567.969C268.22 567.699 268.22 567.474 268.22 567.294C268.22 567.048 268.205 566.796 268.175 566.538C268.145 566.274 268.073 566.031 267.959 565.809C267.845 565.587 267.668 565.407 267.428 565.269C267.194 565.125 266.867 565.053 266.447 565.053C266.033 565.053 265.685 565.134 265.403 565.296C265.127 565.452 264.905 565.662 264.737 565.926C264.569 566.184 264.449 566.469 264.377 566.781C264.305 567.093 264.269 567.402 264.269 567.708L263.441 567.276C263.441 566.556 263.585 565.893 263.873 565.287C264.167 564.681 264.581 564.198 265.115 563.838C265.655 563.472 266.294 563.289 267.032 563.289C267.752 563.289 268.343 563.433 268.805 563.721C269.267 564.009 269.609 564.408 269.831 564.918C270.053 565.428 270.164 566.019 270.164 566.691C270.164 566.949 270.164 567.273 270.164 567.663C270.164 568.053 270.164 568.506 270.164 569.022V573H268.22ZM278.018 573V568.95C278.018 568.584 278.018 568.269 278.018 568.005C278.018 567.735 278.018 567.507 278.018 567.321C278.018 567.087 278 566.838 277.964 566.574C277.934 566.31 277.862 566.064 277.748 565.836C277.64 565.602 277.469 565.413 277.235 565.269C277.001 565.125 276.68 565.053 276.272 565.053C275.864 565.053 275.519 565.134 275.237 565.296C274.955 565.458 274.727 565.674 274.553 565.944C274.379 566.208 274.253 566.505 274.175 566.835C274.097 567.159 274.058 567.486 274.058 567.816L273.23 567.366C273.23 566.616 273.377 565.935 273.671 565.323C273.971 564.705 274.391 564.213 274.931 563.847C275.477 563.475 276.119 563.289 276.857 563.289C277.607 563.289 278.207 563.445 278.657 563.757C279.113 564.063 279.443 564.483 279.647 565.017C279.851 565.545 279.953 566.145 279.953 566.817C279.953 567.063 279.953 567.384 279.953 567.78C279.953 568.176 279.953 568.635 279.953 569.157V573H278.018ZM272.105 573V563.442H274.058V573H272.105ZM283.904 573V568.959C283.904 568.563 283.904 568.233 283.904 567.969C283.904 567.699 283.904 567.474 283.904 567.294C283.904 567.048 283.889 566.796 283.859 566.538C283.829 566.274 283.757 566.031 283.643 565.809C283.529 565.587 283.352 565.407 283.112 565.269C282.878 565.125 282.551 565.053 282.131 565.053C281.717 565.053 281.369 565.134 281.087 565.296C280.811 565.452 280.589 565.662 280.421 565.926C280.253 566.184 280.133 566.469 280.061 566.781C279.989 567.093 279.953 567.402 279.953 567.708L279.125 567.276C279.125 566.556 279.269 565.893 279.557 565.287C279.851 564.681 280.265 564.198 280.799 563.838C281.339 563.472 281.978 563.289 282.716 563.289C283.436 563.289 284.027 563.433 284.489 563.721C284.951 564.009 285.293 564.408 285.515 564.918C285.737 565.428 285.848 566.019 285.848 566.691C285.848 566.949 285.848 567.273 285.848 567.663C285.848 568.053 285.848 568.506 285.848 569.022V573H283.904ZM288.483 568.905V567.384H295.521L295.251 567.834C295.251 567.798 295.251 567.762 295.251 567.726C295.251 567.684 295.251 567.648 295.251 567.618C295.251 567.132 295.146 566.685 294.936 566.277C294.726 565.863 294.411 565.533 293.991 565.287C293.577 565.035 293.058 564.909 292.434 564.909C291.81 564.909 291.261 565.044 290.787 565.314C290.319 565.578 289.953 565.956 289.689 566.448C289.431 566.934 289.302 567.519 289.302 568.203C289.302 568.899 289.428 569.499 289.68 570.003C289.932 570.501 290.295 570.885 290.769 571.155C291.243 571.425 291.81 571.56 292.47 571.56C292.932 571.56 293.331 571.515 293.667 571.425C294.009 571.329 294.288 571.203 294.504 571.047C294.726 570.891 294.894 570.723 295.008 570.543C295.122 570.357 295.188 570.174 295.206 569.994H297.15C297.114 570.384 296.985 570.771 296.763 571.155C296.547 571.533 296.238 571.878 295.836 572.19C295.44 572.496 294.954 572.742 294.378 572.928C293.808 573.108 293.151 573.198 292.407 573.198C291.411 573.198 290.538 572.988 289.788 572.568C289.038 572.148 288.453 571.566 288.033 570.822C287.613 570.072 287.403 569.214 287.403 568.248C287.403 567.264 287.616 566.4 288.042 565.656C288.468 564.912 289.059 564.333 289.815 563.919C290.571 563.499 291.438 563.289 292.416 563.289C293.412 563.289 294.273 563.499 294.999 563.919C295.731 564.339 296.295 564.918 296.691 565.656C297.087 566.394 297.285 567.243 297.285 568.203C297.285 568.317 297.282 568.449 297.276 568.599C297.27 568.749 297.261 568.851 297.249 568.905H288.483ZM305.726 573V568.59C305.726 568.332 305.726 568.113 305.726 567.933C305.726 567.753 305.726 567.585 305.726 567.429C305.726 566.961 305.654 566.55 305.51 566.196C305.366 565.836 305.129 565.557 304.799 565.359C304.469 565.155 304.028 565.053 303.476 565.053C302.99 565.053 302.549 565.173 302.153 565.413C301.763 565.653 301.451 565.98 301.217 566.394C300.989 566.802 300.875 567.267 300.875 567.789L300.038 567.375C300.038 566.601 300.221 565.908 300.587 565.296C300.953 564.678 301.442 564.189 302.054 563.829C302.672 563.469 303.347 563.289 304.079 563.289C304.835 563.289 305.48 563.436 306.014 563.73C306.554 564.018 306.965 564.432 307.247 564.972C307.535 565.506 307.679 566.145 307.679 566.889C307.679 567.165 307.679 567.471 307.679 567.807C307.679 568.143 307.679 568.467 307.679 568.779V573H305.726ZM298.922 573V563.442H300.875V573H298.922ZM310.61 573V565.062H308.468V563.442H309.476C309.752 563.442 309.965 563.43 310.115 563.406C310.271 563.376 310.385 563.319 310.457 563.235C310.529 563.145 310.571 563.013 310.583 562.839C310.601 562.659 310.61 562.419 310.61 562.119V560.913H312.563V563.442H315.173V565.062H312.563V573H310.61Z" fill="black"/>
</g>
<defs>
<clipPath id="clip0_3158_5808">
<rect width="354" height="581" fill="white"/>
</clipPath>
</defs>
</svg>
