<svg width="64" height="64" viewBox="0 0 64 64" fill="none" xmlns="http://www.w3.org/2000/svg">
<path fill-rule="evenodd" clip-rule="evenodd" d="M30.8412 54.5373C31.6339 55.7142 33.3661 55.7142 34.1588 54.5373L45.5077 37.6886C50.0118 38.828 54.0575 40.4471 57.56 42.24C61.56 44.28 64 48.4 64 52.88V64H0V52.88C0 48.4 2.44 44.28 6.44 42.24C10.1653 40.333 14.5052 38.6227 19.3575 37.4771C19.3843 37.5243 19.4132 37.5711 19.4443 37.6173L30.8412 54.5373Z" fill="white"/>
<path d="M32 32C40.84 32 48 24.84 48 16C48 7.16 40.84 0 32 0C23.16 0 16 7.16 16 16C16 24.84 23.16 32 32 32Z" fill="white"/>
</svg>
