<svg width="64" height="64" viewBox="0 0 64 64" fill="none" xmlns="http://www.w3.org/2000/svg">
<path d="M19.3584 37.478C19.3849 37.5249 19.4134 37.5718 19.4443 37.6177L30.8408 54.5376C31.6336 55.7145 33.3664 55.7145 34.1592 54.5376L45.5068 37.689C50.011 38.8283 54.057 40.4468 57.5596 42.2397C61.5596 44.2797 64 48.4004 64 52.8804V64.0005H0V52.8804C0 48.4004 2.44043 44.2797 6.44043 42.2397C10.1658 40.3328 14.506 38.6236 19.3584 37.478Z" fill="white"/>
<path d="M32 32C40.84 32 48 24.84 48 16C48 7.16 40.84 0 32 0C23.16 0 16 7.16 16 16C16 24.84 23.16 32 32 32Z" fill="white"/>
</svg>
