<svg width="354" height="581" viewBox="0 0 354 581" fill="none" xmlns="http://www.w3.org/2000/svg">
<g clip-path="url(#clip0_3158_5883)">
<path d="M79.0183 526V496.336H69.0343V492.4H93.7543V496.336H83.7703V526H79.0183ZM104.14 526.576C101.804 526.576 99.7403 526.064 97.9483 525.04C96.1563 523.984 94.7483 522.528 93.7243 520.672C92.7003 518.816 92.1883 516.64 92.1883 514.144C92.1883 511.648 92.6843 509.472 93.6763 507.616C94.7003 505.728 96.1083 504.256 97.9003 503.2C99.7243 502.144 101.82 501.616 104.188 501.616C106.556 501.616 108.588 502.144 110.284 503.2C111.98 504.224 113.292 505.584 114.22 507.28C115.18 508.976 115.66 510.864 115.66 512.944C115.66 513.264 115.66 513.616 115.66 514C115.66 514.384 115.628 514.784 115.564 515.2H95.6923V511.84H110.86C110.764 509.792 110.092 508.208 108.844 507.088C107.596 505.936 106.028 505.36 104.14 505.36C102.86 505.36 101.66 505.648 100.54 506.224C99.4523 506.8 98.5723 507.664 97.9003 508.816C97.2283 509.968 96.8923 511.424 96.8923 513.184V514.528C96.8923 516.288 97.2283 517.776 97.9003 518.992C98.5723 520.176 99.4523 521.072 100.54 521.68C101.66 522.288 102.844 522.592 104.092 522.592C105.628 522.592 106.892 522.256 107.884 521.584C108.908 520.88 109.66 519.936 110.14 518.752H114.988C114.54 520.256 113.82 521.6 112.828 522.784C111.836 523.936 110.604 524.864 109.132 525.568C107.692 526.24 106.028 526.576 104.14 526.576ZM125.461 526.576C123.573 526.576 121.989 526.256 120.709 525.616C119.461 524.944 118.533 524.048 117.925 522.928C117.317 521.808 117.013 520.592 117.013 519.28C117.013 517.712 117.413 516.368 118.213 515.248C119.045 514.128 120.229 513.264 121.765 512.656C123.333 512.048 125.205 511.744 127.381 511.744H133.669C133.669 510.304 133.445 509.12 132.997 508.192C132.581 507.232 131.957 506.528 131.125 506.08C130.293 505.6 129.285 505.36 128.101 505.36C126.629 505.36 125.349 505.728 124.261 506.464C123.205 507.168 122.565 508.288 122.341 509.824H117.541C117.733 508.064 118.293 506.592 119.221 505.408C120.181 504.192 121.429 503.264 122.965 502.624C124.501 501.952 126.213 501.616 128.101 501.616C130.373 501.616 132.277 502.016 133.813 502.816C135.381 503.616 136.549 504.752 137.317 506.224C138.085 507.664 138.469 509.376 138.469 511.36V526H134.485L134.005 522.016H133.813C133.365 522.784 132.837 523.456 132.229 524.032C131.621 524.576 130.965 525.04 130.261 525.424C129.589 525.808 128.837 526.096 128.005 526.288C127.205 526.48 126.357 526.576 125.461 526.576ZM126.613 522.688C127.733 522.688 128.709 522.48 129.541 522.064C130.405 521.648 131.125 521.088 131.701 520.384C132.309 519.648 132.757 518.832 133.045 517.936C133.365 517.04 133.541 516.112 133.573 515.152H127.861C126.453 515.152 125.317 515.312 124.453 515.632C123.621 515.952 123.013 516.4 122.629 516.976C122.245 517.552 122.053 518.224 122.053 518.992C122.053 519.728 122.229 520.384 122.581 520.96C122.965 521.504 123.493 521.936 124.165 522.256C124.869 522.544 125.685 522.688 126.613 522.688ZM140.999 526V502.192H145.223L145.655 506.128H145.847C146.615 504.624 147.655 503.504 148.967 502.768C150.311 502 151.783 501.616 153.383 501.616C154.631 501.616 155.751 501.792 156.743 502.144C157.767 502.496 158.647 503.024 159.383 503.728C160.119 504.432 160.727 505.328 161.207 506.416H161.399C162.263 504.848 163.367 503.664 164.711 502.864C166.055 502.032 167.719 501.616 169.703 501.616C171.495 501.616 173.047 502.016 174.359 502.816C175.703 503.584 176.759 504.752 177.527 506.32C178.295 507.888 178.679 509.872 178.679 512.272V526H173.927V512.752C173.927 510.448 173.463 508.704 172.535 507.52C171.607 506.304 170.199 505.696 168.311 505.696C167.095 505.696 166.039 505.952 165.143 506.464C164.247 506.944 163.527 507.712 162.983 508.768C162.471 509.792 162.215 511.12 162.215 512.752V526H157.463V512.752C157.463 510.448 156.999 508.704 156.071 507.52C155.143 506.304 153.783 505.696 151.991 505.696C150.903 505.696 149.895 506.016 148.967 506.656C148.039 507.264 147.271 508.16 146.663 509.344C146.087 510.528 145.799 511.968 145.799 513.664V526H140.999ZM190.034 526V492.4H194.834V522.208H210.194V526H190.034ZM221.954 526.576C219.618 526.576 217.554 526.064 215.762 525.04C213.97 523.984 212.562 522.528 211.538 520.672C210.514 518.816 210.002 516.64 210.002 514.144C210.002 511.648 210.498 509.472 211.49 507.616C212.514 505.728 213.922 504.256 215.714 503.2C217.538 502.144 219.634 501.616 222.002 501.616C224.37 501.616 226.402 502.144 228.098 503.2C229.794 504.224 231.106 505.584 232.034 507.28C232.994 508.976 233.474 510.864 233.474 512.944C233.474 513.264 233.474 513.616 233.474 514C233.474 514.384 233.442 514.784 233.378 515.2H213.506V511.84H228.674C228.578 509.792 227.906 508.208 226.658 507.088C225.41 505.936 223.842 505.36 221.954 505.36C220.674 505.36 219.474 505.648 218.354 506.224C217.266 506.8 216.386 507.664 215.714 508.816C215.042 509.968 214.706 511.424 214.706 513.184V514.528C214.706 516.288 215.042 517.776 215.714 518.992C216.386 520.176 217.266 521.072 218.354 521.68C219.474 522.288 220.658 522.592 221.906 522.592C223.442 522.592 224.706 522.256 225.698 521.584C226.722 520.88 227.474 519.936 227.954 518.752H232.802C232.354 520.256 231.634 521.6 230.642 522.784C229.65 523.936 228.418 524.864 226.946 525.568C225.506 526.24 223.842 526.576 221.954 526.576ZM243.275 526.576C241.387 526.576 239.803 526.256 238.523 525.616C237.275 524.944 236.347 524.048 235.739 522.928C235.131 521.808 234.827 520.592 234.827 519.28C234.827 517.712 235.227 516.368 236.027 515.248C236.859 514.128 238.043 513.264 239.579 512.656C241.147 512.048 243.019 511.744 245.195 511.744H251.483C251.483 510.304 251.259 509.12 250.811 508.192C250.395 507.232 249.771 506.528 248.939 506.08C248.107 505.6 247.099 505.36 245.915 505.36C244.443 505.36 243.163 505.728 242.075 506.464C241.019 507.168 240.379 508.288 240.155 509.824H235.355C235.547 508.064 236.107 506.592 237.035 505.408C237.995 504.192 239.243 503.264 240.779 502.624C242.315 501.952 244.027 501.616 245.915 501.616C248.187 501.616 250.091 502.016 251.627 502.816C253.195 503.616 254.363 504.752 255.131 506.224C255.899 507.664 256.283 509.376 256.283 511.36V526H252.299L251.819 522.016H251.627C251.179 522.784 250.651 523.456 250.043 524.032C249.435 524.576 248.779 525.04 248.075 525.424C247.403 525.808 246.651 526.096 245.819 526.288C245.019 526.48 244.171 526.576 243.275 526.576ZM244.427 522.688C245.547 522.688 246.523 522.48 247.355 522.064C248.219 521.648 248.939 521.088 249.515 520.384C250.123 519.648 250.571 518.832 250.859 517.936C251.179 517.04 251.355 516.112 251.387 515.152H245.675C244.267 515.152 243.131 515.312 242.267 515.632C241.435 515.952 240.827 516.4 240.443 516.976C240.059 517.552 239.867 518.224 239.867 518.992C239.867 519.728 240.043 520.384 240.395 520.96C240.779 521.504 241.307 521.936 241.979 522.256C242.683 522.544 243.499 522.688 244.427 522.688ZM269.277 526.576C267.005 526.576 265.021 526.032 263.325 524.944C261.661 523.856 260.365 522.368 259.437 520.48C258.541 518.592 258.093 516.464 258.093 514.096C258.093 511.728 258.541 509.6 259.437 507.712C260.365 505.824 261.693 504.336 263.421 503.248C265.181 502.16 267.277 501.616 269.709 501.616C271.821 501.616 273.581 502.048 274.989 502.912C276.397 503.776 277.485 504.752 278.253 505.84V492.4H283.053V526H279.021L278.685 521.536H278.493C277.821 522.656 277.021 523.584 276.093 524.32C275.165 525.056 274.125 525.616 272.973 526C271.853 526.384 270.621 526.576 269.277 526.576ZM270.573 522.496C272.109 522.496 273.453 522.144 274.605 521.44C275.757 520.736 276.637 519.76 277.245 518.512C277.885 517.232 278.205 515.76 278.205 514.096C278.205 512.4 277.885 510.928 277.245 509.68C276.637 508.432 275.757 507.456 274.605 506.752C273.453 506.048 272.093 505.696 270.525 505.696C268.989 505.696 267.645 506.048 266.493 506.752C265.373 507.456 264.493 508.448 263.853 509.728C263.245 510.976 262.941 512.432 262.941 514.096C262.941 515.76 263.245 517.232 263.853 518.512C264.493 519.76 265.373 520.736 266.493 521.44C267.645 522.144 269.005 522.496 270.573 522.496Z" fill="#306032"/>
<path d="M95.254 451V377.038L80.89 380.314V371.116L99.916 362.8H108.106V451H95.254ZM114.2 451V441.928C119.996 437.392 125.498 432.814 130.706 428.194C135.998 423.574 140.702 418.996 144.818 414.46C148.934 409.84 152.168 405.346 154.52 400.978C156.872 396.526 158.048 392.284 158.048 388.252C158.048 385.396 157.544 382.75 156.536 380.314C155.528 377.878 153.932 375.904 151.748 374.392C149.648 372.796 146.75 371.998 143.054 371.998C139.526 371.998 136.544 372.796 134.108 374.392C131.672 375.988 129.866 378.13 128.69 380.818C127.514 383.422 126.926 386.32 126.926 389.512H114.704C114.788 383.464 116.09 378.34 118.61 374.14C121.13 369.94 124.532 366.748 128.816 364.564C133.1 362.38 137.93 361.288 143.306 361.288C148.85 361.288 153.638 362.338 157.67 364.438C161.786 366.454 164.978 369.436 167.246 373.384C169.514 377.248 170.648 381.994 170.648 387.622C170.648 391.654 169.85 395.686 168.254 399.718C166.658 403.666 164.516 407.53 161.828 411.31C159.14 415.09 156.116 418.744 152.756 422.272C149.396 425.716 145.952 428.992 142.424 432.1C138.896 435.208 135.536 438.022 132.344 440.542H173.42V451H114.2ZM192.765 451L243.543 362.8H256.017L205.239 451H192.765ZM250.095 452.512C246.147 452.512 242.619 451.63 239.511 449.866C236.403 448.102 233.925 445.624 232.077 442.432C230.229 439.156 229.305 435.334 229.305 430.966C229.305 426.43 230.229 422.566 232.077 419.374C233.925 416.182 236.403 413.704 239.511 411.94C242.619 410.176 246.105 409.294 249.969 409.294C254.001 409.294 257.529 410.176 260.553 411.94C263.661 413.704 266.097 416.182 267.861 419.374C269.709 422.566 270.633 426.43 270.633 430.966C270.633 435.334 269.709 439.156 267.861 442.432C266.097 445.624 263.661 448.102 260.553 449.866C257.445 451.63 253.959 452.512 250.095 452.512ZM249.843 443.188C251.775 443.188 253.497 442.726 255.009 441.802C256.605 440.878 257.865 439.534 258.789 437.77C259.797 435.922 260.301 433.612 260.301 430.84C260.301 428.068 259.839 425.8 258.915 424.036C257.991 422.188 256.731 420.802 255.135 419.878C253.623 418.954 251.901 418.492 249.969 418.492C248.205 418.492 246.525 418.954 244.929 419.878C243.333 420.802 242.031 422.188 241.023 424.036C240.099 425.8 239.637 428.068 239.637 430.84C239.637 433.612 240.099 435.922 241.023 437.77C242.031 439.534 243.291 440.878 244.803 441.802C246.399 442.726 248.079 443.188 249.843 443.188ZM199.569 404.632C195.621 404.632 192.093 403.75 188.985 401.986C185.877 400.222 183.399 397.744 181.551 394.552C179.703 391.276 178.779 387.412 178.779 382.96C178.779 378.508 179.703 374.686 181.551 371.494C183.399 368.302 185.877 365.824 188.985 364.06C192.177 362.296 195.705 361.414 199.569 361.414C203.517 361.414 207.003 362.296 210.027 364.06C213.135 365.824 215.613 368.302 217.461 371.494C219.309 374.686 220.233 378.508 220.233 382.96C220.233 387.412 219.309 391.276 217.461 394.552C215.613 397.744 213.135 400.222 210.027 401.986C206.919 403.75 203.433 404.632 199.569 404.632ZM199.443 395.308C201.375 395.308 203.097 394.846 204.609 393.922C206.205 392.998 207.465 391.654 208.389 389.89C209.313 388.042 209.775 385.732 209.775 382.96C209.775 380.188 209.313 377.878 208.389 376.03C207.465 374.182 206.205 372.796 204.609 371.872C203.097 370.948 201.417 370.486 199.569 370.486C197.721 370.486 195.999 370.948 194.403 371.872C192.807 372.796 191.505 374.182 190.497 376.03C189.573 377.878 189.111 380.188 189.111 382.96C189.111 385.648 189.573 387.916 190.497 389.764C191.505 391.612 192.807 392.998 194.403 393.922C195.999 394.846 197.679 395.308 199.443 395.308Z" fill="#306032"/>
<path d="M263.069 17.147C261.229 19.3568 260.348 22.2673 260.135 25.1508C259.922 28.0344 260.322 30.9179 260.775 33.7745C262.269 42.8833 264.376 51.8843 266.91 60.7505C267.071 61.2895 267.204 61.8285 267.097 62.3675C266.991 62.9065 266.484 63.3915 265.95 63.3107C265.737 63.2837 265.55 63.149 265.363 63.0412C261.922 60.7506 259.388 57.2202 257.654 53.4473C255.894 49.6744 254.826 45.6051 253.733 41.5897C252.772 38.1133 251.812 34.61 251.439 30.9988C250.852 24.9622 252.159 18.6561 255.653 13.7245C259.148 8.79278 264.883 5.39722 270.885 5.39722C272.112 5.39722 273.366 5.55893 274.406 6.17876C275.447 6.82554 276.22 8.0382 276.034 9.25091C275.607 12.0806 272.299 11.7033 270.298 12.35C267.684 13.2124 264.803 15.0449 263.069 17.147Z" fill="#3C4043"/>
<path d="M269.258 153.995L272.246 148.686C275.687 148.982 279.102 149.44 282.489 150.033C285.264 150.518 288.278 151.273 289.985 153.537C291.586 155.666 291.586 158.576 291.506 161.244C290.999 180.89 290.199 200.536 289.131 220.155C288.144 238.13 284.143 250.553 282.676 268.501C282.089 275.481 281.609 274.295 280.329 287.204C280.222 288.201 280.329 287.635 279.902 288.201C279.662 288.066 279.395 287.958 279.048 287.931C277.901 287.851 278.088 288.902 276.941 288.821C276.674 288.794 276.461 288.848 276.247 288.902C275.74 287.608 275.42 285.91 275.314 284.186C272.939 248.909 276.807 224.628 270.058 189.864C267.764 177.952 265.017 165.34 269.258 153.995Z" fill="#FFC3B1"/>
<path d="M232.208 249.366C229.141 264.97 227.113 271.95 223.272 287.392C225.406 287.418 224.846 286.556 226.953 286.556C230.581 277.825 231.035 276.747 233.969 267.773C236.05 261.386 238.477 255.16 240.905 248.908C247.707 231.445 257.95 215.303 264.753 197.84C267.767 190.105 270.808 182.344 274.809 175.095C279.131 167.334 284.573 156.15 274.249 150.652C268.434 147.553 259.898 147.445 254.936 152.134C249.281 157.47 248.321 167.01 246.907 174.179C244.586 186.009 242.265 197.84 239.944 209.67C237.41 222.875 234.823 236.134 232.208 249.366Z" fill="#FFC3B1"/>
<path d="M223.884 285.614C223.431 285.668 222.951 285.749 222.604 286.072C222.337 286.315 222.204 286.692 222.07 287.016C221.057 289.845 220.15 292.702 219.35 295.612C218.95 297.014 218.576 298.469 217.856 299.735C216.362 302.403 213.534 304.074 210.6 304.856C208.279 305.449 205.879 305.556 203.504 305.556C202.757 305.556 201.85 305.368 201.37 306.069C200.863 306.823 201.21 308.251 201.69 308.925C202.491 310.084 204.171 310.138 205.558 310.03C209.533 309.734 213.481 309.114 217.429 308.494C218.363 308.359 219.323 308.171 220.043 307.605C220.417 307.308 220.71 306.904 220.977 306.5C222.017 305.018 223.031 303.481 223.991 301.945C224.018 303.967 224.151 306.015 224.418 308.009C224.818 307.928 225.218 308.009 225.565 308.224C226.259 300.706 227.219 293.214 228.473 285.749C226.979 285.479 225.432 285.453 223.884 285.614Z" fill="#662E2A"/>
<path d="M283.53 300.138C283.023 298.818 282.756 297.443 282.489 296.069C281.742 292.404 281.022 288.712 280.275 285.047C279.075 285.182 277.901 285.316 276.701 285.478C276.487 285.505 276.247 285.532 276.06 285.64C275.58 285.909 275.5 286.556 275.447 287.095C274.993 293.266 274.833 299.438 274.967 305.609C274.993 306.444 275.02 307.307 275.42 308.008C275.687 308.466 276.194 308.843 276.727 308.924C279.208 310.163 282.329 310.083 284.703 308.573C284.943 308.412 285.183 308.25 285.343 308.034C285.53 307.792 285.61 307.468 285.637 307.145C286.01 304.693 284.41 302.429 283.53 300.138Z" fill="#662E2A"/>
<path d="M244.929 62.449C243.462 65.0631 242.822 68.0813 241.595 70.8301C239.888 74.6838 237.113 77.9447 235.219 81.6906C232.045 87.9427 231.271 95.5424 226.603 100.717C224.949 102.549 222.895 103.977 221.535 106.026C220.174 108.074 219.748 111.092 221.481 112.844C223.109 114.488 225.963 114.191 227.804 112.844C229.644 111.496 230.791 109.34 231.858 107.292C234.312 102.495 236.766 97.6983 239.247 92.9284C240.874 89.7484 242.555 86.5145 244.983 83.9004C245.89 82.9033 246.93 82.014 247.73 80.963C248.984 79.3191 249.678 77.2979 250.691 75.5192C254.159 69.4287 260.348 64.9552 257.52 57.0322C254.693 48.9745 247.01 58.6761 244.929 62.449Z" fill="#FFC3B1"/>
<path d="M210.228 63.581C215.91 59.862 222.632 58.1642 229.221 56.5203C230.475 56.2239 231.782 55.9005 233.009 56.2508L236.263 59.4848L248.294 84.2778C249.921 87.5656 250.882 91.1498 251.842 94.734C253.656 101.471 255.443 108.236 257.257 114.973C257.444 115.673 257.604 116.455 257.204 117.048C256.91 117.479 256.377 117.668 255.896 117.829C248.721 120.255 241.545 122.653 234.369 125.079C233.809 125.267 233.196 125.456 232.662 125.186C232.289 124.998 232.049 124.621 231.835 124.243C222.712 108.99 214.176 93.3597 206.28 77.4058C205.426 75.6542 204.546 73.8216 204.546 71.8543C204.546 68.324 207.32 65.4944 210.228 63.581Z" fill="#AFAFAF"/>
<path d="M260.803 51.8571C259.762 51.372 258.562 50.9678 257.361 51.1565C255.761 51.399 254.774 52.5848 254.107 53.6897C250.479 59.7263 248.505 63.4721 250.212 69.9938C251.919 76.5155 248.825 81.9861 250.452 88.5078C251.626 93.143 252.08 97.8591 253.707 102.413C253.867 102.872 254.054 103.33 254.507 103.653C254.987 103.977 255.681 104.084 256.321 104.165C264.057 105.081 271.953 105.378 279.769 105.028C280.862 104.974 282.036 104.893 282.837 104.327C283.61 103.815 283.877 102.979 284.09 102.225C287.398 90.3942 290.733 78.5636 294.04 66.706C294.654 64.5501 295.241 62.3402 294.841 60.1843C294.44 58.0014 292.84 55.8187 290.172 54.9563C286.811 53.8514 282.996 55.064 279.395 55.6569C266.884 57.705 270.246 56.1689 260.803 51.8571Z" fill="#F7ECE7"/>
<path d="M281.425 14.748C284.679 18.5747 285.613 23.6412 285.799 28.492C285.959 32.3187 285.693 36.1724 285.052 39.9722C284.412 43.7181 283.292 47.5718 280.678 50.5093C278.063 53.4737 273.635 55.3332 269.687 54.1744C265.179 52.8539 262.858 48.3803 261.231 44.2841C258.884 38.3822 256.83 32.1301 257.603 25.8779C258.35 19.9491 262.058 15.5834 266.86 11.8644C271.395 8.33407 278.09 10.8134 281.425 14.748Z" fill="#FFC3B1"/>
<path d="M280.729 23.2919C282.97 28.6009 283.077 34.5566 284.09 40.2428C286.625 54.6066 275.022 90.3078 278.703 104.402C260.937 145.58 276.151 138.435 297.268 132.436C299.429 133.837 302.256 132.894 304.657 131.95C308.445 130.414 312.206 128.878 315.994 127.369C319.142 126.102 322.316 124.809 324.931 122.626C330.639 117.883 332.507 109.664 331.546 102.253C330.559 94.8685 327.171 88.0504 323.81 81.394C313.86 61.6404 303.91 41.8867 293.934 22.1331C291.586 17.4978 289.159 12.7279 285.131 9.46707C281.129 6.20624 275.074 4.88575 270.806 7.79624C265.444 11.4344 267.978 12.7009 271.873 14.5874C275.874 16.5277 278.915 18.9801 280.729 23.2919Z" fill="#3C4043"/>
<path d="M228.099 112.978C227.699 114.353 227.085 115.808 225.832 116.455C224.044 117.425 221.803 116.293 220.39 114.811C217.109 111.415 216.735 104.597 221.857 102.468C228.126 99.8809 229.219 109.151 228.099 112.978Z" fill="#FFC3B1"/>
<path d="M254.027 99.6642C253.227 99.5834 252.293 99.5564 251.76 100.176C251.413 100.58 251.333 101.173 251.28 101.712C250.453 110.875 250.799 120.118 250.746 129.335C250.639 149.223 248.559 169.3 241.916 188.03C241.196 190.105 240.396 192.396 241.25 194.39C241.996 196.169 243.81 197.166 245.544 198.028C261.043 205.574 278.702 208.592 295.828 206.544C299.109 206.167 302.39 205.574 305.458 204.388C306.738 203.903 308.018 203.229 308.792 202.097C309.379 201.235 309.592 200.157 309.752 199.106C310.499 193.42 309.272 187.68 307.992 182.074C302.177 156.796 295.454 131.76 288.759 106.725C288.198 104.596 287.612 99.8259 285.371 98.9905C283.157 98.1551 278.142 99.745 275.714 99.9067C268.459 100.338 261.23 100.257 254.027 99.6642Z" fill="#01928E"/>
<path d="M279.501 38.4093C278.808 39.3526 278.541 40.5383 278.221 41.6701C277.714 43.4488 277.074 45.2005 276.3 46.8983C275.313 49.0003 274.113 51.3448 274.886 53.5277C275.26 54.5787 276.087 55.4411 276.967 56.1149C277.874 56.8155 278.968 57.4353 280.088 57.3275C281.875 57.1658 283.049 55.4411 283.956 53.905C285.183 51.803 286.41 49.6741 287.637 47.5451C289.291 44.6885 290.412 40.9964 287.584 38.4093C285.423 36.4421 281.369 35.8222 279.501 38.4093Z" fill="#F2F2F2"/>
<path d="M285.223 47.2534C284.883 46.6661 284.177 46.4078 283.519 46.2335C282.676 46.0211 281.722 45.883 280.975 46.3242C280.422 46.6421 280.069 47.1879 279.743 47.7353C278.176 50.3141 276.737 52.9815 275.479 55.7409C274.775 57.2645 274.145 58.9005 274.45 60.5385C274.781 62.1782 276.486 63.6301 278.045 63.0215C278.592 62.8113 279.017 62.4048 279.415 61.9966C281.428 60.0115 284.385 57.8937 284.985 54.96C285.324 53.2796 285.971 48.621 285.223 47.2534Z" fill="#FFC3B1"/>
<path d="M280.838 69.9132C283.185 77.6206 286.066 85.1394 289.481 92.4426C291.321 96.3502 293.322 100.285 293.909 104.597C294.015 105.351 294.069 106.133 293.802 106.833C293.322 108.154 291.908 108.855 290.628 109.394C289.294 109.986 287.8 110.552 286.386 110.175C284.519 109.636 283.532 107.615 282.892 105.782C281.211 100.905 280.331 95.7843 279.477 90.664C277.69 79.8844 276.063 69.0777 274.542 58.2442C274.409 57.328 277.503 58.4868 277.743 58.6754C278.704 59.3761 279.13 60.481 279.397 61.6129C280.037 64.3078 279.984 67.1105 280.838 69.9132Z" fill="#FFC3B1"/>
<path d="M283.183 99.4764C283.129 100.581 283.076 101.74 283.449 102.791C284.516 105.756 288.251 106.537 291.372 106.834C291.906 106.887 292.466 106.914 292.893 106.618C293.373 106.268 293.506 105.594 293.559 104.974C294.52 97.078 295.453 89.1549 296.414 81.2589C297.187 74.7911 300.815 58.9451 291.212 56.87C285.957 55.7382 285.37 60.5082 285.13 64.3888C284.81 69.9403 284.49 75.5187 284.17 81.0702C283.85 87.1876 283.503 93.3321 283.183 99.4764Z" fill="#FFC3B1"/>
<path d="M139.231 287.892L145.514 303.14L155.756 297.645L149.506 282.687L139.231 287.892Z" fill="#FCC9A7"/>
<path d="M142.061 302.241C142.061 301.325 142.84 300.73 143.62 301.068C145.146 301.727 147.659 302.289 150.665 300.923C153.782 299.509 154.355 297.18 154.371 295.653C154.371 294.85 154.943 294.239 155.659 294.352L178.513 297.678C179.897 297.887 181.201 298.69 182.124 299.943C182.998 301.116 182.585 302.819 181.36 303.205L147.246 313.681C145.91 314.098 144.447 313.118 144.049 311.544L142.125 303.831C142.093 303.703 142.077 303.574 142.077 303.446L142.061 302.241Z" fill="#1F252A"/>
<path d="M46.6211 250.906L32.3073 258.876L38.8121 268.564L52.8555 260.659L46.6211 250.906Z" fill="#FCC9A7"/>
<path d="M32.8164 255.308C33.723 255.212 34.391 255.935 34.1524 256.738C33.6753 258.329 33.389 260.932 35.0589 263.792C36.7925 266.764 39.1463 267.102 40.6572 266.925C41.4524 266.845 42.1045 267.343 42.0886 268.066L41.3093 291.379C41.2616 292.793 40.6095 294.191 39.4803 295.251C38.4306 296.248 36.6971 296.039 36.1881 294.834L22.1765 261.719C21.6199 260.418 22.431 258.843 23.926 258.281L31.3056 255.501C31.4328 255.453 31.56 255.421 31.6872 255.405L32.8164 255.308Z" fill="#1F252A"/>
<path d="M131.661 140.588L126.142 176.354L98.2465 227.014L50.2159 269.207L39.0194 249.203L77.1098 213.309L99.4552 141.199L131.661 140.588Z" fill="#048581"/>
<path d="M86.3337 138.548C86.3337 138.548 80.7832 149.152 89.4032 166.087L116.17 217.695L136.575 295.91L156.837 288.76L142.285 209.661L116.488 147.931L131.661 140.588L86.3337 138.548Z" fill="#01928E"/>
<path d="M144.685 37.9191C141.154 41.8235 135.159 42.0966 131.31 38.5457C127.445 34.9788 127.175 28.9215 130.69 25.0171C134.22 21.1128 140.2 20.8396 144.081 24.3905C147.946 27.9735 148.216 34.0148 144.685 37.9191Z" fill="#FCC9A7"/>
<path d="M152.257 42.8353L144.018 32.8093L137.45 39.4772L145.179 49.0372L152.257 42.8353Z" fill="#FCC9A7"/>
<path d="M133.665 19.3609L141.219 29.5797C142.205 30.9133 142.173 32.761 141.14 34.0464L135.017 41.6783C133.585 43.4618 130.913 43.4778 129.466 41.7265L120.926 31.4596C119.749 30.0456 119.812 27.9569 121.069 26.6072L128.178 19.0235C129.705 17.4007 132.329 17.5453 133.665 19.3609Z" fill="#1C2226"/>
<path d="M125.856 55.3838L155.803 70.5674L139.358 44.9401L150.205 35.4604L184.494 82.9231C187.611 87.0041 186.403 92.949 181.934 95.4394C179.659 96.7087 176.924 96.8373 174.538 95.7768L130.134 77.9583L125.856 55.3838Z" fill="#F7ECE7"/>
<path d="M136.575 69.9564C136.575 69.9564 131.279 111.908 131.661 140.588C131.661 140.588 115.773 147.658 82.0875 137.326L90.4213 59.3199L106.644 53.8088L125.856 55.3834L136.575 69.9564Z" fill="#F7ECE7"/>
<path d="M120.417 51.3023L120.003 54.0337C119.972 54.2266 120.035 54.4354 120.178 54.58L124.329 59.0306C124.711 59.4323 125.379 59.2074 125.443 58.6611L125.872 55.3834C125.904 55.1745 125.824 54.9656 125.665 54.821L121.514 50.9167C121.117 50.5632 120.48 50.7721 120.417 51.3023Z" fill="#FCF3F0"/>
<path d="M114.865 58.3562C109.935 57.9545 106.261 53.5682 106.658 48.5873L107.851 33.9983L125.728 35.4765L122.038 55.6408C121.449 58.2116 119.811 58.7579 114.865 58.3562Z" fill="#FCC9A7"/>
<path d="M107.249 39.1072C107.249 39.1072 111.098 50.1615 118.907 48.7958C126.08 47.5425 125.73 35.4761 125.73 35.4761L107.249 39.1072Z" fill="#F4BE9A"/>
<path d="M117.663 44.7789L116.072 44.6022C108.152 43.7345 102.411 36.5364 103.269 28.5349L104.24 19.4088C105.098 11.4073 112.223 5.60699 120.144 6.47462L121.734 6.65136C129.654 7.51899 135.396 14.7171 134.537 22.7186L133.567 31.8448C132.708 39.8623 125.583 45.6465 117.663 44.7789Z" fill="#FCC9A7"/>
<path d="M117.663 44.7789L116.072 44.6022C108.152 43.7345 102.411 36.5364 103.269 28.5349L104.24 19.4088C105.098 11.4073 112.223 5.60699 120.144 6.47462L121.734 6.65136C129.654 7.51899 135.396 14.7171 134.537 22.7186L133.567 31.8448C132.708 39.8623 125.583 45.6465 117.663 44.7789Z" fill="#FCC9A7"/>
<path d="M103.59 25.6438C104.672 25.5313 109.204 29.0019 110.381 27.4916C112.004 25.4028 113.483 21.5949 111.383 17.6423C111.033 16.9836 110.938 16.2124 111.161 15.4893C111.574 14.1879 112.687 12.6776 115.757 13.7701C120.671 15.5215 131.725 21.145 134.921 13.0953C138.961 2.95688 107.185 5.78473 107.185 5.78473L99.9481 16.3569L103.049 31.428L103.59 25.6438Z" fill="#1C2226"/>
<path d="M108.011 27.1697C107.709 30.0297 105.164 32.1024 102.333 31.781C99.5025 31.4758 97.4509 28.905 97.769 26.045C98.0712 23.1851 100.616 21.1124 103.447 21.4337C106.278 21.7551 108.313 24.3098 108.011 27.1697Z" fill="#FCC9A7"/>
<path d="M116.487 61.4571L112.431 124.617L119.986 131.783L124.471 124.842L119.986 60.2039L116.487 61.4571Z" fill="#048581"/>
<path d="M122.531 57.1028L121.911 56.2351L122.07 55.48H113.132L112.432 57.8419L118.38 63.1441L122.531 57.1028Z" fill="#048581"/>
<path d="M107.231 47.7354L115.692 53.5518C116.647 54.2106 116.774 55.5924 115.947 56.4118L109.299 63.0154C108.551 63.7545 107.327 63.7224 106.627 62.919L99.9312 55.3192C99.2791 54.5801 99.311 53.4393 100.011 52.7485L104.909 47.9122C105.529 47.3177 106.5 47.2374 107.231 47.7354Z" fill="#FCF3F0"/>
<path d="M143.08 50.7401L155.739 43.0278" stroke="#EADDD8" stroke-width="0.7599" stroke-miterlimit="10" stroke-linecap="round" stroke-linejoin="round"/>
<path d="M120.018 111.314L124.455 159.243C124.63 161.043 123.405 162.681 121.64 163.035L67.2318 173.543C65.2279 173.929 63.3353 172.515 63.1127 170.474L58.1347 124.923C57.9438 123.156 59.0889 121.517 60.8065 121.099L115.755 108.23C117.807 107.732 119.811 109.194 120.018 111.314Z" fill="#AFAFAF"/>
<path d="M116.155 112.166L120.592 160.094C120.751 161.894 119.543 163.533 117.777 163.886L63.3692 174.394C61.3653 174.78 59.4727 173.366 59.25 171.325L54.272 125.775C54.0812 124.007 55.2263 122.369 56.9439 121.951L111.893 109.065C113.96 108.583 115.964 110.045 116.155 112.166Z" fill="#D1D1D1"/>
<path d="M95.6237 156.27C99.9974 152.221 106.804 152.526 110.812 156.944C114.82 161.363 114.518 168.24 110.144 172.289C105.771 176.338 98.9636 176.032 94.9558 171.614C90.9479 167.179 91.2501 160.319 95.6237 156.27Z" fill="#FCC9A7"/>
<path d="M87.5591 149.939L95.8611 162.118L103.94 155.241L96.1792 143.657L87.5591 149.939Z" fill="#FCC9A7"/>
<path d="M90.4068 59.3203C90.4068 59.3203 78.2401 60.5575 74.7094 80.6576L60.7137 110.028C60.332 111.314 60.0775 112.631 59.9503 113.949L89.389 156.672L102.669 148.718L78.8604 110.157L93.3173 87.0363L90.4068 59.3203Z" fill="#F7ECE7"/>
<path d="M98.3418 142.95L84.9346 150.212" stroke="#EADDD8" stroke-width="0.7599" stroke-miterlimit="10" stroke-linecap="round" stroke-linejoin="round"/>
<path d="M86.2392 98.364L94.8115 83.293" stroke="#EADDD8" stroke-width="0.7599" stroke-miterlimit="10" stroke-linecap="round" stroke-linejoin="round"/>
<path d="M131.646 16.6778C137.721 13.8982 136.449 6.73217 135.065 4.46669C135.065 4.46669 134.795 8.49958 132.075 7.56768C132.075 7.56768 132.441 1.55852 124.473 0C124.473 0 127.416 5.39859 116.935 4.37029C104.068 3.10098 103.321 11.3274 104.036 21.5462L107.981 18.6862L111.034 11.5684H121.451L131.646 16.6778Z" fill="#1C2226"/>
<rect x="51" y="552" width="37" height="29" rx="14.5" fill="white"/>
<path d="M61.401 561.345L62.283 560.319V566.223L61.671 565.665H67.062V567.285H61.671L62.283 566.691V573H60.339V559.725H67.863V561.345H61.401ZM69.4866 573V563.442H71.4126V573H69.4866ZM70.4586 561.462C70.1226 561.462 69.8316 561.372 69.5856 561.192C69.3456 561.006 69.2256 560.751 69.2256 560.427C69.2256 560.109 69.3456 559.86 69.5856 559.68C69.8316 559.494 70.1226 559.401 70.4586 559.401C70.7886 559.401 71.0736 559.494 71.3136 559.68C71.5596 559.86 71.6826 560.109 71.6826 560.427C71.6826 560.751 71.5596 561.006 71.3136 561.192C71.0736 561.372 70.7886 561.462 70.4586 561.462ZM74.7324 573V565.062H72.5904V563.442H73.5984C73.8744 563.442 74.0874 563.43 74.2374 563.406C74.3934 563.376 74.5074 563.319 74.5794 563.235C74.6514 563.145 74.6934 563.013 74.7054 562.839C74.7234 562.659 74.7324 562.419 74.7324 562.119V560.913H76.6854V563.442H79.2954V565.062H76.6854V573H74.7324Z" fill="black"/>
<rect x="100" y="552" width="90" height="29" rx="14.5" fill="white"/>
<path d="M109.714 573V559.725H113.359C114.241 559.725 115.039 559.881 115.753 560.193C116.467 560.505 117.076 560.949 117.58 561.525C118.09 562.101 118.483 562.797 118.759 563.613C119.035 564.429 119.173 565.341 119.173 566.349C119.173 567.363 119.035 568.278 118.759 569.094C118.483 569.91 118.09 570.609 117.58 571.191C117.076 571.773 116.467 572.22 115.753 572.532C115.039 572.844 114.241 573 113.359 573H109.714ZM111.676 572.406L110.794 571.38H113.125C113.905 571.38 114.601 571.176 115.213 570.768C115.831 570.36 116.314 569.781 116.662 569.031C117.01 568.275 117.184 567.381 117.184 566.349C117.184 565.311 117.01 564.42 116.662 563.676C116.314 562.926 115.831 562.35 115.213 561.948C114.601 561.546 113.905 561.345 113.125 561.345H110.794L111.676 560.319V572.406ZM121.462 568.905V567.384H128.5L128.23 567.834C128.23 567.798 128.23 567.762 128.23 567.726C128.23 567.684 128.23 567.648 128.23 567.618C128.23 567.132 128.125 566.685 127.915 566.277C127.705 565.863 127.39 565.533 126.97 565.287C126.556 565.035 126.037 564.909 125.413 564.909C124.789 564.909 124.24 565.044 123.766 565.314C123.298 565.578 122.932 565.956 122.668 566.448C122.41 566.934 122.281 567.519 122.281 568.203C122.281 568.899 122.407 569.499 122.659 570.003C122.911 570.501 123.274 570.885 123.748 571.155C124.222 571.425 124.789 571.56 125.449 571.56C125.911 571.56 126.31 571.515 126.646 571.425C126.988 571.329 127.267 571.203 127.483 571.047C127.705 570.891 127.873 570.723 127.987 570.543C128.101 570.357 128.167 570.174 128.185 569.994H130.129C130.093 570.384 129.964 570.771 129.742 571.155C129.526 571.533 129.217 571.878 128.815 572.19C128.419 572.496 127.933 572.742 127.357 572.928C126.787 573.108 126.13 573.198 125.386 573.198C124.39 573.198 123.517 572.988 122.767 572.568C122.017 572.148 121.432 571.566 121.012 570.822C120.592 570.072 120.382 569.214 120.382 568.248C120.382 567.264 120.595 566.4 121.021 565.656C121.447 564.912 122.038 564.333 122.794 563.919C123.55 563.499 124.417 563.289 125.395 563.289C126.391 563.289 127.252 563.499 127.978 563.919C128.71 564.339 129.274 564.918 129.67 565.656C130.066 566.394 130.264 567.243 130.264 568.203C130.264 568.317 130.261 568.449 130.255 568.599C130.249 568.749 130.24 568.851 130.228 568.905H121.462ZM136.535 573.189C135.575 573.189 134.714 572.988 133.952 572.586C133.196 572.178 132.599 571.599 132.161 570.849C131.729 570.099 131.513 569.217 131.513 568.203C131.513 567.189 131.729 566.316 132.161 565.584C132.599 564.846 133.196 564.279 133.952 563.883C134.714 563.487 135.575 563.289 136.535 563.289C137.261 563.289 137.906 563.4 138.47 563.622C139.034 563.838 139.511 564.126 139.901 564.486C140.291 564.846 140.588 565.242 140.792 565.674C140.996 566.106 141.098 566.538 141.098 566.97C141.098 566.976 141.098 566.985 141.098 566.997C141.098 567.009 141.098 567.021 141.098 567.033H139.164C139.164 567.003 139.161 566.97 139.155 566.934C139.148 566.892 139.142 566.853 139.136 566.817C139.088 566.463 138.95 566.148 138.722 565.872C138.494 565.596 138.194 565.377 137.822 565.215C137.45 565.053 137.015 564.972 136.517 564.972C135.971 564.972 135.467 565.092 135.005 565.332C134.549 565.566 134.183 565.923 133.907 566.403C133.631 566.883 133.493 567.483 133.493 568.203C133.493 568.923 133.628 569.529 133.898 570.021C134.174 570.507 134.54 570.876 134.996 571.128C135.458 571.38 135.965 571.506 136.517 571.506C137.111 571.506 137.597 571.416 137.975 571.236C138.353 571.05 138.638 570.804 138.831 570.498C139.023 570.186 139.134 569.85 139.164 569.49H141.098C141.098 569.922 140.999 570.36 140.801 570.804C140.603 571.242 140.312 571.641 139.928 572.001C139.544 572.361 139.067 572.649 138.498 572.865C137.933 573.081 137.279 573.189 136.535 573.189ZM142.743 573V563.442H144.669V573H142.743ZM143.715 561.462C143.379 561.462 143.088 561.372 142.842 561.192C142.602 561.006 142.482 560.751 142.482 560.427C142.482 560.109 142.602 559.86 142.842 559.68C143.088 559.494 143.379 559.401 143.715 559.401C144.045 559.401 144.33 559.494 144.57 559.68C144.816 559.86 144.939 560.109 144.939 560.427C144.939 560.751 144.816 561.006 144.57 561.192C144.33 561.372 144.045 561.462 143.715 561.462ZM150.491 573.189C149.921 573.189 149.384 573.126 148.88 573C148.376 572.874 147.932 572.691 147.548 572.451C147.17 572.205 146.873 571.902 146.657 571.542C146.447 571.182 146.342 570.765 146.342 570.291C146.342 570.249 146.342 570.207 146.342 570.165C146.342 570.117 146.342 570.078 146.342 570.048H148.286C148.286 570.078 148.286 570.105 148.286 570.129C148.286 570.153 148.286 570.186 148.286 570.228C148.286 570.666 148.487 570.999 148.889 571.227C149.297 571.449 149.849 571.56 150.545 571.56C150.953 571.56 151.325 571.518 151.661 571.434C152.003 571.35 152.273 571.221 152.471 571.047C152.675 570.873 152.777 570.651 152.777 570.381C152.777 569.943 152.561 569.631 152.129 569.445C151.703 569.259 151.055 569.094 150.185 568.95C149.711 568.866 149.252 568.758 148.808 568.626C148.37 568.494 147.974 568.32 147.62 568.104C147.272 567.882 146.993 567.609 146.783 567.285C146.579 566.955 146.477 566.559 146.477 566.097C146.477 565.497 146.657 564.987 147.017 564.567C147.377 564.147 147.863 563.829 148.475 563.613C149.087 563.397 149.762 563.289 150.5 563.289C151.214 563.289 151.874 563.406 152.48 563.64C153.092 563.868 153.584 564.201 153.956 564.639C154.328 565.071 154.514 565.602 154.514 566.232C154.514 566.256 154.514 566.283 154.514 566.313C154.514 566.343 154.514 566.37 154.514 566.394H152.579C152.579 566.37 152.579 566.349 152.579 566.331C152.579 566.313 152.579 566.292 152.579 566.268C152.579 565.956 152.48 565.701 152.282 565.503C152.084 565.305 151.826 565.158 151.508 565.062C151.196 564.96 150.863 564.909 150.509 564.909C150.185 564.909 149.858 564.945 149.528 565.017C149.204 565.083 148.934 565.2 148.718 565.368C148.502 565.53 148.394 565.752 148.394 566.034C148.394 566.322 148.499 566.553 148.709 566.727C148.919 566.895 149.216 567.036 149.6 567.15C149.984 567.258 150.431 567.357 150.941 567.447C151.409 567.531 151.865 567.639 152.309 567.771C152.753 567.897 153.152 568.065 153.506 568.275C153.866 568.485 154.151 568.755 154.361 569.085C154.577 569.415 154.685 569.82 154.685 570.3C154.685 570.798 154.571 571.227 154.343 571.587C154.115 571.947 153.803 572.247 153.407 572.487C153.017 572.721 152.57 572.895 152.066 573.009C151.568 573.129 151.043 573.189 150.491 573.189ZM156.323 573V563.442H158.249V573H156.323ZM157.295 561.462C156.959 561.462 156.668 561.372 156.422 561.192C156.182 561.006 156.062 560.751 156.062 560.427C156.062 560.109 156.182 559.86 156.422 559.68C156.668 559.494 156.959 559.401 157.295 559.401C157.625 559.401 157.91 559.494 158.15 559.68C158.396 559.86 158.519 560.109 158.519 560.427C158.519 560.751 158.396 561.006 158.15 561.192C157.91 561.372 157.625 561.462 157.295 561.462ZM164.926 573.18C163.942 573.18 163.072 572.967 162.316 572.541C161.566 572.115 160.978 571.53 160.552 570.786C160.132 570.036 159.922 569.178 159.922 568.212C159.922 567.252 160.132 566.403 160.552 565.665C160.978 564.921 161.566 564.342 162.316 563.928C163.072 563.508 163.942 563.298 164.926 563.298C165.91 563.298 166.777 563.508 167.527 563.928C168.283 564.342 168.871 564.921 169.291 565.665C169.717 566.403 169.93 567.252 169.93 568.212C169.93 569.178 169.717 570.036 169.291 570.786C168.871 571.53 168.283 572.115 167.527 572.541C166.777 572.967 165.91 573.18 164.926 573.18ZM164.926 571.506C165.526 571.506 166.054 571.371 166.51 571.101C166.966 570.831 167.323 570.45 167.581 569.958C167.839 569.46 167.968 568.878 167.968 568.212C167.968 567.552 167.839 566.979 167.581 566.493C167.323 566.007 166.966 565.632 166.51 565.368C166.054 565.104 165.526 564.972 164.926 564.972C164.332 564.972 163.804 565.104 163.342 565.368C162.886 565.632 162.529 566.007 162.271 566.493C162.013 566.979 161.884 567.552 161.884 568.212C161.884 568.878 162.013 569.46 162.271 569.958C162.529 570.45 162.886 570.831 163.342 571.101C163.804 571.371 164.332 571.506 164.926 571.506ZM178.368 573V568.59C178.368 568.332 178.368 568.113 178.368 567.933C178.368 567.753 178.368 567.585 178.368 567.429C178.368 566.961 178.296 566.55 178.152 566.196C178.008 565.836 177.771 565.557 177.441 565.359C177.111 565.155 176.67 565.053 176.118 565.053C175.632 565.053 175.191 565.173 174.795 565.413C174.405 565.653 174.093 565.98 173.859 566.394C173.631 566.802 173.517 567.267 173.517 567.789L172.68 567.375C172.68 566.601 172.863 565.908 173.229 565.296C173.595 564.678 174.084 564.189 174.696 563.829C175.314 563.469 175.989 563.289 176.721 563.289C177.477 563.289 178.122 563.436 178.656 563.73C179.196 564.018 179.607 564.432 179.889 564.972C180.177 565.506 180.321 566.145 180.321 566.889C180.321 567.165 180.321 567.471 180.321 567.807C180.321 568.143 180.321 568.467 180.321 568.779V573H178.368ZM171.564 573V563.442H173.517V573H171.564Z" fill="black"/>
<rect x="202" y="552" width="101" height="29" rx="14.5" fill="white"/>
<path d="M212.327 561.345L213.209 560.319V566.151L212.741 565.53H217.772V567.15H212.741L213.209 566.529V572.406L212.327 571.38H218.771V573H211.247V559.725H218.771V561.345H212.327ZM221.898 573V565.062H219.837V563.442H221.898V562.398C221.898 561.906 221.958 561.465 222.078 561.075C222.204 560.685 222.378 560.349 222.6 560.067C222.822 559.779 223.083 559.542 223.383 559.356C223.689 559.17 224.022 559.032 224.382 558.942C224.748 558.846 225.129 558.798 225.525 558.798C225.849 558.798 226.101 558.819 226.281 558.861C226.467 558.897 226.59 558.93 226.65 558.96V560.589C226.578 560.565 226.455 560.538 226.281 560.508C226.107 560.478 225.921 560.463 225.723 560.463C225.339 560.463 225.024 560.52 224.778 560.634C224.532 560.748 224.34 560.907 224.202 561.111C224.064 561.309 223.968 561.54 223.914 561.804C223.866 562.062 223.842 562.338 223.842 562.632V563.442H226.56V565.062H223.842V573H221.898ZM229.386 573V565.062H227.325V563.442H229.386V562.398C229.386 561.906 229.446 561.465 229.566 561.075C229.692 560.685 229.866 560.349 230.088 560.067C230.31 559.779 230.571 559.542 230.871 559.356C231.177 559.17 231.51 559.032 231.87 558.942C232.236 558.846 232.617 558.798 233.013 558.798C233.337 558.798 233.589 558.819 233.769 558.861C233.955 558.897 234.078 558.93 234.138 558.96V560.589C234.066 560.565 233.943 560.538 233.769 560.508C233.595 560.478 233.409 560.463 233.211 560.463C232.827 560.463 232.512 560.52 232.266 560.634C232.02 560.748 231.828 560.907 231.69 561.111C231.552 561.309 231.456 561.54 231.402 561.804C231.354 562.062 231.33 562.338 231.33 562.632V563.442H234.048V565.062H231.33V573H229.386ZM235.731 573V563.442H237.657V573H235.731ZM236.703 561.462C236.367 561.462 236.076 561.372 235.83 561.192C235.59 561.006 235.47 560.751 235.47 560.427C235.47 560.109 235.59 559.86 235.83 559.68C236.076 559.494 236.367 559.401 236.703 559.401C237.033 559.401 237.318 559.494 237.558 559.68C237.804 559.86 237.927 560.109 237.927 560.427C237.927 560.751 237.804 561.006 237.558 561.192C237.318 561.372 237.033 561.462 236.703 561.462ZM244.343 573.189C243.383 573.189 242.522 572.988 241.76 572.586C241.004 572.178 240.407 571.599 239.969 570.849C239.537 570.099 239.321 569.217 239.321 568.203C239.321 567.189 239.537 566.316 239.969 565.584C240.407 564.846 241.004 564.279 241.76 563.883C242.522 563.487 243.383 563.289 244.343 563.289C245.069 563.289 245.714 563.4 246.278 563.622C246.842 563.838 247.319 564.126 247.709 564.486C248.099 564.846 248.396 565.242 248.6 565.674C248.804 566.106 248.906 566.538 248.906 566.97C248.906 566.976 248.906 566.985 248.906 566.997C248.906 567.009 248.906 567.021 248.906 567.033H246.971C246.971 567.003 246.968 566.97 246.962 566.934C246.956 566.892 246.95 566.853 246.944 566.817C246.896 566.463 246.758 566.148 246.53 565.872C246.302 565.596 246.002 565.377 245.63 565.215C245.258 565.053 244.823 564.972 244.325 564.972C243.779 564.972 243.275 565.092 242.813 565.332C242.357 565.566 241.991 565.923 241.715 566.403C241.439 566.883 241.301 567.483 241.301 568.203C241.301 568.923 241.436 569.529 241.706 570.021C241.982 570.507 242.348 570.876 242.804 571.128C243.266 571.38 243.773 571.506 244.325 571.506C244.919 571.506 245.405 571.416 245.783 571.236C246.161 571.05 246.446 570.804 246.638 570.498C246.83 570.186 246.941 569.85 246.971 569.49H248.906C248.906 569.922 248.807 570.36 248.609 570.804C248.411 571.242 248.12 571.641 247.736 572.001C247.352 572.361 246.875 572.649 246.305 572.865C245.741 573.081 245.087 573.189 244.343 573.189ZM250.551 573V563.442H252.477V573H250.551ZM251.523 561.462C251.187 561.462 250.896 561.372 250.65 561.192C250.41 561.006 250.29 560.751 250.29 560.427C250.29 560.109 250.41 559.86 250.65 559.68C250.896 559.494 251.187 559.401 251.523 559.401C251.853 559.401 252.138 559.494 252.378 559.68C252.624 559.86 252.747 560.109 252.747 560.427C252.747 560.751 252.624 561.006 252.378 561.192C252.138 561.372 251.853 561.462 251.523 561.462ZM255.229 568.905V567.384H262.267L261.997 567.834C261.997 567.798 261.997 567.762 261.997 567.726C261.997 567.684 261.997 567.648 261.997 567.618C261.997 567.132 261.892 566.685 261.682 566.277C261.472 565.863 261.157 565.533 260.737 565.287C260.323 565.035 259.804 564.909 259.18 564.909C258.556 564.909 258.007 565.044 257.533 565.314C257.065 565.578 256.699 565.956 256.435 566.448C256.177 566.934 256.048 567.519 256.048 568.203C256.048 568.899 256.174 569.499 256.426 570.003C256.678 570.501 257.041 570.885 257.515 571.155C257.989 571.425 258.556 571.56 259.216 571.56C259.678 571.56 260.077 571.515 260.413 571.425C260.755 571.329 261.034 571.203 261.25 571.047C261.472 570.891 261.64 570.723 261.754 570.543C261.868 570.357 261.934 570.174 261.952 569.994H263.896C263.86 570.384 263.731 570.771 263.509 571.155C263.293 571.533 262.984 571.878 262.582 572.19C262.186 572.496 261.7 572.742 261.124 572.928C260.554 573.108 259.897 573.198 259.153 573.198C258.157 573.198 257.284 572.988 256.534 572.568C255.784 572.148 255.199 571.566 254.779 570.822C254.359 570.072 254.149 569.214 254.149 568.248C254.149 567.264 254.362 566.4 254.788 565.656C255.214 564.912 255.805 564.333 256.561 563.919C257.317 563.499 258.184 563.289 259.162 563.289C260.158 563.289 261.019 563.499 261.745 563.919C262.477 564.339 263.041 564.918 263.437 565.656C263.833 566.394 264.031 567.243 264.031 568.203C264.031 568.317 264.028 568.449 264.022 568.599C264.016 568.749 264.007 568.851 263.995 568.905H255.229ZM272.472 573V568.59C272.472 568.332 272.472 568.113 272.472 567.933C272.472 567.753 272.472 567.585 272.472 567.429C272.472 566.961 272.4 566.55 272.256 566.196C272.112 565.836 271.875 565.557 271.545 565.359C271.215 565.155 270.774 565.053 270.222 565.053C269.736 565.053 269.295 565.173 268.899 565.413C268.509 565.653 268.197 565.98 267.963 566.394C267.735 566.802 267.621 567.267 267.621 567.789L266.784 567.375C266.784 566.601 266.967 565.908 267.333 565.296C267.699 564.678 268.188 564.189 268.8 563.829C269.418 563.469 270.093 563.289 270.825 563.289C271.581 563.289 272.226 563.436 272.76 563.73C273.3 564.018 273.711 564.432 273.993 564.972C274.281 565.506 274.425 566.145 274.425 566.889C274.425 567.165 274.425 567.471 274.425 567.807C274.425 568.143 274.425 568.467 274.425 568.779V573H272.472ZM265.668 573V563.442H267.621V573H265.668ZM280.978 573.189C280.018 573.189 279.157 572.988 278.395 572.586C277.639 572.178 277.042 571.599 276.604 570.849C276.172 570.099 275.956 569.217 275.956 568.203C275.956 567.189 276.172 566.316 276.604 565.584C277.042 564.846 277.639 564.279 278.395 563.883C279.157 563.487 280.018 563.289 280.978 563.289C281.704 563.289 282.349 563.4 282.913 563.622C283.477 563.838 283.954 564.126 284.344 564.486C284.734 564.846 285.031 565.242 285.235 565.674C285.439 566.106 285.541 566.538 285.541 566.97C285.541 566.976 285.541 566.985 285.541 566.997C285.541 567.009 285.541 567.021 285.541 567.033H283.606C283.606 567.003 283.603 566.97 283.597 566.934C283.591 566.892 283.585 566.853 283.579 566.817C283.531 566.463 283.393 566.148 283.165 565.872C282.937 565.596 282.637 565.377 282.265 565.215C281.893 565.053 281.458 564.972 280.96 564.972C280.414 564.972 279.91 565.092 279.448 565.332C278.992 565.566 278.626 565.923 278.35 566.403C278.074 566.883 277.936 567.483 277.936 568.203C277.936 568.923 278.071 569.529 278.341 570.021C278.617 570.507 278.983 570.876 279.439 571.128C279.901 571.38 280.408 571.506 280.96 571.506C281.554 571.506 282.04 571.416 282.418 571.236C282.796 571.05 283.081 570.804 283.273 570.498C283.465 570.186 283.576 569.85 283.606 569.49H285.541C285.541 569.922 285.442 570.36 285.244 570.804C285.046 571.242 284.755 571.641 284.371 572.001C283.987 572.361 283.51 572.649 282.94 572.865C282.376 573.081 281.722 573.189 280.978 573.189ZM287.09 577.068C286.832 577.068 286.595 577.053 286.379 577.023C286.169 576.999 286.04 576.975 285.992 576.951V575.358C286.07 575.394 286.199 575.424 286.379 575.448C286.565 575.472 286.757 575.484 286.955 575.484C287.309 575.484 287.612 575.412 287.864 575.268C288.122 575.124 288.338 574.923 288.512 574.665C288.692 574.413 288.836 574.125 288.944 573.801L289.187 573.081L285.893 563.442H287.927L290.384 571.542H290.132L292.526 563.442H294.533L291.104 573.702C290.894 574.344 290.636 574.917 290.33 575.421C290.024 575.931 289.616 576.333 289.106 576.627C288.596 576.921 287.924 577.068 287.09 577.068Z" fill="black"/>
</g>
<defs>
<clipPath id="clip0_3158_5883">
<rect width="354" height="581" fill="white"/>
</clipPath>
</defs>
</svg>
