<svg width="41" height="54" viewBox="0 0 41 54" fill="none" xmlns="http://www.w3.org/2000/svg">
<path d="M18.9067 26.4679L0.660015 7.24642C-0.220005 6.31939 -0.220005 4.81644 0.660015 3.88951L2.78819 1.64764C3.66671 0.722195 5.09054 0.720414 5.97112 1.64369L20.5 16.877L35.0289 1.64369C35.9095 0.720414 37.3333 0.722195 38.2118 1.64764L40.34 3.88951C41.22 4.81654 41.22 6.31949 40.34 7.24642L22.0934 26.4679C21.2134 27.3948 19.7867 27.3948 18.9067 26.4679Z" fill="white"/>
<path d="M18.9067 52.6788L0.660015 33.4574C-0.220005 32.5303 -0.220005 31.0274 0.660015 30.1004L2.78819 27.8586C3.66671 26.9331 5.09054 26.9314 5.97112 27.8546L20.5 43.088L35.0289 27.8546C35.9095 26.9314 37.3333 26.9331 38.2118 27.8586L40.34 30.1004C41.22 31.0275 41.22 32.5304 40.34 33.4574L22.0934 52.6788C21.2134 53.6057 19.7867 53.6057 18.9067 52.6788Z" fill="white"/>
</svg>
