<svg width="314" height="376" viewBox="0 0 314 376" fill="none" xmlns="http://www.w3.org/2000/svg">
<rect width="314" height="376" rx="32" fill="#E2E2E2"/>
<rect x="41" y="24" width="108" height="44" rx="10" fill="#00C7BE"/>
<path d="M47.374 114V98.6H49.574V114H47.374ZM37.584 114V98.6H39.784V114H37.584ZM39.41 107.048V105.244H47.858V107.048H39.41ZM52.092 114V98.6H57.306C58.5233 98.6 59.5206 98.8053 60.298 99.216C61.0753 99.6267 61.6473 100.177 62.014 100.866C62.3953 101.541 62.586 102.311 62.586 103.176C62.586 103.997 62.3953 104.76 62.014 105.464C61.6473 106.153 61.068 106.711 60.276 107.136C59.484 107.547 58.472 107.752 57.24 107.752H54.292V114H52.092ZM60.188 114L56.866 107.158H59.286L62.74 114H60.188ZM54.292 106.08H57.152C58.252 106.08 59.0513 105.816 59.55 105.288C60.0633 104.745 60.32 104.056 60.32 103.22C60.32 102.369 60.0706 101.695 59.572 101.196C59.0733 100.697 58.2666 100.448 57.152 100.448H54.292V106.08ZM69.5687 114V103.044H71.5267L71.7027 104.606C72.0547 104.034 72.5241 103.587 73.1107 103.264C73.6974 102.941 74.3574 102.78 75.0907 102.78C75.6627 102.78 76.1761 102.861 76.6307 103.022C77.1001 103.169 77.5107 103.396 77.8627 103.704C78.2147 104.012 78.5007 104.393 78.7207 104.848C79.1167 104.203 79.6447 103.697 80.3047 103.33C80.9794 102.963 81.7054 102.78 82.4827 102.78C83.3774 102.78 84.1474 102.963 84.7927 103.33C85.4381 103.682 85.9294 104.225 86.2667 104.958C86.6187 105.677 86.7947 106.571 86.7947 107.642V114H84.6167V107.884C84.6167 106.828 84.4041 106.029 83.9787 105.486C83.5681 104.943 82.9521 104.672 82.1307 104.672C81.5881 104.672 81.0967 104.819 80.6567 105.112C80.2314 105.391 79.8941 105.801 79.6447 106.344C79.4101 106.872 79.2927 107.525 79.2927 108.302V114H77.0927V107.884C77.0927 106.828 76.8801 106.029 76.4547 105.486C76.0294 104.943 75.4061 104.672 74.5847 104.672C74.0567 104.672 73.5727 104.819 73.1327 105.112C72.7074 105.391 72.3701 105.801 72.1207 106.344C71.8861 106.872 71.7687 107.525 71.7687 108.302V114H69.5687ZM93.9487 114.264C92.878 114.264 91.932 114.029 91.1107 113.56C90.2894 113.076 89.644 112.409 89.1747 111.558C88.7054 110.693 88.4707 109.695 88.4707 108.566C88.4707 107.407 88.698 106.403 89.1527 105.552C89.622 104.687 90.2674 104.012 91.0887 103.528C91.9247 103.029 92.8854 102.78 93.9707 102.78C95.056 102.78 95.9874 103.022 96.7647 103.506C97.5567 103.975 98.1654 104.606 98.5907 105.398C99.016 106.19 99.2287 107.055 99.2287 107.994C99.2287 108.141 99.2287 108.302 99.2287 108.478C99.2287 108.654 99.214 108.845 99.1847 109.05H90.0987V107.488H97.0287C96.9847 106.593 96.6767 105.889 96.1047 105.376C95.5327 104.863 94.814 104.606 93.9487 104.606C93.362 104.606 92.812 104.738 92.2987 105.002C91.8 105.266 91.3967 105.655 91.0887 106.168C90.7807 106.681 90.6267 107.327 90.6267 108.104V108.72C90.6267 109.527 90.7807 110.209 91.0887 110.766C91.3967 111.309 91.8 111.727 92.2987 112.02C92.7974 112.299 93.3474 112.438 93.9487 112.438C94.638 112.438 95.21 112.284 95.6647 111.976C96.134 111.653 96.486 111.221 96.7207 110.678H98.9207C98.7154 111.367 98.3854 111.983 97.9307 112.526C97.476 113.054 96.9114 113.479 96.2367 113.802C95.5767 114.11 94.814 114.264 93.9487 114.264ZM100.991 114V103.044H102.949L103.103 104.958C103.455 104.298 103.954 103.77 104.599 103.374C105.244 102.978 105.992 102.78 106.843 102.78C107.723 102.78 108.478 102.963 109.109 103.33C109.74 103.682 110.224 104.217 110.561 104.936C110.913 105.655 111.089 106.557 111.089 107.642V114H108.889V107.862C108.889 106.821 108.662 106.029 108.207 105.486C107.767 104.943 107.114 104.672 106.249 104.672C105.662 104.672 105.134 104.819 104.665 105.112C104.21 105.391 103.851 105.801 103.587 106.344C103.323 106.872 103.191 107.525 103.191 108.302V114H100.991ZM117.71 114C117.021 114 116.419 113.89 115.906 113.67C115.393 113.45 114.997 113.083 114.718 112.57C114.439 112.057 114.3 111.36 114.3 110.48V104.914H112.408V103.044H114.3L114.564 100.316H116.5V103.044H119.624V104.914H116.5V110.502C116.5 111.133 116.625 111.565 116.874 111.8C117.138 112.02 117.6 112.13 118.26 112.13H119.492V114H117.71ZM121.503 114V103.044H123.703V114H121.503ZM122.603 100.91C122.192 100.91 121.847 100.778 121.569 100.514C121.29 100.25 121.151 99.9127 121.151 99.502C121.151 99.106 121.29 98.7833 121.569 98.534C121.847 98.27 122.192 98.138 122.603 98.138C123.013 98.138 123.358 98.27 123.637 98.534C123.915 98.7833 124.055 99.106 124.055 99.502C124.055 99.9127 123.915 100.25 123.637 100.514C123.358 100.778 123.013 100.91 122.603 100.91ZM131.205 114.264C130.179 114.264 129.247 114.029 128.411 113.56C127.59 113.076 126.937 112.401 126.453 111.536C125.969 110.671 125.727 109.673 125.727 108.544C125.727 107.385 125.969 106.373 126.453 105.508C126.952 104.643 127.619 103.975 128.455 103.506C129.291 103.022 130.223 102.78 131.249 102.78C132.291 102.78 133.222 103.022 134.043 103.506C134.879 103.975 135.539 104.643 136.023 105.508C136.507 106.359 136.749 107.371 136.749 108.544C136.749 109.688 136.5 110.693 136.001 111.558C135.517 112.409 134.857 113.076 134.021 113.56C133.2 114.029 132.261 114.264 131.205 114.264ZM131.227 112.372C131.814 112.372 132.349 112.233 132.833 111.954C133.332 111.661 133.735 111.228 134.043 110.656C134.351 110.084 134.505 109.373 134.505 108.522C134.505 107.671 134.351 106.96 134.043 106.388C133.75 105.816 133.354 105.391 132.855 105.112C132.371 104.819 131.836 104.672 131.249 104.672C130.692 104.672 130.157 104.819 129.643 105.112C129.145 105.391 128.741 105.816 128.433 106.388C128.14 106.96 127.993 107.671 127.993 108.522C127.993 109.373 128.14 110.084 128.433 110.656C128.741 111.228 129.137 111.661 129.621 111.954C130.12 112.233 130.655 112.372 131.227 112.372ZM138.634 114V103.044H140.592L140.746 104.958C141.098 104.298 141.597 103.77 142.242 103.374C142.887 102.978 143.635 102.78 144.486 102.78C145.366 102.78 146.121 102.963 146.752 103.33C147.383 103.682 147.867 104.217 148.204 104.936C148.556 105.655 148.732 106.557 148.732 107.642V114H146.532V107.862C146.532 106.821 146.305 106.029 145.85 105.486C145.41 104.943 144.757 104.672 143.892 104.672C143.305 104.672 142.777 104.819 142.308 105.112C141.853 105.391 141.494 105.801 141.23 106.344C140.966 106.872 140.834 107.525 140.834 108.302V114H138.634ZM155.881 114.264C154.811 114.264 153.865 114.029 153.043 113.56C152.222 113.076 151.577 112.409 151.107 111.558C150.638 110.693 150.403 109.695 150.403 108.566C150.403 107.407 150.631 106.403 151.085 105.552C151.555 104.687 152.2 104.012 153.021 103.528C153.857 103.029 154.818 102.78 155.903 102.78C156.989 102.78 157.92 103.022 158.697 103.506C159.489 103.975 160.098 104.606 160.523 105.398C160.949 106.19 161.161 107.055 161.161 107.994C161.161 108.141 161.161 108.302 161.161 108.478C161.161 108.654 161.147 108.845 161.117 109.05H152.031V107.488H158.961C158.917 106.593 158.609 105.889 158.037 105.376C157.465 104.863 156.747 104.606 155.881 104.606C155.295 104.606 154.745 104.738 154.231 105.002C153.733 105.266 153.329 105.655 153.021 106.168C152.713 106.681 152.559 107.327 152.559 108.104V108.72C152.559 109.527 152.713 110.209 153.021 110.766C153.329 111.309 153.733 111.727 154.231 112.02C154.73 112.299 155.28 112.438 155.881 112.438C156.571 112.438 157.143 112.284 157.597 111.976C158.067 111.653 158.419 111.221 158.653 110.678H160.853C160.648 111.367 160.318 111.983 159.863 112.526C159.409 113.054 158.844 113.479 158.169 113.802C157.509 114.11 156.747 114.264 155.881 114.264ZM167.873 114.264C166.817 114.264 165.879 114.015 165.057 113.516C164.251 113.017 163.62 112.335 163.165 111.47C162.711 110.59 162.483 109.6 162.483 108.5C162.483 107.4 162.711 106.425 163.165 105.574C163.62 104.709 164.258 104.027 165.079 103.528C165.901 103.029 166.839 102.78 167.895 102.78C168.761 102.78 169.523 102.956 170.183 103.308C170.858 103.66 171.379 104.144 171.745 104.76V98.16H173.945V114H171.965L171.745 112.284C171.525 112.621 171.232 112.944 170.865 113.252C170.513 113.545 170.088 113.787 169.589 113.978C169.105 114.169 168.533 114.264 167.873 114.264ZM168.225 112.35C168.915 112.35 169.523 112.189 170.051 111.866C170.579 111.543 170.99 111.096 171.283 110.524C171.577 109.952 171.723 109.285 171.723 108.522C171.723 107.759 171.577 107.092 171.283 106.52C170.99 105.948 170.579 105.501 170.051 105.178C169.523 104.855 168.915 104.694 168.225 104.694C167.551 104.694 166.949 104.855 166.421 105.178C165.893 105.501 165.483 105.948 165.189 106.52C164.896 107.092 164.749 107.759 164.749 108.522C164.749 109.285 164.896 109.952 165.189 110.524C165.483 111.096 165.893 111.543 166.421 111.866C166.949 112.189 167.551 112.35 168.225 112.35ZM185.729 114C185.039 114 184.438 113.89 183.925 113.67C183.411 113.45 183.015 113.083 182.737 112.57C182.458 112.057 182.319 111.36 182.319 110.48V104.914H180.427V103.044H182.319L182.583 100.316H184.519V103.044H187.643V104.914H184.519V110.502C184.519 111.133 184.643 111.565 184.893 111.8C185.157 112.02 185.619 112.13 186.279 112.13H187.511V114H185.729ZM189.367 114V98.16H191.567V104.848C191.934 104.203 192.44 103.697 193.085 103.33C193.731 102.963 194.457 102.78 195.263 102.78C196.129 102.78 196.877 102.963 197.507 103.33C198.138 103.682 198.622 104.225 198.959 104.958C199.297 105.677 199.465 106.579 199.465 107.664V114H197.287V107.884C197.287 106.828 197.075 106.029 196.649 105.486C196.224 104.943 195.571 104.672 194.691 104.672C194.105 104.672 193.569 104.819 193.085 105.112C192.616 105.391 192.242 105.801 191.963 106.344C191.699 106.872 191.567 107.525 191.567 108.302V114H189.367ZM205.272 114.264C204.348 114.264 203.585 114.11 202.984 113.802C202.383 113.494 201.935 113.091 201.642 112.592C201.349 112.079 201.202 111.521 201.202 110.92C201.202 110.187 201.385 109.563 201.752 109.05C202.133 108.537 202.676 108.141 203.38 107.862C204.099 107.583 204.957 107.444 205.954 107.444H208.836C208.836 106.813 208.733 106.293 208.528 105.882C208.337 105.457 208.051 105.141 207.67 104.936C207.289 104.731 206.827 104.628 206.284 104.628C205.609 104.628 205.03 104.789 204.546 105.112C204.062 105.435 203.769 105.911 203.666 106.542H201.444C201.532 105.75 201.803 105.075 202.258 104.518C202.713 103.961 203.292 103.535 203.996 103.242C204.715 102.934 205.477 102.78 206.284 102.78C207.311 102.78 208.176 102.963 208.88 103.33C209.584 103.697 210.119 104.217 210.486 104.892C210.853 105.552 211.036 106.344 211.036 107.268V114H209.122L208.946 112.13C208.799 112.423 208.609 112.702 208.374 112.966C208.154 113.23 207.89 113.457 207.582 113.648C207.289 113.839 206.944 113.985 206.548 114.088C206.167 114.205 205.741 114.264 205.272 114.264ZM205.69 112.482C206.174 112.482 206.607 112.387 206.988 112.196C207.369 112.005 207.692 111.749 207.956 111.426C208.22 111.089 208.418 110.715 208.55 110.304C208.697 109.893 208.777 109.468 208.792 109.028V109.006H206.174C205.529 109.006 205.008 109.087 204.612 109.248C204.231 109.395 203.952 109.6 203.776 109.864C203.6 110.128 203.512 110.429 203.512 110.766C203.512 111.118 203.593 111.426 203.754 111.69C203.93 111.939 204.179 112.137 204.502 112.284C204.839 112.416 205.235 112.482 205.69 112.482ZM217.415 114C216.725 114 216.124 113.89 215.611 113.67C215.097 113.45 214.701 113.083 214.423 112.57C214.144 112.057 214.005 111.36 214.005 110.48V104.914H212.113V103.044H214.005L214.269 100.316H216.205V103.044H219.329V104.914H216.205V110.502C216.205 111.133 216.329 111.565 216.579 111.8C216.843 112.02 217.305 112.13 217.965 112.13H219.197V114H217.415ZM38.046 143V130.416C38.046 129.653 38.178 129.03 38.442 128.546C38.706 128.062 39.0873 127.71 39.586 127.49C40.0847 127.27 40.686 127.16 41.39 127.16H42.556V129.03H41.72C41.192 129.03 40.8107 129.14 40.576 129.36C40.356 129.565 40.246 129.932 40.246 130.46V143H38.046ZM36.462 133.914V132.044H42.842V133.914H36.462ZM49.0068 143.264C47.9801 143.264 47.0488 143.029 46.2128 142.56C45.3915 142.076 44.7388 141.401 44.2548 140.536C43.7708 139.671 43.5288 138.673 43.5288 137.544C43.5288 136.385 43.7708 135.373 44.2548 134.508C44.7535 133.643 45.4208 132.975 46.2568 132.506C47.0928 132.022 48.0241 131.78 49.0508 131.78C50.0921 131.78 51.0235 132.022 51.8448 132.506C52.6808 132.975 53.3408 133.643 53.8248 134.508C54.3088 135.359 54.5508 136.371 54.5508 137.544C54.5508 138.688 54.3015 139.693 53.8028 140.558C53.3188 141.409 52.6588 142.076 51.8228 142.56C51.0015 143.029 50.0628 143.264 49.0068 143.264ZM49.0288 141.372C49.6155 141.372 50.1508 141.233 50.6348 140.954C51.1335 140.661 51.5368 140.228 51.8448 139.656C52.1528 139.084 52.3068 138.373 52.3068 137.522C52.3068 136.671 52.1528 135.96 51.8448 135.388C51.5515 134.816 51.1555 134.391 50.6568 134.112C50.1728 133.819 49.6375 133.672 49.0508 133.672C48.4935 133.672 47.9581 133.819 47.4448 134.112C46.9461 134.391 46.5428 134.816 46.2348 135.388C45.9415 135.96 45.7948 136.671 45.7948 137.522C45.7948 138.373 45.9415 139.084 46.2348 139.656C46.5428 140.228 46.9388 140.661 47.4228 140.954C47.9215 141.233 48.4568 141.372 49.0288 141.372ZM56.4358 143V132.044H58.4158L58.5918 134.156C58.8411 133.657 59.1564 133.232 59.5378 132.88C59.9338 132.528 60.3884 132.257 60.9018 132.066C61.4298 131.875 62.0238 131.78 62.6838 131.78V134.112H62.0458C61.5764 134.112 61.1291 134.171 60.7038 134.288C60.2931 134.405 59.9264 134.596 59.6038 134.86C59.2958 135.124 59.0538 135.483 58.8778 135.938C58.7164 136.393 58.6358 136.965 58.6358 137.654V143H56.4358ZM68.763 143.264C67.6923 143.264 66.7463 143.029 65.925 142.56C65.1037 142.076 64.4583 141.409 63.989 140.558C63.5197 139.693 63.285 138.695 63.285 137.566C63.285 136.407 63.5123 135.403 63.967 134.552C64.4363 133.687 65.0817 133.012 65.903 132.528C66.739 132.029 67.6997 131.78 68.785 131.78C69.8703 131.78 70.8017 132.022 71.579 132.506C72.371 132.975 72.9797 133.606 73.405 134.398C73.8303 135.19 74.043 136.055 74.043 136.994C74.043 137.141 74.043 137.302 74.043 137.478C74.043 137.654 74.0283 137.845 73.999 138.05H64.913V136.488H71.843C71.799 135.593 71.491 134.889 70.919 134.376C70.347 133.863 69.6283 133.606 68.763 133.606C68.1763 133.606 67.6263 133.738 67.113 134.002C66.6143 134.266 66.211 134.655 65.903 135.168C65.595 135.681 65.441 136.327 65.441 137.104V137.72C65.441 138.527 65.595 139.209 65.903 139.766C66.211 140.309 66.6143 140.727 67.113 141.02C67.6117 141.299 68.1617 141.438 68.763 141.438C69.4523 141.438 70.0243 141.284 70.479 140.976C70.9483 140.653 71.3003 140.221 71.535 139.678H73.735C73.5297 140.367 73.1997 140.983 72.745 141.526C72.2903 142.054 71.7257 142.479 71.051 142.802C70.391 143.11 69.6283 143.264 68.763 143.264ZM75.9592 143V132.044H78.1592V143H75.9592ZM77.0592 129.91C76.6486 129.91 76.3039 129.778 76.0252 129.514C75.7466 129.25 75.6072 128.913 75.6072 128.502C75.6072 128.106 75.7466 127.783 76.0252 127.534C76.3039 127.27 76.6486 127.138 77.0592 127.138C77.4699 127.138 77.8146 127.27 78.0932 127.534C78.3719 127.783 78.5112 128.106 78.5112 128.502C78.5112 128.913 78.3719 129.25 78.0932 129.514C77.8146 129.778 77.4699 129.91 77.0592 129.91ZM85.0897 148.104C84.0924 148.104 83.2051 147.972 82.4277 147.708C81.6651 147.459 81.0637 147.07 80.6237 146.542C80.1984 146.014 79.9857 145.369 79.9857 144.606C79.9857 144.225 80.0737 143.829 80.2497 143.418C80.4404 143.022 80.7337 142.641 81.1297 142.274C81.5257 141.907 82.0537 141.577 82.7137 141.284L83.9237 142.274C83.1904 142.567 82.6991 142.905 82.4497 143.286C82.2004 143.667 82.0757 144.034 82.0757 144.386C82.0757 144.826 82.2077 145.193 82.4717 145.486C82.7357 145.779 83.0951 145.999 83.5497 146.146C84.0044 146.293 84.5177 146.366 85.0897 146.366C85.6617 146.366 86.1531 146.285 86.5637 146.124C86.9744 145.963 87.2971 145.735 87.5317 145.442C87.7664 145.149 87.8837 144.804 87.8837 144.408C87.8837 143.953 87.7077 143.565 87.3557 143.242C87.0184 142.934 86.3657 142.751 85.3977 142.692C84.5617 142.633 83.8504 142.553 83.2637 142.45C82.6917 142.347 82.2077 142.223 81.8117 142.076C81.4157 141.929 81.0784 141.768 80.7997 141.592C80.5357 141.416 80.3011 141.233 80.0957 141.042V140.536L82.3177 138.27L84.0337 138.864L81.7017 141.108L82.1637 140.14C82.3251 140.243 82.4791 140.345 82.6257 140.448C82.7724 140.536 82.9631 140.617 83.1977 140.69C83.4471 140.749 83.7844 140.807 84.2097 140.866C84.6351 140.925 85.1851 140.983 85.8597 141.042C86.8424 141.115 87.6344 141.291 88.2357 141.57C88.8517 141.849 89.2991 142.223 89.5777 142.692C89.8564 143.161 89.9957 143.711 89.9957 144.342C89.9957 144.973 89.8197 145.574 89.4677 146.146C89.1157 146.718 88.5804 147.187 87.8617 147.554C87.1431 147.921 86.2191 148.104 85.0897 148.104ZM85.0897 139.634C84.1657 139.634 83.3737 139.458 82.7137 139.106C82.0684 138.754 81.5697 138.285 81.2177 137.698C80.8804 137.097 80.7117 136.437 80.7117 135.718C80.7117 134.985 80.8804 134.325 81.2177 133.738C81.5697 133.151 82.0684 132.682 82.7137 132.33C83.3737 131.963 84.1657 131.78 85.0897 131.78C86.0137 131.78 86.7984 131.963 87.4437 132.33C88.1037 132.682 88.6024 133.151 88.9397 133.738C89.2917 134.325 89.4677 134.985 89.4677 135.718C89.4677 136.437 89.2917 137.097 88.9397 137.698C88.6024 138.285 88.1037 138.754 87.4437 139.106C86.7984 139.458 86.0137 139.634 85.0897 139.634ZM85.0897 137.874C85.7937 137.874 86.3584 137.691 86.7837 137.324C87.2237 136.943 87.4437 136.407 87.4437 135.718C87.4437 135.029 87.2237 134.501 86.7837 134.134C86.3584 133.753 85.7937 133.562 85.0897 133.562C84.3711 133.562 83.7917 133.753 83.3517 134.134C82.9264 134.501 82.7137 135.029 82.7137 135.718C82.7137 136.407 82.9264 136.943 83.3517 137.324C83.7917 137.691 84.3711 137.874 85.0897 137.874ZM86.8717 133.782L86.3217 132.044H90.8757V133.562L86.8717 133.782ZM92.4462 143V132.044H94.4042L94.5582 133.958C94.9102 133.298 95.4088 132.77 96.0542 132.374C96.6995 131.978 97.4475 131.78 98.2982 131.78C99.1782 131.78 99.9335 131.963 100.564 132.33C101.195 132.682 101.679 133.217 102.016 133.936C102.368 134.655 102.544 135.557 102.544 136.642V143H100.344V136.862C100.344 135.821 100.117 135.029 99.6622 134.486C99.2222 133.943 98.5695 133.672 97.7042 133.672C97.1175 133.672 96.5895 133.819 96.1202 134.112C95.6655 134.391 95.3062 134.801 95.0422 135.344C94.7782 135.872 94.6462 136.525 94.6462 137.302V143H92.4462ZM113.629 143.264C112.763 143.264 112.008 143.088 111.363 142.736C110.732 142.384 110.241 141.849 109.889 141.13C109.551 140.397 109.383 139.487 109.383 138.402V132.044H111.583V138.182C111.583 139.238 111.803 140.037 112.243 140.58C112.683 141.123 113.343 141.394 114.223 141.394C114.809 141.394 115.33 141.255 115.785 140.976C116.254 140.683 116.621 140.272 116.885 139.744C117.163 139.201 117.303 138.541 117.303 137.764V132.044H119.503V143H117.523L117.369 141.086C117.031 141.761 116.533 142.296 115.873 142.692C115.213 143.073 114.465 143.264 113.629 143.264ZM126.102 143.264C125.193 143.264 124.386 143.11 123.682 142.802C122.978 142.494 122.413 142.061 121.988 141.504C121.563 140.947 121.306 140.301 121.218 139.568H123.44C123.528 139.92 123.682 140.243 123.902 140.536C124.122 140.815 124.415 141.042 124.782 141.218C125.149 141.394 125.589 141.482 126.102 141.482C126.586 141.482 126.982 141.416 127.29 141.284C127.598 141.137 127.825 140.947 127.972 140.712C128.119 140.477 128.192 140.228 128.192 139.964C128.192 139.568 128.089 139.267 127.884 139.062C127.693 138.842 127.4 138.673 127.004 138.556C126.623 138.439 126.161 138.321 125.618 138.204C125.149 138.101 124.679 137.977 124.21 137.83C123.741 137.683 123.315 137.5 122.934 137.28C122.553 137.045 122.245 136.752 122.01 136.4C121.79 136.048 121.68 135.615 121.68 135.102C121.68 134.471 121.841 133.907 122.164 133.408C122.501 132.909 122.978 132.513 123.594 132.22C124.21 131.927 124.943 131.78 125.794 131.78C127.011 131.78 127.994 132.073 128.742 132.66C129.49 133.247 129.93 134.075 130.062 135.146H127.928C127.869 134.662 127.649 134.281 127.268 134.002C126.901 133.723 126.403 133.584 125.772 133.584C125.156 133.584 124.679 133.709 124.342 133.958C124.019 134.207 123.858 134.53 123.858 134.926C123.858 135.19 123.953 135.425 124.144 135.63C124.349 135.821 124.635 135.982 125.002 136.114C125.383 136.246 125.831 136.371 126.344 136.488C127.077 136.649 127.745 136.84 128.346 137.06C128.962 137.265 129.461 137.581 129.842 138.006C130.238 138.417 130.436 139.018 130.436 139.81C130.451 140.485 130.275 141.086 129.908 141.614C129.556 142.127 129.057 142.531 128.412 142.824C127.767 143.117 126.997 143.264 126.102 143.264ZM137.405 143.264C136.334 143.264 135.388 143.029 134.567 142.56C133.745 142.076 133.1 141.409 132.631 140.558C132.161 139.693 131.927 138.695 131.927 137.566C131.927 136.407 132.154 135.403 132.609 134.552C133.078 133.687 133.723 133.012 134.545 132.528C135.381 132.029 136.341 131.78 137.427 131.78C138.512 131.78 139.443 132.022 140.221 132.506C141.013 132.975 141.621 133.606 142.047 134.398C142.472 135.19 142.685 136.055 142.685 136.994C142.685 137.141 142.685 137.302 142.685 137.478C142.685 137.654 142.67 137.845 142.641 138.05H133.555V136.488H140.485C140.441 135.593 140.133 134.889 139.561 134.376C138.989 133.863 138.27 133.606 137.405 133.606C136.818 133.606 136.268 133.738 135.755 134.002C135.256 134.266 134.853 134.655 134.545 135.168C134.237 135.681 134.083 136.327 134.083 137.104V137.72C134.083 138.527 134.237 139.209 134.545 139.766C134.853 140.309 135.256 140.727 135.755 141.02C136.253 141.299 136.803 141.438 137.405 141.438C138.094 141.438 138.666 141.284 139.121 140.976C139.59 140.653 139.942 140.221 140.177 139.678H142.377C142.171 140.367 141.841 140.983 141.387 141.526C140.932 142.054 140.367 142.479 139.693 142.802C139.033 143.11 138.27 143.264 137.405 143.264ZM144.447 143V132.044H146.427L146.603 134.156C146.852 133.657 147.168 133.232 147.549 132.88C147.945 132.528 148.4 132.257 148.913 132.066C149.441 131.875 150.035 131.78 150.695 131.78V134.112H150.057C149.588 134.112 149.14 134.171 148.715 134.288C148.304 134.405 147.938 134.596 147.615 134.86C147.307 135.124 147.065 135.483 146.889 135.938C146.728 136.393 146.647 136.965 146.647 137.654V143H144.447ZM156.348 143.264C155.439 143.264 154.632 143.11 153.928 142.802C153.224 142.494 152.66 142.061 152.234 141.504C151.809 140.947 151.552 140.301 151.464 139.568H153.686C153.774 139.92 153.928 140.243 154.148 140.536C154.368 140.815 154.662 141.042 155.028 141.218C155.395 141.394 155.835 141.482 156.348 141.482C156.832 141.482 157.228 141.416 157.536 141.284C157.844 141.137 158.072 140.947 158.218 140.712C158.365 140.477 158.438 140.228 158.438 139.964C158.438 139.568 158.336 139.267 158.13 139.062C157.94 138.842 157.646 138.673 157.25 138.556C156.869 138.439 156.407 138.321 155.864 138.204C155.395 138.101 154.926 137.977 154.456 137.83C153.987 137.683 153.562 137.5 153.18 137.28C152.799 137.045 152.491 136.752 152.256 136.4C152.036 136.048 151.926 135.615 151.926 135.102C151.926 134.471 152.088 133.907 152.41 133.408C152.748 132.909 153.224 132.513 153.84 132.22C154.456 131.927 155.19 131.78 156.04 131.78C157.258 131.78 158.24 132.073 158.988 132.66C159.736 133.247 160.176 134.075 160.308 135.146H158.174C158.116 134.662 157.896 134.281 157.514 134.002C157.148 133.723 156.649 133.584 156.018 133.584C155.402 133.584 154.926 133.709 154.588 133.958C154.266 134.207 154.104 134.53 154.104 134.926C154.104 135.19 154.2 135.425 154.39 135.63C154.596 135.821 154.882 135.982 155.248 136.114C155.63 136.246 156.077 136.371 156.59 136.488C157.324 136.649 157.991 136.84 158.592 137.06C159.208 137.265 159.707 137.581 160.088 138.006C160.484 138.417 160.682 139.018 160.682 139.81C160.697 140.485 160.521 141.086 160.154 141.614C159.802 142.127 159.304 142.531 158.658 142.824C158.013 143.117 157.243 143.264 156.348 143.264ZM172.511 143.264C171.455 143.264 170.516 143.015 169.695 142.516C168.888 142.017 168.257 141.335 167.803 140.47C167.348 139.59 167.121 138.6 167.121 137.5C167.121 136.4 167.348 135.425 167.803 134.574C168.257 133.709 168.895 133.027 169.717 132.528C170.538 132.029 171.477 131.78 172.533 131.78C173.398 131.78 174.161 131.956 174.821 132.308C175.495 132.66 176.016 133.144 176.383 133.76V127.16H178.583V143H176.603L176.383 141.284C176.163 141.621 175.869 141.944 175.503 142.252C175.151 142.545 174.725 142.787 174.227 142.978C173.743 143.169 173.171 143.264 172.511 143.264ZM172.863 141.35C173.552 141.35 174.161 141.189 174.689 140.866C175.217 140.543 175.627 140.096 175.921 139.524C176.214 138.952 176.361 138.285 176.361 137.522C176.361 136.759 176.214 136.092 175.921 135.52C175.627 134.948 175.217 134.501 174.689 134.178C174.161 133.855 173.552 133.694 172.863 133.694C172.188 133.694 171.587 133.855 171.059 134.178C170.531 134.501 170.12 134.948 169.827 135.52C169.533 136.092 169.387 136.759 169.387 137.522C169.387 138.285 169.533 138.952 169.827 139.524C170.12 140.096 170.531 140.543 171.059 140.866C171.587 141.189 172.188 141.35 172.863 141.35ZM185.947 143.264C184.92 143.264 183.989 143.029 183.153 142.56C182.331 142.076 181.679 141.401 181.195 140.536C180.711 139.671 180.469 138.673 180.469 137.544C180.469 136.385 180.711 135.373 181.195 134.508C181.693 133.643 182.361 132.975 183.197 132.506C184.033 132.022 184.964 131.78 185.991 131.78C187.032 131.78 187.963 132.022 188.785 132.506C189.621 132.975 190.281 133.643 190.765 134.508C191.249 135.359 191.491 136.371 191.491 137.544C191.491 138.688 191.241 139.693 190.743 140.558C190.259 141.409 189.599 142.076 188.763 142.56C187.941 143.029 187.003 143.264 185.947 143.264ZM185.969 141.372C186.555 141.372 187.091 141.233 187.575 140.954C188.073 140.661 188.477 140.228 188.785 139.656C189.093 139.084 189.247 138.373 189.247 137.522C189.247 136.671 189.093 135.96 188.785 135.388C188.491 134.816 188.095 134.391 187.597 134.112C187.113 133.819 186.577 133.672 185.991 133.672C185.433 133.672 184.898 133.819 184.385 134.112C183.886 134.391 183.483 134.816 183.175 135.388C182.881 135.96 182.735 136.671 182.735 137.522C182.735 138.373 182.881 139.084 183.175 139.656C183.483 140.228 183.879 140.661 184.363 140.954C184.861 141.233 185.397 141.372 185.969 141.372ZM193.375 143V132.044H195.333L195.487 133.958C195.839 133.298 196.338 132.77 196.983 132.374C197.629 131.978 198.377 131.78 199.227 131.78C200.107 131.78 200.863 131.963 201.493 132.33C202.124 132.682 202.608 133.217 202.945 133.936C203.297 134.655 203.473 135.557 203.473 136.642V143H201.273V136.862C201.273 135.821 201.046 135.029 200.591 134.486C200.151 133.943 199.499 133.672 198.633 133.672C198.047 133.672 197.519 133.819 197.049 134.112C196.595 134.391 196.235 134.801 195.971 135.344C195.707 135.872 195.575 136.525 195.575 137.302V143H193.375ZM208.357 127.6L206.289 132.726H204.749L205.959 127.6H208.357ZM214.355 143C213.665 143 213.064 142.89 212.551 142.67C212.037 142.45 211.641 142.083 211.363 141.57C211.084 141.057 210.945 140.36 210.945 139.48V133.914H209.053V132.044H210.945L211.209 129.316H213.145V132.044H216.269V133.914H213.145V139.502C213.145 140.133 213.269 140.565 213.519 140.8C213.783 141.02 214.245 141.13 214.905 141.13H216.137V143H214.355ZM41.522 172.264C40.6567 172.264 39.9013 172.088 39.256 171.736C38.6253 171.384 38.134 170.849 37.782 170.13C37.4447 169.397 37.276 168.487 37.276 167.402V161.044H39.476V167.182C39.476 168.238 39.696 169.037 40.136 169.58C40.576 170.123 41.236 170.394 42.116 170.394C42.7027 170.394 43.2233 170.255 43.678 169.976C44.1473 169.683 44.514 169.272 44.778 168.744C45.0567 168.201 45.196 167.541 45.196 166.764V161.044H47.396V172H45.416L45.262 170.086C44.9247 170.761 44.426 171.296 43.766 171.692C43.106 172.073 42.358 172.264 41.522 172.264ZM49.7051 172V161.044H51.6631L51.8171 162.958C52.1691 162.298 52.6678 161.77 53.3131 161.374C53.9585 160.978 54.7065 160.78 55.5571 160.78C56.4371 160.78 57.1925 160.963 57.8231 161.33C58.4538 161.682 58.9378 162.217 59.2751 162.936C59.6271 163.655 59.8031 164.557 59.8031 165.642V172H57.6031V165.862C57.6031 164.821 57.3758 164.029 56.9211 163.486C56.4811 162.943 55.8285 162.672 54.9631 162.672C54.3765 162.672 53.8485 162.819 53.3791 163.112C52.9245 163.391 52.5651 163.801 52.3011 164.344C52.0371 164.872 51.9051 165.525 51.9051 166.302V172H49.7051ZM66.8643 172.264C65.8083 172.264 64.8696 172.015 64.0483 171.516C63.2416 171.017 62.6109 170.335 62.1563 169.47C61.7016 168.59 61.4743 167.6 61.4743 166.5C61.4743 165.4 61.7016 164.425 62.1563 163.574C62.6109 162.709 63.2489 162.027 64.0703 161.528C64.8916 161.029 65.8303 160.78 66.8863 160.78C67.7516 160.78 68.5143 160.956 69.1743 161.308C69.8489 161.66 70.3696 162.144 70.7363 162.76V156.16H72.9363V172H70.9563L70.7363 170.284C70.5163 170.621 70.2229 170.944 69.8563 171.252C69.5043 171.545 69.0789 171.787 68.5803 171.978C68.0963 172.169 67.5243 172.264 66.8643 172.264ZM67.2163 170.35C67.9056 170.35 68.5143 170.189 69.0423 169.866C69.5703 169.543 69.9809 169.096 70.2743 168.524C70.5676 167.952 70.7143 167.285 70.7143 166.522C70.7143 165.759 70.5676 165.092 70.2743 164.52C69.9809 163.948 69.5703 163.501 69.0423 163.178C68.5143 162.855 67.9056 162.694 67.2163 162.694C66.5416 162.694 65.9403 162.855 65.4123 163.178C64.8843 163.501 64.4736 163.948 64.1803 164.52C63.8869 165.092 63.7403 165.759 63.7403 166.522C63.7403 167.285 63.8869 167.952 64.1803 168.524C64.4736 169.096 64.8843 169.543 65.4123 169.866C65.9403 170.189 66.5416 170.35 67.2163 170.35ZM80.3001 172.264C79.2294 172.264 78.2834 172.029 77.4621 171.56C76.6408 171.076 75.9954 170.409 75.5261 169.558C75.0568 168.693 74.8221 167.695 74.8221 166.566C74.8221 165.407 75.0494 164.403 75.5041 163.552C75.9734 162.687 76.6188 162.012 77.4401 161.528C78.2761 161.029 79.2368 160.78 80.3221 160.78C81.4074 160.78 82.3388 161.022 83.1161 161.506C83.9081 161.975 84.5168 162.606 84.9421 163.398C85.3674 164.19 85.5801 165.055 85.5801 165.994C85.5801 166.141 85.5801 166.302 85.5801 166.478C85.5801 166.654 85.5654 166.845 85.5361 167.05H76.4501V165.488H83.3801C83.3361 164.593 83.0281 163.889 82.4561 163.376C81.8841 162.863 81.1654 162.606 80.3001 162.606C79.7134 162.606 79.1634 162.738 78.6501 163.002C78.1514 163.266 77.7481 163.655 77.4401 164.168C77.1321 164.681 76.9781 165.327 76.9781 166.104V166.72C76.9781 167.527 77.1321 168.209 77.4401 168.766C77.7481 169.309 78.1514 169.727 78.6501 170.02C79.1488 170.299 79.6988 170.438 80.3001 170.438C80.9894 170.438 81.5614 170.284 82.0161 169.976C82.4854 169.653 82.8374 169.221 83.0721 168.678H85.2721C85.0668 169.367 84.7368 169.983 84.2821 170.526C83.8274 171.054 83.2628 171.479 82.5881 171.802C81.9281 172.11 81.1654 172.264 80.3001 172.264ZM87.3423 172V161.044H89.3223L89.4983 163.156C89.7477 162.657 90.063 162.232 90.4443 161.88C90.8403 161.528 91.295 161.257 91.8083 161.066C92.3363 160.875 92.9303 160.78 93.5903 160.78V163.112H92.9523C92.483 163.112 92.0357 163.171 91.6103 163.288C91.1997 163.405 90.833 163.596 90.5103 163.86C90.2023 164.124 89.9603 164.483 89.7843 164.938C89.623 165.393 89.5423 165.965 89.5423 166.654V172H87.3423ZM99.2438 172.264C98.3345 172.264 97.5278 172.11 96.8238 171.802C96.1198 171.494 95.5551 171.061 95.1298 170.504C94.7045 169.947 94.4478 169.301 94.3598 168.568H96.5818C96.6698 168.92 96.8238 169.243 97.0438 169.536C97.2638 169.815 97.5571 170.042 97.9238 170.218C98.2905 170.394 98.7305 170.482 99.2438 170.482C99.7278 170.482 100.124 170.416 100.432 170.284C100.74 170.137 100.967 169.947 101.114 169.712C101.26 169.477 101.334 169.228 101.334 168.964C101.334 168.568 101.231 168.267 101.026 168.062C100.835 167.842 100.542 167.673 100.146 167.556C99.7645 167.439 99.3025 167.321 98.7598 167.204C98.2905 167.101 97.8211 166.977 97.3518 166.83C96.8825 166.683 96.4571 166.5 96.0758 166.28C95.6945 166.045 95.3865 165.752 95.1518 165.4C94.9318 165.048 94.8218 164.615 94.8218 164.102C94.8218 163.471 94.9831 162.907 95.3058 162.408C95.6431 161.909 96.1198 161.513 96.7358 161.22C97.3518 160.927 98.0851 160.78 98.9358 160.78C100.153 160.78 101.136 161.073 101.884 161.66C102.632 162.247 103.072 163.075 103.204 164.146H101.07C101.011 163.662 100.791 163.281 100.41 163.002C100.043 162.723 99.5445 162.584 98.9138 162.584C98.2978 162.584 97.8211 162.709 97.4838 162.958C97.1611 163.207 96.9998 163.53 96.9998 163.926C96.9998 164.19 97.0951 164.425 97.2858 164.63C97.4911 164.821 97.7771 164.982 98.1438 165.114C98.5251 165.246 98.9725 165.371 99.4858 165.488C100.219 165.649 100.886 165.84 101.488 166.06C102.104 166.265 102.602 166.581 102.984 167.006C103.38 167.417 103.578 168.018 103.578 168.81C103.592 169.485 103.416 170.086 103.05 170.614C102.698 171.127 102.199 171.531 101.554 171.824C100.908 172.117 100.138 172.264 99.2438 172.264ZM109.567 172C108.878 172 108.277 171.89 107.763 171.67C107.25 171.45 106.854 171.083 106.575 170.57C106.297 170.057 106.157 169.36 106.157 168.48V162.914H104.265V161.044H106.157L106.421 158.316H108.357V161.044H111.481V162.914H108.357V168.502C108.357 169.133 108.482 169.565 108.731 169.8C108.995 170.02 109.457 170.13 110.117 170.13H111.349V172H109.567ZM116.88 172.264C115.956 172.264 115.193 172.11 114.592 171.802C113.991 171.494 113.543 171.091 113.25 170.592C112.957 170.079 112.81 169.521 112.81 168.92C112.81 168.187 112.993 167.563 113.36 167.05C113.741 166.537 114.284 166.141 114.988 165.862C115.707 165.583 116.565 165.444 117.562 165.444H120.444C120.444 164.813 120.341 164.293 120.136 163.882C119.945 163.457 119.659 163.141 119.278 162.936C118.897 162.731 118.435 162.628 117.892 162.628C117.217 162.628 116.638 162.789 116.154 163.112C115.67 163.435 115.377 163.911 115.274 164.542H113.052C113.14 163.75 113.411 163.075 113.866 162.518C114.321 161.961 114.9 161.535 115.604 161.242C116.323 160.934 117.085 160.78 117.892 160.78C118.919 160.78 119.784 160.963 120.488 161.33C121.192 161.697 121.727 162.217 122.094 162.892C122.461 163.552 122.644 164.344 122.644 165.268V172H120.73L120.554 170.13C120.407 170.423 120.217 170.702 119.982 170.966C119.762 171.23 119.498 171.457 119.19 171.648C118.897 171.839 118.552 171.985 118.156 172.088C117.775 172.205 117.349 172.264 116.88 172.264ZM117.298 170.482C117.782 170.482 118.215 170.387 118.596 170.196C118.977 170.005 119.3 169.749 119.564 169.426C119.828 169.089 120.026 168.715 120.158 168.304C120.305 167.893 120.385 167.468 120.4 167.028V167.006H117.782C117.137 167.006 116.616 167.087 116.22 167.248C115.839 167.395 115.56 167.6 115.384 167.864C115.208 168.128 115.12 168.429 115.12 168.766C115.12 169.118 115.201 169.426 115.362 169.69C115.538 169.939 115.787 170.137 116.11 170.284C116.447 170.416 116.843 170.482 117.298 170.482ZM124.749 172V161.044H126.707L126.861 162.958C127.213 162.298 127.712 161.77 128.357 161.374C129.003 160.978 129.751 160.78 130.601 160.78C131.481 160.78 132.237 160.963 132.867 161.33C133.498 161.682 133.982 162.217 134.319 162.936C134.671 163.655 134.847 164.557 134.847 165.642V172H132.647V165.862C132.647 164.821 132.42 164.029 131.965 163.486C131.525 162.943 130.873 162.672 130.007 162.672C129.421 162.672 128.893 162.819 128.423 163.112C127.969 163.391 127.609 163.801 127.345 164.344C127.081 164.872 126.949 165.525 126.949 166.302V172H124.749ZM141.908 172.264C140.852 172.264 139.914 172.015 139.092 171.516C138.286 171.017 137.655 170.335 137.2 169.47C136.746 168.59 136.518 167.6 136.518 166.5C136.518 165.4 136.746 164.425 137.2 163.574C137.655 162.709 138.293 162.027 139.114 161.528C139.936 161.029 140.874 160.78 141.93 160.78C142.796 160.78 143.558 160.956 144.218 161.308C144.893 161.66 145.414 162.144 145.78 162.76V156.16H147.98V172H146L145.78 170.284C145.56 170.621 145.267 170.944 144.9 171.252C144.548 171.545 144.123 171.787 143.624 171.978C143.14 172.169 142.568 172.264 141.908 172.264ZM142.26 170.35C142.95 170.35 143.558 170.189 144.086 169.866C144.614 169.543 145.025 169.096 145.318 168.524C145.612 167.952 145.758 167.285 145.758 166.522C145.758 165.759 145.612 165.092 145.318 164.52C145.025 163.948 144.614 163.501 144.086 163.178C143.558 162.855 142.95 162.694 142.26 162.694C141.586 162.694 140.984 162.855 140.456 163.178C139.928 163.501 139.518 163.948 139.224 164.52C138.931 165.092 138.784 165.759 138.784 166.522C138.784 167.285 138.931 167.952 139.224 168.524C139.518 169.096 139.928 169.543 140.456 169.866C140.984 170.189 141.586 170.35 142.26 170.35ZM159.764 172C159.074 172 158.473 171.89 157.96 171.67C157.446 171.45 157.05 171.083 156.772 170.57C156.493 170.057 156.354 169.36 156.354 168.48V162.914H154.462V161.044H156.354L156.618 158.316H158.554V161.044H161.678V162.914H158.554V168.502C158.554 169.133 158.678 169.565 158.928 169.8C159.192 170.02 159.654 170.13 160.314 170.13H161.546V172H159.764ZM163.402 172V156.16H165.602V162.848C165.969 162.203 166.475 161.697 167.12 161.33C167.766 160.963 168.492 160.78 169.298 160.78C170.164 160.78 170.912 160.963 171.542 161.33C172.173 161.682 172.657 162.225 172.994 162.958C173.332 163.677 173.5 164.579 173.5 165.664V172H171.322V165.884C171.322 164.828 171.11 164.029 170.684 163.486C170.259 162.943 169.606 162.672 168.726 162.672C168.14 162.672 167.604 162.819 167.12 163.112C166.651 163.391 166.277 163.801 165.998 164.344C165.734 164.872 165.602 165.525 165.602 166.302V172H163.402ZM180.671 172.264C179.6 172.264 178.654 172.029 177.833 171.56C177.011 171.076 176.366 170.409 175.897 169.558C175.427 168.693 175.193 167.695 175.193 166.566C175.193 165.407 175.42 164.403 175.875 163.552C176.344 162.687 176.989 162.012 177.811 161.528C178.647 161.029 179.607 160.78 180.693 160.78C181.778 160.78 182.709 161.022 183.487 161.506C184.279 161.975 184.887 162.606 185.313 163.398C185.738 164.19 185.951 165.055 185.951 165.994C185.951 166.141 185.951 166.302 185.951 166.478C185.951 166.654 185.936 166.845 185.907 167.05H176.821V165.488H183.751C183.707 164.593 183.399 163.889 182.827 163.376C182.255 162.863 181.536 162.606 180.671 162.606C180.084 162.606 179.534 162.738 179.021 163.002C178.522 163.266 178.119 163.655 177.811 164.168C177.503 164.681 177.349 165.327 177.349 166.104V166.72C177.349 167.527 177.503 168.209 177.811 168.766C178.119 169.309 178.522 169.727 179.021 170.02C179.519 170.299 180.069 170.438 180.671 170.438C181.36 170.438 181.932 170.284 182.387 169.976C182.856 169.653 183.208 169.221 183.443 168.678H185.643C185.437 169.367 185.107 169.983 184.653 170.526C184.198 171.054 183.633 171.479 182.959 171.802C182.299 172.11 181.536 172.264 180.671 172.264ZM191.78 172L197.434 156.6H199.832L205.464 172H203.132L198.622 159.24L194.068 172H191.78ZM194.332 168.194L194.948 166.434H202.186L202.78 168.194H194.332ZM206.999 172V156.6H212.213C213.43 156.6 214.427 156.805 215.205 157.216C215.982 157.627 216.554 158.177 216.921 158.866C217.302 159.541 217.493 160.311 217.493 161.176C217.493 161.997 217.302 162.76 216.921 163.464C216.554 164.153 215.975 164.711 215.183 165.136C214.391 165.547 213.379 165.752 212.147 165.752H209.199V172H206.999ZM215.095 172L211.773 165.158H214.193L217.647 172H215.095ZM209.199 164.08H212.059C213.159 164.08 213.958 163.816 214.457 163.288C214.97 162.745 215.227 162.056 215.227 161.22C215.227 160.369 214.977 159.695 214.479 159.196C213.98 158.697 213.173 158.448 212.059 158.448H209.199V164.08ZM226.436 172.264C224.911 172.264 223.598 171.934 222.498 171.274C221.398 170.599 220.547 169.668 219.946 168.48C219.345 167.277 219.044 165.884 219.044 164.3C219.044 162.731 219.345 161.345 219.946 160.142C220.547 158.939 221.398 158.008 222.498 157.348C223.598 156.673 224.911 156.336 226.436 156.336C228.24 156.336 229.707 156.769 230.836 157.634C231.965 158.499 232.677 159.717 232.97 161.286H230.55C230.33 160.377 229.875 159.651 229.186 159.108C228.511 158.565 227.587 158.294 226.414 158.294C225.373 158.294 224.463 158.536 223.686 159.02C222.923 159.504 222.337 160.193 221.926 161.088C221.515 161.983 221.31 163.053 221.31 164.3C221.31 165.547 221.515 166.625 221.926 167.534C222.337 168.429 222.923 169.118 223.686 169.602C224.463 170.071 225.373 170.306 226.414 170.306C227.587 170.306 228.511 170.049 229.186 169.536C229.875 169.008 230.33 168.297 230.55 167.402H232.97C232.677 168.927 231.965 170.123 230.836 170.988C229.707 171.839 228.24 172.264 226.436 172.264ZM239.866 172V156.6H242.066V172H239.866ZM244.577 172V156.6H249.461C251.265 156.6 252.754 156.915 253.927 157.546C255.101 158.177 255.966 159.071 256.523 160.23C257.095 161.374 257.381 162.738 257.381 164.322C257.381 165.906 257.095 167.27 256.523 168.414C255.966 169.558 255.101 170.445 253.927 171.076C252.754 171.692 251.265 172 249.461 172H244.577ZM246.777 170.152H249.373C250.796 170.152 251.925 169.917 252.761 169.448C253.612 168.979 254.213 168.311 254.565 167.446C254.932 166.566 255.115 165.525 255.115 164.322C255.115 163.105 254.932 162.056 254.565 161.176C254.213 160.296 253.612 159.621 252.761 159.152C251.925 158.683 250.796 158.448 249.373 158.448H246.777V170.152ZM37.496 201V190.044H39.476L39.652 192.156C39.9013 191.657 40.2167 191.232 40.598 190.88C40.994 190.528 41.4487 190.257 41.962 190.066C42.49 189.875 43.084 189.78 43.744 189.78V192.112H43.106C42.6367 192.112 42.1893 192.171 41.764 192.288C41.3533 192.405 40.9867 192.596 40.664 192.86C40.356 193.124 40.114 193.483 39.938 193.938C39.7767 194.393 39.696 194.965 39.696 195.654V201H37.496ZM49.8232 201.264C48.7526 201.264 47.8066 201.029 46.9852 200.56C46.1639 200.076 45.5186 199.409 45.0492 198.558C44.5799 197.693 44.3452 196.695 44.3452 195.566C44.3452 194.407 44.5726 193.403 45.0272 192.552C45.4966 191.687 46.1419 191.012 46.9632 190.528C47.7992 190.029 48.7599 189.78 49.8452 189.78C50.9306 189.78 51.8619 190.022 52.6392 190.506C53.4312 190.975 54.0399 191.606 54.4652 192.398C54.8906 193.19 55.1032 194.055 55.1032 194.994C55.1032 195.141 55.1032 195.302 55.1032 195.478C55.1032 195.654 55.0886 195.845 55.0592 196.05H45.9732V194.488H52.9032C52.8592 193.593 52.5512 192.889 51.9792 192.376C51.4072 191.863 50.6886 191.606 49.8232 191.606C49.2366 191.606 48.6866 191.738 48.1732 192.002C47.6746 192.266 47.2712 192.655 46.9632 193.168C46.6552 193.681 46.5012 194.327 46.5012 195.104V195.72C46.5012 196.527 46.6552 197.209 46.9632 197.766C47.2712 198.309 47.6746 198.727 48.1732 199.02C48.6719 199.299 49.2219 199.438 49.8232 199.438C50.5126 199.438 51.0846 199.284 51.5392 198.976C52.0086 198.653 52.3606 198.221 52.5952 197.678H54.7952C54.5899 198.367 54.2599 198.983 53.8052 199.526C53.3506 200.054 52.7859 200.479 52.1112 200.802C51.4512 201.11 50.6886 201.264 49.8232 201.264ZM65.6875 205.84V199.284C65.3355 199.812 64.8441 200.274 64.2135 200.67C63.5828 201.066 62.7835 201.264 61.8155 201.264C60.7595 201.264 59.8208 201.015 58.9995 200.516C58.1928 200.017 57.5621 199.335 57.1075 198.47C56.6528 197.59 56.4255 196.6 56.4255 195.5C56.4255 194.4 56.6528 193.425 57.1075 192.574C57.5621 191.709 58.2001 191.027 59.0215 190.528C59.8428 190.029 60.7815 189.78 61.8375 189.78C62.4241 189.78 62.9595 189.861 63.4435 190.022C63.9421 190.169 64.3748 190.396 64.7415 190.704C65.1228 190.997 65.4381 191.349 65.6875 191.76L65.9075 190.044H67.8875V205.84H65.6875ZM62.1675 199.35C62.8568 199.35 63.4655 199.189 63.9935 198.866C64.5215 198.543 64.9321 198.096 65.2255 197.524C65.5188 196.952 65.6655 196.285 65.6655 195.522C65.6655 194.759 65.5188 194.092 65.2255 193.52C64.9321 192.948 64.5215 192.501 63.9935 192.178C63.4655 191.855 62.8568 191.694 62.1675 191.694C61.4928 191.694 60.8915 191.855 60.3635 192.178C59.8355 192.501 59.4248 192.948 59.1315 193.52C58.8381 194.092 58.6915 194.759 58.6915 195.522C58.6915 196.285 58.8381 196.952 59.1315 197.524C59.4248 198.096 59.8355 198.543 60.3635 198.866C60.8915 199.189 61.4928 199.35 62.1675 199.35ZM74.2393 201.264C73.3739 201.264 72.6186 201.088 71.9733 200.736C71.3426 200.384 70.8513 199.849 70.4993 199.13C70.1619 198.397 69.9933 197.487 69.9933 196.402V190.044H72.1933V196.182C72.1933 197.238 72.4133 198.037 72.8533 198.58C73.2933 199.123 73.9533 199.394 74.8333 199.394C75.4199 199.394 75.9406 199.255 76.3953 198.976C76.8646 198.683 77.2313 198.272 77.4953 197.744C77.7739 197.201 77.9133 196.541 77.9133 195.764V190.044H80.1133V201H78.1333L77.9793 199.086C77.6419 199.761 77.1433 200.296 76.4833 200.692C75.8233 201.073 75.0753 201.264 74.2393 201.264ZM82.5764 201V190.044H84.7764V201H82.5764ZM83.6764 187.91C83.2657 187.91 82.9211 187.778 82.6424 187.514C82.3637 187.25 82.2244 186.913 82.2244 186.502C82.2244 186.106 82.3637 185.783 82.6424 185.534C82.9211 185.27 83.2657 185.138 83.6764 185.138C84.0871 185.138 84.4317 185.27 84.7104 185.534C84.9891 185.783 85.1284 186.106 85.1284 186.502C85.1284 186.913 84.9891 187.25 84.7104 187.514C84.4317 187.778 84.0871 187.91 83.6764 187.91ZM87.2409 201V190.044H89.2209L89.3969 192.156C89.6463 191.657 89.9616 191.232 90.3429 190.88C90.7389 190.528 91.1936 190.257 91.7069 190.066C92.2349 189.875 92.8289 189.78 93.4889 189.78V192.112H92.8509C92.3816 192.112 91.9343 192.171 91.5089 192.288C91.0983 192.405 90.7316 192.596 90.4089 192.86C90.1009 193.124 89.8589 193.483 89.6829 193.938C89.5216 194.393 89.4409 194.965 89.4409 195.654V201H87.2409ZM99.5681 201.264C98.4975 201.264 97.5515 201.029 96.7301 200.56C95.9088 200.076 95.2635 199.409 94.7941 198.558C94.3248 197.693 94.0901 196.695 94.0901 195.566C94.0901 194.407 94.3175 193.403 94.7721 192.552C95.2415 191.687 95.8868 191.012 96.7081 190.528C97.5441 190.029 98.5048 189.78 99.5901 189.78C100.675 189.78 101.607 190.022 102.384 190.506C103.176 190.975 103.785 191.606 104.21 192.398C104.635 193.19 104.848 194.055 104.848 194.994C104.848 195.141 104.848 195.302 104.848 195.478C104.848 195.654 104.833 195.845 104.804 196.05H95.7181V194.488H102.648C102.604 193.593 102.296 192.889 101.724 192.376C101.152 191.863 100.433 191.606 99.5681 191.606C98.9815 191.606 98.4315 191.738 97.9181 192.002C97.4195 192.266 97.0161 192.655 96.7081 193.168C96.4001 193.681 96.2461 194.327 96.2461 195.104V195.72C96.2461 196.527 96.4001 197.209 96.7081 197.766C97.0161 198.309 97.4195 198.727 97.9181 199.02C98.4168 199.299 98.9668 199.438 99.5681 199.438C100.257 199.438 100.829 199.284 101.284 198.976C101.753 198.653 102.105 198.221 102.34 197.678H104.54C104.335 198.367 104.005 198.983 103.55 199.526C103.095 200.054 102.531 200.479 101.856 200.802C101.196 201.11 100.433 201.264 99.5681 201.264ZM106.61 201V190.044H108.568L108.744 191.606C109.096 191.034 109.566 190.587 110.152 190.264C110.739 189.941 111.399 189.78 112.132 189.78C112.704 189.78 113.218 189.861 113.672 190.022C114.142 190.169 114.552 190.396 114.904 190.704C115.256 191.012 115.542 191.393 115.762 191.848C116.158 191.203 116.686 190.697 117.346 190.33C118.021 189.963 118.747 189.78 119.524 189.78C120.419 189.78 121.189 189.963 121.834 190.33C122.48 190.682 122.971 191.225 123.308 191.958C123.66 192.677 123.836 193.571 123.836 194.642V201H121.658V194.884C121.658 193.828 121.446 193.029 121.02 192.486C120.61 191.943 119.994 191.672 119.172 191.672C118.63 191.672 118.138 191.819 117.698 192.112C117.273 192.391 116.936 192.801 116.686 193.344C116.452 193.872 116.334 194.525 116.334 195.302V201H114.134V194.884C114.134 193.828 113.922 193.029 113.496 192.486C113.071 191.943 112.448 191.672 111.626 191.672C111.098 191.672 110.614 191.819 110.174 192.112C109.749 192.391 109.412 192.801 109.162 193.344C108.928 193.872 108.81 194.525 108.81 195.302V201H106.61ZM130.99 201.264C129.92 201.264 128.974 201.029 128.152 200.56C127.331 200.076 126.686 199.409 126.216 198.558C125.747 197.693 125.512 196.695 125.512 195.566C125.512 194.407 125.74 193.403 126.194 192.552C126.664 191.687 127.309 191.012 128.13 190.528C128.966 190.029 129.927 189.78 131.012 189.78C132.098 189.78 133.029 190.022 133.806 190.506C134.598 190.975 135.207 191.606 135.632 192.398C136.058 193.19 136.27 194.055 136.27 194.994C136.27 195.141 136.27 195.302 136.27 195.478C136.27 195.654 136.256 195.845 136.226 196.05H127.14V194.488H134.07C134.026 193.593 133.718 192.889 133.146 192.376C132.574 191.863 131.856 191.606 130.99 191.606C130.404 191.606 129.854 191.738 129.34 192.002C128.842 192.266 128.438 192.655 128.13 193.168C127.822 193.681 127.668 194.327 127.668 195.104V195.72C127.668 196.527 127.822 197.209 128.13 197.766C128.438 198.309 128.842 198.727 129.34 199.02C129.839 199.299 130.389 199.438 130.99 199.438C131.68 199.438 132.252 199.284 132.706 198.976C133.176 198.653 133.528 198.221 133.762 197.678H135.962C135.757 198.367 135.427 198.983 134.972 199.526C134.518 200.054 133.953 200.479 133.278 200.802C132.618 201.11 131.856 201.264 130.99 201.264ZM138.033 201V190.044H139.991L140.145 191.958C140.497 191.298 140.995 190.77 141.641 190.374C142.286 189.978 143.034 189.78 143.885 189.78C144.765 189.78 145.52 189.963 146.151 190.33C146.781 190.682 147.265 191.217 147.603 191.936C147.955 192.655 148.131 193.557 148.131 194.642V201H145.931V194.862C145.931 193.821 145.703 193.029 145.249 192.486C144.809 191.943 144.156 191.672 143.291 191.672C142.704 191.672 142.176 191.819 141.707 192.112C141.252 192.391 140.893 192.801 140.629 193.344C140.365 193.872 140.233 194.525 140.233 195.302V201H138.033ZM154.752 201C154.062 201 153.461 200.89 152.948 200.67C152.434 200.45 152.038 200.083 151.76 199.57C151.481 199.057 151.342 198.36 151.342 197.48V191.914H149.45V190.044H151.342L151.606 187.316H153.542V190.044H156.666V191.914H153.542V197.502C153.542 198.133 153.666 198.565 153.916 198.8C154.18 199.02 154.642 199.13 155.302 199.13H156.534V201H154.752ZM159.226 201.11C158.816 201.11 158.471 200.978 158.192 200.714C157.914 200.435 157.774 200.105 157.774 199.724C157.774 199.328 157.914 198.998 158.192 198.734C158.471 198.455 158.816 198.316 159.226 198.316C159.652 198.316 159.996 198.455 160.26 198.734C160.539 198.998 160.678 199.328 160.678 199.724C160.678 200.105 160.539 200.435 160.26 200.714C159.996 200.978 159.652 201.11 159.226 201.11Z" fill="black"/>
<path d="M73.053 52V38.7H74.953V52H73.053ZM81.3388 52.228C80.5281 52.228 79.8188 52.095 79.2108 51.829C78.6028 51.563 78.1215 51.1893 77.7668 50.708C77.4121 50.2267 77.1968 49.663 77.1208 49.017H79.0588C79.1221 49.321 79.2425 49.5997 79.4198 49.853C79.6098 50.1063 79.8631 50.309 80.1798 50.461C80.5091 50.613 80.8955 50.689 81.3388 50.689C81.7568 50.689 82.0988 50.632 82.3648 50.518C82.6435 50.3913 82.8461 50.2267 82.9728 50.024C83.0995 49.8087 83.1628 49.5807 83.1628 49.34C83.1628 48.9853 83.0741 48.7193 82.8968 48.542C82.7321 48.352 82.4788 48.2063 82.1368 48.105C81.8075 47.991 81.4085 47.8897 80.9398 47.801C80.4965 47.725 80.0658 47.6237 79.6478 47.497C79.2425 47.3577 78.8751 47.1867 78.5458 46.984C78.2291 46.7813 77.9758 46.528 77.7858 46.224C77.5958 45.9073 77.5008 45.521 77.5008 45.065C77.5008 44.5203 77.6465 44.0327 77.9378 43.602C78.2291 43.1587 78.6408 42.8167 79.1728 42.576C79.7175 42.3227 80.3571 42.196 81.0918 42.196C82.1558 42.196 83.0108 42.4493 83.6568 42.956C84.3028 43.4627 84.6828 44.1783 84.7968 45.103H82.9538C82.9031 44.6723 82.7131 44.343 82.3838 44.115C82.0545 43.8743 81.6175 43.754 81.0728 43.754C80.5281 43.754 80.1101 43.8617 79.8188 44.077C79.5275 44.2923 79.3818 44.5773 79.3818 44.932C79.3818 45.16 79.4641 45.3627 79.6288 45.54C79.7935 45.7173 80.0341 45.8693 80.3508 45.996C80.6801 46.11 81.0791 46.2177 81.5478 46.319C82.2191 46.4457 82.8208 46.604 83.3528 46.794C83.8848 46.984 84.3091 47.2627 84.6258 47.63C84.9425 47.9973 85.1008 48.523 85.1008 49.207C85.1135 49.8023 84.9615 50.328 84.6448 50.784C84.3408 51.24 83.9038 51.5947 83.3338 51.848C82.7765 52.1013 82.1115 52.228 81.3388 52.228ZM91.0429 52.228C90.2322 52.228 89.5229 52.095 88.9149 51.829C88.3069 51.563 87.8256 51.1893 87.4709 50.708C87.1162 50.2267 86.9009 49.663 86.8249 49.017H88.7629C88.8262 49.321 88.9466 49.5997 89.1239 49.853C89.3139 50.1063 89.5672 50.309 89.8839 50.461C90.2132 50.613 90.5996 50.689 91.0429 50.689C91.4609 50.689 91.8029 50.632 92.0689 50.518C92.3476 50.3913 92.5502 50.2267 92.6769 50.024C92.8036 49.8087 92.8669 49.5807 92.8669 49.34C92.8669 48.9853 92.7782 48.7193 92.6009 48.542C92.4362 48.352 92.1829 48.2063 91.8409 48.105C91.5116 47.991 91.1126 47.8897 90.6439 47.801C90.2006 47.725 89.7699 47.6237 89.3519 47.497C88.9466 47.3577 88.5792 47.1867 88.2499 46.984C87.9332 46.7813 87.6799 46.528 87.4899 46.224C87.2999 45.9073 87.2049 45.521 87.2049 45.065C87.2049 44.5203 87.3506 44.0327 87.6419 43.602C87.9332 43.1587 88.3449 42.8167 88.8769 42.576C89.4216 42.3227 90.0612 42.196 90.7959 42.196C91.8599 42.196 92.7149 42.4493 93.3609 42.956C94.0069 43.4627 94.3869 44.1783 94.5009 45.103H92.6579C92.6072 44.6723 92.4172 44.343 92.0879 44.115C91.7586 43.8743 91.3216 43.754 90.7769 43.754C90.2322 43.754 89.8142 43.8617 89.5229 44.077C89.2316 44.2923 89.0859 44.5773 89.0859 44.932C89.0859 45.16 89.1682 45.3627 89.3329 45.54C89.4976 45.7173 89.7382 45.8693 90.0549 45.996C90.3842 46.11 90.7832 46.2177 91.2519 46.319C91.9232 46.4457 92.5249 46.604 93.0569 46.794C93.5889 46.984 94.0132 47.2627 94.3299 47.63C94.6466 47.9973 94.8049 48.523 94.8049 49.207C94.8176 49.8023 94.6656 50.328 94.3489 50.784C94.0449 51.24 93.6079 51.5947 93.0379 51.848C92.4806 52.1013 91.8156 52.228 91.0429 52.228ZM100.557 52.228C99.8097 52.228 99.1573 52.076 98.6 51.772C98.0553 51.468 97.631 51.012 97.327 50.404C97.0357 49.796 96.89 49.0297 96.89 48.105V42.424H98.79V47.896C98.79 48.7953 98.9863 49.473 99.379 49.929C99.7717 50.385 100.335 50.613 101.07 50.613C101.564 50.613 102.007 50.4927 102.4 50.252C102.805 50.0113 103.122 49.663 103.35 49.207C103.578 48.751 103.692 48.1937 103.692 47.535V42.424H105.592V52H103.901L103.768 50.366C103.477 50.9487 103.052 51.4047 102.495 51.734C101.938 52.0633 101.292 52.228 100.557 52.228ZM112.525 52.228C111.613 52.228 110.803 52.019 110.093 51.601C109.384 51.183 108.827 50.6003 108.421 49.853C108.029 49.1057 107.832 48.238 107.832 47.25C107.832 46.2367 108.029 45.3563 108.421 44.609C108.827 43.849 109.384 43.26 110.093 42.842C110.803 42.4113 111.626 42.196 112.563 42.196C113.501 42.196 114.305 42.405 114.976 42.823C115.648 43.241 116.167 43.7983 116.534 44.495C116.902 45.179 117.085 45.939 117.085 46.775C117.085 46.9017 117.079 47.041 117.066 47.193C117.066 47.3323 117.06 47.4907 117.047 47.668H109.219V46.319H115.185C115.147 45.521 114.881 44.9003 114.387 44.457C113.893 44.001 113.279 43.773 112.544 43.773C112.025 43.773 111.55 43.8933 111.119 44.134C110.689 44.362 110.34 44.704 110.074 45.16C109.821 45.6033 109.694 46.167 109.694 46.851V47.383C109.694 48.0923 109.821 48.694 110.074 49.188C110.34 49.6693 110.689 50.0367 111.119 50.29C111.55 50.5307 112.019 50.651 112.525 50.651C113.133 50.651 113.634 50.518 114.026 50.252C114.419 49.986 114.71 49.625 114.9 49.169H116.8C116.636 49.7517 116.357 50.2773 115.964 50.746C115.572 51.202 115.084 51.563 114.501 51.829C113.931 52.095 113.273 52.228 112.525 52.228Z" fill="black"/>
<path d="M188.386 62.852L186.594 58.5358C189.906 57.1785 192.431 55.4411 194.168 53.3237C195.96 51.2063 196.856 48.6003 196.856 45.5056L195.39 38.6647L199.787 44.8541C199.19 45.5599 198.511 46.0485 197.751 46.32C196.991 46.5371 196.231 46.6457 195.471 46.6457C193.788 46.6457 192.349 46.1571 191.155 45.1798C189.96 44.2026 189.363 42.7638 189.363 40.8636C189.363 38.9091 189.96 37.4432 191.155 36.4659C192.404 35.4886 193.869 35 195.552 35C197.833 35 199.543 35.8687 200.683 37.606C201.878 39.2891 202.475 41.5422 202.475 44.3655C202.475 48.7631 201.199 52.5636 198.647 55.7669C196.095 58.9701 192.675 61.3319 188.386 62.852Z" fill="black"/>
<path d="M163.458 62.852L161.666 58.5358C164.978 57.1785 167.502 55.4411 169.24 53.3237C171.031 51.2063 171.927 48.6003 171.927 45.5056L170.461 38.6647L174.859 44.8541C174.262 45.5599 173.583 46.0485 172.823 46.32C172.063 46.5371 171.303 46.6457 170.543 46.6457C168.86 46.6457 167.421 46.1571 166.227 45.1798C165.032 44.2026 164.435 42.7638 164.435 40.8636C164.435 38.9091 165.032 37.4432 166.227 36.4659C167.475 35.4886 168.941 35 170.624 35C172.905 35 174.615 35.8687 175.755 37.606C176.949 39.2891 177.547 41.5422 177.547 44.3655C177.547 48.7631 176.271 52.5636 173.719 55.7669C171.167 58.9701 167.747 61.3319 163.458 62.852Z" fill="black"/>
<path d="M224 296.5C224 281.651 219.244 267.192 210.429 255.243C201.614 243.293 189.204 234.481 175.017 230.097C160.829 225.714 145.611 225.99 131.592 230.884C117.572 235.779 105.489 245.034 97.1131 257.296C88.7368 269.557 84.5077 284.178 85.0456 299.017C85.5835 313.857 90.86 328.134 100.102 339.756C109.344 351.379 122.065 359.736 136.402 363.602C150.739 367.469 165.937 366.642 179.77 361.243L154.5 296.5H224Z" fill="#DC8888"/>
<path d="M179.613 361.304C192.944 356.138 204.357 346.987 212.297 335.097C220.237 323.208 224.317 309.16 223.981 294.867L154.5 296.5L179.613 361.304Z" fill="#4C9E9B"/>
<path d="M109.584 273V257.6H119.154V259.404H111.784V264.398H117.966V266.158H111.784V273H109.584ZM123.574 273.264C122.65 273.264 121.888 273.11 121.286 272.802C120.685 272.494 120.238 272.091 119.944 271.592C119.651 271.079 119.504 270.521 119.504 269.92C119.504 269.187 119.688 268.563 120.054 268.05C120.436 267.537 120.978 267.141 121.682 266.862C122.401 266.583 123.259 266.444 124.256 266.444H127.138C127.138 265.813 127.036 265.293 126.83 264.882C126.64 264.457 126.354 264.141 125.972 263.936C125.591 263.731 125.129 263.628 124.586 263.628C123.912 263.628 123.332 263.789 122.848 264.112C122.364 264.435 122.071 264.911 121.968 265.542H119.746C119.834 264.75 120.106 264.075 120.56 263.518C121.015 262.961 121.594 262.535 122.298 262.242C123.017 261.934 123.78 261.78 124.586 261.78C125.613 261.78 126.478 261.963 127.182 262.33C127.886 262.697 128.422 263.217 128.788 263.892C129.155 264.552 129.338 265.344 129.338 266.268V273H127.424L127.248 271.13C127.102 271.423 126.911 271.702 126.676 271.966C126.456 272.23 126.192 272.457 125.884 272.648C125.591 272.839 125.246 272.985 124.85 273.088C124.469 273.205 124.044 273.264 123.574 273.264ZM123.992 271.482C124.476 271.482 124.909 271.387 125.29 271.196C125.672 271.005 125.994 270.749 126.258 270.426C126.522 270.089 126.72 269.715 126.852 269.304C126.999 268.893 127.08 268.468 127.094 268.028V268.006H124.476C123.831 268.006 123.31 268.087 122.914 268.248C122.533 268.395 122.254 268.6 122.078 268.864C121.902 269.128 121.814 269.429 121.814 269.766C121.814 270.118 121.895 270.426 122.056 270.69C122.232 270.939 122.482 271.137 122.804 271.284C123.142 271.416 123.538 271.482 123.992 271.482ZM131.598 273V262.044H133.798V273H131.598ZM132.698 259.91C132.287 259.91 131.942 259.778 131.664 259.514C131.385 259.25 131.246 258.913 131.246 258.502C131.246 258.106 131.385 257.783 131.664 257.534C131.942 257.27 132.287 257.138 132.698 257.138C133.108 257.138 133.453 257.27 133.732 257.534C134.01 257.783 134.15 258.106 134.15 258.502C134.15 258.913 134.01 259.25 133.732 259.514C133.453 259.778 133.108 259.91 132.698 259.91ZM136.262 273V257.16H138.462V273H136.262ZM151.029 273.264C150.002 273.264 149.078 273.081 148.257 272.714C147.45 272.333 146.805 271.805 146.321 271.13C145.851 270.455 145.617 269.671 145.617 268.776C145.617 268.145 145.734 267.566 145.969 267.038C146.203 266.495 146.533 266.026 146.959 265.63C147.399 265.234 147.912 264.948 148.499 264.772C147.707 264.464 147.091 264.009 146.651 263.408C146.211 262.807 145.991 262.147 145.991 261.428C145.991 260.68 146.189 259.998 146.585 259.382C146.995 258.766 147.575 258.275 148.323 257.908C149.071 257.527 149.973 257.336 151.029 257.336C152.099 257.336 153.009 257.527 153.757 257.908C154.505 258.275 155.077 258.766 155.473 259.382C155.869 259.998 156.067 260.68 156.067 261.428C156.067 262.147 155.847 262.814 155.407 263.43C154.967 264.031 154.358 264.479 153.581 264.772C154.167 264.948 154.673 265.234 155.099 265.63C155.539 266.026 155.876 266.495 156.111 267.038C156.345 267.566 156.463 268.145 156.463 268.776C156.463 269.671 156.221 270.455 155.737 271.13C155.267 271.805 154.622 272.333 153.801 272.714C152.979 273.081 152.055 273.264 151.029 273.264ZM151.029 271.372C152.129 271.372 152.943 271.123 153.471 270.624C154.013 270.111 154.285 269.443 154.285 268.622C154.285 267.698 153.991 266.994 153.405 266.51C152.818 266.026 152.026 265.784 151.029 265.784C150.046 265.784 149.254 266.026 148.653 266.51C148.066 266.994 147.773 267.698 147.773 268.622C147.773 269.443 148.044 270.111 148.587 270.624C149.144 271.123 149.958 271.372 151.029 271.372ZM151.029 264.046C151.909 264.046 152.598 263.819 153.097 263.364C153.61 262.909 153.867 262.33 153.867 261.626C153.867 260.819 153.617 260.211 153.119 259.8C152.62 259.389 151.923 259.184 151.029 259.184C150.163 259.184 149.474 259.389 148.961 259.8C148.462 260.211 148.213 260.819 148.213 261.626C148.213 262.33 148.462 262.909 148.961 263.364C149.474 263.819 150.163 264.046 151.029 264.046ZM164.849 273.264C163.47 273.264 162.282 272.934 161.285 272.274C160.288 271.599 159.518 270.668 158.975 269.48C158.447 268.277 158.183 266.884 158.183 265.3C158.183 263.716 158.447 262.33 158.975 261.142C159.518 259.939 160.288 259.008 161.285 258.348C162.282 257.673 163.47 257.336 164.849 257.336C166.242 257.336 167.43 257.673 168.413 258.348C169.396 259.008 170.151 259.939 170.679 261.142C171.222 262.33 171.493 263.716 171.493 265.3C171.493 266.884 171.222 268.277 170.679 269.48C170.151 270.668 169.396 271.599 168.413 272.274C167.43 272.934 166.242 273.264 164.849 273.264ZM164.849 271.306C165.7 271.306 166.455 271.064 167.115 270.58C167.775 270.096 168.296 269.407 168.677 268.512C169.058 267.617 169.249 266.547 169.249 265.3C169.249 264.053 169.058 262.983 168.677 262.088C168.296 261.193 167.775 260.511 167.115 260.042C166.455 259.558 165.7 259.316 164.849 259.316C163.998 259.316 163.236 259.558 162.561 260.042C161.901 260.511 161.38 261.193 160.999 262.088C160.632 262.983 160.449 264.053 160.449 265.3C160.449 266.547 160.632 267.617 160.999 268.512C161.38 269.407 161.901 270.096 162.561 270.58C163.236 271.064 163.998 271.306 164.849 271.306ZM175.195 273L184.061 257.6H186.239L177.373 273H175.195ZM185.227 273.264C184.552 273.264 183.943 273.11 183.401 272.802C182.858 272.494 182.418 272.061 182.081 271.504C181.758 270.932 181.597 270.265 181.597 269.502C181.597 268.71 181.758 268.035 182.081 267.478C182.418 266.921 182.858 266.488 183.401 266.18C183.943 265.872 184.552 265.718 185.227 265.718C185.916 265.718 186.525 265.872 187.053 266.18C187.595 266.488 188.021 266.921 188.329 267.478C188.651 268.035 188.813 268.71 188.813 269.502C188.813 270.265 188.651 270.932 188.329 271.504C188.021 272.061 187.595 272.494 187.053 272.802C186.51 273.11 185.901 273.264 185.227 273.264ZM185.205 271.636C185.542 271.636 185.843 271.555 186.107 271.394C186.385 271.233 186.605 270.998 186.767 270.69C186.928 270.367 187.009 269.964 187.009 269.48C187.009 268.996 186.928 268.6 186.767 268.292C186.605 267.969 186.385 267.727 186.107 267.566C185.843 267.405 185.549 267.324 185.227 267.324C184.904 267.324 184.603 267.405 184.325 267.566C184.046 267.727 183.819 267.969 183.643 268.292C183.481 268.6 183.401 268.996 183.401 269.48C183.401 269.964 183.481 270.367 183.643 270.69C183.819 270.998 184.039 271.233 184.303 271.394C184.581 271.555 184.882 271.636 185.205 271.636ZM176.361 264.904C175.686 264.904 175.07 264.75 174.513 264.442C173.97 264.134 173.537 263.701 173.215 263.144C172.892 262.572 172.731 261.897 172.731 261.12C172.731 260.343 172.892 259.675 173.215 259.118C173.537 258.561 173.97 258.128 174.513 257.82C175.07 257.512 175.693 257.358 176.383 257.358C177.057 257.358 177.666 257.512 178.209 257.82C178.751 258.128 179.177 258.561 179.485 259.118C179.807 259.675 179.969 260.343 179.969 261.12C179.969 261.897 179.807 262.572 179.485 263.144C179.177 263.701 178.744 264.134 178.187 264.442C177.644 264.75 177.035 264.904 176.361 264.904ZM176.361 263.276C176.683 263.276 176.977 263.195 177.241 263.034C177.519 262.873 177.739 262.638 177.901 262.33C178.062 262.007 178.143 261.604 178.143 261.12C178.143 260.636 178.062 260.233 177.901 259.91C177.739 259.587 177.519 259.345 177.241 259.184C176.977 259.023 176.683 258.942 176.361 258.942C176.053 258.942 175.752 259.023 175.459 259.184C175.18 259.345 174.953 259.587 174.777 259.91C174.615 260.233 174.535 260.636 174.535 261.12C174.535 261.589 174.615 261.985 174.777 262.308C174.953 262.631 175.18 262.873 175.459 263.034C175.737 263.195 176.038 263.276 176.361 263.276Z" fill="black"/>
<path d="M186.584 329V313.6H191.864C193.081 313.6 194.086 313.805 194.878 314.216C195.67 314.612 196.257 315.155 196.638 315.844C197.019 316.533 197.21 317.311 197.21 318.176C197.21 319.027 197.019 319.797 196.638 320.486C196.271 321.175 195.692 321.725 194.9 322.136C194.123 322.547 193.111 322.752 191.864 322.752H188.784V329H186.584ZM188.784 320.926H191.776C192.92 320.926 193.734 320.684 194.218 320.2C194.717 319.701 194.966 319.027 194.966 318.176C194.966 317.311 194.717 316.636 194.218 316.152C193.734 315.668 192.92 315.426 191.776 315.426H188.784V320.926ZM201.885 329.264C200.961 329.264 200.198 329.11 199.597 328.802C198.996 328.494 198.548 328.091 198.255 327.592C197.962 327.079 197.815 326.521 197.815 325.92C197.815 325.187 197.998 324.563 198.365 324.05C198.746 323.537 199.289 323.141 199.993 322.862C200.712 322.583 201.57 322.444 202.567 322.444H205.449C205.449 321.813 205.346 321.293 205.141 320.882C204.95 320.457 204.664 320.141 204.283 319.936C203.902 319.731 203.44 319.628 202.897 319.628C202.222 319.628 201.643 319.789 201.159 320.112C200.675 320.435 200.382 320.911 200.279 321.542H198.057C198.145 320.75 198.416 320.075 198.871 319.518C199.326 318.961 199.905 318.535 200.609 318.242C201.328 317.934 202.09 317.78 202.897 317.78C203.924 317.78 204.789 317.963 205.493 318.33C206.197 318.697 206.732 319.217 207.099 319.892C207.466 320.552 207.649 321.344 207.649 322.268V329H205.735L205.559 327.13C205.412 327.423 205.222 327.702 204.987 327.966C204.767 328.23 204.503 328.457 204.195 328.648C203.902 328.839 203.557 328.985 203.161 329.088C202.78 329.205 202.354 329.264 201.885 329.264ZM202.303 327.482C202.787 327.482 203.22 327.387 203.601 327.196C203.982 327.005 204.305 326.749 204.569 326.426C204.833 326.089 205.031 325.715 205.163 325.304C205.31 324.893 205.39 324.468 205.405 324.028V324.006H202.787C202.142 324.006 201.621 324.087 201.225 324.248C200.844 324.395 200.565 324.6 200.389 324.864C200.213 325.128 200.125 325.429 200.125 325.766C200.125 326.118 200.206 326.426 200.367 326.69C200.543 326.939 200.792 327.137 201.115 327.284C201.452 327.416 201.848 327.482 202.303 327.482ZM214.044 329.264C213.135 329.264 212.328 329.11 211.624 328.802C210.92 328.494 210.355 328.061 209.93 327.504C209.505 326.947 209.248 326.301 209.16 325.568H211.382C211.47 325.92 211.624 326.243 211.844 326.536C212.064 326.815 212.357 327.042 212.724 327.218C213.091 327.394 213.531 327.482 214.044 327.482C214.528 327.482 214.924 327.416 215.232 327.284C215.54 327.137 215.767 326.947 215.914 326.712C216.061 326.477 216.134 326.228 216.134 325.964C216.134 325.568 216.031 325.267 215.826 325.062C215.635 324.842 215.342 324.673 214.946 324.556C214.565 324.439 214.103 324.321 213.56 324.204C213.091 324.101 212.621 323.977 212.152 323.83C211.683 323.683 211.257 323.5 210.876 323.28C210.495 323.045 210.187 322.752 209.952 322.4C209.732 322.048 209.622 321.615 209.622 321.102C209.622 320.471 209.783 319.907 210.106 319.408C210.443 318.909 210.92 318.513 211.536 318.22C212.152 317.927 212.885 317.78 213.736 317.78C214.953 317.78 215.936 318.073 216.684 318.66C217.432 319.247 217.872 320.075 218.004 321.146H215.87C215.811 320.662 215.591 320.281 215.21 320.002C214.843 319.723 214.345 319.584 213.714 319.584C213.098 319.584 212.621 319.709 212.284 319.958C211.961 320.207 211.8 320.53 211.8 320.926C211.8 321.19 211.895 321.425 212.086 321.63C212.291 321.821 212.577 321.982 212.944 322.114C213.325 322.246 213.773 322.371 214.286 322.488C215.019 322.649 215.687 322.84 216.288 323.06C216.904 323.265 217.403 323.581 217.784 324.006C218.18 324.417 218.378 325.018 218.378 325.81C218.393 326.485 218.217 327.086 217.85 327.614C217.498 328.127 216.999 328.531 216.354 328.824C215.709 329.117 214.939 329.264 214.044 329.264ZM224.599 329.264C223.69 329.264 222.883 329.11 222.179 328.802C221.475 328.494 220.91 328.061 220.485 327.504C220.06 326.947 219.803 326.301 219.715 325.568H221.937C222.025 325.92 222.179 326.243 222.399 326.536C222.619 326.815 222.912 327.042 223.279 327.218C223.646 327.394 224.086 327.482 224.599 327.482C225.083 327.482 225.479 327.416 225.787 327.284C226.095 327.137 226.322 326.947 226.469 326.712C226.616 326.477 226.689 326.228 226.689 325.964C226.689 325.568 226.586 325.267 226.381 325.062C226.19 324.842 225.897 324.673 225.501 324.556C225.12 324.439 224.658 324.321 224.115 324.204C223.646 324.101 223.176 323.977 222.707 323.83C222.238 323.683 221.812 323.5 221.431 323.28C221.05 323.045 220.742 322.752 220.507 322.4C220.287 322.048 220.177 321.615 220.177 321.102C220.177 320.471 220.338 319.907 220.661 319.408C220.998 318.909 221.475 318.513 222.091 318.22C222.707 317.927 223.44 317.78 224.291 317.78C225.508 317.78 226.491 318.073 227.239 318.66C227.987 319.247 228.427 320.075 228.559 321.146H226.425C226.366 320.662 226.146 320.281 225.765 320.002C225.398 319.723 224.9 319.584 224.269 319.584C223.653 319.584 223.176 319.709 222.839 319.958C222.516 320.207 222.355 320.53 222.355 320.926C222.355 321.19 222.45 321.425 222.641 321.63C222.846 321.821 223.132 321.982 223.499 322.114C223.88 322.246 224.328 322.371 224.841 322.488C225.574 322.649 226.242 322.84 226.843 323.06C227.459 323.265 227.958 323.581 228.339 324.006C228.735 324.417 228.933 325.018 228.933 325.81C228.948 326.485 228.772 327.086 228.405 327.614C228.053 328.127 227.554 328.531 226.909 328.824C226.264 329.117 225.494 329.264 224.599 329.264ZM235.613 329V327.416C236.625 326.624 237.586 325.825 238.495 325.018C239.405 324.211 240.219 323.412 240.937 322.62C241.671 321.813 242.243 321.029 242.653 320.266C243.064 319.489 243.269 318.748 243.269 318.044C243.269 317.545 243.181 317.083 243.005 316.658C242.829 316.233 242.551 315.888 242.169 315.624C241.803 315.345 241.297 315.206 240.651 315.206C240.021 315.206 239.493 315.345 239.067 315.624C238.657 315.903 238.341 316.277 238.121 316.746C237.916 317.201 237.813 317.707 237.813 318.264H235.679C235.709 317.208 235.936 316.313 236.361 315.58C236.801 314.847 237.395 314.289 238.143 313.908C238.891 313.527 239.742 313.336 240.695 313.336C241.663 313.336 242.499 313.519 243.203 313.886C243.922 314.238 244.479 314.759 244.875 315.448C245.271 316.123 245.469 316.951 245.469 317.934C245.469 318.638 245.33 319.342 245.051 320.046C244.773 320.735 244.391 321.41 243.907 322.07C243.438 322.73 242.91 323.368 242.323 323.984C241.751 324.585 241.157 325.157 240.541 325.7C239.925 326.243 239.339 326.734 238.781 327.174H245.953V329H235.613ZM253.773 329.264C252.394 329.264 251.206 328.934 250.209 328.274C249.211 327.599 248.441 326.668 247.899 325.48C247.371 324.277 247.107 322.884 247.107 321.3C247.107 319.716 247.371 318.33 247.899 317.142C248.441 315.939 249.211 315.008 250.209 314.348C251.206 313.673 252.394 313.336 253.773 313.336C255.166 313.336 256.354 313.673 257.337 314.348C258.319 315.008 259.075 315.939 259.603 317.142C260.145 318.33 260.417 319.716 260.417 321.3C260.417 322.884 260.145 324.277 259.603 325.48C259.075 326.668 258.319 327.599 257.337 328.274C256.354 328.934 255.166 329.264 253.773 329.264ZM253.773 327.306C254.623 327.306 255.379 327.064 256.039 326.58C256.699 326.096 257.219 325.407 257.601 324.512C257.982 323.617 258.173 322.547 258.173 321.3C258.173 320.053 257.982 318.983 257.601 318.088C257.219 317.193 256.699 316.511 256.039 316.042C255.379 315.558 254.623 315.316 253.773 315.316C252.922 315.316 252.159 315.558 251.485 316.042C250.825 316.511 250.304 317.193 249.923 318.088C249.556 318.983 249.373 320.053 249.373 321.3C249.373 322.547 249.556 323.617 249.923 324.512C250.304 325.407 250.825 326.096 251.485 326.58C252.159 327.064 252.922 327.306 253.773 327.306ZM264.119 329L272.985 313.6H275.163L266.297 329H264.119ZM274.151 329.264C273.476 329.264 272.867 329.11 272.325 328.802C271.782 328.494 271.342 328.061 271.005 327.504C270.682 326.932 270.521 326.265 270.521 325.502C270.521 324.71 270.682 324.035 271.005 323.478C271.342 322.921 271.782 322.488 272.325 322.18C272.867 321.872 273.476 321.718 274.151 321.718C274.84 321.718 275.449 321.872 275.977 322.18C276.519 322.488 276.945 322.921 277.253 323.478C277.575 324.035 277.737 324.71 277.737 325.502C277.737 326.265 277.575 326.932 277.253 327.504C276.945 328.061 276.519 328.494 275.977 328.802C275.434 329.11 274.825 329.264 274.151 329.264ZM274.129 327.636C274.466 327.636 274.767 327.555 275.031 327.394C275.309 327.233 275.529 326.998 275.691 326.69C275.852 326.367 275.933 325.964 275.933 325.48C275.933 324.996 275.852 324.6 275.691 324.292C275.529 323.969 275.309 323.727 275.031 323.566C274.767 323.405 274.473 323.324 274.151 323.324C273.828 323.324 273.527 323.405 273.249 323.566C272.97 323.727 272.743 323.969 272.567 324.292C272.405 324.6 272.325 324.996 272.325 325.48C272.325 325.964 272.405 326.367 272.567 326.69C272.743 326.998 272.963 327.233 273.227 327.394C273.505 327.555 273.806 327.636 274.129 327.636ZM265.285 320.904C264.61 320.904 263.994 320.75 263.437 320.442C262.894 320.134 262.461 319.701 262.139 319.144C261.816 318.572 261.655 317.897 261.655 317.12C261.655 316.343 261.816 315.675 262.139 315.118C262.461 314.561 262.894 314.128 263.437 313.82C263.994 313.512 264.617 313.358 265.307 313.358C265.981 313.358 266.59 313.512 267.133 313.82C267.675 314.128 268.101 314.561 268.409 315.118C268.731 315.675 268.893 316.343 268.893 317.12C268.893 317.897 268.731 318.572 268.409 319.144C268.101 319.701 267.668 320.134 267.111 320.442C266.568 320.75 265.959 320.904 265.285 320.904ZM265.285 319.276C265.607 319.276 265.901 319.195 266.165 319.034C266.443 318.873 266.663 318.638 266.825 318.33C266.986 318.007 267.067 317.604 267.067 317.12C267.067 316.636 266.986 316.233 266.825 315.91C266.663 315.587 266.443 315.345 266.165 315.184C265.901 315.023 265.607 314.942 265.285 314.942C264.977 314.942 264.676 315.023 264.383 315.184C264.104 315.345 263.877 315.587 263.701 315.91C263.539 316.233 263.459 316.636 263.459 317.12C263.459 317.589 263.539 317.985 263.701 318.308C263.877 318.631 264.104 318.873 264.383 319.034C264.661 319.195 264.962 319.276 265.285 319.276Z" fill="black"/>
</svg>
