<svg width="314" height="376" viewBox="0 0 314 376" fill="none" xmlns="http://www.w3.org/2000/svg">
<rect width="314" height="376" rx="32" fill="#E2E2E2"/>
<rect x="41" y="24" width="108" height="44" rx="10" fill="#00C7BE"/>
<path d="M46.9375 122.895V124.428H39.2422V122.895H46.9375ZM39.5352 116.781V131H37.6504V116.781H39.5352ZM48.5781 116.781V131H46.7031V116.781H48.5781ZM51.3277 116.781H56.0348C57.1025 116.781 58.0042 116.944 58.7398 117.27C59.482 117.595 60.0452 118.077 60.4293 118.715C60.8199 119.346 61.0152 120.124 61.0152 121.049C61.0152 121.7 60.8818 122.296 60.6148 122.836C60.3544 123.37 59.9768 123.826 59.482 124.203C58.9937 124.574 58.4078 124.851 57.7242 125.033L57.1969 125.238H52.773L52.7535 123.705H56.0934C56.7704 123.705 57.3336 123.588 57.7828 123.354C58.232 123.113 58.5706 122.79 58.7984 122.387C59.0263 121.983 59.1402 121.537 59.1402 121.049C59.1402 120.502 59.0328 120.023 58.818 119.613C58.6031 119.203 58.2646 118.887 57.8023 118.666C57.3466 118.438 56.7574 118.324 56.0348 118.324H53.2125V131H51.3277V116.781ZM59.6383 131L56.1812 124.555L58.1441 124.545L61.65 130.883V131H59.6383ZM68.9363 122.533V131H67.1199V120.434H68.8387L68.9363 122.533ZM68.5652 125.316L67.7254 125.287C67.7319 124.564 67.8263 123.897 68.0086 123.285C68.1909 122.667 68.4611 122.13 68.8191 121.674C69.1772 121.218 69.6232 120.867 70.157 120.619C70.6909 120.365 71.3094 120.238 72.0125 120.238C72.5073 120.238 72.963 120.31 73.3797 120.453C73.7964 120.59 74.1577 120.808 74.4637 121.107C74.7697 121.407 75.0073 121.791 75.1766 122.26C75.3458 122.729 75.4305 123.295 75.4305 123.959V131H73.6238V124.047C73.6238 123.493 73.5294 123.051 73.3406 122.719C73.1583 122.387 72.8979 122.146 72.5594 121.996C72.2208 121.84 71.8237 121.762 71.368 121.762C70.8341 121.762 70.3882 121.856 70.0301 122.045C69.672 122.234 69.3855 122.494 69.1707 122.826C68.9559 123.158 68.7996 123.539 68.702 123.969C68.6108 124.392 68.5652 124.841 68.5652 125.316ZM75.4109 124.32L74.2 124.691C74.2065 124.112 74.3009 123.555 74.4832 123.021C74.672 122.488 74.9422 122.012 75.2938 121.596C75.6518 121.179 76.0913 120.85 76.6121 120.609C77.1329 120.362 77.7286 120.238 78.3992 120.238C78.9656 120.238 79.4669 120.313 79.9031 120.463C80.3458 120.613 80.7169 120.844 81.0164 121.156C81.3224 121.462 81.5535 121.856 81.7098 122.338C81.866 122.82 81.9441 123.393 81.9441 124.057V131H80.1277V124.037C80.1277 123.445 80.0333 122.986 79.8445 122.66C79.6622 122.328 79.4018 122.097 79.0633 121.967C78.7313 121.83 78.3341 121.762 77.8719 121.762C77.4747 121.762 77.1232 121.83 76.8172 121.967C76.5112 122.104 76.254 122.292 76.0457 122.533C75.8374 122.768 75.6779 123.038 75.5672 123.344C75.463 123.65 75.4109 123.975 75.4109 124.32ZM88.4633 131.195C87.7276 131.195 87.0603 131.072 86.4613 130.824C85.8689 130.57 85.3578 130.215 84.9281 129.76C84.5049 129.304 84.1794 128.764 83.9516 128.139C83.7237 127.514 83.6098 126.83 83.6098 126.088V125.678C83.6098 124.818 83.7367 124.053 83.9906 123.383C84.2445 122.706 84.5896 122.133 85.0258 121.664C85.462 121.195 85.9568 120.84 86.5102 120.6C87.0635 120.359 87.6365 120.238 88.2289 120.238C88.9841 120.238 89.6352 120.368 90.182 120.629C90.7354 120.889 91.1879 121.254 91.5395 121.723C91.891 122.185 92.1514 122.732 92.3207 123.363C92.49 123.988 92.5746 124.672 92.5746 125.414V126.225H84.684V124.75H90.768V124.613C90.7419 124.145 90.6443 123.689 90.475 123.246C90.3122 122.803 90.0518 122.439 89.6937 122.152C89.3357 121.866 88.8474 121.723 88.2289 121.723C87.8187 121.723 87.4411 121.811 87.0961 121.986C86.751 122.156 86.4548 122.41 86.2074 122.748C85.96 123.087 85.768 123.5 85.6312 123.988C85.4945 124.477 85.4262 125.04 85.4262 125.678V126.088C85.4262 126.589 85.4945 127.061 85.6312 127.504C85.7745 127.94 85.9796 128.324 86.2465 128.656C86.5199 128.988 86.8487 129.249 87.2328 129.438C87.6234 129.626 88.0661 129.721 88.5609 129.721C89.199 129.721 89.7393 129.59 90.182 129.33C90.6247 129.07 91.0121 128.721 91.3441 128.285L92.4379 129.154C92.21 129.499 91.9203 129.828 91.5687 130.141C91.2172 130.453 90.7842 130.707 90.2699 130.902C89.7621 131.098 89.1599 131.195 88.4633 131.195ZM95.8906 122.689V131H94.084V120.434H95.793L95.8906 122.689ZM95.4609 125.316L94.709 125.287C94.7155 124.564 94.8229 123.897 95.0312 123.285C95.2396 122.667 95.5326 122.13 95.9102 121.674C96.2878 121.218 96.737 120.867 97.2578 120.619C97.7852 120.365 98.3678 120.238 99.0059 120.238C99.5267 120.238 99.9954 120.31 100.412 120.453C100.829 120.59 101.184 120.811 101.477 121.117C101.776 121.423 102.004 121.82 102.16 122.309C102.316 122.79 102.395 123.38 102.395 124.076V131H100.578V124.057C100.578 123.503 100.497 123.061 100.334 122.729C100.171 122.39 99.9336 122.146 99.6211 121.996C99.3086 121.84 98.9245 121.762 98.4688 121.762C98.0195 121.762 97.6094 121.856 97.2383 122.045C96.8737 122.234 96.5579 122.494 96.291 122.826C96.0306 123.158 95.8255 123.539 95.6758 123.969C95.5326 124.392 95.4609 124.841 95.4609 125.316ZM108.963 120.434V121.82H103.25V120.434H108.963ZM105.183 117.865H106.99V128.383C106.99 128.741 107.045 129.011 107.156 129.193C107.267 129.376 107.41 129.496 107.586 129.555C107.761 129.613 107.95 129.643 108.152 129.643C108.302 129.643 108.458 129.63 108.621 129.604C108.79 129.571 108.917 129.545 109.002 129.525L109.011 131C108.868 131.046 108.679 131.088 108.445 131.127C108.217 131.173 107.94 131.195 107.615 131.195C107.172 131.195 106.765 131.107 106.394 130.932C106.023 130.756 105.727 130.463 105.505 130.053C105.291 129.636 105.183 129.076 105.183 128.373V117.865ZM112.445 120.434V131H110.628V120.434H112.445ZM110.491 117.631C110.491 117.338 110.579 117.09 110.755 116.889C110.937 116.687 111.204 116.586 111.556 116.586C111.901 116.586 112.165 116.687 112.347 116.889C112.536 117.09 112.63 117.338 112.63 117.631C112.63 117.911 112.536 118.152 112.347 118.354C112.165 118.549 111.901 118.646 111.556 118.646C111.204 118.646 110.937 118.549 110.755 118.354C110.579 118.152 110.491 117.911 110.491 117.631ZM114.266 125.834V125.609C114.266 124.848 114.377 124.141 114.598 123.49C114.82 122.833 115.139 122.263 115.555 121.781C115.972 121.293 116.477 120.915 117.069 120.648C117.662 120.375 118.326 120.238 119.061 120.238C119.804 120.238 120.471 120.375 121.063 120.648C121.662 120.915 122.17 121.293 122.587 121.781C123.01 122.263 123.332 122.833 123.554 123.49C123.775 124.141 123.886 124.848 123.886 125.609V125.834C123.886 126.596 123.775 127.302 123.554 127.953C123.332 128.604 123.01 129.174 122.587 129.662C122.17 130.144 121.665 130.521 121.073 130.795C120.487 131.062 119.823 131.195 119.081 131.195C118.339 131.195 117.671 131.062 117.079 130.795C116.486 130.521 115.979 130.144 115.555 129.662C115.139 129.174 114.82 128.604 114.598 127.953C114.377 127.302 114.266 126.596 114.266 125.834ZM116.073 125.609V125.834C116.073 126.361 116.135 126.859 116.259 127.328C116.382 127.79 116.568 128.201 116.815 128.559C117.069 128.917 117.385 129.2 117.762 129.408C118.14 129.61 118.58 129.711 119.081 129.711C119.576 129.711 120.009 129.61 120.38 129.408C120.757 129.2 121.07 128.917 121.317 128.559C121.565 128.201 121.75 127.79 121.874 127.328C122.004 126.859 122.069 126.361 122.069 125.834V125.609C122.069 125.089 122.004 124.597 121.874 124.135C121.75 123.666 121.561 123.253 121.307 122.895C121.06 122.53 120.748 122.243 120.37 122.035C119.999 121.827 119.563 121.723 119.061 121.723C118.567 121.723 118.13 121.827 117.753 122.035C117.382 122.243 117.069 122.53 116.815 122.895C116.568 123.253 116.382 123.666 116.259 124.135C116.135 124.597 116.073 125.089 116.073 125.609ZM127.358 122.689V131H125.551V120.434H127.26L127.358 122.689ZM126.928 125.316L126.176 125.287C126.183 124.564 126.29 123.897 126.498 123.285C126.707 122.667 127 122.13 127.377 121.674C127.755 121.218 128.204 120.867 128.725 120.619C129.252 120.365 129.835 120.238 130.473 120.238C130.994 120.238 131.463 120.31 131.879 120.453C132.296 120.59 132.651 120.811 132.944 121.117C133.243 121.423 133.471 121.82 133.627 122.309C133.784 122.79 133.862 123.38 133.862 124.076V131H132.045V124.057C132.045 123.503 131.964 123.061 131.801 122.729C131.638 122.39 131.401 122.146 131.088 121.996C130.776 121.84 130.392 121.762 129.936 121.762C129.487 121.762 129.077 121.856 128.705 122.045C128.341 122.234 128.025 122.494 127.758 122.826C127.498 123.158 127.293 123.539 127.143 123.969C127 124.392 126.928 124.841 126.928 125.316ZM140.391 131.195C139.655 131.195 138.988 131.072 138.389 130.824C137.796 130.57 137.285 130.215 136.855 129.76C136.432 129.304 136.107 128.764 135.879 128.139C135.651 127.514 135.537 126.83 135.537 126.088V125.678C135.537 124.818 135.664 124.053 135.918 123.383C136.172 122.706 136.517 122.133 136.953 121.664C137.389 121.195 137.884 120.84 138.438 120.6C138.991 120.359 139.564 120.238 140.156 120.238C140.911 120.238 141.562 120.368 142.109 120.629C142.663 120.889 143.115 121.254 143.467 121.723C143.818 122.185 144.079 122.732 144.248 123.363C144.417 123.988 144.502 124.672 144.502 125.414V126.225H136.611V124.75H142.695V124.613C142.669 124.145 142.572 123.689 142.402 123.246C142.24 122.803 141.979 122.439 141.621 122.152C141.263 121.866 140.775 121.723 140.156 121.723C139.746 121.723 139.368 121.811 139.023 121.986C138.678 122.156 138.382 122.41 138.135 122.748C137.887 123.087 137.695 123.5 137.559 123.988C137.422 124.477 137.354 125.04 137.354 125.678V126.088C137.354 126.589 137.422 127.061 137.559 127.504C137.702 127.94 137.907 128.324 138.174 128.656C138.447 128.988 138.776 129.249 139.16 129.438C139.551 129.626 139.993 129.721 140.488 129.721C141.126 129.721 141.667 129.59 142.109 129.33C142.552 129.07 142.939 128.721 143.271 128.285L144.365 129.154C144.137 129.499 143.848 129.828 143.496 130.141C143.145 130.453 142.712 130.707 142.197 130.902C141.689 131.098 141.087 131.195 140.391 131.195ZM152.671 128.949V116H154.488V131H152.828L152.671 128.949ZM145.562 125.834V125.629C145.562 124.822 145.66 124.089 145.855 123.432C146.057 122.768 146.34 122.198 146.705 121.723C147.076 121.247 147.515 120.883 148.023 120.629C148.537 120.368 149.11 120.238 149.742 120.238C150.406 120.238 150.985 120.355 151.48 120.59C151.981 120.818 152.405 121.153 152.75 121.596C153.101 122.032 153.378 122.559 153.58 123.178C153.782 123.796 153.921 124.496 154 125.277V126.176C153.928 126.951 153.788 127.647 153.58 128.266C153.378 128.884 153.101 129.411 152.75 129.848C152.405 130.284 151.981 130.619 151.48 130.854C150.979 131.081 150.393 131.195 149.722 131.195C149.104 131.195 148.537 131.062 148.023 130.795C147.515 130.528 147.076 130.154 146.705 129.672C146.34 129.19 146.057 128.624 145.855 127.973C145.66 127.315 145.562 126.602 145.562 125.834ZM147.379 125.629V125.834C147.379 126.361 147.431 126.856 147.535 127.318C147.645 127.781 147.815 128.188 148.043 128.539C148.27 128.891 148.56 129.167 148.912 129.369C149.263 129.564 149.683 129.662 150.171 129.662C150.77 129.662 151.262 129.535 151.646 129.281C152.037 129.027 152.349 128.692 152.584 128.275C152.818 127.859 153 127.406 153.13 126.918V124.564C153.052 124.206 152.938 123.861 152.789 123.529C152.645 123.191 152.457 122.891 152.222 122.631C151.994 122.364 151.711 122.152 151.373 121.996C151.041 121.84 150.647 121.762 150.191 121.762C149.696 121.762 149.27 121.866 148.912 122.074C148.56 122.276 148.27 122.556 148.043 122.914C147.815 123.266 147.645 123.676 147.535 124.145C147.431 124.607 147.379 125.102 147.379 125.629ZM165.485 120.434V121.82H159.772V120.434H165.485ZM161.706 117.865H163.512V128.383C163.512 128.741 163.568 129.011 163.679 129.193C163.789 129.376 163.932 129.496 164.108 129.555C164.284 129.613 164.473 129.643 164.675 129.643C164.824 129.643 164.981 129.63 165.143 129.604C165.313 129.571 165.44 129.545 165.524 129.525L165.534 131C165.391 131.046 165.202 131.088 164.968 131.127C164.74 131.173 164.463 131.195 164.137 131.195C163.695 131.195 163.288 131.107 162.917 130.932C162.546 130.756 162.249 130.463 162.028 130.053C161.813 129.636 161.706 129.076 161.706 128.373V117.865ZM168.811 116V131H167.004V116H168.811ZM168.381 125.316L167.629 125.287C167.636 124.564 167.743 123.897 167.952 123.285C168.16 122.667 168.453 122.13 168.83 121.674C169.208 121.218 169.657 120.867 170.178 120.619C170.705 120.365 171.288 120.238 171.926 120.238C172.447 120.238 172.916 120.31 173.332 120.453C173.749 120.59 174.104 120.811 174.397 121.117C174.696 121.423 174.924 121.82 175.08 122.309C175.237 122.79 175.315 123.38 175.315 124.076V131H173.498V124.057C173.498 123.503 173.417 123.061 173.254 122.729C173.092 122.39 172.854 122.146 172.541 121.996C172.229 121.84 171.845 121.762 171.389 121.762C170.94 121.762 170.53 121.856 170.159 122.045C169.794 122.234 169.478 122.494 169.211 122.826C168.951 123.158 168.746 123.539 168.596 123.969C168.453 124.392 168.381 124.841 168.381 125.316ZM183.65 129.193V123.754C183.65 123.337 183.566 122.976 183.396 122.67C183.234 122.357 182.986 122.117 182.654 121.947C182.322 121.778 181.912 121.693 181.424 121.693C180.968 121.693 180.568 121.771 180.223 121.928C179.884 122.084 179.617 122.289 179.422 122.543C179.233 122.797 179.139 123.07 179.139 123.363H177.332C177.332 122.986 177.43 122.611 177.625 122.24C177.82 121.869 178.1 121.534 178.465 121.234C178.836 120.928 179.279 120.688 179.793 120.512C180.314 120.329 180.893 120.238 181.531 120.238C182.299 120.238 182.977 120.368 183.562 120.629C184.155 120.889 184.617 121.283 184.949 121.811C185.288 122.331 185.457 122.986 185.457 123.773V128.695C185.457 129.047 185.486 129.421 185.545 129.818C185.61 130.215 185.704 130.557 185.828 130.844V131H183.943C183.852 130.792 183.781 130.515 183.729 130.17C183.676 129.818 183.65 129.493 183.65 129.193ZM183.963 124.594L183.982 125.863H182.156C181.642 125.863 181.183 125.906 180.779 125.99C180.376 126.068 180.037 126.189 179.764 126.352C179.49 126.514 179.282 126.719 179.139 126.967C178.995 127.208 178.924 127.491 178.924 127.816C178.924 128.148 178.999 128.451 179.148 128.725C179.298 128.998 179.523 129.216 179.822 129.379C180.128 129.535 180.503 129.613 180.945 129.613C181.499 129.613 181.987 129.496 182.41 129.262C182.833 129.027 183.169 128.741 183.416 128.402C183.67 128.064 183.807 127.735 183.826 127.416L184.598 128.285C184.552 128.559 184.428 128.861 184.227 129.193C184.025 129.525 183.755 129.844 183.416 130.15C183.084 130.45 182.687 130.701 182.225 130.902C181.769 131.098 181.255 131.195 180.682 131.195C179.965 131.195 179.337 131.055 178.797 130.775C178.263 130.495 177.846 130.121 177.547 129.652C177.254 129.177 177.107 128.646 177.107 128.061C177.107 127.494 177.218 126.996 177.439 126.566C177.661 126.13 177.98 125.769 178.396 125.482C178.813 125.189 179.314 124.968 179.9 124.818C180.486 124.669 181.141 124.594 181.863 124.594H183.963ZM192.123 120.434V121.82H186.41V120.434H192.123ZM188.343 117.865H190.15V128.383C190.15 128.741 190.205 129.011 190.316 129.193C190.427 129.376 190.57 129.496 190.746 129.555C190.921 129.613 191.11 129.643 191.312 129.643C191.462 129.643 191.618 129.63 191.781 129.604C191.95 129.571 192.077 129.545 192.162 129.525L192.171 131C192.028 131.046 191.839 131.088 191.605 131.127C191.377 131.173 191.101 131.195 190.775 131.195C190.332 131.195 189.925 131.107 189.554 130.932C189.183 130.756 188.887 130.463 188.666 130.053C188.451 129.636 188.343 129.076 188.343 128.373V117.865ZM200.698 131H198.891V119.32C198.891 118.559 199.028 117.917 199.302 117.396C199.582 116.869 199.982 116.472 200.503 116.205C201.024 115.932 201.642 115.795 202.358 115.795C202.567 115.795 202.775 115.808 202.983 115.834C203.198 115.86 203.406 115.899 203.608 115.951L203.511 117.426C203.374 117.393 203.218 117.37 203.042 117.357C202.873 117.344 202.703 117.338 202.534 117.338C202.15 117.338 201.818 117.416 201.538 117.572C201.264 117.722 201.056 117.943 200.913 118.236C200.77 118.529 200.698 118.891 200.698 119.32V131ZM202.944 120.434V121.82H197.221V120.434H202.944ZM203.877 125.834V125.609C203.877 124.848 203.988 124.141 204.209 123.49C204.431 122.833 204.75 122.263 205.166 121.781C205.583 121.293 206.088 120.915 206.68 120.648C207.273 120.375 207.937 120.238 208.672 120.238C209.414 120.238 210.082 120.375 210.674 120.648C211.273 120.915 211.781 121.293 212.198 121.781C212.621 122.263 212.943 122.833 213.164 123.49C213.386 124.141 213.496 124.848 213.496 125.609V125.834C213.496 126.596 213.386 127.302 213.164 127.953C212.943 128.604 212.621 129.174 212.198 129.662C211.781 130.144 211.276 130.521 210.684 130.795C210.098 131.062 209.434 131.195 208.692 131.195C207.95 131.195 207.282 131.062 206.69 130.795C206.097 130.521 205.59 130.144 205.166 129.662C204.75 129.174 204.431 128.604 204.209 127.953C203.988 127.302 203.877 126.596 203.877 125.834ZM205.684 125.609V125.834C205.684 126.361 205.746 126.859 205.87 127.328C205.993 127.79 206.179 128.201 206.426 128.559C206.68 128.917 206.996 129.2 207.373 129.408C207.751 129.61 208.191 129.711 208.692 129.711C209.187 129.711 209.62 129.61 209.991 129.408C210.368 129.2 210.681 128.917 210.928 128.559C211.176 128.201 211.361 127.79 211.485 127.328C211.615 126.859 211.68 126.361 211.68 125.834V125.609C211.68 125.089 211.615 124.597 211.485 124.135C211.361 123.666 211.172 123.253 210.918 122.895C210.671 122.53 210.358 122.243 209.981 122.035C209.61 121.827 209.174 121.723 208.672 121.723C208.177 121.723 207.741 121.827 207.364 122.035C206.993 122.243 206.68 122.53 206.426 122.895C206.179 123.253 205.993 123.666 205.87 124.135C205.746 124.597 205.684 125.089 205.684 125.609ZM216.969 122.094V131H215.162V120.434H216.92L216.969 122.094ZM220.27 120.375L220.26 122.055C220.11 122.022 219.967 122.003 219.83 121.996C219.7 121.983 219.55 121.977 219.381 121.977C218.964 121.977 218.596 122.042 218.277 122.172C217.958 122.302 217.688 122.484 217.467 122.719C217.245 122.953 217.07 123.233 216.939 123.559C216.816 123.878 216.734 124.229 216.695 124.613L216.188 124.906C216.188 124.268 216.249 123.669 216.373 123.109C216.503 122.549 216.702 122.055 216.969 121.625C217.236 121.189 217.574 120.85 217.984 120.609C218.401 120.362 218.896 120.238 219.469 120.238C219.599 120.238 219.749 120.255 219.918 120.287C220.087 120.313 220.204 120.342 220.27 120.375ZM225.529 131.195C224.793 131.195 224.126 131.072 223.527 130.824C222.934 130.57 222.423 130.215 221.994 129.76C221.571 129.304 221.245 128.764 221.017 128.139C220.789 127.514 220.675 126.83 220.675 126.088V125.678C220.675 124.818 220.802 124.053 221.056 123.383C221.31 122.706 221.655 122.133 222.091 121.664C222.528 121.195 223.022 120.84 223.576 120.6C224.129 120.359 224.702 120.238 225.295 120.238C226.05 120.238 226.701 120.368 227.248 120.629C227.801 120.889 228.254 121.254 228.605 121.723C228.957 122.185 229.217 122.732 229.386 123.363C229.556 123.988 229.64 124.672 229.64 125.414V126.225H221.75V124.75H227.834V124.613C227.808 124.145 227.71 123.689 227.541 123.246C227.378 122.803 227.117 122.439 226.759 122.152C226.401 121.866 225.913 121.723 225.295 121.723C224.884 121.723 224.507 121.811 224.162 121.986C223.817 122.156 223.52 122.41 223.273 122.748C223.026 123.087 222.834 123.5 222.697 123.988C222.56 124.477 222.492 125.04 222.492 125.678V126.088C222.492 126.589 222.56 127.061 222.697 127.504C222.84 127.94 223.045 128.324 223.312 128.656C223.586 128.988 223.914 129.249 224.298 129.438C224.689 129.626 225.132 129.721 225.627 129.721C226.265 129.721 226.805 129.59 227.248 129.33C227.69 129.07 228.078 128.721 228.41 128.285L229.504 129.154C229.276 129.499 228.986 129.828 228.634 130.141C228.283 130.453 227.85 130.707 227.336 130.902C226.828 131.098 226.226 131.195 225.529 131.195ZM233.113 120.434V131H231.296V120.434H233.113ZM231.159 117.631C231.159 117.338 231.247 117.09 231.423 116.889C231.605 116.687 231.872 116.586 232.224 116.586C232.569 116.586 232.833 116.687 233.015 116.889C233.204 117.09 233.298 117.338 233.298 117.631C233.298 117.911 233.204 118.152 233.015 118.354C232.833 118.549 232.569 118.646 232.224 118.646C231.872 118.646 231.605 118.549 231.423 118.354C231.247 118.152 231.159 117.911 231.159 117.631ZM242.259 120.434H243.899V130.775C243.899 131.706 243.71 132.501 243.333 133.158C242.955 133.816 242.428 134.314 241.751 134.652C241.08 134.997 240.305 135.17 239.427 135.17C239.062 135.17 238.632 135.111 238.137 134.994C237.649 134.883 237.167 134.691 236.692 134.418C236.223 134.151 235.83 133.79 235.511 133.334L236.458 132.26C236.901 132.794 237.363 133.165 237.845 133.373C238.333 133.581 238.815 133.686 239.29 133.686C239.863 133.686 240.358 133.578 240.774 133.363C241.191 133.148 241.513 132.829 241.741 132.406C241.975 131.99 242.093 131.475 242.093 130.863V122.758L242.259 120.434ZM234.983 125.834V125.629C234.983 124.822 235.078 124.089 235.266 123.432C235.462 122.768 235.738 122.198 236.096 121.723C236.461 121.247 236.901 120.883 237.415 120.629C237.929 120.368 238.509 120.238 239.153 120.238C239.817 120.238 240.397 120.355 240.891 120.59C241.393 120.818 241.816 121.153 242.161 121.596C242.512 122.032 242.789 122.559 242.991 123.178C243.193 123.796 243.333 124.496 243.411 125.277V126.176C243.339 126.951 243.199 127.647 242.991 128.266C242.789 128.884 242.512 129.411 242.161 129.848C241.816 130.284 241.393 130.619 240.891 130.854C240.39 131.081 239.804 131.195 239.134 131.195C238.502 131.195 237.929 131.062 237.415 130.795C236.907 130.528 236.471 130.154 236.106 129.672C235.742 129.19 235.462 128.624 235.266 127.973C235.078 127.315 234.983 126.602 234.983 125.834ZM236.79 125.629V125.834C236.79 126.361 236.842 126.856 236.946 127.318C237.057 127.781 237.223 128.188 237.444 128.539C237.672 128.891 237.962 129.167 238.313 129.369C238.665 129.564 239.085 129.662 239.573 129.662C240.172 129.662 240.667 129.535 241.057 129.281C241.448 129.027 241.757 128.692 241.985 128.275C242.22 127.859 242.402 127.406 242.532 126.918V124.564C242.46 124.206 242.35 123.861 242.2 123.529C242.057 123.191 241.868 122.891 241.634 122.631C241.406 122.364 241.123 122.152 240.784 121.996C240.445 121.84 240.048 121.762 239.593 121.762C239.098 121.762 238.671 121.866 238.313 122.074C237.962 122.276 237.672 122.556 237.444 122.914C237.223 123.266 237.057 123.676 236.946 124.145C236.842 124.607 236.79 125.102 236.79 125.629ZM247.85 122.689V131H246.043V120.434H247.752L247.85 122.689ZM247.42 125.316L246.668 125.287C246.675 124.564 246.782 123.897 246.991 123.285C247.199 122.667 247.492 122.13 247.87 121.674C248.247 121.218 248.696 120.867 249.217 120.619C249.745 120.365 250.327 120.238 250.965 120.238C251.486 120.238 251.955 120.31 252.371 120.453C252.788 120.59 253.143 120.811 253.436 121.117C253.735 121.423 253.963 121.82 254.12 122.309C254.276 122.79 254.354 123.38 254.354 124.076V131H252.538V124.057C252.538 123.503 252.456 123.061 252.293 122.729C252.131 122.39 251.893 122.146 251.58 121.996C251.268 121.84 250.884 121.762 250.428 121.762C249.979 121.762 249.569 121.856 249.198 122.045C248.833 122.234 248.517 122.494 248.25 122.826C247.99 123.158 247.785 123.539 247.635 123.969C247.492 124.392 247.42 124.841 247.42 125.316ZM43.8418 156.559V148.434H45.6582V159H43.9297L43.8418 156.559ZM44.1836 154.332L44.9355 154.312C44.9355 155.016 44.8607 155.667 44.7109 156.266C44.5677 156.858 44.3333 157.372 44.0078 157.809C43.6823 158.245 43.2559 158.587 42.7285 158.834C42.2012 159.075 41.5599 159.195 40.8047 159.195C40.2904 159.195 39.8184 159.12 39.3887 158.971C38.9655 158.821 38.6009 158.59 38.2949 158.277C37.9889 157.965 37.7513 157.558 37.582 157.057C37.4193 156.555 37.3379 155.953 37.3379 155.25V148.434H39.1445V155.27C39.1445 155.745 39.1966 156.139 39.3008 156.451C39.4115 156.757 39.5579 157.001 39.7402 157.184C39.929 157.359 40.1374 157.483 40.3652 157.555C40.5996 157.626 40.8405 157.662 41.0879 157.662C41.8561 157.662 42.4648 157.516 42.9141 157.223C43.3633 156.923 43.6855 156.523 43.8809 156.021C44.0827 155.514 44.1836 154.951 44.1836 154.332ZM53.9645 156.197C53.9645 155.937 53.9059 155.696 53.7887 155.475C53.678 155.247 53.4469 155.042 53.0953 154.859C52.7503 154.671 52.2294 154.508 51.5328 154.371C50.9469 154.247 50.4163 154.101 49.941 153.932C49.4723 153.762 49.0719 153.557 48.7398 153.316C48.4143 153.076 48.1637 152.792 47.9879 152.467C47.8121 152.141 47.7242 151.76 47.7242 151.324C47.7242 150.908 47.8154 150.514 47.9977 150.143C48.1865 149.771 48.4501 149.443 48.7887 149.156C49.1337 148.87 49.5471 148.645 50.0289 148.482C50.5107 148.32 51.0478 148.238 51.6402 148.238C52.4866 148.238 53.2092 148.388 53.8082 148.688C54.4072 148.987 54.8661 149.387 55.1852 149.889C55.5042 150.383 55.6637 150.934 55.6637 151.539H53.857C53.857 151.246 53.7691 150.963 53.5934 150.689C53.4241 150.41 53.1734 150.178 52.8414 149.996C52.5159 149.814 52.1155 149.723 51.6402 149.723C51.1389 149.723 50.732 149.801 50.4195 149.957C50.1135 150.107 49.8889 150.299 49.7457 150.533C49.609 150.768 49.5406 151.015 49.5406 151.275C49.5406 151.471 49.5732 151.646 49.6383 151.803C49.7099 151.952 49.8336 152.092 50.0094 152.223C50.1852 152.346 50.4326 152.464 50.7516 152.574C51.0706 152.685 51.4775 152.796 51.9723 152.906C52.8382 153.102 53.551 153.336 54.1109 153.609C54.6708 153.883 55.0875 154.218 55.3609 154.615C55.6344 155.012 55.7711 155.494 55.7711 156.061C55.7711 156.523 55.6734 156.946 55.4781 157.33C55.2893 157.714 55.0126 158.046 54.648 158.326C54.29 158.6 53.8603 158.814 53.359 158.971C52.8642 159.12 52.3076 159.195 51.6891 159.195C50.7581 159.195 49.9703 159.029 49.3258 158.697C48.6812 158.365 48.193 157.936 47.8609 157.408C47.5289 156.881 47.3629 156.324 47.3629 155.738H49.1793C49.2053 156.233 49.3486 156.627 49.609 156.92C49.8694 157.206 50.1884 157.411 50.566 157.535C50.9436 157.652 51.318 157.711 51.6891 157.711C52.1839 157.711 52.5973 157.646 52.9293 157.516C53.2678 157.385 53.525 157.206 53.7008 156.979C53.8766 156.751 53.9645 156.49 53.9645 156.197ZM61.9289 159.195C61.1932 159.195 60.5259 159.072 59.927 158.824C59.3345 158.57 58.8234 158.215 58.3937 157.76C57.9706 157.304 57.6451 156.764 57.4172 156.139C57.1893 155.514 57.0754 154.83 57.0754 154.088V153.678C57.0754 152.818 57.2023 152.053 57.4562 151.383C57.7102 150.706 58.0552 150.133 58.4914 149.664C58.9276 149.195 59.4224 148.84 59.9758 148.6C60.5292 148.359 61.1021 148.238 61.6945 148.238C62.4497 148.238 63.1008 148.368 63.6477 148.629C64.201 148.889 64.6535 149.254 65.0051 149.723C65.3566 150.185 65.6171 150.732 65.7863 151.363C65.9556 151.988 66.0402 152.672 66.0402 153.414V154.225H58.1496V152.75H64.2336V152.613C64.2076 152.145 64.1099 151.689 63.9406 151.246C63.7779 150.803 63.5174 150.439 63.1594 150.152C62.8013 149.866 62.313 149.723 61.6945 149.723C61.2844 149.723 60.9068 149.811 60.5617 149.986C60.2167 150.156 59.9204 150.41 59.673 150.748C59.4257 151.087 59.2336 151.5 59.0969 151.988C58.9602 152.477 58.8918 153.04 58.8918 153.678V154.088C58.8918 154.589 58.9602 155.061 59.0969 155.504C59.2401 155.94 59.4452 156.324 59.7121 156.656C59.9855 156.988 60.3143 157.249 60.6984 157.438C61.0891 157.626 61.5318 157.721 62.0266 157.721C62.6646 157.721 63.2049 157.59 63.6477 157.33C64.0904 157.07 64.4777 156.721 64.8098 156.285L65.9035 157.154C65.6757 157.499 65.3859 157.828 65.0344 158.141C64.6828 158.453 64.2499 158.707 63.7355 158.902C63.2277 159.098 62.6255 159.195 61.9289 159.195ZM69.3563 150.094V159H67.5496V148.434H69.3074L69.3563 150.094ZM72.657 148.375L72.6473 150.055C72.4975 150.022 72.3543 150.003 72.2176 149.996C72.0874 149.983 71.9376 149.977 71.7684 149.977C71.3517 149.977 70.9839 150.042 70.6648 150.172C70.3458 150.302 70.0757 150.484 69.8543 150.719C69.6329 150.953 69.4572 151.233 69.327 151.559C69.2033 151.878 69.1219 152.229 69.0828 152.613L68.575 152.906C68.575 152.268 68.6368 151.669 68.7605 151.109C68.8908 150.549 69.0893 150.055 69.3563 149.625C69.6232 149.189 69.9617 148.85 70.3719 148.609C70.7885 148.362 71.2833 148.238 71.8563 148.238C71.9865 148.238 72.1362 148.255 72.3055 148.287C72.4747 148.313 72.5919 148.342 72.657 148.375ZM79.8793 156.197C79.8793 155.937 79.8207 155.696 79.7035 155.475C79.5928 155.247 79.3617 155.042 79.0102 154.859C78.6651 154.671 78.1443 154.508 77.4477 154.371C76.8617 154.247 76.3311 154.101 75.8559 153.932C75.3871 153.762 74.9867 153.557 74.6547 153.316C74.3292 153.076 74.0785 152.792 73.9027 152.467C73.727 152.141 73.6391 151.76 73.6391 151.324C73.6391 150.908 73.7302 150.514 73.9125 150.143C74.1013 149.771 74.365 149.443 74.7035 149.156C75.0486 148.87 75.462 148.645 75.9437 148.482C76.4255 148.32 76.9626 148.238 77.5551 148.238C78.4014 148.238 79.1241 148.388 79.723 148.688C80.322 148.987 80.781 149.387 81.1 149.889C81.419 150.383 81.5785 150.934 81.5785 151.539H79.7719C79.7719 151.246 79.684 150.963 79.5082 150.689C79.3389 150.41 79.0883 150.178 78.7562 149.996C78.4307 149.814 78.0303 149.723 77.5551 149.723C77.0538 149.723 76.6469 149.801 76.3344 149.957C76.0284 150.107 75.8038 150.299 75.6605 150.533C75.5238 150.768 75.4555 151.015 75.4555 151.275C75.4555 151.471 75.488 151.646 75.5531 151.803C75.6247 151.952 75.7484 152.092 75.9242 152.223C76.1 152.346 76.3474 152.464 76.6664 152.574C76.9854 152.685 77.3923 152.796 77.8871 152.906C78.753 153.102 79.4659 153.336 80.0258 153.609C80.5857 153.883 81.0023 154.218 81.2758 154.615C81.5492 155.012 81.6859 155.494 81.6859 156.061C81.6859 156.523 81.5883 156.946 81.393 157.33C81.2042 157.714 80.9275 158.046 80.5629 158.326C80.2048 158.6 79.7751 158.814 79.2738 158.971C78.779 159.12 78.2224 159.195 77.6039 159.195C76.6729 159.195 75.8852 159.029 75.2406 158.697C74.5961 158.365 74.1078 157.936 73.7758 157.408C73.4437 156.881 73.2777 156.324 73.2777 155.738H75.0941C75.1202 156.233 75.2634 156.627 75.5238 156.92C75.7842 157.206 76.1033 157.411 76.4809 157.535C76.8585 157.652 77.2328 157.711 77.6039 157.711C78.0987 157.711 78.5121 157.646 78.8441 157.516C79.1827 157.385 79.4398 157.206 79.6156 156.979C79.7914 156.751 79.8793 156.49 79.8793 156.197ZM94.4801 156.949V144H96.2965V159H94.6363L94.4801 156.949ZM87.3707 153.834V153.629C87.3707 152.822 87.4684 152.089 87.6637 151.432C87.8655 150.768 88.1487 150.198 88.5133 149.723C88.8844 149.247 89.3238 148.883 89.8316 148.629C90.346 148.368 90.9189 148.238 91.5504 148.238C92.2145 148.238 92.7939 148.355 93.2887 148.59C93.79 148.818 94.2132 149.153 94.5582 149.596C94.9098 150.032 95.1865 150.559 95.3883 151.178C95.5901 151.796 95.7301 152.496 95.8082 153.277V154.176C95.7366 154.951 95.5966 155.647 95.3883 156.266C95.1865 156.884 94.9098 157.411 94.5582 157.848C94.2132 158.284 93.79 158.619 93.2887 158.854C92.7874 159.081 92.2014 159.195 91.5309 159.195C90.9124 159.195 90.346 159.062 89.8316 158.795C89.3238 158.528 88.8844 158.154 88.5133 157.672C88.1487 157.19 87.8655 156.624 87.6637 155.973C87.4684 155.315 87.3707 154.602 87.3707 153.834ZM89.1871 153.629V153.834C89.1871 154.361 89.2392 154.856 89.3434 155.318C89.454 155.781 89.6233 156.188 89.8512 156.539C90.079 156.891 90.3688 157.167 90.7203 157.369C91.0719 157.564 91.4918 157.662 91.9801 157.662C92.579 157.662 93.0706 157.535 93.4547 157.281C93.8453 157.027 94.1578 156.692 94.3922 156.275C94.6266 155.859 94.8089 155.406 94.9391 154.918V152.564C94.8609 152.206 94.747 151.861 94.5973 151.529C94.454 151.191 94.2652 150.891 94.0309 150.631C93.803 150.364 93.5198 150.152 93.1813 149.996C92.8492 149.84 92.4553 149.762 91.9996 149.762C91.5048 149.762 91.0784 149.866 90.7203 150.074C90.3688 150.276 90.079 150.556 89.8512 150.914C89.6233 151.266 89.454 151.676 89.3434 152.145C89.2392 152.607 89.1871 153.102 89.1871 153.629ZM98.0305 153.834V153.609C98.0305 152.848 98.1411 152.141 98.3625 151.49C98.5839 150.833 98.9029 150.263 99.3195 149.781C99.7362 149.293 100.241 148.915 100.833 148.648C101.426 148.375 102.09 148.238 102.825 148.238C103.568 148.238 104.235 148.375 104.827 148.648C105.426 148.915 105.934 149.293 106.351 149.781C106.774 150.263 107.096 150.833 107.318 151.49C107.539 152.141 107.65 152.848 107.65 153.609V153.834C107.65 154.596 107.539 155.302 107.318 155.953C107.096 156.604 106.774 157.174 106.351 157.662C105.934 158.144 105.43 158.521 104.837 158.795C104.251 159.062 103.587 159.195 102.845 159.195C102.103 159.195 101.435 159.062 100.843 158.795C100.251 158.521 99.7427 158.144 99.3195 157.662C98.9029 157.174 98.5839 156.604 98.3625 155.953C98.1411 155.302 98.0305 154.596 98.0305 153.834ZM99.8371 153.609V153.834C99.8371 154.361 99.899 154.859 100.023 155.328C100.146 155.79 100.332 156.201 100.579 156.559C100.833 156.917 101.149 157.2 101.527 157.408C101.904 157.61 102.344 157.711 102.845 157.711C103.34 157.711 103.773 157.61 104.144 157.408C104.521 157.2 104.834 156.917 105.081 156.559C105.329 156.201 105.514 155.79 105.638 155.328C105.768 154.859 105.833 154.361 105.833 153.834V153.609C105.833 153.089 105.768 152.597 105.638 152.135C105.514 151.666 105.325 151.253 105.071 150.895C104.824 150.53 104.512 150.243 104.134 150.035C103.763 149.827 103.327 149.723 102.825 149.723C102.331 149.723 101.894 149.827 101.517 150.035C101.146 150.243 100.833 150.53 100.579 150.895C100.332 151.253 100.146 151.666 100.023 152.135C99.899 152.597 99.8371 153.089 99.8371 153.609ZM111.122 150.689V159H109.315V148.434H111.024L111.122 150.689ZM110.692 153.316L109.94 153.287C109.947 152.564 110.054 151.897 110.262 151.285C110.471 150.667 110.764 150.13 111.141 149.674C111.519 149.218 111.968 148.867 112.489 148.619C113.016 148.365 113.599 148.238 114.237 148.238C114.758 148.238 115.227 148.31 115.643 148.453C116.06 148.59 116.415 148.811 116.708 149.117C117.007 149.423 117.235 149.82 117.391 150.309C117.548 150.79 117.626 151.38 117.626 152.076V159H115.809V152.057C115.809 151.503 115.728 151.061 115.565 150.729C115.402 150.39 115.165 150.146 114.852 149.996C114.54 149.84 114.156 149.762 113.7 149.762C113.251 149.762 112.841 149.856 112.47 150.045C112.105 150.234 111.789 150.494 111.522 150.826C111.262 151.158 111.057 151.539 110.907 151.969C110.764 152.392 110.692 152.841 110.692 153.316ZM120.815 144V145.25C120.815 145.641 120.746 146.054 120.61 146.49C120.48 146.92 120.287 147.337 120.034 147.74C119.78 148.137 119.474 148.486 119.116 148.785L118.08 148.072C118.386 147.643 118.618 147.203 118.774 146.754C118.937 146.298 119.018 145.807 119.018 145.279V144H120.815ZM126.816 148.434V149.82H121.104V148.434H126.816ZM123.037 145.865H124.844V156.383C124.844 156.741 124.899 157.011 125.01 157.193C125.12 157.376 125.264 157.496 125.439 157.555C125.615 157.613 125.804 157.643 126.006 157.643C126.156 157.643 126.312 157.63 126.475 157.604C126.644 157.571 126.771 157.545 126.855 157.525L126.865 159C126.722 159.046 126.533 159.088 126.299 159.127C126.071 159.173 125.794 159.195 125.469 159.195C125.026 159.195 124.619 159.107 124.248 158.932C123.877 158.756 123.581 158.463 123.359 158.053C123.145 157.636 123.037 157.076 123.037 156.373V145.865ZM139.161 156.559V148.434H140.978V159H139.249L139.161 156.559ZM139.503 154.332L140.255 154.312C140.255 155.016 140.18 155.667 140.03 156.266C139.887 156.858 139.653 157.372 139.327 157.809C139.002 158.245 138.575 158.587 138.048 158.834C137.521 159.075 136.879 159.195 136.124 159.195C135.61 159.195 135.138 159.12 134.708 158.971C134.285 158.821 133.92 158.59 133.614 158.277C133.308 157.965 133.071 157.558 132.902 157.057C132.739 156.555 132.657 155.953 132.657 155.25V148.434H134.464V155.27C134.464 155.745 134.516 156.139 134.62 156.451C134.731 156.757 134.877 157.001 135.06 157.184C135.249 157.359 135.457 157.483 135.685 157.555C135.919 157.626 136.16 157.662 136.407 157.662C137.176 157.662 137.784 157.516 138.234 157.223C138.683 156.923 139.005 156.523 139.2 156.021C139.402 155.514 139.503 154.951 139.503 154.332ZM144.938 150.689V159H143.132V148.434H144.841L144.938 150.689ZM144.509 153.316L143.757 153.287C143.763 152.564 143.871 151.897 144.079 151.285C144.287 150.667 144.58 150.13 144.958 149.674C145.335 149.218 145.785 148.867 146.305 148.619C146.833 148.365 147.415 148.238 148.054 148.238C148.574 148.238 149.043 148.31 149.46 148.453C149.876 148.59 150.231 148.811 150.524 149.117C150.824 149.423 151.052 149.82 151.208 150.309C151.364 150.79 151.442 151.38 151.442 152.076V159H149.626V152.057C149.626 151.503 149.544 151.061 149.382 150.729C149.219 150.39 148.981 150.146 148.669 149.996C148.356 149.84 147.972 149.762 147.516 149.762C147.067 149.762 146.657 149.856 146.286 150.045C145.921 150.234 145.606 150.494 145.339 150.826C145.078 151.158 144.873 151.539 144.723 151.969C144.58 152.392 144.509 152.841 144.509 153.316ZM160.246 156.949V144H162.063V159H160.403L160.246 156.949ZM153.137 153.834V153.629C153.137 152.822 153.235 152.089 153.43 151.432C153.632 150.768 153.915 150.198 154.28 149.723C154.651 149.247 155.09 148.883 155.598 148.629C156.112 148.368 156.685 148.238 157.317 148.238C157.981 148.238 158.56 148.355 159.055 148.59C159.556 148.818 159.98 149.153 160.325 149.596C160.676 150.032 160.953 150.559 161.155 151.178C161.357 151.796 161.496 152.496 161.575 153.277V154.176C161.503 154.951 161.363 155.647 161.155 156.266C160.953 156.884 160.676 157.411 160.325 157.848C159.98 158.284 159.556 158.619 159.055 158.854C158.554 159.081 157.968 159.195 157.297 159.195C156.679 159.195 156.112 159.062 155.598 158.795C155.09 158.528 154.651 158.154 154.28 157.672C153.915 157.19 153.632 156.624 153.43 155.973C153.235 155.315 153.137 154.602 153.137 153.834ZM154.954 153.629V153.834C154.954 154.361 155.006 154.856 155.11 155.318C155.22 155.781 155.39 156.188 155.618 156.539C155.845 156.891 156.135 157.167 156.487 157.369C156.838 157.564 157.258 157.662 157.746 157.662C158.345 157.662 158.837 157.535 159.221 157.281C159.612 157.027 159.924 156.692 160.159 156.275C160.393 155.859 160.575 155.406 160.705 154.918V152.564C160.627 152.206 160.513 151.861 160.364 151.529C160.22 151.191 160.032 150.891 159.797 150.631C159.569 150.364 159.286 150.152 158.948 149.996C158.616 149.84 158.222 149.762 157.766 149.762C157.271 149.762 156.845 149.866 156.487 150.074C156.135 150.276 155.845 150.556 155.618 150.914C155.39 151.266 155.22 151.676 155.11 152.145C155.006 152.607 154.954 153.102 154.954 153.629ZM168.66 159.195C167.924 159.195 167.257 159.072 166.658 158.824C166.066 158.57 165.555 158.215 165.125 157.76C164.702 157.304 164.376 156.764 164.148 156.139C163.921 155.514 163.807 154.83 163.807 154.088V153.678C163.807 152.818 163.934 152.053 164.188 151.383C164.441 150.706 164.786 150.133 165.223 149.664C165.659 149.195 166.154 148.84 166.707 148.6C167.26 148.359 167.833 148.238 168.426 148.238C169.181 148.238 169.832 148.368 170.379 148.629C170.932 148.889 171.385 149.254 171.736 149.723C172.088 150.185 172.348 150.732 172.518 151.363C172.687 151.988 172.771 152.672 172.771 153.414V154.225H164.881V152.75H170.965V152.613C170.939 152.145 170.841 151.689 170.672 151.246C170.509 150.803 170.249 150.439 169.891 150.152C169.533 149.866 169.044 149.723 168.426 149.723C168.016 149.723 167.638 149.811 167.293 149.986C166.948 150.156 166.652 150.41 166.404 150.748C166.157 151.087 165.965 151.5 165.828 151.988C165.691 152.477 165.623 153.04 165.623 153.678V154.088C165.623 154.589 165.691 155.061 165.828 155.504C165.971 155.94 166.176 156.324 166.443 156.656C166.717 156.988 167.046 157.249 167.43 157.438C167.82 157.626 168.263 157.721 168.758 157.721C169.396 157.721 169.936 157.59 170.379 157.33C170.822 157.07 171.209 156.721 171.541 156.285L172.635 157.154C172.407 157.499 172.117 157.828 171.766 158.141C171.414 158.453 170.981 158.707 170.467 158.902C169.959 159.098 169.357 159.195 168.66 159.195ZM176.087 150.094V159H174.281V148.434H176.039L176.087 150.094ZM179.388 148.375L179.379 150.055C179.229 150.022 179.086 150.003 178.949 149.996C178.819 149.983 178.669 149.977 178.5 149.977C178.083 149.977 177.715 150.042 177.396 150.172C177.077 150.302 176.807 150.484 176.586 150.719C176.364 150.953 176.188 151.233 176.058 151.559C175.934 151.878 175.853 152.229 175.814 152.613L175.306 152.906C175.306 152.268 175.368 151.669 175.492 151.109C175.622 150.549 175.821 150.055 176.087 149.625C176.354 149.189 176.693 148.85 177.103 148.609C177.52 148.362 178.015 148.238 178.587 148.238C178.718 148.238 178.867 148.255 179.037 148.287C179.206 148.313 179.323 148.342 179.388 148.375ZM186.611 156.197C186.611 155.937 186.552 155.696 186.435 155.475C186.324 155.247 186.093 155.042 185.741 154.859C185.396 154.671 184.876 154.508 184.179 154.371C183.593 154.247 183.062 154.101 182.587 153.932C182.118 153.762 181.718 153.557 181.386 153.316C181.06 153.076 180.81 152.792 180.634 152.467C180.458 152.141 180.37 151.76 180.37 151.324C180.37 150.908 180.461 150.514 180.644 150.143C180.833 149.771 181.096 149.443 181.435 149.156C181.78 148.87 182.193 148.645 182.675 148.482C183.157 148.32 183.694 148.238 184.286 148.238C185.133 148.238 185.855 148.388 186.454 148.688C187.053 148.987 187.512 149.387 187.831 149.889C188.15 150.383 188.31 150.934 188.31 151.539H186.503C186.503 151.246 186.415 150.963 186.239 150.689C186.07 150.41 185.82 150.178 185.488 149.996C185.162 149.814 184.762 149.723 184.286 149.723C183.785 149.723 183.378 149.801 183.066 149.957C182.76 150.107 182.535 150.299 182.392 150.533C182.255 150.768 182.187 151.015 182.187 151.275C182.187 151.471 182.219 151.646 182.284 151.803C182.356 151.952 182.48 152.092 182.655 152.223C182.831 152.346 183.079 152.464 183.398 152.574C183.717 152.685 184.124 152.796 184.618 152.906C185.484 153.102 186.197 153.336 186.757 153.609C187.317 153.883 187.734 154.218 188.007 154.615C188.28 155.012 188.417 155.494 188.417 156.061C188.417 156.523 188.32 156.946 188.124 157.33C187.935 157.714 187.659 158.046 187.294 158.326C186.936 158.6 186.506 158.814 186.005 158.971C185.51 159.12 184.954 159.195 184.335 159.195C183.404 159.195 182.616 159.029 181.972 158.697C181.327 158.365 180.839 157.936 180.507 157.408C180.175 156.881 180.009 156.324 180.009 155.738H181.825C181.851 156.233 181.995 156.627 182.255 156.92C182.515 157.206 182.835 157.411 183.212 157.535C183.59 157.652 183.964 157.711 184.335 157.711C184.83 157.711 185.243 157.646 185.575 157.516C185.914 157.385 186.171 157.206 186.347 156.979C186.523 156.751 186.611 156.49 186.611 156.197ZM194.614 148.434V149.82H188.901V148.434H194.614ZM190.835 145.865H192.641V156.383C192.641 156.741 192.697 157.011 192.807 157.193C192.918 157.376 193.061 157.496 193.237 157.555C193.413 157.613 193.602 157.643 193.804 157.643C193.953 157.643 194.11 157.63 194.272 157.604C194.442 157.571 194.568 157.545 194.653 157.525L194.663 159C194.52 159.046 194.331 159.088 194.096 159.127C193.869 159.173 193.592 159.195 193.266 159.195C192.824 159.195 192.417 159.107 192.046 158.932C191.675 158.756 191.378 158.463 191.157 158.053C190.942 157.636 190.835 157.076 190.835 156.373V145.865ZM202.364 157.193V151.754C202.364 151.337 202.279 150.976 202.11 150.67C201.947 150.357 201.7 150.117 201.368 149.947C201.036 149.778 200.625 149.693 200.137 149.693C199.681 149.693 199.281 149.771 198.936 149.928C198.597 150.084 198.33 150.289 198.135 150.543C197.946 150.797 197.852 151.07 197.852 151.363H196.045C196.045 150.986 196.143 150.611 196.338 150.24C196.534 149.869 196.814 149.534 197.178 149.234C197.549 148.928 197.992 148.688 198.506 148.512C199.027 148.329 199.607 148.238 200.245 148.238C201.013 148.238 201.69 148.368 202.276 148.629C202.868 148.889 203.33 149.283 203.663 149.811C204.001 150.331 204.17 150.986 204.17 151.773V156.695C204.17 157.047 204.2 157.421 204.258 157.818C204.323 158.215 204.418 158.557 204.541 158.844V159H202.657C202.566 158.792 202.494 158.515 202.442 158.17C202.39 157.818 202.364 157.493 202.364 157.193ZM202.676 152.594L202.696 153.863H200.87C200.355 153.863 199.896 153.906 199.493 153.99C199.089 154.068 198.75 154.189 198.477 154.352C198.204 154.514 197.995 154.719 197.852 154.967C197.709 155.208 197.637 155.491 197.637 155.816C197.637 156.148 197.712 156.451 197.862 156.725C198.011 156.998 198.236 157.216 198.536 157.379C198.842 157.535 199.216 157.613 199.659 157.613C200.212 157.613 200.7 157.496 201.123 157.262C201.547 157.027 201.882 156.741 202.129 156.402C202.383 156.064 202.52 155.735 202.539 155.416L203.311 156.285C203.265 156.559 203.142 156.861 202.94 157.193C202.738 157.525 202.468 157.844 202.129 158.15C201.797 158.45 201.4 158.701 200.938 158.902C200.482 159.098 199.968 159.195 199.395 159.195C198.679 159.195 198.051 159.055 197.51 158.775C196.976 158.495 196.56 158.121 196.26 157.652C195.967 157.177 195.821 156.646 195.821 156.061C195.821 155.494 195.931 154.996 196.153 154.566C196.374 154.13 196.693 153.769 197.11 153.482C197.526 153.189 198.028 152.968 198.614 152.818C199.2 152.669 199.854 152.594 200.577 152.594H202.676ZM208.219 150.689V159H206.412V148.434H208.121L208.219 150.689ZM207.789 153.316L207.037 153.287C207.044 152.564 207.151 151.897 207.359 151.285C207.568 150.667 207.861 150.13 208.238 149.674C208.616 149.218 209.065 148.867 209.586 148.619C210.113 148.365 210.696 148.238 211.334 148.238C211.855 148.238 212.324 148.31 212.74 148.453C213.157 148.59 213.512 148.811 213.805 149.117C214.104 149.423 214.332 149.82 214.488 150.309C214.645 150.79 214.723 151.38 214.723 152.076V159H212.906V152.057C212.906 151.503 212.825 151.061 212.662 150.729C212.499 150.39 212.262 150.146 211.949 149.996C211.637 149.84 211.253 149.762 210.797 149.762C210.348 149.762 209.938 149.856 209.566 150.045C209.202 150.234 208.886 150.494 208.619 150.826C208.359 151.158 208.154 151.539 208.004 151.969C207.861 152.392 207.789 152.841 207.789 153.316ZM223.527 156.949V144H225.343V159H223.683L223.527 156.949ZM216.418 153.834V153.629C216.418 152.822 216.515 152.089 216.711 151.432C216.912 150.768 217.196 150.198 217.56 149.723C217.931 149.247 218.371 148.883 218.879 148.629C219.393 148.368 219.966 148.238 220.597 148.238C221.261 148.238 221.841 148.355 222.336 148.59C222.837 148.818 223.26 149.153 223.605 149.596C223.957 150.032 224.233 150.559 224.435 151.178C224.637 151.796 224.777 152.496 224.855 153.277V154.176C224.783 154.951 224.643 155.647 224.435 156.266C224.233 156.884 223.957 157.411 223.605 157.848C223.26 158.284 222.837 158.619 222.336 158.854C221.834 159.081 221.248 159.195 220.578 159.195C219.959 159.195 219.393 159.062 218.879 158.795C218.371 158.528 217.931 158.154 217.56 157.672C217.196 157.19 216.912 156.624 216.711 155.973C216.515 155.315 216.418 154.602 216.418 153.834ZM218.234 153.629V153.834C218.234 154.361 218.286 154.856 218.39 155.318C218.501 155.781 218.67 156.188 218.898 156.539C219.126 156.891 219.416 157.167 219.767 157.369C220.119 157.564 220.539 157.662 221.027 157.662C221.626 157.662 222.117 157.535 222.502 157.281C222.892 157.027 223.205 156.692 223.439 156.275C223.673 155.859 223.856 155.406 223.986 154.918V152.564C223.908 152.206 223.794 151.861 223.644 151.529C223.501 151.191 223.312 150.891 223.078 150.631C222.85 150.364 222.567 150.152 222.228 149.996C221.896 149.84 221.502 149.762 221.046 149.762C220.552 149.762 220.125 149.866 219.767 150.074C219.416 150.276 219.126 150.556 218.898 150.914C218.67 151.266 218.501 151.676 218.39 152.145C218.286 152.607 218.234 153.102 218.234 153.629ZM236.341 148.434V149.82H230.628V148.434H236.341ZM232.561 145.865H234.368V156.383C234.368 156.741 234.423 157.011 234.534 157.193C234.645 157.376 234.788 157.496 234.964 157.555C235.139 157.613 235.328 157.643 235.53 157.643C235.68 157.643 235.836 157.63 235.999 157.604C236.168 157.571 236.295 157.545 236.38 157.525L236.389 159C236.246 159.046 236.057 159.088 235.823 159.127C235.595 159.173 235.318 159.195 234.993 159.195C234.55 159.195 234.143 159.107 233.772 158.932C233.401 158.756 233.105 158.463 232.884 158.053C232.669 157.636 232.561 157.076 232.561 156.373V145.865ZM239.666 144V159H237.86V144H239.666ZM239.237 153.316L238.485 153.287C238.491 152.564 238.599 151.897 238.807 151.285C239.015 150.667 239.308 150.13 239.686 149.674C240.064 149.218 240.513 148.867 241.034 148.619C241.561 148.365 242.144 148.238 242.782 148.238C243.302 148.238 243.771 148.31 244.188 148.453C244.605 148.59 244.959 148.811 245.252 149.117C245.552 149.423 245.78 149.82 245.936 150.309C246.092 150.79 246.17 151.38 246.17 152.076V159H244.354V152.057C244.354 151.503 244.273 151.061 244.11 150.729C243.947 150.39 243.709 150.146 243.397 149.996C243.084 149.84 242.7 149.762 242.245 149.762C241.795 149.762 241.385 149.856 241.014 150.045C240.649 150.234 240.334 150.494 240.067 150.826C239.806 151.158 239.601 151.539 239.452 151.969C239.308 152.392 239.237 152.841 239.237 153.316ZM252.66 159.195C251.924 159.195 251.257 159.072 250.658 158.824C250.066 158.57 249.555 158.215 249.125 157.76C248.702 157.304 248.376 156.764 248.148 156.139C247.921 155.514 247.807 154.83 247.807 154.088V153.678C247.807 152.818 247.934 152.053 248.188 151.383C248.441 150.706 248.786 150.133 249.223 149.664C249.659 149.195 250.154 148.84 250.707 148.6C251.26 148.359 251.833 148.238 252.426 148.238C253.181 148.238 253.832 148.368 254.379 148.629C254.932 148.889 255.385 149.254 255.736 149.723C256.088 150.185 256.348 150.732 256.518 151.363C256.687 151.988 256.771 152.672 256.771 153.414V154.225H248.881V152.75H254.965V152.613C254.939 152.145 254.841 151.689 254.672 151.246C254.509 150.803 254.249 150.439 253.891 150.152C253.533 149.866 253.044 149.723 252.426 149.723C252.016 149.723 251.638 149.811 251.293 149.986C250.948 150.156 250.652 150.41 250.404 150.748C250.157 151.087 249.965 151.5 249.828 151.988C249.691 152.477 249.623 153.04 249.623 153.678V154.088C249.623 154.589 249.691 155.061 249.828 155.504C249.971 155.94 250.176 156.324 250.443 156.656C250.717 156.988 251.046 157.249 251.43 157.438C251.82 157.626 252.263 157.721 252.758 157.721C253.396 157.721 253.936 157.59 254.379 157.33C254.822 157.07 255.209 156.721 255.541 156.285L256.635 157.154C256.407 157.499 256.117 157.828 255.766 158.141C255.414 158.453 254.981 158.707 254.467 158.902C253.959 159.098 253.357 159.195 252.66 159.195ZM42.9141 174.041L38.207 187H36.2832L41.7031 172.781H42.9434L42.9141 174.041ZM46.8594 187L42.1426 174.041L42.1133 172.781H43.3535L48.793 187H46.8594ZM46.6152 181.736V183.279H38.627V181.736H46.6152ZM50.0973 172.781H54.8043C55.872 172.781 56.7737 172.944 57.5094 173.27C58.2516 173.595 58.8147 174.077 59.1988 174.715C59.5895 175.346 59.7848 176.124 59.7848 177.049C59.7848 177.7 59.6513 178.296 59.3844 178.836C59.124 179.37 58.7464 179.826 58.2516 180.203C57.7633 180.574 57.1773 180.851 56.4937 181.033L55.9664 181.238H51.5426L51.523 179.705H54.8629C55.54 179.705 56.1031 179.588 56.5523 179.354C57.0016 179.113 57.3401 178.79 57.568 178.387C57.7958 177.983 57.9098 177.537 57.9098 177.049C57.9098 176.502 57.8023 176.023 57.5875 175.613C57.3727 175.203 57.0341 174.887 56.5719 174.666C56.1161 174.438 55.527 174.324 54.8043 174.324H51.982V187H50.0973V172.781ZM58.4078 187L54.9508 180.555L56.9137 180.545L60.4195 186.883V187H58.4078ZM70.4055 182.479H72.2805C72.1828 183.377 71.9257 184.181 71.509 184.891C71.0923 185.6 70.5031 186.163 69.7414 186.58C68.9797 186.99 68.0292 187.195 66.8898 187.195C66.0565 187.195 65.298 187.039 64.6145 186.727C63.9374 186.414 63.3547 185.971 62.8664 185.398C62.3781 184.819 62.0005 184.126 61.7336 183.318C61.4732 182.505 61.343 181.6 61.343 180.604V179.188C61.343 178.191 61.4732 177.29 61.7336 176.482C62.0005 175.669 62.3814 174.972 62.8762 174.393C63.3775 173.813 63.9797 173.367 64.6828 173.055C65.3859 172.742 66.177 172.586 67.0559 172.586C68.1301 172.586 69.0383 172.788 69.7805 173.191C70.5227 173.595 71.0988 174.155 71.509 174.871C71.9257 175.581 72.1828 176.404 72.2805 177.342H70.4055C70.3143 176.678 70.1451 176.108 69.8977 175.633C69.6503 175.151 69.2987 174.78 68.843 174.52C68.3872 174.259 67.7915 174.129 67.0559 174.129C66.4243 174.129 65.8677 174.249 65.3859 174.49C64.9107 174.731 64.5103 175.073 64.1848 175.516C63.8658 175.958 63.6249 176.489 63.4621 177.107C63.2993 177.726 63.218 178.413 63.218 179.168V180.604C63.218 181.3 63.2896 181.954 63.4328 182.566C63.5826 183.178 63.8072 183.715 64.1066 184.178C64.4061 184.64 64.787 185.005 65.2492 185.271C65.7115 185.532 66.2583 185.662 66.8898 185.662C67.6906 185.662 68.3286 185.535 68.8039 185.281C69.2792 185.027 69.6372 184.663 69.8781 184.188C70.1255 183.712 70.3013 183.143 70.4055 182.479ZM80.6312 172.781V187H78.7465V172.781H80.6312ZM87.3066 187H84.3379L84.3574 185.467H87.3066C88.3223 185.467 89.1686 185.255 89.8457 184.832C90.5228 184.402 91.0306 183.803 91.3691 183.035C91.7142 182.26 91.8867 181.355 91.8867 180.32V179.451C91.8867 178.637 91.7891 177.915 91.5938 177.283C91.3984 176.645 91.112 176.108 90.7344 175.672C90.3568 175.229 89.8945 174.894 89.3477 174.666C88.8073 174.438 88.1855 174.324 87.4824 174.324H84.2793V172.781H87.4824C88.4134 172.781 89.263 172.938 90.0312 173.25C90.7995 173.556 91.4603 174.002 92.0137 174.588C92.5736 175.167 93.0033 175.87 93.3027 176.697C93.6022 177.518 93.752 178.442 93.752 179.471V180.32C93.752 181.349 93.6022 182.277 93.3027 183.104C93.0033 183.924 92.5703 184.624 92.0039 185.203C91.444 185.783 90.7669 186.229 89.9727 186.541C89.1849 186.847 88.2962 187 87.3066 187ZM85.3438 172.781V187H83.459V172.781H85.3438ZM101.878 178.094V187H100.071V176.434H101.829L101.878 178.094ZM105.179 176.375L105.169 178.055C105.019 178.022 104.876 178.003 104.739 177.996C104.609 177.983 104.46 177.977 104.29 177.977C103.874 177.977 103.506 178.042 103.187 178.172C102.868 178.302 102.598 178.484 102.376 178.719C102.155 178.953 101.979 179.233 101.849 179.559C101.725 179.878 101.644 180.229 101.605 180.613L101.097 180.906C101.097 180.268 101.159 179.669 101.282 179.109C101.413 178.549 101.611 178.055 101.878 177.625C102.145 177.189 102.484 176.85 102.894 176.609C103.31 176.362 103.805 176.238 104.378 176.238C104.508 176.238 104.658 176.255 104.827 176.287C104.997 176.313 105.114 176.342 105.179 176.375ZM110.438 187.195C109.703 187.195 109.035 187.072 108.436 186.824C107.844 186.57 107.333 186.215 106.903 185.76C106.48 185.304 106.154 184.764 105.927 184.139C105.699 183.514 105.585 182.83 105.585 182.088V181.678C105.585 180.818 105.712 180.053 105.966 179.383C106.22 178.706 106.565 178.133 107.001 177.664C107.437 177.195 107.932 176.84 108.485 176.6C109.039 176.359 109.611 176.238 110.204 176.238C110.959 176.238 111.61 176.368 112.157 176.629C112.71 176.889 113.163 177.254 113.514 177.723C113.866 178.185 114.126 178.732 114.296 179.363C114.465 179.988 114.55 180.672 114.55 181.414V182.225H106.659V180.75H112.743V180.613C112.717 180.145 112.619 179.689 112.45 179.246C112.287 178.803 112.027 178.439 111.669 178.152C111.311 177.866 110.822 177.723 110.204 177.723C109.794 177.723 109.416 177.811 109.071 177.986C108.726 178.156 108.43 178.41 108.182 178.748C107.935 179.087 107.743 179.5 107.606 179.988C107.47 180.477 107.401 181.04 107.401 181.678V182.088C107.401 182.589 107.47 183.061 107.606 183.504C107.749 183.94 107.955 184.324 108.221 184.656C108.495 184.988 108.824 185.249 109.208 185.438C109.598 185.626 110.041 185.721 110.536 185.721C111.174 185.721 111.714 185.59 112.157 185.33C112.6 185.07 112.987 184.721 113.319 184.285L114.413 185.154C114.185 185.499 113.895 185.828 113.544 186.141C113.192 186.453 112.759 186.707 112.245 186.902C111.737 187.098 111.135 187.195 110.438 187.195ZM122.709 191.062V178.465L122.866 176.434H124.526V191.062H122.709ZM115.61 181.834V181.629C115.61 180.822 115.704 180.089 115.893 179.432C116.082 178.768 116.358 178.198 116.723 177.723C117.088 177.247 117.527 176.883 118.041 176.629C118.562 176.368 119.155 176.238 119.819 176.238C120.483 176.238 121.065 176.355 121.567 176.59C122.075 176.818 122.504 177.153 122.856 177.596C123.214 178.032 123.497 178.559 123.705 179.178C123.914 179.796 124.057 180.496 124.135 181.277V182.176C124.064 182.951 123.924 183.647 123.715 184.266C123.507 184.884 123.224 185.411 122.866 185.848C122.514 186.284 122.081 186.619 121.567 186.854C121.059 187.081 120.47 187.195 119.799 187.195C119.148 187.195 118.562 187.062 118.041 186.795C117.527 186.528 117.088 186.154 116.723 185.672C116.365 185.19 116.088 184.624 115.893 183.973C115.704 183.315 115.61 182.602 115.61 181.834ZM117.426 181.629V181.834C117.426 182.361 117.482 182.859 117.592 183.328C117.703 183.79 117.872 184.201 118.1 184.559C118.334 184.917 118.627 185.2 118.979 185.408C119.337 185.61 119.76 185.711 120.248 185.711C120.847 185.711 121.345 185.581 121.743 185.32C122.146 185.06 122.468 184.718 122.709 184.295C122.95 183.865 123.136 183.406 123.266 182.918V180.564C123.194 180.206 123.08 179.858 122.924 179.52C122.774 179.181 122.579 178.878 122.338 178.611C122.097 178.338 121.804 178.123 121.459 177.967C121.121 177.804 120.724 177.723 120.268 177.723C119.773 177.723 119.347 177.827 118.989 178.035C118.631 178.243 118.334 178.53 118.1 178.895C117.872 179.253 117.703 179.666 117.592 180.135C117.482 180.604 117.426 181.102 117.426 181.629ZM133.291 184.559V176.434H135.107V187H133.379L133.291 184.559ZM133.633 182.332L134.385 182.312C134.385 183.016 134.31 183.667 134.16 184.266C134.017 184.858 133.783 185.372 133.457 185.809C133.132 186.245 132.705 186.587 132.178 186.834C131.65 187.075 131.009 187.195 130.254 187.195C129.74 187.195 129.268 187.12 128.838 186.971C128.415 186.821 128.05 186.59 127.744 186.277C127.438 185.965 127.201 185.558 127.031 185.057C126.868 184.555 126.787 183.953 126.787 183.25V176.434H128.594V183.27C128.594 183.745 128.646 184.139 128.75 184.451C128.861 184.757 129.007 185.001 129.189 185.184C129.378 185.359 129.587 185.483 129.814 185.555C130.049 185.626 130.29 185.662 130.537 185.662C131.305 185.662 131.914 185.516 132.363 185.223C132.812 184.923 133.135 184.523 133.33 184.021C133.532 183.514 133.633 182.951 133.633 182.332ZM139.224 176.434V187H137.408V176.434H139.224ZM137.271 173.631C137.271 173.338 137.359 173.09 137.535 172.889C137.717 172.687 137.984 172.586 138.336 172.586C138.681 172.586 138.944 172.687 139.127 172.889C139.315 173.09 139.41 173.338 139.41 173.631C139.41 173.911 139.315 174.152 139.127 174.354C138.944 174.549 138.681 174.646 138.336 174.646C137.984 174.646 137.717 174.549 137.535 174.354C137.359 174.152 137.271 173.911 137.271 173.631ZM143.331 178.094V187H141.525V176.434H143.282L143.331 178.094ZM146.632 176.375L146.622 178.055C146.473 178.022 146.329 178.003 146.193 177.996C146.062 177.983 145.913 177.977 145.743 177.977C145.327 177.977 144.959 178.042 144.64 178.172C144.321 178.302 144.051 178.484 143.829 178.719C143.608 178.953 143.432 179.233 143.302 179.559C143.178 179.878 143.097 180.229 143.058 180.613L142.55 180.906C142.55 180.268 142.612 179.669 142.736 179.109C142.866 178.549 143.064 178.055 143.331 177.625C143.598 177.189 143.937 176.85 144.347 176.609C144.764 176.362 145.258 176.238 145.831 176.238C145.961 176.238 146.111 176.255 146.28 176.287C146.45 176.313 146.567 176.342 146.632 176.375ZM151.891 187.195C151.156 187.195 150.488 187.072 149.889 186.824C149.297 186.57 148.786 186.215 148.356 185.76C147.933 185.304 147.608 184.764 147.38 184.139C147.152 183.514 147.038 182.83 147.038 182.088V181.678C147.038 180.818 147.165 180.053 147.419 179.383C147.673 178.706 148.018 178.133 148.454 177.664C148.89 177.195 149.385 176.84 149.938 176.6C150.492 176.359 151.065 176.238 151.657 176.238C152.412 176.238 153.063 176.368 153.61 176.629C154.164 176.889 154.616 177.254 154.968 177.723C155.319 178.185 155.58 178.732 155.749 179.363C155.918 179.988 156.003 180.672 156.003 181.414V182.225H148.112V180.75H154.196V180.613C154.17 180.145 154.072 179.689 153.903 179.246C153.74 178.803 153.48 178.439 153.122 178.152C152.764 177.866 152.276 177.723 151.657 177.723C151.247 177.723 150.869 177.811 150.524 177.986C150.179 178.156 149.883 178.41 149.636 178.748C149.388 179.087 149.196 179.5 149.059 179.988C148.923 180.477 148.854 181.04 148.854 181.678V182.088C148.854 182.589 148.923 183.061 149.059 183.504C149.203 183.94 149.408 184.324 149.675 184.656C149.948 184.988 150.277 185.249 150.661 185.438C151.052 185.626 151.494 185.721 151.989 185.721C152.627 185.721 153.167 185.59 153.61 185.33C154.053 185.07 154.44 184.721 154.772 184.285L155.866 185.154C155.638 185.499 155.348 185.828 154.997 186.141C154.645 186.453 154.212 186.707 153.698 186.902C153.19 187.098 152.588 187.195 151.891 187.195ZM159.309 178.533V187H157.493V176.434H159.211L159.309 178.533ZM158.938 181.316L158.098 181.287C158.105 180.564 158.199 179.897 158.381 179.285C158.564 178.667 158.834 178.13 159.192 177.674C159.55 177.218 159.996 176.867 160.53 176.619C161.064 176.365 161.682 176.238 162.385 176.238C162.88 176.238 163.336 176.31 163.752 176.453C164.169 176.59 164.53 176.808 164.836 177.107C165.142 177.407 165.38 177.791 165.549 178.26C165.718 178.729 165.803 179.295 165.803 179.959V187H163.996V180.047C163.996 179.493 163.902 179.051 163.713 178.719C163.531 178.387 163.271 178.146 162.932 177.996C162.593 177.84 162.196 177.762 161.741 177.762C161.207 177.762 160.761 177.856 160.403 178.045C160.045 178.234 159.758 178.494 159.543 178.826C159.329 179.158 159.172 179.539 159.075 179.969C158.983 180.392 158.938 180.841 158.938 181.316ZM165.784 180.32L164.573 180.691C164.579 180.112 164.674 179.555 164.856 179.021C165.045 178.488 165.315 178.012 165.666 177.596C166.024 177.179 166.464 176.85 166.985 176.609C167.506 176.362 168.101 176.238 168.772 176.238C169.338 176.238 169.84 176.313 170.276 176.463C170.718 176.613 171.09 176.844 171.389 177.156C171.695 177.462 171.926 177.856 172.082 178.338C172.239 178.82 172.317 179.393 172.317 180.057V187H170.5V180.037C170.5 179.445 170.406 178.986 170.217 178.66C170.035 178.328 169.774 178.097 169.436 177.967C169.104 177.83 168.707 177.762 168.245 177.762C167.847 177.762 167.496 177.83 167.19 177.967C166.884 178.104 166.627 178.292 166.418 178.533C166.21 178.768 166.051 179.038 165.94 179.344C165.836 179.65 165.784 179.975 165.784 180.32ZM178.836 187.195C178.1 187.195 177.433 187.072 176.834 186.824C176.242 186.57 175.73 186.215 175.301 185.76C174.878 185.304 174.552 184.764 174.324 184.139C174.096 183.514 173.982 182.83 173.982 182.088V181.678C173.982 180.818 174.109 180.053 174.363 179.383C174.617 178.706 174.962 178.133 175.398 177.664C175.835 177.195 176.329 176.84 176.883 176.6C177.436 176.359 178.009 176.238 178.602 176.238C179.357 176.238 180.008 176.368 180.555 176.629C181.108 176.889 181.561 177.254 181.912 177.723C182.264 178.185 182.524 178.732 182.693 179.363C182.863 179.988 182.947 180.672 182.947 181.414V182.225H175.057V180.75H181.141V180.613C181.115 180.145 181.017 179.689 180.848 179.246C180.685 178.803 180.424 178.439 180.066 178.152C179.708 177.866 179.22 177.723 178.602 177.723C178.191 177.723 177.814 177.811 177.469 177.986C177.124 178.156 176.827 178.41 176.58 178.748C176.333 179.087 176.141 179.5 176.004 179.988C175.867 180.477 175.799 181.04 175.799 181.678V182.088C175.799 182.589 175.867 183.061 176.004 183.504C176.147 183.94 176.352 184.324 176.619 184.656C176.893 184.988 177.221 185.249 177.605 185.438C177.996 185.626 178.439 185.721 178.934 185.721C179.572 185.721 180.112 185.59 180.555 185.33C180.997 185.07 181.385 184.721 181.717 184.285L182.811 185.154C182.583 185.499 182.293 185.828 181.941 186.141C181.59 186.453 181.157 186.707 180.643 186.902C180.135 187.098 179.533 187.195 178.836 187.195ZM186.263 178.689V187H184.457V176.434H186.166L186.263 178.689ZM185.834 181.316L185.082 181.287C185.088 180.564 185.196 179.897 185.404 179.285C185.612 178.667 185.905 178.13 186.283 177.674C186.66 177.218 187.11 176.867 187.63 176.619C188.158 176.365 188.74 176.238 189.379 176.238C189.899 176.238 190.368 176.31 190.785 176.453C191.201 176.59 191.556 176.811 191.849 177.117C192.149 177.423 192.377 177.82 192.533 178.309C192.689 178.79 192.767 179.38 192.767 180.076V187H190.951V180.057C190.951 179.503 190.869 179.061 190.707 178.729C190.544 178.39 190.306 178.146 189.994 177.996C189.681 177.84 189.297 177.762 188.841 177.762C188.392 177.762 187.982 177.856 187.611 178.045C187.246 178.234 186.931 178.494 186.664 178.826C186.403 179.158 186.198 179.539 186.048 179.969C185.905 180.392 185.834 180.841 185.834 181.316ZM199.335 176.434V177.82H193.622V176.434H199.335ZM195.556 173.865H197.363V184.383C197.363 184.741 197.418 185.011 197.529 185.193C197.639 185.376 197.782 185.496 197.958 185.555C198.134 185.613 198.323 185.643 198.525 185.643C198.674 185.643 198.831 185.63 198.993 185.604C199.163 185.571 199.29 185.545 199.374 185.525L199.384 187C199.241 187.046 199.052 187.088 198.818 187.127C198.59 187.173 198.313 187.195 197.988 187.195C197.545 187.195 197.138 187.107 196.767 186.932C196.396 186.756 196.099 186.463 195.878 186.053C195.663 185.636 195.556 185.076 195.556 184.373V173.865ZM200.884 186.043C200.884 185.737 200.978 185.48 201.167 185.271C201.362 185.057 201.642 184.949 202.007 184.949C202.371 184.949 202.648 185.057 202.837 185.271C203.032 185.48 203.13 185.737 203.13 186.043C203.13 186.342 203.032 186.596 202.837 186.805C202.648 187.013 202.371 187.117 202.007 187.117C201.642 187.117 201.362 187.013 201.167 186.805C200.978 186.596 200.884 186.342 200.884 186.043Z" fill="black"/>
<path d="M73.053 52V38.7H74.953V52H73.053ZM81.3388 52.228C80.5281 52.228 79.8188 52.095 79.2108 51.829C78.6028 51.563 78.1215 51.1893 77.7668 50.708C77.4121 50.2267 77.1968 49.663 77.1208 49.017H79.0588C79.1221 49.321 79.2425 49.5997 79.4198 49.853C79.6098 50.1063 79.8631 50.309 80.1798 50.461C80.5091 50.613 80.8955 50.689 81.3388 50.689C81.7568 50.689 82.0988 50.632 82.3648 50.518C82.6435 50.3913 82.8461 50.2267 82.9728 50.024C83.0995 49.8087 83.1628 49.5807 83.1628 49.34C83.1628 48.9853 83.0741 48.7193 82.8968 48.542C82.7321 48.352 82.4788 48.2063 82.1368 48.105C81.8075 47.991 81.4085 47.8897 80.9398 47.801C80.4965 47.725 80.0658 47.6237 79.6478 47.497C79.2425 47.3577 78.8751 47.1867 78.5458 46.984C78.2291 46.7813 77.9758 46.528 77.7858 46.224C77.5958 45.9073 77.5008 45.521 77.5008 45.065C77.5008 44.5203 77.6465 44.0327 77.9378 43.602C78.2291 43.1587 78.6408 42.8167 79.1728 42.576C79.7175 42.3227 80.3571 42.196 81.0918 42.196C82.1558 42.196 83.0108 42.4493 83.6568 42.956C84.3028 43.4627 84.6828 44.1783 84.7968 45.103H82.9538C82.9031 44.6723 82.7131 44.343 82.3838 44.115C82.0545 43.8743 81.6175 43.754 81.0728 43.754C80.5281 43.754 80.1101 43.8617 79.8188 44.077C79.5275 44.2923 79.3818 44.5773 79.3818 44.932C79.3818 45.16 79.4641 45.3627 79.6288 45.54C79.7935 45.7173 80.0341 45.8693 80.3508 45.996C80.6801 46.11 81.0791 46.2177 81.5478 46.319C82.2191 46.4457 82.8208 46.604 83.3528 46.794C83.8848 46.984 84.3091 47.2627 84.6258 47.63C84.9425 47.9973 85.1008 48.523 85.1008 49.207C85.1135 49.8023 84.9615 50.328 84.6448 50.784C84.3408 51.24 83.9038 51.5947 83.3338 51.848C82.7765 52.1013 82.1115 52.228 81.3388 52.228ZM91.0429 52.228C90.2322 52.228 89.5229 52.095 88.9149 51.829C88.3069 51.563 87.8256 51.1893 87.4709 50.708C87.1162 50.2267 86.9009 49.663 86.8249 49.017H88.7629C88.8262 49.321 88.9466 49.5997 89.1239 49.853C89.3139 50.1063 89.5672 50.309 89.8839 50.461C90.2132 50.613 90.5996 50.689 91.0429 50.689C91.4609 50.689 91.8029 50.632 92.0689 50.518C92.3476 50.3913 92.5502 50.2267 92.6769 50.024C92.8036 49.8087 92.8669 49.5807 92.8669 49.34C92.8669 48.9853 92.7782 48.7193 92.6009 48.542C92.4362 48.352 92.1829 48.2063 91.8409 48.105C91.5116 47.991 91.1126 47.8897 90.6439 47.801C90.2006 47.725 89.7699 47.6237 89.3519 47.497C88.9466 47.3577 88.5792 47.1867 88.2499 46.984C87.9332 46.7813 87.6799 46.528 87.4899 46.224C87.2999 45.9073 87.2049 45.521 87.2049 45.065C87.2049 44.5203 87.3506 44.0327 87.6419 43.602C87.9332 43.1587 88.3449 42.8167 88.8769 42.576C89.4216 42.3227 90.0612 42.196 90.7959 42.196C91.8599 42.196 92.7149 42.4493 93.3609 42.956C94.0069 43.4627 94.3869 44.1783 94.5009 45.103H92.6579C92.6072 44.6723 92.4172 44.343 92.0879 44.115C91.7586 43.8743 91.3216 43.754 90.7769 43.754C90.2322 43.754 89.8142 43.8617 89.5229 44.077C89.2316 44.2923 89.0859 44.5773 89.0859 44.932C89.0859 45.16 89.1682 45.3627 89.3329 45.54C89.4976 45.7173 89.7382 45.8693 90.0549 45.996C90.3842 46.11 90.7832 46.2177 91.2519 46.319C91.9232 46.4457 92.5249 46.604 93.0569 46.794C93.5889 46.984 94.0132 47.2627 94.3299 47.63C94.6466 47.9973 94.8049 48.523 94.8049 49.207C94.8176 49.8023 94.6656 50.328 94.3489 50.784C94.0449 51.24 93.6079 51.5947 93.0379 51.848C92.4806 52.1013 91.8156 52.228 91.0429 52.228ZM100.557 52.228C99.8097 52.228 99.1573 52.076 98.6 51.772C98.0553 51.468 97.631 51.012 97.327 50.404C97.0357 49.796 96.89 49.0297 96.89 48.105V42.424H98.79V47.896C98.79 48.7953 98.9863 49.473 99.379 49.929C99.7717 50.385 100.335 50.613 101.07 50.613C101.564 50.613 102.007 50.4927 102.4 50.252C102.805 50.0113 103.122 49.663 103.35 49.207C103.578 48.751 103.692 48.1937 103.692 47.535V42.424H105.592V52H103.901L103.768 50.366C103.477 50.9487 103.052 51.4047 102.495 51.734C101.938 52.0633 101.292 52.228 100.557 52.228ZM112.525 52.228C111.613 52.228 110.803 52.019 110.093 51.601C109.384 51.183 108.827 50.6003 108.421 49.853C108.029 49.1057 107.832 48.238 107.832 47.25C107.832 46.2367 108.029 45.3563 108.421 44.609C108.827 43.849 109.384 43.26 110.093 42.842C110.803 42.4113 111.626 42.196 112.563 42.196C113.501 42.196 114.305 42.405 114.976 42.823C115.648 43.241 116.167 43.7983 116.534 44.495C116.902 45.179 117.085 45.939 117.085 46.775C117.085 46.9017 117.079 47.041 117.066 47.193C117.066 47.3323 117.06 47.4907 117.047 47.668H109.219V46.319H115.185C115.147 45.521 114.881 44.9003 114.387 44.457C113.893 44.001 113.279 43.773 112.544 43.773C112.025 43.773 111.55 43.8933 111.119 44.134C110.689 44.362 110.34 44.704 110.074 45.16C109.821 45.6033 109.694 46.167 109.694 46.851V47.383C109.694 48.0923 109.821 48.694 110.074 49.188C110.34 49.6693 110.689 50.0367 111.119 50.29C111.55 50.5307 112.019 50.651 112.525 50.651C113.133 50.651 113.634 50.518 114.026 50.252C114.419 49.986 114.71 49.625 114.9 49.169H116.8C116.636 49.7517 116.357 50.2773 115.964 50.746C115.572 51.202 115.084 51.563 114.501 51.829C113.931 52.095 113.273 52.228 112.525 52.228Z" fill="black"/>
<path d="M188.386 62.852L186.594 58.5358C189.906 57.1785 192.431 55.4411 194.168 53.3237C195.96 51.2063 196.856 48.6003 196.856 45.5056L195.39 38.6647L199.787 44.8541C199.19 45.5599 198.511 46.0485 197.751 46.32C196.991 46.5371 196.231 46.6457 195.471 46.6457C193.788 46.6457 192.349 46.1571 191.155 45.1798C189.96 44.2026 189.363 42.7638 189.363 40.8636C189.363 38.9091 189.96 37.4432 191.155 36.4659C192.404 35.4886 193.869 35 195.552 35C197.833 35 199.543 35.8687 200.683 37.606C201.878 39.2891 202.475 41.5422 202.475 44.3655C202.475 48.7631 201.199 52.5636 198.647 55.7669C196.095 58.9701 192.675 61.3319 188.386 62.852Z" fill="black"/>
<path d="M163.458 62.852L161.666 58.5358C164.978 57.1785 167.502 55.4411 169.24 53.3237C171.031 51.2063 171.927 48.6003 171.927 45.5056L170.461 38.6647L174.859 44.8541C174.262 45.5599 173.583 46.0485 172.823 46.32C172.063 46.5371 171.303 46.6457 170.543 46.6457C168.86 46.6457 167.421 46.1571 166.227 45.1798C165.032 44.2026 164.435 42.7638 164.435 40.8636C164.435 38.9091 165.032 37.4432 166.227 36.4659C167.475 35.4886 168.941 35 170.624 35C172.905 35 174.615 35.8687 175.755 37.606C176.949 39.2891 177.547 41.5422 177.547 44.3655C177.547 48.7631 176.271 52.5636 173.719 55.7669C171.167 58.9701 167.747 61.3319 163.458 62.852Z" fill="black"/>
<path d="M224 296.5C224 281.651 219.244 267.192 210.429 255.243C201.614 243.293 189.204 234.481 175.017 230.097C160.829 225.714 145.611 225.99 131.592 230.884C117.572 235.779 105.489 245.034 97.1131 257.296C88.7368 269.557 84.5077 284.178 85.0456 299.017C85.5835 313.857 90.86 328.134 100.102 339.756C109.344 351.379 122.065 359.736 136.402 363.602C150.739 367.469 165.937 366.642 179.77 361.243L154.5 296.5H224Z" fill="#DC8888"/>
<path d="M179.613 361.304C192.944 356.138 204.357 346.987 212.297 335.097C220.237 323.208 224.317 309.16 223.981 294.867L154.5 296.5L179.613 361.304Z" fill="#4C9E9B"/>
<path d="M109.584 273V257.6H119.154V259.404H111.784V264.398H117.966V266.158H111.784V273H109.584ZM123.574 273.264C122.65 273.264 121.888 273.11 121.286 272.802C120.685 272.494 120.238 272.091 119.944 271.592C119.651 271.079 119.504 270.521 119.504 269.92C119.504 269.187 119.688 268.563 120.054 268.05C120.436 267.537 120.978 267.141 121.682 266.862C122.401 266.583 123.259 266.444 124.256 266.444H127.138C127.138 265.813 127.036 265.293 126.83 264.882C126.64 264.457 126.354 264.141 125.972 263.936C125.591 263.731 125.129 263.628 124.586 263.628C123.912 263.628 123.332 263.789 122.848 264.112C122.364 264.435 122.071 264.911 121.968 265.542H119.746C119.834 264.75 120.106 264.075 120.56 263.518C121.015 262.961 121.594 262.535 122.298 262.242C123.017 261.934 123.78 261.78 124.586 261.78C125.613 261.78 126.478 261.963 127.182 262.33C127.886 262.697 128.422 263.217 128.788 263.892C129.155 264.552 129.338 265.344 129.338 266.268V273H127.424L127.248 271.13C127.102 271.423 126.911 271.702 126.676 271.966C126.456 272.23 126.192 272.457 125.884 272.648C125.591 272.839 125.246 272.985 124.85 273.088C124.469 273.205 124.044 273.264 123.574 273.264ZM123.992 271.482C124.476 271.482 124.909 271.387 125.29 271.196C125.672 271.005 125.994 270.749 126.258 270.426C126.522 270.089 126.72 269.715 126.852 269.304C126.999 268.893 127.08 268.468 127.094 268.028V268.006H124.476C123.831 268.006 123.31 268.087 122.914 268.248C122.533 268.395 122.254 268.6 122.078 268.864C121.902 269.128 121.814 269.429 121.814 269.766C121.814 270.118 121.895 270.426 122.056 270.69C122.232 270.939 122.482 271.137 122.804 271.284C123.142 271.416 123.538 271.482 123.992 271.482ZM131.598 273V262.044H133.798V273H131.598ZM132.698 259.91C132.287 259.91 131.942 259.778 131.664 259.514C131.385 259.25 131.246 258.913 131.246 258.502C131.246 258.106 131.385 257.783 131.664 257.534C131.942 257.27 132.287 257.138 132.698 257.138C133.108 257.138 133.453 257.27 133.732 257.534C134.01 257.783 134.15 258.106 134.15 258.502C134.15 258.913 134.01 259.25 133.732 259.514C133.453 259.778 133.108 259.91 132.698 259.91ZM136.262 273V257.16H138.462V273H136.262ZM151.029 273.264C150.002 273.264 149.078 273.081 148.257 272.714C147.45 272.333 146.805 271.805 146.321 271.13C145.851 270.455 145.617 269.671 145.617 268.776C145.617 268.145 145.734 267.566 145.969 267.038C146.203 266.495 146.533 266.026 146.959 265.63C147.399 265.234 147.912 264.948 148.499 264.772C147.707 264.464 147.091 264.009 146.651 263.408C146.211 262.807 145.991 262.147 145.991 261.428C145.991 260.68 146.189 259.998 146.585 259.382C146.995 258.766 147.575 258.275 148.323 257.908C149.071 257.527 149.973 257.336 151.029 257.336C152.099 257.336 153.009 257.527 153.757 257.908C154.505 258.275 155.077 258.766 155.473 259.382C155.869 259.998 156.067 260.68 156.067 261.428C156.067 262.147 155.847 262.814 155.407 263.43C154.967 264.031 154.358 264.479 153.581 264.772C154.167 264.948 154.673 265.234 155.099 265.63C155.539 266.026 155.876 266.495 156.111 267.038C156.345 267.566 156.463 268.145 156.463 268.776C156.463 269.671 156.221 270.455 155.737 271.13C155.267 271.805 154.622 272.333 153.801 272.714C152.979 273.081 152.055 273.264 151.029 273.264ZM151.029 271.372C152.129 271.372 152.943 271.123 153.471 270.624C154.013 270.111 154.285 269.443 154.285 268.622C154.285 267.698 153.991 266.994 153.405 266.51C152.818 266.026 152.026 265.784 151.029 265.784C150.046 265.784 149.254 266.026 148.653 266.51C148.066 266.994 147.773 267.698 147.773 268.622C147.773 269.443 148.044 270.111 148.587 270.624C149.144 271.123 149.958 271.372 151.029 271.372ZM151.029 264.046C151.909 264.046 152.598 263.819 153.097 263.364C153.61 262.909 153.867 262.33 153.867 261.626C153.867 260.819 153.617 260.211 153.119 259.8C152.62 259.389 151.923 259.184 151.029 259.184C150.163 259.184 149.474 259.389 148.961 259.8C148.462 260.211 148.213 260.819 148.213 261.626C148.213 262.33 148.462 262.909 148.961 263.364C149.474 263.819 150.163 264.046 151.029 264.046ZM164.849 273.264C163.47 273.264 162.282 272.934 161.285 272.274C160.288 271.599 159.518 270.668 158.975 269.48C158.447 268.277 158.183 266.884 158.183 265.3C158.183 263.716 158.447 262.33 158.975 261.142C159.518 259.939 160.288 259.008 161.285 258.348C162.282 257.673 163.47 257.336 164.849 257.336C166.242 257.336 167.43 257.673 168.413 258.348C169.396 259.008 170.151 259.939 170.679 261.142C171.222 262.33 171.493 263.716 171.493 265.3C171.493 266.884 171.222 268.277 170.679 269.48C170.151 270.668 169.396 271.599 168.413 272.274C167.43 272.934 166.242 273.264 164.849 273.264ZM164.849 271.306C165.7 271.306 166.455 271.064 167.115 270.58C167.775 270.096 168.296 269.407 168.677 268.512C169.058 267.617 169.249 266.547 169.249 265.3C169.249 264.053 169.058 262.983 168.677 262.088C168.296 261.193 167.775 260.511 167.115 260.042C166.455 259.558 165.7 259.316 164.849 259.316C163.998 259.316 163.236 259.558 162.561 260.042C161.901 260.511 161.38 261.193 160.999 262.088C160.632 262.983 160.449 264.053 160.449 265.3C160.449 266.547 160.632 267.617 160.999 268.512C161.38 269.407 161.901 270.096 162.561 270.58C163.236 271.064 163.998 271.306 164.849 271.306ZM175.195 273L184.061 257.6H186.239L177.373 273H175.195ZM185.227 273.264C184.552 273.264 183.943 273.11 183.401 272.802C182.858 272.494 182.418 272.061 182.081 271.504C181.758 270.932 181.597 270.265 181.597 269.502C181.597 268.71 181.758 268.035 182.081 267.478C182.418 266.921 182.858 266.488 183.401 266.18C183.943 265.872 184.552 265.718 185.227 265.718C185.916 265.718 186.525 265.872 187.053 266.18C187.595 266.488 188.021 266.921 188.329 267.478C188.651 268.035 188.813 268.71 188.813 269.502C188.813 270.265 188.651 270.932 188.329 271.504C188.021 272.061 187.595 272.494 187.053 272.802C186.51 273.11 185.901 273.264 185.227 273.264ZM185.205 271.636C185.542 271.636 185.843 271.555 186.107 271.394C186.385 271.233 186.605 270.998 186.767 270.69C186.928 270.367 187.009 269.964 187.009 269.48C187.009 268.996 186.928 268.6 186.767 268.292C186.605 267.969 186.385 267.727 186.107 267.566C185.843 267.405 185.549 267.324 185.227 267.324C184.904 267.324 184.603 267.405 184.325 267.566C184.046 267.727 183.819 267.969 183.643 268.292C183.481 268.6 183.401 268.996 183.401 269.48C183.401 269.964 183.481 270.367 183.643 270.69C183.819 270.998 184.039 271.233 184.303 271.394C184.581 271.555 184.882 271.636 185.205 271.636ZM176.361 264.904C175.686 264.904 175.07 264.75 174.513 264.442C173.97 264.134 173.537 263.701 173.215 263.144C172.892 262.572 172.731 261.897 172.731 261.12C172.731 260.343 172.892 259.675 173.215 259.118C173.537 258.561 173.97 258.128 174.513 257.82C175.07 257.512 175.693 257.358 176.383 257.358C177.057 257.358 177.666 257.512 178.209 257.82C178.751 258.128 179.177 258.561 179.485 259.118C179.807 259.675 179.969 260.343 179.969 261.12C179.969 261.897 179.807 262.572 179.485 263.144C179.177 263.701 178.744 264.134 178.187 264.442C177.644 264.75 177.035 264.904 176.361 264.904ZM176.361 263.276C176.683 263.276 176.977 263.195 177.241 263.034C177.519 262.873 177.739 262.638 177.901 262.33C178.062 262.007 178.143 261.604 178.143 261.12C178.143 260.636 178.062 260.233 177.901 259.91C177.739 259.587 177.519 259.345 177.241 259.184C176.977 259.023 176.683 258.942 176.361 258.942C176.053 258.942 175.752 259.023 175.459 259.184C175.18 259.345 174.953 259.587 174.777 259.91C174.615 260.233 174.535 260.636 174.535 261.12C174.535 261.589 174.615 261.985 174.777 262.308C174.953 262.631 175.18 262.873 175.459 263.034C175.737 263.195 176.038 263.276 176.361 263.276Z" fill="black"/>
<path d="M186.584 329V313.6H191.864C193.081 313.6 194.086 313.805 194.878 314.216C195.67 314.612 196.257 315.155 196.638 315.844C197.019 316.533 197.21 317.311 197.21 318.176C197.21 319.027 197.019 319.797 196.638 320.486C196.271 321.175 195.692 321.725 194.9 322.136C194.123 322.547 193.111 322.752 191.864 322.752H188.784V329H186.584ZM188.784 320.926H191.776C192.92 320.926 193.734 320.684 194.218 320.2C194.717 319.701 194.966 319.027 194.966 318.176C194.966 317.311 194.717 316.636 194.218 316.152C193.734 315.668 192.92 315.426 191.776 315.426H188.784V320.926ZM201.885 329.264C200.961 329.264 200.198 329.11 199.597 328.802C198.996 328.494 198.548 328.091 198.255 327.592C197.962 327.079 197.815 326.521 197.815 325.92C197.815 325.187 197.998 324.563 198.365 324.05C198.746 323.537 199.289 323.141 199.993 322.862C200.712 322.583 201.57 322.444 202.567 322.444H205.449C205.449 321.813 205.346 321.293 205.141 320.882C204.95 320.457 204.664 320.141 204.283 319.936C203.902 319.731 203.44 319.628 202.897 319.628C202.222 319.628 201.643 319.789 201.159 320.112C200.675 320.435 200.382 320.911 200.279 321.542H198.057C198.145 320.75 198.416 320.075 198.871 319.518C199.326 318.961 199.905 318.535 200.609 318.242C201.328 317.934 202.09 317.78 202.897 317.78C203.924 317.78 204.789 317.963 205.493 318.33C206.197 318.697 206.732 319.217 207.099 319.892C207.466 320.552 207.649 321.344 207.649 322.268V329H205.735L205.559 327.13C205.412 327.423 205.222 327.702 204.987 327.966C204.767 328.23 204.503 328.457 204.195 328.648C203.902 328.839 203.557 328.985 203.161 329.088C202.78 329.205 202.354 329.264 201.885 329.264ZM202.303 327.482C202.787 327.482 203.22 327.387 203.601 327.196C203.982 327.005 204.305 326.749 204.569 326.426C204.833 326.089 205.031 325.715 205.163 325.304C205.31 324.893 205.39 324.468 205.405 324.028V324.006H202.787C202.142 324.006 201.621 324.087 201.225 324.248C200.844 324.395 200.565 324.6 200.389 324.864C200.213 325.128 200.125 325.429 200.125 325.766C200.125 326.118 200.206 326.426 200.367 326.69C200.543 326.939 200.792 327.137 201.115 327.284C201.452 327.416 201.848 327.482 202.303 327.482ZM214.044 329.264C213.135 329.264 212.328 329.11 211.624 328.802C210.92 328.494 210.355 328.061 209.93 327.504C209.505 326.947 209.248 326.301 209.16 325.568H211.382C211.47 325.92 211.624 326.243 211.844 326.536C212.064 326.815 212.357 327.042 212.724 327.218C213.091 327.394 213.531 327.482 214.044 327.482C214.528 327.482 214.924 327.416 215.232 327.284C215.54 327.137 215.767 326.947 215.914 326.712C216.061 326.477 216.134 326.228 216.134 325.964C216.134 325.568 216.031 325.267 215.826 325.062C215.635 324.842 215.342 324.673 214.946 324.556C214.565 324.439 214.103 324.321 213.56 324.204C213.091 324.101 212.621 323.977 212.152 323.83C211.683 323.683 211.257 323.5 210.876 323.28C210.495 323.045 210.187 322.752 209.952 322.4C209.732 322.048 209.622 321.615 209.622 321.102C209.622 320.471 209.783 319.907 210.106 319.408C210.443 318.909 210.92 318.513 211.536 318.22C212.152 317.927 212.885 317.78 213.736 317.78C214.953 317.78 215.936 318.073 216.684 318.66C217.432 319.247 217.872 320.075 218.004 321.146H215.87C215.811 320.662 215.591 320.281 215.21 320.002C214.843 319.723 214.345 319.584 213.714 319.584C213.098 319.584 212.621 319.709 212.284 319.958C211.961 320.207 211.8 320.53 211.8 320.926C211.8 321.19 211.895 321.425 212.086 321.63C212.291 321.821 212.577 321.982 212.944 322.114C213.325 322.246 213.773 322.371 214.286 322.488C215.019 322.649 215.687 322.84 216.288 323.06C216.904 323.265 217.403 323.581 217.784 324.006C218.18 324.417 218.378 325.018 218.378 325.81C218.393 326.485 218.217 327.086 217.85 327.614C217.498 328.127 216.999 328.531 216.354 328.824C215.709 329.117 214.939 329.264 214.044 329.264ZM224.599 329.264C223.69 329.264 222.883 329.11 222.179 328.802C221.475 328.494 220.91 328.061 220.485 327.504C220.06 326.947 219.803 326.301 219.715 325.568H221.937C222.025 325.92 222.179 326.243 222.399 326.536C222.619 326.815 222.912 327.042 223.279 327.218C223.646 327.394 224.086 327.482 224.599 327.482C225.083 327.482 225.479 327.416 225.787 327.284C226.095 327.137 226.322 326.947 226.469 326.712C226.616 326.477 226.689 326.228 226.689 325.964C226.689 325.568 226.586 325.267 226.381 325.062C226.19 324.842 225.897 324.673 225.501 324.556C225.12 324.439 224.658 324.321 224.115 324.204C223.646 324.101 223.176 323.977 222.707 323.83C222.238 323.683 221.812 323.5 221.431 323.28C221.05 323.045 220.742 322.752 220.507 322.4C220.287 322.048 220.177 321.615 220.177 321.102C220.177 320.471 220.338 319.907 220.661 319.408C220.998 318.909 221.475 318.513 222.091 318.22C222.707 317.927 223.44 317.78 224.291 317.78C225.508 317.78 226.491 318.073 227.239 318.66C227.987 319.247 228.427 320.075 228.559 321.146H226.425C226.366 320.662 226.146 320.281 225.765 320.002C225.398 319.723 224.9 319.584 224.269 319.584C223.653 319.584 223.176 319.709 222.839 319.958C222.516 320.207 222.355 320.53 222.355 320.926C222.355 321.19 222.45 321.425 222.641 321.63C222.846 321.821 223.132 321.982 223.499 322.114C223.88 322.246 224.328 322.371 224.841 322.488C225.574 322.649 226.242 322.84 226.843 323.06C227.459 323.265 227.958 323.581 228.339 324.006C228.735 324.417 228.933 325.018 228.933 325.81C228.948 326.485 228.772 327.086 228.405 327.614C228.053 328.127 227.554 328.531 226.909 328.824C226.264 329.117 225.494 329.264 224.599 329.264ZM235.613 329V327.416C236.625 326.624 237.586 325.825 238.495 325.018C239.405 324.211 240.219 323.412 240.937 322.62C241.671 321.813 242.243 321.029 242.653 320.266C243.064 319.489 243.269 318.748 243.269 318.044C243.269 317.545 243.181 317.083 243.005 316.658C242.829 316.233 242.551 315.888 242.169 315.624C241.803 315.345 241.297 315.206 240.651 315.206C240.021 315.206 239.493 315.345 239.067 315.624C238.657 315.903 238.341 316.277 238.121 316.746C237.916 317.201 237.813 317.707 237.813 318.264H235.679C235.709 317.208 235.936 316.313 236.361 315.58C236.801 314.847 237.395 314.289 238.143 313.908C238.891 313.527 239.742 313.336 240.695 313.336C241.663 313.336 242.499 313.519 243.203 313.886C243.922 314.238 244.479 314.759 244.875 315.448C245.271 316.123 245.469 316.951 245.469 317.934C245.469 318.638 245.33 319.342 245.051 320.046C244.773 320.735 244.391 321.41 243.907 322.07C243.438 322.73 242.91 323.368 242.323 323.984C241.751 324.585 241.157 325.157 240.541 325.7C239.925 326.243 239.339 326.734 238.781 327.174H245.953V329H235.613ZM253.773 329.264C252.394 329.264 251.206 328.934 250.209 328.274C249.211 327.599 248.441 326.668 247.899 325.48C247.371 324.277 247.107 322.884 247.107 321.3C247.107 319.716 247.371 318.33 247.899 317.142C248.441 315.939 249.211 315.008 250.209 314.348C251.206 313.673 252.394 313.336 253.773 313.336C255.166 313.336 256.354 313.673 257.337 314.348C258.319 315.008 259.075 315.939 259.603 317.142C260.145 318.33 260.417 319.716 260.417 321.3C260.417 322.884 260.145 324.277 259.603 325.48C259.075 326.668 258.319 327.599 257.337 328.274C256.354 328.934 255.166 329.264 253.773 329.264ZM253.773 327.306C254.623 327.306 255.379 327.064 256.039 326.58C256.699 326.096 257.219 325.407 257.601 324.512C257.982 323.617 258.173 322.547 258.173 321.3C258.173 320.053 257.982 318.983 257.601 318.088C257.219 317.193 256.699 316.511 256.039 316.042C255.379 315.558 254.623 315.316 253.773 315.316C252.922 315.316 252.159 315.558 251.485 316.042C250.825 316.511 250.304 317.193 249.923 318.088C249.556 318.983 249.373 320.053 249.373 321.3C249.373 322.547 249.556 323.617 249.923 324.512C250.304 325.407 250.825 326.096 251.485 326.58C252.159 327.064 252.922 327.306 253.773 327.306ZM264.119 329L272.985 313.6H275.163L266.297 329H264.119ZM274.151 329.264C273.476 329.264 272.867 329.11 272.325 328.802C271.782 328.494 271.342 328.061 271.005 327.504C270.682 326.932 270.521 326.265 270.521 325.502C270.521 324.71 270.682 324.035 271.005 323.478C271.342 322.921 271.782 322.488 272.325 322.18C272.867 321.872 273.476 321.718 274.151 321.718C274.84 321.718 275.449 321.872 275.977 322.18C276.519 322.488 276.945 322.921 277.253 323.478C277.575 324.035 277.737 324.71 277.737 325.502C277.737 326.265 277.575 326.932 277.253 327.504C276.945 328.061 276.519 328.494 275.977 328.802C275.434 329.11 274.825 329.264 274.151 329.264ZM274.129 327.636C274.466 327.636 274.767 327.555 275.031 327.394C275.309 327.233 275.529 326.998 275.691 326.69C275.852 326.367 275.933 325.964 275.933 325.48C275.933 324.996 275.852 324.6 275.691 324.292C275.529 323.969 275.309 323.727 275.031 323.566C274.767 323.405 274.473 323.324 274.151 323.324C273.828 323.324 273.527 323.405 273.249 323.566C272.97 323.727 272.743 323.969 272.567 324.292C272.405 324.6 272.325 324.996 272.325 325.48C272.325 325.964 272.405 326.367 272.567 326.69C272.743 326.998 272.963 327.233 273.227 327.394C273.505 327.555 273.806 327.636 274.129 327.636ZM265.285 320.904C264.61 320.904 263.994 320.75 263.437 320.442C262.894 320.134 262.461 319.701 262.139 319.144C261.816 318.572 261.655 317.897 261.655 317.12C261.655 316.343 261.816 315.675 262.139 315.118C262.461 314.561 262.894 314.128 263.437 313.82C263.994 313.512 264.617 313.358 265.307 313.358C265.981 313.358 266.59 313.512 267.133 313.82C267.675 314.128 268.101 314.561 268.409 315.118C268.731 315.675 268.893 316.343 268.893 317.12C268.893 317.897 268.731 318.572 268.409 319.144C268.101 319.701 267.668 320.134 267.111 320.442C266.568 320.75 265.959 320.904 265.285 320.904ZM265.285 319.276C265.607 319.276 265.901 319.195 266.165 319.034C266.443 318.873 266.663 318.638 266.825 318.33C266.986 318.007 267.067 317.604 267.067 317.12C267.067 316.636 266.986 316.233 266.825 315.91C266.663 315.587 266.443 315.345 266.165 315.184C265.901 315.023 265.607 314.942 265.285 314.942C264.977 314.942 264.676 315.023 264.383 315.184C264.104 315.345 263.877 315.587 263.701 315.91C263.539 316.233 263.459 316.636 263.459 317.12C263.459 317.589 263.539 317.985 263.701 318.308C263.877 318.631 264.104 318.873 264.383 319.034C264.661 319.195 264.962 319.276 265.285 319.276Z" fill="black"/>
</svg>
