<svg width="63" height="66" viewBox="0 0 63 66" fill="none" xmlns="http://www.w3.org/2000/svg">
<path fill-rule="evenodd" clip-rule="evenodd" d="M2.28125 24.3333C1.67622 24.3333 1.09598 24.5736 0.668162 25.0014C0.240345 25.4292 0 26.0095 0 26.6145V53.9895C0 56.2079 0.881266 58.3355 2.44993 59.9042C4.01859 61.4728 6.14616 62.3541 8.36458 62.3541H37.4673L36.9836 61.8705C35.7002 60.587 34.9791 58.8463 34.9791 57.0312C34.9791 55.2161 35.7002 53.4753 36.9836 52.1919C38.2671 50.9084 40.0078 50.1874 41.8229 50.1874C43.638 50.1874 45.3787 50.9084 46.6622 52.1919L47.9093 53.4359L55.2336 46.1085C56.33 45.0089 57.769 44.3167 59.3125 44.1467V26.6145C59.3125 26.0095 59.0722 25.4292 58.6443 25.0014C58.2165 24.5736 57.6363 24.3333 57.0313 24.3333H2.28125Z" fill="white"/>
<path fill-rule="evenodd" clip-rule="evenodd" d="M14.4479 0C15.0529 0 15.6332 0.240345 16.061 0.668163C16.4888 1.09598 16.7292 1.67622 16.7292 2.28125V14.4479C16.7292 15.0529 16.4888 15.6332 16.061 16.061C15.6332 16.4888 15.0529 16.7292 14.4479 16.7292C13.8429 16.7292 13.2626 16.4888 12.8348 16.061C12.407 15.6332 12.1667 15.0529 12.1667 14.4479V10.6458H8.36458C6.26583 10.6458 4.5625 12.3492 4.5625 14.4479V26.6146C4.5625 27.2196 4.32216 27.7999 3.89434 28.2277C3.46652 28.6555 2.88628 28.8958 2.28125 28.8958C1.67622 28.8958 1.09598 28.6555 0.668162 28.2277C0.240345 27.7999 0 27.2196 0 26.6146V14.4479C0 12.2295 0.881266 10.1019 2.44993 8.53326C4.01859 6.9646 6.14616 6.08333 8.36458 6.08333H12.1667V2.28125C12.1667 1.67622 12.407 1.09598 12.8348 0.668163C13.2626 0.240345 13.8429 0 14.4479 0ZM38.7813 0C39.3863 0 39.9665 0.240345 40.3943 0.668163C40.8222 1.09598 41.0625 1.67622 41.0625 2.28125V14.4479C41.0625 15.0529 40.8222 15.6332 40.3943 16.061C39.9665 16.4888 39.3863 16.7292 38.7813 16.7292C38.1762 16.7292 37.596 16.4888 37.1682 16.061C36.7403 15.6332 36.5 15.0529 36.5 14.4479V10.6458H25.0938C24.4887 10.6458 23.9085 10.4055 23.4807 9.97767C23.0528 9.54985 22.8125 8.96961 22.8125 8.36458C22.8125 7.75956 23.0528 7.17931 23.4807 6.7515C23.9085 6.32368 24.4887 6.08333 25.0938 6.08333H36.5V2.28125C36.5 1.67622 36.7403 1.09598 37.1682 0.668163C37.596 0.240345 38.1762 0 38.7813 0ZM47.1458 8.36458C47.1458 7.75956 47.3862 7.17931 47.814 6.7515C48.2418 6.32368 48.8221 6.08333 49.4271 6.08333H50.9479C53.1663 6.08333 55.2939 6.9646 56.8626 8.53326C58.4312 10.1019 59.3125 12.2295 59.3125 14.4479V26.6146C59.3125 27.2196 59.0722 27.7999 58.6443 28.2277C58.2165 28.6555 57.6363 28.8958 57.0313 28.8958C56.4262 28.8958 55.846 28.6555 55.4182 28.2277C54.9903 27.7999 54.75 27.2196 54.75 26.6146V14.4479C54.75 12.3492 53.0467 10.6458 50.9479 10.6458H49.4271C48.8221 10.6458 48.2418 10.4055 47.814 9.97767C47.3862 9.54985 47.1458 8.96961 47.1458 8.36458ZM40.2108 55.4192C40.6386 54.992 41.2184 54.752 41.8229 54.752C42.4275 54.752 43.0073 54.992 43.435 55.4192L47.9063 59.8904L58.4608 49.3358C58.6697 49.1117 58.9215 48.9319 59.2014 48.8073C59.4812 48.6826 59.7833 48.6155 60.0896 48.6101C60.3959 48.6047 60.7001 48.6611 60.9842 48.7758C61.2682 48.8905 61.5263 49.0613 61.7429 49.2779C61.9595 49.4946 62.1303 49.7526 62.245 50.0366C62.3598 50.3207 62.4161 50.625 62.4107 50.9313C62.4053 51.2376 62.3383 51.5396 62.2136 51.8195C62.0889 52.0993 61.9091 52.3512 61.685 52.56L49.5183 64.7267C49.0906 65.1539 48.5108 65.3938 47.9063 65.3938C47.3017 65.3938 46.7219 65.1539 46.2942 64.7267L40.2108 58.6433C39.7836 58.2156 39.5437 57.6358 39.5437 57.0313C39.5437 56.4267 39.7836 55.8469 40.2108 55.4192Z" fill="white"/>
</svg>
