<svg width="263" height="223" viewBox="0 0 263 223" fill="none" xmlns="http://www.w3.org/2000/svg">
<path d="M98.1523 48.2568L57.2012 161H40.4639L87.6172 37.2969H98.4072L98.1523 48.2568ZM132.477 161L91.4404 48.2568L91.1855 37.2969H101.976L149.299 161H132.477ZM130.353 115.206V128.63H60.8545V115.206H130.353ZM217.692 145.282V97.959C217.692 94.334 216.956 91.1904 215.483 88.5283C214.067 85.8096 211.915 83.7139 209.026 82.2412C206.138 80.7686 202.569 80.0322 198.321 80.0322C194.356 80.0322 190.873 80.7119 187.871 82.0713C184.926 83.4307 182.604 85.2148 180.904 87.4238C179.262 89.6328 178.44 92.0117 178.44 94.5605H162.723C162.723 91.2754 163.572 88.0186 165.271 84.79C166.971 81.5615 169.406 78.6445 172.578 76.0391C175.807 73.377 179.658 71.2812 184.133 69.752C188.664 68.166 193.705 67.373 199.256 67.373C205.939 67.373 211.83 68.5059 216.928 70.7715C222.082 73.0371 226.104 76.4639 228.992 81.0518C231.938 85.583 233.41 91.2754 233.41 98.1289V140.949C233.41 144.008 233.665 147.265 234.175 150.72C234.741 154.175 235.562 157.148 236.639 159.641V161H220.241C219.448 159.188 218.825 156.78 218.372 153.778C217.919 150.72 217.692 147.888 217.692 145.282ZM220.411 105.266L220.581 116.311H204.693C200.219 116.311 196.226 116.679 192.714 117.415C189.202 118.095 186.257 119.143 183.878 120.559C181.499 121.975 179.687 123.759 178.44 125.911C177.194 128.007 176.571 130.471 176.571 133.303C176.571 136.191 177.223 138.825 178.525 141.204C179.828 143.583 181.782 145.48 184.388 146.896C187.05 148.256 190.307 148.936 194.158 148.936C198.973 148.936 203.221 147.916 206.902 145.877C210.584 143.838 213.501 141.346 215.653 138.4C217.862 135.455 219.052 132.595 219.222 129.819L225.934 137.381C225.537 139.76 224.461 142.394 222.705 145.282C220.949 148.171 218.599 150.946 215.653 153.608C212.765 156.214 209.31 158.395 205.288 160.15C201.323 161.85 196.849 162.699 191.864 162.699C185.634 162.699 180.168 161.481 175.467 159.046C170.822 156.61 167.197 153.354 164.592 149.275C162.043 145.141 160.769 140.524 160.769 135.427C160.769 130.499 161.731 126.166 163.657 122.428C165.583 118.633 168.358 115.489 171.983 112.997C175.608 110.448 179.97 108.522 185.067 107.22C190.165 105.917 195.857 105.266 202.145 105.266H220.411Z" fill="black"/>
<rect y="132" width="76" height="76" rx="38" fill="#00A19B"/>
<path d="M51.2256 134.003C56.2255 135.774 60.7439 138.561 64.5332 142.117L57.7373 160.829H41L51.2256 134.003Z" fill="white"/>
<path d="M109.125 192.25H116.656C118.365 192.25 119.807 192.51 120.984 193.031C122.172 193.552 123.073 194.323 123.688 195.344C124.312 196.354 124.625 197.599 124.625 199.078C124.625 200.12 124.411 201.073 123.984 201.938C123.568 202.792 122.964 203.521 122.172 204.125C121.391 204.719 120.453 205.161 119.359 205.453L118.516 205.781H111.438L111.406 203.328H116.75C117.833 203.328 118.734 203.141 119.453 202.766C120.172 202.38 120.714 201.865 121.078 201.219C121.443 200.573 121.625 199.859 121.625 199.078C121.625 198.203 121.453 197.438 121.109 196.781C120.766 196.125 120.224 195.62 119.484 195.266C118.755 194.901 117.812 194.719 116.656 194.719H112.141V215H109.125V192.25ZM122.422 215L116.891 204.688L120.031 204.672L125.641 214.812V215H122.422ZM127.641 206.734V206.375C127.641 205.156 127.818 204.026 128.172 202.984C128.526 201.932 129.036 201.021 129.703 200.25C130.37 199.469 131.177 198.865 132.125 198.438C133.073 198 134.135 197.781 135.312 197.781C136.5 197.781 137.568 198 138.516 198.438C139.474 198.865 140.286 199.469 140.953 200.25C141.63 201.021 142.146 201.932 142.5 202.984C142.854 204.026 143.031 205.156 143.031 206.375V206.734C143.031 207.953 142.854 209.083 142.5 210.125C142.146 211.167 141.63 212.078 140.953 212.859C140.286 213.63 139.479 214.234 138.531 214.672C137.594 215.099 136.531 215.312 135.344 215.312C134.156 215.312 133.089 215.099 132.141 214.672C131.193 214.234 130.38 213.63 129.703 212.859C129.036 212.078 128.526 211.167 128.172 210.125C127.818 209.083 127.641 207.953 127.641 206.734ZM130.531 206.375V206.734C130.531 207.578 130.63 208.375 130.828 209.125C131.026 209.865 131.323 210.521 131.719 211.094C132.125 211.667 132.63 212.12 133.234 212.453C133.839 212.776 134.542 212.938 135.344 212.938C136.135 212.938 136.828 212.776 137.422 212.453C138.026 212.12 138.526 211.667 138.922 211.094C139.318 210.521 139.615 209.865 139.812 209.125C140.021 208.375 140.125 207.578 140.125 206.734V206.375C140.125 205.542 140.021 204.755 139.812 204.016C139.615 203.266 139.312 202.604 138.906 202.031C138.51 201.448 138.01 200.99 137.406 200.656C136.812 200.323 136.115 200.156 135.312 200.156C134.521 200.156 133.823 200.323 133.219 200.656C132.625 200.99 132.125 201.448 131.719 202.031C131.323 202.604 131.026 203.266 130.828 204.016C130.63 204.755 130.531 205.542 130.531 206.375ZM146.641 191H149.547V211.719L149.297 215H146.641V191ZM160.969 206.406V206.734C160.969 207.964 160.823 209.104 160.531 210.156C160.24 211.198 159.812 212.104 159.25 212.875C158.688 213.646 158 214.245 157.188 214.672C156.375 215.099 155.443 215.312 154.391 215.312C153.318 215.312 152.375 215.13 151.562 214.766C150.76 214.391 150.083 213.854 149.531 213.156C148.979 212.458 148.536 211.615 148.203 210.625C147.88 209.635 147.656 208.521 147.531 207.281V205.844C147.656 204.594 147.88 203.474 148.203 202.484C148.536 201.495 148.979 200.651 149.531 199.953C150.083 199.245 150.76 198.708 151.562 198.344C152.365 197.969 153.297 197.781 154.359 197.781C155.422 197.781 156.365 197.99 157.188 198.406C158.01 198.812 158.698 199.396 159.25 200.156C159.812 200.917 160.24 201.828 160.531 202.891C160.823 203.943 160.969 205.115 160.969 206.406ZM158.062 206.734V206.406C158.062 205.562 157.984 204.771 157.828 204.031C157.672 203.281 157.422 202.625 157.078 202.062C156.734 201.49 156.281 201.042 155.719 200.719C155.156 200.385 154.464 200.219 153.641 200.219C152.911 200.219 152.276 200.344 151.734 200.594C151.203 200.844 150.75 201.182 150.375 201.609C150 202.026 149.693 202.505 149.453 203.047C149.224 203.578 149.052 204.13 148.938 204.703V208.469C149.104 209.198 149.375 209.901 149.75 210.578C150.135 211.245 150.646 211.792 151.281 212.219C151.927 212.646 152.724 212.859 153.672 212.859C154.453 212.859 155.12 212.703 155.672 212.391C156.234 212.068 156.688 211.625 157.031 211.062C157.385 210.5 157.646 209.849 157.812 209.109C157.979 208.37 158.062 207.578 158.062 206.734ZM164.609 191H167.516V211.719L167.266 215H164.609V191ZM178.938 206.406V206.734C178.938 207.964 178.792 209.104 178.5 210.156C178.208 211.198 177.781 212.104 177.219 212.875C176.656 213.646 175.969 214.245 175.156 214.672C174.344 215.099 173.411 215.312 172.359 215.312C171.286 215.312 170.344 215.13 169.531 214.766C168.729 214.391 168.052 213.854 167.5 213.156C166.948 212.458 166.505 211.615 166.172 210.625C165.849 209.635 165.625 208.521 165.5 207.281V205.844C165.625 204.594 165.849 203.474 166.172 202.484C166.505 201.495 166.948 200.651 167.5 199.953C168.052 199.245 168.729 198.708 169.531 198.344C170.333 197.969 171.266 197.781 172.328 197.781C173.391 197.781 174.333 197.99 175.156 198.406C175.979 198.812 176.667 199.396 177.219 200.156C177.781 200.917 178.208 201.828 178.5 202.891C178.792 203.943 178.938 205.115 178.938 206.406ZM176.031 206.734V206.406C176.031 205.562 175.953 204.771 175.797 204.031C175.641 203.281 175.391 202.625 175.047 202.062C174.703 201.49 174.25 201.042 173.688 200.719C173.125 200.385 172.432 200.219 171.609 200.219C170.88 200.219 170.245 200.344 169.703 200.594C169.172 200.844 168.719 201.182 168.344 201.609C167.969 202.026 167.661 202.505 167.422 203.047C167.193 203.578 167.021 204.13 166.906 204.703V208.469C167.073 209.198 167.344 209.901 167.719 210.578C168.104 211.245 168.615 211.792 169.25 212.219C169.896 212.646 170.693 212.859 171.641 212.859C172.422 212.859 173.089 212.703 173.641 212.391C174.203 212.068 174.656 211.625 175 211.062C175.354 210.5 175.615 209.849 175.781 209.109C175.948 208.37 176.031 207.578 176.031 206.734ZM181.828 206.734V206.375C181.828 205.156 182.005 204.026 182.359 202.984C182.714 201.932 183.224 201.021 183.891 200.25C184.557 199.469 185.365 198.865 186.312 198.438C187.26 198 188.323 197.781 189.5 197.781C190.688 197.781 191.755 198 192.703 198.438C193.661 198.865 194.474 199.469 195.141 200.25C195.818 201.021 196.333 201.932 196.688 202.984C197.042 204.026 197.219 205.156 197.219 206.375V206.734C197.219 207.953 197.042 209.083 196.688 210.125C196.333 211.167 195.818 212.078 195.141 212.859C194.474 213.63 193.667 214.234 192.719 214.672C191.781 215.099 190.719 215.312 189.531 215.312C188.344 215.312 187.276 215.099 186.328 214.672C185.38 214.234 184.568 213.63 183.891 212.859C183.224 212.078 182.714 211.167 182.359 210.125C182.005 209.083 181.828 207.953 181.828 206.734ZM184.719 206.375V206.734C184.719 207.578 184.818 208.375 185.016 209.125C185.214 209.865 185.51 210.521 185.906 211.094C186.312 211.667 186.818 212.12 187.422 212.453C188.026 212.776 188.729 212.938 189.531 212.938C190.323 212.938 191.016 212.776 191.609 212.453C192.214 212.12 192.714 211.667 193.109 211.094C193.505 210.521 193.802 209.865 194 209.125C194.208 208.375 194.312 207.578 194.312 206.734V206.375C194.312 205.542 194.208 204.755 194 204.016C193.802 203.266 193.5 202.604 193.094 202.031C192.698 201.448 192.198 200.99 191.594 200.656C191 200.323 190.302 200.156 189.5 200.156C188.708 200.156 188.01 200.323 187.406 200.656C186.812 200.99 186.312 201.448 185.906 202.031C185.51 202.604 185.214 203.266 185.016 204.016C184.818 204.755 184.719 205.542 184.719 206.375ZM207.922 198.094V200.312H198.781V198.094H207.922ZM201.875 193.984H204.766V210.812C204.766 211.385 204.854 211.818 205.031 212.109C205.208 212.401 205.438 212.594 205.719 212.688C206 212.781 206.302 212.828 206.625 212.828C206.865 212.828 207.115 212.807 207.375 212.766C207.646 212.714 207.849 212.672 207.984 212.641L208 215C207.771 215.073 207.469 215.141 207.094 215.203C206.729 215.276 206.286 215.312 205.766 215.312C205.057 215.312 204.406 215.172 203.812 214.891C203.219 214.609 202.745 214.141 202.391 213.484C202.047 212.818 201.875 211.922 201.875 210.797V193.984ZM218.391 198.094V200.312H209.25V198.094H218.391ZM212.344 193.984H215.234V210.812C215.234 211.385 215.323 211.818 215.5 212.109C215.677 212.401 215.906 212.594 216.188 212.688C216.469 212.781 216.771 212.828 217.094 212.828C217.333 212.828 217.583 212.807 217.844 212.766C218.115 212.714 218.318 212.672 218.453 212.641L218.469 215C218.24 215.073 217.938 215.141 217.562 215.203C217.198 215.276 216.755 215.312 216.234 215.312C215.526 215.312 214.875 215.172 214.281 214.891C213.688 214.609 213.214 214.141 212.859 213.484C212.516 212.818 212.344 211.922 212.344 210.797V193.984ZM220.703 206.734V206.375C220.703 205.156 220.88 204.026 221.234 202.984C221.589 201.932 222.099 201.021 222.766 200.25C223.432 199.469 224.24 198.865 225.188 198.438C226.135 198 227.198 197.781 228.375 197.781C229.562 197.781 230.63 198 231.578 198.438C232.536 198.865 233.349 199.469 234.016 200.25C234.693 201.021 235.208 201.932 235.562 202.984C235.917 204.026 236.094 205.156 236.094 206.375V206.734C236.094 207.953 235.917 209.083 235.562 210.125C235.208 211.167 234.693 212.078 234.016 212.859C233.349 213.63 232.542 214.234 231.594 214.672C230.656 215.099 229.594 215.312 228.406 215.312C227.219 215.312 226.151 215.099 225.203 214.672C224.255 214.234 223.443 213.63 222.766 212.859C222.099 212.078 221.589 211.167 221.234 210.125C220.88 209.083 220.703 207.953 220.703 206.734ZM223.594 206.375V206.734C223.594 207.578 223.693 208.375 223.891 209.125C224.089 209.865 224.385 210.521 224.781 211.094C225.188 211.667 225.693 212.12 226.297 212.453C226.901 212.776 227.604 212.938 228.406 212.938C229.198 212.938 229.891 212.776 230.484 212.453C231.089 212.12 231.589 211.667 231.984 211.094C232.38 210.521 232.677 209.865 232.875 209.125C233.083 208.375 233.188 207.578 233.188 206.734V206.375C233.188 205.542 233.083 204.755 232.875 204.016C232.677 203.266 232.375 202.604 231.969 202.031C231.573 201.448 231.073 200.99 230.469 200.656C229.875 200.323 229.177 200.156 228.375 200.156C227.583 200.156 226.885 200.323 226.281 200.656C225.688 200.99 225.188 201.448 224.781 202.031C224.385 202.604 224.089 203.266 223.891 204.016C223.693 204.755 223.594 205.542 223.594 206.375Z" fill="black"/>
</svg>
