<svg width="309" height="154" viewBox="0 0 309 154" fill="none" xmlns="http://www.w3.org/2000/svg">
<path d="M50.4853 58C59.353 58 66.5354 50.84 66.5354 42C66.5354 33.16 59.353 26 50.4853 26C41.6177 26 34.4352 33.16 34.4352 42C34.4352 50.84 41.6177 58 50.4853 58ZM76.1254 68.24C69.3843 64.8 60.637 62 50.4853 62C40.3336 62 31.5863 64.8 24.8453 68.24C20.8328 70.28 18.3851 74.4 18.3851 78.88V90H82.5855V78.88C82.5855 74.4 80.1379 70.28 76.1254 68.24Z" fill="#3C4043"/>
<path d="M15.4258 103.938V121H13.1523L4.5625 107.84V121H2.30078V103.938H4.5625L13.1875 117.133V103.938H15.4258ZM24.3672 121.234C23.4844 121.234 22.6836 121.086 21.9648 120.789C21.2539 120.484 20.6406 120.059 20.125 119.512C19.6172 118.965 19.2266 118.316 18.9531 117.566C18.6797 116.816 18.543 115.996 18.543 115.105V114.613C18.543 113.582 18.6953 112.664 19 111.859C19.3047 111.047 19.7188 110.359 20.2422 109.797C20.7656 109.234 21.3594 108.809 22.0234 108.52C22.6875 108.23 23.375 108.086 24.0859 108.086C24.9922 108.086 25.7734 108.242 26.4297 108.555C27.0938 108.867 27.6367 109.305 28.0586 109.867C28.4805 110.422 28.793 111.078 28.9961 111.836C29.1992 112.586 29.3008 113.406 29.3008 114.297V115.27H19.832V113.5H27.1328V113.336C27.1016 112.773 26.9844 112.227 26.7812 111.695C26.5859 111.164 26.2734 110.727 25.8438 110.383C25.4141 110.039 24.8281 109.867 24.0859 109.867C23.5938 109.867 23.1406 109.973 22.7266 110.184C22.3125 110.387 21.957 110.691 21.6602 111.098C21.3633 111.504 21.1328 112 20.9688 112.586C20.8047 113.172 20.7227 113.848 20.7227 114.613V115.105C20.7227 115.707 20.8047 116.273 20.9688 116.805C21.1406 117.328 21.3867 117.789 21.707 118.188C22.0352 118.586 22.4297 118.898 22.8906 119.125C23.3594 119.352 23.8906 119.465 24.4844 119.465C25.25 119.465 25.8984 119.309 26.4297 118.996C26.9609 118.684 27.4258 118.266 27.8242 117.742L29.1367 118.785C28.8633 119.199 28.5156 119.594 28.0938 119.969C27.6719 120.344 27.1523 120.648 26.5352 120.883C25.9258 121.117 25.2031 121.234 24.3672 121.234ZM35.043 118.75L38.3008 108.32H39.7305L39.4492 110.395L36.1328 121H34.7383L35.043 118.75ZM32.8516 108.32L35.6289 118.867L35.8281 121H34.3633L30.6836 108.32H32.8516ZM42.8477 118.785L45.4961 108.32H47.6523L43.9727 121H42.5195L42.8477 118.785ZM40.0469 108.32L43.2344 118.574L43.5977 121H42.2148L38.8047 110.371L38.5234 108.32H40.0469ZM63.5898 118.07V108.32H65.7695V121H63.6953L63.5898 118.07ZM64 115.398L64.9023 115.375C64.9023 116.219 64.8125 117 64.6328 117.719C64.4609 118.43 64.1797 119.047 63.7891 119.57C63.3984 120.094 62.8867 120.504 62.2539 120.801C61.6211 121.09 60.8516 121.234 59.9453 121.234C59.3281 121.234 58.7617 121.145 58.2461 120.965C57.7383 120.785 57.3008 120.508 56.9336 120.133C56.5664 119.758 56.2812 119.27 56.0781 118.668C55.8828 118.066 55.7852 117.344 55.7852 116.5V108.32H57.9531V116.523C57.9531 117.094 58.0156 117.566 58.1406 117.941C58.2734 118.309 58.4492 118.602 58.668 118.82C58.8945 119.031 59.1445 119.18 59.418 119.266C59.6992 119.352 59.9883 119.395 60.2852 119.395C61.207 119.395 61.9375 119.219 62.4766 118.867C63.0156 118.508 63.4023 118.027 63.6367 117.426C63.8789 116.816 64 116.141 64 115.398ZM76.457 117.637C76.457 117.324 76.3867 117.035 76.2461 116.77C76.1133 116.496 75.8359 116.25 75.4141 116.031C75 115.805 74.375 115.609 73.5391 115.445C72.8359 115.297 72.1992 115.121 71.6289 114.918C71.0664 114.715 70.5859 114.469 70.1875 114.18C69.7969 113.891 69.4961 113.551 69.2852 113.16C69.0742 112.77 68.9688 112.312 68.9688 111.789C68.9688 111.289 69.0781 110.816 69.2969 110.371C69.5234 109.926 69.8398 109.531 70.2461 109.188C70.6602 108.844 71.1562 108.574 71.7344 108.379C72.3125 108.184 72.957 108.086 73.668 108.086C74.6836 108.086 75.5508 108.266 76.2695 108.625C76.9883 108.984 77.5391 109.465 77.9219 110.066C78.3047 110.66 78.4961 111.32 78.4961 112.047H76.3281C76.3281 111.695 76.2227 111.355 76.0117 111.027C75.8086 110.691 75.5078 110.414 75.1094 110.195C74.7188 109.977 74.2383 109.867 73.668 109.867C73.0664 109.867 72.5781 109.961 72.2031 110.148C71.8359 110.328 71.5664 110.559 71.3945 110.84C71.2305 111.121 71.1484 111.418 71.1484 111.73C71.1484 111.965 71.1875 112.176 71.2656 112.363C71.3516 112.543 71.5 112.711 71.7109 112.867C71.9219 113.016 72.2188 113.156 72.6016 113.289C72.9844 113.422 73.4727 113.555 74.0664 113.688C75.1055 113.922 75.9609 114.203 76.6328 114.531C77.3047 114.859 77.8047 115.262 78.1328 115.738C78.4609 116.215 78.625 116.793 78.625 117.473C78.625 118.027 78.5078 118.535 78.2734 118.996C78.0469 119.457 77.7148 119.855 77.2773 120.191C76.8477 120.52 76.332 120.777 75.7305 120.965C75.1367 121.145 74.4688 121.234 73.7266 121.234C72.6094 121.234 71.6641 121.035 70.8906 120.637C70.1172 120.238 69.5312 119.723 69.1328 119.09C68.7344 118.457 68.5352 117.789 68.5352 117.086H70.7148C70.7461 117.68 70.918 118.152 71.2305 118.504C71.543 118.848 71.9258 119.094 72.3789 119.242C72.832 119.383 73.2812 119.453 73.7266 119.453C74.3203 119.453 74.8164 119.375 75.2148 119.219C75.6211 119.062 75.9297 118.848 76.1406 118.574C76.3516 118.301 76.457 117.988 76.457 117.637ZM86.7344 121.234C85.8516 121.234 85.0508 121.086 84.332 120.789C83.6211 120.484 83.0078 120.059 82.4922 119.512C81.9844 118.965 81.5938 118.316 81.3203 117.566C81.0469 116.816 80.9102 115.996 80.9102 115.105V114.613C80.9102 113.582 81.0625 112.664 81.3672 111.859C81.6719 111.047 82.0859 110.359 82.6094 109.797C83.1328 109.234 83.7266 108.809 84.3906 108.52C85.0547 108.23 85.7422 108.086 86.4531 108.086C87.3594 108.086 88.1406 108.242 88.7969 108.555C89.4609 108.867 90.0039 109.305 90.4258 109.867C90.8477 110.422 91.1602 111.078 91.3633 111.836C91.5664 112.586 91.668 113.406 91.668 114.297V115.27H82.1992V113.5H89.5V113.336C89.4688 112.773 89.3516 112.227 89.1484 111.695C88.9531 111.164 88.6406 110.727 88.2109 110.383C87.7812 110.039 87.1953 109.867 86.4531 109.867C85.9609 109.867 85.5078 109.973 85.0938 110.184C84.6797 110.387 84.3242 110.691 84.0273 111.098C83.7305 111.504 83.5 112 83.3359 112.586C83.1719 113.172 83.0898 113.848 83.0898 114.613V115.105C83.0898 115.707 83.1719 116.273 83.3359 116.805C83.5078 117.328 83.7539 117.789 84.0742 118.188C84.4023 118.586 84.7969 118.898 85.2578 119.125C85.7266 119.352 86.2578 119.465 86.8516 119.465C87.6172 119.465 88.2656 119.309 88.7969 118.996C89.3281 118.684 89.793 118.266 90.1914 117.742L91.5039 118.785C91.2305 119.199 90.8828 119.594 90.4609 119.969C90.0391 120.344 89.5195 120.648 88.9023 120.883C88.293 121.117 87.5703 121.234 86.7344 121.234ZM96.3672 110.312V121H94.1992V108.32H96.3086L96.3672 110.312ZM100.328 108.25L100.316 110.266C100.137 110.227 99.9648 110.203 99.8008 110.195C99.6445 110.18 99.4648 110.172 99.2617 110.172C98.7617 110.172 98.3203 110.25 97.9375 110.406C97.5547 110.562 97.2305 110.781 96.9648 111.062C96.6992 111.344 96.4883 111.68 96.332 112.07C96.1836 112.453 96.0859 112.875 96.0391 113.336L95.4297 113.688C95.4297 112.922 95.5039 112.203 95.6523 111.531C95.8086 110.859 96.0469 110.266 96.3672 109.75C96.6875 109.227 97.0938 108.82 97.5859 108.531C98.0859 108.234 98.6797 108.086 99.3672 108.086C99.5234 108.086 99.7031 108.105 99.9062 108.145C100.109 108.176 100.25 108.211 100.328 108.25Z" fill="#3C4043"/>
<path d="M189.835 10.5455H191.948V23.0227C191.948 24.1364 191.744 25.0824 191.335 25.8608C190.925 26.6392 190.349 27.2301 189.604 27.6335C188.86 28.0369 187.982 28.2386 186.971 28.2386C186.016 28.2386 185.167 28.0653 184.423 27.7188C183.678 27.3665 183.093 26.8665 182.667 26.2188C182.241 25.571 182.028 24.8011 182.028 23.9091H184.107C184.107 24.4034 184.229 24.8352 184.474 25.2045C184.724 25.5682 185.065 25.8523 185.496 26.0568C185.928 26.2614 186.42 26.3636 186.971 26.3636C187.579 26.3636 188.096 26.2358 188.522 25.9801C188.948 25.7244 189.272 25.3494 189.494 24.8551C189.721 24.3551 189.835 23.7443 189.835 23.0227V10.5455ZM201.229 28.2727C200.048 28.2727 199.011 27.9915 198.119 27.429C197.232 26.8665 196.539 26.0795 196.039 25.0682C195.545 24.0568 195.298 22.875 195.298 21.5227C195.298 20.1591 195.545 18.9687 196.039 17.9517C196.539 16.9347 197.232 16.1449 198.119 15.5824C199.011 15.0199 200.048 14.7386 201.229 14.7386C202.411 14.7386 203.445 15.0199 204.332 15.5824C205.224 16.1449 205.917 16.9347 206.411 17.9517C206.911 18.9687 207.161 20.1591 207.161 21.5227C207.161 22.875 206.911 24.0568 206.411 25.0682C205.917 26.0795 205.224 26.8665 204.332 27.429C203.445 27.9915 202.411 28.2727 201.229 28.2727ZM201.229 26.4659C202.127 26.4659 202.866 26.2358 203.445 25.7756C204.025 25.3153 204.454 24.7102 204.732 23.9602C205.011 23.2102 205.15 22.3977 205.15 21.5227C205.15 20.6477 205.011 19.8324 204.732 19.0767C204.454 18.321 204.025 17.7102 203.445 17.2443C202.866 16.7784 202.127 16.5455 201.229 16.5455C200.332 16.5455 199.593 16.7784 199.013 17.2443C198.434 17.7102 198.005 18.321 197.727 19.0767C197.448 19.8324 197.309 20.6477 197.309 21.5227C197.309 22.3977 197.448 23.2102 197.727 23.9602C198.005 24.7102 198.434 25.3153 199.013 25.7756C199.593 26.2358 200.332 26.4659 201.229 26.4659ZM210.504 28V10.5455H212.516V16.9886H212.686C212.834 16.7614 213.038 16.4716 213.3 16.1193C213.567 15.7614 213.947 15.4432 214.442 15.1648C214.942 14.8807 215.618 14.7386 216.47 14.7386C217.572 14.7386 218.544 15.0142 219.385 15.5653C220.226 16.1165 220.882 16.8977 221.354 17.9091C221.825 18.9205 222.061 20.1136 222.061 21.4886C222.061 22.875 221.825 24.0767 221.354 25.0938C220.882 26.1051 220.229 26.8892 219.393 27.446C218.558 27.9972 217.595 28.2727 216.504 28.2727C215.663 28.2727 214.99 28.1335 214.484 27.8551C213.979 27.571 213.589 27.25 213.317 26.892C213.044 26.5284 212.834 26.2273 212.686 25.9886H212.447V28H210.504ZM212.482 21.4545C212.482 22.4432 212.626 23.3153 212.916 24.071C213.206 24.821 213.629 25.4091 214.186 25.8352C214.743 26.2557 215.425 26.4659 216.232 26.4659C217.072 26.4659 217.774 26.2443 218.337 25.8011C218.905 25.3523 219.331 24.75 219.615 23.9943C219.905 23.233 220.05 22.3864 220.05 21.4545C220.05 20.5341 219.908 19.7045 219.624 18.9659C219.345 18.2216 218.922 17.6335 218.354 17.2017C217.791 16.7642 217.084 16.5455 216.232 16.5455C215.413 16.5455 214.726 16.7528 214.169 17.1676C213.612 17.5767 213.192 18.1506 212.908 18.8892C212.624 19.6222 212.482 20.4773 212.482 21.4545ZM241.706 14.9091C241.604 14.0455 241.189 13.375 240.462 12.8977C239.734 12.4205 238.842 12.1818 237.786 12.1818C237.013 12.1818 236.337 12.3068 235.757 12.5568C235.183 12.8068 234.734 13.1506 234.411 13.5881C234.092 14.0256 233.933 14.5227 233.933 15.0795C233.933 15.5455 234.044 15.946 234.266 16.2812C234.493 16.6108 234.783 16.8864 235.135 17.108C235.487 17.3239 235.857 17.5028 236.243 17.6449C236.629 17.7812 236.984 17.892 237.308 17.9773L239.081 18.4545C239.536 18.5739 240.041 18.7386 240.598 18.9489C241.161 19.1591 241.697 19.446 242.209 19.8097C242.726 20.1676 243.152 20.6278 243.487 21.1903C243.822 21.7528 243.99 22.4432 243.99 23.2614C243.99 24.2045 243.743 25.0568 243.249 25.8182C242.76 26.5795 242.044 27.1847 241.101 27.6335C240.163 28.0824 239.024 28.3068 237.683 28.3068C236.433 28.3068 235.351 28.1051 234.436 27.7017C233.527 27.2983 232.811 26.7358 232.288 26.0142C231.771 25.2926 231.479 24.4545 231.411 23.5H233.592C233.649 24.1591 233.871 24.7045 234.257 25.1364C234.649 25.5625 235.143 25.8807 235.74 26.0909C236.342 26.2955 236.99 26.3977 237.683 26.3977C238.49 26.3977 239.214 26.267 239.857 26.0057C240.499 25.7386 241.007 25.3693 241.382 24.8977C241.757 24.4205 241.945 23.8636 241.945 23.2273C241.945 22.6477 241.783 22.1761 241.459 21.8125C241.135 21.4489 240.709 21.1534 240.18 20.9261C239.652 20.6989 239.081 20.5 238.467 20.3295L236.32 19.7159C234.956 19.3239 233.876 18.7642 233.081 18.0369C232.286 17.3097 231.888 16.358 231.888 15.1818C231.888 14.2045 232.152 13.3523 232.68 12.625C233.214 11.892 233.93 11.3239 234.828 10.9205C235.732 10.5114 236.74 10.3068 237.854 10.3068C238.979 10.3068 239.979 10.5085 240.854 10.9119C241.729 11.3097 242.422 11.8551 242.933 12.5483C243.45 13.2415 243.723 14.0284 243.751 14.9091H241.706ZM252.681 28.2727C251.42 28.2727 250.332 27.9943 249.417 27.4375C248.508 26.875 247.806 26.0909 247.312 25.0852C246.823 24.0739 246.579 22.8977 246.579 21.5568C246.579 20.2159 246.823 19.0341 247.312 18.0114C247.806 16.983 248.494 16.1818 249.374 15.608C250.261 15.0284 251.295 14.7386 252.477 14.7386C253.158 14.7386 253.832 14.8523 254.496 15.0795C255.161 15.3068 255.766 15.6761 256.312 16.1875C256.857 16.6932 257.292 17.3636 257.616 18.1989C257.94 19.0341 258.102 20.0625 258.102 21.2841V22.1364H248.011V20.3977H256.056C256.056 19.6591 255.908 19 255.613 18.4205C255.323 17.8409 254.908 17.3835 254.369 17.0483C253.835 16.7131 253.204 16.5455 252.477 16.5455C251.675 16.5455 250.982 16.7443 250.397 17.142C249.817 17.5341 249.371 18.0455 249.059 18.6761C248.746 19.3068 248.59 19.983 248.59 20.7045V21.8636C248.59 22.8523 248.761 23.6903 249.102 24.3778C249.448 25.0597 249.928 25.5795 250.542 25.9375C251.156 26.2898 251.869 26.4659 252.681 26.4659C253.21 26.4659 253.687 26.392 254.113 26.2443C254.545 26.0909 254.917 25.8636 255.229 25.5625C255.542 25.2557 255.783 24.875 255.954 24.4205L257.897 24.9659C257.692 25.625 257.349 26.2045 256.866 26.7045C256.383 27.1989 255.786 27.5852 255.076 27.8636C254.366 28.1364 253.567 28.2727 252.681 28.2727ZM265.013 28.3068C264.184 28.3068 263.431 28.1506 262.755 27.8381C262.079 27.5199 261.542 27.0625 261.144 26.4659C260.746 25.8636 260.548 25.1364 260.548 24.2841C260.548 23.5341 260.695 22.9261 260.991 22.4602C261.286 21.9886 261.681 21.6193 262.175 21.3523C262.67 21.0852 263.215 20.8864 263.812 20.7557C264.414 20.6193 265.019 20.5114 265.627 20.4318C266.423 20.3295 267.067 20.2528 267.562 20.2017C268.062 20.1449 268.425 20.0511 268.653 19.9205C268.886 19.7898 269.002 19.5625 269.002 19.2386V19.1705C269.002 18.3295 268.772 17.6761 268.312 17.2102C267.857 16.7443 267.167 16.5114 266.241 16.5114C265.281 16.5114 264.528 16.7216 263.982 17.142C263.437 17.5625 263.053 18.0114 262.832 18.4886L260.923 17.8068C261.263 17.0114 261.718 16.392 262.286 15.9489C262.86 15.5 263.485 15.1875 264.161 15.0114C264.843 14.8295 265.513 14.7386 266.173 14.7386C266.593 14.7386 267.076 14.7898 267.621 14.892C268.173 14.9886 268.704 15.1903 269.215 15.4972C269.732 15.804 270.161 16.267 270.502 16.8864C270.843 17.5057 271.013 18.3352 271.013 19.375V28H269.002V26.2273H268.9C268.763 26.5114 268.536 26.8153 268.218 27.1392C267.9 27.4631 267.477 27.7386 266.948 27.9659C266.42 28.1932 265.775 28.3068 265.013 28.3068ZM265.32 26.5C266.116 26.5 266.786 26.3438 267.332 26.0312C267.883 25.7188 268.298 25.3153 268.576 24.821C268.86 24.3267 269.002 23.8068 269.002 23.2614V21.4205C268.917 21.5227 268.729 21.6165 268.44 21.7017C268.156 21.7812 267.826 21.8523 267.451 21.9148C267.082 21.9716 266.721 22.0227 266.369 22.0682C266.022 22.108 265.741 22.142 265.525 22.1705C265.002 22.2386 264.513 22.3494 264.059 22.5028C263.61 22.6506 263.246 22.875 262.968 23.1761C262.695 23.4716 262.559 23.875 262.559 24.3864C262.559 25.0852 262.817 25.6136 263.335 25.9716C263.857 26.3239 264.519 26.5 265.32 26.5ZM274.685 28V14.9091H276.628V16.8864H276.764C277.003 16.2386 277.435 15.7131 278.06 15.3097C278.685 14.9062 279.389 14.7045 280.173 14.7045C280.321 14.7045 280.506 14.7074 280.727 14.7131C280.949 14.7187 281.116 14.7273 281.23 14.7386V16.7841C281.162 16.767 281.006 16.7415 280.761 16.7074C280.523 16.6676 280.27 16.6477 280.003 16.6477C279.366 16.6477 278.798 16.7812 278.298 17.0483C277.804 17.3097 277.412 17.6733 277.122 18.1392C276.838 18.5994 276.696 19.125 276.696 19.7159V28H274.685ZM288.534 28.2727C287.307 28.2727 286.25 27.983 285.364 27.4034C284.477 26.8239 283.795 26.0256 283.318 25.0085C282.841 23.9915 282.602 22.8295 282.602 21.5227C282.602 20.1932 282.847 19.0199 283.335 18.0028C283.83 16.9801 284.517 16.1818 285.398 15.608C286.284 15.0284 287.318 14.7386 288.5 14.7386C289.42 14.7386 290.25 14.9091 290.989 15.25C291.727 15.5909 292.332 16.0682 292.804 16.6818C293.276 17.2955 293.568 18.0114 293.682 18.8295H291.67C291.517 18.233 291.176 17.7045 290.648 17.2443C290.125 16.7784 289.42 16.5455 288.534 16.5455C287.75 16.5455 287.063 16.75 286.472 17.1591C285.886 17.5625 285.429 18.1335 285.099 18.8722C284.776 19.6051 284.614 20.4659 284.614 21.4545C284.614 22.4659 284.773 23.3466 285.091 24.0966C285.415 24.8466 285.869 25.429 286.455 25.8438C287.045 26.2585 287.739 26.4659 288.534 26.4659C289.057 26.4659 289.531 26.375 289.957 26.1932C290.384 26.0114 290.744 25.75 291.04 25.4091C291.335 25.0682 291.545 24.6591 291.67 24.1818H293.682C293.568 24.9545 293.287 25.6506 292.838 26.2699C292.395 26.8835 291.807 27.3722 291.074 27.7358C290.347 28.0938 289.5 28.2727 288.534 28.2727ZM298.634 20.125V28H296.622V10.5455H298.634V16.9545H298.804C299.111 16.2784 299.571 15.7415 300.185 15.3438C300.804 14.9403 301.628 14.7386 302.656 14.7386C303.548 14.7386 304.33 14.9176 305 15.2756C305.67 15.6278 306.19 16.1705 306.56 16.9034C306.935 17.6307 307.122 18.5568 307.122 19.6818V28H305.111V19.8182C305.111 18.7784 304.841 17.9744 304.301 17.4062C303.767 16.8324 303.026 16.5455 302.077 16.5455C301.418 16.5455 300.827 16.6847 300.304 16.9631C299.787 17.2415 299.378 17.6477 299.077 18.1818C298.781 18.7159 298.634 19.3636 298.634 20.125Z" fill="#3C4043"/>
<path d="M185.152 63.9375H190.801C192.082 63.9375 193.164 64.1328 194.047 64.5234C194.938 64.9141 195.613 65.4922 196.074 66.2578C196.543 67.0156 196.777 67.9492 196.777 69.0586C196.777 69.8398 196.617 70.5547 196.297 71.2031C195.984 71.8438 195.531 72.3906 194.938 72.8438C194.352 73.2891 193.648 73.6211 192.828 73.8398L192.195 74.0859H186.887L186.863 72.2461H190.871C191.684 72.2461 192.359 72.1055 192.898 71.8242C193.438 71.5352 193.844 71.1484 194.117 70.6641C194.391 70.1797 194.527 69.6445 194.527 69.0586C194.527 68.4023 194.398 67.8281 194.141 67.3359C193.883 66.8438 193.477 66.4648 192.922 66.1992C192.375 65.9258 191.668 65.7891 190.801 65.7891H187.414V81H185.152V63.9375ZM195.125 81L190.977 73.2656L193.332 73.2539L197.539 80.8594V81H195.125ZM204.875 81.2344C203.992 81.2344 203.191 81.0859 202.473 80.7891C201.762 80.4844 201.148 80.0586 200.633 79.5117C200.125 78.9648 199.734 78.3164 199.461 77.5664C199.188 76.8164 199.051 75.9961 199.051 75.1055V74.6133C199.051 73.582 199.203 72.6641 199.508 71.8594C199.812 71.0469 200.227 70.3594 200.75 69.7969C201.273 69.2344 201.867 68.8086 202.531 68.5195C203.195 68.2305 203.883 68.0859 204.594 68.0859C205.5 68.0859 206.281 68.2422 206.938 68.5547C207.602 68.8672 208.145 69.3047 208.566 69.8672C208.988 70.4219 209.301 71.0781 209.504 71.8359C209.707 72.5859 209.809 73.4062 209.809 74.2969V75.2695H200.34V73.5H207.641V73.3359C207.609 72.7734 207.492 72.2266 207.289 71.6953C207.094 71.1641 206.781 70.7266 206.352 70.3828C205.922 70.0391 205.336 69.8672 204.594 69.8672C204.102 69.8672 203.648 69.9727 203.234 70.1836C202.82 70.3867 202.465 70.6914 202.168 71.0977C201.871 71.5039 201.641 72 201.477 72.5859C201.312 73.1719 201.23 73.8477 201.23 74.6133V75.1055C201.23 75.707 201.312 76.2734 201.477 76.8047C201.648 77.3281 201.895 77.7891 202.215 78.1875C202.543 78.5859 202.938 78.8984 203.398 79.125C203.867 79.3516 204.398 79.4648 204.992 79.4648C205.758 79.4648 206.406 79.3086 206.938 78.9961C207.469 78.6836 207.934 78.2656 208.332 77.7422L209.645 78.7852C209.371 79.1992 209.023 79.5938 208.602 79.9688C208.18 80.3438 207.66 80.6484 207.043 80.8828C206.434 81.1172 205.711 81.2344 204.875 81.2344ZM219.723 77.6367C219.723 77.3242 219.652 77.0352 219.512 76.7695C219.379 76.4961 219.102 76.25 218.68 76.0312C218.266 75.8047 217.641 75.6094 216.805 75.4453C216.102 75.2969 215.465 75.1211 214.895 74.918C214.332 74.7148 213.852 74.4688 213.453 74.1797C213.062 73.8906 212.762 73.5508 212.551 73.1602C212.34 72.7695 212.234 72.3125 212.234 71.7891C212.234 71.2891 212.344 70.8164 212.562 70.3711C212.789 69.9258 213.105 69.5312 213.512 69.1875C213.926 68.8438 214.422 68.5742 215 68.3789C215.578 68.1836 216.223 68.0859 216.934 68.0859C217.949 68.0859 218.816 68.2656 219.535 68.625C220.254 68.9844 220.805 69.4648 221.188 70.0664C221.57 70.6602 221.762 71.3203 221.762 72.0469H219.594C219.594 71.6953 219.488 71.3555 219.277 71.0273C219.074 70.6914 218.773 70.4141 218.375 70.1953C217.984 69.9766 217.504 69.8672 216.934 69.8672C216.332 69.8672 215.844 69.9609 215.469 70.1484C215.102 70.3281 214.832 70.5586 214.66 70.8398C214.496 71.1211 214.414 71.418 214.414 71.7305C214.414 71.9648 214.453 72.1758 214.531 72.3633C214.617 72.543 214.766 72.7109 214.977 72.8672C215.188 73.0156 215.484 73.1562 215.867 73.2891C216.25 73.4219 216.738 73.5547 217.332 73.6875C218.371 73.9219 219.227 74.2031 219.898 74.5312C220.57 74.8594 221.07 75.2617 221.398 75.7383C221.727 76.2148 221.891 76.793 221.891 77.4727C221.891 78.0273 221.773 78.5352 221.539 78.9961C221.312 79.457 220.98 79.8555 220.543 80.1914C220.113 80.5195 219.598 80.7773 218.996 80.9648C218.402 81.1445 217.734 81.2344 216.992 81.2344C215.875 81.2344 214.93 81.0352 214.156 80.6367C213.383 80.2383 212.797 79.7227 212.398 79.0898C212 78.457 211.801 77.7891 211.801 77.0859H213.98C214.012 77.6797 214.184 78.1523 214.496 78.5039C214.809 78.8477 215.191 79.0938 215.645 79.2422C216.098 79.3828 216.547 79.4531 216.992 79.4531C217.586 79.4531 218.082 79.375 218.48 79.2188C218.887 79.0625 219.195 78.8477 219.406 78.5742C219.617 78.3008 219.723 77.9883 219.723 77.6367ZM232.496 78.0703V68.3203H234.676V81H232.602L232.496 78.0703ZM232.906 75.3984L233.809 75.375C233.809 76.2188 233.719 77 233.539 77.7188C233.367 78.4297 233.086 79.0469 232.695 79.5703C232.305 80.0938 231.793 80.5039 231.16 80.8008C230.527 81.0898 229.758 81.2344 228.852 81.2344C228.234 81.2344 227.668 81.1445 227.152 80.9648C226.645 80.7852 226.207 80.5078 225.84 80.1328C225.473 79.7578 225.188 79.2695 224.984 78.668C224.789 78.0664 224.691 77.3438 224.691 76.5V68.3203H226.859V76.5234C226.859 77.0938 226.922 77.5664 227.047 77.9414C227.18 78.3086 227.355 78.6016 227.574 78.8203C227.801 79.0312 228.051 79.1797 228.324 79.2656C228.605 79.3516 228.895 79.3945 229.191 79.3945C230.113 79.3945 230.844 79.2188 231.383 78.8672C231.922 78.5078 232.309 78.0273 232.543 77.4258C232.785 76.8164 232.906 76.1406 232.906 75.3984ZM240.137 70.8398V81H237.957V68.3203H240.02L240.137 70.8398ZM239.691 74.1797L238.684 74.1445C238.691 73.2773 238.805 72.4766 239.023 71.7422C239.242 71 239.566 70.3555 239.996 69.8086C240.426 69.2617 240.961 68.8398 241.602 68.543C242.242 68.2383 242.984 68.0859 243.828 68.0859C244.422 68.0859 244.969 68.1719 245.469 68.3438C245.969 68.5078 246.402 68.7695 246.77 69.1289C247.137 69.4883 247.422 69.9492 247.625 70.5117C247.828 71.0742 247.93 71.7539 247.93 72.5508V81H245.762V72.6562C245.762 71.9922 245.648 71.4609 245.422 71.0625C245.203 70.6641 244.891 70.375 244.484 70.1953C244.078 70.0078 243.602 69.9141 243.055 69.9141C242.414 69.9141 241.879 70.0273 241.449 70.2539C241.02 70.4805 240.676 70.793 240.418 71.1914C240.16 71.5898 239.973 72.0469 239.855 72.5625C239.746 73.0703 239.691 73.6094 239.691 74.1797ZM247.906 72.9844L246.453 73.4297C246.461 72.7344 246.574 72.0664 246.793 71.4258C247.02 70.7852 247.344 70.2148 247.766 69.7148C248.195 69.2148 248.723 68.8203 249.348 68.5312C249.973 68.2344 250.688 68.0859 251.492 68.0859C252.172 68.0859 252.773 68.1758 253.297 68.3555C253.828 68.5352 254.273 68.8125 254.633 69.1875C255 69.5547 255.277 70.0273 255.465 70.6055C255.652 71.1836 255.746 71.8711 255.746 72.668V81H253.566V72.6445C253.566 71.9336 253.453 71.3828 253.227 70.9922C253.008 70.5938 252.695 70.3164 252.289 70.1602C251.891 69.9961 251.414 69.9141 250.859 69.9141C250.383 69.9141 249.961 69.9961 249.594 70.1602C249.227 70.3242 248.918 70.5508 248.668 70.8398C248.418 71.1211 248.227 71.4453 248.094 71.8125C247.969 72.1797 247.906 72.5703 247.906 72.9844ZM264.289 81.2344C263.406 81.2344 262.605 81.0859 261.887 80.7891C261.176 80.4844 260.562 80.0586 260.047 79.5117C259.539 78.9648 259.148 78.3164 258.875 77.5664C258.602 76.8164 258.465 75.9961 258.465 75.1055V74.6133C258.465 73.582 258.617 72.6641 258.922 71.8594C259.227 71.0469 259.641 70.3594 260.164 69.7969C260.688 69.2344 261.281 68.8086 261.945 68.5195C262.609 68.2305 263.297 68.0859 264.008 68.0859C264.914 68.0859 265.695 68.2422 266.352 68.5547C267.016 68.8672 267.559 69.3047 267.98 69.8672C268.402 70.4219 268.715 71.0781 268.918 71.8359C269.121 72.5859 269.223 73.4062 269.223 74.2969V75.2695H259.754V73.5H267.055V73.3359C267.023 72.7734 266.906 72.2266 266.703 71.6953C266.508 71.1641 266.195 70.7266 265.766 70.3828C265.336 70.0391 264.75 69.8672 264.008 69.8672C263.516 69.8672 263.062 69.9727 262.648 70.1836C262.234 70.3867 261.879 70.6914 261.582 71.0977C261.285 71.5039 261.055 72 260.891 72.5859C260.727 73.1719 260.645 73.8477 260.645 74.6133V75.1055C260.645 75.707 260.727 76.2734 260.891 76.8047C261.062 77.3281 261.309 77.7891 261.629 78.1875C261.957 78.5859 262.352 78.8984 262.812 79.125C263.281 79.3516 263.812 79.4648 264.406 79.4648C265.172 79.4648 265.82 79.3086 266.352 78.9961C266.883 78.6836 267.348 78.2656 267.746 77.7422L269.059 78.7852C268.785 79.1992 268.438 79.5938 268.016 79.9688C267.594 80.3438 267.074 80.6484 266.457 80.8828C265.848 81.1172 265.125 81.2344 264.289 81.2344ZM280.297 63.9375V81H278.035V63.9375H280.297ZM287.445 71.6133V73.4648H279.805V71.6133H287.445ZM288.605 63.9375V65.7891H279.805V63.9375H288.605ZM293.328 68.3203V81H291.148V68.3203H293.328ZM290.984 64.957C290.984 64.6055 291.09 64.3086 291.301 64.0664C291.52 63.8242 291.84 63.7031 292.262 63.7031C292.676 63.7031 292.992 63.8242 293.211 64.0664C293.438 64.3086 293.551 64.6055 293.551 64.957C293.551 65.293 293.438 65.582 293.211 65.8242C292.992 66.0586 292.676 66.1758 292.262 66.1758C291.84 66.1758 291.52 66.0586 291.301 65.8242C291.09 65.582 290.984 65.293 290.984 64.957ZM299.164 63V81H296.984V63H299.164ZM305 63V81H302.82V63H305Z" fill="#3C4043"/>
<path d="M218.223 130.688C218.223 130.289 218.16 129.938 218.035 129.633C217.918 129.32 217.707 129.039 217.402 128.789C217.105 128.539 216.691 128.301 216.16 128.074C215.637 127.848 214.973 127.617 214.168 127.383C213.324 127.133 212.562 126.855 211.883 126.551C211.203 126.238 210.621 125.883 210.137 125.484C209.652 125.086 209.281 124.629 209.023 124.113C208.766 123.598 208.637 123.008 208.637 122.344C208.637 121.68 208.773 121.066 209.047 120.504C209.32 119.941 209.711 119.453 210.219 119.039C210.734 118.617 211.348 118.289 212.059 118.055C212.77 117.82 213.562 117.703 214.438 117.703C215.719 117.703 216.805 117.949 217.695 118.441C218.594 118.926 219.277 119.562 219.746 120.352C220.215 121.133 220.449 121.969 220.449 122.859H218.199C218.199 122.219 218.062 121.652 217.789 121.16C217.516 120.66 217.102 120.27 216.547 119.988C215.992 119.699 215.289 119.555 214.438 119.555C213.633 119.555 212.969 119.676 212.445 119.918C211.922 120.16 211.531 120.488 211.273 120.902C211.023 121.316 210.898 121.789 210.898 122.32C210.898 122.68 210.973 123.008 211.121 123.305C211.277 123.594 211.516 123.863 211.836 124.113C212.164 124.363 212.578 124.594 213.078 124.805C213.586 125.016 214.191 125.219 214.895 125.414C215.863 125.688 216.699 125.992 217.402 126.328C218.105 126.664 218.684 127.043 219.137 127.465C219.598 127.879 219.938 128.352 220.156 128.883C220.383 129.406 220.496 130 220.496 130.664C220.496 131.359 220.355 131.988 220.074 132.551C219.793 133.113 219.391 133.594 218.867 133.992C218.344 134.391 217.715 134.699 216.98 134.918C216.254 135.129 215.441 135.234 214.543 135.234C213.754 135.234 212.977 135.125 212.211 134.906C211.453 134.688 210.762 134.359 210.137 133.922C209.52 133.484 209.023 132.945 208.648 132.305C208.281 131.656 208.098 130.906 208.098 130.055H210.348C210.348 130.641 210.461 131.145 210.688 131.566C210.914 131.98 211.223 132.324 211.613 132.598C212.012 132.871 212.461 133.074 212.961 133.207C213.469 133.332 213.996 133.395 214.543 133.395C215.332 133.395 216 133.285 216.547 133.066C217.094 132.848 217.508 132.535 217.789 132.129C218.078 131.723 218.223 131.242 218.223 130.688ZM230.809 132.07V122.32H232.988V135H230.914L230.809 132.07ZM231.219 129.398L232.121 129.375C232.121 130.219 232.031 131 231.852 131.719C231.68 132.43 231.398 133.047 231.008 133.57C230.617 134.094 230.105 134.504 229.473 134.801C228.84 135.09 228.07 135.234 227.164 135.234C226.547 135.234 225.98 135.145 225.465 134.965C224.957 134.785 224.52 134.508 224.152 134.133C223.785 133.758 223.5 133.27 223.297 132.668C223.102 132.066 223.004 131.344 223.004 130.5V122.32H225.172V130.523C225.172 131.094 225.234 131.566 225.359 131.941C225.492 132.309 225.668 132.602 225.887 132.82C226.113 133.031 226.363 133.18 226.637 133.266C226.918 133.352 227.207 133.395 227.504 133.395C228.426 133.395 229.156 133.219 229.695 132.867C230.234 132.508 230.621 132.027 230.855 131.426C231.098 130.816 231.219 130.141 231.219 129.398ZM236.281 117H238.461V132.539L238.273 135H236.281V117ZM247.027 128.555V128.801C247.027 129.723 246.918 130.578 246.699 131.367C246.48 132.148 246.16 132.828 245.738 133.406C245.316 133.984 244.801 134.434 244.191 134.754C243.582 135.074 242.883 135.234 242.094 135.234C241.289 135.234 240.582 135.098 239.973 134.824C239.371 134.543 238.863 134.141 238.449 133.617C238.035 133.094 237.703 132.461 237.453 131.719C237.211 130.977 237.043 130.141 236.949 129.211V128.133C237.043 127.195 237.211 126.355 237.453 125.613C237.703 124.871 238.035 124.238 238.449 123.715C238.863 123.184 239.371 122.781 239.973 122.508C240.574 122.227 241.273 122.086 242.07 122.086C242.867 122.086 243.574 122.242 244.191 122.555C244.809 122.859 245.324 123.297 245.738 123.867C246.16 124.438 246.48 125.121 246.699 125.918C246.918 126.707 247.027 127.586 247.027 128.555ZM244.848 128.801V128.555C244.848 127.922 244.789 127.328 244.672 126.773C244.555 126.211 244.367 125.719 244.109 125.297C243.852 124.867 243.512 124.531 243.09 124.289C242.668 124.039 242.148 123.914 241.531 123.914C240.984 123.914 240.508 124.008 240.102 124.195C239.703 124.383 239.363 124.637 239.082 124.957C238.801 125.27 238.57 125.629 238.391 126.035C238.219 126.434 238.09 126.848 238.004 127.277V130.102C238.129 130.648 238.332 131.176 238.613 131.684C238.902 132.184 239.285 132.594 239.762 132.914C240.246 133.234 240.844 133.395 241.555 133.395C242.141 133.395 242.641 133.277 243.055 133.043C243.477 132.801 243.816 132.469 244.074 132.047C244.34 131.625 244.535 131.137 244.66 130.582C244.785 130.027 244.848 129.434 244.848 128.801ZM251.926 124.84V135H249.746V122.32H251.809L251.926 124.84ZM251.48 128.18L250.473 128.145C250.48 127.277 250.594 126.477 250.812 125.742C251.031 125 251.355 124.355 251.785 123.809C252.215 123.262 252.75 122.84 253.391 122.543C254.031 122.238 254.773 122.086 255.617 122.086C256.211 122.086 256.758 122.172 257.258 122.344C257.758 122.508 258.191 122.77 258.559 123.129C258.926 123.488 259.211 123.949 259.414 124.512C259.617 125.074 259.719 125.754 259.719 126.551V135H257.551V126.656C257.551 125.992 257.438 125.461 257.211 125.062C256.992 124.664 256.68 124.375 256.273 124.195C255.867 124.008 255.391 123.914 254.844 123.914C254.203 123.914 253.668 124.027 253.238 124.254C252.809 124.48 252.465 124.793 252.207 125.191C251.949 125.59 251.762 126.047 251.645 126.562C251.535 127.07 251.48 127.609 251.48 128.18ZM259.695 126.984L258.242 127.43C258.25 126.734 258.363 126.066 258.582 125.426C258.809 124.785 259.133 124.215 259.555 123.715C259.984 123.215 260.512 122.82 261.137 122.531C261.762 122.234 262.477 122.086 263.281 122.086C263.961 122.086 264.562 122.176 265.086 122.355C265.617 122.535 266.062 122.812 266.422 123.188C266.789 123.555 267.066 124.027 267.254 124.605C267.441 125.184 267.535 125.871 267.535 126.668V135H265.355V126.645C265.355 125.934 265.242 125.383 265.016 124.992C264.797 124.594 264.484 124.316 264.078 124.16C263.68 123.996 263.203 123.914 262.648 123.914C262.172 123.914 261.75 123.996 261.383 124.16C261.016 124.324 260.707 124.551 260.457 124.84C260.207 125.121 260.016 125.445 259.883 125.812C259.758 126.18 259.695 126.57 259.695 126.984ZM273.172 122.32V135H270.992V122.32H273.172ZM270.828 118.957C270.828 118.605 270.934 118.309 271.145 118.066C271.363 117.824 271.684 117.703 272.105 117.703C272.52 117.703 272.836 117.824 273.055 118.066C273.281 118.309 273.395 118.605 273.395 118.957C273.395 119.293 273.281 119.582 273.055 119.824C272.836 120.059 272.52 120.176 272.105 120.176C271.684 120.176 271.363 120.059 271.145 119.824C270.934 119.582 270.828 119.293 270.828 118.957ZM281.961 122.32V123.984H275.105V122.32H281.961ZM277.426 119.238H279.594V131.859C279.594 132.289 279.66 132.613 279.793 132.832C279.926 133.051 280.098 133.195 280.309 133.266C280.52 133.336 280.746 133.371 280.988 133.371C281.168 133.371 281.355 133.355 281.551 133.324C281.754 133.285 281.906 133.254 282.008 133.23L282.02 135C281.848 135.055 281.621 135.105 281.34 135.152C281.066 135.207 280.734 135.234 280.344 135.234C279.812 135.234 279.324 135.129 278.879 134.918C278.434 134.707 278.078 134.355 277.812 133.863C277.555 133.363 277.426 132.691 277.426 131.848V119.238Z" fill="#3C4043"/>
<path fill-rule="evenodd" clip-rule="evenodd" d="M117 13.9367V140.063C117 147.76 123.268 154 131 154H144.303C144.688 154 145 153.688 145 153.303V153.303C145 152.918 144.688 152.606 144.303 152.606H131C124.041 152.606 118.4 146.991 118.4 140.063V13.9367C118.4 7.00935 124.041 1.39367 131 1.39367H144.303C144.688 1.39367 145 1.08168 145 0.696833V0.696833C145 0.311983 144.688 0 144.303 0H131C123.268 0 117 6.23965 117 13.9367Z" fill="#3C4043"/>
</svg>
