<svg width="313" height="331" viewBox="0 0 313 331" fill="none" xmlns="http://www.w3.org/2000/svg">
<g clip-path="url(#clip0_1932_4752)">
<path d="M79.7334 298.389L83.4568 320.182L94.2512 321.224L90.5107 296.885L79.7334 298.389Z" fill="#FCC9A7"/>
<path d="M81.9663 318.68C82.1884 317.912 82.9911 317.621 83.5718 318.083C84.682 319.005 86.6803 320.115 89.5327 319.722C92.5045 319.329 93.5635 317.519 93.9563 316.255C94.1613 315.589 94.7932 315.23 95.3569 315.486L115.562 323.958C116.689 324.47 117.578 325.478 118.039 326.742C118.483 327.938 117.714 329.253 116.587 329.27L83.4864 329.475C82.2567 329.475 81.2661 328.313 81.3344 326.896L81.6247 319.995C81.6247 319.876 81.6418 319.773 81.676 319.654L81.9663 318.68Z" fill="#1F252A"/>
<path d="M36.0892 198.114H31.6826V326.605H36.0892V198.114Z" fill="#2A272D"/>
<path d="M26.54 171.691L58.1035 229.66L78.0697 310.191H96.1913L83.262 220.693L26.54 171.691Z" fill="#C49D6A"/>
<path d="M52.5908 196.218H13.1365C7.48313 196.218 2.88867 191.641 2.88867 185.971C2.88867 180.317 7.46605 175.723 13.1365 175.723H52.5908C58.2442 175.723 62.8386 180.317 62.8386 185.971C62.8386 191.641 58.2442 196.218 52.5908 196.218Z" fill="#FFEEE3"/>
<path d="M52.8292 196.218H14.9121V200.009H52.8292V196.218Z" fill="#2A272D"/>
<path d="M52.8292 295.418H14.9121V299.209H52.8292V295.418Z" fill="#2A272D"/>
<path d="M31.8398 66.702C24.2393 65.7797 17.0316 70.3741 14.1281 77.4451C11.6686 83.406 9.61897 92.0483 11.8052 102.074C18.4663 132.766 14.4867 153.997 14.4867 153.997H50.5763L50.4397 112.202C50.4397 112.202 52.9333 107.335 54.2826 100.964C56.1785 92.0483 55.4611 90.8869 50.2518 82.9961L39.167 69.4689C39.1841 69.4689 36.7075 67.2827 31.8398 66.702Z" fill="#F3C7BD"/>
<path d="M97.4759 96.3173C99.8842 91.5008 105.725 89.5538 110.542 91.962C115.358 94.3703 117.306 100.212 114.897 105.028C112.489 109.845 106.648 111.792 101.831 109.383C97.0148 106.992 95.0677 101.134 97.4759 96.3173Z" fill="#FCC9A7"/>
<path d="M99.6103 93.4993L81.2666 110.921L88.2351 118.675L102.531 106.429L99.6103 93.4993Z" fill="#FCC9A7"/>
<path d="M19.4735 93.7382L52.6595 144.175C53.9405 146.105 56.5708 146.566 58.4325 145.165L98.4845 113.704L90.3716 99.7844L59.3889 123.457L37.7318 83.405C34.8453 77.3929 27.1765 75.5653 21.8818 79.5962C17.4752 82.9438 16.4333 89.1267 19.4735 93.7382Z" fill="#F3C7BD"/>
<path d="M33.9228 74.3372C31.822 74.3201 29.5846 73.449 27.9278 72.5951C26.2882 71.7581 25.2634 70.0331 25.2805 68.1885L25.6221 34.3022L40.4302 34.3706L40.0887 67.8298C40.0716 71.6728 37.3046 74.3543 33.9228 74.3372Z" fill="#FCC9A7"/>
<path d="M40.1918 58.4348L34.0772 49.7754C34.0772 49.7754 30.3367 59.6646 40.1576 62.7048L40.1918 58.4348Z" fill="#F2C09E"/>
<path d="M53.528 34.4386C53.4768 44.5328 45.2614 52.6628 35.1673 52.6115C25.0731 52.5603 16.9431 44.3449 16.9944 34.2508C17.0456 24.1566 25.261 16.0266 35.3551 16.0779C45.4322 16.1291 53.5622 24.3445 53.528 34.4386Z" fill="#FCC9A7"/>
<path d="M41.4897 58.5383C36.7074 58.5212 32.8303 54.6099 32.8645 49.8276L32.9157 37.3252L53.5139 34.4387L53.4627 46.6849C53.4285 53.2606 48.0825 58.5725 41.4897 58.5383Z" fill="#FCC9A7"/>
<path d="M52.9666 38.5212L56.9291 44.4137C57.4927 45.3702 56.7583 46.5487 55.5798 46.5487L50.9512 47.4027L52.9666 38.5212Z" fill="#FCC9A7"/>
<path d="M32.9323 42.3294L40.7036 42.0561C40.7036 42.0561 41.3697 35.3095 42.8898 33.687C44.4099 32.0644 45.1785 24.8567 45.1785 24.8567C45.1785 24.8567 41.5063 29.3487 40.4303 33.9944L56.7073 33.5845C56.7073 33.5845 59.1327 13.8403 34.4866 12.8838C9.82338 11.9273 10.5066 35.2583 15.3572 39.8869C19.2172 43.5761 25.4684 52.6285 25.4684 52.6285C25.4684 52.6285 25.1781 42.6026 32.9323 42.3294Z" fill="#4C1827"/>
<path d="M38.568 39.9383C38.6705 42.8248 36.4159 45.2331 33.5465 45.3356C30.66 45.438 28.2518 43.1835 28.1323 40.3141C28.0298 37.4276 30.2843 35.0194 33.1537 34.8998C36.0402 34.7974 38.4484 37.0519 38.568 39.9383Z" fill="#FCC9A7"/>
<path d="M23.5038 10.356C24.2895 16.8292 19.6951 22.7046 13.2389 23.5074C6.76567 24.2931 0.890213 19.6986 0.0874638 13.2254C-0.698205 6.75216 3.89623 0.876719 10.3695 0.0910497C16.8427 -0.711699 22.7181 3.88275 23.5038 10.356Z" fill="#4C1827"/>
<path d="M25.8633 70.5279C25.8633 70.5279 27.2809 74.9516 47.0593 79.0678L37.8704 66.5654L25.8633 70.5279Z" fill="#FCC9A7"/>
<path d="M33.8887 320.114L7.38086 329.184H60.3623L33.8887 320.114Z" fill="#2A272D"/>
<path d="M35.8855 265.784L21.3848 283.222L31.8034 287.185L46.3554 268.721L35.8855 265.784Z" fill="#FCC9A7"/>
<path d="M21.8867 280.848C22.3991 280.25 23.253 280.284 23.5946 280.95C24.2437 282.248 25.61 284.059 28.3941 284.845C31.2805 285.664 34.4402 283.137 35.2942 282.129C35.7383 281.599 36.4728 281.514 36.8827 281.992L54.6285 294.443C55.4484 295.366 55.8583 296.647 55.79 297.996C55.7216 299.26 54.4919 300.165 53.45 299.721L18.334 290.84C17.2068 290.344 16.7627 288.875 17.3947 287.612L21.0497 281.907C21.101 281.804 21.1693 281.702 21.2376 281.616L21.8867 280.848Z" fill="#1F252A"/>
<path d="M13.4392 153.997C13.4392 153.997 2.5764 178.729 41.1767 191.897L67.8553 216.68L26.5564 271.984L45.0196 278.662L95.1658 225.305C98.8722 220.984 99.0259 214.357 95.5245 209.848L50.5876 153.98H13.4392V153.997Z" fill="#D1A872"/>
<path d="M223.491 132.152H91.6182V139.496H223.491V132.152Z" fill="#FFEEE3"/>
<path d="M124.05 329.218V139.496" stroke="#2A272D" stroke-width="2.2811" stroke-miterlimit="10"/>
<path d="M189.996 329.218V139.496" stroke="#2A272D" stroke-width="2.2811" stroke-miterlimit="10"/>
<path d="M174.424 128.154H119.563V131.707H174.424V128.154Z" fill="#2A272D"/>
<path d="M174.422 131.724L192.185 79.8701L188.462 78.9819L171.058 128.787L174.422 131.724Z" fill="#2A272D"/>
<path d="M303.171 44.4229L300.602 26.4407V20.0185V17.4496V11.0273L286.473 31.5785L289.042 43.1385V58.5518L283.904 75.2496L298.008 87.3421L308.276 92.4799L305.74 61.1207L303.171 44.4229Z" fill="#4C1827"/>
<path d="M232.813 297.945L228.928 320.686L217.664 321.773L221.567 296.376L232.813 297.945Z" fill="#FCC9A7"/>
<path d="M278.348 193.309H282.946V327.388H278.348V193.309Z" fill="#2A272D"/>
<path d="M230.48 319.118C230.248 318.316 229.41 318.013 228.804 318.494C227.646 319.456 225.561 320.615 222.584 320.205C219.483 319.795 218.378 317.906 217.968 316.587C217.754 315.892 217.095 315.518 216.507 315.785L195.423 324.625C194.246 325.16 193.32 326.211 192.838 327.53C192.375 328.778 193.177 330.15 194.353 330.168L228.893 330.382C230.177 330.382 231.21 329.17 231.139 327.69L230.836 320.49C230.836 320.365 230.818 320.258 230.783 320.134L230.48 319.118Z" fill="white"/>
<path d="M288.313 165.738L255.377 226.227L234.543 310.261H215.633L229.125 216.87L288.313 165.738Z" fill="#C49D6A"/>
<path d="M261.135 191.33H302.305C308.205 191.33 312.999 186.553 312.999 180.636C312.999 174.737 308.223 169.943 302.305 169.943H261.135C255.236 169.943 250.442 174.737 250.442 180.636C250.442 186.553 255.236 191.33 261.135 191.33Z" fill="#FFEEE3"/>
<path d="M260.889 191.33H300.455V195.286H260.889V191.33Z" fill="#2A272D"/>
<path d="M260.889 294.844H300.455V298.801H260.889V294.844Z" fill="#2A272D"/>
<path d="M280.616 64.1489C282.809 64.1311 285.143 63.2221 286.872 62.3309C288.583 61.4576 289.652 59.6576 289.635 57.7327L289.278 22.3728L273.826 22.4441L274.182 57.3585C274.2 61.3686 277.087 64.1667 280.616 64.1489Z" fill="#FCC9A7"/>
<path d="M274.071 47.5556L280.452 38.5195C280.452 38.5195 284.355 48.8388 274.107 52.0112L274.071 47.5556Z" fill="#F2C09E"/>
<path d="M260.156 22.515C260.209 33.0481 268.782 41.5317 279.315 41.4782C289.848 41.4247 298.332 32.8521 298.278 22.3189C298.225 11.7858 289.652 3.30225 279.119 3.35572C268.604 3.40919 260.12 11.9818 260.156 22.515Z" fill="#FCC9A7"/>
<path d="M272.715 47.6621C277.706 47.6442 281.751 43.5629 281.716 38.5725L281.662 25.5264L260.168 22.5144L260.222 35.2932C260.257 42.1549 265.836 47.6977 272.715 47.6621Z" fill="#FCC9A7"/>
<path d="M263.828 30.8262L259.693 36.9749C259.105 37.973 259.871 39.2027 261.101 39.2027L265.931 40.0939L263.828 30.8262Z" fill="#FCC9A7"/>
<path d="M281.642 30.7468L273.533 30.4616C273.533 30.4616 272.838 23.4217 271.252 21.7285C269.666 20.0354 268.864 12.5143 268.864 12.5143C268.864 12.5143 272.695 17.2017 273.818 22.0494L256.833 21.6216C256.833 21.6216 254.302 1.01875 280.02 0.0206829C305.756 -0.97738 308.226 34.4554 303.164 39.2853C299.136 43.135 289.431 41.4938 289.431 41.4938C289.431 41.4938 289.734 31.032 281.642 30.7468Z" fill="#4C1827"/>
<path d="M274.904 29.4097C274.803 31.54 277.021 33.3173 279.845 33.3929C282.685 33.4685 285.055 31.8047 285.172 29.687C285.273 27.5567 283.055 25.7794 280.231 25.6912C277.391 25.6156 275.021 27.2794 274.904 29.4097Z" fill="#FCC9A7"/>
<path d="M289.022 60.1742C289.022 60.1742 287.543 64.7902 266.905 69.0854L276.493 56.0393L289.022 60.1742Z" fill="#FCC9A7"/>
<path d="M280.652 320.615L308.312 330.079H253.027L280.652 320.615Z" fill="#2A272D"/>
<path d="M278.562 263.921L293.693 282.118L282.822 286.253L267.637 266.987L278.562 263.921Z" fill="#FCC9A7"/>
<path d="M293.179 279.641C292.644 279.017 291.753 279.053 291.397 279.748C290.719 281.102 289.294 282.992 286.388 283.812C283.376 284.667 280.079 282.029 279.188 280.978C278.725 280.425 277.958 280.336 277.531 280.835L259.013 293.828C258.158 294.79 257.73 296.127 257.801 297.535C257.872 298.854 259.156 299.798 260.243 299.335L296.886 290.067C298.062 289.55 298.526 288.018 297.866 286.699L294.052 280.746C293.999 280.639 293.927 280.532 293.856 280.443L293.179 279.641Z" fill="white"/>
<path d="M301.984 147.272C301.984 147.272 313.319 173.079 273.04 186.821L245.201 212.681L288.296 270.391L269.03 277.359L216.703 221.682C212.836 217.172 212.675 210.257 216.329 205.552L263.22 147.255H301.984V147.272Z" fill="#D1A872"/>
<path d="M229.498 38.8827L233.026 65.0441L222.289 66.7945L218.669 47.4884L229.498 38.8827Z" fill="#FCC9A7"/>
<path d="M272.298 92.4793L236.333 106.609C233.99 107.204 226.517 97.4361 226.058 95.0487L218.349 54.7784L232.479 52.662L241.47 87.3419L264.59 77.0665L286.557 73.9145C293.002 71.2878 281.303 80.5152 282.574 87.3419C283.636 93.018 277.88 91.0433 272.298 92.4793Z" fill="#04948F"/>
<path d="M214.82 73.2703L233.961 91.4492L226.689 99.5407L211.772 86.7619L214.82 73.2703Z" fill="#FCC9A7"/>
<path d="M298.445 73.5194L263.816 126.149C262.479 128.163 259.735 128.645 257.792 127.183L215.998 94.354L224.464 79.8286L256.794 104.531L279.393 62.7368C282.405 56.4632 290.407 54.5562 295.932 58.7623C300.53 62.2556 301.618 68.7073 298.445 73.5194Z" fill="#00A09B"/>
<path d="M256.928 27.7258V21.3036L259.497 16.1658L272.341 13.5969L269.772 27.7258L264.634 23.8725L256.928 27.7258Z" fill="#4C1827"/>
<path d="M282.792 56.1817C290.723 55.2193 298.244 60.0135 301.274 67.3921C303.84 73.6121 305.979 82.6303 303.697 93.0922C296.747 125.119 300.899 147.273 300.899 147.273H263.24L263.383 103.661C263.383 103.661 260.781 98.5815 259.373 91.9337C257.394 82.6303 258.143 81.4184 263.579 73.1844L275.146 59.0689C275.128 59.0689 277.712 56.7876 282.792 56.1817Z" fill="#00A09B"/>
<path d="M229.784 35.2953C229.794 30.7235 229.562 25.6111 225.921 22.9002C224.85 22.161 223.484 21.6546 222.116 21.889C220.238 22.2327 218.679 23.8729 218.032 25.6041C217.385 27.3353 217.408 29.1111 217.485 30.8562C217.562 32.4778 217.558 34.3312 216.161 35.5079C215.92 35.7092 215.598 35.8955 215.49 36.2046C215.355 36.4674 215.408 36.8072 215.434 37.1006C216.069 41.4239 217.374 45.545 219.405 49.3095C219.592 49.6334 219.779 49.9577 220.1 50.1424C220.609 50.4039 221.307 50.124 221.897 49.9065C224.634 48.8198 228.712 48.1936 229.683 45.4115C230.303 43.7576 230.559 36.6374 229.784 35.2953Z" fill="#FCC9A7"/>
<path d="M200.379 81.118C195.662 78.8092 191.037 76.582 190.09 71.4542C189.871 69.9754 190.042 68.3105 190.978 67.0194C192.284 65.2583 194.765 64.4836 196.877 64.6946C198.99 64.9055 200.809 65.8298 202.568 66.794C204.2 67.6958 206.113 68.6319 208.034 67.789C208.364 67.6419 208.719 67.4044 209.092 67.45C209.432 67.4445 209.755 67.6714 210.044 67.8472C214.178 70.6939 217.764 74.1293 220.614 78.1308C220.853 78.4879 221.092 78.8453 221.12 79.2703C221.131 79.9275 220.489 80.5043 219.965 81.0025C217.457 83.2727 214.015 87.9504 210.655 87.5404C208.636 87.3408 201.37 82.5973 200.379 81.118Z" fill="#FCC9A7"/>
</g>
<defs>
<clipPath id="clip0_1932_4752">
<rect width="312.999" height="330.382" fill="white"/>
</clipPath>
</defs>
</svg>
