<svg width="418" height="246" viewBox="0 0 418 246" fill="none" xmlns="http://www.w3.org/2000/svg">
<path d="M85.3822 91C94.8865 91 102.585 83.84 102.585 75C102.585 66.16 94.8865 59 85.3822 59C75.8779 59 68.1798 66.16 68.1798 75C68.1798 83.84 75.8779 91 85.3822 91ZM112.863 101.24C105.638 97.8 96.2627 95 85.3822 95C74.5017 95 65.1263 97.8 57.9013 101.24C53.6007 103.28 50.9774 107.4 50.9774 111.88V123H119.787V111.88C119.787 107.4 117.164 103.28 112.863 101.24Z" fill="#3C4043"/>
<path d="M2.46094 136.938H8.10938C9.39062 136.938 10.4727 137.133 11.3555 137.523C12.2461 137.914 12.9219 138.492 13.3828 139.258C13.8516 140.016 14.0859 140.949 14.0859 142.059C14.0859 142.84 13.9258 143.555 13.6055 144.203C13.293 144.844 12.8398 145.391 12.2461 145.844C11.6602 146.289 10.957 146.621 10.1367 146.84L9.50391 147.086H4.19531L4.17188 145.246H8.17969C8.99219 145.246 9.66797 145.105 10.207 144.824C10.7461 144.535 11.1523 144.148 11.4258 143.664C11.6992 143.18 11.8359 142.645 11.8359 142.059C11.8359 141.402 11.707 140.828 11.4492 140.336C11.1914 139.844 10.7852 139.465 10.2305 139.199C9.68359 138.926 8.97656 138.789 8.10938 138.789H4.72266V154H2.46094V136.938ZM12.4336 154L8.28516 146.266L10.6406 146.254L14.8477 153.859V154H12.4336ZM22.1836 154.234C21.3008 154.234 20.5 154.086 19.7812 153.789C19.0703 153.484 18.457 153.059 17.9414 152.512C17.4336 151.965 17.043 151.316 16.7695 150.566C16.4961 149.816 16.3594 148.996 16.3594 148.105V147.613C16.3594 146.582 16.5117 145.664 16.8164 144.859C17.1211 144.047 17.5352 143.359 18.0586 142.797C18.582 142.234 19.1758 141.809 19.8398 141.52C20.5039 141.23 21.1914 141.086 21.9023 141.086C22.8086 141.086 23.5898 141.242 24.2461 141.555C24.9102 141.867 25.4531 142.305 25.875 142.867C26.2969 143.422 26.6094 144.078 26.8125 144.836C27.0156 145.586 27.1172 146.406 27.1172 147.297V148.27H17.6484V146.5H24.9492V146.336C24.918 145.773 24.8008 145.227 24.5977 144.695C24.4023 144.164 24.0898 143.727 23.6602 143.383C23.2305 143.039 22.6445 142.867 21.9023 142.867C21.4102 142.867 20.957 142.973 20.543 143.184C20.1289 143.387 19.7734 143.691 19.4766 144.098C19.1797 144.504 18.9492 145 18.7852 145.586C18.6211 146.172 18.5391 146.848 18.5391 147.613V148.105C18.5391 148.707 18.6211 149.273 18.7852 149.805C18.957 150.328 19.2031 150.789 19.5234 151.188C19.8516 151.586 20.2461 151.898 20.707 152.125C21.1758 152.352 21.707 152.465 22.3008 152.465C23.0664 152.465 23.7148 152.309 24.2461 151.996C24.7773 151.684 25.2422 151.266 25.6406 150.742L26.9531 151.785C26.6797 152.199 26.332 152.594 25.9102 152.969C25.4883 153.344 24.9688 153.648 24.3516 153.883C23.7422 154.117 23.0195 154.234 22.1836 154.234ZM34.957 141.32V142.984H28.1016V141.32H34.957ZM30.4219 138.238H32.5898V150.859C32.5898 151.289 32.6562 151.613 32.7891 151.832C32.9219 152.051 33.0938 152.195 33.3047 152.266C33.5156 152.336 33.7422 152.371 33.9844 152.371C34.1641 152.371 34.3516 152.355 34.5469 152.324C34.75 152.285 34.9023 152.254 35.0039 152.23L35.0156 154C34.8438 154.055 34.6172 154.105 34.3359 154.152C34.0625 154.207 33.7305 154.234 33.3398 154.234C32.8086 154.234 32.3203 154.129 31.875 153.918C31.4297 153.707 31.0742 153.355 30.8086 152.863C30.5508 152.363 30.4219 151.691 30.4219 150.848V138.238ZM45.2578 151.07V141.32H47.4375V154H45.3633L45.2578 151.07ZM45.668 148.398L46.5703 148.375C46.5703 149.219 46.4805 150 46.3008 150.719C46.1289 151.43 45.8477 152.047 45.457 152.57C45.0664 153.094 44.5547 153.504 43.9219 153.801C43.2891 154.09 42.5195 154.234 41.6133 154.234C40.9961 154.234 40.4297 154.145 39.9141 153.965C39.4062 153.785 38.9688 153.508 38.6016 153.133C38.2344 152.758 37.9492 152.27 37.7461 151.668C37.5508 151.066 37.4531 150.344 37.4531 149.5V141.32H39.6211V149.523C39.6211 150.094 39.6836 150.566 39.8086 150.941C39.9414 151.309 40.1172 151.602 40.3359 151.82C40.5625 152.031 40.8125 152.18 41.0859 152.266C41.3672 152.352 41.6562 152.395 41.9531 152.395C42.875 152.395 43.6055 152.219 44.1445 151.867C44.6836 151.508 45.0703 151.027 45.3047 150.426C45.5469 149.816 45.668 149.141 45.668 148.398ZM52.9102 143.312V154H50.7422V141.32H52.8516L52.9102 143.312ZM56.8711 141.25L56.8594 143.266C56.6797 143.227 56.5078 143.203 56.3438 143.195C56.1875 143.18 56.0078 143.172 55.8047 143.172C55.3047 143.172 54.8633 143.25 54.4805 143.406C54.0977 143.562 53.7734 143.781 53.5078 144.062C53.2422 144.344 53.0312 144.68 52.875 145.07C52.7266 145.453 52.6289 145.875 52.582 146.336L51.9727 146.688C51.9727 145.922 52.0469 145.203 52.1953 144.531C52.3516 143.859 52.5898 143.266 52.9102 142.75C53.2305 142.227 53.6367 141.82 54.1289 141.531C54.6289 141.234 55.2227 141.086 55.9102 141.086C56.0664 141.086 56.2461 141.105 56.4492 141.145C56.6523 141.176 56.793 141.211 56.8711 141.25ZM61.043 144.027V154H58.875V141.32H60.9258L61.043 144.027ZM60.5273 147.18L59.625 147.145C59.6328 146.277 59.7617 145.477 60.0117 144.742C60.2617 144 60.6133 143.355 61.0664 142.809C61.5195 142.262 62.0586 141.84 62.6836 141.543C63.3164 141.238 64.0156 141.086 64.7812 141.086C65.4062 141.086 65.9688 141.172 66.4688 141.344C66.9688 141.508 67.3945 141.773 67.7461 142.141C68.1055 142.508 68.3789 142.984 68.5664 143.57C68.7539 144.148 68.8477 144.855 68.8477 145.691V154H66.668V145.668C66.668 145.004 66.5703 144.473 66.375 144.074C66.1797 143.668 65.8945 143.375 65.5195 143.195C65.1445 143.008 64.6836 142.914 64.1367 142.914C63.5977 142.914 63.1055 143.027 62.6602 143.254C62.2227 143.48 61.8438 143.793 61.5234 144.191C61.2109 144.59 60.9648 145.047 60.7852 145.562C60.6133 146.07 60.5273 146.609 60.5273 147.18ZM74.4961 141.32V154H72.3164V141.32H74.4961ZM72.1523 137.957C72.1523 137.605 72.2578 137.309 72.4688 137.066C72.6875 136.824 73.0078 136.703 73.4297 136.703C73.8438 136.703 74.1602 136.824 74.3789 137.066C74.6055 137.309 74.7188 137.605 74.7188 137.957C74.7188 138.293 74.6055 138.582 74.3789 138.824C74.1602 139.059 73.8438 139.176 73.4297 139.176C73.0078 139.176 72.6875 139.059 72.4688 138.824C72.2578 138.582 72.1523 138.293 72.1523 137.957ZM80.1445 144.027V154H77.9766V141.32H80.0273L80.1445 144.027ZM79.6289 147.18L78.7266 147.145C78.7344 146.277 78.8633 145.477 79.1133 144.742C79.3633 144 79.7148 143.355 80.168 142.809C80.6211 142.262 81.1602 141.84 81.7852 141.543C82.418 141.238 83.1172 141.086 83.8828 141.086C84.5078 141.086 85.0703 141.172 85.5703 141.344C86.0703 141.508 86.4961 141.773 86.8477 142.141C87.207 142.508 87.4805 142.984 87.668 143.57C87.8555 144.148 87.9492 144.855 87.9492 145.691V154H85.7695V145.668C85.7695 145.004 85.6719 144.473 85.4766 144.074C85.2812 143.668 84.9961 143.375 84.6211 143.195C84.2461 143.008 83.7852 142.914 83.2383 142.914C82.6992 142.914 82.207 143.027 81.7617 143.254C81.3242 143.48 80.9453 143.793 80.625 144.191C80.3125 144.59 80.0664 145.047 79.8867 145.562C79.7148 146.07 79.6289 146.609 79.6289 147.18ZM99.457 141.32H101.426V153.73C101.426 154.848 101.199 155.801 100.746 156.59C100.293 157.379 99.6602 157.977 98.8477 158.383C98.043 158.797 97.1133 159.004 96.0586 159.004C95.6211 159.004 95.1055 158.934 94.5117 158.793C93.9258 158.66 93.3477 158.43 92.7773 158.102C92.2148 157.781 91.7422 157.348 91.3594 156.801L92.4961 155.512C93.0273 156.152 93.582 156.598 94.1602 156.848C94.7461 157.098 95.3242 157.223 95.8945 157.223C96.582 157.223 97.1758 157.094 97.6758 156.836C98.1758 156.578 98.5625 156.195 98.8359 155.688C99.1172 155.188 99.2578 154.57 99.2578 153.836V144.109L99.457 141.32ZM90.7266 147.801V147.555C90.7266 146.586 90.8398 145.707 91.0664 144.918C91.3008 144.121 91.6328 143.438 92.0625 142.867C92.5 142.297 93.0273 141.859 93.6445 141.555C94.2617 141.242 94.957 141.086 95.7305 141.086C96.5273 141.086 97.2227 141.227 97.8164 141.508C98.418 141.781 98.9258 142.184 99.3398 142.715C99.7617 143.238 100.094 143.871 100.336 144.613C100.578 145.355 100.746 146.195 100.84 147.133V148.211C100.754 149.141 100.586 149.977 100.336 150.719C100.094 151.461 99.7617 152.094 99.3398 152.617C98.9258 153.141 98.418 153.543 97.8164 153.824C97.2148 154.098 96.5117 154.234 95.707 154.234C94.9492 154.234 94.2617 154.074 93.6445 153.754C93.0352 153.434 92.5117 152.984 92.0742 152.406C91.6367 151.828 91.3008 151.148 91.0664 150.367C90.8398 149.578 90.7266 148.723 90.7266 147.801ZM92.8945 147.555V147.801C92.8945 148.434 92.957 149.027 93.082 149.582C93.2148 150.137 93.4141 150.625 93.6797 151.047C93.9531 151.469 94.3008 151.801 94.7227 152.043C95.1445 152.277 95.6484 152.395 96.2344 152.395C96.9531 152.395 97.5469 152.242 98.0156 151.938C98.4844 151.633 98.8555 151.23 99.1289 150.73C99.4102 150.23 99.6289 149.688 99.7852 149.102V146.277C99.6992 145.848 99.5664 145.434 99.3867 145.035C99.2148 144.629 98.9883 144.27 98.707 143.957C98.4336 143.637 98.0938 143.383 97.6875 143.195C97.2812 143.008 96.8047 142.914 96.2578 142.914C95.6641 142.914 95.1523 143.039 94.7227 143.289C94.3008 143.531 93.9531 143.867 93.6797 144.297C93.4141 144.719 93.2148 145.211 93.082 145.773C92.957 146.328 92.8945 146.922 92.8945 147.555ZM118.43 151.07V141.32H120.609V154H118.535L118.43 151.07ZM118.84 148.398L119.742 148.375C119.742 149.219 119.652 150 119.473 150.719C119.301 151.43 119.02 152.047 118.629 152.57C118.238 153.094 117.727 153.504 117.094 153.801C116.461 154.09 115.691 154.234 114.785 154.234C114.168 154.234 113.602 154.145 113.086 153.965C112.578 153.785 112.141 153.508 111.773 153.133C111.406 152.758 111.121 152.27 110.918 151.668C110.723 151.066 110.625 150.344 110.625 149.5V141.32H112.793V149.523C112.793 150.094 112.855 150.566 112.98 150.941C113.113 151.309 113.289 151.602 113.508 151.82C113.734 152.031 113.984 152.18 114.258 152.266C114.539 152.352 114.828 152.395 115.125 152.395C116.047 152.395 116.777 152.219 117.316 151.867C117.855 151.508 118.242 151.027 118.477 150.426C118.719 149.816 118.84 149.141 118.84 148.398ZM131.297 150.637C131.297 150.324 131.227 150.035 131.086 149.77C130.953 149.496 130.676 149.25 130.254 149.031C129.84 148.805 129.215 148.609 128.379 148.445C127.676 148.297 127.039 148.121 126.469 147.918C125.906 147.715 125.426 147.469 125.027 147.18C124.637 146.891 124.336 146.551 124.125 146.16C123.914 145.77 123.809 145.312 123.809 144.789C123.809 144.289 123.918 143.816 124.137 143.371C124.363 142.926 124.68 142.531 125.086 142.188C125.5 141.844 125.996 141.574 126.574 141.379C127.152 141.184 127.797 141.086 128.508 141.086C129.523 141.086 130.391 141.266 131.109 141.625C131.828 141.984 132.379 142.465 132.762 143.066C133.145 143.66 133.336 144.32 133.336 145.047H131.168C131.168 144.695 131.062 144.355 130.852 144.027C130.648 143.691 130.348 143.414 129.949 143.195C129.559 142.977 129.078 142.867 128.508 142.867C127.906 142.867 127.418 142.961 127.043 143.148C126.676 143.328 126.406 143.559 126.234 143.84C126.07 144.121 125.988 144.418 125.988 144.73C125.988 144.965 126.027 145.176 126.105 145.363C126.191 145.543 126.34 145.711 126.551 145.867C126.762 146.016 127.059 146.156 127.441 146.289C127.824 146.422 128.312 146.555 128.906 146.688C129.945 146.922 130.801 147.203 131.473 147.531C132.145 147.859 132.645 148.262 132.973 148.738C133.301 149.215 133.465 149.793 133.465 150.473C133.465 151.027 133.348 151.535 133.113 151.996C132.887 152.457 132.555 152.855 132.117 153.191C131.688 153.52 131.172 153.777 130.57 153.965C129.977 154.145 129.309 154.234 128.566 154.234C127.449 154.234 126.504 154.035 125.73 153.637C124.957 153.238 124.371 152.723 123.973 152.09C123.574 151.457 123.375 150.789 123.375 150.086H125.555C125.586 150.68 125.758 151.152 126.07 151.504C126.383 151.848 126.766 152.094 127.219 152.242C127.672 152.383 128.121 152.453 128.566 152.453C129.16 152.453 129.656 152.375 130.055 152.219C130.461 152.062 130.77 151.848 130.98 151.574C131.191 151.301 131.297 150.988 131.297 150.637ZM141.574 154.234C140.691 154.234 139.891 154.086 139.172 153.789C138.461 153.484 137.848 153.059 137.332 152.512C136.824 151.965 136.434 151.316 136.16 150.566C135.887 149.816 135.75 148.996 135.75 148.105V147.613C135.75 146.582 135.902 145.664 136.207 144.859C136.512 144.047 136.926 143.359 137.449 142.797C137.973 142.234 138.566 141.809 139.23 141.52C139.895 141.23 140.582 141.086 141.293 141.086C142.199 141.086 142.98 141.242 143.637 141.555C144.301 141.867 144.844 142.305 145.266 142.867C145.688 143.422 146 144.078 146.203 144.836C146.406 145.586 146.508 146.406 146.508 147.297V148.27H137.039V146.5H144.34V146.336C144.309 145.773 144.191 145.227 143.988 144.695C143.793 144.164 143.48 143.727 143.051 143.383C142.621 143.039 142.035 142.867 141.293 142.867C140.801 142.867 140.348 142.973 139.934 143.184C139.52 143.387 139.164 143.691 138.867 144.098C138.57 144.504 138.34 145 138.176 145.586C138.012 146.172 137.93 146.848 137.93 147.613V148.105C137.93 148.707 138.012 149.273 138.176 149.805C138.348 150.328 138.594 150.789 138.914 151.188C139.242 151.586 139.637 151.898 140.098 152.125C140.566 152.352 141.098 152.465 141.691 152.465C142.457 152.465 143.105 152.309 143.637 151.996C144.168 151.684 144.633 151.266 145.031 150.742L146.344 151.785C146.07 152.199 145.723 152.594 145.301 152.969C144.879 153.344 144.359 153.648 143.742 153.883C143.133 154.117 142.41 154.234 141.574 154.234ZM151.207 143.312V154H149.039V141.32H151.148L151.207 143.312ZM155.168 141.25L155.156 143.266C154.977 143.227 154.805 143.203 154.641 143.195C154.484 143.18 154.305 143.172 154.102 143.172C153.602 143.172 153.16 143.25 152.777 143.406C152.395 143.562 152.07 143.781 151.805 144.062C151.539 144.344 151.328 144.68 151.172 145.07C151.023 145.453 150.926 145.875 150.879 146.336L150.27 146.688C150.27 145.922 150.344 145.203 150.492 144.531C150.648 143.859 150.887 143.266 151.207 142.75C151.527 142.227 151.934 141.82 152.426 141.531C152.926 141.234 153.52 141.086 154.207 141.086C154.363 141.086 154.543 141.105 154.746 141.145C154.949 141.176 155.09 141.211 155.168 141.25Z" fill="#3C4043"/>
<path d="M236.625 5.9375V23H234.363V5.9375H236.625ZM242.578 13.0273V23H240.41V10.3203H242.461L242.578 13.0273ZM242.062 16.1797L241.16 16.1445C241.168 15.2773 241.297 14.4766 241.547 13.7422C241.797 13 242.148 12.3555 242.602 11.8086C243.055 11.2617 243.594 10.8398 244.219 10.543C244.852 10.2383 245.551 10.0859 246.316 10.0859C246.941 10.0859 247.504 10.1719 248.004 10.3438C248.504 10.5078 248.93 10.7734 249.281 11.1406C249.641 11.5078 249.914 11.9844 250.102 12.5703C250.289 13.1484 250.383 13.8555 250.383 14.6914V23H248.203V14.668C248.203 14.0039 248.105 13.4727 247.91 13.0742C247.715 12.668 247.43 12.375 247.055 12.1953C246.68 12.0078 246.219 11.9141 245.672 11.9141C245.133 11.9141 244.641 12.0273 244.195 12.2539C243.758 12.4805 243.379 12.793 243.059 13.1914C242.746 13.5898 242.5 14.0469 242.32 14.5625C242.148 15.0703 242.062 15.6094 242.062 16.1797ZM258.984 10.3203V11.9844H252.129V10.3203H258.984ZM254.449 7.23828H256.617V19.8594C256.617 20.2891 256.684 20.6133 256.816 20.832C256.949 21.0508 257.121 21.1953 257.332 21.2656C257.543 21.3359 257.77 21.3711 258.012 21.3711C258.191 21.3711 258.379 21.3555 258.574 21.3242C258.777 21.2852 258.93 21.2539 259.031 21.2305L259.043 23C258.871 23.0547 258.645 23.1055 258.363 23.1523C258.09 23.207 257.758 23.2344 257.367 23.2344C256.836 23.2344 256.348 23.1289 255.902 22.918C255.457 22.707 255.102 22.3555 254.836 21.8633C254.578 21.3633 254.449 20.6914 254.449 19.8477V7.23828ZM266.789 23.2344C265.906 23.2344 265.105 23.0859 264.387 22.7891C263.676 22.4844 263.062 22.0586 262.547 21.5117C262.039 20.9648 261.648 20.3164 261.375 19.5664C261.102 18.8164 260.965 17.9961 260.965 17.1055V16.6133C260.965 15.582 261.117 14.6641 261.422 13.8594C261.727 13.0469 262.141 12.3594 262.664 11.7969C263.188 11.2344 263.781 10.8086 264.445 10.5195C265.109 10.2305 265.797 10.0859 266.508 10.0859C267.414 10.0859 268.195 10.2422 268.852 10.5547C269.516 10.8672 270.059 11.3047 270.48 11.8672C270.902 12.4219 271.215 13.0781 271.418 13.8359C271.621 14.5859 271.723 15.4062 271.723 16.2969V17.2695H262.254V15.5H269.555V15.3359C269.523 14.7734 269.406 14.2266 269.203 13.6953C269.008 13.1641 268.695 12.7266 268.266 12.3828C267.836 12.0391 267.25 11.8672 266.508 11.8672C266.016 11.8672 265.562 11.9727 265.148 12.1836C264.734 12.3867 264.379 12.6914 264.082 13.0977C263.785 13.5039 263.555 14 263.391 14.5859C263.227 15.1719 263.145 15.8477 263.145 16.6133V17.1055C263.145 17.707 263.227 18.2734 263.391 18.8047C263.562 19.3281 263.809 19.7891 264.129 20.1875C264.457 20.5859 264.852 20.8984 265.312 21.125C265.781 21.3516 266.312 21.4648 266.906 21.4648C267.672 21.4648 268.32 21.3086 268.852 20.9961C269.383 20.6836 269.848 20.2656 270.246 19.7422L271.559 20.7852C271.285 21.1992 270.938 21.5938 270.516 21.9688C270.094 22.3438 269.574 22.6484 268.957 22.8828C268.348 23.1172 267.625 23.2344 266.789 23.2344ZM276.422 12.3125V23H274.254V10.3203H276.363L276.422 12.3125ZM280.383 10.25L280.371 12.2656C280.191 12.2266 280.02 12.2031 279.855 12.1953C279.699 12.1797 279.52 12.1719 279.316 12.1719C278.816 12.1719 278.375 12.25 277.992 12.4062C277.609 12.5625 277.285 12.7812 277.02 13.0625C276.754 13.3438 276.543 13.6797 276.387 14.0703C276.238 14.4531 276.141 14.875 276.094 15.3359L275.484 15.6875C275.484 14.9219 275.559 14.2031 275.707 13.5312C275.863 12.8594 276.102 12.2656 276.422 11.75C276.742 11.2266 277.148 10.8203 277.641 10.5312C278.141 10.2344 278.734 10.0859 279.422 10.0859C279.578 10.0859 279.758 10.1055 279.961 10.1445C280.164 10.1758 280.305 10.2109 280.383 10.25ZM286.453 21.043L289.922 10.3203H292.137L287.578 23H286.125L286.453 21.043ZM283.559 10.3203L287.133 21.1016L287.379 23H285.926L281.332 10.3203H283.559ZM296.578 10.3203V23H294.398V10.3203H296.578ZM294.234 6.95703C294.234 6.60547 294.34 6.30859 294.551 6.06641C294.77 5.82422 295.09 5.70312 295.512 5.70312C295.926 5.70312 296.242 5.82422 296.461 6.06641C296.688 6.30859 296.801 6.60547 296.801 6.95703C296.801 7.29297 296.688 7.58203 296.461 7.82422C296.242 8.05859 295.926 8.17578 295.512 8.17578C295.09 8.17578 294.77 8.05859 294.551 7.82422C294.34 7.58203 294.234 7.29297 294.234 6.95703ZM305.32 23.2344C304.438 23.2344 303.637 23.0859 302.918 22.7891C302.207 22.4844 301.594 22.0586 301.078 21.5117C300.57 20.9648 300.18 20.3164 299.906 19.5664C299.633 18.8164 299.496 17.9961 299.496 17.1055V16.6133C299.496 15.582 299.648 14.6641 299.953 13.8594C300.258 13.0469 300.672 12.3594 301.195 11.7969C301.719 11.2344 302.312 10.8086 302.977 10.5195C303.641 10.2305 304.328 10.0859 305.039 10.0859C305.945 10.0859 306.727 10.2422 307.383 10.5547C308.047 10.8672 308.59 11.3047 309.012 11.8672C309.434 12.4219 309.746 13.0781 309.949 13.8359C310.152 14.5859 310.254 15.4062 310.254 16.2969V17.2695H300.785V15.5H308.086V15.3359C308.055 14.7734 307.938 14.2266 307.734 13.6953C307.539 13.1641 307.227 12.7266 306.797 12.3828C306.367 12.0391 305.781 11.8672 305.039 11.8672C304.547 11.8672 304.094 11.9727 303.68 12.1836C303.266 12.3867 302.91 12.6914 302.613 13.0977C302.316 13.5039 302.086 14 301.922 14.5859C301.758 15.1719 301.676 15.8477 301.676 16.6133V17.1055C301.676 17.707 301.758 18.2734 301.922 18.8047C302.094 19.3281 302.34 19.7891 302.66 20.1875C302.988 20.5859 303.383 20.8984 303.844 21.125C304.312 21.3516 304.844 21.4648 305.438 21.4648C306.203 21.4648 306.852 21.3086 307.383 20.9961C307.914 20.6836 308.379 20.2656 308.777 19.7422L310.09 20.7852C309.816 21.1992 309.469 21.5938 309.047 21.9688C308.625 22.3438 308.105 22.6484 307.488 22.8828C306.879 23.1172 306.156 23.2344 305.32 23.2344ZM315.996 20.75L319.254 10.3203H320.684L320.402 12.3945L317.086 23H315.691L315.996 20.75ZM313.805 10.3203L316.582 20.8672L316.781 23H315.316L311.637 10.3203H313.805ZM323.801 20.7852L326.449 10.3203H328.605L324.926 23H323.473L323.801 20.7852ZM321 10.3203L324.188 20.5742L324.551 23H323.168L319.758 12.3711L319.477 10.3203H321ZM346.207 18.6875C346.207 18.2891 346.145 17.9375 346.02 17.6328C345.902 17.3203 345.691 17.0391 345.387 16.7891C345.09 16.5391 344.676 16.3008 344.145 16.0742C343.621 15.8477 342.957 15.6172 342.152 15.3828C341.309 15.1328 340.547 14.8555 339.867 14.5508C339.188 14.2383 338.605 13.8828 338.121 13.4844C337.637 13.0859 337.266 12.6289 337.008 12.1133C336.75 11.5977 336.621 11.0078 336.621 10.3438C336.621 9.67969 336.758 9.06641 337.031 8.50391C337.305 7.94141 337.695 7.45312 338.203 7.03906C338.719 6.61719 339.332 6.28906 340.043 6.05469C340.754 5.82031 341.547 5.70312 342.422 5.70312C343.703 5.70312 344.789 5.94922 345.68 6.44141C346.578 6.92578 347.262 7.5625 347.73 8.35156C348.199 9.13281 348.434 9.96875 348.434 10.8594H346.184C346.184 10.2188 346.047 9.65234 345.773 9.16016C345.5 8.66016 345.086 8.26953 344.531 7.98828C343.977 7.69922 343.273 7.55469 342.422 7.55469C341.617 7.55469 340.953 7.67578 340.43 7.91797C339.906 8.16016 339.516 8.48828 339.258 8.90234C339.008 9.31641 338.883 9.78906 338.883 10.3203C338.883 10.6797 338.957 11.0078 339.105 11.3047C339.262 11.5938 339.5 11.8633 339.82 12.1133C340.148 12.3633 340.562 12.5938 341.062 12.8047C341.57 13.0156 342.176 13.2188 342.879 13.4141C343.848 13.6875 344.684 13.9922 345.387 14.3281C346.09 14.6641 346.668 15.043 347.121 15.4648C347.582 15.8789 347.922 16.3516 348.141 16.8828C348.367 17.4062 348.48 18 348.48 18.6641C348.48 19.3594 348.34 19.9883 348.059 20.5508C347.777 21.1133 347.375 21.5938 346.852 21.9922C346.328 22.3906 345.699 22.6992 344.965 22.918C344.238 23.1289 343.426 23.2344 342.527 23.2344C341.738 23.2344 340.961 23.125 340.195 22.9062C339.438 22.6875 338.746 22.3594 338.121 21.9219C337.504 21.4844 337.008 20.9453 336.633 20.3047C336.266 19.6562 336.082 18.9062 336.082 18.0547H338.332C338.332 18.6406 338.445 19.1445 338.672 19.5664C338.898 19.9805 339.207 20.3242 339.598 20.5977C339.996 20.8711 340.445 21.0742 340.945 21.207C341.453 21.332 341.98 21.3945 342.527 21.3945C343.316 21.3945 343.984 21.2852 344.531 21.0664C345.078 20.8477 345.492 20.5352 345.773 20.1289C346.062 19.7227 346.207 19.2422 346.207 18.6875ZM356.344 10.3203V11.9844H349.488V10.3203H356.344ZM351.809 7.23828H353.977V19.8594C353.977 20.2891 354.043 20.6133 354.176 20.832C354.309 21.0508 354.48 21.1953 354.691 21.2656C354.902 21.3359 355.129 21.3711 355.371 21.3711C355.551 21.3711 355.738 21.3555 355.934 21.3242C356.137 21.2852 356.289 21.2539 356.391 21.2305L356.402 23C356.23 23.0547 356.004 23.1055 355.723 23.1523C355.449 23.207 355.117 23.2344 354.727 23.2344C354.195 23.2344 353.707 23.1289 353.262 22.918C352.816 22.707 352.461 22.3555 352.195 21.8633C351.938 21.3633 351.809 20.6914 351.809 19.8477V7.23828ZM366.363 20.832V14.3047C366.363 13.8047 366.262 13.3711 366.059 13.0039C365.863 12.6289 365.566 12.3398 365.168 12.1367C364.77 11.9336 364.277 11.832 363.691 11.832C363.145 11.832 362.664 11.9258 362.25 12.1133C361.844 12.3008 361.523 12.5469 361.289 12.8516C361.062 13.1562 360.949 13.4844 360.949 13.8359H358.781C358.781 13.3828 358.898 12.9336 359.133 12.4883C359.367 12.043 359.703 11.6406 360.141 11.2812C360.586 10.9141 361.117 10.625 361.734 10.4141C362.359 10.1953 363.055 10.0859 363.82 10.0859C364.742 10.0859 365.555 10.2422 366.258 10.5547C366.969 10.8672 367.523 11.3398 367.922 11.9727C368.328 12.5977 368.531 13.3828 368.531 14.3281V20.2344C368.531 20.6562 368.566 21.1055 368.637 21.582C368.715 22.0586 368.828 22.4688 368.977 22.8125V23H366.715C366.605 22.75 366.52 22.418 366.457 22.0039C366.395 21.582 366.363 21.1914 366.363 20.832ZM366.738 15.3125L366.762 16.8359H364.57C363.953 16.8359 363.402 16.8867 362.918 16.9883C362.434 17.082 362.027 17.2266 361.699 17.4219C361.371 17.6172 361.121 17.8633 360.949 18.1602C360.777 18.4492 360.691 18.7891 360.691 19.1797C360.691 19.5781 360.781 19.9414 360.961 20.2695C361.141 20.5977 361.41 20.8594 361.77 21.0547C362.137 21.2422 362.586 21.3359 363.117 21.3359C363.781 21.3359 364.367 21.1953 364.875 20.9141C365.383 20.6328 365.785 20.2891 366.082 19.8828C366.387 19.4766 366.551 19.082 366.574 18.6992L367.5 19.7422C367.445 20.0703 367.297 20.4336 367.055 20.832C366.812 21.2305 366.488 21.6133 366.082 21.9805C365.684 22.3398 365.207 22.6406 364.652 22.8828C364.105 23.1172 363.488 23.2344 362.801 23.2344C361.941 23.2344 361.188 23.0664 360.539 22.7305C359.898 22.3945 359.398 21.9453 359.039 21.3828C358.688 20.8125 358.512 20.1758 358.512 19.4727C358.512 18.793 358.645 18.1953 358.91 17.6797C359.176 17.1562 359.559 16.7227 360.059 16.3789C360.559 16.0273 361.16 15.7617 361.863 15.582C362.566 15.4023 363.352 15.3125 364.219 15.3125H366.738ZM377.25 10.3203V11.9844H370.395V10.3203H377.25ZM372.715 7.23828H374.883V19.8594C374.883 20.2891 374.949 20.6133 375.082 20.832C375.215 21.0508 375.387 21.1953 375.598 21.2656C375.809 21.3359 376.035 21.3711 376.277 21.3711C376.457 21.3711 376.645 21.3555 376.84 21.3242C377.043 21.2852 377.195 21.2539 377.297 21.2305L377.309 23C377.137 23.0547 376.91 23.1055 376.629 23.1523C376.355 23.207 376.023 23.2344 375.633 23.2344C375.102 23.2344 374.613 23.1289 374.168 22.918C373.723 22.707 373.367 22.3555 373.102 21.8633C372.844 21.3633 372.715 20.6914 372.715 19.8477V7.23828ZM387.551 20.0703V10.3203H389.73V23H387.656L387.551 20.0703ZM387.961 17.3984L388.863 17.375C388.863 18.2188 388.773 19 388.594 19.7188C388.422 20.4297 388.141 21.0469 387.75 21.5703C387.359 22.0938 386.848 22.5039 386.215 22.8008C385.582 23.0898 384.812 23.2344 383.906 23.2344C383.289 23.2344 382.723 23.1445 382.207 22.9648C381.699 22.7852 381.262 22.5078 380.895 22.1328C380.527 21.7578 380.242 21.2695 380.039 20.668C379.844 20.0664 379.746 19.3438 379.746 18.5V10.3203H381.914V18.5234C381.914 19.0938 381.977 19.5664 382.102 19.9414C382.234 20.3086 382.41 20.6016 382.629 20.8203C382.855 21.0312 383.105 21.1797 383.379 21.2656C383.66 21.3516 383.949 21.3945 384.246 21.3945C385.168 21.3945 385.898 21.2188 386.438 20.8672C386.977 20.5078 387.363 20.0273 387.598 19.4258C387.84 18.8164 387.961 18.1406 387.961 17.3984ZM400.418 19.6367C400.418 19.3242 400.348 19.0352 400.207 18.7695C400.074 18.4961 399.797 18.25 399.375 18.0312C398.961 17.8047 398.336 17.6094 397.5 17.4453C396.797 17.2969 396.16 17.1211 395.59 16.918C395.027 16.7148 394.547 16.4688 394.148 16.1797C393.758 15.8906 393.457 15.5508 393.246 15.1602C393.035 14.7695 392.93 14.3125 392.93 13.7891C392.93 13.2891 393.039 12.8164 393.258 12.3711C393.484 11.9258 393.801 11.5312 394.207 11.1875C394.621 10.8438 395.117 10.5742 395.695 10.3789C396.273 10.1836 396.918 10.0859 397.629 10.0859C398.645 10.0859 399.512 10.2656 400.23 10.625C400.949 10.9844 401.5 11.4648 401.883 12.0664C402.266 12.6602 402.457 13.3203 402.457 14.0469H400.289C400.289 13.6953 400.184 13.3555 399.973 13.0273C399.77 12.6914 399.469 12.4141 399.07 12.1953C398.68 11.9766 398.199 11.8672 397.629 11.8672C397.027 11.8672 396.539 11.9609 396.164 12.1484C395.797 12.3281 395.527 12.5586 395.355 12.8398C395.191 13.1211 395.109 13.418 395.109 13.7305C395.109 13.9648 395.148 14.1758 395.227 14.3633C395.312 14.543 395.461 14.7109 395.672 14.8672C395.883 15.0156 396.18 15.1562 396.562 15.2891C396.945 15.4219 397.434 15.5547 398.027 15.6875C399.066 15.9219 399.922 16.2031 400.594 16.5312C401.266 16.8594 401.766 17.2617 402.094 17.7383C402.422 18.2148 402.586 18.793 402.586 19.4727C402.586 20.0273 402.469 20.5352 402.234 20.9961C402.008 21.457 401.676 21.8555 401.238 22.1914C400.809 22.5195 400.293 22.7773 399.691 22.9648C399.098 23.1445 398.43 23.2344 397.688 23.2344C396.57 23.2344 395.625 23.0352 394.852 22.6367C394.078 22.2383 393.492 21.7227 393.094 21.0898C392.695 20.457 392.496 19.7891 392.496 19.0859H394.676C394.707 19.6797 394.879 20.1523 395.191 20.5039C395.504 20.8477 395.887 21.0938 396.34 21.2422C396.793 21.3828 397.242 21.4531 397.688 21.4531C398.281 21.4531 398.777 21.375 399.176 21.2188C399.582 21.0625 399.891 20.8477 400.102 20.5742C400.312 20.3008 400.418 19.9883 400.418 19.6367Z" fill="#3C4043"/>
<path d="M236.285 71.5742H238.535C238.418 72.6523 238.109 73.6172 237.609 74.4688C237.109 75.3203 236.402 75.9961 235.488 76.4961C234.574 76.9883 233.434 77.2344 232.066 77.2344C231.066 77.2344 230.156 77.0469 229.336 76.6719C228.523 76.2969 227.824 75.7656 227.238 75.0781C226.652 74.3828 226.199 73.5508 225.879 72.582C225.566 71.6055 225.41 70.5195 225.41 69.3242V67.625C225.41 66.4297 225.566 65.3477 225.879 64.3789C226.199 63.4023 226.656 62.5664 227.25 61.8711C227.852 61.1758 228.574 60.6406 229.418 60.2656C230.262 59.8906 231.211 59.7031 232.266 59.7031C233.555 59.7031 234.645 59.9453 235.535 60.4297C236.426 60.9141 237.117 61.5859 237.609 62.4453C238.109 63.2969 238.418 64.2852 238.535 65.4102H236.285C236.176 64.6133 235.973 63.9297 235.676 63.3594C235.379 62.7812 234.957 62.3359 234.41 62.0234C233.863 61.7109 233.148 61.5547 232.266 61.5547C231.508 61.5547 230.84 61.6992 230.262 61.9883C229.691 62.2773 229.211 62.6875 228.82 63.2188C228.438 63.75 228.148 64.3867 227.953 65.1289C227.758 65.8711 227.66 66.6953 227.66 67.6016V69.3242C227.66 70.1602 227.746 70.9453 227.918 71.6797C228.098 72.4141 228.367 73.0586 228.727 73.6133C229.086 74.168 229.543 74.6055 230.098 74.9258C230.652 75.2383 231.309 75.3945 232.066 75.3945C233.027 75.3945 233.793 75.2422 234.363 74.9375C234.934 74.6328 235.363 74.1953 235.652 73.625C235.949 73.0547 236.16 72.3711 236.285 71.5742ZM240.715 70.8008V70.5312C240.715 69.6172 240.848 68.7695 241.113 67.9883C241.379 67.1992 241.762 66.5156 242.262 65.9375C242.762 65.3516 243.367 64.8984 244.078 64.5781C244.789 64.25 245.586 64.0859 246.469 64.0859C247.359 64.0859 248.16 64.25 248.871 64.5781C249.59 64.8984 250.199 65.3516 250.699 65.9375C251.207 66.5156 251.594 67.1992 251.859 67.9883C252.125 68.7695 252.258 69.6172 252.258 70.5312V70.8008C252.258 71.7148 252.125 72.5625 251.859 73.3438C251.594 74.125 251.207 74.8086 250.699 75.3945C250.199 75.9727 249.594 76.4258 248.883 76.7539C248.18 77.0742 247.383 77.2344 246.492 77.2344C245.602 77.2344 244.801 77.0742 244.09 76.7539C243.379 76.4258 242.77 75.9727 242.262 75.3945C241.762 74.8086 241.379 74.125 241.113 73.3438C240.848 72.5625 240.715 71.7148 240.715 70.8008ZM242.883 70.5312V70.8008C242.883 71.4336 242.957 72.0312 243.105 72.5938C243.254 73.1484 243.477 73.6406 243.773 74.0703C244.078 74.5 244.457 74.8398 244.91 75.0898C245.363 75.332 245.891 75.4531 246.492 75.4531C247.086 75.4531 247.605 75.332 248.051 75.0898C248.504 74.8398 248.879 74.5 249.176 74.0703C249.473 73.6406 249.695 73.1484 249.844 72.5938C250 72.0312 250.078 71.4336 250.078 70.8008V70.5312C250.078 69.9062 250 69.3164 249.844 68.7617C249.695 68.1992 249.469 67.7031 249.164 67.2734C248.867 66.8359 248.492 66.4922 248.039 66.2422C247.594 65.9922 247.07 65.8672 246.469 65.8672C245.875 65.8672 245.352 65.9922 244.898 66.2422C244.453 66.4922 244.078 66.8359 243.773 67.2734C243.477 67.7031 243.254 68.1992 243.105 68.7617C242.957 69.3164 242.883 69.9062 242.883 70.5312ZM257.145 67.0273V77H254.977V64.3203H257.027L257.145 67.0273ZM256.629 70.1797L255.727 70.1445C255.734 69.2773 255.863 68.4766 256.113 67.7422C256.363 67 256.715 66.3555 257.168 65.8086C257.621 65.2617 258.16 64.8398 258.785 64.543C259.418 64.2383 260.117 64.0859 260.883 64.0859C261.508 64.0859 262.07 64.1719 262.57 64.3438C263.07 64.5078 263.496 64.7734 263.848 65.1406C264.207 65.5078 264.48 65.9844 264.668 66.5703C264.855 67.1484 264.949 67.8555 264.949 68.6914V77H262.77V68.668C262.77 68.0039 262.672 67.4727 262.477 67.0742C262.281 66.668 261.996 66.375 261.621 66.1953C261.246 66.0078 260.785 65.9141 260.238 65.9141C259.699 65.9141 259.207 66.0273 258.762 66.2539C258.324 66.4805 257.945 66.793 257.625 67.1914C257.312 67.5898 257.066 68.0469 256.887 68.5625C256.715 69.0703 256.629 69.6094 256.629 70.1797ZM271.137 77H268.969V63.2188C268.969 62.2578 269.156 61.4453 269.531 60.7812C269.906 60.1172 270.441 59.6133 271.137 59.2695C271.832 58.9258 272.656 58.7539 273.609 58.7539C274.172 58.7539 274.723 58.8242 275.262 58.9648C275.801 59.0977 276.355 59.2656 276.926 59.4688L276.562 61.2969C276.203 61.1562 275.785 61.0234 275.309 60.8984C274.84 60.7656 274.324 60.6992 273.762 60.6992C272.832 60.6992 272.16 60.9102 271.746 61.332C271.34 61.7461 271.137 62.375 271.137 63.2188V77ZM273.727 64.3203V65.9844H266.965V64.3203H273.727ZM277.992 64.3203V77H275.824V64.3203H277.992ZM283.723 66.3125V77H281.555V64.3203H283.664L283.723 66.3125ZM287.684 64.25L287.672 66.2656C287.492 66.2266 287.32 66.2031 287.156 66.1953C287 66.1797 286.82 66.1719 286.617 66.1719C286.117 66.1719 285.676 66.25 285.293 66.4062C284.91 66.5625 284.586 66.7812 284.32 67.0625C284.055 67.3438 283.844 67.6797 283.688 68.0703C283.539 68.4531 283.441 68.875 283.395 69.3359L282.785 69.6875C282.785 68.9219 282.859 68.2031 283.008 67.5312C283.164 66.8594 283.402 66.2656 283.723 65.75C284.043 65.2266 284.449 64.8203 284.941 64.5312C285.441 64.2344 286.035 64.0859 286.723 64.0859C286.879 64.0859 287.059 64.1055 287.262 64.1445C287.465 64.1758 287.605 64.2109 287.684 64.25ZM291.844 66.8398V77H289.664V64.3203H291.727L291.844 66.8398ZM291.398 70.1797L290.391 70.1445C290.398 69.2773 290.512 68.4766 290.73 67.7422C290.949 67 291.273 66.3555 291.703 65.8086C292.133 65.2617 292.668 64.8398 293.309 64.543C293.949 64.2383 294.691 64.0859 295.535 64.0859C296.129 64.0859 296.676 64.1719 297.176 64.3438C297.676 64.5078 298.109 64.7695 298.477 65.1289C298.844 65.4883 299.129 65.9492 299.332 66.5117C299.535 67.0742 299.637 67.7539 299.637 68.5508V77H297.469V68.6562C297.469 67.9922 297.355 67.4609 297.129 67.0625C296.91 66.6641 296.598 66.375 296.191 66.1953C295.785 66.0078 295.309 65.9141 294.762 65.9141C294.121 65.9141 293.586 66.0273 293.156 66.2539C292.727 66.4805 292.383 66.793 292.125 67.1914C291.867 67.5898 291.68 68.0469 291.562 68.5625C291.453 69.0703 291.398 69.6094 291.398 70.1797ZM299.613 68.9844L298.16 69.4297C298.168 68.7344 298.281 68.0664 298.5 67.4258C298.727 66.7852 299.051 66.2148 299.473 65.7148C299.902 65.2148 300.43 64.8203 301.055 64.5312C301.68 64.2344 302.395 64.0859 303.199 64.0859C303.879 64.0859 304.48 64.1758 305.004 64.3555C305.535 64.5352 305.98 64.8125 306.34 65.1875C306.707 65.5547 306.984 66.0273 307.172 66.6055C307.359 67.1836 307.453 67.8711 307.453 68.668V77H305.273V68.6445C305.273 67.9336 305.16 67.3828 304.934 66.9922C304.715 66.5938 304.402 66.3164 303.996 66.1602C303.598 65.9961 303.121 65.9141 302.566 65.9141C302.09 65.9141 301.668 65.9961 301.301 66.1602C300.934 66.3242 300.625 66.5508 300.375 66.8398C300.125 67.1211 299.934 67.4453 299.801 67.8125C299.676 68.1797 299.613 68.5703 299.613 68.9844ZM319.441 59.9375V77H317.18V59.9375H319.441ZM325.395 67.0273V77H323.227V64.3203H325.277L325.395 67.0273ZM324.879 70.1797L323.977 70.1445C323.984 69.2773 324.113 68.4766 324.363 67.7422C324.613 67 324.965 66.3555 325.418 65.8086C325.871 65.2617 326.41 64.8398 327.035 64.543C327.668 64.2383 328.367 64.0859 329.133 64.0859C329.758 64.0859 330.32 64.1719 330.82 64.3438C331.32 64.5078 331.746 64.7734 332.098 65.1406C332.457 65.5078 332.73 65.9844 332.918 66.5703C333.105 67.1484 333.199 67.8555 333.199 68.6914V77H331.02V68.668C331.02 68.0039 330.922 67.4727 330.727 67.0742C330.531 66.668 330.246 66.375 329.871 66.1953C329.496 66.0078 329.035 65.9141 328.488 65.9141C327.949 65.9141 327.457 66.0273 327.012 66.2539C326.574 66.4805 326.195 66.793 325.875 67.1914C325.562 67.5898 325.316 68.0469 325.137 68.5625C324.965 69.0703 324.879 69.6094 324.879 70.1797ZM341.801 64.3203V65.9844H334.945V64.3203H341.801ZM337.266 61.2383H339.434V73.8594C339.434 74.2891 339.5 74.6133 339.633 74.832C339.766 75.0508 339.938 75.1953 340.148 75.2656C340.359 75.3359 340.586 75.3711 340.828 75.3711C341.008 75.3711 341.195 75.3555 341.391 75.3242C341.594 75.2852 341.746 75.2539 341.848 75.2305L341.859 77C341.688 77.0547 341.461 77.1055 341.18 77.1523C340.906 77.207 340.574 77.2344 340.184 77.2344C339.652 77.2344 339.164 77.1289 338.719 76.918C338.273 76.707 337.918 76.3555 337.652 75.8633C337.395 75.3633 337.266 74.6914 337.266 73.8477V61.2383ZM349.605 77.2344C348.723 77.2344 347.922 77.0859 347.203 76.7891C346.492 76.4844 345.879 76.0586 345.363 75.5117C344.855 74.9648 344.465 74.3164 344.191 73.5664C343.918 72.8164 343.781 71.9961 343.781 71.1055V70.6133C343.781 69.582 343.934 68.6641 344.238 67.8594C344.543 67.0469 344.957 66.3594 345.48 65.7969C346.004 65.2344 346.598 64.8086 347.262 64.5195C347.926 64.2305 348.613 64.0859 349.324 64.0859C350.23 64.0859 351.012 64.2422 351.668 64.5547C352.332 64.8672 352.875 65.3047 353.297 65.8672C353.719 66.4219 354.031 67.0781 354.234 67.8359C354.438 68.5859 354.539 69.4062 354.539 70.2969V71.2695H345.07V69.5H352.371V69.3359C352.34 68.7734 352.223 68.2266 352.02 67.6953C351.824 67.1641 351.512 66.7266 351.082 66.3828C350.652 66.0391 350.066 65.8672 349.324 65.8672C348.832 65.8672 348.379 65.9727 347.965 66.1836C347.551 66.3867 347.195 66.6914 346.898 67.0977C346.602 67.5039 346.371 68 346.207 68.5859C346.043 69.1719 345.961 69.8477 345.961 70.6133V71.1055C345.961 71.707 346.043 72.2734 346.207 72.8047C346.379 73.3281 346.625 73.7891 346.945 74.1875C347.273 74.5859 347.668 74.8984 348.129 75.125C348.598 75.3516 349.129 75.4648 349.723 75.4648C350.488 75.4648 351.137 75.3086 351.668 74.9961C352.199 74.6836 352.664 74.2656 353.062 73.7422L354.375 74.7852C354.102 75.1992 353.754 75.5938 353.332 75.9688C352.91 76.3438 352.391 76.6484 351.773 76.8828C351.164 77.1172 350.441 77.2344 349.605 77.2344ZM359.238 66.3125V77H357.07V64.3203H359.18L359.238 66.3125ZM363.199 64.25L363.188 66.2656C363.008 66.2266 362.836 66.2031 362.672 66.1953C362.516 66.1797 362.336 66.1719 362.133 66.1719C361.633 66.1719 361.191 66.25 360.809 66.4062C360.426 66.5625 360.102 66.7812 359.836 67.0625C359.57 67.3438 359.359 67.6797 359.203 68.0703C359.055 68.4531 358.957 68.875 358.91 69.3359L358.301 69.6875C358.301 68.9219 358.375 68.2031 358.523 67.5312C358.68 66.8594 358.918 66.2656 359.238 65.75C359.559 65.2266 359.965 64.8203 360.457 64.5312C360.957 64.2344 361.551 64.0859 362.238 64.0859C362.395 64.0859 362.574 64.1055 362.777 64.1445C362.98 64.1758 363.121 64.2109 363.199 64.25ZM369.27 75.043L372.738 64.3203H374.953L370.395 77H368.941L369.27 75.043ZM366.375 64.3203L369.949 75.1016L370.195 77H368.742L364.148 64.3203H366.375ZM379.395 64.3203V77H377.215V64.3203H379.395ZM377.051 60.957C377.051 60.6055 377.156 60.3086 377.367 60.0664C377.586 59.8242 377.906 59.7031 378.328 59.7031C378.742 59.7031 379.059 59.8242 379.277 60.0664C379.504 60.3086 379.617 60.6055 379.617 60.957C379.617 61.293 379.504 61.582 379.277 61.8242C379.059 62.0586 378.742 62.1758 378.328 62.1758C377.906 62.1758 377.586 62.0586 377.367 61.8242C377.156 61.582 377.051 61.293 377.051 60.957ZM388.137 77.2344C387.254 77.2344 386.453 77.0859 385.734 76.7891C385.023 76.4844 384.41 76.0586 383.895 75.5117C383.387 74.9648 382.996 74.3164 382.723 73.5664C382.449 72.8164 382.312 71.9961 382.312 71.1055V70.6133C382.312 69.582 382.465 68.6641 382.77 67.8594C383.074 67.0469 383.488 66.3594 384.012 65.7969C384.535 65.2344 385.129 64.8086 385.793 64.5195C386.457 64.2305 387.145 64.0859 387.855 64.0859C388.762 64.0859 389.543 64.2422 390.199 64.5547C390.863 64.8672 391.406 65.3047 391.828 65.8672C392.25 66.4219 392.562 67.0781 392.766 67.8359C392.969 68.5859 393.07 69.4062 393.07 70.2969V71.2695H383.602V69.5H390.902V69.3359C390.871 68.7734 390.754 68.2266 390.551 67.6953C390.355 67.1641 390.043 66.7266 389.613 66.3828C389.184 66.0391 388.598 65.8672 387.855 65.8672C387.363 65.8672 386.91 65.9727 386.496 66.1836C386.082 66.3867 385.727 66.6914 385.43 67.0977C385.133 67.5039 384.902 68 384.738 68.5859C384.574 69.1719 384.492 69.8477 384.492 70.6133V71.1055C384.492 71.707 384.574 72.2734 384.738 72.8047C384.91 73.3281 385.156 73.7891 385.477 74.1875C385.805 74.5859 386.199 74.8984 386.66 75.125C387.129 75.3516 387.66 75.4648 388.254 75.4648C389.02 75.4648 389.668 75.3086 390.199 74.9961C390.73 74.6836 391.195 74.2656 391.594 73.7422L392.906 74.7852C392.633 75.1992 392.285 75.5938 391.863 75.9688C391.441 76.3438 390.922 76.6484 390.305 76.8828C389.695 77.1172 388.973 77.2344 388.137 77.2344ZM398.812 74.75L402.07 64.3203H403.5L403.219 66.3945L399.902 77H398.508L398.812 74.75ZM396.621 64.3203L399.398 74.8672L399.598 77H398.133L394.453 64.3203H396.621ZM406.617 74.7852L409.266 64.3203H411.422L407.742 77H406.289L406.617 74.7852ZM403.816 64.3203L407.004 74.5742L407.367 77H405.984L402.574 66.3711L402.293 64.3203H403.816Z" fill="#3C4043"/>
<path d="M235.43 113.938H241.078C242.359 113.938 243.441 114.133 244.324 114.523C245.215 114.914 245.891 115.492 246.352 116.258C246.82 117.016 247.055 117.949 247.055 119.059C247.055 119.84 246.895 120.555 246.574 121.203C246.262 121.844 245.809 122.391 245.215 122.844C244.629 123.289 243.926 123.621 243.105 123.84L242.473 124.086H237.164L237.141 122.246H241.148C241.961 122.246 242.637 122.105 243.176 121.824C243.715 121.535 244.121 121.148 244.395 120.664C244.668 120.18 244.805 119.645 244.805 119.059C244.805 118.402 244.676 117.828 244.418 117.336C244.16 116.844 243.754 116.465 243.199 116.199C242.652 115.926 241.945 115.789 241.078 115.789H237.691V131H235.43V113.938ZM245.402 131L241.254 123.266L243.609 123.254L247.816 130.859V131H245.402ZM255.152 131.234C254.27 131.234 253.469 131.086 252.75 130.789C252.039 130.484 251.426 130.059 250.91 129.512C250.402 128.965 250.012 128.316 249.738 127.566C249.465 126.816 249.328 125.996 249.328 125.105V124.613C249.328 123.582 249.48 122.664 249.785 121.859C250.09 121.047 250.504 120.359 251.027 119.797C251.551 119.234 252.145 118.809 252.809 118.52C253.473 118.23 254.16 118.086 254.871 118.086C255.777 118.086 256.559 118.242 257.215 118.555C257.879 118.867 258.422 119.305 258.844 119.867C259.266 120.422 259.578 121.078 259.781 121.836C259.984 122.586 260.086 123.406 260.086 124.297V125.27H250.617V123.5H257.918V123.336C257.887 122.773 257.77 122.227 257.566 121.695C257.371 121.164 257.059 120.727 256.629 120.383C256.199 120.039 255.613 119.867 254.871 119.867C254.379 119.867 253.926 119.973 253.512 120.184C253.098 120.387 252.742 120.691 252.445 121.098C252.148 121.504 251.918 122 251.754 122.586C251.59 123.172 251.508 123.848 251.508 124.613V125.105C251.508 125.707 251.59 126.273 251.754 126.805C251.926 127.328 252.172 127.789 252.492 128.188C252.82 128.586 253.215 128.898 253.676 129.125C254.145 129.352 254.676 129.465 255.27 129.465C256.035 129.465 256.684 129.309 257.215 128.996C257.746 128.684 258.211 128.266 258.609 127.742L259.922 128.785C259.648 129.199 259.301 129.594 258.879 129.969C258.457 130.344 257.938 130.648 257.32 130.883C256.711 131.117 255.988 131.234 255.152 131.234ZM270 127.637C270 127.324 269.93 127.035 269.789 126.77C269.656 126.496 269.379 126.25 268.957 126.031C268.543 125.805 267.918 125.609 267.082 125.445C266.379 125.297 265.742 125.121 265.172 124.918C264.609 124.715 264.129 124.469 263.73 124.18C263.34 123.891 263.039 123.551 262.828 123.16C262.617 122.77 262.512 122.312 262.512 121.789C262.512 121.289 262.621 120.816 262.84 120.371C263.066 119.926 263.383 119.531 263.789 119.188C264.203 118.844 264.699 118.574 265.277 118.379C265.855 118.184 266.5 118.086 267.211 118.086C268.227 118.086 269.094 118.266 269.812 118.625C270.531 118.984 271.082 119.465 271.465 120.066C271.848 120.66 272.039 121.32 272.039 122.047H269.871C269.871 121.695 269.766 121.355 269.555 121.027C269.352 120.691 269.051 120.414 268.652 120.195C268.262 119.977 267.781 119.867 267.211 119.867C266.609 119.867 266.121 119.961 265.746 120.148C265.379 120.328 265.109 120.559 264.938 120.84C264.773 121.121 264.691 121.418 264.691 121.73C264.691 121.965 264.73 122.176 264.809 122.363C264.895 122.543 265.043 122.711 265.254 122.867C265.465 123.016 265.762 123.156 266.145 123.289C266.527 123.422 267.016 123.555 267.609 123.688C268.648 123.922 269.504 124.203 270.176 124.531C270.848 124.859 271.348 125.262 271.676 125.738C272.004 126.215 272.168 126.793 272.168 127.473C272.168 128.027 272.051 128.535 271.816 128.996C271.59 129.457 271.258 129.855 270.82 130.191C270.391 130.52 269.875 130.777 269.273 130.965C268.68 131.145 268.012 131.234 267.27 131.234C266.152 131.234 265.207 131.035 264.434 130.637C263.66 130.238 263.074 129.723 262.676 129.09C262.277 128.457 262.078 127.789 262.078 127.086H264.258C264.289 127.68 264.461 128.152 264.773 128.504C265.086 128.848 265.469 129.094 265.922 129.242C266.375 129.383 266.824 129.453 267.27 129.453C267.863 129.453 268.359 129.375 268.758 129.219C269.164 129.062 269.473 128.848 269.684 128.574C269.895 128.301 270 127.988 270 127.637ZM282.773 128.07V118.32H284.953V131H282.879L282.773 128.07ZM283.184 125.398L284.086 125.375C284.086 126.219 283.996 127 283.816 127.719C283.645 128.43 283.363 129.047 282.973 129.57C282.582 130.094 282.07 130.504 281.438 130.801C280.805 131.09 280.035 131.234 279.129 131.234C278.512 131.234 277.945 131.145 277.43 130.965C276.922 130.785 276.484 130.508 276.117 130.133C275.75 129.758 275.465 129.27 275.262 128.668C275.066 128.066 274.969 127.344 274.969 126.5V118.32H277.137V126.523C277.137 127.094 277.199 127.566 277.324 127.941C277.457 128.309 277.633 128.602 277.852 128.82C278.078 129.031 278.328 129.18 278.602 129.266C278.883 129.352 279.172 129.395 279.469 129.395C280.391 129.395 281.121 129.219 281.66 128.867C282.199 128.508 282.586 128.027 282.82 127.426C283.062 126.816 283.184 126.141 283.184 125.398ZM290.414 120.84V131H288.234V118.32H290.297L290.414 120.84ZM289.969 124.18L288.961 124.145C288.969 123.277 289.082 122.477 289.301 121.742C289.52 121 289.844 120.355 290.273 119.809C290.703 119.262 291.238 118.84 291.879 118.543C292.52 118.238 293.262 118.086 294.105 118.086C294.699 118.086 295.246 118.172 295.746 118.344C296.246 118.508 296.68 118.77 297.047 119.129C297.414 119.488 297.699 119.949 297.902 120.512C298.105 121.074 298.207 121.754 298.207 122.551V131H296.039V122.656C296.039 121.992 295.926 121.461 295.699 121.062C295.48 120.664 295.168 120.375 294.762 120.195C294.355 120.008 293.879 119.914 293.332 119.914C292.691 119.914 292.156 120.027 291.727 120.254C291.297 120.48 290.953 120.793 290.695 121.191C290.438 121.59 290.25 122.047 290.133 122.562C290.023 123.07 289.969 123.609 289.969 124.18ZM298.184 122.984L296.73 123.43C296.738 122.734 296.852 122.066 297.07 121.426C297.297 120.785 297.621 120.215 298.043 119.715C298.473 119.215 299 118.82 299.625 118.531C300.25 118.234 300.965 118.086 301.77 118.086C302.449 118.086 303.051 118.176 303.574 118.355C304.105 118.535 304.551 118.812 304.91 119.188C305.277 119.555 305.555 120.027 305.742 120.605C305.93 121.184 306.023 121.871 306.023 122.668V131H303.844V122.645C303.844 121.934 303.73 121.383 303.504 120.992C303.285 120.594 302.973 120.316 302.566 120.16C302.168 119.996 301.691 119.914 301.137 119.914C300.66 119.914 300.238 119.996 299.871 120.16C299.504 120.324 299.195 120.551 298.945 120.84C298.695 121.121 298.504 121.445 298.371 121.812C298.246 122.18 298.184 122.57 298.184 122.984ZM314.566 131.234C313.684 131.234 312.883 131.086 312.164 130.789C311.453 130.484 310.84 130.059 310.324 129.512C309.816 128.965 309.426 128.316 309.152 127.566C308.879 126.816 308.742 125.996 308.742 125.105V124.613C308.742 123.582 308.895 122.664 309.199 121.859C309.504 121.047 309.918 120.359 310.441 119.797C310.965 119.234 311.559 118.809 312.223 118.52C312.887 118.23 313.574 118.086 314.285 118.086C315.191 118.086 315.973 118.242 316.629 118.555C317.293 118.867 317.836 119.305 318.258 119.867C318.68 120.422 318.992 121.078 319.195 121.836C319.398 122.586 319.5 123.406 319.5 124.297V125.27H310.031V123.5H317.332V123.336C317.301 122.773 317.184 122.227 316.98 121.695C316.785 121.164 316.473 120.727 316.043 120.383C315.613 120.039 315.027 119.867 314.285 119.867C313.793 119.867 313.34 119.973 312.926 120.184C312.512 120.387 312.156 120.691 311.859 121.098C311.562 121.504 311.332 122 311.168 122.586C311.004 123.172 310.922 123.848 310.922 124.613V125.105C310.922 125.707 311.004 126.273 311.168 126.805C311.34 127.328 311.586 127.789 311.906 128.188C312.234 128.586 312.629 128.898 313.09 129.125C313.559 129.352 314.09 129.465 314.684 129.465C315.449 129.465 316.098 129.309 316.629 128.996C317.16 128.684 317.625 128.266 318.023 127.742L319.336 128.785C319.062 129.199 318.715 129.594 318.293 129.969C317.871 130.344 317.352 130.648 316.734 130.883C316.125 131.117 315.402 131.234 314.566 131.234ZM338.074 113.938H340.324V125.48C340.324 126.762 340.039 127.828 339.469 128.68C338.898 129.531 338.141 130.172 337.195 130.602C336.258 131.023 335.238 131.234 334.137 131.234C332.98 131.234 331.934 131.023 330.996 130.602C330.066 130.172 329.328 129.531 328.781 128.68C328.242 127.828 327.973 126.762 327.973 125.48V113.938H330.211V125.48C330.211 126.371 330.375 127.105 330.703 127.684C331.031 128.262 331.488 128.691 332.074 128.973C332.668 129.254 333.355 129.395 334.137 129.395C334.926 129.395 335.613 129.254 336.199 128.973C336.793 128.691 337.254 128.262 337.582 127.684C337.91 127.105 338.074 126.371 338.074 125.48V113.938ZM345.715 120.758V135.875H343.535V118.32H345.527L345.715 120.758ZM354.258 124.555V124.801C354.258 125.723 354.148 126.578 353.93 127.367C353.711 128.148 353.391 128.828 352.969 129.406C352.555 129.984 352.043 130.434 351.434 130.754C350.824 131.074 350.125 131.234 349.336 131.234C348.531 131.234 347.82 131.102 347.203 130.836C346.586 130.57 346.062 130.184 345.633 129.676C345.203 129.168 344.859 128.559 344.602 127.848C344.352 127.137 344.18 126.336 344.086 125.445V124.133C344.18 123.195 344.355 122.355 344.613 121.613C344.871 120.871 345.211 120.238 345.633 119.715C346.062 119.184 346.582 118.781 347.191 118.508C347.801 118.227 348.504 118.086 349.301 118.086C350.098 118.086 350.805 118.242 351.422 118.555C352.039 118.859 352.559 119.297 352.98 119.867C353.402 120.438 353.719 121.121 353.93 121.918C354.148 122.707 354.258 123.586 354.258 124.555ZM352.078 124.801V124.555C352.078 123.922 352.012 123.328 351.879 122.773C351.746 122.211 351.539 121.719 351.258 121.297C350.984 120.867 350.633 120.531 350.203 120.289C349.773 120.039 349.262 119.914 348.668 119.914C348.121 119.914 347.645 120.008 347.238 120.195C346.84 120.383 346.5 120.637 346.219 120.957C345.938 121.27 345.707 121.629 345.527 122.035C345.355 122.434 345.227 122.848 345.141 123.277V126.312C345.297 126.859 345.516 127.375 345.797 127.859C346.078 128.336 346.453 128.723 346.922 129.02C347.391 129.309 347.98 129.453 348.691 129.453C349.277 129.453 349.781 129.332 350.203 129.09C350.633 128.84 350.984 128.5 351.258 128.07C351.539 127.641 351.746 127.148 351.879 126.594C352.012 126.031 352.078 125.434 352.078 124.801ZM365.016 128.539V113H367.195V131H365.203L365.016 128.539ZM356.484 124.801V124.555C356.484 123.586 356.602 122.707 356.836 121.918C357.078 121.121 357.418 120.438 357.855 119.867C358.301 119.297 358.828 118.859 359.438 118.555C360.055 118.242 360.742 118.086 361.5 118.086C362.297 118.086 362.992 118.227 363.586 118.508C364.188 118.781 364.695 119.184 365.109 119.715C365.531 120.238 365.863 120.871 366.105 121.613C366.348 122.355 366.516 123.195 366.609 124.133V125.211C366.523 126.141 366.355 126.977 366.105 127.719C365.863 128.461 365.531 129.094 365.109 129.617C364.695 130.141 364.188 130.543 363.586 130.824C362.984 131.098 362.281 131.234 361.477 131.234C360.734 131.234 360.055 131.074 359.438 130.754C358.828 130.434 358.301 129.984 357.855 129.406C357.418 128.828 357.078 128.148 356.836 127.367C356.602 126.578 356.484 125.723 356.484 124.801ZM358.664 124.555V124.801C358.664 125.434 358.727 126.027 358.852 126.582C358.984 127.137 359.188 127.625 359.461 128.047C359.734 128.469 360.082 128.801 360.504 129.043C360.926 129.277 361.43 129.395 362.016 129.395C362.734 129.395 363.324 129.242 363.785 128.938C364.254 128.633 364.629 128.23 364.91 127.73C365.191 127.23 365.41 126.688 365.566 126.102V123.277C365.473 122.848 365.336 122.434 365.156 122.035C364.984 121.629 364.758 121.27 364.477 120.957C364.203 120.637 363.863 120.383 363.457 120.195C363.059 120.008 362.586 119.914 362.039 119.914C361.445 119.914 360.934 120.039 360.504 120.289C360.082 120.531 359.734 120.867 359.461 121.297C359.188 121.719 358.984 122.211 358.852 122.773C358.727 123.328 358.664 123.922 358.664 124.555ZM378.047 128.832V122.305C378.047 121.805 377.945 121.371 377.742 121.004C377.547 120.629 377.25 120.34 376.852 120.137C376.453 119.934 375.961 119.832 375.375 119.832C374.828 119.832 374.348 119.926 373.934 120.113C373.527 120.301 373.207 120.547 372.973 120.852C372.746 121.156 372.633 121.484 372.633 121.836H370.465C370.465 121.383 370.582 120.934 370.816 120.488C371.051 120.043 371.387 119.641 371.824 119.281C372.27 118.914 372.801 118.625 373.418 118.414C374.043 118.195 374.738 118.086 375.504 118.086C376.426 118.086 377.238 118.242 377.941 118.555C378.652 118.867 379.207 119.34 379.605 119.973C380.012 120.598 380.215 121.383 380.215 122.328V128.234C380.215 128.656 380.25 129.105 380.32 129.582C380.398 130.059 380.512 130.469 380.66 130.812V131H378.398C378.289 130.75 378.203 130.418 378.141 130.004C378.078 129.582 378.047 129.191 378.047 128.832ZM378.422 123.312L378.445 124.836H376.254C375.637 124.836 375.086 124.887 374.602 124.988C374.117 125.082 373.711 125.227 373.383 125.422C373.055 125.617 372.805 125.863 372.633 126.16C372.461 126.449 372.375 126.789 372.375 127.18C372.375 127.578 372.465 127.941 372.645 128.27C372.824 128.598 373.094 128.859 373.453 129.055C373.82 129.242 374.27 129.336 374.801 129.336C375.465 129.336 376.051 129.195 376.559 128.914C377.066 128.633 377.469 128.289 377.766 127.883C378.07 127.477 378.234 127.082 378.258 126.699L379.184 127.742C379.129 128.07 378.98 128.434 378.738 128.832C378.496 129.23 378.172 129.613 377.766 129.98C377.367 130.34 376.891 130.641 376.336 130.883C375.789 131.117 375.172 131.234 374.484 131.234C373.625 131.234 372.871 131.066 372.223 130.73C371.582 130.395 371.082 129.945 370.723 129.383C370.371 128.812 370.195 128.176 370.195 127.473C370.195 126.793 370.328 126.195 370.594 125.68C370.859 125.156 371.242 124.723 371.742 124.379C372.242 124.027 372.844 123.762 373.547 123.582C374.25 123.402 375.035 123.312 375.902 123.312H378.422ZM388.934 118.32V119.984H382.078V118.32H388.934ZM384.398 115.238H386.566V127.859C386.566 128.289 386.633 128.613 386.766 128.832C386.898 129.051 387.07 129.195 387.281 129.266C387.492 129.336 387.719 129.371 387.961 129.371C388.141 129.371 388.328 129.355 388.523 129.324C388.727 129.285 388.879 129.254 388.98 129.23L388.992 131C388.82 131.055 388.594 131.105 388.312 131.152C388.039 131.207 387.707 131.234 387.316 131.234C386.785 131.234 386.297 131.129 385.852 130.918C385.406 130.707 385.051 130.355 384.785 129.863C384.527 129.363 384.398 128.691 384.398 127.848V115.238ZM396.738 131.234C395.855 131.234 395.055 131.086 394.336 130.789C393.625 130.484 393.012 130.059 392.496 129.512C391.988 128.965 391.598 128.316 391.324 127.566C391.051 126.816 390.914 125.996 390.914 125.105V124.613C390.914 123.582 391.066 122.664 391.371 121.859C391.676 121.047 392.09 120.359 392.613 119.797C393.137 119.234 393.73 118.809 394.395 118.52C395.059 118.23 395.746 118.086 396.457 118.086C397.363 118.086 398.145 118.242 398.801 118.555C399.465 118.867 400.008 119.305 400.43 119.867C400.852 120.422 401.164 121.078 401.367 121.836C401.57 122.586 401.672 123.406 401.672 124.297V125.27H392.203V123.5H399.504V123.336C399.473 122.773 399.355 122.227 399.152 121.695C398.957 121.164 398.645 120.727 398.215 120.383C397.785 120.039 397.199 119.867 396.457 119.867C395.965 119.867 395.512 119.973 395.098 120.184C394.684 120.387 394.328 120.691 394.031 121.098C393.734 121.504 393.504 122 393.34 122.586C393.176 123.172 393.094 123.848 393.094 124.613V125.105C393.094 125.707 393.176 126.273 393.34 126.805C393.512 127.328 393.758 127.789 394.078 128.188C394.406 128.586 394.801 128.898 395.262 129.125C395.73 129.352 396.262 129.465 396.855 129.465C397.621 129.465 398.27 129.309 398.801 128.996C399.332 128.684 399.797 128.266 400.195 127.742L401.508 128.785C401.234 129.199 400.887 129.594 400.465 129.969C400.043 130.344 399.523 130.648 398.906 130.883C398.297 131.117 397.574 131.234 396.738 131.234Z" fill="#3C4043"/>
<path d="M257.871 179.574H260.121C260.004 180.652 259.695 181.617 259.195 182.469C258.695 183.32 257.988 183.996 257.074 184.496C256.16 184.988 255.02 185.234 253.652 185.234C252.652 185.234 251.742 185.047 250.922 184.672C250.109 184.297 249.41 183.766 248.824 183.078C248.238 182.383 247.785 181.551 247.465 180.582C247.152 179.605 246.996 178.52 246.996 177.324V175.625C246.996 174.43 247.152 173.348 247.465 172.379C247.785 171.402 248.242 170.566 248.836 169.871C249.438 169.176 250.16 168.641 251.004 168.266C251.848 167.891 252.797 167.703 253.852 167.703C255.141 167.703 256.23 167.945 257.121 168.43C258.012 168.914 258.703 169.586 259.195 170.445C259.695 171.297 260.004 172.285 260.121 173.41H257.871C257.762 172.613 257.559 171.93 257.262 171.359C256.965 170.781 256.543 170.336 255.996 170.023C255.449 169.711 254.734 169.555 253.852 169.555C253.094 169.555 252.426 169.699 251.848 169.988C251.277 170.277 250.797 170.688 250.406 171.219C250.023 171.75 249.734 172.387 249.539 173.129C249.344 173.871 249.246 174.695 249.246 175.602V177.324C249.246 178.16 249.332 178.945 249.504 179.68C249.684 180.414 249.953 181.059 250.312 181.613C250.672 182.168 251.129 182.605 251.684 182.926C252.238 183.238 252.895 183.395 253.652 183.395C254.613 183.395 255.379 183.242 255.949 182.938C256.52 182.633 256.949 182.195 257.238 181.625C257.535 181.055 257.746 180.371 257.871 179.574ZM262.301 178.801V178.531C262.301 177.617 262.434 176.77 262.699 175.988C262.965 175.199 263.348 174.516 263.848 173.938C264.348 173.352 264.953 172.898 265.664 172.578C266.375 172.25 267.172 172.086 268.055 172.086C268.945 172.086 269.746 172.25 270.457 172.578C271.176 172.898 271.785 173.352 272.285 173.938C272.793 174.516 273.18 175.199 273.445 175.988C273.711 176.77 273.844 177.617 273.844 178.531V178.801C273.844 179.715 273.711 180.562 273.445 181.344C273.18 182.125 272.793 182.809 272.285 183.395C271.785 183.973 271.18 184.426 270.469 184.754C269.766 185.074 268.969 185.234 268.078 185.234C267.188 185.234 266.387 185.074 265.676 184.754C264.965 184.426 264.355 183.973 263.848 183.395C263.348 182.809 262.965 182.125 262.699 181.344C262.434 180.562 262.301 179.715 262.301 178.801ZM264.469 178.531V178.801C264.469 179.434 264.543 180.031 264.691 180.594C264.84 181.148 265.062 181.641 265.359 182.07C265.664 182.5 266.043 182.84 266.496 183.09C266.949 183.332 267.477 183.453 268.078 183.453C268.672 183.453 269.191 183.332 269.637 183.09C270.09 182.84 270.465 182.5 270.762 182.07C271.059 181.641 271.281 181.148 271.43 180.594C271.586 180.031 271.664 179.434 271.664 178.801V178.531C271.664 177.906 271.586 177.316 271.43 176.762C271.281 176.199 271.055 175.703 270.75 175.273C270.453 174.836 270.078 174.492 269.625 174.242C269.18 173.992 268.656 173.867 268.055 173.867C267.461 173.867 266.938 173.992 266.484 174.242C266.039 174.492 265.664 174.836 265.359 175.273C265.062 175.703 264.84 176.199 264.691 176.762C264.543 177.316 264.469 177.906 264.469 178.531ZM278.73 175.027V185H276.562V172.32H278.613L278.73 175.027ZM278.215 178.18L277.312 178.145C277.32 177.277 277.449 176.477 277.699 175.742C277.949 175 278.301 174.355 278.754 173.809C279.207 173.262 279.746 172.84 280.371 172.543C281.004 172.238 281.703 172.086 282.469 172.086C283.094 172.086 283.656 172.172 284.156 172.344C284.656 172.508 285.082 172.773 285.434 173.141C285.793 173.508 286.066 173.984 286.254 174.57C286.441 175.148 286.535 175.855 286.535 176.691V185H284.355V176.668C284.355 176.004 284.258 175.473 284.062 175.074C283.867 174.668 283.582 174.375 283.207 174.195C282.832 174.008 282.371 173.914 281.824 173.914C281.285 173.914 280.793 174.027 280.348 174.254C279.91 174.48 279.531 174.793 279.211 175.191C278.898 175.59 278.652 176.047 278.473 176.562C278.301 177.07 278.215 177.609 278.215 178.18ZM292.723 185H290.555V171.219C290.555 170.258 290.742 169.445 291.117 168.781C291.492 168.117 292.027 167.613 292.723 167.27C293.418 166.926 294.242 166.754 295.195 166.754C295.758 166.754 296.309 166.824 296.848 166.965C297.387 167.098 297.941 167.266 298.512 167.469L298.148 169.297C297.789 169.156 297.371 169.023 296.895 168.898C296.426 168.766 295.91 168.699 295.348 168.699C294.418 168.699 293.746 168.91 293.332 169.332C292.926 169.746 292.723 170.375 292.723 171.219V185ZM295.312 172.32V173.984H288.551V172.32H295.312ZM299.578 172.32V185H297.41V172.32H299.578ZM305.309 174.312V185H303.141V172.32H305.25L305.309 174.312ZM309.27 172.25L309.258 174.266C309.078 174.227 308.906 174.203 308.742 174.195C308.586 174.18 308.406 174.172 308.203 174.172C307.703 174.172 307.262 174.25 306.879 174.406C306.496 174.562 306.172 174.781 305.906 175.062C305.641 175.344 305.43 175.68 305.273 176.07C305.125 176.453 305.027 176.875 304.98 177.336L304.371 177.688C304.371 176.922 304.445 176.203 304.594 175.531C304.75 174.859 304.988 174.266 305.309 173.75C305.629 173.227 306.035 172.82 306.527 172.531C307.027 172.234 307.621 172.086 308.309 172.086C308.465 172.086 308.645 172.105 308.848 172.145C309.051 172.176 309.191 172.211 309.27 172.25ZM313.43 174.84V185H311.25V172.32H313.312L313.43 174.84ZM312.984 178.18L311.977 178.145C311.984 177.277 312.098 176.477 312.316 175.742C312.535 175 312.859 174.355 313.289 173.809C313.719 173.262 314.254 172.84 314.895 172.543C315.535 172.238 316.277 172.086 317.121 172.086C317.715 172.086 318.262 172.172 318.762 172.344C319.262 172.508 319.695 172.77 320.062 173.129C320.43 173.488 320.715 173.949 320.918 174.512C321.121 175.074 321.223 175.754 321.223 176.551V185H319.055V176.656C319.055 175.992 318.941 175.461 318.715 175.062C318.496 174.664 318.184 174.375 317.777 174.195C317.371 174.008 316.895 173.914 316.348 173.914C315.707 173.914 315.172 174.027 314.742 174.254C314.312 174.48 313.969 174.793 313.711 175.191C313.453 175.59 313.266 176.047 313.148 176.562C313.039 177.07 312.984 177.609 312.984 178.18ZM321.199 176.984L319.746 177.43C319.754 176.734 319.867 176.066 320.086 175.426C320.312 174.785 320.637 174.215 321.059 173.715C321.488 173.215 322.016 172.82 322.641 172.531C323.266 172.234 323.98 172.086 324.785 172.086C325.465 172.086 326.066 172.176 326.59 172.355C327.121 172.535 327.566 172.812 327.926 173.188C328.293 173.555 328.57 174.027 328.758 174.605C328.945 175.184 329.039 175.871 329.039 176.668V185H326.859V176.645C326.859 175.934 326.746 175.383 326.52 174.992C326.301 174.594 325.988 174.316 325.582 174.16C325.184 173.996 324.707 173.914 324.152 173.914C323.676 173.914 323.254 173.996 322.887 174.16C322.52 174.324 322.211 174.551 321.961 174.84C321.711 175.121 321.52 175.445 321.387 175.812C321.262 176.18 321.199 176.57 321.199 176.984ZM351.738 175.93V177.008C351.738 178.289 351.578 179.438 351.258 180.453C350.938 181.469 350.477 182.332 349.875 183.043C349.273 183.754 348.551 184.297 347.707 184.672C346.871 185.047 345.934 185.234 344.895 185.234C343.887 185.234 342.961 185.047 342.117 184.672C341.281 184.297 340.555 183.754 339.938 183.043C339.328 182.332 338.855 181.469 338.52 180.453C338.184 179.438 338.016 178.289 338.016 177.008V175.93C338.016 174.648 338.18 173.504 338.508 172.496C338.844 171.48 339.316 170.617 339.926 169.906C340.535 169.188 341.258 168.641 342.094 168.266C342.938 167.891 343.863 167.703 344.871 167.703C345.91 167.703 346.848 167.891 347.684 168.266C348.527 168.641 349.25 169.188 349.852 169.906C350.461 170.617 350.926 171.48 351.246 172.496C351.574 173.504 351.738 174.648 351.738 175.93ZM349.5 177.008V175.906C349.5 174.891 349.395 173.992 349.184 173.211C348.98 172.43 348.68 171.773 348.281 171.242C347.883 170.711 347.395 170.309 346.816 170.035C346.246 169.762 345.598 169.625 344.871 169.625C344.168 169.625 343.531 169.762 342.961 170.035C342.398 170.309 341.914 170.711 341.508 171.242C341.109 171.773 340.801 172.43 340.582 173.211C340.363 173.992 340.254 174.891 340.254 175.906V177.008C340.254 178.031 340.363 178.938 340.582 179.727C340.801 180.508 341.113 181.168 341.52 181.707C341.934 182.238 342.422 182.641 342.984 182.914C343.555 183.188 344.191 183.324 344.895 183.324C345.629 183.324 346.281 183.188 346.852 182.914C347.422 182.641 347.902 182.238 348.293 181.707C348.691 181.168 348.992 180.508 349.195 179.727C349.398 178.938 349.5 178.031 349.5 177.008ZM358.031 185H355.863V170.984C355.863 170.07 356.027 169.301 356.355 168.676C356.691 168.043 357.172 167.566 357.797 167.246C358.422 166.918 359.164 166.754 360.023 166.754C360.273 166.754 360.523 166.77 360.773 166.801C361.031 166.832 361.281 166.879 361.523 166.941L361.406 168.711C361.242 168.672 361.055 168.645 360.844 168.629C360.641 168.613 360.438 168.605 360.234 168.605C359.773 168.605 359.375 168.699 359.039 168.887C358.711 169.066 358.461 169.332 358.289 169.684C358.117 170.035 358.031 170.469 358.031 170.984V185ZM360.727 172.32V173.984H353.859V172.32H360.727ZM366.375 185H364.207V170.984C364.207 170.07 364.371 169.301 364.699 168.676C365.035 168.043 365.516 167.566 366.141 167.246C366.766 166.918 367.508 166.754 368.367 166.754C368.617 166.754 368.867 166.77 369.117 166.801C369.375 166.832 369.625 166.879 369.867 166.941L369.75 168.711C369.586 168.672 369.398 168.645 369.188 168.629C368.984 168.613 368.781 168.605 368.578 168.605C368.117 168.605 367.719 168.699 367.383 168.887C367.055 169.066 366.805 169.332 366.633 169.684C366.461 170.035 366.375 170.469 366.375 170.984V185ZM369.07 172.32V173.984H362.203V172.32H369.07ZM376.465 185.234C375.582 185.234 374.781 185.086 374.062 184.789C373.352 184.484 372.738 184.059 372.223 183.512C371.715 182.965 371.324 182.316 371.051 181.566C370.777 180.816 370.641 179.996 370.641 179.105V178.613C370.641 177.582 370.793 176.664 371.098 175.859C371.402 175.047 371.816 174.359 372.34 173.797C372.863 173.234 373.457 172.809 374.121 172.52C374.785 172.23 375.473 172.086 376.184 172.086C377.09 172.086 377.871 172.242 378.527 172.555C379.191 172.867 379.734 173.305 380.156 173.867C380.578 174.422 380.891 175.078 381.094 175.836C381.297 176.586 381.398 177.406 381.398 178.297V179.27H371.93V177.5H379.23V177.336C379.199 176.773 379.082 176.227 378.879 175.695C378.684 175.164 378.371 174.727 377.941 174.383C377.512 174.039 376.926 173.867 376.184 173.867C375.691 173.867 375.238 173.973 374.824 174.184C374.41 174.387 374.055 174.691 373.758 175.098C373.461 175.504 373.23 176 373.066 176.586C372.902 177.172 372.82 177.848 372.82 178.613V179.105C372.82 179.707 372.902 180.273 373.066 180.805C373.238 181.328 373.484 181.789 373.805 182.188C374.133 182.586 374.527 182.898 374.988 183.125C375.457 183.352 375.988 183.465 376.582 183.465C377.348 183.465 377.996 183.309 378.527 182.996C379.059 182.684 379.523 182.266 379.922 181.742L381.234 182.785C380.961 183.199 380.613 183.594 380.191 183.969C379.77 184.344 379.25 184.648 378.633 184.883C378.023 185.117 377.301 185.234 376.465 185.234ZM386.098 174.312V185H383.93V172.32H386.039L386.098 174.312ZM390.059 172.25L390.047 174.266C389.867 174.227 389.695 174.203 389.531 174.195C389.375 174.18 389.195 174.172 388.992 174.172C388.492 174.172 388.051 174.25 387.668 174.406C387.285 174.562 386.961 174.781 386.695 175.062C386.43 175.344 386.219 175.68 386.062 176.07C385.914 176.453 385.816 176.875 385.77 177.336L385.16 177.688C385.16 176.922 385.234 176.203 385.383 175.531C385.539 174.859 385.777 174.266 386.098 173.75C386.418 173.227 386.824 172.82 387.316 172.531C387.816 172.234 388.41 172.086 389.098 172.086C389.254 172.086 389.434 172.105 389.637 172.145C389.84 172.176 389.98 172.211 390.059 172.25Z" fill="#3C4043"/>
<path d="M250.43 221.938H256.078C257.359 221.938 258.441 222.133 259.324 222.523C260.215 222.914 260.891 223.492 261.352 224.258C261.82 225.016 262.055 225.949 262.055 227.059C262.055 227.84 261.895 228.555 261.574 229.203C261.262 229.844 260.809 230.391 260.215 230.844C259.629 231.289 258.926 231.621 258.105 231.84L257.473 232.086H252.164L252.141 230.246H256.148C256.961 230.246 257.637 230.105 258.176 229.824C258.715 229.535 259.121 229.148 259.395 228.664C259.668 228.18 259.805 227.645 259.805 227.059C259.805 226.402 259.676 225.828 259.418 225.336C259.16 224.844 258.754 224.465 258.199 224.199C257.652 223.926 256.945 223.789 256.078 223.789H252.691V239H250.43V221.938ZM260.402 239L256.254 231.266L258.609 231.254L262.816 238.859V239H260.402ZM270.152 239.234C269.27 239.234 268.469 239.086 267.75 238.789C267.039 238.484 266.426 238.059 265.91 237.512C265.402 236.965 265.012 236.316 264.738 235.566C264.465 234.816 264.328 233.996 264.328 233.105V232.613C264.328 231.582 264.48 230.664 264.785 229.859C265.09 229.047 265.504 228.359 266.027 227.797C266.551 227.234 267.145 226.809 267.809 226.52C268.473 226.23 269.16 226.086 269.871 226.086C270.777 226.086 271.559 226.242 272.215 226.555C272.879 226.867 273.422 227.305 273.844 227.867C274.266 228.422 274.578 229.078 274.781 229.836C274.984 230.586 275.086 231.406 275.086 232.297V233.27H265.617V231.5H272.918V231.336C272.887 230.773 272.77 230.227 272.566 229.695C272.371 229.164 272.059 228.727 271.629 228.383C271.199 228.039 270.613 227.867 269.871 227.867C269.379 227.867 268.926 227.973 268.512 228.184C268.098 228.387 267.742 228.691 267.445 229.098C267.148 229.504 266.918 230 266.754 230.586C266.59 231.172 266.508 231.848 266.508 232.613V233.105C266.508 233.707 266.59 234.273 266.754 234.805C266.926 235.328 267.172 235.789 267.492 236.188C267.82 236.586 268.215 236.898 268.676 237.125C269.145 237.352 269.676 237.465 270.27 237.465C271.035 237.465 271.684 237.309 272.215 236.996C272.746 236.684 273.211 236.266 273.609 235.742L274.922 236.785C274.648 237.199 274.301 237.594 273.879 237.969C273.457 238.344 272.938 238.648 272.32 238.883C271.711 239.117 270.988 239.234 270.152 239.234ZM285 235.637C285 235.324 284.93 235.035 284.789 234.77C284.656 234.496 284.379 234.25 283.957 234.031C283.543 233.805 282.918 233.609 282.082 233.445C281.379 233.297 280.742 233.121 280.172 232.918C279.609 232.715 279.129 232.469 278.73 232.18C278.34 231.891 278.039 231.551 277.828 231.16C277.617 230.77 277.512 230.312 277.512 229.789C277.512 229.289 277.621 228.816 277.84 228.371C278.066 227.926 278.383 227.531 278.789 227.188C279.203 226.844 279.699 226.574 280.277 226.379C280.855 226.184 281.5 226.086 282.211 226.086C283.227 226.086 284.094 226.266 284.812 226.625C285.531 226.984 286.082 227.465 286.465 228.066C286.848 228.66 287.039 229.32 287.039 230.047H284.871C284.871 229.695 284.766 229.355 284.555 229.027C284.352 228.691 284.051 228.414 283.652 228.195C283.262 227.977 282.781 227.867 282.211 227.867C281.609 227.867 281.121 227.961 280.746 228.148C280.379 228.328 280.109 228.559 279.938 228.84C279.773 229.121 279.691 229.418 279.691 229.73C279.691 229.965 279.73 230.176 279.809 230.363C279.895 230.543 280.043 230.711 280.254 230.867C280.465 231.016 280.762 231.156 281.145 231.289C281.527 231.422 282.016 231.555 282.609 231.688C283.648 231.922 284.504 232.203 285.176 232.531C285.848 232.859 286.348 233.262 286.676 233.738C287.004 234.215 287.168 234.793 287.168 235.473C287.168 236.027 287.051 236.535 286.816 236.996C286.59 237.457 286.258 237.855 285.82 238.191C285.391 238.52 284.875 238.777 284.273 238.965C283.68 239.145 283.012 239.234 282.27 239.234C281.152 239.234 280.207 239.035 279.434 238.637C278.66 238.238 278.074 237.723 277.676 237.09C277.277 236.457 277.078 235.789 277.078 235.086H279.258C279.289 235.68 279.461 236.152 279.773 236.504C280.086 236.848 280.469 237.094 280.922 237.242C281.375 237.383 281.824 237.453 282.27 237.453C282.863 237.453 283.359 237.375 283.758 237.219C284.164 237.062 284.473 236.848 284.684 236.574C284.895 236.301 285 235.988 285 235.637ZM297.773 236.07V226.32H299.953V239H297.879L297.773 236.07ZM298.184 233.398L299.086 233.375C299.086 234.219 298.996 235 298.816 235.719C298.645 236.43 298.363 237.047 297.973 237.57C297.582 238.094 297.07 238.504 296.438 238.801C295.805 239.09 295.035 239.234 294.129 239.234C293.512 239.234 292.945 239.145 292.43 238.965C291.922 238.785 291.484 238.508 291.117 238.133C290.75 237.758 290.465 237.27 290.262 236.668C290.066 236.066 289.969 235.344 289.969 234.5V226.32H292.137V234.523C292.137 235.094 292.199 235.566 292.324 235.941C292.457 236.309 292.633 236.602 292.852 236.82C293.078 237.031 293.328 237.18 293.602 237.266C293.883 237.352 294.172 237.395 294.469 237.395C295.391 237.395 296.121 237.219 296.66 236.867C297.199 236.508 297.586 236.027 297.82 235.426C298.062 234.816 298.184 234.141 298.184 233.398ZM305.613 221V239H303.434V221H305.613ZM314.402 226.32V227.984H307.547V226.32H314.402ZM309.867 223.238H312.035V235.859C312.035 236.289 312.102 236.613 312.234 236.832C312.367 237.051 312.539 237.195 312.75 237.266C312.961 237.336 313.188 237.371 313.43 237.371C313.609 237.371 313.797 237.355 313.992 237.324C314.195 237.285 314.348 237.254 314.449 237.23L314.461 239C314.289 239.055 314.062 239.105 313.781 239.152C313.508 239.207 313.176 239.234 312.785 239.234C312.254 239.234 311.766 239.129 311.32 238.918C310.875 238.707 310.52 238.355 310.254 237.863C309.996 237.363 309.867 236.691 309.867 235.848V223.238ZM333.527 233.574H335.777C335.66 234.652 335.352 235.617 334.852 236.469C334.352 237.32 333.645 237.996 332.73 238.496C331.816 238.988 330.676 239.234 329.309 239.234C328.309 239.234 327.398 239.047 326.578 238.672C325.766 238.297 325.066 237.766 324.48 237.078C323.895 236.383 323.441 235.551 323.121 234.582C322.809 233.605 322.652 232.52 322.652 231.324V229.625C322.652 228.43 322.809 227.348 323.121 226.379C323.441 225.402 323.898 224.566 324.492 223.871C325.094 223.176 325.816 222.641 326.66 222.266C327.504 221.891 328.453 221.703 329.508 221.703C330.797 221.703 331.887 221.945 332.777 222.43C333.668 222.914 334.359 223.586 334.852 224.445C335.352 225.297 335.66 226.285 335.777 227.41H333.527C333.418 226.613 333.215 225.93 332.918 225.359C332.621 224.781 332.199 224.336 331.652 224.023C331.105 223.711 330.391 223.555 329.508 223.555C328.75 223.555 328.082 223.699 327.504 223.988C326.934 224.277 326.453 224.688 326.062 225.219C325.68 225.75 325.391 226.387 325.195 227.129C325 227.871 324.902 228.695 324.902 229.602V231.324C324.902 232.16 324.988 232.945 325.16 233.68C325.34 234.414 325.609 235.059 325.969 235.613C326.328 236.168 326.785 236.605 327.34 236.926C327.895 237.238 328.551 237.395 329.309 237.395C330.27 237.395 331.035 237.242 331.605 236.938C332.176 236.633 332.605 236.195 332.895 235.625C333.191 235.055 333.402 234.371 333.527 233.574ZM340.699 221V239H338.531V221H340.699ZM340.184 232.18L339.281 232.145C339.289 231.277 339.418 230.477 339.668 229.742C339.918 229 340.27 228.355 340.723 227.809C341.176 227.262 341.715 226.84 342.34 226.543C342.973 226.238 343.672 226.086 344.438 226.086C345.062 226.086 345.625 226.172 346.125 226.344C346.625 226.508 347.051 226.773 347.402 227.141C347.762 227.508 348.035 227.984 348.223 228.57C348.41 229.148 348.504 229.855 348.504 230.691V239H346.324V230.668C346.324 230.004 346.227 229.473 346.031 229.074C345.836 228.668 345.551 228.375 345.176 228.195C344.801 228.008 344.34 227.914 343.793 227.914C343.254 227.914 342.762 228.027 342.316 228.254C341.879 228.48 341.5 228.793 341.18 229.191C340.867 229.59 340.621 230.047 340.441 230.562C340.27 231.07 340.184 231.609 340.184 232.18ZM357.012 239.234C356.129 239.234 355.328 239.086 354.609 238.789C353.898 238.484 353.285 238.059 352.77 237.512C352.262 236.965 351.871 236.316 351.598 235.566C351.324 234.816 351.188 233.996 351.188 233.105V232.613C351.188 231.582 351.34 230.664 351.645 229.859C351.949 229.047 352.363 228.359 352.887 227.797C353.41 227.234 354.004 226.809 354.668 226.52C355.332 226.23 356.02 226.086 356.73 226.086C357.637 226.086 358.418 226.242 359.074 226.555C359.738 226.867 360.281 227.305 360.703 227.867C361.125 228.422 361.438 229.078 361.641 229.836C361.844 230.586 361.945 231.406 361.945 232.297V233.27H352.477V231.5H359.777V231.336C359.746 230.773 359.629 230.227 359.426 229.695C359.23 229.164 358.918 228.727 358.488 228.383C358.059 228.039 357.473 227.867 356.73 227.867C356.238 227.867 355.785 227.973 355.371 228.184C354.957 228.387 354.602 228.691 354.305 229.098C354.008 229.504 353.777 230 353.613 230.586C353.449 231.172 353.367 231.848 353.367 232.613V233.105C353.367 233.707 353.449 234.273 353.613 234.805C353.785 235.328 354.031 235.789 354.352 236.188C354.68 236.586 355.074 236.898 355.535 237.125C356.004 237.352 356.535 237.465 357.129 237.465C357.895 237.465 358.543 237.309 359.074 236.996C359.605 236.684 360.07 236.266 360.469 235.742L361.781 236.785C361.508 237.199 361.16 237.594 360.738 237.969C360.316 238.344 359.797 238.648 359.18 238.883C358.57 239.117 357.848 239.234 357.012 239.234ZM369.551 237.453C370.066 237.453 370.543 237.348 370.98 237.137C371.418 236.926 371.777 236.637 372.059 236.27C372.34 235.895 372.5 235.469 372.539 234.992H374.602C374.562 235.742 374.309 236.441 373.84 237.09C373.379 237.73 372.773 238.25 372.023 238.648C371.273 239.039 370.449 239.234 369.551 239.234C368.598 239.234 367.766 239.066 367.055 238.73C366.352 238.395 365.766 237.934 365.297 237.348C364.836 236.762 364.488 236.09 364.254 235.332C364.027 234.566 363.914 233.758 363.914 232.906V232.414C363.914 231.562 364.027 230.758 364.254 230C364.488 229.234 364.836 228.559 365.297 227.973C365.766 227.387 366.352 226.926 367.055 226.59C367.766 226.254 368.598 226.086 369.551 226.086C370.543 226.086 371.41 226.289 372.152 226.695C372.895 227.094 373.477 227.641 373.898 228.336C374.328 229.023 374.562 229.805 374.602 230.68H372.539C372.5 230.156 372.352 229.684 372.094 229.262C371.844 228.84 371.5 228.504 371.062 228.254C370.633 227.996 370.129 227.867 369.551 227.867C368.887 227.867 368.328 228 367.875 228.266C367.43 228.523 367.074 228.875 366.809 229.32C366.551 229.758 366.363 230.246 366.246 230.785C366.137 231.316 366.082 231.859 366.082 232.414V232.906C366.082 233.461 366.137 234.008 366.246 234.547C366.355 235.086 366.539 235.574 366.797 236.012C367.062 236.449 367.418 236.801 367.863 237.066C368.316 237.324 368.879 237.453 369.551 237.453ZM379.219 221V239H377.039V221H379.219ZM386.965 226.32L381.434 232.238L378.34 235.449L378.164 233.141L380.379 230.492L384.316 226.32H386.965ZM384.984 239L380.461 232.953L381.586 231.02L387.539 239H384.984Z" fill="#3C4043"/>
<path fill-rule="evenodd" clip-rule="evenodd" d="M182 46.9367V173.063C182 180.76 188.268 187 196 187H209.303C209.688 187 210 186.688 210 186.303V186.303C210 185.918 209.688 185.606 209.303 185.606H196C189.041 185.606 183.4 179.991 183.4 173.063V46.9367C183.4 40.0094 189.041 34.3937 196 34.3937H209.303C209.688 34.3937 210 34.0817 210 33.6968V33.6968C210 33.312 209.688 33 209.303 33H196C188.268 33 182 39.2397 182 46.9367Z" fill="#3C4043"/>
</svg>
