<svg width="729" height="392" viewBox="0 0 729 392" fill="none" xmlns="http://www.w3.org/2000/svg">
<circle cx="619.225" cy="183.36" r="5.42857" fill="#009D97" stroke="#1A1F26" stroke-width="1.55102"/>
<path d="M639.476 188.952V175.416H644.05C645.112 175.416 645.98 175.608 646.654 175.991C647.333 176.37 647.835 176.883 648.161 177.531C648.487 178.179 648.65 178.901 648.65 179.699C648.65 180.496 648.487 181.221 648.161 181.873C647.839 182.526 647.341 183.045 646.667 183.433C645.993 183.817 645.129 184.008 644.076 184.008H640.798V182.554H644.023C644.75 182.554 645.334 182.429 645.775 182.177C646.216 181.926 646.535 181.587 646.733 181.16C646.936 180.728 647.037 180.241 647.037 179.699C647.037 179.157 646.936 178.672 646.733 178.245C646.535 177.817 646.213 177.483 645.768 177.24C645.323 176.993 644.733 176.87 643.997 176.87H641.115V188.952H639.476ZM662.183 179.646H660.544C660.447 179.175 660.277 178.76 660.035 178.403C659.797 178.047 659.506 177.747 659.162 177.505C658.823 177.258 658.446 177.073 658.032 176.949C657.618 176.826 657.186 176.764 656.737 176.764C655.917 176.764 655.175 176.971 654.509 177.386C653.848 177.8 653.322 178.41 652.93 179.216C652.542 180.023 652.348 181.012 652.348 182.184C652.348 183.356 652.542 184.345 652.93 185.152C653.322 185.958 653.848 186.568 654.509 186.983C655.175 187.397 655.917 187.604 656.737 187.604C657.186 187.604 657.618 187.542 658.032 187.419C658.446 187.295 658.823 187.113 659.162 186.87C659.506 186.623 659.797 186.322 660.035 185.965C660.277 185.603 660.447 185.189 660.544 184.722H662.183C662.059 185.414 661.835 186.033 661.509 186.579C661.183 187.126 660.777 187.591 660.293 187.974C659.808 188.353 659.264 188.642 658.66 188.84C658.061 189.038 657.42 189.137 656.737 189.137C655.582 189.137 654.556 188.855 653.657 188.291C652.758 187.727 652.051 186.925 651.535 185.885C651.019 184.845 650.762 183.612 650.762 182.184C650.762 180.756 651.019 179.523 651.535 178.483C652.051 177.443 652.758 176.641 653.657 176.077C654.556 175.513 655.582 175.231 656.737 175.231C657.42 175.231 658.061 175.33 658.66 175.528C659.264 175.727 659.808 176.017 660.293 176.401C660.777 176.78 661.183 177.242 661.509 177.789C661.835 178.331 662.059 178.95 662.183 179.646Z" fill="#3C4043"/>
<circle cx="619.225" cy="225.533" r="5.42857" fill="#FF9F98" stroke="#1A1F26" stroke-width="1.55102"/>
<path d="M639.476 217.589H641.432L646.033 228.825H646.191L650.791 217.589H652.748V231.125H651.214V220.841H651.082L646.852 231.125H645.372L641.142 220.841H641.009V231.125H639.476V217.589ZM659.947 231.337C659.031 231.337 658.227 231.118 657.535 230.682C656.847 230.246 656.31 229.636 655.922 228.851C655.539 228.067 655.347 227.151 655.347 226.102C655.347 225.044 655.539 224.121 655.922 223.332C656.31 222.544 656.847 221.931 657.535 221.495C658.227 221.059 659.031 220.841 659.947 220.841C660.864 220.841 661.666 221.059 662.353 221.495C663.045 221.931 663.582 222.544 663.966 223.332C664.354 224.121 664.547 225.044 664.547 226.102C664.547 227.151 664.354 228.067 663.966 228.851C663.582 229.636 663.045 230.246 662.353 230.682C661.666 231.118 660.864 231.337 659.947 231.337ZM659.947 229.935C660.643 229.935 661.216 229.757 661.666 229.4C662.115 229.043 662.448 228.574 662.664 227.992C662.88 227.41 662.988 226.78 662.988 226.102C662.988 225.423 662.88 224.791 662.664 224.205C662.448 223.619 662.115 223.145 661.666 222.784C661.216 222.423 660.643 222.242 659.947 222.242C659.251 222.242 658.678 222.423 658.229 222.784C657.779 223.145 657.447 223.619 657.231 224.205C657.015 224.791 656.907 225.423 656.907 226.102C656.907 226.78 657.015 227.41 657.231 227.992C657.447 228.574 657.779 229.043 658.229 229.4C658.678 229.757 659.251 229.935 659.947 229.935ZM667.14 231.125V217.589H668.7V222.586H668.832C668.947 222.409 669.105 222.185 669.308 221.911C669.515 221.634 669.81 221.387 670.194 221.171C670.581 220.951 671.106 220.841 671.767 220.841C672.621 220.841 673.375 221.054 674.027 221.482C674.679 221.909 675.188 222.515 675.554 223.299C675.92 224.084 676.102 225.009 676.102 226.075C676.102 227.151 675.92 228.082 675.554 228.871C675.188 229.655 674.681 230.264 674.034 230.695C673.386 231.123 672.639 231.337 671.793 231.337C671.141 231.337 670.619 231.229 670.227 231.013C669.834 230.792 669.533 230.543 669.321 230.266C669.11 229.984 668.947 229.75 668.832 229.565H668.647V231.125H667.14ZM668.673 226.049C668.673 226.816 668.786 227.492 669.01 228.078C669.235 228.66 669.563 229.116 669.995 229.446C670.427 229.772 670.956 229.935 671.582 229.935C672.234 229.935 672.778 229.763 673.214 229.42C673.655 229.072 673.985 228.605 674.205 228.019C674.43 227.428 674.543 226.772 674.543 226.049C674.543 225.335 674.432 224.692 674.212 224.119C673.996 223.542 673.668 223.086 673.227 222.751C672.791 222.412 672.242 222.242 671.582 222.242C670.947 222.242 670.414 222.403 669.982 222.724C669.55 223.042 669.224 223.487 669.004 224.059C668.784 224.628 668.673 225.291 668.673 226.049ZM678.488 231.125V220.973H680.048V231.125H678.488ZM679.282 219.281C678.978 219.281 678.715 219.177 678.495 218.97C678.279 218.763 678.171 218.514 678.171 218.223C678.171 217.933 678.279 217.684 678.495 217.476C678.715 217.269 678.978 217.166 679.282 217.166C679.586 217.166 679.846 217.269 680.061 217.476C680.282 217.684 680.392 217.933 680.392 218.223C680.392 218.514 680.282 218.763 680.061 218.97C679.846 219.177 679.586 219.281 679.282 219.281ZM684.465 217.589V231.125H682.905V217.589H684.465ZM691.578 231.337C690.6 231.337 689.756 231.121 689.047 230.689C688.342 230.253 687.798 229.644 687.414 228.865C687.036 228.08 686.846 227.168 686.846 226.128C686.846 225.088 687.036 224.172 687.414 223.379C687.798 222.581 688.331 221.96 689.014 221.515C689.701 221.065 690.503 220.841 691.42 220.841C691.949 220.841 692.471 220.929 692.986 221.105C693.502 221.281 693.971 221.568 694.394 221.964C694.817 222.356 695.154 222.876 695.405 223.524C695.656 224.172 695.782 224.969 695.782 225.917V226.578H687.956V225.229H694.196C694.196 224.657 694.081 224.145 693.852 223.696C693.627 223.247 693.306 222.892 692.887 222.632C692.473 222.372 691.984 222.242 691.42 222.242C690.799 222.242 690.261 222.396 689.807 222.705C689.358 223.009 689.012 223.405 688.769 223.894C688.527 224.383 688.406 224.908 688.406 225.467V226.366C688.406 227.133 688.538 227.783 688.802 228.316C689.071 228.845 689.444 229.248 689.919 229.526C690.395 229.799 690.948 229.935 691.578 229.935C691.988 229.935 692.358 229.878 692.689 229.763C693.024 229.644 693.312 229.468 693.555 229.235C693.797 228.997 693.984 228.702 694.116 228.349L695.623 228.772C695.465 229.283 695.198 229.733 694.824 230.12C694.449 230.504 693.986 230.803 693.436 231.019C692.885 231.231 692.266 231.337 691.578 231.337Z" fill="#3C4043"/>
<circle cx="619.225" cy="267.707" r="5.42857" fill="#3CC3DF" stroke="#1A1F26" stroke-width="1.55102"/>
<path d="M639.476 259.763H641.432L646.033 270.999H646.191L650.791 259.763H652.748V273.299H651.214V263.015H651.082L646.852 273.299H645.372L641.142 263.015H641.009V273.299H639.476V259.763ZM655.823 273.299V263.147H657.383V273.299H655.823ZM656.616 261.455C656.312 261.455 656.05 261.351 655.83 261.144C655.614 260.937 655.506 260.688 655.506 260.397C655.506 260.106 655.614 259.857 655.83 259.65C656.05 259.443 656.312 259.34 656.616 259.34C656.92 259.34 657.18 259.443 657.396 259.65C657.616 259.857 657.726 260.106 657.726 260.397C657.726 260.688 657.616 260.937 657.396 261.144C657.18 261.351 656.92 261.455 656.616 261.455ZM661.403 263.147L663.835 267.297L666.268 263.147H668.065L664.787 268.223L668.065 273.299H666.268L663.835 269.36L661.403 273.299H659.605L662.831 268.223L659.605 263.147H661.403Z" fill="#3C4043"/>
<path d="M602.537 102V100.229L607.236 95.6219C607.686 95.168 608.06 94.7648 608.36 94.4123C608.66 94.0598 608.884 93.7183 609.034 93.3879C609.184 93.0574 609.259 92.7049 609.259 92.3304C609.259 91.9029 609.162 91.5372 608.968 91.2332C608.774 90.9247 608.508 90.6868 608.168 90.5194C607.829 90.3519 607.444 90.2682 607.012 90.2682C606.567 90.2682 606.177 90.3607 605.842 90.5458C605.507 90.7265 605.247 90.9842 605.062 91.3191C604.881 91.654 604.791 92.0528 604.791 92.5154H602.458C602.458 91.6562 602.654 90.9093 603.046 90.2748C603.438 89.6403 603.978 89.149 604.665 88.8009C605.357 88.4528 606.15 88.2788 607.045 88.2788C607.952 88.2788 608.75 88.4484 609.437 88.7877C610.125 89.127 610.658 89.5918 611.037 90.1823C611.42 90.7727 611.612 91.4469 611.612 92.2048C611.612 92.7115 611.515 93.2094 611.321 93.6985C611.127 94.1876 610.786 94.7296 610.297 95.3244C609.812 95.9193 609.131 96.6397 608.254 97.4857L605.921 99.8585V99.9511H611.817V102H602.537ZM619.1 102.258C618.012 102.258 617.078 101.982 616.298 101.432C615.522 100.876 614.925 100.077 614.507 99.0324C614.093 97.9837 613.886 96.7212 613.886 95.2451C613.89 93.769 614.099 92.5132 614.513 91.4777C614.932 90.4378 615.529 89.6447 616.305 89.0983C617.085 88.5519 618.016 88.2788 619.1 88.2788C620.184 88.2788 621.116 88.5519 621.896 89.0983C622.676 89.6447 623.273 90.4378 623.687 91.4777C624.106 92.5176 624.315 93.7734 624.315 95.2451C624.315 96.7256 624.106 97.9903 623.687 99.039C623.273 100.083 622.676 100.881 621.896 101.432C621.121 101.982 620.189 102.258 619.1 102.258ZM619.1 100.189C619.946 100.189 620.614 99.7726 621.103 98.9398C621.597 98.1026 621.843 96.8711 621.843 95.2451C621.843 94.17 621.731 93.2667 621.506 92.5353C621.282 91.8038 620.964 91.253 620.555 90.8829C620.145 90.5083 619.66 90.3211 619.1 90.3211C618.259 90.3211 617.593 90.7397 617.104 91.5769C616.615 92.4097 616.369 93.6324 616.364 95.2451C616.36 96.3247 616.468 97.2324 616.688 97.9682C616.913 98.7041 617.23 99.2593 617.64 99.6338C618.05 100.004 618.536 100.189 619.1 100.189ZM626.511 102V100.229L631.211 95.6219C631.66 95.168 632.035 94.7648 632.334 94.4123C632.634 94.0598 632.859 93.7183 633.008 93.3879C633.158 93.0574 633.233 92.7049 633.233 92.3304C633.233 91.9029 633.136 91.5372 632.942 91.2332C632.748 90.9247 632.482 90.6868 632.143 90.5194C631.803 90.3519 631.418 90.2682 630.986 90.2682C630.541 90.2682 630.151 90.3607 629.816 90.5458C629.481 90.7265 629.221 90.9842 629.036 91.3191C628.855 91.654 628.765 92.0528 628.765 92.5154H626.432C626.432 91.6562 626.628 90.9093 627.02 90.2748C627.412 89.6403 627.952 89.149 628.64 88.8009C629.331 88.4528 630.124 88.2788 631.019 88.2788C631.927 88.2788 632.724 88.4484 633.412 88.7877C634.099 89.127 634.632 89.5918 635.011 90.1823C635.394 90.7727 635.586 91.4469 635.586 92.2048C635.586 92.7115 635.489 93.2094 635.295 93.6985C635.101 94.1876 634.76 94.7296 634.271 95.3244C633.786 95.9193 633.105 96.6397 632.228 97.4857L629.895 99.8585V99.9511H635.791V102H626.511ZM643.577 88.4638V102H641.125V90.8498H641.045L637.88 92.8723V90.6251L641.244 88.4638H643.577ZM653.194 94.2471V96.2167H647.1V94.2471H653.194ZM655.211 102V100.229L659.911 95.6219C660.36 95.168 660.735 94.7648 661.034 94.4123C661.334 94.0598 661.558 93.7183 661.708 93.3879C661.858 93.0574 661.933 92.7049 661.933 92.3304C661.933 91.9029 661.836 91.5372 661.642 91.2332C661.448 90.9247 661.182 90.6868 660.842 90.5194C660.503 90.3519 660.118 90.2682 659.686 90.2682C659.241 90.2682 658.851 90.3607 658.516 90.5458C658.181 90.7265 657.921 90.9842 657.736 91.3191C657.555 91.654 657.465 92.0528 657.465 92.5154H655.132C655.132 91.6562 655.328 90.9093 655.72 90.2748C656.112 89.6403 656.652 89.149 657.339 88.8009C658.031 88.4528 658.824 88.2788 659.719 88.2788C660.627 88.2788 661.424 88.4484 662.111 88.7877C662.799 89.127 663.332 89.5918 663.711 90.1823C664.094 90.7727 664.286 91.4469 664.286 92.2048C664.286 92.7115 664.189 93.2094 663.995 93.6985C663.801 94.1876 663.46 94.7296 662.971 95.3244C662.486 95.9193 661.805 96.6397 660.928 97.4857L658.595 99.8585V99.9511H664.491V102H655.211ZM671.775 102.258C670.686 102.258 669.752 101.982 668.972 101.432C668.197 100.876 667.6 100.077 667.181 99.0324C666.767 97.9837 666.56 96.7212 666.56 95.2451C666.564 93.769 666.773 92.5132 667.188 91.4777C667.606 90.4378 668.203 89.6447 668.979 89.0983C669.759 88.5519 670.691 88.2788 671.775 88.2788C672.858 88.2788 673.79 88.5519 674.57 89.0983C675.35 89.6447 675.947 90.4378 676.361 91.4777C676.78 92.5176 676.989 93.7734 676.989 95.2451C676.989 96.7256 676.78 97.9903 676.361 99.039C675.947 100.083 675.35 100.881 674.57 101.432C673.795 101.982 672.863 102.258 671.775 102.258ZM671.775 100.189C672.621 100.189 673.288 99.7726 673.777 98.9398C674.271 98.1026 674.517 96.8711 674.517 95.2451C674.517 94.17 674.405 93.2667 674.18 92.5353C673.956 91.8038 673.638 91.253 673.229 90.8829C672.819 90.5083 672.334 90.3211 671.775 90.3211C670.933 90.3211 670.268 90.7397 669.778 91.5769C669.289 92.4097 669.043 93.6324 669.038 95.2451C669.034 96.3247 669.142 97.2324 669.362 97.9682C669.587 98.7041 669.904 99.2593 670.314 99.6338C670.724 100.004 671.211 100.189 671.775 100.189ZM679.185 102V100.229L683.885 95.6219C684.334 95.168 684.709 94.7648 685.008 94.4123C685.308 94.0598 685.533 93.7183 685.682 93.3879C685.832 93.0574 685.907 92.7049 685.907 92.3304C685.907 91.9029 685.81 91.5372 685.616 91.2332C685.423 90.9247 685.156 90.6868 684.817 90.5194C684.477 90.3519 684.092 90.2682 683.66 90.2682C683.215 90.2682 682.825 90.3607 682.49 90.5458C682.155 90.7265 681.895 90.9842 681.71 91.3191C681.53 91.654 681.439 92.0528 681.439 92.5154H679.106C679.106 91.6562 679.302 90.9093 679.694 90.2748C680.086 89.6403 680.626 89.149 681.314 88.8009C682.005 88.4528 682.799 88.2788 683.693 88.2788C684.601 88.2788 685.398 88.4484 686.086 88.7877C686.773 89.127 687.306 89.5918 687.685 90.1823C688.068 90.7727 688.26 91.4469 688.26 92.2048C688.26 92.7115 688.163 93.2094 687.969 93.6985C687.775 94.1876 687.434 94.7296 686.945 95.3244C686.46 95.9193 685.779 96.6397 684.903 97.4857L682.569 99.8585V99.9511H688.465V102H679.185ZM695.603 102.185C694.652 102.185 693.806 102.022 693.065 101.696C692.329 101.37 691.748 100.916 691.32 100.334C690.893 99.7528 690.666 99.0808 690.64 98.3185H693.125C693.147 98.6843 693.268 99.0037 693.488 99.2769C693.709 99.5457 694.002 99.755 694.367 99.9048C694.733 100.055 695.143 100.13 695.597 100.13C696.081 100.13 696.511 100.046 696.886 99.8784C697.26 99.7065 697.553 99.4686 697.765 99.1645C697.976 98.8605 698.08 98.5102 698.075 98.1136C698.08 97.7038 697.974 97.3425 697.758 97.0297C697.542 96.7168 697.229 96.4723 696.819 96.296C696.414 96.1198 695.925 96.0317 695.352 96.0317H694.156V94.1414H695.352C695.824 94.1414 696.236 94.0598 696.588 93.8968C696.945 93.7338 697.225 93.5046 697.427 93.2094C697.63 92.9098 697.729 92.5639 697.725 92.1717C697.729 91.7884 697.643 91.4557 697.467 91.1737C697.295 90.8873 697.051 90.6648 696.733 90.5061C696.421 90.3475 696.053 90.2682 695.63 90.2682C695.216 90.2682 694.832 90.3431 694.48 90.4929C694.127 90.6427 693.843 90.8564 693.627 91.134C693.411 91.4072 693.297 91.7333 693.283 92.1122H690.924C690.941 91.3544 691.16 90.689 691.578 90.1162C692.001 89.539 692.565 89.0895 693.27 88.7679C693.975 88.4418 694.766 88.2788 695.643 88.2788C696.546 88.2788 697.331 88.4484 697.996 88.7877C698.666 89.1226 699.183 89.5742 699.549 90.1426C699.915 90.711 700.098 91.3389 700.098 92.0263C700.102 92.7886 699.877 93.4275 699.424 93.9431C698.974 94.4586 698.384 94.7957 697.652 94.9543V95.0601C698.604 95.1923 699.333 95.5448 699.84 96.1176C700.351 96.686 700.604 97.3932 700.6 98.2392C700.6 98.9971 700.384 99.6757 699.952 100.275C699.525 100.87 698.934 101.337 698.181 101.676C697.432 102.015 696.573 102.185 695.603 102.185ZM584.12 111.464H586.572V120.307C586.572 121.277 586.343 122.129 585.885 122.865C585.431 123.601 584.792 124.176 583.968 124.59C583.144 125 582.181 125.205 581.079 125.205C579.974 125.205 579.009 125 578.185 124.59C577.361 124.176 576.722 123.601 576.268 122.865C575.814 122.129 575.587 121.277 575.587 120.307V111.464H578.039V120.102C578.039 120.666 578.163 121.169 578.409 121.609C578.66 122.05 579.013 122.396 579.467 122.647C579.921 122.894 580.458 123.017 581.079 123.017C581.701 123.017 582.238 122.894 582.692 122.647C583.15 122.396 583.503 122.05 583.75 121.609C583.996 121.169 584.12 120.666 584.12 120.102V111.464ZM597.155 117.531L594.974 117.769C594.913 117.549 594.805 117.342 594.65 117.148C594.501 116.954 594.298 116.798 594.042 116.679C593.787 116.56 593.474 116.5 593.104 116.5C592.606 116.5 592.187 116.608 591.848 116.824C591.513 117.04 591.348 117.32 591.352 117.663C591.348 117.959 591.456 118.199 591.676 118.384C591.901 118.569 592.271 118.721 592.787 118.84L594.518 119.21C595.479 119.417 596.193 119.745 596.66 120.195C597.131 120.644 597.369 121.233 597.373 121.96C597.369 122.599 597.182 123.163 596.812 123.652C596.446 124.136 595.937 124.515 595.285 124.788C594.633 125.062 593.884 125.198 593.038 125.198C591.795 125.198 590.795 124.938 590.037 124.418C589.279 123.894 588.827 123.165 588.682 122.231L591.015 122.006C591.121 122.464 591.346 122.81 591.689 123.044C592.033 123.277 592.48 123.394 593.031 123.394C593.599 123.394 594.056 123.277 594.399 123.044C594.747 122.81 594.921 122.521 594.921 122.178C594.921 121.887 594.809 121.647 594.584 121.457C594.364 121.268 594.02 121.122 593.553 121.021L591.822 120.658C590.848 120.455 590.127 120.113 589.66 119.633C589.193 119.148 588.962 118.536 588.966 117.796C588.962 117.17 589.131 116.628 589.475 116.17C589.823 115.707 590.306 115.35 590.923 115.099C591.544 114.843 592.26 114.716 593.071 114.716C594.26 114.716 595.197 114.969 595.88 115.476C596.567 115.982 596.992 116.668 597.155 117.531ZM603.841 125.198C602.823 125.198 601.944 124.987 601.204 124.564C600.468 124.136 599.902 123.533 599.505 122.753C599.108 121.968 598.91 121.045 598.91 119.983C598.91 118.939 599.108 118.023 599.505 117.234C599.906 116.441 600.466 115.824 601.184 115.383C601.902 114.938 602.746 114.716 603.715 114.716C604.341 114.716 604.931 114.817 605.487 115.02C606.046 115.218 606.54 115.526 606.967 115.945C607.399 116.364 607.738 116.897 607.985 117.545C608.232 118.188 608.355 118.955 608.355 119.845V120.578H600.034V118.966H606.062C606.057 118.507 605.958 118.1 605.764 117.743C605.57 117.381 605.299 117.097 604.951 116.89C604.608 116.683 604.207 116.58 603.748 116.58C603.259 116.58 602.83 116.699 602.459 116.936C602.089 117.17 601.801 117.478 601.594 117.862C601.391 118.241 601.287 118.657 601.283 119.111V120.519C601.283 121.109 601.391 121.616 601.607 122.039C601.823 122.458 602.125 122.779 602.512 123.004C602.9 123.224 603.354 123.334 603.874 123.334C604.222 123.334 604.537 123.286 604.819 123.189C605.101 123.088 605.346 122.94 605.553 122.746C605.76 122.552 605.916 122.312 606.022 122.026L608.256 122.277C608.115 122.867 607.846 123.383 607.45 123.824C607.057 124.26 606.555 124.599 605.943 124.841C605.33 125.079 604.63 125.198 603.841 125.198ZM610.379 125V114.848H612.699V116.54H612.805C612.99 115.954 613.307 115.502 613.757 115.185C614.211 114.863 614.728 114.702 615.31 114.702C615.442 114.702 615.59 114.709 615.753 114.722C615.92 114.731 616.059 114.747 616.169 114.769V116.97C616.068 116.934 615.907 116.903 615.687 116.877C615.471 116.846 615.261 116.831 615.059 116.831C614.623 116.831 614.23 116.925 613.882 117.115C613.539 117.3 613.268 117.558 613.069 117.888C612.871 118.219 612.772 118.6 612.772 119.032V125H610.379ZM629.837 115.185C629.776 114.608 629.516 114.158 629.058 113.837C628.604 113.515 628.013 113.354 627.286 113.354C626.775 113.354 626.337 113.431 625.971 113.585C625.605 113.74 625.325 113.949 625.132 114.213C624.938 114.478 624.839 114.78 624.834 115.119C624.834 115.401 624.898 115.645 625.026 115.853C625.158 116.06 625.336 116.236 625.561 116.381C625.786 116.522 626.035 116.641 626.308 116.738C626.581 116.835 626.857 116.917 627.134 116.983L628.403 117.3C628.914 117.419 629.406 117.58 629.877 117.782C630.353 117.985 630.778 118.241 631.153 118.549C631.532 118.858 631.831 119.23 632.052 119.666C632.272 120.102 632.382 120.614 632.382 121.2C632.382 121.993 632.179 122.691 631.774 123.295C631.369 123.894 630.783 124.363 630.016 124.703C629.254 125.037 628.331 125.205 627.247 125.205C626.193 125.205 625.279 125.042 624.504 124.716C623.733 124.39 623.129 123.914 622.693 123.288C622.261 122.662 622.027 121.9 621.992 121.001H624.405C624.44 121.473 624.585 121.865 624.841 122.178C625.096 122.491 625.429 122.724 625.839 122.878C626.253 123.033 626.716 123.11 627.227 123.11C627.76 123.11 628.227 123.03 628.628 122.872C629.033 122.709 629.351 122.484 629.58 122.198C629.809 121.907 629.926 121.567 629.93 121.18C629.926 120.827 629.822 120.536 629.619 120.307C629.417 120.074 629.132 119.88 628.767 119.726C628.405 119.567 627.982 119.426 627.498 119.303L625.958 118.906C624.843 118.62 623.962 118.186 623.314 117.604C622.671 117.018 622.349 116.24 622.349 115.271C622.349 114.473 622.565 113.775 622.997 113.176C623.433 112.576 624.026 112.112 624.775 111.781C625.524 111.446 626.372 111.279 627.319 111.279C628.28 111.279 629.121 111.446 629.844 111.781C630.571 112.112 631.142 112.572 631.556 113.162C631.97 113.748 632.184 114.423 632.197 115.185H629.837ZM637.384 125.205C636.741 125.205 636.161 125.09 635.646 124.861C635.134 124.628 634.729 124.284 634.429 123.83C634.134 123.376 633.987 122.817 633.987 122.151C633.987 121.579 634.092 121.105 634.304 120.73C634.515 120.356 634.804 120.056 635.17 119.831C635.535 119.607 635.947 119.437 636.406 119.322C636.868 119.204 637.346 119.118 637.84 119.065C638.435 119.003 638.917 118.948 639.287 118.899C639.658 118.847 639.926 118.767 640.094 118.662C640.266 118.551 640.351 118.382 640.351 118.153V118.113C640.351 117.615 640.204 117.229 639.909 116.956C639.613 116.683 639.188 116.546 638.633 116.546C638.047 116.546 637.582 116.674 637.238 116.93C636.899 117.185 636.67 117.487 636.551 117.835L634.317 117.518C634.493 116.901 634.784 116.386 635.19 115.971C635.595 115.553 636.091 115.24 636.677 115.033C637.263 114.821 637.91 114.716 638.62 114.716C639.109 114.716 639.596 114.773 640.081 114.888C640.565 115.002 641.008 115.192 641.409 115.456C641.81 115.716 642.132 116.071 642.374 116.52C642.621 116.97 642.744 117.531 642.744 118.205V125H640.444V123.605H640.365C640.219 123.887 640.014 124.152 639.75 124.399C639.49 124.641 639.162 124.837 638.765 124.987C638.373 125.132 637.913 125.205 637.384 125.205ZM638.005 123.447C638.485 123.447 638.902 123.352 639.254 123.163C639.607 122.969 639.878 122.713 640.067 122.396C640.261 122.079 640.358 121.733 640.358 121.358V120.162C640.283 120.224 640.155 120.281 639.975 120.334C639.799 120.387 639.6 120.433 639.38 120.473C639.16 120.512 638.941 120.547 638.726 120.578C638.51 120.609 638.322 120.636 638.164 120.658C637.807 120.706 637.487 120.785 637.205 120.896C636.923 121.006 636.701 121.16 636.538 121.358C636.375 121.552 636.293 121.803 636.293 122.112C636.293 122.552 636.454 122.885 636.776 123.11C637.097 123.334 637.507 123.447 638.005 123.447ZM650.219 114.848V116.699H644.383V114.848H650.219ZM645.824 112.416H648.217V121.946C648.217 122.268 648.265 122.515 648.362 122.687C648.464 122.854 648.596 122.969 648.759 123.03C648.922 123.092 649.102 123.123 649.301 123.123C649.451 123.123 649.587 123.112 649.71 123.09C649.838 123.068 649.935 123.048 650.001 123.03L650.404 124.901C650.277 124.945 650.094 124.993 649.856 125.046C649.622 125.099 649.336 125.13 648.997 125.139C648.397 125.156 647.858 125.066 647.377 124.868C646.897 124.665 646.516 124.352 646.234 123.929C645.956 123.506 645.82 122.978 645.824 122.343V112.416ZM652.22 125V114.848H654.613V125H652.22ZM653.423 113.407C653.044 113.407 652.718 113.281 652.445 113.03C652.172 112.775 652.035 112.468 652.035 112.112C652.035 111.75 652.172 111.444 652.445 111.193C652.718 110.937 653.044 110.809 653.423 110.809C653.807 110.809 654.133 110.937 654.402 111.193C654.675 111.444 654.811 111.75 654.811 112.112C654.811 112.468 654.675 112.775 654.402 113.03C654.133 113.281 653.807 113.407 653.423 113.407ZM665.097 117.531L662.916 117.769C662.855 117.549 662.747 117.342 662.592 117.148C662.443 116.954 662.24 116.798 661.984 116.679C661.729 116.56 661.416 116.5 661.046 116.5C660.548 116.5 660.129 116.608 659.79 116.824C659.455 117.04 659.29 117.32 659.294 117.663C659.29 117.959 659.398 118.199 659.618 118.384C659.843 118.569 660.213 118.721 660.728 118.84L662.46 119.21C663.421 119.417 664.135 119.745 664.602 120.195C665.073 120.644 665.311 121.233 665.315 121.96C665.311 122.599 665.124 123.163 664.754 123.652C664.388 124.136 663.879 124.515 663.227 124.788C662.575 125.062 661.826 125.198 660.98 125.198C659.737 125.198 658.737 124.938 657.979 124.418C657.221 123.894 656.769 123.165 656.624 122.231L658.957 122.006C659.063 122.464 659.288 122.81 659.631 123.044C659.975 123.277 660.422 123.394 660.973 123.394C661.541 123.394 661.997 123.277 662.341 123.044C662.689 122.81 662.863 122.521 662.863 122.178C662.863 121.887 662.751 121.647 662.526 121.457C662.306 121.268 661.962 121.122 661.495 121.021L659.763 120.658C658.79 120.455 658.069 120.113 657.602 119.633C657.135 119.148 656.904 118.536 656.908 117.796C656.904 117.17 657.073 116.628 657.417 116.17C657.765 115.707 658.248 115.35 658.865 115.099C659.486 114.843 660.202 114.716 661.013 114.716C662.202 114.716 663.139 114.969 663.822 115.476C664.509 115.982 664.934 116.668 665.097 117.531ZM672.431 114.848V116.699H666.429V114.848H672.431ZM667.929 125V113.889C667.929 113.207 668.07 112.638 668.352 112.184C668.639 111.73 669.022 111.391 669.503 111.166C669.983 110.942 670.516 110.829 671.102 110.829C671.516 110.829 671.884 110.862 672.206 110.928C672.527 110.995 672.765 111.054 672.92 111.107L672.444 112.958C672.342 112.927 672.215 112.896 672.06 112.865C671.906 112.83 671.734 112.812 671.545 112.812C671.1 112.812 670.785 112.92 670.6 113.136C670.419 113.348 670.329 113.652 670.329 114.048V125H667.929ZM676.88 125.205C676.237 125.205 675.658 125.09 675.142 124.861C674.631 124.628 674.226 124.284 673.926 123.83C673.631 123.376 673.483 122.817 673.483 122.151C673.483 121.579 673.589 121.105 673.8 120.73C674.012 120.356 674.3 120.056 674.666 119.831C675.032 119.607 675.444 119.437 675.902 119.322C676.365 119.204 676.843 119.118 677.336 119.065C677.931 119.003 678.414 118.948 678.784 118.899C679.154 118.847 679.423 118.767 679.59 118.662C679.762 118.551 679.848 118.382 679.848 118.153V118.113C679.848 117.615 679.7 117.229 679.405 116.956C679.11 116.683 678.685 116.546 678.13 116.546C677.543 116.546 677.079 116.674 676.735 116.93C676.396 117.185 676.167 117.487 676.048 117.835L673.814 117.518C673.99 116.901 674.281 116.386 674.686 115.971C675.091 115.553 675.587 115.24 676.173 115.033C676.759 114.821 677.407 114.716 678.116 114.716C678.605 114.716 679.092 114.773 679.577 114.888C680.062 115.002 680.505 115.192 680.905 115.456C681.306 115.716 681.628 116.071 681.87 116.52C682.117 116.97 682.241 117.531 682.241 118.205V125H679.941V123.605H679.861C679.716 123.887 679.511 124.152 679.247 124.399C678.987 124.641 678.658 124.837 678.262 124.987C677.87 125.132 677.409 125.205 676.88 125.205ZM677.502 123.447C677.982 123.447 678.398 123.352 678.751 123.163C679.103 122.969 679.374 122.713 679.564 122.396C679.758 122.079 679.855 121.733 679.855 121.358V120.162C679.78 120.224 679.652 120.281 679.471 120.334C679.295 120.387 679.097 120.433 678.876 120.473C678.656 120.512 678.438 120.547 678.222 120.578C678.006 120.609 677.819 120.636 677.66 120.658C677.303 120.706 676.984 120.785 676.702 120.896C676.42 121.006 676.197 121.16 676.034 121.358C675.871 121.552 675.79 121.803 675.79 122.112C675.79 122.552 675.951 122.885 676.272 123.11C676.594 123.334 677.004 123.447 677.502 123.447ZM689.075 125.198C688.061 125.198 687.191 124.976 686.464 124.531C685.741 124.086 685.184 123.471 684.792 122.687C684.404 121.898 684.21 120.99 684.21 119.964C684.21 118.933 684.409 118.023 684.805 117.234C685.202 116.441 685.761 115.824 686.484 115.383C687.211 114.938 688.07 114.716 689.062 114.716C689.886 114.716 690.615 114.868 691.249 115.172C691.888 115.471 692.397 115.897 692.776 116.447C693.155 116.994 693.371 117.633 693.424 118.364H691.137C691.044 117.875 690.824 117.467 690.476 117.141C690.132 116.811 689.672 116.646 689.095 116.646C688.606 116.646 688.176 116.778 687.806 117.042C687.436 117.302 687.147 117.677 686.94 118.166C686.737 118.655 686.636 119.241 686.636 119.924C686.636 120.616 686.737 121.211 686.94 121.708C687.143 122.202 687.427 122.583 687.793 122.852C688.163 123.116 688.597 123.248 689.095 123.248C689.447 123.248 689.762 123.182 690.04 123.05C690.322 122.914 690.558 122.718 690.747 122.462C690.936 122.206 691.066 121.896 691.137 121.53H693.424C693.367 122.248 693.155 122.885 692.789 123.44C692.424 123.991 691.926 124.423 691.296 124.736C690.665 125.044 689.925 125.198 689.075 125.198ZM700.458 114.848V116.699H694.622V114.848H700.458ZM696.063 112.416H698.455V121.946C698.455 122.268 698.504 122.515 698.601 122.687C698.702 122.854 698.834 122.969 698.997 123.03C699.16 123.092 699.341 123.123 699.539 123.123C699.689 123.123 699.826 123.112 699.949 123.09C700.077 123.068 700.174 123.048 700.24 123.03L700.643 124.901C700.515 124.945 700.332 124.993 700.094 125.046C699.861 125.099 699.574 125.13 699.235 125.139C698.636 125.156 698.096 125.066 697.616 124.868C697.136 124.665 696.754 124.352 696.472 123.929C696.195 123.506 696.058 122.978 696.063 122.343V112.416ZM702.459 125V114.848H704.852V125H702.459ZM703.662 113.407C703.283 113.407 702.957 113.281 702.684 113.03C702.41 112.775 702.274 112.468 702.274 112.112C702.274 111.75 702.41 111.444 702.684 111.193C702.957 110.937 703.283 110.809 703.662 110.809C704.045 110.809 704.371 110.937 704.64 111.193C704.913 111.444 705.05 111.75 705.05 112.112C705.05 112.468 704.913 112.775 704.64 113.03C704.371 113.281 704.045 113.407 703.662 113.407ZM711.74 125.198C710.749 125.198 709.89 124.98 709.163 124.544C708.436 124.108 707.872 123.497 707.471 122.713C707.074 121.929 706.876 121.012 706.876 119.964C706.876 118.915 707.074 117.996 707.471 117.207C707.872 116.419 708.436 115.806 709.163 115.37C709.89 114.934 710.749 114.716 711.74 114.716C712.732 114.716 713.591 114.934 714.318 115.37C715.045 115.806 715.607 116.419 716.003 117.207C716.404 117.996 716.605 118.915 716.605 119.964C716.605 121.012 716.404 121.929 716.003 122.713C715.607 123.497 715.045 124.108 714.318 124.544C713.591 124.98 712.732 125.198 711.74 125.198ZM711.754 123.282C712.291 123.282 712.741 123.134 713.102 122.839C713.463 122.539 713.732 122.138 713.908 121.636C714.089 121.133 714.179 120.574 714.179 119.957C714.179 119.336 714.089 118.774 713.908 118.272C713.732 117.765 713.463 117.362 713.102 117.062C712.741 116.762 712.291 116.613 711.754 116.613C711.203 116.613 710.744 116.762 710.379 117.062C710.017 117.362 709.746 117.765 709.566 118.272C709.39 118.774 709.301 119.336 709.301 119.957C709.301 120.574 709.39 121.133 709.566 121.636C709.746 122.138 710.017 122.539 710.379 122.839C710.744 123.134 711.203 123.282 711.754 123.282ZM721.028 119.051V125H718.636V114.848H720.922V116.573H721.041C721.275 116.005 721.647 115.553 722.158 115.218C722.674 114.883 723.311 114.716 724.069 114.716C724.769 114.716 725.379 114.865 725.899 115.165C726.424 115.465 726.829 115.899 727.116 116.467C727.406 117.036 727.55 117.725 727.545 118.536V125H725.153V118.906C725.153 118.228 724.976 117.697 724.624 117.313C724.276 116.93 723.793 116.738 723.176 116.738C722.758 116.738 722.385 116.831 722.059 117.016C721.738 117.196 721.484 117.459 721.299 117.802C721.119 118.146 721.028 118.562 721.028 119.051Z" fill="#5F6367"/>
<path d="M97.4012 387V385.81L101.869 380.919C102.394 380.346 102.825 379.849 103.165 379.426C103.504 378.998 103.755 378.597 103.918 378.223C104.086 377.844 104.169 377.447 104.169 377.033C104.169 376.557 104.055 376.145 103.826 375.797C103.601 375.449 103.292 375.18 102.9 374.991C102.508 374.801 102.067 374.706 101.578 374.706C101.058 374.706 100.605 374.814 100.217 375.03C99.8335 375.242 99.5361 375.539 99.3246 375.923C99.1175 376.306 99.0139 376.755 99.0139 377.271H97.4541C97.4541 376.478 97.6369 375.782 98.0027 375.182C98.3684 374.583 98.8663 374.116 99.4964 373.781C100.131 373.446 100.843 373.279 101.631 373.279C102.424 373.279 103.127 373.446 103.74 373.781C104.352 374.116 104.832 374.568 105.181 375.136C105.529 375.704 105.703 376.337 105.703 377.033C105.703 377.531 105.612 378.018 105.432 378.494C105.255 378.965 104.947 379.492 104.506 380.073C104.07 380.651 103.464 381.356 102.689 382.188L99.6484 385.44V385.546H105.941V387H97.4012ZM113.085 387.185C112.09 387.185 111.241 386.914 110.541 386.372C109.84 385.826 109.305 385.035 108.935 383.999C108.565 382.959 108.38 381.704 108.38 380.232C108.38 378.769 108.565 377.52 108.935 376.484C109.309 375.444 109.847 374.651 110.547 374.105C111.252 373.554 112.098 373.279 113.085 373.279C114.072 373.279 114.916 373.554 115.617 374.105C116.322 374.651 116.859 375.444 117.23 376.484C117.604 377.52 117.791 378.769 117.791 380.232C117.791 381.704 117.606 382.959 117.236 383.999C116.866 385.035 116.331 385.826 115.63 386.372C114.929 386.914 114.081 387.185 113.085 387.185ZM113.085 385.731C114.072 385.731 114.839 385.255 115.386 384.303C115.932 383.352 116.205 381.994 116.205 380.232C116.205 379.06 116.08 378.062 115.828 377.238C115.582 376.414 115.225 375.786 114.758 375.354C114.295 374.922 113.738 374.706 113.085 374.706C112.107 374.706 111.343 375.189 110.792 376.154C110.241 377.114 109.966 378.474 109.966 380.232C109.966 381.404 110.089 382.4 110.336 383.219C110.583 384.039 110.937 384.662 111.4 385.09C111.867 385.517 112.429 385.731 113.085 385.731ZM120.303 387V385.81L124.771 380.919C125.295 380.346 125.727 379.849 126.066 379.426C126.406 378.998 126.657 378.597 126.82 378.223C126.987 377.844 127.071 377.447 127.071 377.033C127.071 376.557 126.957 376.145 126.727 375.797C126.503 375.449 126.194 375.18 125.802 374.991C125.41 374.801 124.969 374.706 124.48 374.706C123.96 374.706 123.506 374.814 123.119 375.03C122.735 375.242 122.438 375.539 122.226 375.923C122.019 376.306 121.916 376.755 121.916 377.271H120.356C120.356 376.478 120.539 375.782 120.904 375.182C121.27 374.583 121.768 374.116 122.398 373.781C123.033 373.446 123.744 373.279 124.533 373.279C125.326 373.279 126.029 373.446 126.641 373.781C127.254 374.116 127.734 374.568 128.082 375.136C128.43 375.704 128.604 376.337 128.604 377.033C128.604 377.531 128.514 378.018 128.333 378.494C128.157 378.965 127.849 379.492 127.408 380.073C126.972 380.651 126.366 381.356 125.591 382.188L122.55 385.44V385.546H128.842V387H120.303ZM136.331 373.464V387H134.692V375.182H134.612L131.308 377.377V375.711L134.692 373.464H136.331Z" fill="#3C4043"/>
<path d="M264.401 387V385.81L268.869 380.919C269.394 380.346 269.825 379.849 270.165 379.426C270.504 378.998 270.755 378.597 270.918 378.223C271.086 377.844 271.169 377.447 271.169 377.033C271.169 376.557 271.055 376.145 270.826 375.797C270.601 375.449 270.292 375.18 269.9 374.991C269.508 374.801 269.067 374.706 268.578 374.706C268.058 374.706 267.605 374.814 267.217 375.03C266.833 375.242 266.536 375.539 266.325 375.923C266.117 376.306 266.014 376.755 266.014 377.271H264.454C264.454 376.478 264.637 375.782 265.003 375.182C265.368 374.583 265.866 374.116 266.496 373.781C267.131 373.446 267.843 373.279 268.631 373.279C269.424 373.279 270.127 373.446 270.74 373.781C271.352 374.116 271.832 374.568 272.181 375.136C272.529 375.704 272.703 376.337 272.703 377.033C272.703 377.531 272.612 378.018 272.432 378.494C272.255 378.965 271.947 379.492 271.506 380.073C271.07 380.651 270.464 381.356 269.689 382.188L266.648 385.44V385.546H272.941V387H264.401ZM280.085 387.185C279.09 387.185 278.241 386.914 277.541 386.372C276.84 385.826 276.305 385.035 275.935 383.999C275.565 382.959 275.38 381.704 275.38 380.232C275.38 378.769 275.565 377.52 275.935 376.484C276.309 375.444 276.847 374.651 277.547 374.105C278.252 373.554 279.098 373.279 280.085 373.279C281.072 373.279 281.916 373.554 282.617 374.105C283.322 374.651 283.859 375.444 284.23 376.484C284.604 377.52 284.791 378.769 284.791 380.232C284.791 381.704 284.606 382.959 284.236 383.999C283.866 385.035 283.331 385.826 282.63 386.372C281.929 386.914 281.081 387.185 280.085 387.185ZM280.085 385.731C281.072 385.731 281.839 385.255 282.386 384.303C282.932 383.352 283.205 381.994 283.205 380.232C283.205 379.06 283.08 378.062 282.828 377.238C282.582 376.414 282.225 375.786 281.758 375.354C281.295 374.922 280.738 374.706 280.085 374.706C279.107 374.706 278.343 375.189 277.792 376.154C277.241 377.114 276.966 378.474 276.966 380.232C276.966 381.404 277.089 382.4 277.336 383.219C277.583 384.039 277.937 384.662 278.4 385.09C278.867 385.517 279.429 385.731 280.085 385.731ZM287.303 387V385.81L291.771 380.919C292.295 380.346 292.727 379.849 293.066 379.426C293.406 378.998 293.657 378.597 293.82 378.223C293.987 377.844 294.071 377.447 294.071 377.033C294.071 376.557 293.957 376.145 293.727 375.797C293.503 375.449 293.194 375.18 292.802 374.991C292.41 374.801 291.969 374.706 291.48 374.706C290.96 374.706 290.506 374.814 290.119 375.03C289.735 375.242 289.438 375.539 289.226 375.923C289.019 376.306 288.916 376.755 288.916 377.271H287.356C287.356 376.478 287.539 375.782 287.904 375.182C288.27 374.583 288.768 374.116 289.398 373.781C290.033 373.446 290.744 373.279 291.533 373.279C292.326 373.279 293.029 373.446 293.641 373.781C294.254 374.116 294.734 374.568 295.082 375.136C295.43 375.704 295.604 376.337 295.604 377.033C295.604 377.531 295.514 378.018 295.333 378.494C295.157 378.965 294.849 379.492 294.408 380.073C293.972 380.651 293.366 381.356 292.591 382.188L289.55 385.44V385.546H295.842V387H287.303ZM298.572 387V385.81L303.04 380.919C303.564 380.346 303.996 379.849 304.336 379.426C304.675 378.998 304.926 378.597 305.089 378.223C305.256 377.844 305.34 377.447 305.34 377.033C305.34 376.557 305.226 376.145 304.997 375.797C304.772 375.449 304.463 375.18 304.071 374.991C303.679 374.801 303.238 374.706 302.749 374.706C302.229 374.706 301.776 374.814 301.388 375.03C301.004 375.242 300.707 375.539 300.495 375.923C300.288 376.306 300.185 376.755 300.185 377.271H298.625C298.625 376.478 298.808 375.782 299.174 375.182C299.539 374.583 300.037 374.116 300.667 373.781C301.302 373.446 302.013 373.279 302.802 373.279C303.595 373.279 304.298 373.446 304.911 373.781C305.523 374.116 306.003 374.568 306.351 375.136C306.7 375.704 306.874 376.337 306.874 377.033C306.874 377.531 306.783 378.018 306.603 378.494C306.426 378.965 306.118 379.492 305.677 380.073C305.241 380.651 304.635 381.356 303.86 382.188L300.819 385.44V385.546H307.112V387H298.572Z" fill="#3C4043"/>
<path d="M427.401 387V385.81L431.869 380.919C432.394 380.346 432.825 379.849 433.165 379.426C433.504 378.998 433.755 378.597 433.918 378.223C434.086 377.844 434.169 377.447 434.169 377.033C434.169 376.557 434.055 376.145 433.826 375.797C433.601 375.449 433.292 375.18 432.9 374.991C432.508 374.801 432.067 374.706 431.578 374.706C431.058 374.706 430.605 374.814 430.217 375.03C429.833 375.242 429.536 375.539 429.325 375.923C429.117 376.306 429.014 376.755 429.014 377.271H427.454C427.454 376.478 427.637 375.782 428.003 375.182C428.368 374.583 428.866 374.116 429.496 373.781C430.131 373.446 430.843 373.279 431.631 373.279C432.424 373.279 433.127 373.446 433.74 373.781C434.352 374.116 434.832 374.568 435.181 375.136C435.529 375.704 435.703 376.337 435.703 377.033C435.703 377.531 435.612 378.018 435.432 378.494C435.255 378.965 434.947 379.492 434.506 380.073C434.07 380.651 433.464 381.356 432.689 382.188L429.648 385.44V385.546H435.941V387H427.401ZM443.085 387.185C442.09 387.185 441.241 386.914 440.541 386.372C439.84 385.826 439.305 385.035 438.935 383.999C438.565 382.959 438.38 381.704 438.38 380.232C438.38 378.769 438.565 377.52 438.935 376.484C439.309 375.444 439.847 374.651 440.547 374.105C441.252 373.554 442.098 373.279 443.085 373.279C444.072 373.279 444.916 373.554 445.617 374.105C446.322 374.651 446.859 375.444 447.23 376.484C447.604 377.52 447.791 378.769 447.791 380.232C447.791 381.704 447.606 382.959 447.236 383.999C446.866 385.035 446.331 385.826 445.63 386.372C444.929 386.914 444.081 387.185 443.085 387.185ZM443.085 385.731C444.072 385.731 444.839 385.255 445.386 384.303C445.932 383.352 446.205 381.994 446.205 380.232C446.205 379.06 446.08 378.062 445.828 377.238C445.582 376.414 445.225 375.786 444.758 375.354C444.295 374.922 443.738 374.706 443.085 374.706C442.107 374.706 441.343 375.189 440.792 376.154C440.241 377.114 439.966 378.474 439.966 380.232C439.966 381.404 440.089 382.4 440.336 383.219C440.583 384.039 440.937 384.662 441.4 385.09C441.867 385.517 442.429 385.731 443.085 385.731ZM450.303 387V385.81L454.771 380.919C455.295 380.346 455.727 379.849 456.066 379.426C456.406 378.998 456.657 378.597 456.82 378.223C456.987 377.844 457.071 377.447 457.071 377.033C457.071 376.557 456.957 376.145 456.727 375.797C456.503 375.449 456.194 375.18 455.802 374.991C455.41 374.801 454.969 374.706 454.48 374.706C453.96 374.706 453.506 374.814 453.119 375.03C452.735 375.242 452.438 375.539 452.226 375.923C452.019 376.306 451.916 376.755 451.916 377.271H450.356C450.356 376.478 450.539 375.782 450.904 375.182C451.27 374.583 451.768 374.116 452.398 373.781C453.033 373.446 453.744 373.279 454.533 373.279C455.326 373.279 456.029 373.446 456.641 373.781C457.254 374.116 457.734 374.568 458.082 375.136C458.43 375.704 458.604 376.337 458.604 377.033C458.604 377.531 458.514 378.018 458.333 378.494C458.157 378.965 457.849 379.492 457.408 380.073C456.972 380.651 456.366 381.356 455.591 382.188L452.55 385.44V385.546H458.842V387H450.303ZM466.146 387.185C465.273 387.185 464.496 387.035 463.813 386.736C463.134 386.436 462.594 386.02 462.193 385.486C461.797 384.949 461.581 384.325 461.546 383.616H463.211C463.247 384.052 463.396 384.429 463.661 384.746C463.925 385.059 464.271 385.301 464.698 385.473C465.126 385.645 465.599 385.731 466.119 385.731C466.701 385.731 467.217 385.63 467.666 385.427C468.115 385.224 468.468 384.942 468.724 384.581C468.979 384.22 469.107 383.801 469.107 383.325C469.107 382.827 468.984 382.389 468.737 382.01C468.49 381.627 468.129 381.327 467.653 381.111C467.177 380.895 466.595 380.787 465.908 380.787H464.824V379.333H465.908C466.445 379.333 466.917 379.236 467.322 379.042C467.732 378.848 468.052 378.575 468.281 378.223C468.514 377.87 468.631 377.456 468.631 376.98C468.631 376.522 468.53 376.123 468.327 375.784C468.124 375.444 467.838 375.18 467.468 374.991C467.102 374.801 466.67 374.706 466.172 374.706C465.705 374.706 465.265 374.792 464.85 374.964C464.441 375.132 464.106 375.376 463.846 375.698C463.586 376.015 463.445 376.398 463.423 376.848H461.836C461.863 376.138 462.077 375.517 462.478 374.984C462.879 374.446 463.403 374.028 464.051 373.728C464.703 373.429 465.419 373.279 466.199 373.279C467.036 373.279 467.754 373.448 468.353 373.788C468.953 374.123 469.413 374.565 469.735 375.116C470.056 375.667 470.217 376.262 470.217 376.901C470.217 377.663 470.017 378.313 469.616 378.851C469.219 379.388 468.679 379.76 467.997 379.968V380.073C468.851 380.214 469.519 380.578 469.999 381.164C470.479 381.745 470.72 382.466 470.72 383.325C470.72 384.061 470.519 384.722 470.118 385.308C469.722 385.89 469.18 386.348 468.492 386.683C467.805 387.018 467.023 387.185 466.146 387.185Z" fill="#3C4043"/>
<path d="M12.3641 4.46382V18H10.725V6.18228H10.6457L7.34093 8.37662V6.71104L10.725 4.46382H12.3641ZM20.6722 18.1851C19.6764 18.1851 18.8282 17.9141 18.1276 17.3721C17.427 16.8257 16.8916 16.0348 16.5215 14.9993C16.1513 13.9594 15.9663 12.7036 15.9663 11.2319C15.9663 9.76902 16.1513 8.51983 16.5215 7.48435C16.896 6.44446 17.4336 5.65132 18.1342 5.10494C18.8392 4.55415 19.6852 4.27876 20.6722 4.27876C21.6592 4.27876 22.503 4.55415 23.2036 5.10494C23.9086 5.65132 24.4462 6.44446 24.8163 7.48435C25.1909 8.51983 25.3781 9.76902 25.3781 11.2319C25.3781 12.7036 25.1931 13.9594 24.823 14.9993C24.4528 16.0348 23.9175 16.8257 23.2169 17.3721C22.5163 17.9141 21.668 18.1851 20.6722 18.1851ZM20.6722 16.731C21.6592 16.731 22.4259 16.2551 22.9723 15.3033C23.5187 14.3516 23.7919 12.9944 23.7919 11.2319C23.7919 10.0598 23.6663 9.0618 23.4151 8.23782C23.1684 7.41385 22.8115 6.78595 22.3444 6.35413C21.8817 5.92231 21.3243 5.7064 20.6722 5.7064C19.694 5.7064 18.9295 6.18889 18.3787 7.15387C17.8279 8.11445 17.5525 9.47379 17.5525 11.2319C17.5525 12.404 17.6759 13.3998 17.9227 14.2194C18.1694 15.039 18.5241 15.6625 18.9868 16.0899C19.4539 16.5173 20.0157 16.731 20.6722 16.731ZM32.3049 18.1851C31.309 18.1851 30.4608 17.9141 29.7602 17.3721C29.0596 16.8257 28.5243 16.0348 28.1541 14.9993C27.784 13.9594 27.5989 12.7036 27.5989 11.2319C27.5989 9.76902 27.784 8.51983 28.1541 7.48435C28.5287 6.44446 29.0662 5.65132 29.7668 5.10494C30.4718 4.55415 31.3179 4.27876 32.3049 4.27876C33.2919 4.27876 34.1357 4.55415 34.8363 5.10494C35.5413 5.65132 36.0789 6.44446 36.449 7.48435C36.8235 8.51983 37.0108 9.76902 37.0108 11.2319C37.0108 12.7036 36.8257 13.9594 36.4556 14.9993C36.0855 16.0348 35.5501 16.8257 34.8495 17.3721C34.1489 17.9141 33.3007 18.1851 32.3049 18.1851ZM32.3049 16.731C33.2919 16.731 34.0586 16.2551 34.605 15.3033C35.1513 14.3516 35.4245 12.9944 35.4245 11.2319C35.4245 10.0598 35.299 9.0618 35.0478 8.23782C34.801 7.41385 34.4441 6.78595 33.9771 6.35413C33.5144 5.92231 32.957 5.7064 32.3049 5.7064C31.3267 5.7064 30.5622 6.18889 30.0114 7.15387C29.4606 8.11445 29.1852 9.47379 29.1852 11.2319C29.1852 12.404 29.3086 13.3998 29.5553 14.2194C29.8021 15.039 30.1568 15.6625 30.6195 16.0899C31.0865 16.5173 31.6483 16.731 32.3049 16.731Z" fill="black" fill-opacity="0.7"/>
<path d="M19.9411 84.2261C19.0334 84.2261 18.2315 84.0653 17.5353 83.7436C16.8435 83.4175 16.3037 82.9703 15.916 82.4019C15.5282 81.829 15.3365 81.1769 15.3409 80.4455C15.3365 79.8726 15.4489 79.3439 15.678 78.8592C15.9071 78.3701 16.22 77.9625 16.6166 77.6364C17.0175 77.306 17.4648 77.0967 17.9583 77.0085V76.9292C17.3105 76.7618 16.795 76.3983 16.4117 75.8387C16.0283 75.2747 15.8388 74.6335 15.8432 73.9153C15.8388 73.2279 16.0129 72.6133 16.3654 72.0713C16.7179 71.5293 17.2026 71.1019 17.8195 70.789C18.4408 70.4762 19.148 70.3198 19.9411 70.3198C20.7254 70.3198 21.426 70.4762 22.0429 70.789C22.6598 71.1019 23.1445 71.5293 23.497 72.0713C23.8539 72.6133 24.0346 73.2279 24.039 73.9153C24.0346 74.6335 23.8385 75.2747 23.4507 75.8387C23.0674 76.3983 22.5585 76.7618 21.924 76.9292V77.0085C22.4131 77.0967 22.8537 77.306 23.2458 77.6364C23.638 77.9625 23.9509 78.3701 24.1844 78.8592C24.4179 79.3439 24.5369 79.8726 24.5413 80.4455C24.5369 81.1769 24.3386 81.829 23.9464 82.4019C23.5587 82.9703 23.0189 83.4175 22.3271 83.7436C21.6397 84.0653 20.8444 84.2261 19.9411 84.2261ZM19.9411 82.772C20.5536 82.772 21.0823 82.6729 21.5274 82.4746C21.9724 82.2763 22.3161 81.9965 22.5585 81.6352C22.8008 81.2739 22.9242 80.8508 22.9286 80.3662C22.9242 79.855 22.792 79.4034 22.532 79.0112C22.2721 78.6191 21.9173 78.3106 21.4679 78.0859C21.0229 77.8612 20.5139 77.7488 19.9411 77.7488C19.3639 77.7488 18.8483 77.8612 18.3945 78.0859C17.9451 78.3106 17.5903 78.6191 17.3304 79.0112C17.0748 79.4034 16.9492 79.855 16.9536 80.3662C16.9492 80.8508 17.066 81.2739 17.3039 81.6352C17.5463 81.9965 17.8922 82.2763 18.3416 82.4746C18.7911 82.6729 19.3242 82.772 19.9411 82.772ZM19.9411 76.3476C20.4258 76.3476 20.8554 76.2507 21.23 76.0568C21.6089 75.8629 21.9063 75.5919 22.1222 75.2438C22.3381 74.8957 22.4483 74.4881 22.4527 74.0211C22.4483 73.5628 22.3403 73.164 22.1288 72.8248C21.9173 72.4811 21.6243 72.2167 21.2498 72.0316C20.8753 71.8422 20.439 71.7474 19.9411 71.7474C19.4344 71.7474 18.9916 71.8422 18.6126 72.0316C18.2337 72.2167 17.9407 72.4811 17.7336 72.8248C17.5265 73.164 17.4251 73.5628 17.4295 74.0211C17.4251 74.4881 17.5287 74.8957 17.7402 75.2438C17.9561 75.5919 18.2535 75.8629 18.6324 76.0568C19.0114 76.2507 19.4476 76.3476 19.9411 76.3476ZM31.4895 84.2261C30.4937 84.2261 29.6455 83.9551 28.9449 83.4131C28.2443 82.8667 27.7089 82.0758 27.3388 81.0403C26.9686 80.0004 26.7836 78.7446 26.7836 77.2729C26.7836 75.81 26.9686 74.5608 27.3388 73.5254C27.7133 72.4855 28.2509 71.6923 28.9515 71.146C29.6565 70.5952 30.5025 70.3198 31.4895 70.3198C32.4765 70.3198 33.3203 70.5952 34.0209 71.146C34.7259 71.6923 35.2635 72.4855 35.6336 73.5254C36.0082 74.5608 36.1954 75.81 36.1954 77.2729C36.1954 78.7446 36.0104 80.0004 35.6402 81.0403C35.2701 82.0758 34.7347 82.8667 34.0341 83.4131C33.3335 83.9551 32.4853 84.2261 31.4895 84.2261ZM31.4895 82.772C32.4765 82.772 33.2432 82.2961 33.7896 81.3444C34.336 80.3926 34.6092 79.0354 34.6092 77.2729C34.6092 76.1008 34.4836 75.1028 34.2324 74.2788C33.9857 73.4549 33.6288 72.827 33.1617 72.3951C32.699 71.9633 32.1416 71.7474 31.4895 71.7474C30.5113 71.7474 29.7468 72.2299 29.196 73.1949C28.6452 74.1555 28.3698 75.5148 28.3698 77.2729C28.3698 78.445 28.4932 79.4408 28.74 80.2604C28.9867 81.08 29.3414 81.7035 29.8041 82.1309C30.2712 82.5583 30.833 82.772 31.4895 82.772Z" fill="black" fill-opacity="0.7"/>
<path d="M20.0997 150.267C19.5445 150.258 18.9894 150.153 18.4342 149.95C17.879 149.747 17.3722 149.406 16.914 148.925C16.4557 148.441 16.0878 147.786 15.8102 146.962C15.5326 146.134 15.3938 145.094 15.3938 143.843C15.3938 142.644 15.5062 141.582 15.7309 140.657C15.9556 139.727 16.2817 138.945 16.7091 138.311C17.1365 137.672 17.652 137.187 18.2557 136.856C18.8638 136.526 19.549 136.361 20.3112 136.361C21.0691 136.361 21.7433 136.513 22.3337 136.817C22.9286 137.116 23.4133 137.535 23.7878 138.073C24.1624 138.61 24.4047 139.229 24.5149 139.93H22.9022C22.7523 139.322 22.4615 138.817 22.0297 138.416C21.5979 138.015 21.0251 137.815 20.3112 137.815C19.2625 137.815 18.4364 138.271 17.8327 139.183C17.2334 140.095 16.9316 141.375 16.9272 143.023H17.033C17.2797 142.649 17.5727 142.329 17.912 142.065C18.2557 141.796 18.6346 141.589 19.0488 141.443C19.463 141.298 19.9015 141.225 20.3641 141.225C21.1396 141.225 21.849 141.419 22.4924 141.807C23.1357 142.19 23.6512 142.721 24.039 143.4C24.4267 144.074 24.6206 144.847 24.6206 145.72C24.6206 146.557 24.4333 147.324 24.0588 148.02C23.6843 148.712 23.1577 149.262 22.4791 149.672C21.805 150.078 21.0118 150.276 20.0997 150.267ZM20.0997 148.813C20.6549 148.813 21.1528 148.674 21.5935 148.397C22.0385 148.119 22.3888 147.747 22.6444 147.28C22.9044 146.813 23.0343 146.293 23.0343 145.72C23.0343 145.16 22.9088 144.651 22.6576 144.193C22.4108 143.73 22.0694 143.362 21.6331 143.089C21.2013 142.816 20.7078 142.679 20.1526 142.679C19.734 142.679 19.3441 142.763 18.9827 142.931C18.6214 143.094 18.3042 143.318 18.031 143.605C17.7622 143.891 17.5507 144.219 17.3965 144.59C17.2423 144.955 17.1651 145.341 17.1651 145.746C17.1651 146.284 17.2907 146.786 17.5419 147.253C17.7974 147.72 18.1455 148.097 18.5862 148.383C19.0312 148.67 19.5357 148.813 20.0997 148.813ZM31.6349 150.267C30.6391 150.267 29.7909 149.996 29.0903 149.454C28.3897 148.908 27.8543 148.117 27.4842 147.081C27.114 146.041 26.929 144.786 26.929 143.314C26.929 141.851 27.114 140.602 27.4842 139.566C27.8587 138.526 28.3963 137.733 29.0969 137.187C29.8019 136.636 30.6479 136.361 31.6349 136.361C32.6219 136.361 33.4657 136.636 34.1663 137.187C34.8713 137.733 35.4089 138.526 35.779 139.566C36.1536 140.602 36.3408 141.851 36.3408 143.314C36.3408 144.786 36.1558 146.041 35.7856 147.081C35.4155 148.117 34.8801 148.908 34.1795 149.454C33.4789 149.996 32.6307 150.267 31.6349 150.267ZM31.6349 148.813C32.6219 148.813 33.3886 148.337 33.935 147.385C34.4814 146.434 34.7546 145.076 34.7546 143.314C34.7546 142.142 34.629 141.144 34.3778 140.32C34.1311 139.496 33.7742 138.868 33.3071 138.436C32.8444 138.004 32.287 137.788 31.6349 137.788C30.6567 137.788 29.8922 138.271 29.3414 139.236C28.7906 140.196 28.5152 141.556 28.5152 143.314C28.5152 144.486 28.6386 145.482 28.8854 146.301C29.1321 147.121 29.4868 147.744 29.9495 148.172C30.4166 148.599 30.9784 148.813 31.6349 148.813Z" fill="black" fill-opacity="0.7"/>
<path d="M15.2881 213.347V211.999L21.2366 202.587H22.2148V204.675H21.5538L17.0594 211.787V211.893H25.0701V213.347H15.2881ZM21.6596 216.123V212.937V212.309V202.587H23.2194V216.123H21.6596ZM31.9621 216.308C30.9662 216.308 30.118 216.037 29.4174 215.495C28.7168 214.949 28.1815 214.158 27.8113 213.122C27.4412 212.082 27.2561 210.827 27.2561 209.355C27.2561 207.892 27.4412 206.643 27.8113 205.607C28.1859 204.568 28.7234 203.774 29.424 203.228C30.129 202.677 30.9751 202.402 31.9621 202.402C32.9491 202.402 33.7929 202.677 34.4935 203.228C35.1985 203.774 35.7361 204.568 36.1062 205.607C36.4807 206.643 36.668 207.892 36.668 209.355C36.668 210.827 36.4829 212.082 36.1128 213.122C35.7427 214.158 35.2073 214.949 34.5067 215.495C33.8061 216.037 32.9579 216.308 31.9621 216.308ZM31.9621 214.854C32.9491 214.854 33.7158 214.378 34.2622 213.426C34.8085 212.475 35.0817 211.117 35.0817 209.355C35.0817 208.183 34.9562 207.185 34.705 206.361C34.4582 205.537 34.1013 204.909 33.6343 204.477C33.1716 204.045 32.6142 203.829 31.9621 203.829C30.9839 203.829 30.2194 204.312 29.6686 205.277C29.1178 206.237 28.8424 207.597 28.8424 209.355C28.8424 210.527 28.9658 211.523 29.2125 212.342C29.4593 213.162 29.814 213.786 30.2767 214.213C30.7437 214.64 31.3055 214.854 31.9621 214.854Z" fill="black" fill-opacity="0.7"/>
<path d="M16.6053 282.164V280.974L21.0733 276.083C21.5977 275.511 22.0295 275.013 22.3688 274.59C22.708 274.162 22.9592 273.761 23.1222 273.387C23.2897 273.008 23.3734 272.611 23.3734 272.197C23.3734 271.721 23.2588 271.309 23.0297 270.961C22.805 270.613 22.4965 270.344 22.1044 270.155C21.7122 269.965 21.2716 269.87 20.7825 269.87C20.2625 269.87 19.8087 269.978 19.4209 270.194C19.0376 270.406 18.7402 270.703 18.5287 271.087C18.3216 271.47 18.218 271.919 18.218 272.435H16.6582C16.6582 271.642 16.841 270.946 17.2068 270.346C17.5725 269.747 18.0704 269.28 18.7005 268.945C19.335 268.61 20.0466 268.443 20.8354 268.443C21.6285 268.443 22.3313 268.61 22.9438 268.945C23.5563 269.28 24.0365 269.732 24.3846 270.3C24.7327 270.868 24.9068 271.501 24.9068 272.197C24.9068 272.695 24.8165 273.182 24.6358 273.658C24.4596 274.129 24.1511 274.656 23.7105 275.237C23.2743 275.815 22.6684 276.52 21.8929 277.352L18.8525 280.604V280.71H25.1447V282.164H16.6053ZM32.2896 282.349C31.2937 282.349 30.4455 282.078 29.7449 281.536C29.0443 280.99 28.5089 280.199 28.1388 279.163C27.7687 278.123 27.5836 276.868 27.5836 275.396C27.5836 273.933 27.7687 272.684 28.1388 271.648C28.5134 270.609 29.0509 269.815 29.7515 269.269C30.4565 268.718 31.3025 268.443 32.2896 268.443C33.2766 268.443 34.1204 268.718 34.821 269.269C35.526 269.815 36.0636 270.609 36.4337 271.648C36.8082 272.684 36.9955 273.933 36.9955 275.396C36.9955 276.868 36.8104 278.123 36.4403 279.163C36.0702 280.199 35.5348 280.99 34.8342 281.536C34.1336 282.078 33.2854 282.349 32.2896 282.349ZM32.2896 280.895C33.2766 280.895 34.0433 280.419 34.5897 279.467C35.136 278.516 35.4092 277.158 35.4092 275.396C35.4092 274.224 35.2836 273.226 35.0325 272.402C34.7857 271.578 34.4288 270.95 33.9618 270.518C33.4991 270.086 32.9417 269.87 32.2896 269.87C31.3114 269.87 30.5469 270.353 29.9961 271.318C29.4453 272.279 29.1699 273.638 29.1699 275.396C29.1699 276.568 29.2933 277.564 29.54 278.383C29.7868 279.203 30.1415 279.827 30.6041 280.254C31.0712 280.681 31.633 280.895 32.2896 280.895Z" fill="black" fill-opacity="0.7"/>
<path d="M32.0204 348.39C31.0246 348.39 30.1764 348.119 29.4758 347.577C28.7752 347.031 28.2398 346.24 27.8697 345.204C27.4996 344.164 27.3145 342.909 27.3145 341.437C27.3145 339.974 27.4996 338.725 27.8697 337.689C28.2442 336.65 28.7818 335.856 29.4824 335.31C30.1874 334.759 31.0334 334.484 32.0204 334.484C33.0074 334.484 33.8512 334.759 34.5519 335.31C35.2569 335.856 35.7944 336.65 36.1646 337.689C36.5391 338.725 36.7264 339.974 36.7264 341.437C36.7264 342.909 36.5413 344.164 36.1712 345.204C35.801 346.24 35.2657 347.031 34.5651 347.577C33.8645 348.119 33.0163 348.39 32.0204 348.39ZM32.0204 346.936C33.0074 346.936 33.7741 346.46 34.3205 345.508C34.8669 344.557 35.1401 343.2 35.1401 341.437C35.1401 340.265 35.0145 339.267 34.7634 338.443C34.5166 337.619 34.1597 336.991 33.6926 336.559C33.23 336.127 32.6726 335.911 32.0204 335.911C31.0422 335.911 30.2777 336.394 29.7269 337.359C29.1762 338.32 28.9008 339.679 28.9008 341.437C28.9008 342.609 29.0241 343.605 29.2709 344.424C29.5176 345.244 29.8724 345.868 30.335 346.295C30.8021 346.722 31.3639 346.936 32.0204 346.936Z" fill="black" fill-opacity="0.7"/>
<line x1="45.959" y1="8.53015" x2="537.632" y2="8.53015" stroke="#00001A" stroke-opacity="0.15" stroke-width="1.55102" stroke-dasharray="3.1"/>
<line x1="45.959" y1="75.535" x2="537.632" y2="75.535" stroke="#00001A" stroke-opacity="0.15" stroke-width="1.55102" stroke-dasharray="3.1"/>
<line x1="45.959" y1="142.539" x2="537.632" y2="142.539" stroke="#00001A" stroke-opacity="0.15" stroke-width="1.55102" stroke-dasharray="3.1"/>
<line x1="45.959" y1="209.543" x2="537.632" y2="209.543" stroke="#00001A" stroke-opacity="0.15" stroke-width="1.55102" stroke-dasharray="3.1"/>
<line x1="45.959" y1="276.547" x2="537.632" y2="276.547" stroke="#00001A" stroke-opacity="0.15" stroke-width="1.55102" stroke-dasharray="3.1"/>
<line x1="45.959" y1="343.551" x2="537.632" y2="343.551" stroke="#00001A" stroke-opacity="0.3" stroke-width="1.55102"/>
<g opacity="0.2">
<rect opacity="0.6" x="61.4697" y="9.30566" width="41.8776" height="334.031" fill="#009D97"/>
<rect x="61.4697" y="9.30566" width="41.8776" height="4.65306" fill="#009D97"/>
</g>
<rect opacity="0.6" x="61" y="143" width="41.8776" height="198.913" fill="#009D97"/>
<rect x="61" y="143" width="41.8776" height="4.65306" fill="#009D97"/>
<path d="M75.5253 139.154C75.0627 139.147 74.6 139.059 74.1374 138.89C73.6747 138.721 73.2524 138.436 72.8705 138.036C72.4887 137.632 72.1821 137.087 71.9507 136.4C71.7194 135.71 71.6037 134.843 71.6037 133.801C71.6037 132.802 71.6974 131.917 71.8846 131.146C72.0719 130.371 72.3436 129.719 72.6998 129.19C73.056 128.658 73.4856 128.254 73.9886 127.979C74.4954 127.703 75.0663 127.566 75.7016 127.566C76.3332 127.566 76.895 127.692 77.387 127.946C77.8827 128.195 78.2866 128.544 78.5987 128.992C78.9109 129.44 79.1128 129.956 79.2046 130.54H77.8607C77.7358 130.033 77.4935 129.613 77.1336 129.279C76.7738 128.944 76.2964 128.777 75.7016 128.777C74.8277 128.777 74.1392 129.157 73.6361 129.917C73.1368 130.678 72.8852 131.744 72.8816 133.118H72.9697C73.1753 132.805 73.4195 132.539 73.7022 132.319C73.9886 132.095 74.3044 131.922 74.6496 131.801C74.9947 131.68 75.3601 131.619 75.7457 131.619C76.3919 131.619 76.9831 131.781 77.5192 132.104C78.0553 132.424 78.4849 132.866 78.808 133.432C79.1312 133.993 79.2927 134.638 79.2927 135.365C79.2927 136.062 79.1367 136.701 78.8246 137.282C78.5124 137.858 78.0737 138.317 77.5082 138.659C76.9464 138.996 76.2854 139.162 75.5253 139.154ZM75.5253 137.942C75.988 137.942 76.4029 137.827 76.7701 137.595C77.141 137.364 77.4329 137.054 77.6459 136.665C77.8625 136.275 77.9708 135.842 77.9708 135.365C77.9708 134.898 77.8662 134.474 77.6569 134.092C77.4513 133.707 77.1667 133.4 76.8032 133.173C76.4433 132.945 76.0321 132.831 75.5694 132.831C75.2206 132.831 74.8956 132.901 74.5945 133.04C74.2934 133.176 74.029 133.364 73.8014 133.602C73.5774 133.841 73.4011 134.115 73.2726 134.423C73.1441 134.728 73.0798 135.049 73.0798 135.387C73.0798 135.835 73.1845 136.253 73.3938 136.643C73.6068 137.032 73.8968 137.346 74.264 137.584C74.6349 137.823 75.0553 137.942 75.5253 137.942ZM85.138 139.154C84.3081 139.154 83.6013 138.928 83.0174 138.477C82.4336 138.021 81.9875 137.362 81.679 136.499C81.3706 135.633 81.2164 134.586 81.2164 133.36C81.2164 132.141 81.3706 131.1 81.679 130.237C81.9911 129.37 82.4391 128.709 83.0229 128.254C83.6105 127.795 84.3155 127.566 85.138 127.566C85.9605 127.566 86.6637 127.795 87.2475 128.254C87.835 128.709 88.283 129.37 88.5914 130.237C88.9035 131.1 89.0596 132.141 89.0596 133.36C89.0596 134.586 88.9054 135.633 88.5969 136.499C88.2885 137.362 87.8423 138.021 87.2585 138.477C86.6747 138.928 85.9678 139.154 85.138 139.154ZM85.138 137.942C85.9605 137.942 86.5994 137.546 87.0547 136.753C87.51 135.96 87.7377 134.829 87.7377 133.36C87.7377 132.383 87.633 131.552 87.4237 130.865C87.2181 130.178 86.9207 129.655 86.5315 129.295C86.1459 128.935 85.6814 128.755 85.138 128.755C84.3228 128.755 83.6857 129.157 83.2267 129.962C82.7677 130.762 82.5383 131.895 82.5383 133.36C82.5383 134.337 82.6411 135.167 82.8467 135.849C83.0523 136.532 83.3479 137.052 83.7335 137.408C84.1227 137.764 84.5909 137.942 85.138 137.942Z" fill="black" fill-opacity="0.7"/>
<g opacity="0.2">
<rect opacity="0.6" x="106.104" y="9.30566" width="41.8776" height="334.031" fill="#FF928A"/>
<rect x="106.104" y="9.30566" width="41.8776" height="4.65306" fill="#FF928A"/>
</g>
<rect opacity="0.6" x="106" y="104" width="41.8776" height="237.582" fill="#FF928A"/>
<rect x="106" y="104" width="41.8776" height="4.65306" fill="#FF928A"/>
<path d="M117.191 100L122.236 90.0197V89.9316H116.42V88.7199H123.646V89.9977L118.623 100H117.191ZM126.355 100L131.4 90.0197V89.9316H125.584V88.7199H132.81V89.9977L127.787 100H126.355Z" fill="black" fill-opacity="0.7"/>
<g opacity="0.2">
<rect opacity="0.6" x="150.739" y="9.30566" width="41.8776" height="334.031" fill="#3CC3DF"/>
<rect x="150.739" y="9.30566" width="41.8776" height="4.65306" fill="#3CC3DF"/>
</g>
<rect opacity="0.6" x="151" y="147" width="42" height="195" fill="#3CC3DF"/>
<rect x="151" y="143" width="41.8776" height="4.65306" fill="#3CC3DF"/>
<path d="M165.219 139.154C164.756 139.147 164.293 139.059 163.831 138.89C163.368 138.721 162.946 138.436 162.564 138.036C162.182 137.632 161.875 137.087 161.644 136.4C161.413 135.71 161.297 134.843 161.297 133.801C161.297 132.802 161.391 131.917 161.578 131.146C161.765 130.371 162.037 129.719 162.393 129.19C162.749 128.658 163.179 128.254 163.682 127.979C164.189 127.703 164.76 127.566 165.395 127.566C166.027 127.566 166.588 127.692 167.08 127.946C167.576 128.195 167.98 128.544 168.292 128.992C168.604 129.44 168.806 129.956 168.898 130.54H167.554C167.429 130.033 167.187 129.613 166.827 129.279C166.467 128.944 165.99 128.777 165.395 128.777C164.521 128.777 163.833 129.157 163.329 129.917C162.83 130.678 162.579 131.744 162.575 133.118H162.663C162.869 132.805 163.113 132.539 163.396 132.319C163.682 132.095 163.998 131.922 164.343 131.801C164.688 131.68 165.053 131.619 165.439 131.619C166.085 131.619 166.676 131.781 167.213 132.104C167.749 132.424 168.178 132.866 168.501 133.432C168.825 133.993 168.986 134.638 168.986 135.365C168.986 136.062 168.83 136.701 168.518 137.282C168.206 137.858 167.767 138.317 167.202 138.659C166.64 138.996 165.979 139.162 165.219 139.154ZM165.219 137.942C165.681 137.942 166.096 137.827 166.463 137.595C166.834 137.364 167.126 137.054 167.339 136.665C167.556 136.275 167.664 135.842 167.664 135.365C167.664 134.898 167.56 134.474 167.35 134.092C167.145 133.707 166.86 133.4 166.497 133.173C166.137 132.945 165.725 132.831 165.263 132.831C164.914 132.831 164.589 132.901 164.288 133.04C163.987 133.176 163.722 133.364 163.495 133.602C163.271 133.841 163.094 134.115 162.966 134.423C162.837 134.728 162.773 135.049 162.773 135.387C162.773 135.835 162.878 136.253 163.087 136.643C163.3 137.032 163.59 137.346 163.957 137.584C164.328 137.823 164.749 137.942 165.219 137.942ZM174.831 139.154C174.001 139.154 173.295 138.928 172.711 138.477C172.127 138.021 171.681 137.362 171.372 136.499C171.064 135.633 170.91 134.586 170.91 133.36C170.91 132.141 171.064 131.1 171.372 130.237C171.684 129.37 172.132 128.709 172.716 128.254C173.304 127.795 174.009 127.566 174.831 127.566C175.654 127.566 176.357 127.795 176.941 128.254C177.528 128.709 177.976 129.37 178.285 130.237C178.597 131.1 178.753 132.141 178.753 133.36C178.753 134.586 178.599 135.633 178.29 136.499C177.982 137.362 177.536 138.021 176.952 138.477C176.368 138.928 175.661 139.154 174.831 139.154ZM174.831 137.942C175.654 137.942 176.293 137.546 176.748 136.753C177.203 135.96 177.431 134.829 177.431 133.36C177.431 132.383 177.326 131.552 177.117 130.865C176.911 130.178 176.614 129.655 176.225 129.295C175.839 128.935 175.375 128.755 174.831 128.755C174.016 128.755 173.379 129.157 172.92 129.962C172.461 130.762 172.232 131.895 172.232 133.36C172.232 134.337 172.334 135.167 172.54 135.849C172.746 136.532 173.041 137.052 173.427 137.408C173.816 137.764 174.284 137.942 174.831 137.942Z" fill="black" fill-opacity="0.7"/>
<g opacity="0.2">
<rect opacity="0.6" x="226.395" y="9.30566" width="41.8776" height="334.031" fill="#009D97"/>
<rect x="226.395" y="9.30566" width="41.8776" height="4.65306" fill="#009D97"/>
</g>
<rect opacity="0.6" x="226" y="130" width="41.8776" height="212.103" fill="#009D97"/>
<rect x="226" y="130" width="41.8776" height="4.65306" fill="#009D97"/>
<path d="M243.167 126.154C242.704 126.147 242.242 126.059 241.779 125.89C241.316 125.721 240.894 125.436 240.512 125.036C240.13 124.632 239.824 124.087 239.592 123.4C239.361 122.71 239.245 121.843 239.245 120.801C239.245 119.802 239.339 118.917 239.526 118.146C239.713 117.371 239.985 116.719 240.341 116.19C240.698 115.658 241.127 115.254 241.63 114.979C242.137 114.703 242.708 114.566 243.343 114.566C243.975 114.566 244.537 114.692 245.029 114.946C245.524 115.195 245.928 115.544 246.24 115.992C246.552 116.44 246.754 116.956 246.846 117.54H245.502C245.377 117.033 245.135 116.613 244.775 116.279C244.415 115.944 243.938 115.777 243.343 115.777C242.469 115.777 241.781 116.157 241.278 116.917C240.778 117.678 240.527 118.744 240.523 120.118H240.611C240.817 119.805 241.061 119.539 241.344 119.319C241.63 119.095 241.946 118.922 242.291 118.801C242.636 118.68 243.002 118.619 243.387 118.619C244.034 118.619 244.625 118.781 245.161 119.104C245.697 119.424 246.127 119.866 246.45 120.432C246.773 120.993 246.934 121.638 246.934 122.365C246.934 123.062 246.778 123.701 246.466 124.282C246.154 124.858 245.715 125.317 245.15 125.659C244.588 125.996 243.927 126.162 243.167 126.154ZM243.167 124.942C243.63 124.942 244.045 124.827 244.412 124.595C244.783 124.364 245.075 124.054 245.287 123.665C245.504 123.275 245.612 122.842 245.612 122.365C245.612 121.898 245.508 121.474 245.298 121.092C245.093 120.707 244.808 120.4 244.445 120.173C244.085 119.945 243.674 119.831 243.211 119.831C242.862 119.831 242.537 119.901 242.236 120.04C241.935 120.176 241.671 120.364 241.443 120.602C241.219 120.841 241.043 121.115 240.914 121.423C240.786 121.728 240.721 122.049 240.721 122.387C240.721 122.835 240.826 123.253 241.035 123.643C241.248 124.032 241.538 124.346 241.906 124.584C242.276 124.823 242.697 124.942 243.167 124.942ZM249.1 126V125.009L252.824 120.933C253.261 120.455 253.62 120.04 253.903 119.688C254.186 119.332 254.395 118.998 254.531 118.686C254.671 118.37 254.74 118.039 254.74 117.694C254.74 117.298 254.645 116.954 254.454 116.664C254.267 116.374 254.01 116.15 253.683 115.992C253.356 115.834 252.989 115.755 252.581 115.755C252.148 115.755 251.77 115.845 251.447 116.025C251.127 116.201 250.879 116.449 250.703 116.769C250.531 117.088 250.444 117.463 250.444 117.892H249.144C249.144 117.231 249.297 116.651 249.602 116.152C249.906 115.653 250.321 115.263 250.846 114.984C251.375 114.705 251.968 114.566 252.625 114.566C253.286 114.566 253.872 114.705 254.382 114.984C254.893 115.263 255.293 115.64 255.583 116.113C255.873 116.587 256.018 117.114 256.018 117.694C256.018 118.109 255.943 118.515 255.792 118.911C255.646 119.304 255.388 119.743 255.021 120.228C254.658 120.709 254.153 121.296 253.507 121.99L250.973 124.7V124.788H256.216V126H249.1Z" fill="black" fill-opacity="0.7"/>
<g opacity="0.2">
<rect x="271.029" y="9.30566" width="41.8776" height="4.65306" fill="#FF928A"/>
<g opacity="0.2">
<rect opacity="0.6" x="271" y="9" width="41.8776" height="334.031" fill="#FF928A"/>
<rect x="271" y="9" width="41.8776" height="4.65306" fill="#FF928A"/>
</g>
<rect opacity="0.6" x="271" y="14" width="41.8776" height="327.582" fill="#FF928A"/>
</g>
<rect opacity="0.6" x="271" y="74" width="41.8776" height="268.182" fill="#FF928A"/>
<rect x="271" y="74" width="41.8776" height="4.65306" fill="#FF928A"/>
<path d="M286.781 70.1542C286.024 70.1542 285.356 70.0202 284.776 69.7521C284.199 69.4804 283.75 69.1077 283.427 68.634C283.103 68.1567 282.944 67.6132 282.947 67.0037C282.944 66.5264 283.037 66.0857 283.228 65.6818C283.419 65.2742 283.68 64.9346 284.01 64.6629C284.345 64.3875 284.717 64.213 285.128 64.1396V64.0735C284.589 63.934 284.159 63.631 283.84 63.1647C283.52 62.6947 283.362 62.1604 283.366 61.5619C283.362 60.9891 283.507 60.4769 283.801 60.0252C284.095 59.5736 284.499 59.2174 285.013 58.9567C285.531 58.696 286.12 58.5656 286.781 58.5656C287.434 58.5656 288.018 58.696 288.532 58.9567C289.046 59.2174 289.45 59.5736 289.744 60.0252C290.042 60.4769 290.192 60.9891 290.196 61.5619C290.192 62.1604 290.029 62.6947 289.706 63.1647C289.386 63.631 288.962 63.934 288.433 64.0735V64.1396C288.841 64.213 289.208 64.3875 289.535 64.6629C289.862 64.9346 290.122 65.2742 290.317 65.6818C290.512 66.0857 290.611 66.5264 290.614 67.0037C290.611 67.6132 290.445 68.1567 290.119 68.634C289.795 69.1077 289.346 69.4804 288.769 69.7521C288.196 70.0202 287.534 70.1542 286.781 70.1542ZM286.781 68.9425C287.291 68.9425 287.732 68.8599 288.103 68.6946C288.474 68.5294 288.76 68.2962 288.962 67.9951C289.164 67.694 289.267 67.3415 289.27 66.9376C289.267 66.5117 289.157 66.1353 288.94 65.8085C288.723 65.4817 288.428 65.2247 288.053 65.0374C287.682 64.8501 287.258 64.7565 286.781 64.7565C286.3 64.7565 285.87 64.8501 285.492 65.0374C285.117 65.2247 284.822 65.4817 284.605 65.8085C284.392 66.1353 284.288 66.5117 284.291 66.9376C284.288 67.3415 284.385 67.694 284.583 67.9951C284.785 68.2962 285.073 68.5294 285.448 68.6946C285.822 68.8599 286.267 68.9425 286.781 68.9425ZM286.781 63.5888C287.185 63.5888 287.543 63.508 287.855 63.3465C288.171 63.1849 288.419 62.9591 288.598 62.669C288.778 62.3789 288.87 62.0393 288.874 61.65C288.87 61.2682 288.78 60.9359 288.604 60.6531C288.428 60.3667 288.184 60.1464 287.871 59.9922C287.559 59.8343 287.196 59.7553 286.781 59.7553C286.359 59.7553 285.99 59.8343 285.674 59.9922C285.358 60.1464 285.114 60.3667 284.941 60.6531C284.769 60.9359 284.684 61.2682 284.688 61.65C284.684 62.0393 284.77 62.3789 284.947 62.669C285.127 62.9591 285.374 63.1849 285.69 63.3465C286.006 63.508 286.37 63.5888 286.781 63.5888ZM296.404 70.1542C295.575 70.1542 294.868 69.9284 294.284 69.4768C293.7 69.0214 293.254 68.3623 292.946 67.4994C292.637 66.6328 292.483 65.5863 292.483 64.3599C292.483 63.1408 292.637 62.0999 292.946 61.237C293.258 60.3704 293.706 59.7094 294.289 59.2541C294.877 58.7951 295.582 58.5656 296.404 58.5656C297.227 58.5656 297.93 58.7951 298.514 59.2541C299.102 59.7094 299.549 60.3704 299.858 61.237C300.17 62.0999 300.326 63.1408 300.326 64.3599C300.326 65.5863 300.172 66.6328 299.863 67.4994C299.555 68.3623 299.109 69.0214 298.525 69.4768C297.941 69.9284 297.234 70.1542 296.404 70.1542ZM296.404 68.9425C297.227 68.9425 297.866 68.5459 298.321 67.7528C298.777 66.9596 299.004 65.8287 299.004 64.3599C299.004 63.3832 298.9 62.5515 298.69 61.8649C298.485 61.1782 298.187 60.655 297.798 60.2951C297.412 59.9353 296.948 59.7553 296.404 59.7553C295.589 59.7553 294.952 60.1574 294.493 60.9616C294.034 61.762 293.805 62.8948 293.805 64.3599C293.805 65.3367 293.908 66.1665 294.113 66.8495C294.319 67.5325 294.614 68.052 295 68.4082C295.389 68.7644 295.857 68.9425 296.404 68.9425Z" fill="black" fill-opacity="0.7"/>
<g opacity="0.2">
<rect opacity="0.6" x="315.664" y="9.30566" width="41.8776" height="334.031" fill="#3CC3DF"/>
<rect x="315.664" y="9.30566" width="41.8776" height="4.65306" fill="#3CC3DF"/>
</g>
<rect opacity="0.6" x="315.664" y="172.496" width="41.8776" height="169.851" fill="#3CC3DF"/>
<rect x="315.664" y="172.496" width="41.8776" height="4.65306" fill="#3CC3DF"/>
<path d="M331.409 169.038C330.762 169.038 330.18 168.909 329.663 168.652C329.145 168.395 328.73 168.043 328.418 167.595C328.106 167.147 327.935 166.637 327.906 166.064H329.227C329.279 166.574 329.51 166.996 329.921 167.331C330.336 167.661 330.832 167.826 331.409 167.826C331.871 167.826 332.282 167.718 332.642 167.501C333.006 167.285 333.29 166.987 333.496 166.609C333.705 166.227 333.81 165.796 333.81 165.315C333.81 164.823 333.702 164.384 333.485 163.998C333.272 163.609 332.978 163.302 332.604 163.078C332.229 162.854 331.801 162.741 331.32 162.737C330.975 162.733 330.621 162.787 330.257 162.897C329.894 163.003 329.595 163.141 329.36 163.31L328.082 163.156L328.765 157.604H334.625V158.815H329.91L329.514 162.142H329.58C329.811 161.959 330.101 161.806 330.45 161.685C330.799 161.564 331.163 161.503 331.541 161.503C332.231 161.503 332.846 161.668 333.386 161.999C333.929 162.326 334.355 162.774 334.664 163.343C334.976 163.912 335.132 164.562 335.132 165.293C335.132 166.012 334.97 166.655 334.647 167.22C334.328 167.782 333.887 168.227 333.325 168.553C332.763 168.876 332.125 169.038 331.409 169.038ZM341.286 157.604V168.884H339.92V159.036H339.854L337.1 160.864V159.476L339.92 157.604H341.286Z" fill="black" fill-opacity="0.7"/>
<g opacity="0.2">
<rect opacity="0.6" x="391.32" y="9.30566" width="41.8776" height="334.031" fill="#009D97"/>
<rect x="391.32" y="9.30566" width="41.8776" height="4.65306" fill="#009D97"/>
</g>
<rect opacity="0.6" x="391" y="143" width="41.8776" height="199.191" fill="#009D97"/>
<rect x="391" y="143" width="41.8776" height="4.65306" fill="#009D97"/>
<path d="M405.801 139.154C405.338 139.147 404.875 139.059 404.413 138.89C403.95 138.721 403.528 138.436 403.146 138.036C402.764 137.632 402.457 137.087 402.226 136.4C401.995 135.71 401.879 134.843 401.879 133.801C401.879 132.802 401.973 131.917 402.16 131.146C402.347 130.371 402.619 129.719 402.975 129.19C403.331 128.658 403.761 128.254 404.264 127.979C404.771 127.703 405.342 127.566 405.977 127.566C406.609 127.566 407.17 127.692 407.662 127.946C408.158 128.195 408.562 128.544 408.874 128.992C409.186 129.44 409.388 129.956 409.48 130.54H408.136C408.011 130.033 407.769 129.613 407.409 129.279C407.049 128.944 406.572 128.777 405.977 128.777C405.103 128.777 404.415 129.157 403.912 129.917C403.412 130.678 403.161 131.744 403.157 133.118H403.245C403.451 132.805 403.695 132.539 403.978 132.319C404.264 132.095 404.58 131.922 404.925 131.801C405.27 131.68 405.635 131.619 406.021 131.619C406.667 131.619 407.258 131.781 407.795 132.104C408.331 132.424 408.76 132.866 409.083 133.432C409.407 133.993 409.568 134.638 409.568 135.365C409.568 136.062 409.412 136.701 409.1 137.282C408.788 137.858 408.349 138.317 407.784 138.659C407.222 138.996 406.561 139.162 405.801 139.154ZM405.801 137.942C406.263 137.942 406.678 137.827 407.046 137.595C407.416 137.364 407.708 137.054 407.921 136.665C408.138 136.275 408.246 135.842 408.246 135.365C408.246 134.898 408.142 134.474 407.932 134.092C407.727 133.707 407.442 133.4 407.079 133.173C406.719 132.945 406.307 132.831 405.845 132.831C405.496 132.831 405.171 132.901 404.87 133.04C404.569 133.176 404.304 133.364 404.077 133.602C403.853 133.841 403.677 134.115 403.548 134.423C403.419 134.728 403.355 135.049 403.355 135.387C403.355 135.835 403.46 136.253 403.669 136.643C403.882 137.032 404.172 137.346 404.539 137.584C404.91 137.823 405.331 137.942 405.801 137.942ZM415.413 139.154C414.584 139.154 413.877 138.928 413.293 138.477C412.709 138.021 412.263 137.362 411.954 136.499C411.646 135.633 411.492 134.586 411.492 133.36C411.492 132.141 411.646 131.1 411.954 130.237C412.267 129.37 412.715 128.709 413.298 128.254C413.886 127.795 414.591 127.566 415.413 127.566C416.236 127.566 416.939 127.795 417.523 128.254C418.11 128.709 418.558 129.37 418.867 130.237C419.179 131.1 419.335 132.141 419.335 133.36C419.335 134.586 419.181 135.633 418.872 136.499C418.564 137.362 418.118 138.021 417.534 138.477C416.95 138.928 416.243 139.154 415.413 139.154ZM415.413 137.942C416.236 137.942 416.875 137.546 417.33 136.753C417.785 135.96 418.013 134.829 418.013 133.36C418.013 132.383 417.908 131.552 417.699 130.865C417.494 130.178 417.196 129.655 416.807 129.295C416.421 128.935 415.957 128.755 415.413 128.755C414.598 128.755 413.961 129.157 413.502 129.962C413.043 130.762 412.814 131.895 412.814 133.36C412.814 134.337 412.916 135.167 413.122 135.849C413.328 136.532 413.623 137.052 414.009 137.408C414.398 137.764 414.866 137.942 415.413 137.942Z" fill="black" fill-opacity="0.7"/>
<g opacity="0.2">
<rect opacity="0.6" x="435.955" y="9.30566" width="41.8776" height="334.031" fill="#FF928A"/>
<rect x="435.955" y="9.30566" width="41.8776" height="4.65306" fill="#FF928A"/>
</g>
<rect opacity="0.6" x="436" y="66" width="41.8776" height="275.573" fill="#FF928A"/>
<rect x="436" y="66" width="41.8776" height="4.65306" fill="#FF928A"/>
<path d="M451.781 62.1542C451.024 62.1542 450.356 62.0202 449.776 61.7521C449.199 61.4804 448.75 61.1077 448.427 60.634C448.103 60.1567 447.944 59.6132 447.947 59.0037C447.944 58.5264 448.037 58.0857 448.228 57.6818C448.419 57.2742 448.68 56.9346 449.01 56.6629C449.345 56.3875 449.717 56.213 450.128 56.1396V56.0735C449.589 55.934 449.159 55.631 448.84 55.1647C448.52 54.6947 448.362 54.1604 448.366 53.5619C448.362 52.9891 448.507 52.4769 448.801 52.0252C449.095 51.5736 449.499 51.2174 450.013 50.9567C450.531 50.696 451.12 50.5656 451.781 50.5656C452.434 50.5656 453.018 50.696 453.532 50.9567C454.046 51.2174 454.45 51.5736 454.744 52.0252C455.042 52.4769 455.192 52.9891 455.196 53.5619C455.192 54.1604 455.029 54.6947 454.706 55.1647C454.386 55.631 453.962 55.934 453.433 56.0735V56.1396C453.841 56.213 454.208 56.3875 454.535 56.6629C454.862 56.9346 455.122 57.2742 455.317 57.6818C455.512 58.0857 455.611 58.5264 455.614 59.0037C455.611 59.6132 455.445 60.1567 455.119 60.634C454.795 61.1077 454.346 61.4804 453.769 61.7521C453.196 62.0202 452.534 62.1542 451.781 62.1542ZM451.781 60.9425C452.291 60.9425 452.732 60.8599 453.103 60.6946C453.474 60.5294 453.76 60.2962 453.962 59.9951C454.164 59.694 454.267 59.3415 454.27 58.9376C454.267 58.5117 454.157 58.1353 453.94 57.8085C453.723 57.4817 453.428 57.2247 453.053 57.0374C452.682 56.8501 452.258 56.7565 451.781 56.7565C451.3 56.7565 450.87 56.8501 450.492 57.0374C450.117 57.2247 449.822 57.4817 449.605 57.8085C449.392 58.1353 449.288 58.5117 449.291 58.9376C449.288 59.3415 449.385 59.694 449.583 59.9951C449.785 60.2962 450.073 60.5294 450.448 60.6946C450.822 60.8599 451.267 60.9425 451.781 60.9425ZM451.781 55.5888C452.185 55.5888 452.543 55.508 452.855 55.3465C453.171 55.1849 453.419 54.9591 453.598 54.669C453.778 54.3789 453.87 54.0393 453.874 53.65C453.87 53.2682 453.78 52.9359 453.604 52.6531C453.428 52.3667 453.184 52.1464 452.871 51.9922C452.559 51.8343 452.196 51.7553 451.781 51.7553C451.359 51.7553 450.99 51.8343 450.674 51.9922C450.358 52.1464 450.114 52.3667 449.941 52.6531C449.769 52.9359 449.684 53.2682 449.688 53.65C449.684 54.0393 449.77 54.3789 449.947 54.669C450.127 54.9591 450.374 55.1849 450.69 55.3465C451.006 55.508 451.37 55.5888 451.781 55.5888ZM457.725 62V61.0086L461.449 56.9327C461.886 56.4554 462.245 56.0405 462.528 55.688C462.811 55.3318 463.02 54.9976 463.156 54.6855C463.296 54.3697 463.365 54.0393 463.365 53.6941C463.365 53.2975 463.27 52.9542 463.079 52.6641C462.892 52.3741 462.635 52.1501 462.308 51.9922C461.981 51.8343 461.614 51.7553 461.206 51.7553C460.773 51.7553 460.395 51.8453 460.072 52.0252C459.752 52.2015 459.504 52.4493 459.328 52.7688C459.155 53.0882 459.069 53.4628 459.069 53.8924H457.769C457.769 53.2314 457.922 52.6513 458.226 52.1519C458.531 51.6525 458.946 51.2633 459.471 50.9842C460 50.7052 460.593 50.5656 461.25 50.5656C461.911 50.5656 462.497 50.7052 463.007 50.9842C463.518 51.2633 463.918 51.6397 464.208 52.1133C464.498 52.587 464.643 53.1139 464.643 53.6941C464.643 54.109 464.568 54.5148 464.417 54.9114C464.27 55.3042 464.013 55.743 463.646 56.2277C463.283 56.7088 462.778 57.2963 462.132 57.9903L459.598 60.7001V60.7883H464.841V62H457.725Z" fill="black" fill-opacity="0.7"/>
<g opacity="0.2">
<rect opacity="0.6" x="480.59" y="9.30566" width="41.8776" height="334.031" fill="#3CC3DF"/>
<rect x="480.59" y="9.30566" width="41.8776" height="4.65306" fill="#3CC3DF"/>
</g>
<rect opacity="0.6" x="481" y="159" width="40.8776" height="182.538" fill="#3CC3DF"/>
<rect x="481" y="159" width="40.8776" height="4.65306" fill="#3CC3DF"/>
<path d="M494.849 155.154C494.203 155.154 493.621 155.026 493.103 154.769C492.585 154.512 492.17 154.159 491.858 153.711C491.546 153.263 491.375 152.753 491.346 152.18H492.668C492.719 152.69 492.951 153.113 493.362 153.447C493.777 153.777 494.272 153.942 494.849 153.942C495.312 153.942 495.723 153.834 496.083 153.618C496.446 153.401 496.731 153.103 496.936 152.725C497.146 152.343 497.25 151.912 497.25 151.431C497.25 150.939 497.142 150.5 496.925 150.115C496.712 149.725 496.419 149.419 496.044 149.195C495.67 148.971 495.242 148.857 494.761 148.853C494.416 148.85 494.061 148.903 493.698 149.013C493.334 149.119 493.035 149.257 492.8 149.426L491.522 149.272L492.205 143.72H498.066V144.932H493.351L492.954 148.258H493.02C493.252 148.075 493.542 147.922 493.891 147.801C494.239 147.68 494.603 147.619 494.981 147.619C495.671 147.619 496.287 147.785 496.826 148.115C497.37 148.442 497.796 148.89 498.104 149.459C498.416 150.028 498.572 150.678 498.572 151.409C498.572 152.129 498.411 152.771 498.088 153.337C497.768 153.898 497.328 154.343 496.766 154.67C496.204 154.993 495.565 155.154 494.849 155.154ZM504.373 155.154C503.617 155.154 502.949 155.02 502.369 154.752C501.792 154.48 501.342 154.108 501.019 153.634C500.696 153.157 500.536 152.613 500.54 152.004C500.536 151.526 500.63 151.086 500.821 150.682C501.012 150.274 501.273 149.935 501.603 149.663C501.937 149.387 502.31 149.213 502.721 149.14V149.074C502.181 148.934 501.752 148.631 501.432 148.165C501.113 147.695 500.955 147.16 500.959 146.562C500.955 145.989 501.1 145.477 501.394 145.025C501.687 144.574 502.091 144.217 502.605 143.957C503.123 143.696 503.713 143.566 504.373 143.566C505.027 143.566 505.611 143.696 506.125 143.957C506.639 144.217 507.043 144.574 507.337 145.025C507.634 145.477 507.785 145.989 507.788 146.562C507.785 147.16 507.621 147.695 507.298 148.165C506.979 148.631 506.555 148.934 506.026 149.074V149.14C506.433 149.213 506.801 149.387 507.127 149.663C507.454 149.935 507.715 150.274 507.91 150.682C508.104 151.086 508.203 151.526 508.207 152.004C508.203 152.613 508.038 153.157 507.711 153.634C507.388 154.108 506.938 154.48 506.362 154.752C505.789 155.02 505.126 155.154 504.373 155.154ZM504.373 153.942C504.884 153.942 505.325 153.86 505.695 153.695C506.066 153.529 506.353 153.296 506.555 152.995C506.757 152.694 506.859 152.342 506.863 151.938C506.859 151.512 506.749 151.135 506.533 150.808C506.316 150.482 506.02 150.225 505.646 150.037C505.275 149.85 504.851 149.756 504.373 149.756C503.892 149.756 503.463 149.85 503.085 150.037C502.71 150.225 502.415 150.482 502.198 150.808C501.985 151.135 501.88 151.512 501.884 151.938C501.88 152.342 501.978 152.694 502.176 152.995C502.378 153.296 502.666 153.529 503.041 153.695C503.415 153.86 503.859 153.942 504.373 153.942ZM504.373 148.589C504.777 148.589 505.135 148.508 505.448 148.346C505.763 148.185 506.011 147.959 506.191 147.669C506.371 147.379 506.463 147.039 506.466 146.65C506.463 146.268 506.373 145.936 506.197 145.653C506.02 145.367 505.776 145.146 505.464 144.992C505.152 144.834 504.788 144.755 504.373 144.755C503.951 144.755 503.582 144.834 503.266 144.992C502.951 145.146 502.706 145.367 502.534 145.653C502.361 145.936 502.277 146.268 502.28 146.65C502.277 147.039 502.363 147.379 502.539 147.669C502.719 147.959 502.967 148.185 503.283 148.346C503.599 148.508 503.962 148.589 504.373 148.589Z" fill="black" fill-opacity="0.7"/>
</svg>
