<svg width="675" height="532" viewBox="0 0 675 532" fill="none" xmlns="http://www.w3.org/2000/svg">
<path d="M54.1225 412.627C29.5078 379.718 13.5759 341.115 7.80212 300.394C2.02833 259.673 6.59929 218.15 21.0918 179.671C35.5842 141.191 59.5296 106.998 90.7106 80.2586C121.892 53.5192 159.3 35.0976 199.472 26.6996L229.352 170.28C213.283 173.639 198.319 181.008 185.847 191.704C173.375 202.399 163.796 216.077 157.999 231.468C152.202 246.86 150.374 263.47 152.684 279.758C154.993 296.046 161.366 311.487 171.212 324.651L54.1225 412.627Z" fill="#3CC3DF"/>
<path d="M197.022 27.225C255.707 14.3249 317.078 23.5887 369.369 53.2405C421.661 82.8922 461.192 130.845 480.386 187.907L341.717 234.763C334.04 211.938 318.227 192.757 297.311 180.896C276.394 169.036 251.846 165.33 228.372 170.49L197.022 27.225Z" fill="#00ADB5"/>
<path d="M479.588 185.573C498.732 240.646 497.601 300.764 476.399 355.074C455.196 409.384 415.32 454.307 363.969 481.733C312.617 509.159 253.175 517.281 196.373 504.632C139.571 491.983 89.1526 459.397 54.2198 412.757L171.251 324.703C185.224 343.359 205.391 356.394 228.112 361.453C250.833 366.513 274.61 363.264 295.15 352.294C315.691 341.323 331.641 323.354 340.122 301.63C348.603 279.906 349.056 255.859 341.398 233.83L479.588 185.573Z" fill="#FF9F98"/>
<circle cx="572.266" cy="306.361" r="5.42857" fill="#009D97" stroke="#1A1F26" stroke-width="1.55102"/>
<path d="M592.517 311.953V298.417H597.091C598.153 298.417 599.021 298.609 599.695 298.992C600.374 299.371 600.876 299.884 601.202 300.532C601.528 301.18 601.691 301.902 601.691 302.7C601.691 303.497 601.528 304.222 601.202 304.874C600.88 305.527 600.382 306.046 599.708 306.434C599.034 306.818 598.17 307.009 597.117 307.009H593.839V305.555H597.064C597.791 305.555 598.375 305.43 598.816 305.178C599.257 304.927 599.576 304.588 599.774 304.161C599.977 303.729 600.078 303.242 600.078 302.7C600.078 302.158 599.977 301.673 599.774 301.246C599.576 300.818 599.254 300.484 598.809 300.241C598.364 299.994 597.774 299.871 597.038 299.871H594.156V311.953H592.517ZM615.224 302.647H613.585C613.488 302.176 613.318 301.761 613.076 301.404C612.838 301.048 612.547 300.748 612.203 300.506C611.864 300.259 611.487 300.074 611.073 299.95C610.659 299.827 610.227 299.765 609.778 299.765C608.958 299.765 608.216 299.972 607.55 300.387C606.889 300.801 606.363 301.411 605.971 302.217C605.583 303.024 605.389 304.013 605.389 305.185C605.389 306.357 605.583 307.346 605.971 308.153C606.363 308.959 606.889 309.569 607.55 309.984C608.216 310.398 608.958 310.605 609.778 310.605C610.227 310.605 610.659 310.543 611.073 310.42C611.487 310.296 611.864 310.113 612.203 309.871C612.547 309.624 612.838 309.323 613.076 308.966C613.318 308.604 613.488 308.19 613.585 307.723H615.224C615.101 308.415 614.876 309.034 614.55 309.58C614.224 310.127 613.818 310.592 613.334 310.975C612.849 311.354 612.305 311.642 611.701 311.841C611.102 312.039 610.461 312.138 609.778 312.138C608.623 312.138 607.597 311.856 606.698 311.292C605.799 310.728 605.092 309.926 604.576 308.886C604.061 307.846 603.803 306.613 603.803 305.185C603.803 303.757 604.061 302.524 604.576 301.484C605.092 300.444 605.799 299.642 606.698 299.078C607.597 298.514 608.623 298.232 609.778 298.232C610.461 298.232 611.102 298.331 611.701 298.529C612.305 298.728 612.849 299.018 613.334 299.402C613.818 299.781 614.224 300.243 614.55 300.79C614.876 301.332 615.101 301.951 615.224 302.647Z" fill="#3C4043"/>
<circle cx="572.266" cy="348.534" r="5.42857" fill="#FF9F98" stroke="#1A1F26" stroke-width="1.55102"/>
<path d="M592.517 340.59H594.473L599.074 351.826H599.232L603.832 340.59H605.789V354.126H604.255V343.842H604.123L599.893 354.126H598.413L594.183 343.842H594.05V354.126H592.517V340.59ZM612.988 354.337C612.072 354.337 611.268 354.119 610.576 353.683C609.888 353.247 609.351 352.637 608.963 351.852C608.58 351.068 608.388 350.151 608.388 349.103C608.388 348.045 608.58 347.122 608.963 346.333C609.351 345.545 609.888 344.932 610.576 344.496C611.268 344.06 612.072 343.842 612.988 343.842C613.905 343.842 614.707 344.06 615.394 344.496C616.086 344.932 616.623 345.545 617.007 346.333C617.395 347.122 617.588 348.045 617.588 349.103C617.588 350.151 617.395 351.068 617.007 351.852C616.623 352.637 616.086 353.247 615.394 353.683C614.707 354.119 613.905 354.337 612.988 354.337ZM612.988 352.936C613.684 352.936 614.257 352.758 614.707 352.401C615.156 352.044 615.489 351.575 615.705 350.993C615.921 350.411 616.029 349.781 616.029 349.103C616.029 348.424 615.921 347.792 615.705 347.206C615.489 346.62 615.156 346.146 614.707 345.785C614.257 345.424 613.684 345.243 612.988 345.243C612.292 345.243 611.719 345.424 611.27 345.785C610.82 346.146 610.488 346.62 610.272 347.206C610.056 347.792 609.948 348.424 609.948 349.103C609.948 349.781 610.056 350.411 610.272 350.993C610.488 351.575 610.82 352.044 611.27 352.401C611.719 352.758 612.292 352.936 612.988 352.936ZM620.181 354.126V340.59H621.741V345.587H621.873C621.988 345.41 622.146 345.186 622.349 344.912C622.556 344.635 622.851 344.388 623.235 344.172C623.622 343.952 624.147 343.842 624.808 343.842C625.662 343.842 626.416 344.055 627.068 344.483C627.72 344.91 628.229 345.516 628.595 346.3C628.961 347.085 629.143 348.01 629.143 349.076C629.143 350.151 628.961 351.083 628.595 351.872C628.229 352.656 627.722 353.265 627.075 353.696C626.427 354.124 625.68 354.337 624.834 354.337C624.182 354.337 623.66 354.23 623.268 354.014C622.875 353.793 622.574 353.544 622.362 353.267C622.151 352.985 621.988 352.751 621.873 352.566H621.688V354.126H620.181ZM621.714 349.05C621.714 349.817 621.827 350.493 622.051 351.079C622.276 351.661 622.604 352.117 623.036 352.447C623.468 352.773 623.997 352.936 624.623 352.936C625.275 352.936 625.819 352.764 626.255 352.421C626.696 352.073 627.026 351.606 627.246 351.02C627.471 350.429 627.584 349.773 627.584 349.05C627.584 348.336 627.473 347.693 627.253 347.12C627.037 346.543 626.709 346.087 626.268 345.752C625.832 345.413 625.283 345.243 624.623 345.243C623.988 345.243 623.455 345.404 623.023 345.725C622.591 346.043 622.265 346.488 622.045 347.06C621.825 347.629 621.714 348.292 621.714 349.05ZM631.529 354.126V343.974H633.089V354.126H631.529ZM632.323 342.282C632.019 342.282 631.756 342.178 631.536 341.971C631.32 341.764 631.212 341.515 631.212 341.224C631.212 340.933 631.32 340.685 631.536 340.477C631.756 340.27 632.019 340.167 632.323 340.167C632.627 340.167 632.887 340.27 633.102 340.477C633.323 340.685 633.433 340.933 633.433 341.224C633.433 341.515 633.323 341.764 633.102 341.971C632.887 342.178 632.627 342.282 632.323 342.282ZM637.506 340.59V354.126H635.946V340.59H637.506ZM644.619 354.337C643.641 354.337 642.797 354.122 642.088 353.69C641.383 353.254 640.839 352.645 640.456 351.866C640.077 351.081 639.887 350.169 639.887 349.129C639.887 348.089 640.077 347.173 640.456 346.38C640.839 345.582 641.372 344.961 642.055 344.516C642.742 344.066 643.544 343.842 644.461 343.842C644.99 343.842 645.512 343.93 646.027 344.106C646.543 344.282 647.012 344.569 647.435 344.965C647.858 345.357 648.195 345.877 648.446 346.525C648.698 347.173 648.823 347.97 648.823 348.918V349.579H640.997V348.23H647.237C647.237 347.658 647.122 347.146 646.893 346.697C646.668 346.247 646.347 345.893 645.928 345.633C645.514 345.373 645.025 345.243 644.461 345.243C643.84 345.243 643.302 345.397 642.848 345.706C642.399 346.01 642.053 346.406 641.81 346.895C641.568 347.384 641.447 347.909 641.447 348.468V349.367C641.447 350.134 641.579 350.784 641.843 351.317C642.112 351.846 642.485 352.249 642.96 352.526C643.436 352.8 643.989 352.936 644.619 352.936C645.029 352.936 645.399 352.879 645.73 352.764C646.065 352.645 646.353 352.469 646.596 352.236C646.838 351.998 647.025 351.703 647.157 351.35L648.664 351.773C648.506 352.284 648.239 352.734 647.865 353.121C647.49 353.505 647.028 353.804 646.477 354.02C645.926 354.232 645.307 354.337 644.619 354.337Z" fill="#3C4043"/>
<circle cx="572.266" cy="390.708" r="5.42857" fill="#3CC3DF" stroke="#1A1F26" stroke-width="1.55102"/>
<path d="M592.517 382.764H594.473L599.074 394H599.232L603.832 382.764H605.789V396.3H604.255V386.015H604.123L599.893 396.3H598.413L594.183 386.015H594.05V396.3H592.517V382.764ZM608.864 396.3V386.148H610.424V396.3H608.864ZM609.657 384.456C609.353 384.456 609.091 384.352 608.871 384.145C608.655 383.938 608.547 383.689 608.547 383.398C608.547 383.107 608.655 382.858 608.871 382.651C609.091 382.444 609.353 382.341 609.657 382.341C609.961 382.341 610.221 382.444 610.437 382.651C610.657 382.858 610.767 383.107 610.767 383.398C610.767 383.689 610.657 383.938 610.437 384.145C610.221 384.352 609.961 384.456 609.657 384.456ZM614.444 386.148L616.876 390.298L619.309 386.148H621.106L617.828 391.224L621.106 396.3H619.309L616.876 392.361L614.444 396.3H612.646L615.872 391.224L612.646 386.148H614.444Z" fill="#3C4043"/>
<path d="M554.565 236.252V234.481L559.265 229.874C559.714 229.42 560.089 229.017 560.388 228.664C560.688 228.312 560.913 227.97 561.062 227.64C561.212 227.309 561.287 226.957 561.287 226.582C561.287 226.155 561.19 225.789 560.996 225.485C560.803 225.177 560.536 224.939 560.197 224.771C559.857 224.604 559.472 224.52 559.04 224.52C558.595 224.52 558.205 224.613 557.87 224.798C557.535 224.978 557.275 225.236 557.09 225.571C556.91 225.906 556.819 226.305 556.819 226.767H554.486C554.486 225.908 554.682 225.161 555.074 224.527C555.466 223.892 556.006 223.401 556.694 223.053C557.385 222.705 558.179 222.531 559.073 222.531C559.981 222.531 560.778 222.7 561.466 223.04C562.153 223.379 562.686 223.844 563.065 224.434C563.448 225.025 563.64 225.699 563.64 226.457C563.64 226.963 563.543 227.461 563.349 227.95C563.155 228.44 562.814 228.982 562.325 229.576C561.84 230.171 561.159 230.892 560.283 231.738L557.949 234.11V234.203H563.845V236.252H554.565ZM571.129 236.51C570.04 236.51 569.106 236.234 568.326 235.684C567.551 235.128 566.954 234.329 566.535 233.284C566.121 232.236 565.914 230.973 565.914 229.497C565.918 228.021 566.128 226.765 566.542 225.73C566.96 224.69 567.557 223.897 568.333 223.35C569.113 222.804 570.045 222.531 571.129 222.531C572.213 222.531 573.145 222.804 573.924 223.35C574.704 223.897 575.301 224.69 575.716 225.73C576.134 226.77 576.344 228.025 576.344 229.497C576.344 230.978 576.134 232.242 575.716 233.291C575.301 234.335 574.704 235.133 573.924 235.684C573.149 236.234 572.217 236.51 571.129 236.51ZM571.129 234.441C571.975 234.441 572.642 234.025 573.131 233.192C573.625 232.355 573.872 231.123 573.872 229.497C573.872 228.422 573.759 227.519 573.535 226.787C573.31 226.056 572.993 225.505 572.583 225.135C572.173 224.76 571.688 224.573 571.129 224.573C570.287 224.573 569.622 224.992 569.133 225.829C568.644 226.662 568.397 227.884 568.392 229.497C568.388 230.577 568.496 231.484 568.716 232.22C568.941 232.956 569.258 233.511 569.668 233.886C570.078 234.256 570.565 234.441 571.129 234.441ZM578.54 236.252V234.481L583.239 229.874C583.688 229.42 584.063 229.017 584.362 228.664C584.662 228.312 584.887 227.97 585.037 227.64C585.186 227.309 585.261 226.957 585.261 226.582C585.261 226.155 585.164 225.789 584.971 225.485C584.777 225.177 584.51 224.939 584.171 224.771C583.832 224.604 583.446 224.52 583.014 224.52C582.569 224.52 582.179 224.613 581.844 224.798C581.509 224.978 581.249 225.236 581.064 225.571C580.884 225.906 580.793 226.305 580.793 226.767H578.46C578.46 225.908 578.656 225.161 579.048 224.527C579.441 223.892 579.98 223.401 580.668 223.053C581.36 222.705 582.153 222.531 583.047 222.531C583.955 222.531 584.752 222.7 585.44 223.04C586.127 223.379 586.66 223.844 587.039 224.434C587.423 225.025 587.614 225.699 587.614 226.457C587.614 226.963 587.517 227.461 587.324 227.95C587.13 228.44 586.788 228.982 586.299 229.576C585.814 230.171 585.134 230.892 584.257 231.738L581.924 234.11V234.203H587.819V236.252H578.54ZM590.099 236.252V234.481L594.799 229.874C595.248 229.42 595.623 229.017 595.922 228.664C596.222 228.312 596.447 227.97 596.597 227.64C596.746 227.309 596.821 226.957 596.821 226.582C596.821 226.155 596.724 225.789 596.53 225.485C596.337 225.177 596.07 224.939 595.731 224.771C595.391 224.604 595.006 224.52 594.574 224.52C594.129 224.52 593.739 224.613 593.404 224.798C593.069 224.978 592.809 225.236 592.624 225.571C592.444 225.906 592.353 226.305 592.353 226.767H590.02C590.02 225.908 590.216 225.161 590.608 224.527C591.001 223.892 591.54 223.401 592.228 223.053C592.92 222.705 593.713 222.531 594.607 222.531C595.515 222.531 596.312 222.7 597 223.04C597.687 223.379 598.22 223.844 598.599 224.434C598.983 225.025 599.174 225.699 599.174 226.457C599.174 226.963 599.077 227.461 598.883 227.95C598.69 228.44 598.348 228.982 597.859 229.576C597.374 230.171 596.694 230.892 595.817 231.738L593.484 234.11V234.203H599.379V236.252H590.099ZM607.839 228.499V230.469H601.745V228.499H607.839ZM609.857 236.252V234.481L614.556 229.874C615.006 229.42 615.38 229.017 615.68 228.664C615.979 228.312 616.204 227.97 616.354 227.64C616.504 227.309 616.579 226.957 616.579 226.582C616.579 226.155 616.482 225.789 616.288 225.485C616.094 225.177 615.827 224.939 615.488 224.771C615.149 224.604 614.763 224.52 614.331 224.52C613.886 224.52 613.496 224.613 613.162 224.798C612.827 224.978 612.567 225.236 612.382 225.571C612.201 225.906 612.111 226.305 612.111 226.767H609.778C609.778 225.908 609.974 225.161 610.366 224.527C610.758 223.892 611.298 223.401 611.985 223.053C612.677 222.705 613.47 222.531 614.364 222.531C615.272 222.531 616.07 222.7 616.757 223.04C617.444 223.379 617.978 223.844 618.357 224.434C618.74 225.025 618.932 225.699 618.932 226.457C618.932 226.963 618.835 227.461 618.641 227.95C618.447 228.44 618.105 228.982 617.616 229.576C617.132 230.171 616.451 230.892 615.574 231.738L613.241 234.11V234.203H619.137V236.252H609.857ZM626.42 236.51C625.332 236.51 624.398 236.234 623.618 235.684C622.842 235.128 622.245 234.329 621.827 233.284C621.412 232.236 621.205 230.973 621.205 229.497C621.21 228.021 621.419 226.765 621.833 225.73C622.252 224.69 622.849 223.897 623.624 223.35C624.404 222.804 625.336 222.531 626.42 222.531C627.504 222.531 628.436 222.804 629.216 223.35C629.996 223.897 630.593 224.69 631.007 225.73C631.426 226.77 631.635 228.025 631.635 229.497C631.635 230.978 631.426 232.242 631.007 233.291C630.593 234.335 629.996 235.133 629.216 235.684C628.44 236.234 627.508 236.51 626.42 236.51ZM626.42 234.441C627.266 234.441 627.934 234.025 628.423 233.192C628.916 232.355 629.163 231.123 629.163 229.497C629.163 228.422 629.051 227.519 628.826 226.787C628.601 226.056 628.284 225.505 627.874 225.135C627.464 224.76 626.98 224.573 626.42 224.573C625.579 224.573 624.913 224.992 624.424 225.829C623.935 226.662 623.688 227.884 623.684 229.497C623.679 230.577 623.787 231.484 624.008 232.22C624.232 232.956 624.55 233.511 624.959 233.886C625.369 234.256 625.856 234.441 626.42 234.441ZM633.831 236.252V234.481L638.53 229.874C638.98 229.42 639.354 229.017 639.654 228.664C639.954 228.312 640.178 227.97 640.328 227.64C640.478 227.309 640.553 226.957 640.553 226.582C640.553 226.155 640.456 225.789 640.262 225.485C640.068 225.177 639.802 224.939 639.462 224.771C639.123 224.604 638.737 224.52 638.306 224.52C637.861 224.52 637.471 224.613 637.136 224.798C636.801 224.978 636.541 225.236 636.356 225.571C636.175 225.906 636.085 226.305 636.085 226.767H633.752C633.752 225.908 633.948 225.161 634.34 224.527C634.732 223.892 635.272 223.401 635.959 223.053C636.651 222.705 637.444 222.531 638.339 222.531C639.246 222.531 640.044 222.7 640.731 223.04C641.419 223.379 641.952 223.844 642.331 224.434C642.714 225.025 642.906 225.699 642.906 226.457C642.906 226.963 642.809 227.461 642.615 227.95C642.421 228.44 642.08 228.982 641.59 229.576C641.106 230.171 640.425 230.892 639.548 231.738L637.215 234.11V234.203H643.111V236.252H633.831ZM650.249 236.437C649.297 236.437 648.451 236.274 647.711 235.948C646.975 235.622 646.393 235.168 645.966 234.586C645.539 234.005 645.312 233.333 645.285 232.57H647.77C647.792 232.936 647.914 233.256 648.134 233.529C648.354 233.798 648.647 234.007 649.013 234.157C649.379 234.307 649.788 234.381 650.242 234.381C650.727 234.381 651.157 234.298 651.531 234.13C651.906 233.958 652.199 233.721 652.41 233.416C652.622 233.112 652.725 232.762 652.721 232.366C652.725 231.956 652.619 231.594 652.404 231.282C652.188 230.969 651.875 230.724 651.465 230.548C651.06 230.372 650.571 230.284 649.998 230.284H648.801V228.393H649.998C650.469 228.393 650.881 228.312 651.234 228.149C651.591 227.986 651.87 227.757 652.073 227.461C652.276 227.162 652.375 226.816 652.371 226.424C652.375 226.04 652.289 225.708 652.113 225.426C651.941 225.139 651.696 224.917 651.379 224.758C651.066 224.599 650.698 224.52 650.275 224.52C649.861 224.52 649.478 224.595 649.125 224.745C648.773 224.895 648.489 225.108 648.273 225.386C648.057 225.659 647.942 225.985 647.929 226.364H645.569C645.587 225.606 645.805 224.941 646.224 224.368C646.647 223.791 647.211 223.341 647.916 223.02C648.621 222.694 649.412 222.531 650.289 222.531C651.192 222.531 651.976 222.7 652.642 223.04C653.311 223.375 653.829 223.826 654.195 224.395C654.56 224.963 654.743 225.591 654.743 226.278C654.748 227.041 654.523 227.679 654.069 228.195C653.62 228.711 653.029 229.048 652.298 229.206V229.312C653.25 229.444 653.979 229.797 654.486 230.37C654.997 230.938 655.25 231.645 655.246 232.491C655.246 233.249 655.03 233.928 654.598 234.527C654.171 235.122 653.58 235.589 652.827 235.928C652.078 236.267 651.218 236.437 650.249 236.437ZM561.566 259.252H556.979V245.716H561.658C563.002 245.716 564.157 245.987 565.122 246.529C566.091 247.066 566.836 247.84 567.356 248.849C567.875 249.858 568.135 251.065 568.135 252.471C568.135 253.881 567.873 255.092 567.349 256.106C566.829 257.119 566.078 257.897 565.095 258.439C564.117 258.981 562.94 259.252 561.566 259.252ZM559.431 257.13H561.447C562.39 257.13 563.176 256.958 563.806 256.615C564.436 256.267 564.91 255.749 565.227 255.062C565.545 254.37 565.703 253.506 565.703 252.471C565.703 251.435 565.545 250.576 565.227 249.893C564.91 249.206 564.441 248.692 563.819 248.353C563.203 248.009 562.436 247.837 561.519 247.837H559.431V257.13ZM574.854 259.45C573.836 259.45 572.957 259.239 572.217 258.816C571.481 258.388 570.915 257.785 570.518 257.005C570.122 256.22 569.923 255.297 569.923 254.235C569.923 253.191 570.122 252.275 570.518 251.486C570.919 250.693 571.479 250.076 572.197 249.635C572.915 249.19 573.759 248.968 574.728 248.968C575.354 248.968 575.945 249.069 576.5 249.272C577.059 249.47 577.553 249.778 577.98 250.197C578.412 250.616 578.751 251.149 578.998 251.796C579.245 252.44 579.368 253.206 579.368 254.097V254.83H571.047V253.218H577.075C577.07 252.759 576.971 252.352 576.777 251.995C576.583 251.633 576.312 251.349 575.964 251.142C575.621 250.935 575.22 250.831 574.761 250.831C574.272 250.831 573.843 250.95 573.473 251.188C573.102 251.422 572.814 251.73 572.607 252.114C572.404 252.493 572.3 252.909 572.296 253.363V254.771C572.296 255.361 572.404 255.868 572.62 256.291C572.836 256.71 573.138 257.031 573.525 257.256C573.913 257.476 574.367 257.586 574.887 257.586C575.235 257.586 575.55 257.538 575.832 257.441C576.114 257.34 576.359 257.192 576.566 256.998C576.773 256.804 576.929 256.564 577.035 256.278L579.269 256.529C579.128 257.119 578.859 257.635 578.463 258.075C578.071 258.512 577.568 258.851 576.956 259.093C576.343 259.331 575.643 259.45 574.854 259.45ZM590.17 249.1L586.554 259.252H583.911L580.295 249.1H582.846L585.18 256.641H585.285L587.625 249.1H590.17ZM591.825 259.252V249.1H594.218V259.252H591.825ZM593.028 247.659C592.649 247.659 592.323 247.533 592.05 247.282C591.777 247.027 591.64 246.72 591.64 246.364C591.64 246.002 591.777 245.696 592.05 245.445C592.323 245.189 592.649 245.061 593.028 245.061C593.412 245.061 593.738 245.189 594.007 245.445C594.28 245.696 594.416 246.002 594.416 246.364C594.416 246.72 594.28 247.027 594.007 247.282C593.738 247.533 593.412 247.659 593.028 247.659ZM601.107 259.45C600.093 259.45 599.223 259.228 598.496 258.783C597.773 258.338 597.216 257.723 596.824 256.939C596.436 256.15 596.242 255.242 596.242 254.216C596.242 253.184 596.44 252.275 596.837 251.486C597.234 250.693 597.793 250.076 598.516 249.635C599.243 249.19 600.102 248.968 601.094 248.968C601.917 248.968 602.647 249.12 603.281 249.424C603.92 249.723 604.429 250.149 604.808 250.699C605.187 251.246 605.403 251.885 605.456 252.616H603.169C603.076 252.127 602.856 251.719 602.508 251.393C602.164 251.063 601.704 250.898 601.127 250.898C600.637 250.898 600.208 251.03 599.838 251.294C599.468 251.554 599.179 251.929 598.972 252.418C598.769 252.907 598.668 253.493 598.668 254.176C598.668 254.868 598.769 255.463 598.972 255.96C599.175 256.454 599.459 256.835 599.824 257.104C600.195 257.368 600.629 257.5 601.127 257.5C601.479 257.5 601.794 257.434 602.072 257.302C602.354 257.166 602.589 256.969 602.779 256.714C602.968 256.458 603.098 256.148 603.169 255.782H605.456C605.398 256.5 605.187 257.137 604.821 257.692C604.456 258.243 603.958 258.675 603.327 258.988C602.697 259.296 601.957 259.45 601.107 259.45ZM611.915 259.45C610.897 259.45 610.018 259.239 609.278 258.816C608.542 258.388 607.976 257.785 607.579 257.005C607.182 256.22 606.984 255.297 606.984 254.235C606.984 253.191 607.182 252.275 607.579 251.486C607.98 250.693 608.54 250.076 609.258 249.635C609.976 249.19 610.82 248.968 611.789 248.968C612.415 248.968 613.005 249.069 613.561 249.272C614.12 249.47 614.614 249.778 615.041 250.197C615.473 250.616 615.812 251.149 616.059 251.796C616.306 252.44 616.429 253.206 616.429 254.097V254.83H608.108V253.218H614.136C614.131 252.759 614.032 252.352 613.838 251.995C613.644 251.633 613.373 251.349 613.025 251.142C612.682 250.935 612.281 250.831 611.822 250.831C611.333 250.831 610.904 250.95 610.533 251.188C610.163 251.422 609.875 251.73 609.668 252.114C609.465 252.493 609.361 252.909 609.357 253.363V254.771C609.357 255.361 609.465 255.868 609.681 256.291C609.897 256.71 610.199 257.031 610.586 257.256C610.974 257.476 611.428 257.586 611.948 257.586C612.296 257.586 612.611 257.538 612.893 257.441C613.175 257.34 613.42 257.192 613.627 256.998C613.834 256.804 613.99 256.564 614.096 256.278L616.33 256.529C616.189 257.119 615.92 257.635 615.524 258.075C615.131 258.512 614.629 258.851 614.017 259.093C613.404 259.331 612.704 259.45 611.915 259.45ZM623.176 245.716H626.176L630.195 255.524H630.354L634.372 245.716H637.373V259.252H635.02V249.952H634.894L631.153 259.212H629.395L625.654 249.933H625.529V259.252H623.176V245.716ZM639.937 259.252V249.1H642.33V259.252H639.937ZM641.14 247.659C640.761 247.659 640.435 247.533 640.162 247.282C639.889 247.027 639.752 246.72 639.752 246.364C639.752 246.002 639.889 245.696 640.162 245.445C640.435 245.189 640.761 245.061 641.14 245.061C641.524 245.061 641.85 245.189 642.118 245.445C642.392 245.696 642.528 246.002 642.528 246.364C642.528 246.72 642.392 247.027 642.118 247.282C641.85 247.533 641.524 247.659 641.14 247.659ZM646.747 249.1L648.796 252.847L650.878 249.1H653.409L650.349 254.176L653.462 259.252H650.944L648.796 255.597L646.667 259.252H644.129L647.223 254.176L644.209 249.1H646.747Z" fill="#5F6367"/>
</svg>
