<svg width="72" height="72" viewBox="0 0 72 72" fill="none" xmlns="http://www.w3.org/2000/svg">
<path fill-rule="evenodd" clip-rule="evenodd" d="M60.3361 20.5877C62.8636 24.5279 59.6683 29.7086 58.9884 34.3491C58.4041 38.3377 58.2462 42.3087 56.6131 46.0002C54.8487 49.9886 53.0216 54.4242 49.1838 56.5117C45.3589 58.5922 40.5419 58.2108 36.3675 57.0126C32.6515 55.946 30.897 51.4635 27.2398 50.2131C22.2635 48.5117 16.1032 51.6191 11.7967 48.6119C7.39122 45.5357 4.4177 39.8356 4.6889 34.4662C4.95986 29.1016 8.64486 23.9542 13.1886 21.0541C17.417 18.3552 23.5034 22.0622 27.9018 19.6502C32.1375 17.3274 31.7339 9.20962 36.4728 8.28542C40.8532 7.43115 43.1967 13.8571 47.1516 15.896C51.367 18.0692 57.7792 16.6015 60.3361 20.5877Z" fill="#00ADB5"/>
<path d="M47.3056 35.1613C47.9097 34.7446 48.7233 34.9192 49.1221 35.5508C49.5206 36.1826 49.3536 37.0333 48.7495 37.4503C44.9023 40.1062 40.4349 41.599 35.8397 41.7752L34.9193 41.7926C30.3092 41.7926 25.794 40.466 21.8662 37.9656L21.0891 37.4503L20.9803 37.366C20.4663 36.9266 20.3432 36.1428 20.7166 35.5508C21.1154 34.9192 21.929 34.7446 22.5331 35.1613C26.2083 37.6986 30.5154 39.0512 34.9193 39.0512L35.7437 39.0365C39.8591 38.8786 43.8601 37.54 47.3056 35.1613ZM34.9321 33.5644C35.6561 33.5644 36.243 34.1781 36.243 34.9351C36.243 35.6921 35.6561 36.3058 34.9321 36.3058H34.9193C34.1954 36.3058 33.6085 35.6921 33.6085 34.9351C33.6085 34.1781 34.1954 33.5644 34.9193 33.5644H34.9321ZM38.8518 26.7109V23.9695C38.8518 23.606 38.7136 23.2574 38.4678 23.0004C38.222 22.7433 37.8886 22.5988 37.541 22.5988H32.2977C31.95 22.5988 31.6167 22.7433 31.3709 23.0004C31.1251 23.2574 30.9869 23.606 30.9869 23.9695V26.7109C30.9869 27.4679 30.4 28.0816 29.6761 28.0816C28.9521 28.0816 28.3652 27.4679 28.3652 26.7109V23.9695C28.3652 22.8789 28.7798 21.8333 29.5173 21.0621C30.2548 20.291 31.2547 19.8574 32.2977 19.8574H37.541C38.5839 19.8574 39.5839 20.291 40.3214 21.0621C41.0588 21.8333 41.4735 22.8789 41.4735 23.9695V26.7109C41.4735 27.4679 40.8866 28.0816 40.1626 28.0816C39.4387 28.0816 38.8518 27.4679 38.8518 26.7109Z" fill="#4A4040"/>
<path d="M46.7165 29.4529C46.7165 28.6959 46.1296 28.0822 45.4056 28.0822H24.4325C23.7085 28.0822 23.1216 28.6959 23.1216 29.4529V43.1599C23.1216 43.9169 23.7085 44.5306 24.4325 44.5306H45.4056C46.1296 44.5306 46.7165 43.9169 46.7165 43.1599V29.4529ZM49.3381 43.1599C49.3381 45.4309 47.5775 47.272 45.4056 47.272H24.4325C22.2606 47.272 20.5 45.4309 20.5 43.1599V29.4529C20.5 27.1819 22.2606 25.3408 24.4325 25.3408H45.4056C47.5775 25.3408 49.3381 27.1819 49.3381 29.4529V43.1599Z" fill="#4A4040"/>
</svg>
